<?xml version="1.0" standalone="no"?>
<!DOCTYPE svg PUBLIC "-//W3C//DTD SVG 1.1//EN" "http://www.w3.org/Graphics/SVG/1.1/DTD/svg11.dtd" >
<svg xmlns="http://www.w3.org/2000/svg" xmlns:xlink="http://www.w3.org/1999/xlink" version="1.1">
<metadata>
Created by FontForge 20170731 at Wed Feb  2 03:49:17 2022
 By Aleksey,,,
Copyright (c) 2011 by Ian Party, distributed by B&#38;P Foundry Srl, Switzerland, d/b/a b+p swiss typefaces: http://www.swisstypefaces.com. All rights reserved.
</metadata>
<defs>
<font id="SuisseBPIntl-Antique" horiz-adv-x="1144" >
  <font-face 
    font-family="Suisse BP Int'l Antique"
    font-weight="600"
    font-stretch="normal"
    units-per-em="2048"
    panose-1="0 0 0 0 0 0 0 0 0 0"
    ascent="1536"
    descent="-512"
    x-height="1004"
    cap-height="1360"
    bbox="-463 -459 2470 1892"
    underline-thickness="102"
    underline-position="-307"
    unicode-range="U+0020-FB06"
  />
<missing-glyph horiz-adv-x="430" 
 />
    <glyph glyph-name="f_f" unicode="ff" horiz-adv-x="1253" 
d="M143 1004v57q0 77 15.5 130t43 86.5t76.5 51.5t105 24.5t139 6.5h88v-209h-51q-98 0 -125.5 -21t-27.5 -102v-24h204v-195h-204v-809h-263v809h-145v195h145zM770 1004v57q0 77 15.5 130t43 86.5t76.5 51.5t105 24.5t139 6.5h88v-209h-51q-98 0 -126 -21.5t-28 -101.5
v-24h205v-195h-205v-809h-262v809h-145v195h145z" />
    <glyph glyph-name="fi" unicode="fi" horiz-adv-x="1126" 
d="M143 1004v57q0 77 15.5 130t43 86.5t76.5 51.5t105 24.5t139 6.5h88v-209h-51q-98 0 -125.5 -21t-27.5 -102v-24h204v-195h-204v-809h-263v809h-145v195h145zM745 1004h263v-1004h-263v1004zM745 1360h263v-244h-263v244z" />
    <glyph glyph-name="fl" unicode="fl" horiz-adv-x="1126" 
d="M143 1004v57q0 77 15.5 130t43 86.5t76.5 51.5t105 24.5t139 6.5h88v-209h-51q-98 0 -125.5 -21t-27.5 -102v-24h204v-195h-204v-809h-263v809h-145v195h145zM1008 1360v-1360h-263v1360h263z" />
    <glyph glyph-name="f_f_i" unicode="ffi" horiz-adv-x="1753" 
d="M143 1004v57q0 77 15.5 130t43 86.5t76.5 51.5t105 24.5t139 6.5h88v-209h-51q-98 0 -125.5 -21t-27.5 -102v-24h204v-195h-204v-809h-263v809h-145v195h145zM770 1004v57q0 77 15.5 130t43 86.5t76.5 51.5t105 24.5t139 6.5h88v-209h-51q-98 0 -126 -21.5t-28 -101.5
v-24h205v-195h-205v-809h-262v809h-145v195h145zM1372 1004h262v-1004h-262v1004zM1372 1360h262v-244h-262v244z" />
    <glyph glyph-name="f_f_l" unicode="ffl" horiz-adv-x="1753" 
d="M143 1004v57q0 77 15.5 130t43 86.5t76.5 51.5t105 24.5t139 6.5h88v-209h-51q-98 0 -125.5 -21t-27.5 -102v-24h204v-195h-204v-809h-263v809h-145v195h145zM770 1004v57q0 77 15.5 130t43 86.5t76.5 51.5t105 24.5t139 6.5h88v-209h-51q-98 0 -126 -21.5t-28 -101.5
v-24h205v-195h-205v-809h-262v809h-145v195h145zM1634 1360v-1360h-262v1360h262z" />
    <glyph glyph-name="s_t" unicode="st" horiz-adv-x="1699" 
d="M946 719l-237 -33q-14 67 -77 109.5t-157 42.5q-73 0 -121.5 -25.5t-48.5 -67.5q0 -77 150 -108l118 -27q76 -17 124 -30t103 -37.5t86 -53.5t51.5 -75t20.5 -105q0 -104 -63 -181t-164 -115t-223 -38q-194 0 -322 93t-147 243l248 37q10 -78 71 -130t162 -52
q185 0 185 110q0 27 -12.5 46.5t-40.5 32.5t-52.5 20t-69.5 16l-133 29q-163 35 -248.5 105.5t-85.5 201.5q0 135 123 217t306 82q105 0 198.5 -31.5t165 -103t90.5 -172.5zM1176 1004v299h262v-299h213v-195h-213v-481q0 -75 28.5 -100t100.5 -25h80v-203h-193
q-88 0 -142 13.5t-84.5 48.5t-41 84t-10.5 130v533h-146v195h146z" />
    <glyph glyph-name="f_b" unicode="fb" horiz-adv-x="1771" 
d="M143 1004v57q0 77 15.5 130t43 86.5t76.5 51.5t105 24.5t139 6.5h88v-209h-51q-98 0 -125.5 -21t-27.5 -102v-24h204v-195h-204v-809h-263v809h-145v195h145zM745 1360v-1360h254l5 90q100 -115 262 -115q197 0 325.5 144t128.5 381q0 243 -122 384.5t-316 141.5
q-180 0 -274 -123v457h-263zM1231 825q105 0 164 -88.5t59 -234.5t-59 -236t-164 -90q-108 0 -171 88t-63 236q0 151 62.5 238t171.5 87z" />
    <glyph glyph-name="f_h" unicode="fh" horiz-adv-x="1761" 
d="M143 1004v57q0 77 15.5 130t43 86.5t76.5 51.5t105 24.5t139 6.5h88v-209h-51q-98 0 -125.5 -21t-27.5 -102v-24h204v-195h-204v-809h-263v809h-145v195h145zM1008 1360v-471q43 67 121.5 102t175.5 35q193 0 282 -117q72 -93 72 -284v-625h-262v567q0 135 -37 187
q-45 61 -141 61q-62 0 -105 -23.5t-65.5 -68t-31.5 -95t-9 -116.5v-512h-263v1360h263z" />
    <glyph glyph-name="f_k" unicode="fk" horiz-adv-x="1683" 
d="M143 1004v57q0 77 15.5 130t43 86.5t76.5 51.5t105 24.5t139 6.5h88v-209h-51q-98 0 -125.5 -21t-27.5 -102v-24h204v-195h-204v-809h-263v809h-145v195h145zM1008 1360h-263v-1360h263v305l125 131l264 -436h301l-385 625l362 379h-309l-358 -379v735z" />
    <glyph glyph-name="f_j" unicode="fj" horiz-adv-x="1128" 
d="M143 1004v57q0 77 15.5 130t43 86.5t76.5 51.5t105 24.5t139 6.5h88v-209h-51q-98 0 -125.5 -21t-27.5 -102v-24h204v-195h-204v-809h-263v809h-145v195h145zM745 -8v1012h263v-1016q0 -110 -14.5 -175t-55.5 -103.5t-100.5 -51t-161.5 -12.5h-68v211h35q71 0 86.5 23.5
t15.5 111.5zM745 1360h263v-244h-263v244z" />
    <glyph glyph-name="f_t" unicode="ft" horiz-adv-x="1306" 
d="M143 1004v57q0 77 15.5 130t43 86.5t76.5 51.5t105 24.5t139 6.5h88v-209h-51q-98 0 -125.5 -21t-27.5 -102v-24h204v-195h-204v-809h-263v809h-145v195h145zM782 1004v299h262v-299h213v-195h-213v-481q0 -75 29 -100t101 -25h79v-203h-192q-88 0 -142 13.5t-85 48.5
t-41.5 84t-10.5 130v533h-145v195h145z" />
    <glyph glyph-name="f_f_j" unicode="ffj" horiz-adv-x="1755" 
d="M143 1004v57q0 77 15.5 130t43 86.5t76.5 51.5t105 24.5t139 6.5h88v-209h-51q-98 0 -125.5 -21t-27.5 -102v-24h204v-195h-204v-809h-263v809h-145v195h145zM770 1004v57q0 77 15.5 130t43 86.5t76.5 51.5t105 24.5t139 6.5h88v-209h-51q-98 0 -126 -21.5t-28 -101.5
v-24h205v-195h-205v-809h-262v809h-145v195h145zM1372 -8v1012h262v-1016q0 -110 -14.5 -175t-55 -103.5t-100 -51t-161.5 -12.5h-68v211h35q70 0 86 23.5t16 111.5zM1372 1360h262v-244h-262v244z" />
    <glyph glyph-name="f_f_k" unicode="ffk" horiz-adv-x="2310" 
d="M143 1004v57q0 77 15.5 130t43 86.5t76.5 51.5t105 24.5t139 6.5h88v-209h-51q-98 0 -125.5 -21t-27.5 -102v-24h204v-195h-204v-809h-263v809h-145v195h145zM770 1004v57q0 77 15.5 130t43 86.5t76.5 51.5t105 24.5t139 6.5h88v-209h-51q-98 0 -126 -21.5t-28 -101.5
v-24h205v-195h-205v-809h-262v809h-145v195h145zM1634 1360h-262v-1360h262v305l125 131l264 -436h301l-385 625l363 379h-309l-359 -379v735z" />
    <glyph glyph-name="f_f_t" unicode="fft" horiz-adv-x="1923" 
d="M143 1004v57q0 77 15.5 130t43 86.5t76.5 51.5t105 24.5t139 6.5h88v-209h-51q-98 0 -125.5 -21t-27.5 -102v-24h204v-195h-204v-809h-263v809h-145v195h145zM770 1004v57q0 77 15.5 130t43 86.5t76.5 51.5t105 24.5t139 6.5h88v-209h-51q-98 0 -126 -21.5t-28 -101.5
v-24h205v-195h-205v-809h-262v809h-145v195h145zM1399 1004v299h262v-299h213v-195h-213v-481q0 -75 28.5 -100t100.5 -25h80v-203h-193q-88 0 -142 13.5t-84.5 48.5t-41 84t-10.5 130v533h-146v195h146z" />
    <glyph glyph-name="f_f_b" unicode="ffb" horiz-adv-x="2398" 
d="M143 1004v57q0 77 15.5 130t43 86.5t76.5 51.5t105 24.5t139 6.5h88v-209h-51q-98 0 -125.5 -21t-27.5 -102v-24h204v-195h-204v-809h-263v809h-145v195h145zM770 1004v57q0 77 15.5 130t43 86.5t76.5 51.5t105 24.5t139 6.5h88v-209h-51q-98 0 -126 -21.5t-28 -101.5
v-24h205v-195h-205v-809h-262v809h-145v195h145zM1372 1360v-1360h254l4 90q100 -115 262 -115q197 0 326 144t129 381q0 243 -122 384.5t-316 141.5q-181 0 -275 -123v457h-262zM1858 825q105 0 164 -88.5t59 -234.5t-59 -236t-164 -90q-108 0 -171 88t-63 236
q0 151 62.5 238t171.5 87z" />
    <glyph glyph-name="f_f_h" unicode="ffh" horiz-adv-x="2387" 
d="M143 1004v57q0 77 15.5 130t43 86.5t76.5 51.5t105 24.5t139 6.5h88v-209h-51q-98 0 -125.5 -21t-27.5 -102v-24h204v-195h-204v-809h-263v809h-145v195h145zM770 1004v57q0 77 15.5 130t43 86.5t76.5 51.5t105 24.5t139 6.5h88v-209h-51q-98 0 -126 -21.5t-28 -101.5
v-24h205v-195h-205v-809h-262v809h-145v195h145zM1634 1360v-471q43 67 121.5 102t175.5 35q194 0 283 -117q72 -93 72 -284v-625h-263v567q0 136 -36 187q-45 61 -142 61q-62 0 -105 -23.5t-65.5 -68t-31.5 -95t-9 -116.5v-512h-262v1360h262z" />
    <glyph glyph-name="s_p" unicode="sp" horiz-adv-x="2152" 
d="M946 719l-237 -33q-14 67 -77 109.5t-157 42.5q-73 0 -121.5 -25.5t-48.5 -67.5q0 -77 150 -108l118 -27q76 -17 124 -30t103 -37.5t86 -53.5t51.5 -75t20.5 -105q0 -104 -63 -181t-164 -115t-223 -38q-194 0 -322 93t-147 243l248 37q10 -78 71 -130t162 -52
q185 0 185 110q0 27 -12.5 46.5t-40.5 32.5t-52.5 20t-69.5 16l-133 29q-163 35 -248.5 105.5t-85.5 201.5q0 135 123 217t306 82q105 0 198.5 -31.5t165 -103t90.5 -172.5zM1389 -354v444q100 -115 258 -115q197 0 325.5 144t128.5 381q0 243 -122 384.5t-316 141.5
q-189 0 -283 -131v109h-254v-1358h263zM1612 825q105 0 164 -88.5t59 -234.5t-59 -236t-164 -90q-108 0 -171 88t-63 236q0 151 62.5 238t171.5 87z" />
    <glyph glyph-name="c_t" unicode="ct" horiz-adv-x="1755" 
d="M557 1026q171 0 299.5 -87.5t169.5 -262.5l-248 -37q-15 81 -71 133.5t-152 52.5q-108 0 -173 -83t-65 -240q0 -156 66 -241t172 -85q191 0 229 193l250 -35q-30 -121 -105 -204t-170 -119t-208 -36q-234 0 -367 144.5t-133 380.5q0 237 135 381.5t371 144.5zM1231 1004
v299h262v-299h213v-195h-213v-481q0 -75 28.5 -100t100.5 -25h80v-203h-193q-88 0 -142 13.5t-84.5 48.5t-41 84t-10.5 130v533h-146v195h146z" />
    <glyph glyph-name="t_t" unicode="tt" horiz-adv-x="1359" 
d="M156 1004v299h262v-299h213v-195h-213v-481q0 -75 28.5 -100t100.5 -25h80v-203h-193q-88 0 -142 13.5t-84.5 48.5t-41 84t-10.5 130v533h-146v195h146zM836 1004v299h262v-299h213v-195h-213v-481q0 -75 28.5 -100t100.5 -25h80v-203h-193q-88 0 -142 13.5t-84.5 48.5
t-41 84t-10.5 130v533h-146v195h146z" />
    <glyph glyph-name="t_f" unicode="tf" horiz-adv-x="1306" 
d="M156 1004v299h262v-299h213v-195h-213v-481q0 -75 28.5 -100t100.5 -25h80v-203h-193q-88 0 -142 13.5t-84.5 48.5t-41 84t-10.5 130v533h-146v195h146zM823 1004v57q0 77 15.5 130t43 86.5t76.5 51.5t105 24.5t139 6.5h88v-209h-51q-98 0 -126 -21.5t-28 -101.5v-24h205
v-195h-205v-809h-262v809h-145v195h145z" />
    <glyph glyph-name=".notdef" horiz-adv-x="430" 
 />
    <glyph glyph-name=".null" horiz-adv-x="0" 
 />
    <glyph glyph-name="nonmarkingreturn" horiz-adv-x="682" 
 />
    <glyph glyph-name="space" unicode=" " horiz-adv-x="430" 
 />
    <glyph glyph-name="exclam" unicode="!" horiz-adv-x="475" 
d="M326 408h-172l-48 618v334h263v-334zM379 0h-283v285h283v-285z" />
    <glyph glyph-name="quotedbl" unicode="&#x22;" horiz-adv-x="653" 
d="M25 1360h278l-39 -494h-201zM344 1360h277l-37 -494h-201z" />
    <glyph glyph-name="numbersign" unicode="#" horiz-adv-x="1380" 
d="M109 1040h264l45 312h235l-45 -312h254l45 312h236l-45 -312h264l-25 -204h-268l-39 -287h262l-22 -203h-269l-49 -346h-235l49 346h-254l-49 -346h-236l49 346h-260l25 203h264l39 287h-258zM580 836l-39 -287h254l39 287h-254z" />
    <glyph glyph-name="dollar" unicode="$" horiz-adv-x="1187" 
d="M535 1542h108v-162q205 -19 330 -143t125 -309h-256q0 110 -56 174.5t-143 77.5v-377l14 -2q59 -14 106 -29t103.5 -38.5t98 -54.5t77.5 -71.5t55 -96.5t19 -122q0 -76 -25.5 -141t-69.5 -112.5t-104 -82t-129.5 -53.5t-144.5 -23v-159h-108v162q-212 17 -342 145.5
t-127 327.5h256q0 -125 60 -194.5t153 -82.5v418l-74 18q-60 14 -111.5 33.5t-101.5 52.5t-84.5 74t-56 100t-21.5 129q0 91 39 164t104 118t143 69.5t163 29.5v160zM870 373q0 79 -56 123.5t-171 72.5v-395q97 5 162 55t65 144zM332 1016q0 -137 186 -182l17 -5v355
q-83 -2 -143 -45.5t-60 -122.5z" />
    <glyph glyph-name="percent" unicode="%" horiz-adv-x="1771" 
d="M369 569q-160 0 -244 107t-84 297q0 188 84 294.5t244 106.5t243.5 -106.5t83.5 -294.5q0 -190 -83.5 -297t-243.5 -107zM369 709q139 0 139 264q0 136 -35 199t-104 63q-140 0 -140 -262q0 -264 140 -264zM274 0h271l952 1360h-270zM1403 -14q-160 0 -244 107t-84 296
q0 188 84 295t244 107t244 -107t84 -295q0 -189 -84 -296t-244 -107zM1403 125q139 0 139 264q0 136 -35 199t-104 63t-104 -63t-35 -199q0 -264 139 -264z" />
    <glyph glyph-name="ampersand" unicode="&#x26;" horiz-adv-x="1316" 
d="M481 -25q-204 0 -333.5 115.5t-129.5 290.5q0 74 27 138.5t74 112.5t103.5 82.5t121.5 57.5q-141 168 -141 309q0 137 111.5 220t283.5 83q71 0 136 -16.5t121.5 -50.5t90 -95.5t33.5 -142.5q0 -111 -72 -204.5t-186 -145.5l182 -199q44 121 47 232h260
q-26 -224 -137 -414l324 -348h-350l-134 145q-188 -170 -432 -170zM518 176q142 0 254 125l-293 324q-93 -38 -142.5 -97.5t-49.5 -134.5q0 -96 64.5 -156.5t166.5 -60.5zM471 1083q0 -50 33 -101.5t90 -113.5q137 66 137 197q0 61 -37.5 95t-95.5 34q-53 0 -90 -30.5
t-37 -80.5z" />
    <glyph glyph-name="quotesingle" unicode="'" horiz-adv-x="327" 
d="M25 1360h276l-39 -494h-201z" />
    <glyph glyph-name="parenleft" unicode="(" horiz-adv-x="507" 
d="M35 504q0 135 24.5 268t65 242t83 193t89.5 153h240q-104 -171 -168 -390.5t-64 -465.5q0 -247 64 -467t168 -391h-240q-47 70 -89.5 154t-83 193.5t-65 242.5t-24.5 268z" />
    <glyph glyph-name="parenright" unicode=")" horiz-adv-x="507" 
d="M467 504q0 -135 -24 -268t-64.5 -242.5t-83.5 -194t-90 -153.5h-240q104 171 168 391t64 467q0 246 -64 465.5t-168 390.5h240q47 -68 90 -152.5t83.5 -193.5t64.5 -242t24 -268z" />
    <glyph glyph-name="asterisk" unicode="*" horiz-adv-x="700" 
d="M422 1360v-199l188 72l64 -164l-195 -68l117 -161l-137 -103l-123 166l-113 -166l-149 101l116 161l-190 70l61 164l185 -72v199h176z" />
    <glyph glyph-name="plus" unicode="+" horiz-adv-x="1181" 
d="M711 0h-238v393h-412v230h412v403h238v-403h409v-230h-409v-393z" />
    <glyph glyph-name="comma" unicode="," horiz-adv-x="487" 
d="M96 0v285h295v-305l-158 -304h-149l141 324h-129z" />
    <glyph glyph-name="hyphen" unicode="-" horiz-adv-x="794" 
d="M713 393h-631v230h631v-230z" />
    <glyph glyph-name="period" unicode="." horiz-adv-x="475" 
d="M379 0h-283v285h283v-285z" />
    <glyph glyph-name="slash" unicode="/" horiz-adv-x="755" 
d="M233 0h-243l532 1360h244z" />
    <glyph glyph-name="zero" unicode="0" horiz-adv-x="1261" 
d="M631 -25q-181 0 -307 90t-187 247t-61 370t61 369t187 244.5t307 88.5t307 -88.5t187 -244.5t61 -369t-61 -370t-187 -247t-307 -90zM631 176q140 0 213.5 129.5t73.5 376.5t-73.5 374.5t-213.5 127.5t-213.5 -127.5t-73.5 -374.5t73.5 -376.5t213.5 -129.5z" />
    <glyph glyph-name="one" unicode="1" horiz-adv-x="702" 
d="M559 0h-262v1012h-297v178q58 2 92.5 4.5t74 8.5t64 17t50 29.5t44 45.5t35.5 65h199v-1360z" />
    <glyph glyph-name="two" unicode="2" horiz-adv-x="1101" 
d="M571 1384q199 0 327 -98t128 -272q0 -64 -21 -127.5t-66 -129t-97 -125t-134.5 -133t-155 -133.5t-181.5 -145h686v-221h-1014v207q330 266 438 364q204 187 256 318q23 56 23 110q0 89 -56.5 139t-146.5 50q-99 0 -166 -65.5t-67 -209.5h-256q-3 213 137 342t366 129z
" />
    <glyph glyph-name="three" unicode="3" horiz-adv-x="1169" 
d="M567 176q111 0 185.5 56t74.5 151q0 78 -47 128.5t-121.5 70.5t-177.5 20h-55v207h45q151 0 236.5 51t85.5 146q0 86 -63.5 132t-156.5 46q-114 0 -183 -66t-89 -176l-248 29q33 192 169.5 302.5t367.5 110.5q71 0 137 -13t126.5 -41.5t105.5 -70t71.5 -104t26.5 -137.5
q0 -96 -52.5 -175t-134.5 -124q105 -43 164.5 -133t59.5 -197q0 -102 -42 -182t-115.5 -130t-169 -76t-206.5 -26q-115 0 -210 35t-158.5 95.5t-102 136t-49.5 161.5l248 31q21 -114 89.5 -186t188.5 -72z" />
    <glyph glyph-name="four" unicode="4" horiz-adv-x="1206" 
d="M696 1026l-395 -494h395v494zM1192 532v-221h-236v-311h-260v311h-682v205l686 844h256v-828h236z" />
    <glyph glyph-name="five" unicode="5" horiz-adv-x="1185" 
d="M594 176q112 0 181 70.5t69 197.5q0 132 -76 203.5t-180 71.5q-86 0 -150 -37t-86 -90l-239 12l90 756h852v-221h-637l-37 -291q106 76 274 76q90 0 171 -31t145 -88.5t101.5 -150.5t37.5 -208q0 -111 -41 -201.5t-112 -149t-165 -89.5t-202 -31q-117 0 -213 37.5
t-157 99.5t-96.5 137t-43.5 157l248 28q17 -114 82 -186t184 -72z" />
    <glyph glyph-name="six" unicode="6" horiz-adv-x="1196" 
d="M354 438q0 -118 71.5 -190t180.5 -72t178.5 71t69.5 191q0 117 -70 189.5t-178 72.5q-109 0 -180.5 -72.5t-71.5 -189.5zM618 1184q-130 0 -205 -111t-75 -303q47 59 129 95t186 36q96 0 180.5 -32t148.5 -90t101 -147t37 -196q0 -208 -143.5 -334.5t-370.5 -126.5
q-135 0 -238 50.5t-166 141.5t-94.5 211t-31.5 267q0 122 18 228.5t60.5 201.5t105.5 162.5t159 107t216 39.5q108 0 195.5 -34t141.5 -89.5t84.5 -120.5t35.5 -134l-256 -2q-10 84 -70.5 132t-147.5 48z" />
    <glyph glyph-name="seven" unicode="7" horiz-adv-x="970" 
d="M-6 1139v221h1014v-221q-143 -147 -236.5 -264.5t-167 -254t-111 -286t-47.5 -334.5h-288q29 612 585 1139h-749z" />
    <glyph glyph-name="eight" unicode="8" horiz-adv-x="1220" 
d="M610 1384q217 0 349.5 -98t132.5 -252q0 -205 -168 -307q209 -119 209 -340q0 -131 -70.5 -225.5t-187 -140.5t-265.5 -46t-265.5 46t-186.5 140.5t-70 225.5q0 222 211 340q-83 46 -126.5 128t-43.5 177q0 155 132 253.5t349 98.5zM610 618q-116 0 -185 -60t-69 -159
t69 -161t185 -62t185 62t69 161t-69 159t-185 60zM836 1001q0 82 -62 132.5t-164 50.5t-163.5 -50.5t-61.5 -132.5q0 -83 62 -136.5t163 -53.5t163.5 53.5t62.5 136.5z" />
    <glyph glyph-name="nine" unicode="9" horiz-adv-x="1183" 
d="M829 924q0 118 -71 189t-180 71t-178.5 -70.5t-69.5 -189.5q0 -118 70 -191.5t178 -73.5t179.5 74t71.5 191zM565 176q130 0 205.5 111t75.5 303q-47 -59 -126 -95t-179 -36q-132 0 -239.5 53.5t-173 160.5t-65.5 249q0 206 141.5 334t368.5 128q113 0 202.5 -31.5
t151.5 -88.5t103 -140.5t59.5 -184.5t18.5 -224q0 -120 -18.5 -226.5t-61 -201.5t-105.5 -163.5t-157.5 -108.5t-212.5 -40q-108 0 -196 34t-143 90t-86 121t-36 134l256 2q10 -84 70 -132t147 -48z" />
    <glyph glyph-name="colon" unicode=":" horiz-adv-x="475" 
d="M96 0v285h283v-285h-283zM96 719v285h283v-285h-283z" />
    <glyph glyph-name="semicolon" unicode=";" horiz-adv-x="487" 
d="M96 719v285h283v-285h-283zM96 0v285h295v-305l-158 -304h-149l141 324h-129z" />
    <glyph glyph-name="less" unicode="&#x3c;" horiz-adv-x="1146" 
d="M61 616l983 420v-256l-694 -272l694 -272v-256l-983 419v217z" />
    <glyph glyph-name="equal" unicode="=" horiz-adv-x="1171" 
d="M1069 590h-967v229h967v-229zM1069 188h-967v230h967v-230z" />
    <glyph glyph-name="greater" unicode="&#x3e;" horiz-adv-x="1146" 
d="M1085 616v-217l-983 -419v256l695 272l-695 272v256z" />
    <glyph glyph-name="question" unicode="?" horiz-adv-x="997" 
d="M524 1384q89 0 170 -21t147.5 -61.5t106 -108t39.5 -153.5q0 -63 -19.5 -116.5t-54.5 -94t-71 -68.5t-82 -54q-54 -31 -82.5 -50.5t-56 -49t-38 -65.5t-10.5 -87v-60h-256v66q0 134 48 211t155 139q37 22 49.5 29.5t41.5 26t39.5 28t29 27t25 31.5t12.5 33t6 40
q0 73 -60.5 115.5t-142.5 42.5q-111 0 -180 -63.5t-72 -192.5l-258 4q0 206 144.5 329t369.5 123zM303 0v285h283v-285h-283z" />
    <glyph glyph-name="at" unicode="@" horiz-adv-x="1570" 
d="M1147 291q-77 0 -129 46t-64 130q-89 -170 -288 -170q-120 0 -200.5 86t-80.5 254q0 84 27 162.5t75.5 141t123.5 100.5t163 38q77 0 134.5 -39t84.5 -106q3 18 7.5 56.5t7.5 56.5h135l-56 -414q-6 -43 -6 -78q0 -127 86 -127q77 0 130 92t53 246q0 231 -145 356
t-386 125q-173 0 -308.5 -77t-209.5 -211t-74 -300q0 -238 140 -389t378 -151q92 0 191 21t178 61l53 -133q-93 -43 -209 -68t-213 -25q-196 0 -349 89.5t-236.5 246.5t-83.5 353q0 151 57.5 284t156.5 227.5t237.5 149.5t295.5 55q112 0 211.5 -23t184.5 -71t146 -119
t95.5 -172t34.5 -223q0 -112 -30 -205t-79.5 -152t-111.5 -91.5t-127 -32.5zM776 936q-102 0 -164.5 -88t-62.5 -213q0 -99 41.5 -149t118.5 -50q108 0 170.5 91t62.5 223q0 89 -44 137.5t-122 48.5z" />
    <glyph glyph-name="A" unicode="A" horiz-adv-x="1304" 
d="M0 0l514 1360h274l517 -1360h-295l-101 281h-532l-98 -281h-279zM643 1026l-186 -524h372z" />
    <glyph glyph-name="B" unicode="B" horiz-adv-x="1263" 
d="M123 0v1360h536q79 0 146.5 -9t135 -33.5t114.5 -63t76.5 -102t29.5 -146.5q0 -90 -46.5 -169t-108.5 -118q44 -21 77 -44t64.5 -59.5t48 -89.5t16.5 -120q0 -87 -28 -156.5t-76 -115.5t-116.5 -76.5t-145 -44t-164.5 -13.5h-559zM395 588v-367h301q238 0 238 185
q0 95 -61 138.5t-189 43.5h-289zM395 1139v-330h281q207 0 207 170q0 80 -54.5 120t-152.5 40h-281z" />
    <glyph glyph-name="C" unicode="C" horiz-adv-x="1368" 
d="M1061 477l260 -39q-41 -211 -198.5 -337t-401.5 -126q-306 0 -475.5 189.5t-169.5 521.5q0 326 175 512t478 186q240 0 396 -124.5t196 -337.5l-260 -39q-29 145 -121 214.5t-219 69.5q-159 0 -261 -125t-102 -356q0 -238 101 -365.5t258 -127.5q131 0 223 69.5
t121 214.5z" />
    <glyph glyph-name="D" unicode="D" horiz-adv-x="1333" 
d="M979 680q0 86 -16 155.5t-42.5 117t-68 82t-84 54.5t-98.5 31.5t-104 15t-109 3.5h-62v-918h62q61 0 109 3.5t104 15t98.5 31.5t84 54.5t68 82t42.5 117t16 155.5zM123 1360h348q139 0 251 -18t215.5 -64.5t173 -121.5t110.5 -195.5t41 -280.5t-41 -280.5t-110.5 -195.5
t-173 -121.5t-215.5 -64.5t-251 -18h-348v1360z" />
    <glyph glyph-name="E" unicode="E" horiz-adv-x="1173" 
d="M123 0v1360h1005v-221h-733v-332h692v-221h-692v-365h733v-221h-1005z" />
    <glyph glyph-name="F" unicode="F" horiz-adv-x="1128" 
d="M123 0v1360h1005v-221h-733v-332h692v-221h-692v-586h-272z" />
    <glyph glyph-name="G" unicode="G" horiz-adv-x="1445" 
d="M752 1384q236 0 392.5 -122t196.5 -316l-260 -39q-31 130 -120 195t-211 65q-180 0 -286 -120.5t-106 -360.5q0 -242 104 -367.5t286 -125.5q61 0 118 15.5t109.5 47.5t84.5 91.5t32 139.5v23h-344v223h595v-733h-215l-8 162q-60 -87 -166 -137t-247 -50
q-292 0 -461.5 190.5t-169.5 520.5q0 322 180.5 510t495.5 188z" />
    <glyph glyph-name="H" unicode="H" horiz-adv-x="1409" 
d="M1014 1360h272v-1360h-272v586h-619v-586h-272v1360h272v-553h619v553z" />
    <glyph glyph-name="I" unicode="I" horiz-adv-x="518" 
d="M395 1360v-1360h-272v1360h272z" />
    <glyph glyph-name="J" unicode="J" horiz-adv-x="620" 
d="M35 0v227h28q103 0 132.5 22.5t29.5 108.5v1002h273v-1010q0 -204 -72.5 -277t-273.5 -73h-117z" />
    <glyph glyph-name="K" unicode="K" horiz-adv-x="1296" 
d="M395 1360v-615l563 615h318l-506 -543l545 -817h-322l-405 621l-193 -207v-414h-272v1360h272z" />
    <glyph glyph-name="L" unicode="L" horiz-adv-x="1067" 
d="M395 1360v-1139h672v-221h-944v1360h272z" />
    <glyph glyph-name="M" unicode="M" horiz-adv-x="1701" 
d="M987 0h-270l-322 1004v-1004h-272v1360h420l317 -1016l305 1016h414v-1360h-272v1004z" />
    <glyph glyph-name="N" unicode="N" horiz-adv-x="1409" 
d="M1286 0h-362l-529 1032v-1032h-272v1360h362l529 -1032v1032h272v-1360z" />
    <glyph glyph-name="O" unicode="O" horiz-adv-x="1486" 
d="M1128 686q0 238 -106.5 359.5t-278.5 121.5q-171 0 -278 -121.5t-107 -359.5t108 -365.5t277 -127.5q170 0 277.5 127.5t107.5 365.5zM1411 686q0 -326 -180 -518.5t-488 -192.5t-487.5 192.5t-179.5 518.5q0 325 179 511.5t488 186.5q310 0 489 -186.5t179 -511.5z" />
    <glyph glyph-name="P" unicode="P" horiz-adv-x="1177" 
d="M123 1360h455q69 0 123 -3.5t118 -14.5t112 -30.5t95 -54t77.5 -81.5t49 -116.5t18.5 -156.5q0 -103 -31 -180.5t-83 -126t-129 -78.5t-159 -41.5t-183 -11.5h-185v-465h-278v1360zM569 1139h-168v-455h189q54 0 96 5t82 19t66 37.5t41.5 63t15.5 92.5q0 65 -20 111
t-49 70t-76 37.5t-84.5 16.5t-92.5 3z" />
    <glyph glyph-name="Q" unicode="Q" horiz-adv-x="1486" 
d="M1411 686q0 -188 -61 -334t-176 -239l161 -213l-168 -127l-182 239q-110 -37 -242 -37q-308 0 -487.5 192.5t-179.5 518.5q0 325 179 511.5t488 186.5q310 0 489 -186.5t179 -511.5zM1128 686q0 238 -106.5 359.5t-278.5 121.5q-171 0 -278 -121.5t-107 -359.5
t108 -365.5t277 -127.5q43 0 95 10l-103 137l168 129l115 -154q110 129 110 371z" />
    <glyph glyph-name="R" unicode="R" horiz-adv-x="1267" 
d="M938 0l-283 539h-55h-199v-539h-278v1360h418q341 0 492 -95.5t151 -312.5q0 -119 -63.5 -212t-190.5 -146l317 -594h-309zM586 1139h-185v-381h199q159 0 231 45.5t72 146.5q0 58 -22.5 96.5t-68 58t-98.5 27t-128 7.5z" />
    <glyph glyph-name="S" unicode="S" horiz-adv-x="1239" 
d="M84 995q0 79 31.5 145t84 110.5t121.5 75t142.5 44.5t148.5 14q219 0 374 -105t194 -296l-262 -35q-13 59 -44.5 102.5t-76.5 68t-95 36.5t-106 12q-58 0 -110 -15t-91 -53.5t-39 -94.5q0 -126 189 -166l180 -37q76 -15 135 -32.5t124 -50t107.5 -74t70.5 -106t28 -145.5
t-30 -150t-82 -118t-122 -83t-150 -50.5t-167 -16.5q-253 0 -408 121.5t-188 329.5l262 35q56 -268 340 -268q51 0 96 9t86 29t64.5 57.5t23.5 88.5q0 34 -12.5 60.5t-33 45.5t-54 34.5t-68.5 25.5t-83 20l-181 37q-86 18 -155.5 48t-125.5 76.5t-87 115.5t-31 155z" />
    <glyph glyph-name="T" unicode="T" horiz-adv-x="1142" 
d="M434 0v1139h-424v221h1123v-221h-426v-1139h-273z" />
    <glyph glyph-name="U" unicode="U" horiz-adv-x="1347" 
d="M102 1360h273v-778q0 -99 12 -165t43.5 -119.5t92.5 -79t153 -25.5q74 0 127 17.5t85.5 48.5t51.5 81.5t26 107t7 134.5v778h272v-776q0 -228 -59.5 -361t-181.5 -190.5t-328 -57.5t-329.5 57.5t-184 191t-60.5 360.5v776z" />
    <glyph glyph-name="V" unicode="V" horiz-adv-x="1212" 
d="M-10 1360h295l329 -1020l320 1020h289l-475 -1360h-279z" />
    <glyph glyph-name="W" unicode="W" horiz-adv-x="1675" 
d="M997 1360l211 -991l178 991h289l-307 -1360h-321l-209 987l-209 -987h-322l-307 1360h295l192 -985l193 985h317z" />
    <glyph glyph-name="X" unicode="X" horiz-adv-x="1269" 
d="M-31 0l506 696l-473 664h328l311 -436l317 436h310l-475 -651l507 -709h-327l-344 483l-353 -483h-307z" />
    <glyph glyph-name="Y" unicode="Y" horiz-adv-x="1236" 
d="M-20 1360h317l321 -578l328 578h311l-507 -848v-512h-273v516z" />
    <glyph glyph-name="Z" unicode="Z" horiz-adv-x="1183" 
d="M1118 1360v-213l-743 -916h764v-231h-1102v213l745 915h-686v232h1022z" />
    <glyph glyph-name="bracketleft" unicode="[" horiz-adv-x="587" 
d="M119 1360h489v-191h-256v-1331h256v-192h-489v1714z" />
    <glyph glyph-name="backslash" unicode="\" horiz-adv-x="755" 
d="M233 1360l533 -1360h-244l-532 1360h243z" />
    <glyph glyph-name="bracketright" unicode="]" horiz-adv-x="587" 
d="M-20 1360h489v-1714h-489v192h256v1331h-256v191z" />
    <glyph glyph-name="asciicircum" unicode="^" horiz-adv-x="1056" 
d="M637 1360l379 -737h-256l-232 475l-231 -475h-256l379 737h217z" />
    <glyph glyph-name="underscore" unicode="_" horiz-adv-x="933" 
d="M893 -229h-852v229h852v-229z" />
    <glyph glyph-name="grave" unicode="`" horiz-adv-x="798" 
d="M459 1118l-285 242h299l180 -242h-194z" />
    <glyph glyph-name="a" unicode="a" horiz-adv-x="1073" 
d="M336 690l-242 8q13 150 129 242t324 92q224 0 328.5 -93.5t101.5 -293.5q0 -21 -3 -139.5t-3 -173.5q0 -171 20 -332h-241l-7 109q-50 -70 -125.5 -102t-191.5 -32q-166 0 -266.5 97t-100.5 231q0 136 95 211q61 48 152 74.5t226 40.5l185 20v35q0 85 -46 121.5
t-136 36.5q-88 0 -140.5 -38t-58.5 -114zM723 408v61l-178 -20q-116 -13 -167.5 -48.5t-51.5 -95.5q0 -58 42.5 -96.5t116.5 -38.5q102 0 170 61t68 177z" />
    <glyph glyph-name="b" unicode="b" 
d="M119 0v1360h262v-457q94 123 274 123q194 0 316.5 -141.5t122.5 -384.5q0 -237 -129 -381t-326 -144q-162 0 -262 115l-4 -90h-254zM604 825q-109 0 -171 -87t-62 -238q0 -149 62.5 -236.5t170.5 -87.5q105 0 164 90t59 236t-59 234.5t-164 88.5z" />
    <glyph glyph-name="c" unicode="c" horiz-adv-x="1075" 
d="M557 1026q171 0 299.5 -87.5t169.5 -262.5l-248 -37q-15 81 -71 133.5t-152 52.5q-108 0 -173 -83t-65 -240q0 -156 66 -241t172 -85q191 0 229 193l250 -35q-30 -121 -105 -204t-170 -119t-208 -36q-234 0 -367 144.5t-133 380.5q0 237 135 381.5t371 144.5z" />
    <glyph glyph-name="d" unicode="d" 
d="M1026 1360v-1360h-252l-2 106q-94 -131 -283 -131q-194 0 -316 142t-122 385q0 237 129 380.5t326 143.5q158 0 258 -115v449h262zM541 176q109 0 171 87.5t62 238.5q0 148 -62.5 235.5t-170.5 87.5q-105 0 -164.5 -89.5t-59.5 -235.5t59.5 -235t164.5 -89z" />
    <glyph glyph-name="e" unicode="e" horiz-adv-x="1112" 
d="M565 -25q-165 0 -283 71.5t-174.5 189t-56.5 266.5q0 232 139 378t369 146q245 0 378.5 -163.5t121.5 -440.5h-748q4 -110 73.5 -178t176.5 -68q93 0 153 41t83 107l245 -33q-15 -44 -40 -86.5t-66.5 -85t-93 -74t-123.5 -51t-154 -19.5zM553 836q-95 0 -165.5 -57
t-76.5 -175h486q-2 60 -24 106t-57.5 72.5t-76.5 40t-86 13.5z" />
    <glyph glyph-name="f" unicode="f" horiz-adv-x="626" 
d="M143 1004v57q0 77 15.5 130t43 86.5t76.5 51.5t105 24.5t139 6.5h88v-209h-51q-98 0 -125.5 -21t-27.5 -102v-24h204v-195h-204v-809h-263v809h-145v195h145z" />
    <glyph glyph-name="g" unicode="g" 
d="M764 51v88q-94 -123 -275 -123q-193 0 -315.5 138.5t-122.5 367.5q0 223 129.5 363.5t325.5 140.5q162 0 262 -115l4 93h254v-904q0 -247 -129 -358q-113 -102 -356 -102q-86 0 -158.5 16.5t-134.5 52.5t-102.5 100t-53.5 152l250 10q13 -71 63.5 -101t143.5 -30
q104 0 153 39q62 49 62 172zM541 217q110 0 171.5 78t61.5 227q0 134 -63 218.5t-170 84.5q-104 0 -164 -86.5t-60 -218.5q0 -143 58.5 -223t165.5 -80z" />
    <glyph glyph-name="h" unicode="h" horiz-adv-x="1134" 
d="M381 1360v-471q43 67 121.5 102t175.5 35q194 0 283 -117q71 -92 71 -284v-625h-262v567q0 135 -37 187q-45 61 -141 61q-62 0 -105 -23.5t-65.5 -68t-31.5 -95t-9 -116.5v-512h-262v1360h262z" />
    <glyph glyph-name="i" unicode="i" horiz-adv-x="499" 
d="M119 1004h262v-1004h-262v1004zM119 1360h262v-244h-262v244z" />
    <glyph glyph-name="j" unicode="j" horiz-adv-x="501" 
d="M119 -8v1012h262v-1016q0 -110 -14.5 -175t-55.5 -103.5t-100.5 -51t-161.5 -12.5h-67v211h34q71 0 87 24t16 111zM119 1360h262v-244h-262v244z" />
    <glyph glyph-name="k" unicode="k" horiz-adv-x="1056" 
d="M119 1360h262v-735l358 379h310l-363 -379l385 -625h-301l-264 436l-125 -131v-305h-262v1360z" />
    <glyph glyph-name="l" unicode="l" horiz-adv-x="499" 
d="M381 1360v-1360h-262v1360h262z" />
    <glyph glyph-name="m" unicode="m" horiz-adv-x="1740" 
d="M119 0v1004h262v-115q88 137 287 137q206 0 290 -156q61 79 141.5 117.5t194.5 38.5q186 0 271 -108q73 -94 73 -293v-625h-262v575q0 133 -30 179q-39 61 -138 61q-51 0 -88 -17.5t-57.5 -43.5t-32 -68.5t-15 -81.5t-3.5 -92v-512h-262v575q0 134 -35 183
q-41 57 -133 57q-51 0 -88.5 -17t-58.5 -44t-33.5 -68.5t-16.5 -81.5t-4 -92v-512h-262z" />
    <glyph glyph-name="n" unicode="n" horiz-adv-x="1134" 
d="M381 1004v-115q43 67 121.5 102t175.5 35q194 0 283 -117q71 -92 71 -284v-625h-262v567q0 135 -37 187q-45 61 -141 61q-62 0 -105 -23.5t-65.5 -68t-31.5 -95t-9 -116.5v-512h-262v1004h262z" />
    <glyph glyph-name="o" unicode="o" horiz-adv-x="1110" 
d="M317 500q0 -152 64 -238t174 -86t174 86t64 238q0 154 -64 239.5t-174 85.5t-174 -85.5t-64 -239.5zM51 500q0 131 41 233.5t111.5 165t160 95t191.5 32.5t191.5 -32.5t160 -95t111.5 -165t41 -233.5t-41 -233.5t-111.5 -165t-160 -94.5t-191.5 -32t-191.5 32t-160 94.5
t-111.5 165t-41 233.5z" />
    <glyph glyph-name="p" unicode="p" 
d="M381 90v-444h-262v1358h254v-109q94 131 282 131q194 0 316.5 -141.5t122.5 -384.5q0 -237 -129 -381t-326 -144q-158 0 -258 115zM604 825q-109 0 -171 -87t-62 -238q0 -149 62.5 -236.5t170.5 -87.5q105 0 164 90t59 236t-59 234.5t-164 88.5z" />
    <glyph glyph-name="q" unicode="q" 
d="M768 911l4 93h254v-1358h-262v452q-94 -123 -275 -123q-194 0 -316 142t-122 385q0 237 129 380.5t326 143.5q162 0 262 -115zM541 176q109 0 171 87.5t62 238.5q0 148 -62.5 235.5t-170.5 87.5q-105 0 -164.5 -89.5t-59.5 -235.5t59.5 -235t164.5 -89z" />
    <glyph glyph-name="r" unicode="r" horiz-adv-x="720" 
d="M705 997v-247q-55 6 -109 6q-106 0 -160.5 -52t-54.5 -188v-516h-262v1004h258v-158q88 155 270 155q26 0 58 -4z" />
    <glyph glyph-name="s" unicode="s" horiz-adv-x="1007" 
d="M946 719l-237 -33q-14 67 -77 109.5t-157 42.5q-73 0 -121.5 -25.5t-48.5 -67.5q0 -77 150 -108l118 -27q76 -17 124 -30t103 -37.5t86 -53.5t51.5 -75t20.5 -105q0 -104 -63 -181t-164 -115t-223 -38q-194 0 -322 93t-147 243l248 37q10 -78 71 -130t162 -52
q185 0 185 110q0 27 -12.5 46.5t-40.5 32.5t-52.5 20t-69.5 16l-133 29q-163 35 -248.5 105.5t-85.5 201.5q0 135 123 217t306 82q105 0 198.5 -31.5t165 -103t90.5 -172.5z" />
    <glyph glyph-name="t" unicode="t" horiz-adv-x="679" 
d="M156 1004v299h262v-299h213v-195h-213v-481q0 -75 28.5 -100t100.5 -25h80v-203h-193q-88 0 -142 13.5t-84.5 48.5t-41 84t-10.5 130v533h-146v195h146z" />
    <glyph glyph-name="u" unicode="u" horiz-adv-x="1128" 
d="M748 0v113q-44 -66 -121.5 -102t-171.5 -36q-186 0 -275 111q-76 91 -76 291v627h263v-578q0 -68 6.5 -109t27.5 -69q45 -62 138 -62q51 0 88.5 17.5t60.5 45.5t36.5 70t18.5 85t5 96v504h262v-1004h-262z" />
    <glyph glyph-name="v" unicode="v" horiz-adv-x="974" 
d="M289 1004l207 -676l204 676h275l-346 -1004h-277l-352 1004h289z" />
    <glyph glyph-name="w" unicode="w" horiz-adv-x="1396" 
d="M403 315l160 689h268l162 -687l119 687h285l-250 -1004h-262l-187 694l-188 -694h-262l-248 1004h285z" />
    <glyph glyph-name="x" unicode="x" horiz-adv-x="1034" 
d="M1016 1004l-352 -482l370 -522h-307l-219 309l-225 -309h-283l371 506l-351 498h306l200 -285l207 285h283z" />
    <glyph glyph-name="y" unicode="y" horiz-adv-x="958" 
d="M176 -354h-110v217h98q69 0 103.5 22t68.5 97l10 22l-371 1000h287l213 -678l217 678h266l-354 -973q-31 -86 -54.5 -140t-52 -101t-56 -71.5t-67.5 -42.5t-86 -24t-112 -6z" />
    <glyph glyph-name="z" unicode="z" horiz-adv-x="948" 
d="M41 0v195l539 614h-494v195h807v-195l-539 -614h555v-195h-868z" />
    <glyph glyph-name="braceleft" unicode="{" horiz-adv-x="591" 
d="M524 -354q-103 0 -170.5 14.5t-116.5 51t-70.5 100.5t-21.5 163v228q0 101 -28.5 148.5t-116.5 47.5v209q88 0 116.5 48t28.5 149v225q0 99 21.5 163t70.5 101t116.5 51.5t170.5 14.5h68v-209h-31q-93 0 -123 -29.5t-30 -105.5v-250q0 -122 -47.5 -179.5t-133.5 -80.5v-4
q86 -23 133.5 -80.5t47.5 -179.5v-252q0 -76 30 -105.5t123 -29.5h31v-209h-68z" />
    <glyph glyph-name="bar" unicode="|" horiz-adv-x="456" 
d="M119 1360h219v-1530h-219v1530z" />
    <glyph glyph-name="braceright" unicode="}" horiz-adv-x="591" 
d="M0 -354v209h31q93 0 123 29.5t30 105.5v252q0 122 47.5 179.5t133.5 80.5v4q-86 23 -133.5 80.5t-47.5 179.5v250q0 76 -30 105.5t-123 29.5h-31v209h68q103 0 170.5 -14.5t116 -51.5t70 -101t21.5 -163v-225q0 -101 29 -149t117 -48v-209q-88 0 -117 -47.5t-29 -148.5
v-228q0 -99 -21.5 -163t-70 -100.5t-116 -51t-170.5 -14.5h-68z" />
    <glyph glyph-name="asciitilde" unicode="~" horiz-adv-x="1017" 
d="M682 555q51 0 79.5 30t29.5 101h186q-13 -356 -285 -356q-47 0 -97.5 20.5t-88 45t-84.5 45t-86 20.5q-51 0 -79.5 -30t-29.5 -101h-186q13 356 285 356q54 0 108.5 -20.5t91 -45t79.5 -45t77 -20.5z" />
    <glyph glyph-name="exclamdown" unicode="&#xa1;" horiz-adv-x="475" 
d="M369 -20v-334h-263v334l44 618h172zM96 1004h283v-267h-283v267z" />
    <glyph glyph-name="cent" unicode="&#xa2;" horiz-adv-x="1075" 
d="M1026 676l-248 -37q-13 74 -61 126t-127 58v-647q70 5 122.5 51t71.5 142l250 -35q-42 -170 -162.5 -258.5t-281.5 -98.5v-147h-96v147q-209 18 -326 159.5t-117 363.5q0 220 117.5 361t325.5 161v158h96v-156q161 -8 279 -95t157 -253zM317 502q0 -133 48 -216t129 -104
v637q-82 -21 -129.5 -103t-47.5 -214z" />
    <glyph glyph-name="sterling" unicode="&#xa3;" horiz-adv-x="1114" 
d="M588 1184q-94 0 -160 -48t-66 -122q0 -43 16 -92.5t32 -80t47 -85.5h321v-144h-252q19 -63 19 -98q0 -157 -168 -281l2 -4q66 27 125 27q45 0 126.5 -24.5t139.5 -24.5q94 0 246 59l76 -211q-60 -33 -148 -57.5t-164 -24.5q-65 0 -195 43t-198 43q-104 0 -254 -84
l-94 187q129 65 188.5 138.5t59.5 205.5q0 44 -25 106h-242v144h166q-28 51 -44.5 86.5t-31 90t-14.5 107.5q0 87 42 155t113 108t156.5 60.5t180.5 20.5q241 0 374 -128.5t130 -348.5h-256q0 146 -68 211.5t-180 65.5z" />
    <glyph glyph-name="currency" unicode="&#xa4;" horiz-adv-x="1210" 
d="M150 659q0 149 83 265l-131 133l95 92l129 -129q121 94 274 94q154 0 281 -96l133 131l94 -92l-135 -135q82 -119 82 -263q0 -143 -84 -260l137 -137l-94 -92l-135 133q-124 -94 -279 -94q-152 0 -272 90l-131 -129l-95 92l131 133q-83 116 -83 264zM360 659
q0 -107 67.5 -180t170.5 -73q109 0 179.5 73t70.5 180q0 110 -70.5 185.5t-179.5 75.5q-103 0 -170.5 -75.5t-67.5 -185.5z" />
    <glyph glyph-name="yen" unicode="&#xa5;" horiz-adv-x="1277" 
d="M1122 168h-356v-168h-264v168h-346v168h346v151h-346v168h262l-418 705h309l330 -598l336 598h303l-426 -705h270v-168h-356v-151h356v-168z" />
    <glyph glyph-name="brokenbar" unicode="&#xa6;" horiz-adv-x="456" 
d="M119 1360h219v-582h-219v582zM119 412h219v-582h-219v582z" />
    <glyph glyph-name="section" unicode="&#xa7;" horiz-adv-x="1165" 
d="M582 -178q73 0 120.5 37.5t47.5 99.5q0 58 -38.5 97t-133.5 87l-242 121q-275 138 -275 340q0 80 50 147t135 113q-88 94 -88 219q0 93 62 163.5t154.5 104t198.5 33.5q183 0 303 -92.5t140 -257.5l-242 -4q-12 76 -67 121t-140 45q-74 0 -117.5 -27.5t-43.5 -70.5
q0 -50 35 -84.5t110 -71.5l258 -131q150 -76 222.5 -150t72.5 -180q0 -86 -52.5 -155.5t-146.5 -116.5q96 -96 96 -225q0 -159 -123 -255t-305 -96q-193 0 -317.5 109.5t-134.5 298.5l241 4q32 -223 220 -223zM672 616l-273 138q-92 -44 -92 -123q0 -51 36.5 -85.5
t109.5 -72.5l254 -129l43 -25q100 54 100 125q0 48 -42 86t-136 86z" />
    <glyph glyph-name="dieresis" unicode="&#xa8;" horiz-adv-x="716" 
d="M20 1124v226h220v-226h-220zM477 1350h219v-226h-219v226z" />
    <glyph glyph-name="copyright" unicode="&#xa9;" horiz-adv-x="1570" 
d="M82 678q0 204 94.5 366.5t255 251t354.5 88.5q144 0 273 -52.5t224 -144t150.5 -224t55.5 -285.5q0 -204 -95 -366t-255 -249.5t-353 -87.5q-195 0 -355 87.5t-254.5 249.5t-94.5 366zM238 678q0 -247 156.5 -404t391.5 -157q237 0 392 156.5t155 404.5q0 165 -71.5 294
t-195.5 199t-280 70q-154 0 -278.5 -70t-197 -199t-72.5 -294zM788 457q69 0 117 35t62 108l194 -45q-33 -117 -134.5 -189.5t-244.5 -72.5q-174 0 -275 107.5t-101 279.5t105 277.5t277 105.5q139 0 239.5 -76t125.5 -196l-192 -50q-8 68 -56 114t-117 46q-76 0 -126 -58.5
t-50 -162.5t49 -163.5t127 -59.5z" />
    <glyph glyph-name="ordfeminine" unicode="&#xaa;" horiz-adv-x="663" 
d="M233 1188l-170 2q9 92 80 143t201 51t191.5 -54t60.5 -171q0 -16 -1 -76t-1 -73q0 -99 12 -213h-168l-2 63q-51 -78 -178 -78q-97 0 -155 56t-58 135q0 78 53 121q59 48 236 67l84 8v17q0 71 -90 71t-95 -69zM422 1020v35l-86 -8q-107 -11 -107 -68q0 -28 20.5 -47
t57.5 -19q50 0 82.5 27.5t32.5 79.5z" />
    <glyph glyph-name="guillemotleft" unicode="&#xab;" horiz-adv-x="1017" 
d="M322 61l-302 439l302 436h237l-237 -436l237 -439h-237zM741 61l-303 439l303 436h236l-238 -436l238 -439h-236z" />
    <glyph glyph-name="logicalnot" unicode="&#xac;" horiz-adv-x="1218" 
d="M862 586h-821v229h1059v-639h-238v410z" />
    <glyph glyph-name="registered" unicode="&#xae;" horiz-adv-x="1570" 
d="M82 678q0 204 94.5 366.5t255 251t354.5 88.5q144 0 273 -52.5t224 -144t150.5 -224t55.5 -285.5q0 -204 -95 -366t-255 -249.5t-353 -87.5q-195 0 -355 87.5t-254.5 249.5t-94.5 366zM238 678q0 -247 156.5 -404t391.5 -157q237 0 392 156.5t155 404.5q0 165 -71.5 294
t-195.5 199t-280 70q-154 0 -278.5 -70t-197 -199t-72.5 -294zM764 596h-98v-268h-201v749h299q63 0 113 -6.5t95 -23.5t75 -44t47.5 -70.5t17.5 -101.5q0 -152 -137 -204l182 -299h-225l-158 268h-10zM909 831q0 36 -24 63.5t-70 27.5h-149v-170h149q47 0 70.5 22t23.5 57z
" />
    <glyph glyph-name="macron" unicode="&#xaf;" horiz-adv-x="677" 
d="M637 1143h-596v180h596v-180z" />
    <glyph glyph-name="degree" unicode="&#xb0;" horiz-adv-x="641" 
d="M14 1077q0 127 89.5 217t215.5 90q128 0 218 -90t90 -217q0 -126 -90.5 -215.5t-217.5 -89.5q-126 0 -215.5 89.5t-89.5 215.5zM180 1077q0 -63 39 -106t100 -43q62 0 103 43.5t41 105.5q0 64 -41 108t-103 44q-61 0 -100 -44t-39 -108z" />
    <glyph glyph-name="plusminus" unicode="&#xb1;" horiz-adv-x="1263" 
d="M512 766v238h242v-238h407v-229h-407v-242h-242v242h-410v229h410zM1161 0h-1059v229h1059v-229z" />
    <glyph glyph-name="two.superior" unicode="&#xb2;" horiz-adv-x="679" 
d="M352 1624q122 0 199.5 -57t77.5 -162q0 -55 -23 -105.5t-76 -104.5t-105.5 -96.5t-145.5 -109.5h356v-155h-600v145q28 22 79.5 61t82.5 63t74.5 59t69.5 61.5t51.5 57t37.5 58.5t12 54q0 46 -27.5 70t-72.5 24q-53 0 -88.5 -37.5t-36.5 -112.5h-176q0 133 84 210t227 77
z" />
    <glyph glyph-name="three.superior" unicode="&#xb3;" horiz-adv-x="724" 
d="M360 958q57 0 91 26.5t34 70.5q0 104 -172 104h-32v146h30q74 0 114 24.5t40 71.5q0 40 -31 62t-76 22q-56 0 -91 -31.5t-42 -89.5l-176 20q18 112 100.5 176t223.5 64q120 0 199 -55.5t79 -155.5q0 -58 -29 -102.5t-75 -67.5q60 -23 93.5 -72t33.5 -114
q0 -113 -90.5 -175.5t-225.5 -62.5q-137 0 -221.5 72.5t-95.5 181.5l176 19q9 -64 45.5 -99t97.5 -35z" />
    <glyph glyph-name="acute" unicode="&#xb4;" horiz-adv-x="561" 
d="M520 1360l-284 -242h-195l180 242h299z" />
    <glyph glyph-name="mu" unicode="&#xb5;" horiz-adv-x="1120" 
d="M96 -354q23 144 23 327v1031h233v-510q0 -64 11 -119t34.5 -100t64.5 -71t97 -26t97 26t64.5 71t34.5 100t11 119v510h235v-1004h-235v111q-73 -123 -207 -123q-138 0 -207 123v-127q0 -203 -22 -338h-234z" />
    <glyph glyph-name="mu" unicode="&#x3bc;" horiz-adv-x="1120" 
d="M96 -354q23 144 23 327v1031h233v-510q0 -64 11 -119t34.5 -100t64.5 -71t97 -26t97 26t64.5 71t34.5 100t11 119v510h235v-1004h-235v111q-73 -123 -207 -123q-138 0 -207 123v-127q0 -203 -22 -338h-234z" />
    <glyph glyph-name="paragraph" unicode="&#xb6;" horiz-adv-x="958" 
d="M0 1034q0 152 118.5 239t315.5 87h406v-1530h-156v1384h-213v-1384h-156v881q-57 6 -108.5 25t-100 55t-77.5 98.5t-29 144.5z" />
    <glyph glyph-name="periodcentered" unicode="&#xb7;" horiz-adv-x="475" 
d="M96 377v266h283v-266h-283z" />
    <glyph glyph-name="cedilla" unicode="&#xb8;" horiz-adv-x="485" 
d="M41 -336l33 86q54 -26 110 -26q107 0 107 55q0 26 -20.5 39.5t-55.5 13.5q-47 0 -74 -16l-57 32l98 158h101l-62 -98q35 6 76 6q63 -2 105 -37.5t42 -91.5q0 -72 -65.5 -114t-155.5 -42q-106 0 -182 35z" />
    <glyph glyph-name="one.superior" unicode="&#xb9;" horiz-adv-x="464" 
d="M373 834h-183v540h-172v129q96 3 141.5 25.5t71.5 83.5h142v-778z" />
    <glyph glyph-name="ordmasculine" unicode="&#xba;" horiz-adv-x="692" 
d="M233 1083q0 -78 30.5 -118.5t82.5 -40.5q54 0 84.5 40.5t30.5 118.5q0 80 -30.5 121t-84.5 41q-53 0 -83 -41t-30 -121zM45 1083q0 148 85.5 224.5t215.5 76.5t216.5 -77t86.5 -224q0 -146 -86.5 -222.5t-216.5 -76.5t-215.5 76.5t-85.5 222.5z" />
    <glyph glyph-name="guillemotright" unicode="&#xbb;" horiz-adv-x="1017" 
d="M997 500l-303 -439h-237l237 439l-237 436h237zM578 500l-304 -439h-233l235 439l-235 436h233z" />
    <glyph glyph-name="onequarter" unicode="&#xbc;" horiz-adv-x="1771" 
d="M545 584h-183v540h-172v129q96 3 141.5 25.5t71.5 83.5h142v-778zM545 0h-271l953 1360h270zM1436 549l-189 -227h189v227zM1747 322v-158h-127v-164h-184v164h-377v143l393 469h168v-454h127z" />
    <glyph glyph-name="onehalf" unicode="&#xbd;" horiz-adv-x="1771" 
d="M545 584h-183v540h-172v129q96 3 141.5 25.5t71.5 83.5h142v-778zM545 0h-271l953 1360h270zM1419 791q122 0 199.5 -57.5t77.5 -162.5q0 -45 -17.5 -88t-44 -79t-76.5 -81t-94 -79t-118 -88h356v-156h-600v145q28 22 79.5 61t82.5 63t74.5 59t69.5 61.5t51.5 57
t37.5 58.5t12 54q0 46 -27.5 70t-72.5 24q-54 0 -89 -37t-36 -112h-176q0 133 84 210t227 77z" />
    <glyph glyph-name="threequarters" unicode="&#xbe;" horiz-adv-x="1771" 
d="M371 709q57 0 91 26t34 70q0 104 -172 104h-33v146h31q74 0 113.5 24.5t39.5 71.5q0 40 -31 62t-75 22q-56 0 -91 -31.5t-42 -89.5l-177 21q18 112 100.5 175.5t223.5 63.5q120 0 199.5 -55.5t79.5 -155.5q0 -58 -29 -102.5t-76 -67.5q60 -23 93.5 -72t33.5 -114
q0 -113 -90 -175.5t-225 -62.5q-137 0 -222 72.5t-96 181.5l176 19q9 -64 46 -98.5t98 -34.5zM274 0h271l952 1360h-270zM1247 322l189 227v-227h-189zM1747 164v158h-127v454h-168l-393 -469v-143h377v-164h184v164h127z" />
    <glyph glyph-name="questiondown" unicode="&#xbf;" horiz-adv-x="997" 
d="M481 -379q-89 0 -170 21t-147.5 61.5t-106 108t-39.5 153.5q0 206 228 334q43 25 67.5 40.5t50.5 38t38.5 45.5t21 55t8.5 73v59h256v-65q0 -134 -48 -211t-155 -139q-59 -35 -84 -51t-59 -44.5t-46.5 -56.5t-12.5 -63q0 -73 60 -115.5t142 -42.5q111 0 180 63.5
t72 192.5l258 -4q0 -206 -144.5 -329.5t-369.5 -123.5zM702 1006v-267h-282v267h282z" />
    <glyph glyph-name="Agrave" unicode="&#xc0;" horiz-adv-x="1304" 
d="M0 0l514 1360h274l517 -1360h-295l-101 281h-532l-98 -281h-279zM643 1026l-186 -524h372zM631 1430l-303 215h321l197 -215h-215z" />
    <glyph glyph-name="Aacute" unicode="&#xc1;" horiz-adv-x="1304" 
d="M0 0l514 1360h274l517 -1360h-295l-101 281h-532l-98 -281h-279zM643 1026l-186 -524h372zM934 1645l-303 -215h-215l196 215h322z" />
    <glyph glyph-name="Acircumflex" unicode="&#xc2;" horiz-adv-x="1304" 
d="M0 0l514 1360h274l517 -1360h-295l-101 281h-532l-98 -281h-279zM643 1026l-186 -524h372zM760 1645l260 -215h-250l-125 94l-131 -94h-248l266 215h228z" />
    <glyph glyph-name="Atilde" unicode="&#xc3;" horiz-adv-x="1304" 
d="M0 0l514 1360h274l517 -1360h-295l-101 281h-532l-98 -281h-279zM643 1026l-186 -524h372zM754 1583q78 0 94 78h178q-10 -60 -33.5 -105.5t-50.5 -70.5t-61 -40.5t-61 -20.5t-54 -5q-51 0 -94 19.5t-77.5 39t-64.5 19.5q-76 0 -92 -78h-178q10 60 33.5 105.5t50.5 70.5
t61 40.5t61 20.5t54 5q51 0 92 -19.5t75 -39t67 -19.5z" />
    <glyph glyph-name="Adieresis" unicode="&#xc4;" horiz-adv-x="1304" 
d="M0 0l514 1360h274l517 -1360h-295l-101 281h-532l-98 -281h-279zM643 1026l-186 -524h372zM309 1645h219v-215h-219v215zM766 1645h219v-215h-219v215z" />
    <glyph glyph-name="Aring" unicode="&#xc5;" horiz-adv-x="1304" 
d="M0 0l514 1360h274l517 -1360h-295l-101 281h-532l-98 -281h-279zM643 1026l-186 -524h372zM647 1735q72 0 122 -46t50 -116t-49.5 -116t-122.5 -46t-122.5 46t-49.5 116t50 116t122 46zM647 1655q-33 0 -57.5 -23.5t-24.5 -58.5q0 -34 24.5 -57t57.5 -23t57.5 23t24.5 57
q0 35 -24.5 58.5t-57.5 23.5z" />
    <glyph glyph-name="AE" unicode="&#xc6;" horiz-adv-x="1884" 
d="M834 1360h1005v-221h-733v-324h692v-221h-692v-373h733v-221h-1005v281h-447l-182 -281h-287zM834 963l-302 -461h302v461z" />
    <glyph glyph-name="Ccedilla" unicode="&#xc7;" horiz-adv-x="1368" 
d="M492 -336l32 86q54 -26 111 -26q106 0 106 55q0 26 -20 39.5t-55 13.5q-47 0 -74 -16l-57 32l81 134q-257 31 -398.5 216.5t-141.5 487.5q0 326 175 512t478 186q240 0 396 -124.5t196 -337.5l-260 -39q-29 145 -121 214.5t-219 69.5q-159 0 -261 -125t-102 -356
q0 -238 101 -365.5t258 -127.5q131 0 223 69.5t121 214.5l260 -39q-41 -211 -198.5 -337t-401.5 -126h-8l-41 -67q35 6 76 6q63 -2 105 -37.5t42 -91.5q0 -72 -65.5 -114t-155.5 -42q-106 0 -182 35z" />
    <glyph glyph-name="Egrave" unicode="&#xc8;" horiz-adv-x="1173" 
d="M123 0v1360h1005v-221h-733v-332h692v-221h-692v-365h733v-221h-1005zM580 1430l-304 215h322l197 -215h-215z" />
    <glyph glyph-name="Eacute" unicode="&#xc9;" horiz-adv-x="1173" 
d="M123 0v1360h1005v-221h-733v-332h692v-221h-692v-365h733v-221h-1005zM967 1645l-303 -215h-215l196 215h322z" />
    <glyph glyph-name="Ecircumflex" unicode="&#xca;" horiz-adv-x="1173" 
d="M123 0v1360h1005v-221h-733v-332h692v-221h-692v-365h733v-221h-1005zM768 1645l260 -215h-250l-125 94l-131 -94h-248l267 215h227z" />
    <glyph glyph-name="Edieresis" unicode="&#xcb;" horiz-adv-x="1173" 
d="M123 0v1360h1005v-221h-733v-332h692v-221h-692v-365h733v-221h-1005zM297 1645h219v-215h-219v215zM754 1645h219v-215h-219v215z" />
    <glyph glyph-name="Igrave" unicode="&#xcc;" horiz-adv-x="518" 
d="M395 1360v-1360h-272v1360h272zM176 1430l-303 215h322l196 -215h-215z" />
    <glyph glyph-name="Iacute" unicode="&#xcd;" horiz-adv-x="518" 
d="M395 1360v-1360h-272v1360h272zM649 1645l-303 -215h-215l197 215h321z" />
    <glyph glyph-name="Icircumflex" unicode="&#xce;" horiz-adv-x="518" 
d="M375 1645l219 -215h-250l-84 94l-90 -94h-248l225 215h228zM395 1360v-1360h-272v1360h272z" />
    <glyph glyph-name="Idieresis" unicode="&#xcf;" horiz-adv-x="518" 
d="M-41 1430v215h219v-215h-219zM340 1430v215h219v-215h-219zM395 1360v-1360h-272v1360h272z" />
    <glyph glyph-name="Eth" unicode="&#xd0;" horiz-adv-x="1372" 
d="M164 1360h348q139 0 251 -18t215 -64.5t171.5 -121.5t109.5 -195.5t41 -280.5t-41 -280.5t-109.5 -195.5t-171.5 -121.5t-215 -64.5t-251 -18h-348v586h-164v221h164v553zM680 586h-244v-365h62q60 0 108.5 3.5t104.5 15t98 31.5t83 54.5t67.5 82t42.5 117t16 155.5
t-16 155.5t-42.5 117t-67.5 82t-83 54.5t-98 31.5t-104.5 15t-108.5 3.5h-62v-332h244v-221z" />
    <glyph glyph-name="Ntilde" unicode="&#xd1;" horiz-adv-x="1409" 
d="M1286 0h-362l-529 1032v-1032h-272v1360h362l529 -1032v1032h272v-1360zM827 1583q79 0 95 78h178q-10 -60 -33.5 -105.5t-50.5 -70.5t-61 -40.5t-61 -20.5t-54 -5q-51 0 -94 19.5t-77.5 39t-64.5 19.5q-76 0 -92 -78h-178q10 60 33.5 105.5t50.5 70.5t61 40.5t61 20.5
t54 5q51 0 91.5 -19.5t74.5 -39t67 -19.5z" />
    <glyph glyph-name="Ograve" unicode="&#xd2;" horiz-adv-x="1486" 
d="M1128 686q0 238 -106.5 359.5t-278.5 121.5q-171 0 -278 -121.5t-107 -359.5t108 -365.5t277 -127.5q170 0 277.5 127.5t107.5 365.5zM1411 686q0 -326 -180 -518.5t-488 -192.5t-487.5 192.5t-179.5 518.5q0 325 179 511.5t488 186.5q310 0 489 -186.5t179 -511.5z
M733 1430l-303 215h322l196 -215h-215z" />
    <glyph glyph-name="Oacute" unicode="&#xd3;" horiz-adv-x="1486" 
d="M1128 686q0 238 -106.5 359.5t-278.5 121.5q-171 0 -278 -121.5t-107 -359.5t108 -365.5t277 -127.5q170 0 277.5 127.5t107.5 365.5zM1411 686q0 -326 -180 -518.5t-488 -192.5t-487.5 192.5t-179.5 518.5q0 325 179 511.5t488 186.5q310 0 489 -186.5t179 -511.5z
M1092 1645l-304 -215h-215l197 215h322z" />
    <glyph glyph-name="Ocircumflex" unicode="&#xd4;" horiz-adv-x="1486" 
d="M1128 686q0 238 -106.5 359.5t-278.5 121.5q-171 0 -278 -121.5t-107 -359.5t108 -365.5t277 -127.5q170 0 277.5 127.5t107.5 365.5zM1411 686q0 -326 -180 -518.5t-488 -192.5t-487.5 192.5t-179.5 518.5q0 325 179 511.5t488 186.5q310 0 489 -186.5t179 -511.5z
M852 1645l260 -215h-250l-125 94l-131 -94h-248l267 215h227z" />
    <glyph glyph-name="Otilde" unicode="&#xd5;" horiz-adv-x="1486" 
d="M1128 686q0 238 -106.5 359.5t-278.5 121.5q-171 0 -278 -121.5t-107 -359.5t108 -365.5t277 -127.5q170 0 277.5 127.5t107.5 365.5zM1411 686q0 -326 -180 -518.5t-488 -192.5t-487.5 192.5t-179.5 518.5q0 325 179 511.5t488 186.5q310 0 489 -186.5t179 -511.5z
M840 1583q78 0 94 78h178q-10 -60 -33.5 -105.5t-50.5 -70.5t-61 -40.5t-61 -20.5t-54 -5q-51 0 -94 19.5t-77.5 39t-64.5 19.5q-76 0 -92 -78h-178q10 60 33.5 105.5t50.5 70.5t61 40.5t61 20.5t54 5q51 0 92 -19.5t75 -39t67 -19.5z" />
    <glyph glyph-name="Odieresis" unicode="&#xd6;" horiz-adv-x="1486" 
d="M1128 686q0 238 -106.5 359.5t-278.5 121.5q-171 0 -278 -121.5t-107 -359.5t108 -365.5t277 -127.5q170 0 277.5 127.5t107.5 365.5zM1411 686q0 -326 -180 -518.5t-488 -192.5t-487.5 192.5t-179.5 518.5q0 325 179 511.5t488 186.5q310 0 489 -186.5t179 -511.5z
M399 1645h219v-215h-219v215zM856 1645h219v-215h-219v215z" />
    <glyph glyph-name="multiply" unicode="&#xd7;" horiz-adv-x="983" 
d="M942 211l-154 -154l-305 305l-303 -303l-139 138l303 305l-299 299l154 153l299 -299l305 303l137 -139l-303 -303z" />
    <glyph glyph-name="Oslash" unicode="&#xd8;" horiz-adv-x="1482" 
d="M1366 1311l-117 -137q158 -188 158 -488q0 -326 -179.5 -518.5t-486.5 -192.5q-241 0 -409 123l-117 -137l-104 90l120 144q-155 188 -155 491q0 325 178.5 511.5t486.5 186.5q244 0 406 -116l113 131zM1126 686q0 166 -55 279l-577 -678q101 -94 247 -94
q170 0 277.5 127.5t107.5 365.5zM356 686q0 -165 56 -283l575 676q-101 88 -246 88q-171 0 -278 -121.5t-107 -359.5z" />
    <glyph glyph-name="Ugrave" unicode="&#xd9;" horiz-adv-x="1347" 
d="M102 1360h273v-778q0 -99 12 -165t43.5 -119.5t92.5 -79t153 -25.5q74 0 127 17.5t85.5 48.5t51.5 81.5t26 107t7 134.5v778h272v-776q0 -228 -59.5 -361t-181.5 -190.5t-328 -57.5t-329.5 57.5t-184 191t-60.5 360.5v776zM655 1430l-303 215h322l196 -215h-215z" />
    <glyph glyph-name="Uacute" unicode="&#xda;" horiz-adv-x="1347" 
d="M102 1360h273v-778q0 -99 12 -165t43.5 -119.5t92.5 -79t153 -25.5q74 0 127 17.5t85.5 48.5t51.5 81.5t26 107t7 134.5v778h272v-776q0 -228 -59.5 -361t-181.5 -190.5t-328 -57.5t-329.5 57.5t-184 191t-60.5 360.5v776zM1016 1645l-303 -215h-215l196 215h322z" />
    <glyph glyph-name="Ucircumflex" unicode="&#xdb;" horiz-adv-x="1347" 
d="M102 1360h273v-778q0 -99 12 -165t43.5 -119.5t92.5 -79t153 -25.5q74 0 127 17.5t85.5 48.5t51.5 81.5t26 107t7 134.5v778h272v-776q0 -228 -59.5 -361t-181.5 -190.5t-328 -57.5t-329.5 57.5t-184 191t-60.5 360.5v776zM784 1645l260 -215h-249l-125 94l-131 -94h-248
l266 215h227z" />
    <glyph glyph-name="Udieresis" unicode="&#xdc;" horiz-adv-x="1347" 
d="M102 1360h273v-778q0 -99 12 -165t43.5 -119.5t92.5 -79t153 -25.5q74 0 127 17.5t85.5 48.5t51.5 81.5t26 107t7 134.5v778h272v-776q0 -228 -59.5 -361t-181.5 -190.5t-328 -57.5t-329.5 57.5t-184 191t-60.5 360.5v776zM330 1645h219v-215h-219v215zM786 1645h220
v-215h-220v215z" />
    <glyph glyph-name="Yacute" unicode="&#xdd;" horiz-adv-x="1236" 
d="M-20 1360h317l321 -578l328 578h311l-507 -848v-512h-273v516zM950 1645l-303 -215h-215l197 215h321z" />
    <glyph glyph-name="Thorn" unicode="&#xde;" horiz-adv-x="1177" 
d="M401 1139h177q69 0 123 -3.5t118 -14.5t112 -30.5t95 -54t77.5 -81.5t49 -116.5t18.5 -156.5q0 -103 -31 -180.5t-83 -126t-129 -78.5t-159 -41.5t-183 -11.5h-185v-244h-278v1360h278v-221zM569 918h-168v-455h189q54 0 96 5t82 19t66 37.5t41.5 63t15.5 92.5
q0 65 -20 111t-49 70t-76 37.5t-84.5 16.5t-92.5 3z" />
    <glyph glyph-name="germandbls" unicode="&#xdf;" horiz-adv-x="1241" 
d="M381 0h-262v881q0 145 28.5 232t85.5 144q130 127 398 127q100 0 182.5 -20t147 -61t100 -109t35.5 -158q0 -101 -45 -169t-105 -97q101 -35 167.5 -128.5t66.5 -235.5q0 -205 -137 -318t-365 -113q-114 0 -225 25l39 211q94 -27 178 -27q109 0 176 58.5t67 160.5
q0 129 -87.5 184.5t-245.5 55.5h-37v207h26q136 0 201.5 39t65.5 133q0 79 -54 120.5t-157 41.5q-130 0 -191 -74q-53 -69 -53 -231v-879z" />
    <glyph glyph-name="agrave" unicode="&#xe0;" horiz-adv-x="1073" 
d="M94 698l242 -8q6 76 58.5 114t140.5 38q90 0 136 -36.5t46 -121.5v-35l-185 -20q-135 -14 -226 -40.5t-152 -74.5q-95 -75 -95 -211q0 -134 100.5 -231t266.5 -97q116 0 191.5 32t125.5 102l7 -109h241q-20 161 -20 332q0 55 3 173.5t3 139.5q3 200 -101.5 293.5
t-328.5 93.5q-208 0 -324 -92t-129 -242zM723 408q0 -116 -68 -177t-170 -61q-74 0 -116.5 38.5t-42.5 96.5q0 60 51.5 95.5t167.5 48.5l178 20v-61zM518 1118l-285 242h299l181 -242h-195z" />
    <glyph glyph-name="aacute" unicode="&#xe1;" horiz-adv-x="1073" 
d="M94 698l242 -8q6 76 58.5 114t140.5 38q90 0 136 -36.5t46 -121.5v-35l-185 -20q-135 -14 -226 -40.5t-152 -74.5q-95 -75 -95 -211q0 -134 100.5 -231t266.5 -97q116 0 191.5 32t125.5 102l7 -109h241q-20 161 -20 332q0 55 3 173.5t3 139.5q3 200 -101.5 293.5
t-328.5 93.5q-208 0 -324 -92t-129 -242zM723 408q0 -116 -68 -177t-170 -61q-74 0 -116.5 38.5t-42.5 96.5q0 60 51.5 95.5t167.5 48.5l178 20v-61zM874 1360l-284 -242h-195l180 242h299z" />
    <glyph glyph-name="acircumflex" unicode="&#xe2;" horiz-adv-x="1073" 
d="M94 698l242 -8q6 76 58.5 114t140.5 38q90 0 136 -36.5t46 -121.5v-35l-185 -20q-135 -14 -226 -40.5t-152 -74.5q-95 -75 -95 -211q0 -134 100.5 -231t266.5 -97q116 0 191.5 32t125.5 102l7 -109h241q-20 161 -20 332q0 55 3 173.5t3 139.5q3 200 -101.5 293.5
t-328.5 93.5q-208 0 -324 -92t-129 -242zM723 408q0 -116 -68 -177t-170 -61q-74 0 -116.5 38.5t-42.5 96.5q0 60 51.5 95.5t167.5 48.5l178 20v-61zM629 1360l280 -242h-229l-145 105l-146 -105h-229l280 242h189z" />
    <glyph glyph-name="atilde" unicode="&#xe3;" horiz-adv-x="1073" 
d="M94 698l242 -8q6 76 58.5 114t140.5 38q90 0 136 -36.5t46 -121.5v-35l-185 -20q-135 -14 -226 -40.5t-152 -74.5q-95 -75 -95 -211q0 -134 100.5 -231t266.5 -97q116 0 191.5 32t125.5 102l7 -109h241q-20 161 -20 332q0 55 3 173.5t3 139.5q3 200 -101.5 293.5
t-328.5 93.5q-208 0 -324 -92t-129 -242zM723 408q0 -116 -68 -177t-170 -61q-74 0 -116.5 38.5t-42.5 96.5q0 60 51.5 95.5t167.5 48.5l178 20v-61zM645 1276q81 0 96 84h181q-10 -64 -32.5 -111t-47.5 -71.5t-59 -38.5t-58.5 -17.5t-54.5 -3.5q-52 0 -98 21t-84 42t-68 21
q-79 0 -94 -84h-181q10 64 33 111t48 71.5t59.5 38.5t59 17.5t54.5 3.5q51 0 95 -21t80.5 -42t70.5 -21z" />
    <glyph glyph-name="adieresis" unicode="&#xe4;" horiz-adv-x="1073" 
d="M94 698l242 -8q6 76 58.5 114t140.5 38q90 0 136 -36.5t46 -121.5v-35l-185 -20q-135 -14 -226 -40.5t-152 -74.5q-95 -75 -95 -211q0 -134 100.5 -231t266.5 -97q116 0 191.5 32t125.5 102l7 -109h241q-20 161 -20 332q0 55 3 173.5t3 139.5q3 200 -101.5 293.5
t-328.5 93.5q-208 0 -324 -92t-129 -242zM723 408q0 -116 -68 -177t-170 -61q-74 0 -116.5 38.5t-42.5 96.5q0 60 51.5 95.5t167.5 48.5l178 20v-61zM203 1124v226h219v-226h-219zM659 1350h220v-226h-220v226z" />
    <glyph glyph-name="aring" unicode="&#xe5;" horiz-adv-x="1073" 
d="M94 698l242 -8q6 76 58.5 114t140.5 38q90 0 136 -36.5t46 -121.5v-35l-185 -20q-135 -14 -226 -40.5t-152 -74.5q-95 -75 -95 -211q0 -134 100.5 -231t266.5 -97q116 0 191.5 32t125.5 102l7 -109h241q-20 161 -20 332q0 55 3 173.5t3 139.5q3 200 -101.5 293.5
t-328.5 93.5q-208 0 -324 -92t-129 -242zM723 408q0 -116 -68 -177t-170 -61q-74 0 -116.5 38.5t-42.5 96.5q0 60 51.5 95.5t167.5 48.5l178 20v-61zM516 1454q75 0 127.5 -48.5t52.5 -121.5t-52 -121.5t-128 -48.5t-128 48.5t-52 121.5t52.5 121.5t127.5 48.5zM516 1362
q-33 0 -55.5 -22.5t-22.5 -55.5t22.5 -54.5t55.5 -21.5t55.5 21.5t22.5 54.5t-22.5 55.5t-55.5 22.5z" />
    <glyph glyph-name="ae" unicode="&#xe6;" horiz-adv-x="1757" 
d="M336 690l-242 8q13 150 129 242t324 92q248 0 342 -119q132 113 325 113q157 0 272 -77.5t171 -214.5t47 -312h-737q3 -112 73 -179t179 -67q91 0 145.5 41t77.5 107l246 -33q-51 -152 -179 -234t-286 -82q-277 0 -406 185q-132 -185 -391 -185q-166 0 -266.5 97
t-100.5 231q0 129 95 207q62 50 153 77.5t225 41.5l185 20v35q0 85 -46 121.5t-136 36.5q-85 0 -137.5 -39.5t-61.5 -112.5zM485 170q102 0 170 61t68 177v61l-178 -20q-116 -13 -167.5 -48.5t-51.5 -95.5q0 -58 42.5 -96.5t116.5 -38.5zM965 604h477q-3 62 -25 109
t-57 72.5t-73 38t-79 12.5q-101 0 -170 -59.5t-73 -172.5z" />
    <glyph glyph-name="ccedilla" unicode="&#xe7;" horiz-adv-x="1075" 
d="M336 -336l33 86q54 -26 110 -26q107 0 107 55q0 26 -20.5 39.5t-55.5 13.5q-47 0 -74 -16l-57 32l82 134q-194 27 -302 166t-108 352q0 237 135 381.5t371 144.5q171 0 299.5 -87.5t169.5 -262.5l-248 -37q-15 81 -71 133.5t-152 52.5q-108 0 -173 -83t-65 -240
q0 -156 66 -241t172 -85q191 0 229 193l250 -35q-45 -178 -175 -267.5t-302 -91.5l-41 -67q35 6 76 6q63 -2 105 -37.5t42 -91.5q0 -72 -65.5 -114t-155.5 -42q-106 0 -182 35z" />
    <glyph glyph-name="egrave" unicode="&#xe8;" horiz-adv-x="1112" 
d="M565 -25q-165 0 -283 71.5t-174.5 189t-56.5 266.5q0 232 139 378t369 146q245 0 378.5 -163.5t121.5 -440.5h-748q4 -110 73.5 -178t176.5 -68q93 0 153 41t83 107l245 -33q-15 -44 -40 -86.5t-66.5 -85t-93 -74t-123.5 -51t-154 -19.5zM553 836q-95 0 -165.5 -57
t-76.5 -175h486q-2 60 -24 106t-57.5 72.5t-76.5 40t-86 13.5zM522 1118l-284 242h299l180 -242h-195z" />
    <glyph glyph-name="eacute" unicode="&#xe9;" horiz-adv-x="1112" 
d="M565 -25q-165 0 -283 71.5t-174.5 189t-56.5 266.5q0 232 139 378t369 146q245 0 378.5 -163.5t121.5 -440.5h-748q4 -110 73.5 -178t176.5 -68q93 0 153 41t83 107l245 -33q-15 -44 -40 -86.5t-66.5 -85t-93 -74t-123.5 -51t-154 -19.5zM553 836q-95 0 -165.5 -57
t-76.5 -175h486q-2 60 -24 106t-57.5 72.5t-76.5 40t-86 13.5zM893 1360l-285 -242h-194l180 242h299z" />
    <glyph glyph-name="ecircumflex" unicode="&#xea;" horiz-adv-x="1112" 
d="M565 -25q-165 0 -283 71.5t-174.5 189t-56.5 266.5q0 232 139 378t369 146q245 0 378.5 -163.5t121.5 -440.5h-748q4 -110 73.5 -178t176.5 -68q93 0 153 41t83 107l245 -33q-15 -44 -40 -86.5t-66.5 -85t-93 -74t-123.5 -51t-154 -19.5zM643 1360l281 -242h-230
l-145 105l-146 -105h-229l281 242h188zM553 836q-95 0 -165.5 -57t-76.5 -175h486q-2 60 -24 106t-57.5 72.5t-76.5 40t-86 13.5z" />
    <glyph glyph-name="edieresis" unicode="&#xeb;" horiz-adv-x="1112" 
d="M565 -25q-165 0 -283 71.5t-174.5 189t-56.5 266.5q0 232 139 378t369 146q245 0 378.5 -163.5t121.5 -440.5h-748q4 -110 73.5 -178t176.5 -68q93 0 153 41t83 107l245 -33q-15 -44 -40 -86.5t-66.5 -85t-93 -74t-123.5 -51t-154 -19.5zM553 836q-95 0 -165.5 -57
t-76.5 -175h486q-2 60 -24 106t-57.5 72.5t-76.5 40t-86 13.5zM217 1124v226h219v-226h-219zM674 1350h219v-226h-219v226z" />
    <glyph glyph-name="igrave" unicode="&#xec;" horiz-adv-x="499" 
d="M119 1004h262v-1004h-262v1004zM176 1118l-285 242h299l181 -242h-195z" />
    <glyph glyph-name="iacute" unicode="&#xed;" horiz-adv-x="499" 
d="M119 1004h262v-1004h-262v1004zM598 1360l-285 -242h-194l180 242h299z" />
    <glyph glyph-name="icircumflex" unicode="&#xee;" horiz-adv-x="499" 
d="M326 1360l260 -262h-230l-104 119l-111 -119h-227l266 262h146zM119 1004h262v-1004h-262v1004z" />
    <glyph glyph-name="idieresis" unicode="&#xef;" horiz-adv-x="499" 
d="M-27 1112v225h220v-225h-220zM307 1112v225h219v-225h-219zM119 1004h262v-1004h-262v1004z" />
    <glyph glyph-name="eth" unicode="&#xf0;" horiz-adv-x="1107" 
d="M621 1323l110 70l111 -54l-129 -77q334 -242 334 -670q0 -301 -140 -459t-364 -158q-216 0 -354 142.5t-138 384.5q0 236 128 380t319 144q162 0 264 -117l2 2q-74 140 -223 244l-129 -80l-109 51l139 86q-42 25 -151 74l184 113q95 -45 146 -76zM541 176q111 0 172 82
t61 244q0 155 -61.5 239t-171.5 84q-105 0 -164.5 -89.5t-59.5 -235.5t59.5 -235t164.5 -89z" />
    <glyph glyph-name="ntilde" unicode="&#xf1;" horiz-adv-x="1134" 
d="M381 1004v-115q43 67 121.5 102t175.5 35q194 0 283 -117q71 -92 71 -284v-625h-262v567q0 135 -37 187q-45 61 -141 61q-62 0 -105 -23.5t-65.5 -68t-31.5 -95t-9 -116.5v-512h-262v1004h262zM692 1276q81 0 96 84h181q-10 -64 -32.5 -111t-47.5 -71.5t-59 -38.5
t-58.5 -17.5t-54.5 -3.5q-52 0 -98 21t-84 42t-68 21q-79 0 -94 -84h-180q10 64 32.5 111t48 71.5t59.5 38.5t58.5 17.5t54.5 3.5q51 0 95 -21t80.5 -42t70.5 -21z" />
    <glyph glyph-name="ograve" unicode="&#xf2;" horiz-adv-x="1110" 
d="M317 500q0 -152 64 -238t174 -86t174 86t64 238q0 154 -64 239.5t-174 85.5t-174 -85.5t-64 -239.5zM51 500q0 131 41 233.5t111.5 165t160 95t191.5 32.5t191.5 -32.5t160 -95t111.5 -165t41 -233.5t-41 -233.5t-111.5 -165t-160 -94.5t-191.5 -32t-191.5 32t-160 94.5
t-111.5 165t-41 233.5zM557 1118l-285 242h299l181 -242h-195z" />
    <glyph glyph-name="oacute" unicode="&#xf3;" horiz-adv-x="1110" 
d="M317 500q0 -152 64 -238t174 -86t174 86t64 238q0 154 -64 239.5t-174 85.5t-174 -85.5t-64 -239.5zM51 500q0 131 41 233.5t111.5 165t160 95t191.5 32.5t191.5 -32.5t160 -95t111.5 -165t41 -233.5t-41 -233.5t-111.5 -165t-160 -94.5t-191.5 -32t-191.5 32t-160 94.5
t-111.5 165t-41 233.5zM883 1360l-285 -242h-195l181 242h299z" />
    <glyph glyph-name="ocircumflex" unicode="&#xf4;" horiz-adv-x="1110" 
d="M317 500q0 -152 64 -238t174 -86t174 86t64 238q0 154 -64 239.5t-174 85.5t-174 -85.5t-64 -239.5zM51 500q0 131 41 233.5t111.5 165t160 95t191.5 32.5t191.5 -32.5t160 -95t111.5 -165t41 -233.5t-41 -233.5t-111.5 -165t-160 -94.5t-191.5 -32t-191.5 32t-160 94.5
t-111.5 165t-41 233.5zM655 1360l281 -242h-229l-146 105l-145 -105h-230l281 242h188z" />
    <glyph glyph-name="otilde" unicode="&#xf5;" horiz-adv-x="1110" 
d="M317 500q0 -152 64 -238t174 -86t174 86t64 238q0 154 -64 239.5t-174 85.5t-174 -85.5t-64 -239.5zM51 500q0 131 41 233.5t111.5 165t160 95t191.5 32.5t191.5 -32.5t160 -95t111.5 -165t41 -233.5t-41 -233.5t-111.5 -165t-160 -94.5t-191.5 -32t-191.5 32t-160 94.5
t-111.5 165t-41 233.5zM664 1276q81 0 96 84h180q-10 -64 -32.5 -111t-47.5 -71.5t-59 -38.5t-58.5 -17.5t-54.5 -3.5q-52 0 -98 21t-84 42t-68 21q-79 0 -94 -84h-180q10 64 33 111t48 71.5t59.5 38.5t59 17.5t54.5 3.5q51 0 95 -21t80.5 -42t70.5 -21z" />
    <glyph glyph-name="odieresis" unicode="&#xf6;" horiz-adv-x="1110" 
d="M317 500q0 -152 64 -238t174 -86t174 86t64 238q0 154 -64 239.5t-174 85.5t-174 -85.5t-64 -239.5zM51 500q0 131 41 233.5t111.5 165t160 95t191.5 32.5t191.5 -32.5t160 -95t111.5 -165t41 -233.5t-41 -233.5t-111.5 -165t-160 -94.5t-191.5 -32t-191.5 32t-160 94.5
t-111.5 165t-41 233.5zM217 1124v226h219v-226h-219zM674 1350h219v-226h-219v226z" />
    <glyph glyph-name="divide" unicode="&#xf7;" horiz-adv-x="1140" 
d="M426 41v266h283v-266h-283zM426 696v267h283v-267h-283zM61 393h1018v230h-1018v-230z" />
    <glyph glyph-name="oslash" unicode="&#xf8;" horiz-adv-x="1114" 
d="M53 500q0 130 42 232.5t113.5 165.5t160.5 95.5t188 32.5q163 0 293 -86l108 125l95 -82l-111 -127q119 -139 119 -356q0 -130 -42 -232.5t-113.5 -165t-160.5 -95t-188 -32.5q-173 0 -301 91l-115 -134l-92 84l115 134q-111 137 -111 350zM795 500q0 85 -23 159
l-369 -423q63 -60 154 -60q110 0 174 86t64 238zM319 500q0 -82 19 -150l364 420q-58 55 -145 55q-110 0 -174 -85.5t-64 -239.5z" />
    <glyph glyph-name="ugrave" unicode="&#xf9;" horiz-adv-x="1128" 
d="M748 0v113q-44 -66 -121.5 -102t-171.5 -36q-186 0 -275 111q-76 91 -76 291v627h263v-578q0 -68 6.5 -109t27.5 -69q45 -62 138 -62q51 0 88.5 17.5t60.5 45.5t36.5 70t18.5 85t5 96v504h262v-1004h-262zM543 1118l-285 242h299l180 -242h-194z" />
    <glyph glyph-name="uacute" unicode="&#xfa;" horiz-adv-x="1128" 
d="M748 0v113q-44 -66 -121.5 -102t-171.5 -36q-186 0 -275 111q-76 91 -76 291v627h263v-578q0 -68 6.5 -109t27.5 -69q45 -62 138 -62q51 0 88.5 17.5t60.5 45.5t36.5 70t18.5 85t5 96v504h262v-1004h-262zM889 1360l-285 -242h-194l180 242h299z" />
    <glyph glyph-name="ucircumflex" unicode="&#xfb;" horiz-adv-x="1128" 
d="M748 0v113q-44 -66 -121.5 -102t-171.5 -36q-186 0 -275 111q-76 91 -76 291v627h263v-578q0 -68 6.5 -109t27.5 -69q45 -62 138 -62q51 0 88.5 17.5t60.5 45.5t36.5 70t18.5 85t5 96v504h262v-1004h-262zM664 1360l280 -242h-229l-146 105l-145 -105h-229l280 242h189z
" />
    <glyph glyph-name="udieresis" unicode="&#xfc;" horiz-adv-x="1128" 
d="M748 0v113q-44 -66 -121.5 -102t-171.5 -36q-186 0 -275 111q-76 91 -76 291v627h263v-578q0 -68 6.5 -109t27.5 -69q45 -62 138 -62q51 0 88.5 17.5t60.5 45.5t36.5 70t18.5 85t5 96v504h262v-1004h-262zM225 1124v226h219v-226h-219zM682 1350h219v-226h-219v226z" />
    <glyph glyph-name="yacute" unicode="&#xfd;" horiz-adv-x="958" 
d="M66 -354h110q66 0 112 6t86 24t67.5 42.5t56 71.5t52 101t54.5 140l354 973h-266l-217 -678l-213 678h-287l371 -1000l-10 -22q-34 -75 -68.5 -97t-103.5 -22h-98v-217zM823 1360l-284 -242h-195l180 242h299z" />
    <glyph glyph-name="thorn" unicode="&#xfe;" 
d="M119 -354v1714h262v-463q99 129 274 129q194 0 316.5 -141.5t122.5 -384.5q0 -237 -129 -381t-326 -144q-158 0 -258 115v-444h-262zM604 825q-109 0 -171 -87t-62 -238q0 -149 62.5 -236.5t170.5 -87.5q105 0 164 90t59 236t-59 234.5t-164 88.5z" />
    <glyph glyph-name="ydieresis" unicode="&#xff;" horiz-adv-x="958" 
d="M66 -354h110q66 0 112 6t86 24t67.5 42.5t56 71.5t52 101t54.5 140l354 973h-266l-217 -678l-213 678h-287l371 -1000l-10 -22q-34 -75 -68.5 -97t-103.5 -22h-98v-217zM154 1124v226h219v-226h-219zM610 1350h219v-226h-219v226z" />
    <glyph glyph-name="Amacron" unicode="&#x100;" horiz-adv-x="1304" 
d="M0 0l514 1360h274l517 -1360h-295l-101 281h-532l-98 -281h-279zM643 1026l-186 -524h372zM940 1448h-596v180h596v-180z" />
    <glyph glyph-name="amacron" unicode="&#x101;" horiz-adv-x="1073" 
d="M94 698l242 -8q6 76 58.5 114t140.5 38q90 0 136 -36.5t46 -121.5v-35l-185 -20q-135 -14 -226 -40.5t-152 -74.5q-95 -75 -95 -211q0 -134 100.5 -231t266.5 -97q116 0 191.5 32t125.5 102l7 -109h241q-20 161 -20 332q0 55 3 173.5t3 139.5q3 200 -101.5 293.5
t-328.5 93.5q-208 0 -324 -92t-129 -242zM723 408q0 -116 -68 -177t-170 -61q-74 0 -116.5 38.5t-42.5 96.5q0 60 51.5 95.5t167.5 48.5l178 20v-61zM842 1143h-596v180h596v-180z" />
    <glyph glyph-name="Abreve" unicode="&#x102;" horiz-adv-x="1304" 
d="M0 0l514 1360h274l517 -1360h-295l-101 281h-532l-98 -281h-279zM643 1026l-186 -524h372zM782 1645h185q-20 -224 -326 -224q-302 0 -319 224h184q6 -46 38 -67.5t99 -21.5t100 21.5t39 67.5z" />
    <glyph glyph-name="abreve" unicode="&#x103;" horiz-adv-x="1073" 
d="M94 698l242 -8q6 76 58.5 114t140.5 38q90 0 136 -36.5t46 -121.5v-35l-185 -20q-135 -14 -226 -40.5t-152 -74.5q-95 -75 -95 -211q0 -134 100.5 -231t266.5 -97q116 0 191.5 32t125.5 102l7 -109h241q-20 161 -20 332q0 55 3 173.5t3 139.5q3 200 -101.5 293.5
t-328.5 93.5q-208 0 -324 -92t-129 -242zM723 408q0 -116 -68 -177t-170 -61q-74 0 -116.5 38.5t-42.5 96.5q0 60 51.5 95.5t167.5 48.5l178 20v-61zM877 1360q-23 -256 -326 -256q-153 0 -232 67t-88 189h185q6 -62 38 -91.5t99 -29.5t100 29.5t39 91.5h185z" />
    <glyph glyph-name="Aogonek" unicode="&#x104;" horiz-adv-x="1304" 
d="M1010 0l-101 281h-532l-98 -281h-279l514 1360h274l517 -1360q-43 -21 -69.5 -35.5t-54 -33t-40.5 -36.5t-13 -36q0 -64 84 -64q43 0 107 19v-156q-82 -20 -156 -20q-72 0 -129 17.5t-95 60t-38 106.5q0 50 29.5 97.5t79.5 80.5zM643 1026l-186 -524h372z" />
    <glyph glyph-name="aogonek" unicode="&#x105;" horiz-adv-x="1073" 
d="M723 408v61l-178 -20q-116 -13 -167.5 -48.5t-51.5 -95.5q0 -58 42.5 -96.5t116.5 -38.5q102 0 170 61t68 177zM991 0q-82 -40 -119.5 -70.5t-37.5 -70.5q0 -64 84 -64q42 0 106 19v-156q-82 -20 -156 -20q-112 0 -187 44t-75 132q0 54 40.5 103.5t103.5 82.5l-7 109
q-50 -70 -125.5 -102t-191.5 -32q-166 0 -266.5 97t-100.5 231q0 136 95 211q61 48 152 74.5t226 40.5l185 20v35q0 85 -46 121.5t-136 36.5q-88 0 -140.5 -38t-58.5 -114l-242 8q13 150 129 242t324 92q224 0 328.5 -93.5t101.5 -293.5q0 -21 -3 -139.5t-3 -173.5
q0 -171 20 -332z" />
    <glyph glyph-name="Cacute" unicode="&#x106;" horiz-adv-x="1368" 
d="M1061 477l260 -39q-41 -211 -198.5 -337t-401.5 -126q-306 0 -475.5 189.5t-169.5 521.5q0 326 175 512t478 186q240 0 396 -124.5t196 -337.5l-260 -39q-29 145 -121 214.5t-219 69.5q-159 0 -261 -125t-102 -356q0 -238 101 -365.5t258 -127.5q131 0 223 69.5
t121 214.5zM1090 1645l-304 -215h-215l197 215h322z" />
    <glyph glyph-name="cacute" unicode="&#x107;" horiz-adv-x="1075" 
d="M557 1026q171 0 299.5 -87.5t169.5 -262.5l-248 -37q-15 81 -71 133.5t-152 52.5q-108 0 -173 -83t-65 -240q0 -156 66 -241t172 -85q191 0 229 193l250 -35q-30 -121 -105 -204t-170 -119t-208 -36q-234 0 -367 144.5t-133 380.5q0 237 135 381.5t371 144.5zM895 1360
l-285 -242h-194l180 242h299z" />
    <glyph glyph-name="Ccircumflex" unicode="&#x108;" horiz-adv-x="1368" 
d="M1061 477l260 -39q-41 -211 -198.5 -337t-401.5 -126q-306 0 -475.5 189.5t-169.5 521.5q0 326 175 512t478 186q240 0 396 -124.5t196 -337.5l-260 -39q-29 145 -121 214.5t-219 69.5q-159 0 -261 -125t-102 -356q0 -238 101 -365.5t258 -127.5q131 0 223 69.5
t121 214.5zM831 1645l261 -215h-250l-125 94l-131 -94h-248l266 215h227z" />
    <glyph glyph-name="ccircumflex" unicode="&#x109;" horiz-adv-x="1075" 
d="M557 1026q171 0 299.5 -87.5t169.5 -262.5l-248 -37q-15 81 -71 133.5t-152 52.5q-108 0 -173 -83t-65 -240q0 -156 66 -241t172 -85q191 0 229 193l250 -35q-30 -121 -105 -204t-170 -119t-208 -36q-234 0 -367 144.5t-133 380.5q0 237 135 381.5t371 144.5zM645 1360
l281 -242h-230l-145 105l-145 -105h-230l281 242h188z" />
    <glyph glyph-name="Cdotaccent" unicode="&#x10a;" horiz-adv-x="1368" 
d="M1061 477l260 -39q-41 -211 -198.5 -337t-401.5 -126q-306 0 -475.5 189.5t-169.5 521.5q0 326 175 512t478 186q240 0 396 -124.5t196 -337.5l-260 -39q-29 145 -121 214.5t-219 69.5q-159 0 -261 -125t-102 -356q0 -238 101 -365.5t258 -127.5q131 0 223 69.5
t121 214.5zM588 1645h272v-215h-272v215z" />
    <glyph glyph-name="cdotaccent" unicode="&#x10b;" horiz-adv-x="1075" 
d="M557 1026q171 0 299.5 -87.5t169.5 -262.5l-248 -37q-15 81 -71 133.5t-152 52.5q-108 0 -173 -83t-65 -240q0 -156 66 -241t172 -85q191 0 229 193l250 -35q-30 -121 -105 -204t-170 -119t-208 -36q-234 0 -367 144.5t-133 380.5q0 237 135 381.5t371 144.5zM446 1350
h220v-226h-220v226z" />
    <glyph glyph-name="Ccaron" unicode="&#x10c;" horiz-adv-x="1368" 
d="M1061 477l260 -39q-41 -211 -198.5 -337t-401.5 -126q-306 0 -475.5 189.5t-169.5 521.5q0 326 175 512t478 186q240 0 396 -124.5t196 -337.5l-260 -39q-29 145 -121 214.5t-219 69.5q-159 0 -261 -125t-102 -356q0 -238 101 -365.5t258 -127.5q131 0 223 69.5
t121 214.5zM608 1430l-260 215h250l125 -95l131 95h248l-266 -215h-228z" />
    <glyph glyph-name="ccaron" unicode="&#x10d;" horiz-adv-x="1075" 
d="M557 1026q171 0 299.5 -87.5t169.5 -262.5l-248 -37q-15 81 -71 133.5t-152 52.5q-108 0 -173 -83t-65 -240q0 -156 66 -241t172 -85q191 0 229 193l250 -35q-30 -121 -105 -204t-170 -119t-208 -36q-234 0 -367 144.5t-133 380.5q0 237 135 381.5t371 144.5zM465 1118
l-281 242h230l145 -105l146 105h229l-281 -242h-188z" />
    <glyph glyph-name="Dcaron" unicode="&#x10e;" horiz-adv-x="1333" 
d="M979 680q0 86 -16 155.5t-42.5 117t-68 82t-84 54.5t-98.5 31.5t-104 15t-109 3.5h-62v-918h62q61 0 109 3.5t104 15t98.5 31.5t84 54.5t68 82t42.5 117t16 155.5zM123 1360h348q139 0 251 -18t215.5 -64.5t173 -121.5t110.5 -195.5t41 -280.5t-41 -280.5t-110.5 -195.5
t-173 -121.5t-215.5 -64.5t-251 -18h-348v1360zM481 1430l-260 215h250l125 -95l131 95h248l-266 -215h-228z" />
    <glyph glyph-name="dcaron" unicode="&#x10f;" horiz-adv-x="1329" 
d="M1391 1360l-134 -324h-172l58 324h248zM1026 0v1360h-262v-449q-100 115 -258 115q-197 0 -326 -143.5t-129 -380.5q0 -243 122 -385t316 -142q189 0 283 131l2 -106h252zM541 176q-105 0 -164.5 89t-59.5 235t59.5 235.5t164.5 89.5q108 0 170.5 -87.5t62.5 -235.5
q0 -151 -62 -238.5t-171 -87.5z" />
    <glyph glyph-name="Dcroat" unicode="&#x110;" horiz-adv-x="1331" 
d="M0 807h123v553h348q139 0 251 -18t215 -64.5t172 -121.5t110 -195.5t41 -280.5t-41 -280.5t-110 -195.5t-172 -121.5t-215 -64.5t-251 -18h-348v586h-123v221zM977 680q0 86 -16 155.5t-42.5 117t-67.5 82t-83 54.5t-98 31.5t-104.5 15t-108.5 3.5h-62v-332h285v-221
h-285v-365h62q60 0 108.5 3.5t104.5 15t98 31.5t83 54.5t67.5 82t42.5 117t16 155.5z" />
    <glyph glyph-name="dcroat" unicode="&#x111;" 
d="M1026 1073v-1073h-252l-2 106q-94 -131 -283 -131q-194 0 -316 142t-122 385q0 237 129 380.5t326 143.5q158 0 258 -115v162h-240v154h240v133h262v-133h160v-154h-160zM541 176q109 0 171 87.5t62 238.5q0 148 -62.5 235.5t-170.5 87.5q-105 0 -164.5 -89.5
t-59.5 -235.5t59.5 -235t164.5 -89z" />
    <glyph glyph-name="Emacron" unicode="&#x112;" horiz-adv-x="1173" 
d="M123 0v1360h1005v-221h-733v-332h692v-221h-692v-365h733v-221h-1005zM926 1448h-596v180h596v-180z" />
    <glyph glyph-name="emacron" unicode="&#x113;" horiz-adv-x="1112" 
d="M565 -25q-165 0 -283 71.5t-174.5 189t-56.5 266.5q0 232 139 378t369 146q245 0 378.5 -163.5t121.5 -440.5h-748q4 -110 73.5 -178t176.5 -68q93 0 153 41t83 107l245 -33q-15 -44 -40 -86.5t-66.5 -85t-93 -74t-123.5 -51t-154 -19.5zM858 1143h-596v180h596v-180z
M553 836q-95 0 -165.5 -57t-76.5 -175h486q-2 60 -24 106t-57.5 72.5t-76.5 40t-86 13.5z" />
    <glyph glyph-name="Ebreve" unicode="&#x114;" horiz-adv-x="1173" 
d="M123 0v1360h1005v-221h-733v-332h692v-221h-692v-365h733v-221h-1005zM768 1645h184q-20 -224 -325 -224q-303 0 -320 224h185q6 -46 38 -67.5t99 -21.5t100 21.5t39 67.5z" />
    <glyph glyph-name="ebreve" unicode="&#x115;" horiz-adv-x="1112" 
d="M565 -25q-165 0 -283 71.5t-174.5 189t-56.5 266.5q0 232 139 378t369 146q245 0 378.5 -163.5t121.5 -440.5h-748q4 -110 73.5 -178t176.5 -68q93 0 153 41t83 107l245 -33q-15 -44 -40 -86.5t-66.5 -85t-93 -74t-123.5 -51t-154 -19.5zM877 1360q-23 -256 -326 -256
q-153 0 -232 67t-88 189h185q6 -62 38 -91.5t99 -29.5t100 29.5t39 91.5h185zM553 836q-95 0 -165.5 -57t-76.5 -175h486q-2 60 -24 106t-57.5 72.5t-76.5 40t-86 13.5z" />
    <glyph glyph-name="Edotaccent" unicode="&#x116;" horiz-adv-x="1173" 
d="M123 0v1360h1005v-221h-733v-332h692v-221h-692v-365h733v-221h-1005zM485 1645h273v-215h-273v215z" />
    <glyph glyph-name="edotaccent" unicode="&#x117;" horiz-adv-x="1112" 
d="M565 -25q-165 0 -283 71.5t-174.5 189t-56.5 266.5q0 232 139 378t369 146q245 0 378.5 -163.5t121.5 -440.5h-748q4 -110 73.5 -178t176.5 -68q93 0 153 41t83 107l245 -33q-15 -44 -40 -86.5t-66.5 -85t-93 -74t-123.5 -51t-154 -19.5zM553 836q-95 0 -165.5 -57
t-76.5 -175h486q-2 60 -24 106t-57.5 72.5t-76.5 40t-86 13.5zM444 1350h220v-226h-220v226z" />
    <glyph glyph-name="Eogonek" unicode="&#x118;" horiz-adv-x="1173" 
d="M123 0v1360h1005v-221h-733v-332h692v-221h-692v-365h733v-221q-88 -43 -132 -74.5t-44 -66.5q0 -64 84 -64q43 0 107 19v-156q-82 -20 -156 -20q-112 0 -187 44t-75 132q0 56 35.5 105.5t95.5 80.5h-733z" />
    <glyph glyph-name="eogonek" unicode="&#x119;" horiz-adv-x="1112" 
d="M1042 291q-32 -94 -106 -172t-199 -119q-77 -25 -121.5 -62t-44.5 -79q0 -64 84 -64q43 0 107 19v-156q-82 -20 -156 -20q-112 0 -187 44t-75 132q0 100 105 172q-192 33 -295 174t-103 342q0 232 139 378t369 146q245 0 378.5 -163.5t121.5 -440.5h-748
q4 -110 73.5 -178t176.5 -68q93 0 153 41t83 107zM553 836q-95 0 -165.5 -57t-76.5 -175h486q-2 60 -24 106t-57.5 72.5t-76.5 40t-86 13.5z" />
    <glyph glyph-name="Ecaron" unicode="&#x11a;" horiz-adv-x="1173" 
d="M123 0v1360h1005v-221h-733v-332h692v-221h-692v-365h733v-221h-1005zM508 1430l-260 215h250l125 -95l131 95h247l-266 -215h-227z" />
    <glyph glyph-name="ecaron" unicode="&#x11b;" horiz-adv-x="1112" 
d="M565 -25q-165 0 -283 71.5t-174.5 189t-56.5 266.5q0 232 139 378t369 146q245 0 378.5 -163.5t121.5 -440.5h-748q4 -110 73.5 -178t176.5 -68q93 0 153 41t83 107l245 -33q-15 -44 -40 -86.5t-66.5 -85t-93 -74t-123.5 -51t-154 -19.5zM473 1118l-280 242h229l145 -105
l146 105h229l-280 -242h-189zM553 836q-95 0 -165.5 -57t-76.5 -175h486q-2 60 -24 106t-57.5 72.5t-76.5 40t-86 13.5z" />
    <glyph glyph-name="Gcircumflex" unicode="&#x11c;" horiz-adv-x="1445" 
d="M752 1384q236 0 392.5 -122t196.5 -316l-260 -39q-31 130 -120 195t-211 65q-180 0 -286 -120.5t-106 -360.5q0 -242 104 -367.5t286 -125.5q61 0 118 15.5t109.5 47.5t84.5 91.5t32 139.5v23h-344v223h595v-733h-215l-8 162q-60 -87 -166 -137t-247 -50
q-292 0 -461.5 190.5t-169.5 520.5q0 322 180.5 510t495.5 188zM852 1645l260 -215h-250l-125 94l-131 -94h-248l267 215h227z" />
    <glyph glyph-name="gcircumflex" unicode="&#x11d;" 
d="M764 139v-88q0 -123 -62 -172q-49 -39 -153 -39q-93 0 -143.5 30t-63.5 101l-250 -10q13 -88 53.5 -152t102.5 -100t134.5 -52.5t158.5 -16.5q243 0 356 102q129 111 129 358v904h-254l-4 -93q-100 115 -262 115q-196 0 -325.5 -140.5t-129.5 -363.5q0 -229 122.5 -367.5
t315.5 -138.5q181 0 275 123zM541 217q-107 0 -165.5 80t-58.5 223q0 132 60 218.5t164 86.5q107 0 170 -84.5t63 -218.5q0 -149 -61.5 -227t-171.5 -78zM668 1360l280 -242h-229l-146 105l-145 -105h-229l280 242h189z" />
    <glyph glyph-name="Gbreve" unicode="&#x11e;" horiz-adv-x="1445" 
d="M752 1384q236 0 392.5 -122t196.5 -316l-260 -39q-31 130 -120 195t-211 65q-180 0 -286 -120.5t-106 -360.5q0 -242 104 -367.5t286 -125.5q61 0 118 15.5t109.5 47.5t84.5 91.5t32 139.5v23h-344v223h595v-733h-215l-8 162q-60 -87 -166 -137t-247 -50
q-292 0 -461.5 190.5t-169.5 520.5q0 322 180.5 510t495.5 188zM881 1645h184q-20 -224 -326 -224q-302 0 -319 224h184q6 -46 38 -67.5t99 -21.5t100.5 21.5t39.5 67.5z" />
    <glyph glyph-name="gbreve" unicode="&#x11f;" 
d="M764 139v-88q0 -123 -62 -172q-49 -39 -153 -39q-93 0 -143.5 30t-63.5 101l-250 -10q13 -88 53.5 -152t102.5 -100t134.5 -52.5t158.5 -16.5q243 0 356 102q129 111 129 358v904h-254l-4 -93q-100 115 -262 115q-196 0 -325.5 -140.5t-129.5 -363.5q0 -229 122.5 -367.5
t315.5 -138.5q181 0 275 123zM541 217q-107 0 -165.5 80t-58.5 223q0 132 60 218.5t164 86.5q107 0 170 -84.5t63 -218.5q0 -149 -61.5 -227t-171.5 -78zM891 1360q-23 -256 -326 -256q-153 0 -231.5 67t-87.5 189h184q6 -62 38 -91.5t99 -29.5t100.5 29.5t39.5 91.5h184z
" />
    <glyph glyph-name="Gdotaccent" unicode="&#x120;" horiz-adv-x="1445" 
d="M752 1384q236 0 392.5 -122t196.5 -316l-260 -39q-31 130 -120 195t-211 65q-180 0 -286 -120.5t-106 -360.5q0 -242 104 -367.5t286 -125.5q61 0 118 15.5t109.5 47.5t84.5 91.5t32 139.5v23h-344v223h595v-733h-215l-8 162q-60 -87 -166 -137t-247 -50
q-292 0 -461.5 190.5t-169.5 520.5q0 322 180.5 510t495.5 188zM588 1645h272v-215h-272v215z" />
    <glyph glyph-name="gdotaccent" unicode="&#x121;" 
d="M764 139v-88q0 -123 -62 -172q-49 -39 -153 -39q-93 0 -143.5 30t-63.5 101l-250 -10q13 -88 53.5 -152t102.5 -100t134.5 -52.5t158.5 -16.5q243 0 356 102q129 111 129 358v904h-254l-4 -93q-100 115 -262 115q-196 0 -325.5 -140.5t-129.5 -363.5q0 -229 122.5 -367.5
t315.5 -138.5q181 0 275 123zM541 217q-107 0 -165.5 80t-58.5 223q0 132 60 218.5t164 86.5q107 0 170 -84.5t63 -218.5q0 -149 -61.5 -227t-171.5 -78zM432 1350h219v-226h-219v226z" />
    <glyph glyph-name="Gcommaaccent" unicode="&#x122;" horiz-adv-x="1445" 
d="M752 1384q236 0 392.5 -122t196.5 -316l-260 -39q-31 130 -120 195t-211 65q-180 0 -286 -120.5t-106 -360.5q0 -242 104 -367.5t286 -125.5q61 0 118 15.5t109.5 47.5t84.5 91.5t32 139.5v23h-344v223h595v-733h-215l-8 162q-60 -87 -166 -137t-247 -50
q-292 0 -461.5 190.5t-169.5 520.5q0 322 180.5 510t495.5 188zM629 -258v190h200v-202l-84 -170h-122l73 182h-67z" />
    <glyph glyph-name="gcommaaccent" unicode="&#x123;" 
d="M645 1288v-190h-201v202l84 170h123l-73 -182h67zM764 139v-88q0 -123 -62 -172q-49 -39 -153 -39q-93 0 -143.5 30t-63.5 101l-250 -10q13 -88 53.5 -152t102.5 -100t134.5 -52.5t158.5 -16.5q243 0 356 102q129 111 129 358v904h-254l-4 -93q-100 115 -262 115
q-196 0 -325.5 -140.5t-129.5 -363.5q0 -229 122.5 -367.5t315.5 -138.5q181 0 275 123zM541 217q-107 0 -165.5 80t-58.5 223q0 132 60 218.5t164 86.5q107 0 170 -84.5t63 -218.5q0 -149 -61.5 -227t-171.5 -78z" />
    <glyph glyph-name="Hcircumflex" unicode="&#x124;" horiz-adv-x="1409" 
d="M1014 1360h272v-1360h-272v586h-619v-586h-272v1360h272v-553h619v553zM807 1645l260 -215h-250l-125 94l-131 -94h-248l267 215h227z" />
    <glyph glyph-name="hcircumflex" unicode="&#x125;" horiz-adv-x="1134" 
d="M760 1360l219 -262h-188l-105 139l-111 -139h-186l225 262h146zM381 1360v-471q43 67 121.5 102t175.5 35q194 0 283 -117q71 -92 71 -284v-625h-262v567q0 135 -37 187q-45 61 -141 61q-62 0 -105 -23.5t-65.5 -68t-31.5 -95t-9 -116.5v-512h-262v1360h262z" />
    <glyph glyph-name="Hbar" unicode="&#x126;" horiz-adv-x="1409" 
d="M1014 1360h272v-1360h-272v586h-619v-586h-272v1360h272v-170h619v170zM395 807h619v162h-619v-162z" />
    <glyph glyph-name="hbar" unicode="&#x127;" horiz-adv-x="1134" 
d="M381 1360v-133h240v-154h-240v-184q43 67 121.5 102t175.5 35q194 0 283 -117q71 -92 71 -284v-625h-262v567q0 135 -37 187q-45 61 -141 61q-62 0 -105 -23.5t-65.5 -68t-31.5 -95t-9 -116.5v-512h-262v1073h-160v154h160v133h262z" />
    <glyph glyph-name="Itilde" unicode="&#x128;" horiz-adv-x="518" 
d="M356 1587q64 0 76 78h141q-10 -74 -34.5 -126t-57 -76t-60.5 -33t-56 -9q-40 0 -75 19.5t-63 39t-53 19.5q-62 0 -74 -78h-141q10 74 34.5 126t57.5 76t61 33t56 9q40 0 72.5 -19.5t60 -39t55.5 -19.5zM395 1360v-1360h-272v1360h272z" />
    <glyph glyph-name="itilde" unicode="&#x129;" horiz-adv-x="499" 
d="M354 1276q64 0 76 84h141q-8 -65 -26.5 -114t-40.5 -76.5t-49.5 -44.5t-49 -22t-43.5 -5q-40 0 -74 21t-62 42t-52 21q-62 0 -74 -84h-141q8 65 26.5 114t40.5 76.5t49.5 44.5t49 22t43.5 5q40 0 72 -21t59 -42t55 -21zM119 1004h262v-1004h-262v1004z" />
    <glyph glyph-name="Imacron" unicode="&#x12a;" horiz-adv-x="518" 
d="M516 1448h-516v180h516v-180zM395 1360v-1360h-272v1360h272z" />
    <glyph glyph-name="imacron" unicode="&#x12b;" horiz-adv-x="499" 
d="M487 1143h-473v180h473v-180zM119 1004h262v-1004h-262v1004z" />
    <glyph glyph-name="Ibreve" unicode="&#x12c;" horiz-adv-x="518" 
d="M252 1421q-262 0 -279 224h185q6 -44 32 -66.5t64 -22.5q39 0 65.5 22.5t32.5 66.5h185q-10 -116 -80.5 -170t-204.5 -54zM395 1360v-1360h-272v1360h272z" />
    <glyph glyph-name="ibreve" unicode="&#x12d;" horiz-adv-x="499" 
d="M532 1360q-11 -123 -84 -200t-200 -77q-123 0 -196.5 77.5t-82.5 199.5h185q0 -141 96 -141q98 0 98 141h184zM119 1004h262v-1004h-262v1004z" />
    <glyph glyph-name="Iogonek" unicode="&#x12e;" horiz-adv-x="518" 
d="M123 0v1360h272v-1360q-88 -43 -132 -74.5t-44 -66.5q0 -64 84 -64q43 0 107 19v-156q-82 -20 -156 -20q-112 0 -187 44t-75 132q0 56 35.5 105.5t95.5 80.5z" />
    <glyph glyph-name="iogonek" unicode="&#x12f;" horiz-adv-x="499" 
d="M119 1360h262v-244h-262v244zM119 0v1004h262v-1004q-87 -43 -126.5 -72.5t-39.5 -68.5q0 -64 84 -64q43 0 107 19v-156q-82 -20 -156 -20q-112 0 -187 44t-75 132q0 56 35.5 105.5t95.5 80.5z" />
    <glyph glyph-name="Idotaccent" unicode="&#x130;" horiz-adv-x="518" 
d="M123 1645h272v-215h-272v215zM395 1360v-1360h-272v1360h272z" />
    <glyph glyph-name="dotlessi" unicode="&#x131;" horiz-adv-x="499" 
d="M119 1004h262v-1004h-262v1004z" />
    <glyph glyph-name="IJ" unicode="&#x132;" horiz-adv-x="1138" 
d="M395 1360v-1360h-272v1360h272zM553 0v227h29q103 0 132 22.5t29 108.5v1002h273v-1010q0 -204 -72.5 -277t-273.5 -73h-117z" />
    <glyph glyph-name="ij" unicode="&#x133;" horiz-adv-x="1001" 
d="M119 1004h262v-1004h-262v1004zM119 1360h262v-244h-262v244zM618 -8v1012h263v-1016q0 -110 -14.5 -175t-55.5 -103.5t-100.5 -51t-161.5 -12.5h-68v211h35q70 0 86 23.5t16 111.5zM618 1360h263v-244h-263v244z" />
    <glyph glyph-name="Jcircumflex" unicode="&#x134;" horiz-adv-x="620" 
d="M475 1645l219 -215h-250l-84 94l-90 -94h-247l225 215h227zM35 0v227h28q103 0 132.5 22.5t29.5 108.5v1002h273v-1010q0 -204 -72.5 -277t-273.5 -73h-117z" />
    <glyph glyph-name="jcircumflex" unicode="&#x135;" horiz-adv-x="550" 
d="M168 -8v1012h262v-1016q0 -86 -14.5 -146t-40.5 -98.5t-71 -60t-97.5 -29.5t-128.5 -8h-96v211h45q91 0 116 25t25 110zM373 1360l260 -262h-230l-104 119l-111 -119h-227l266 262h146z" />
    <glyph glyph-name="Kcommaaccent" unicode="&#x136;" horiz-adv-x="1296" 
d="M395 1360v-615l563 615h318l-506 -543l545 -817h-322l-405 621l-193 -207v-414h-272v1360h272zM557 -258v190h201v-202l-84 -170h-123l74 182h-68z" />
    <glyph glyph-name="kcommaaccent" unicode="&#x137;" horiz-adv-x="1056" 
d="M119 1360h262v-735l358 379h310l-363 -379l385 -625h-301l-264 436l-125 -131v-305h-262v1360zM432 -258v190h201v-202l-84 -170h-123l74 182h-68z" />
    <glyph glyph-name="kgreenlandic" unicode="&#x138;" horiz-adv-x="1015" 
d="M119 1004h262v-361l326 361h309l-389 -420l411 -584h-309l-278 397l-70 -75v-322h-262v1004z" />
    <glyph glyph-name="Lacute" unicode="&#x139;" horiz-adv-x="1067" 
d="M395 1360v-1139h672v-221h-944v1360h272zM651 1645l-303 -215h-215l197 215h321z" />
    <glyph glyph-name="lacute" unicode="&#x13a;" horiz-adv-x="499" 
d="M381 1360v-1360h-262v1360h262zM641 1645l-303 -215h-215l196 215h322z" />
    <glyph glyph-name="Lcommaaccent" unicode="&#x13b;" horiz-adv-x="1067" 
d="M395 1360v-1139h672v-221h-944v1360h272zM473 -258v190h201v-202l-84 -170h-123l74 182h-68z" />
    <glyph glyph-name="lcommaaccent" unicode="&#x13c;" horiz-adv-x="499" 
d="M381 1360v-1360h-262v1360h262zM152 -258v190h200v-202l-84 -170h-123l74 182h-67z" />
    <glyph glyph-name="Lcaron" unicode="&#x13d;" horiz-adv-x="1067" 
d="M858 1360l-133 -324h-172l57 324h248zM395 1360v-1139h672v-221h-944v1360h272z" />
    <glyph glyph-name="lcaron" unicode="&#x13e;" horiz-adv-x="684" 
d="M745 1360l-133 -324h-172l58 324h247zM381 1360v-1360h-262v1360h262z" />
    <glyph glyph-name="Ldot" unicode="&#x13f;" horiz-adv-x="1128" 
d="M123 1645h272v-215h-272v215zM395 1360v-1139h672v-221h-944v1360h272z" />
    <glyph glyph-name="ldot" unicode="&#x140;" horiz-adv-x="499" 
d="M119 1419v226h262v-226h-262zM381 1360v-1360h-262v1360h262z" />
    <glyph glyph-name="Lslash" unicode="&#x141;" horiz-adv-x="1128" 
d="M0 367v239l184 117v637h273v-465l321 203v-240l-321 -203v-434h671v-221h-944v483z" />
    <glyph glyph-name="lslash" unicode="&#x142;" horiz-adv-x="499" 
d="M-20 475v213l139 78v594h262v-445l139 80v-213l-139 -80v-702h-262v553z" />
    <glyph glyph-name="Nacute" unicode="&#x143;" horiz-adv-x="1409" 
d="M1286 0h-362l-529 1032v-1032h-272v1360h362l529 -1032v1032h272v-1360zM1065 1645l-303 -215h-215l196 215h322z" />
    <glyph glyph-name="nacute" unicode="&#x144;" horiz-adv-x="1134" 
d="M381 1004v-115q43 67 121.5 102t175.5 35q194 0 283 -117q71 -92 71 -284v-625h-262v567q0 135 -37 187q-45 61 -141 61q-62 0 -105 -23.5t-65.5 -68t-31.5 -95t-9 -116.5v-512h-262v1004h262zM942 1360l-285 -242h-194l180 242h299z" />
    <glyph glyph-name="Ncommaaccent" unicode="&#x145;" horiz-adv-x="1409" 
d="M1286 0h-362l-529 1032v-1032h-272v1360h362l529 -1032v1032h272v-1360zM631 -258v190h200v-202l-83 -170h-123l73 182h-67z" />
    <glyph glyph-name="ncommaaccent" unicode="&#x146;" horiz-adv-x="1134" 
d="M381 1004v-115q43 67 121.5 102t175.5 35q194 0 283 -117q71 -92 71 -284v-625h-262v567q0 135 -37 187q-45 61 -141 61q-62 0 -105 -23.5t-65.5 -68t-31.5 -95t-9 -116.5v-512h-262v1004h262zM473 -258v190h201v-202l-84 -170h-123l74 182h-68z" />
    <glyph glyph-name="Ncaron" unicode="&#x147;" horiz-adv-x="1409" 
d="M1286 0h-362l-529 1032v-1032h-272v1360h362l529 -1032v1032h272v-1360zM618 1430l-260 215h250l125 -95l131 95h248l-266 -215h-228z" />
    <glyph glyph-name="ncaron" unicode="&#x148;" horiz-adv-x="1134" 
d="M381 1004v-115q43 67 121.5 102t175.5 35q194 0 283 -117q71 -92 71 -284v-625h-262v567q0 135 -37 187q-45 61 -141 61q-62 0 -105 -23.5t-65.5 -68t-31.5 -95t-9 -116.5v-512h-262v1004h262zM510 1118l-281 242h230l145 -105l146 105h229l-281 -242h-188z" />
    <glyph glyph-name="napostrophe" unicode="&#x149;" horiz-adv-x="1134" 
d="M381 1004v-115q43 67 121.5 102t175.5 35q194 0 283 -117q71 -92 71 -284v-625h-262v567q0 135 -37 187q-45 61 -141 61q-62 0 -105 -23.5t-65.5 -68t-31.5 -95t-9 -116.5v-512h-262v1004h262zM166 1237v190h201v-202l-84 -170h-123l73 182h-67z" />
    <glyph glyph-name="Eng" unicode="&#x14a;" horiz-adv-x="1409" 
d="M1014 0l-619 1044v-1044h-272v1360h362l529 -916v916h272v-1368q0 -104 -16 -169t-57 -105.5t-105 -56t-168 -15.5h-117v227h54q81 0 109 19t28 81v27z" />
    <glyph glyph-name="eng" unicode="&#x14b;" horiz-adv-x="1134" 
d="M770 -8v583q0 50 -7 88.5t-25 75t-55 56.5t-91 20q-51 0 -89.5 -16.5t-61 -43t-36.5 -67t-19 -82t-5 -94.5v-512h-262v1004h262v-121q44 68 123 105.5t174 37.5q171 0 262.5 -101t91.5 -300v-637q0 -86 -14.5 -146t-40.5 -98.5t-71 -60t-97.5 -29.5t-128.5 -8h-96v211h45
q91 0 116 25t25 110z" />
    <glyph glyph-name="Omacron" unicode="&#x14c;" horiz-adv-x="1486" 
d="M1128 686q0 238 -106.5 359.5t-278.5 121.5q-171 0 -278 -121.5t-107 -359.5t108 -365.5t277 -127.5q170 0 277.5 127.5t107.5 365.5zM1411 686q0 -326 -180 -518.5t-488 -192.5t-487.5 192.5t-179.5 518.5q0 325 179 511.5t488 186.5q310 0 489 -186.5t179 -511.5z
M1049 1448h-596v180h596v-180z" />
    <glyph glyph-name="omacron" unicode="&#x14d;" horiz-adv-x="1110" 
d="M317 500q0 -152 64 -238t174 -86t174 86t64 238q0 154 -64 239.5t-174 85.5t-174 -85.5t-64 -239.5zM51 500q0 131 41 233.5t111.5 165t160 95t191.5 32.5t191.5 -32.5t160 -95t111.5 -165t41 -233.5t-41 -233.5t-111.5 -165t-160 -94.5t-191.5 -32t-191.5 32t-160 94.5
t-111.5 165t-41 233.5zM852 1143h-596v180h596v-180z" />
    <glyph glyph-name="Obreve" unicode="&#x14e;" horiz-adv-x="1486" 
d="M1128 686q0 238 -106.5 359.5t-278.5 121.5q-171 0 -278 -121.5t-107 -359.5t108 -365.5t277 -127.5q170 0 277.5 127.5t107.5 365.5zM1411 686q0 -326 -180 -518.5t-488 -192.5t-487.5 192.5t-179.5 518.5q0 325 179 511.5t488 186.5q310 0 489 -186.5t179 -511.5z
M879 1645h184q-20 -224 -326 -224q-302 0 -319 224h184q6 -46 38 -67.5t99 -21.5t100.5 21.5t39.5 67.5z" />
    <glyph glyph-name="obreve" unicode="&#x14f;" horiz-adv-x="1110" 
d="M317 500q0 -152 64 -238t174 -86t174 86t64 238q0 154 -64 239.5t-174 85.5t-174 -85.5t-64 -239.5zM51 500q0 131 41 233.5t111.5 165t160 95t191.5 32.5t191.5 -32.5t160 -95t111.5 -165t41 -233.5t-41 -233.5t-111.5 -165t-160 -94.5t-191.5 -32t-191.5 32t-160 94.5
t-111.5 165t-41 233.5zM883 1360q-23 -256 -326 -256q-153 0 -231.5 67t-87.5 189h184q6 -62 38 -91.5t99 -29.5t100 29.5t39 91.5h185z" />
    <glyph glyph-name="Ohungarumlaut" unicode="&#x150;" horiz-adv-x="1486" 
d="M1128 686q0 238 -106.5 359.5t-278.5 121.5q-171 0 -278 -121.5t-107 -359.5t108 -365.5t277 -127.5q170 0 277.5 127.5t107.5 365.5zM1411 686q0 -326 -180 -518.5t-488 -192.5t-487.5 192.5t-179.5 518.5q0 325 179 511.5t488 186.5q310 0 489 -186.5t179 -511.5z
M924 1645l-303 -215h-215l196 215h322zM1284 1645l-303 -215h-215l197 215h321z" />
    <glyph glyph-name="ohungarumlaut" unicode="&#x151;" horiz-adv-x="1110" 
d="M317 500q0 -152 64 -238t174 -86t174 86t64 238q0 154 -64 239.5t-174 85.5t-174 -85.5t-64 -239.5zM51 500q0 131 41 233.5t111.5 165t160 95t191.5 32.5t191.5 -32.5t160 -95t111.5 -165t41 -233.5t-41 -233.5t-111.5 -165t-160 -94.5t-191.5 -32t-191.5 32t-160 94.5
t-111.5 165t-41 233.5zM686 1360l-285 -242h-194l180 242h299zM1055 1360l-285 -242h-195l181 242h299z" />
    <glyph glyph-name="OE" unicode="&#x152;" horiz-adv-x="2156" 
d="M741 1384q211 0 365 -112v88h1005v-221h-733v-324h693v-221h-693v-373h733v-221h-1005v90q-153 -115 -365 -115q-307 0 -486 192.5t-179 518.5q0 325 178.5 511.5t486.5 186.5zM1126 686q0 238 -106.5 359.5t-278.5 121.5q-171 0 -278 -121.5t-107 -359.5t108 -365.5
t277 -127.5q170 0 277.5 127.5t107.5 365.5z" />
    <glyph glyph-name="oe" unicode="&#x153;" horiz-adv-x="1828" 
d="M51 500q0 130 42 232.5t113.5 165.5t160.5 95.5t188 32.5q112 0 206 -41.5t157 -122.5q135 164 368 164q157 0 272 -77.5t171 -214.5t47 -312h-738q3 -112 73 -179t179 -67q89 0 145 41t78 107l246 -33q-52 -150 -176.5 -233t-288.5 -83q-250 0 -379 158
q-131 -158 -360 -158q-99 0 -188 32.5t-160.5 95t-113.5 165t-42 232.5zM317 500q0 -152 64 -238t174 -86t174 86t64 238q0 154 -64 239.5t-174 85.5t-174 -85.5t-64 -239.5zM1280 836q-92 0 -164 -56t-82 -176h479q-7 116 -75.5 174t-157.5 58z" />
    <glyph glyph-name="Racute" unicode="&#x154;" horiz-adv-x="1267" 
d="M938 0l-283 539h-254v-539h-278v1360h418q341 0 492 -95.5t151 -312.5q0 -119 -63.5 -212t-190.5 -146l317 -594h-309zM586 1139h-185v-381h199q159 0 231 45.5t72 146.5q0 58 -22.5 96.5t-68 58t-98.5 27t-128 7.5zM946 1645l-303 -215h-215l197 215h321z" />
    <glyph glyph-name="racute" unicode="&#x155;" horiz-adv-x="720" 
d="M705 997v-247q-55 6 -109 6q-106 0 -160.5 -52t-54.5 -188v-516h-262v1004h258v-158q88 155 270 155q26 0 58 -4zM723 1360l-285 -242h-194l180 242h299z" />
    <glyph glyph-name="Rcommaaccent" unicode="&#x156;" horiz-adv-x="1267" 
d="M938 0l-283 539h-55h-199v-539h-278v1360h418q341 0 492 -95.5t151 -312.5q0 -119 -63.5 -212t-190.5 -146l317 -594h-309zM586 1139h-185v-381h199q159 0 231 45.5t72 146.5q0 58 -22.5 96.5t-68 58t-98.5 27t-128 7.5zM555 -258v190h201v-202l-84 -170h-123l74 182h-68
z" />
    <glyph glyph-name="rcommaaccent" unicode="&#x157;" horiz-adv-x="720" 
d="M705 997v-247q-55 6 -109 6q-106 0 -160.5 -52t-54.5 -188v-516h-262v1004h258v-158q88 155 270 155q26 0 58 -4zM147 -258v190h201v-202l-84 -170h-123l74 182h-68z" />
    <glyph glyph-name="Rcaron" unicode="&#x158;" horiz-adv-x="1267" 
d="M938 0l-283 539h-55h-199v-539h-278v1360h418q341 0 492 -95.5t151 -312.5q0 -119 -63.5 -212t-190.5 -146l317 -594h-309zM586 1139h-185v-381h199q159 0 231 45.5t72 146.5q0 58 -22.5 96.5t-68 58t-98.5 27t-128 7.5zM489 1430l-260 215h250l125 -95l131 95h248
l-266 -215h-228z" />
    <glyph glyph-name="rcaron" unicode="&#x159;" horiz-adv-x="720" 
d="M705 997v-247q-55 6 -109 6q-106 0 -160.5 -52t-54.5 -188v-516h-262v1004h258v-158q88 155 270 155q26 0 58 -4zM301 1118l-281 242h230l145 -105l146 105h229l-281 -242h-188z" />
    <glyph glyph-name="Sacute" unicode="&#x15a;" horiz-adv-x="1239" 
d="M84 995q0 79 31.5 145t84 110.5t121.5 75t142.5 44.5t148.5 14q219 0 374 -105t194 -296l-262 -35q-13 59 -44.5 102.5t-76.5 68t-95 36.5t-106 12q-58 0 -110 -15t-91 -53.5t-39 -94.5q0 -126 189 -166l180 -37q76 -15 135 -32.5t124 -50t107.5 -74t70.5 -106t28 -145.5
t-30 -150t-82 -118t-122 -83t-150 -50.5t-167 -16.5q-253 0 -408 121.5t-188 329.5l262 35q56 -268 340 -268q51 0 96 9t86 29t64.5 57.5t23.5 88.5q0 34 -12.5 60.5t-33 45.5t-54 34.5t-68.5 25.5t-83 20l-181 37q-86 18 -155.5 48t-125.5 76.5t-87 115.5t-31 155z
M956 1645l-303 -215h-215l197 215h321z" />
    <glyph glyph-name="sacute" unicode="&#x15b;" horiz-adv-x="1007" 
d="M946 719l-237 -33q-14 67 -77 109.5t-157 42.5q-73 0 -121.5 -25.5t-48.5 -67.5q0 -77 150 -108l118 -27q76 -17 124 -30t103 -37.5t86 -53.5t51.5 -75t20.5 -105q0 -104 -63 -181t-164 -115t-223 -38q-194 0 -322 93t-147 243l248 37q10 -78 71 -130t162 -52
q185 0 185 110q0 27 -12.5 46.5t-40.5 32.5t-52.5 20t-69.5 16l-133 29q-163 35 -248.5 105.5t-85.5 201.5q0 135 123 217t306 82q105 0 198.5 -31.5t165 -103t90.5 -172.5zM831 1360l-284 -242h-195l180 242h299z" />
    <glyph glyph-name="Scircumflex" unicode="&#x15c;" horiz-adv-x="1239" 
d="M84 995q0 79 31.5 145t84 110.5t121.5 75t142.5 44.5t148.5 14q219 0 374 -105t194 -296l-262 -35q-13 59 -44.5 102.5t-76.5 68t-95 36.5t-106 12q-58 0 -110 -15t-91 -53.5t-39 -94.5q0 -126 189 -166l180 -37q76 -15 135 -32.5t124 -50t107.5 -74t70.5 -106t28 -145.5
t-30 -150t-82 -118t-122 -83t-150 -50.5t-167 -16.5q-253 0 -408 121.5t-188 329.5l262 35q56 -268 340 -268q51 0 96 9t86 29t64.5 57.5t23.5 88.5q0 34 -12.5 60.5t-33 45.5t-54 34.5t-68.5 25.5t-83 20l-181 37q-86 18 -155.5 48t-125.5 76.5t-87 115.5t-31 155z
M733 1645l260 -215h-250l-125 94l-131 -94h-247l266 215h227z" />
    <glyph glyph-name="scircumflex" unicode="&#x15d;" horiz-adv-x="1007" 
d="M946 719l-237 -33q-14 67 -77 109.5t-157 42.5q-73 0 -121.5 -25.5t-48.5 -67.5q0 -77 150 -108l118 -27q76 -17 124 -30t103 -37.5t86 -53.5t51.5 -75t20.5 -105q0 -104 -63 -181t-164 -115t-223 -38q-194 0 -322 93t-147 243l248 37q10 -78 71 -130t162 -52
q185 0 185 110q0 27 -12.5 46.5t-40.5 32.5t-52.5 20t-69.5 16l-133 29q-163 35 -248.5 105.5t-85.5 201.5q0 135 123 217t306 82q105 0 198.5 -31.5t165 -103t90.5 -172.5zM602 1360l281 -242h-230l-145 105l-146 -105h-229l281 242h188z" />
    <glyph glyph-name="Scedilla" unicode="&#x15e;" horiz-adv-x="1239" 
d="M420 -336l33 86q54 -26 110 -26q107 0 107 55q0 26 -20.5 39.5t-55.5 13.5q-47 0 -74 -16l-57 32l82 134q-214 21 -343 138t-159 306l262 35q56 -268 340 -268q51 0 96 9t86 29t64.5 57.5t23.5 88.5q0 34 -12.5 60.5t-33 45.5t-54 34.5t-68.5 25.5t-83 20l-181 37
q-86 18 -155.5 48t-125.5 76.5t-87 115.5t-31 155q0 79 31.5 145t84 110.5t121.5 75t142.5 44.5t148.5 14q219 0 374 -105t194 -296l-262 -35q-13 59 -44.5 102.5t-76.5 68t-95 36.5t-106 12q-58 0 -110 -15t-91 -53.5t-39 -94.5q0 -126 189 -166l180 -37q76 -15 135 -32.5
t124 -50t107.5 -74t70.5 -106t28 -145.5q0 -101 -45.5 -182t-122.5 -131.5t-174.5 -77t-206.5 -27.5l-41 -67q34 6 76 6q63 -2 105 -37.5t42 -91.5q0 -72 -65.5 -114t-155.5 -42q-106 0 -182 35z" />
    <glyph glyph-name="scedilla" unicode="&#x15f;" horiz-adv-x="1007" 
d="M283 -336l32 86q54 -26 111 -26q106 0 106 55q0 26 -20 39.5t-55 13.5q-47 0 -74 -16l-57 32l84 136q-157 22 -256.5 109.5t-114.5 217.5l248 37q10 -78 71 -130t162 -52q185 0 185 110q0 27 -12.5 46.5t-40.5 32.5t-52.5 20t-69.5 16l-133 29q-163 35 -248.5 105.5
t-85.5 201.5q0 135 123 217t306 82q105 0 198.5 -31.5t165 -103t90.5 -172.5l-237 -33q-14 67 -77 109.5t-157 42.5q-73 0 -121.5 -25.5t-48.5 -67.5q0 -77 150 -108l118 -27q76 -17 124 -30t103 -37.5t86 -53.5t51.5 -75t20.5 -105q0 -104 -63 -181t-164 -115t-223 -38h-4
l-41 -67q35 6 76 6q63 -2 105 -37.5t42 -91.5q0 -72 -65.5 -114t-155.5 -42q-106 0 -182 35z" />
    <glyph glyph-name="Scaron" unicode="&#x160;" horiz-adv-x="1239" 
d="M84 995q0 79 31.5 145t84 110.5t121.5 75t142.5 44.5t148.5 14q219 0 374 -105t194 -296l-262 -35q-13 59 -44.5 102.5t-76.5 68t-95 36.5t-106 12q-58 0 -110 -15t-91 -53.5t-39 -94.5q0 -126 189 -166l180 -37q76 -15 135 -32.5t124 -50t107.5 -74t70.5 -106t28 -145.5
t-30 -150t-82 -118t-122 -83t-150 -50.5t-167 -16.5q-253 0 -408 121.5t-188 329.5l262 35q56 -268 340 -268q51 0 96 9t86 29t64.5 57.5t23.5 88.5q0 34 -12.5 60.5t-33 45.5t-54 34.5t-68.5 25.5t-83 20l-181 37q-86 18 -155.5 48t-125.5 76.5t-87 115.5t-31 155z
M506 1430l-260 215h250l125 -95l131 95h247l-266 -215h-227z" />
    <glyph glyph-name="scaron" unicode="&#x161;" horiz-adv-x="1007" 
d="M946 719l-237 -33q-14 67 -77 109.5t-157 42.5q-73 0 -121.5 -25.5t-48.5 -67.5q0 -77 150 -108l118 -27q76 -17 124 -30t103 -37.5t86 -53.5t51.5 -75t20.5 -105q0 -104 -63 -181t-164 -115t-223 -38q-194 0 -322 93t-147 243l248 37q10 -78 71 -130t162 -52
q185 0 185 110q0 27 -12.5 46.5t-40.5 32.5t-52.5 20t-69.5 16l-133 29q-163 35 -248.5 105.5t-85.5 201.5q0 135 123 217t306 82q105 0 198.5 -31.5t165 -103t90.5 -172.5zM406 1118l-281 242h229l146 -105l145 105h229l-280 -242h-188z" />
    <glyph glyph-name="Tcommaaccent" unicode="&#x162;" horiz-adv-x="1142" 
d="M434 0v1139h-424v221h1123v-221h-426v-1139h-82l-58 -92q35 6 76 6q63 -2 105.5 -37.5t42.5 -91.5q0 -72 -66 -114t-156 -42q-106 0 -182 35l33 86q54 -26 110 -26q107 0 107 55q0 26 -20.5 39.5t-55.5 13.5q-47 0 -74 -16l-57 32l94 152h-90z" />
    <glyph glyph-name="tcommaaccent" unicode="&#x163;" horiz-adv-x="679" 
d="M231 -336l33 86q54 -26 111 -26q106 0 106 55q0 26 -20 39.5t-55 13.5q-47 0 -74 -16l-58 32l95 154q-66 4 -107.5 21t-65 52t-32 81.5t-8.5 119.5v533h-146v195h146v299h262v-299h213v-195h-213v-481q0 -75 28.5 -100t100.5 -25h80v-203h-158l-57 -92q34 6 75 6
q63 -2 105.5 -37.5t42.5 -91.5q0 -72 -65.5 -114t-155.5 -42q-107 0 -183 35z" />
    <glyph glyph-name="Tcaron" unicode="&#x164;" horiz-adv-x="1142" 
d="M434 0v1139h-424v221h1123v-221h-426v-1139h-273zM451 1430l-261 215h250l125 -95l131 95h248l-266 -215h-227z" />
    <glyph glyph-name="tcaron" unicode="&#x165;" horiz-adv-x="806" 
d="M868 1360l-133 -324h-172l58 324h247zM156 1004v299h262v-299h213v-195h-213v-481q0 -75 28.5 -100t100.5 -25h80v-203h-193q-88 0 -142 13.5t-84.5 48.5t-41 84t-10.5 130v533h-146v195h146z" />
    <glyph glyph-name="Tbar" unicode="&#x166;" horiz-adv-x="1142" 
d="M434 0v586h-328v221h328v332h-424v221h1123v-221h-426v-332h325v-221h-325v-586h-273z" />
    <glyph glyph-name="tbar" unicode="&#x167;" horiz-adv-x="720" 
d="M176 1004v299h262v-299h213v-195h-213v-113h213v-194h-213v-174q0 -75 28.5 -100t100.5 -25h80v-203h-192q-88 0 -142 13.5t-85 48.5t-41.5 84t-10.5 130v226h-145v194h145v113h-145v195h145z" />
    <glyph glyph-name="Utilde" unicode="&#x168;" horiz-adv-x="1347" 
d="M102 1360h273v-778q0 -99 12 -165t43.5 -119.5t92.5 -79t153 -25.5q74 0 127 17.5t85.5 48.5t51.5 81.5t26 107t7 134.5v778h272v-776q0 -228 -59.5 -361t-181.5 -190.5t-328 -57.5t-329.5 57.5t-184 191t-60.5 360.5v776zM799 1583q78 0 94 78h178q-10 -60 -33.5 -105.5
t-50.5 -70.5t-61 -40.5t-61 -20.5t-54 -5q-51 0 -94 19.5t-77.5 39t-64.5 19.5q-76 0 -92 -78h-178q10 60 33.5 105.5t50.5 70.5t61 40.5t61 20.5t54 5q51 0 92 -19.5t75 -39t67 -19.5z" />
    <glyph glyph-name="utilde" unicode="&#x169;" horiz-adv-x="1128" 
d="M748 0v113q-44 -66 -121.5 -102t-171.5 -36q-186 0 -275 111q-76 91 -76 291v627h263v-578q0 -68 6.5 -109t27.5 -69q45 -62 138 -62q51 0 88.5 17.5t60.5 45.5t36.5 70t18.5 85t5 96v504h262v-1004h-262zM676 1276q81 0 96 84h180q-10 -64 -32.5 -111t-47.5 -71.5
t-59 -38.5t-58.5 -17.5t-54.5 -3.5q-52 0 -98 21t-83.5 42t-67.5 21q-80 0 -95 -84h-180q10 64 33 111t48 71.5t59.5 38.5t59 17.5t54.5 3.5q51 0 95 -21t80.5 -42t70.5 -21z" />
    <glyph glyph-name="Umacron" unicode="&#x16a;" horiz-adv-x="1347" 
d="M102 1360h273v-778q0 -99 12 -165t43.5 -119.5t92.5 -79t153 -25.5q74 0 127 17.5t85.5 48.5t51.5 81.5t26 107t7 134.5v778h272v-776q0 -228 -59.5 -361t-181.5 -190.5t-328 -57.5t-329.5 57.5t-184 191t-60.5 360.5v776zM973 1448h-596v180h596v-180z" />
    <glyph glyph-name="umacron" unicode="&#x16b;" horiz-adv-x="1128" 
d="M748 0v113q-44 -66 -121.5 -102t-171.5 -36q-186 0 -275 111q-76 91 -76 291v627h263v-578q0 -68 6.5 -109t27.5 -69q45 -62 138 -62q51 0 88.5 17.5t60.5 45.5t36.5 70t18.5 85t5 96v504h262v-1004h-262zM856 1143h-596v180h596v-180z" />
    <glyph glyph-name="Ubreve" unicode="&#x16c;" horiz-adv-x="1347" 
d="M102 1360h273v-778q0 -99 12 -165t43.5 -119.5t92.5 -79t153 -25.5q74 0 127 17.5t85.5 48.5t51.5 81.5t26 107t7 134.5v778h272v-776q0 -228 -59.5 -361t-181.5 -190.5t-328 -57.5t-329.5 57.5t-184 191t-60.5 360.5v776zM805 1645h184q-20 -224 -325 -224
q-303 0 -320 224h184q6 -46 38.5 -67.5t99.5 -21.5t100 21.5t39 67.5z" />
    <glyph glyph-name="ubreve" unicode="&#x16d;" horiz-adv-x="1128" 
d="M748 0v113q-44 -66 -121.5 -102t-171.5 -36q-186 0 -275 111q-76 91 -76 291v627h263v-578q0 -68 6.5 -109t27.5 -69q45 -62 138 -62q51 0 88.5 17.5t60.5 45.5t36.5 70t18.5 85t5 96v504h262v-1004h-262zM891 1360q-23 -256 -326 -256q-153 0 -231.5 67t-87.5 189h184
q6 -62 38 -91.5t99 -29.5t100.5 29.5t39.5 91.5h184z" />
    <glyph glyph-name="Uring" unicode="&#x16e;" horiz-adv-x="1347" 
d="M102 1360h273v-778q0 -99 12 -165t43.5 -119.5t92.5 -79t153 -25.5q74 0 127 17.5t85.5 48.5t51.5 81.5t26 107t7 134.5v778h272v-776q0 -228 -59.5 -361t-181.5 -190.5t-328 -57.5t-329.5 57.5t-184 191t-60.5 360.5v776zM672 1735q72 0 122 -46t50 -116t-49.5 -116
t-122.5 -46t-122.5 46t-49.5 116t50 116t122 46zM672 1655q-33 0 -57.5 -23.5t-24.5 -58.5q0 -34 24.5 -57t57.5 -23t57.5 23t24.5 57q0 35 -24.5 58.5t-57.5 23.5z" />
    <glyph glyph-name="uring" unicode="&#x16f;" horiz-adv-x="1128" 
d="M748 0v113q-44 -66 -121.5 -102t-171.5 -36q-186 0 -275 111q-76 91 -76 291v627h263v-578q0 -68 6.5 -109t27.5 -69q45 -62 138 -62q51 0 88.5 17.5t60.5 45.5t36.5 70t18.5 85t5 96v504h262v-1004h-262zM524 1454q75 0 128 -49t53 -121q0 -73 -52.5 -121.5
t-128.5 -48.5t-128 48.5t-52 121.5t52.5 121.5t127.5 48.5zM524 1362q-33 0 -55.5 -22.5t-22.5 -55.5t22.5 -54.5t55.5 -21.5t55.5 21.5t22.5 54.5t-22.5 55.5t-55.5 22.5z" />
    <glyph glyph-name="Uhungarumlaut" unicode="&#x170;" horiz-adv-x="1347" 
d="M102 1360h273v-778q0 -99 12 -165t43.5 -119.5t92.5 -79t153 -25.5q74 0 127 17.5t85.5 48.5t51.5 81.5t26 107t7 134.5v778h272v-776q0 -228 -59.5 -361t-181.5 -190.5t-328 -57.5t-329.5 57.5t-184 191t-60.5 360.5v776zM821 1645l-303 -215h-215l197 215h321z
M1182 1645l-303 -215h-215l196 215h322z" />
    <glyph glyph-name="uhungarumlaut" unicode="&#x171;" horiz-adv-x="1128" 
d="M748 0v113q-44 -66 -121.5 -102t-171.5 -36q-186 0 -275 111q-76 91 -76 291v627h263v-578q0 -68 6.5 -109t27.5 -69q45 -62 138 -62q51 0 88.5 17.5t60.5 45.5t36.5 70t18.5 85t5 96v504h262v-1004h-262zM666 1360l-285 -242h-195l181 242h299zM1034 1360l-284 -242
h-195l180 242h299z" />
    <glyph glyph-name="Uogonek" unicode="&#x172;" horiz-adv-x="1347" 
d="M102 1360h273v-778q0 -99 12 -165t43.5 -119.5t92.5 -79t153 -25.5q74 0 127 17.5t85.5 48.5t51.5 81.5t26 107t7 134.5v778h272v-776q0 -297 -101.5 -436t-330.5 -164q-68 -35 -103.5 -64.5t-35.5 -60.5q0 -64 84 -64q42 0 106 19v-156q-82 -20 -155 -20
q-112 0 -187.5 44t-75.5 132q0 49 27 93t74 75q-236 25 -340.5 164t-104.5 438v776z" />
    <glyph glyph-name="uogonek" unicode="&#x173;" horiz-adv-x="1128" 
d="M748 0v113q-44 -66 -121.5 -102t-171.5 -36q-186 0 -275 111q-76 91 -76 291v627h263v-578q0 -68 6.5 -109t27.5 -69q45 -62 138 -62q51 0 88.5 17.5t60.5 45.5t36.5 70t18.5 85t5 96v504h262v-1004q-87 -43 -126.5 -72.5t-39.5 -68.5q0 -64 84 -64q42 0 106 19v-156
q-82 -20 -155 -20q-112 0 -187.5 44t-75.5 132q0 56 36 105t96 81z" />
    <glyph glyph-name="Wcircumflex" unicode="&#x174;" horiz-adv-x="1675" 
d="M997 1360l211 -991l178 991h289l-307 -1360h-321l-209 987l-209 -987h-322l-307 1360h295l192 -985l193 985h317zM952 1645l260 -215h-249l-125 94l-131 -94h-248l266 215h227z" />
    <glyph glyph-name="wcircumflex" unicode="&#x175;" horiz-adv-x="1396" 
d="M563 1004l-160 -689l-118 689h-285l248 -1004h262l188 694l187 -694h262l250 1004h-285l-119 -687l-162 687h-268zM797 1360l280 -242h-229l-146 105l-145 -105h-229l280 242h189z" />
    <glyph glyph-name="Ycircumflex" unicode="&#x176;" horiz-adv-x="1236" 
d="M-20 1360h317l321 -578l328 578h311l-507 -848v-512h-273v516zM731 1645l260 -215h-250l-125 94l-131 -94h-247l266 215h227z" />
    <glyph glyph-name="ycircumflex" unicode="&#x177;" horiz-adv-x="958" 
d="M66 -354h110q66 0 112 6t86 24t67.5 42.5t56 71.5t52 101t54.5 140l354 973h-266l-217 -678l-213 678h-287l371 -1000l-10 -22q-34 -75 -68.5 -97t-103.5 -22h-98v-217zM569 1360l281 -242h-229l-146 105l-145 -105h-230l281 242h188z" />
    <glyph glyph-name="Ydieresis" unicode="&#x178;" horiz-adv-x="1236" 
d="M-20 1360h317l321 -578l328 578h311l-507 -848v-512h-273v516zM279 1645h219v-215h-219v215zM735 1645h219v-215h-219v215z" />
    <glyph glyph-name="Zacute" unicode="&#x179;" horiz-adv-x="1183" 
d="M1118 1360v-213l-743 -916h764v-231h-1102v213l745 915h-686v232h1022zM950 1645l-303 -215h-215l197 215h321z" />
    <glyph glyph-name="zacute" unicode="&#x17a;" horiz-adv-x="948" 
d="M41 195v-195h868v195h-555l539 614v195h-807v-195h494zM829 1360l-284 -242h-195l180 242h299z" />
    <glyph glyph-name="Zdotaccent" unicode="&#x17b;" horiz-adv-x="1183" 
d="M1118 1360v-213l-743 -916h764v-231h-1102v213l745 915h-686v232h1022zM479 1645h273v-215h-273v215z" />
    <glyph glyph-name="zdotaccent" unicode="&#x17c;" horiz-adv-x="948" 
d="M41 195v-195h868v195h-555l539 614v195h-807v-195h494zM387 1350h219v-226h-219v226z" />
    <glyph glyph-name="Zcaron" unicode="&#x17d;" horiz-adv-x="1183" 
d="M1118 1360v-213l-743 -916h764v-231h-1102v213l745 915h-686v232h1022zM496 1430l-260 215h249l125 -95l131 95h248l-266 -215h-227z" />
    <glyph glyph-name="zcaron" unicode="&#x17e;" horiz-adv-x="948" 
d="M41 195v-195h868v195h-555l539 614v195h-807v-195h494zM412 1118l-281 242h229l146 -105l145 105h230l-281 -242h-188z" />
    <glyph glyph-name="uni0186" unicode="&#x186;" horiz-adv-x="1406" 
d="M340 909l-262 45q26 91 77.5 168t126.5 136t179 92.5t227 33.5q305 0 474 -189t169 -521q0 -326 -174.5 -512.5t-476.5 -186.5q-236 0 -390 124t-200 329l258 49q34 -139 126.5 -211.5t217.5 -72.5q76 0 140 29t113.5 86.5t77.5 151t28 214.5q0 238 -101 365.5
t-258 127.5q-81 0 -147.5 -23t-123 -83t-81.5 -152z" />
    <glyph glyph-name="uni018F" unicode="&#x18f;" horiz-adv-x="1484" 
d="M94 807h1026q-10 174 -115 267t-255 93q-120 0 -212.5 -52t-131.5 -157l-273 62q61 171 225 267.5t385 96.5q308 0 487 -186.5t179 -511.5q0 -326 -179.5 -518.5t-486.5 -192.5q-140 0 -255 43t-194.5 120t-130 181t-67.5 228t-2 260zM743 193q162 0 265.5 100.5
t113.5 292.5h-747q3 -187 107.5 -290t260.5 -103z" />
    <glyph glyph-name="uni0190" unicode="&#x190;" horiz-adv-x="1159" 
d="M1114 221v-221h-543q-88 0 -164.5 13.5t-145 44t-116.5 76.5t-76 115.5t-28 156.5q0 67 17 120t48.5 89.5t64.5 59.5t77 44q-62 39 -109 118t-47 169q0 83 29.5 146.5t76.5 102t114.5 63t135 33.5t146.5 9h502v-221h-518q-98 0 -152.5 -40t-54.5 -120q0 -170 207 -170
h471v-221h-480q-128 0 -189 -43.5t-61 -138.5q0 -185 238 -185h557z" />
    <glyph glyph-name="uni019D" unicode="&#x19d;" horiz-adv-x="1409" 
d="M-14 -354v227h34q71 0 87 24t16 111v1352h362l529 -1024v1024h272v-1360h-362l-529 1024v-1036q0 -73 -7 -125t-24.5 -91t-42.5 -63t-65 -38t-87.5 -19.5t-115.5 -5.5h-67z" />
    <glyph glyph-name="uni019F" unicode="&#x19f;" horiz-adv-x="1486" 
d="M1409 686q0 -326 -179.5 -518.5t-486.5 -192.5t-486 192.5t-179 518.5q0 325 178.5 511.5t486.5 186.5t487 -186.5t179 -511.5zM743 193q150 0 253 101t126 292h-757q23 -192 125.5 -292.5t252.5 -100.5zM743 1167q-146 0 -247.5 -90.5t-128.5 -269.5h753
q-27 178 -128.5 269t-248.5 91z" />
    <glyph glyph-name="Ohorn" unicode="&#x1a0;" horiz-adv-x="1486" 
d="M1411 686q0 -326 -180 -518.5t-488 -192.5t-487.5 192.5t-179.5 518.5q0 325 179 511.5t488 186.5q214 0 394 -102q60 -37 114 -32t54 63q0 26 -10.5 52t-20.5 39l-10 13l198 41q47 -71 47 -147q0 -96 -55.5 -148.5t-157.5 -48.5q115 -176 115 -428zM1128 686
q0 238 -106.5 359.5t-278.5 121.5q-171 0 -278 -121.5t-107 -359.5t108 -365.5t277 -127.5q170 0 277.5 127.5t107.5 365.5z" />
    <glyph glyph-name="ohorn" unicode="&#x1a1;" horiz-adv-x="1112" 
d="M51 500q0 131 41 233.5t111.5 165t160 95t191.5 32.5q99 0 182 -29q18 -7 56.5 -24t62 -24t47.5 -7q86 0 86 72q0 27 -7.5 52.5t-15.5 37.5l-8 12l175 35q34 -73 34 -137q0 -89 -48 -143t-142 -60q82 -129 82 -311q0 -131 -41 -233.5t-111.5 -165t-160 -94.5t-191.5 -32
t-191.5 32t-160 94.5t-111.5 165t-41 233.5zM317 500q0 -152 64 -238t174 -86t174 86t64 238q0 154 -64 239.5t-174 85.5t-174 -85.5t-64 -239.5z" />
    <glyph glyph-name="Uhorn" unicode="&#x1af;" horiz-adv-x="1347" 
d="M102 1360h273v-778q0 -99 12 -165t43.5 -119.5t92.5 -79t153 -25.5q74 0 127 17.5t85.5 48.5t51.5 81.5t26 107t7 134.5v778h201q35 0 56 26t21 60q0 48 -32 102l176 49q5 -6 13 -17.5t21 -50.5t13 -83q0 -91 -58.5 -145.5t-138.5 -59.5v-657q0 -228 -59.5 -361
t-181.5 -190.5t-328 -57.5t-329.5 57.5t-184 191t-60.5 360.5v776z" />
    <glyph glyph-name="uhorn" unicode="&#x1b0;" horiz-adv-x="1128" 
d="M748 0v113q-44 -66 -121.5 -102t-171.5 -36q-186 0 -275 111q-76 91 -76 291v627h263v-578q0 -68 6.5 -109t27.5 -69q45 -62 138 -62q51 0 88.5 17.5t60.5 45.5t36.5 70t18.5 85t5 96v504h178q32 3 51.5 28.5t19.5 57.5q0 48 -32 102l176 49q5 -6 13 -17.5t21 -50.5
t13 -83q0 -86 -52 -139.5t-126 -63.5v-887h-262z" />
    <glyph glyph-name="uni01C4" unicode="&#x1c4;" horiz-adv-x="2455" 
d="M979 680q0 86 -16 155.5t-42.5 117t-68 82t-84 54.5t-98.5 31.5t-104 15t-109 3.5h-62v-918h62q61 0 109 3.5t104 15t98.5 31.5t84 54.5t68 82t42.5 117t16 155.5zM123 1360h348q139 0 251 -18t215.5 -64.5t173 -121.5t110.5 -195.5t41 -280.5t-41 -280.5t-110.5 -195.5
t-173 -121.5t-215.5 -64.5t-251 -18h-348v1360zM2390 1360v-213l-743 -916h763v-231h-1101v213l745 915h-686v232h1022zM1786 1430l-260 215h250l125 -95l131 95h247l-266 -215h-227z" />
    <glyph glyph-name="uni01C5" unicode="&#x1c5;" horiz-adv-x="2256" 
d="M979 680q0 86 -16 155.5t-42.5 117t-68 82t-84 54.5t-98.5 31.5t-104 15t-109 3.5h-62v-918h62q61 0 109 3.5t104 15t98.5 31.5t84 54.5t68 82t42.5 117t16 155.5zM123 1360h348q139 0 251 -18t215.5 -64.5t173 -121.5t110.5 -195.5t41 -280.5t-41 -280.5t-110.5 -195.5
t-173 -121.5t-215.5 -64.5t-251 -18h-348v1360zM1350 195v-195h868v195h-555l539 614v195h-807v-195h493zM1712 1118l-280 242h229l145 -105l146 105h229l-280 -242h-189z" />
    <glyph glyph-name="uni01C6" unicode="&#x1c6;" horiz-adv-x="2068" 
d="M1026 1360v-1360h-252l-2 106q-94 -131 -283 -131q-194 0 -316 142t-122 385q0 237 129 380.5t326 143.5q158 0 258 -115v449h262zM541 176q109 0 171 87.5t62 238.5q0 148 -62.5 235.5t-170.5 87.5q-105 0 -164.5 -89.5t-59.5 -235.5t59.5 -235t164.5 -89zM1161 0v195
l539 614h-494v195h807v-195l-538 -614h555v-195h-869zM1530 1118l-281 242h230l145 -105l145 105h230l-281 -242h-188z" />
    <glyph glyph-name="uni01C7" unicode="&#x1c7;" horiz-adv-x="1687" 
d="M395 1360v-1139h672v-221h-944v1360h272zM1102 0v227h28q103 0 132.5 22.5t29.5 108.5v1002h273v-1010q0 -204 -72.5 -277t-273.5 -73h-117z" />
    <glyph glyph-name="uni01C8" unicode="&#x1c8;" horiz-adv-x="1568" 
d="M395 1360v-1139h672v-221h-944v1360h272zM1186 -8v1012h262v-1016q0 -110 -14.5 -175t-55.5 -103.5t-100.5 -51t-161.5 -12.5h-67v211h34q71 0 87 24t16 111zM1186 1360h262v-244h-262v244z" />
    <glyph glyph-name="uni01C9" unicode="&#x1c9;" horiz-adv-x="1001" 
d="M381 1360v-1360h-262v1360h262zM618 -8v1012h263v-1016q0 -110 -14.5 -175t-55.5 -103.5t-100.5 -51t-161.5 -12.5h-68v211h35q70 0 86 23.5t16 111.5zM618 1360h263v-244h-263v244z" />
    <glyph glyph-name="uni01CA" unicode="&#x1ca;" horiz-adv-x="2029" 
d="M1286 0h-362l-529 1032v-1032h-272v1360h362l529 -1032v1032h272v-1360zM1444 0v227h29q103 0 132 22.5t29 108.5v1002h273v-1010q0 -204 -72.5 -277t-273.5 -73h-117z" />
    <glyph glyph-name="uni01CB" unicode="&#x1cb;" horiz-adv-x="1910" 
d="M1286 0h-362l-529 1032v-1032h-272v1360h362l529 -1032v1032h272v-1360zM1528 -8v1012h262v-1016q0 -110 -14.5 -175t-55.5 -103.5t-100.5 -51t-161.5 -12.5h-67v211h34q71 0 87 24t16 111zM1528 1360h262v-244h-262v244z" />
    <glyph glyph-name="uni01CC" unicode="&#x1cc;" horiz-adv-x="1636" 
d="M381 1004v-115q43 67 121.5 102t175.5 35q194 0 283 -117q71 -92 71 -284v-625h-262v567q0 135 -37 187q-45 61 -141 61q-62 0 -105 -23.5t-65.5 -68t-31.5 -95t-9 -116.5v-512h-262v1004h262zM1253 -8v1012h263v-1016q0 -110 -14.5 -175t-55.5 -103.5t-100.5 -51
t-161.5 -12.5h-68v211h35q71 0 86.5 23.5t15.5 111.5zM1253 1360h263v-244h-263v244z" />
    <glyph glyph-name="uni01F1" unicode="&#x1f1;" horiz-adv-x="2455" 
d="M979 680q0 86 -16 155.5t-42.5 117t-68 82t-84 54.5t-98.5 31.5t-104 15t-109 3.5h-62v-918h62q61 0 109 3.5t104 15t98.5 31.5t84 54.5t68 82t42.5 117t16 155.5zM123 1360h348q139 0 251 -18t215.5 -64.5t173 -121.5t110.5 -195.5t41 -280.5t-41 -280.5t-110.5 -195.5
t-173 -121.5t-215.5 -64.5t-251 -18h-348v1360zM2390 1360v-213l-743 -916h763v-231h-1101v213l745 915h-686v232h1022z" />
    <glyph glyph-name="uni01F2" unicode="&#x1f2;" horiz-adv-x="2256" 
d="M979 680q0 86 -16 155.5t-42.5 117t-68 82t-84 54.5t-98.5 31.5t-104 15t-109 3.5h-62v-918h62q61 0 109 3.5t104 15t98.5 31.5t84 54.5t68 82t42.5 117t16 155.5zM123 1360h348q139 0 251 -18t215.5 -64.5t173 -121.5t110.5 -195.5t41 -280.5t-41 -280.5t-110.5 -195.5
t-173 -121.5t-215.5 -64.5t-251 -18h-348v1360zM1350 195v-195h868v195h-555l539 614v195h-807v-195h493z" />
    <glyph glyph-name="uni01F3" unicode="&#x1f3;" horiz-adv-x="2068" 
d="M1026 1360v-1360h-252l-2 106q-94 -131 -283 -131q-194 0 -316 142t-122 385q0 237 129 380.5t326 143.5q158 0 258 -115v449h262zM541 176q109 0 171 87.5t62 238.5q0 148 -62.5 235.5t-170.5 87.5q-105 0 -164.5 -89.5t-59.5 -235.5t59.5 -235t164.5 -89zM1161 0v195
l539 614h-494v195h807v-195l-538 -614h555v-195h-869z" />
    <glyph glyph-name="Aringacute" unicode="&#x1fa;" horiz-adv-x="1304" 
d="M1034 1892l-274 -194q61 -48 61 -125q0 -70 -49.5 -116t-122.5 -46t-122.5 46t-49.5 116q0 59 39 104l197 215h321zM649 1655q-33 0 -57.5 -23.5t-24.5 -58.5q0 -34 24.5 -57t57.5 -23t57.5 23t24.5 57q0 35 -24.5 58.5t-57.5 23.5zM0 0l514 1360h274l517 -1360h-295
l-101 281h-532l-98 -281h-279zM643 1026l-186 -524h372z" />
    <glyph glyph-name="aringacute" unicode="&#x1fb;" horiz-adv-x="1073" 
d="M860 1589l-221 -205q36 -22 58 -59.5t22 -81.5q0 -73 -52 -121.5t-128 -48.5t-128.5 48.5t-52.5 121.5q0 49 39 109l164 237h299zM539 1321q-33 0 -55.5 -22.5t-22.5 -55.5t22.5 -54.5t55.5 -21.5t55 21.5t22 54.5t-22 55.5t-55 22.5zM94 698l242 -8q6 76 58.5 114
t140.5 38q90 0 136 -36.5t46 -121.5v-35l-185 -20q-135 -14 -226 -40.5t-152 -74.5q-95 -75 -95 -211q0 -134 100.5 -231t266.5 -97q116 0 191.5 32t125.5 102l7 -109h241q-20 161 -20 332q0 55 3 173.5t3 139.5q3 200 -101.5 293.5t-328.5 93.5q-208 0 -324 -92t-129 -242z
M723 408q0 -116 -68 -177t-170 -61q-74 0 -116.5 38.5t-42.5 96.5q0 60 51.5 95.5t167.5 48.5l178 20v-61z" />
    <glyph glyph-name="AEacute" unicode="&#x1fc;" horiz-adv-x="1884" 
d="M834 1360h1005v-221h-733v-324h692v-221h-692v-373h733v-221h-1005v281h-447l-182 -281h-287zM834 963l-302 -461h302v461zM1708 1645l-303 -215h-215l196 215h322z" />
    <glyph glyph-name="aeacute" unicode="&#x1fd;" horiz-adv-x="1757" 
d="M94 698l242 -8q9 73 61.5 112.5t137.5 39.5q90 0 136 -36.5t46 -121.5v-35l-185 -20q-134 -14 -225 -41.5t-153 -77.5q-95 -78 -95 -207q0 -134 100.5 -231t266.5 -97q259 0 391 185q129 -185 406 -185q158 0 286 82t179 234l-246 33q-23 -66 -77.5 -107t-145.5 -41
q-109 0 -179 67t-73 179h737q9 175 -47 312t-171 214.5t-272 77.5q-193 0 -325 -113q-94 119 -342 119q-208 0 -324 -92t-129 -242zM485 170q-74 0 -116.5 38.5t-42.5 96.5q0 60 51.5 95.5t167.5 48.5l178 20v-61q0 -116 -68 -177t-170 -61zM1442 604h-477q4 113 73 172.5
t170 59.5q41 0 79 -12.5t73 -38t57 -72.5t25 -109zM1196 1360l-285 -242h-194l180 242h299z" />
    <glyph glyph-name="Oslashacute" unicode="&#x1fe;" horiz-adv-x="1482" 
d="M1374 1311l-121 -142q154 -187 154 -483q0 -326 -179.5 -518.5t-486.5 -192.5q-237 0 -403 119l-115 -133l-104 90l117 137q-160 193 -160 498q0 325 178.5 511.5t486.5 186.5q242 0 410 -120l117 135zM356 686q0 -170 58 -289l577 678q-103 92 -250 92
q-171 0 -278 -121.5t-107 -359.5zM1126 686q0 156 -53 272l-575 -675q101 -90 243 -90q170 0 277.5 127.5t107.5 365.5zM1110 1645l-303 -215h-215l196 215h322z" />
    <glyph glyph-name="oslashacute" unicode="&#x1ff;" horiz-adv-x="1114" 
d="M49 16l115 134q-111 137 -111 350q0 130 42 232.5t113.5 165.5t160.5 95.5t188 32.5q163 0 293 -86l108 125l95 -82l-111 -127q119 -139 119 -356q0 -130 -42 -232.5t-113.5 -165t-160.5 -95t-188 -32.5q-173 0 -301 91l-115 -134zM795 500q0 85 -23 159l-369 -423
q63 -60 154 -60q110 0 174 86t64 238zM319 500q0 -82 19 -150l364 420q-58 55 -145 55q-110 0 -174 -85.5t-64 -239.5zM907 1360l-284 -262h-195l180 262h299z" />
    <glyph glyph-name="Scommaaccent" unicode="&#x218;" horiz-adv-x="1239" 
d="M84 995q0 79 31.5 145t84 110.5t121.5 75t142.5 44.5t148.5 14q219 0 374 -105t194 -296l-262 -35q-13 59 -44.5 102.5t-76.5 68t-95 36.5t-106 12q-58 0 -110 -15t-91 -53.5t-39 -94.5q0 -126 189 -166l180 -37q76 -15 135 -32.5t124 -50t107.5 -74t70.5 -106t28 -145.5
t-30 -150t-82 -118t-122 -83t-150 -50.5t-167 -16.5q-253 0 -408 121.5t-188 329.5l262 35q56 -268 340 -268q51 0 96 9t86 29t64.5 57.5t23.5 88.5q0 34 -12.5 60.5t-33 45.5t-54 34.5t-68.5 25.5t-83 20l-181 37q-86 18 -155.5 48t-125.5 76.5t-87 115.5t-31 155z
M535 -258v190h200v-202l-84 -170h-123l74 182h-67z" />
    <glyph glyph-name="scommaaccent" unicode="&#x219;" horiz-adv-x="1007" 
d="M946 719l-237 -33q-14 67 -77 109.5t-157 42.5q-73 0 -121.5 -25.5t-48.5 -67.5q0 -77 150 -108l118 -27q76 -17 124 -30t103 -37.5t86 -53.5t51.5 -75t20.5 -105q0 -104 -63 -181t-164 -115t-223 -38q-194 0 -322 93t-147 243l248 37q10 -78 71 -130t162 -52
q185 0 185 110q0 27 -12.5 46.5t-40.5 32.5t-52.5 20t-69.5 16l-133 29q-163 35 -248.5 105.5t-85.5 201.5q0 135 123 217t306 82q105 0 198.5 -31.5t165 -103t90.5 -172.5zM401 -258v190h201v-202l-84 -170h-123l74 182h-68z" />
    <glyph glyph-name="uni021A" unicode="&#x21a;" horiz-adv-x="1142" 
d="M434 0v1139h-424v221h1123v-221h-426v-1139h-273zM473 -258v190h201v-202l-84 -170h-123l74 182h-68z" />
    <glyph glyph-name="uni021B" unicode="&#x21b;" horiz-adv-x="679" 
d="M156 1004v299h262v-299h213v-195h-213v-481q0 -75 28.5 -100t100.5 -25h80v-203h-193q-88 0 -142 13.5t-84.5 48.5t-41 84t-10.5 130v533h-146v195h146zM217 -258v190h201v-202l-84 -170h-123l74 182h-68z" />
    <glyph glyph-name="uni021C" unicode="&#x21c;" horiz-adv-x="1216" 
d="M53 -367l-18 230q99 6 175.5 13t168.5 20t159.5 30.5t135 45t110 62.5t69 84t26.5 109q0 222 -312 222q-37 0 -139 -13l-33 217q231 32 336 97t105 188q0 102 -75.5 165.5t-195.5 63.5q-118 0 -194 -66.5t-101 -191.5l-260 39q24 115 77.5 200.5t131 136t170 75
t203.5 24.5q78 0 152 -15t142.5 -48t119.5 -81t81.5 -119.5t30.5 -157.5q0 -228 -258 -375q154 -45 227.5 -145t73.5 -232q0 -546 -1108 -578z" />
    <glyph glyph-name="uni021D" unicode="&#x21d;" horiz-adv-x="1013" 
d="M25 -385l-15 203q684 37 684 282q0 30 -10.5 56.5t-35.5 53t-67.5 40.5t-106.5 18.5t-152 -12.5l-29 201q191 26 278.5 72.5t87.5 134.5q0 72 -57 116.5t-149 44.5q-98 0 -153.5 -38.5t-80.5 -122.5l-229 61q45 141 170 221t315 80q67 0 130 -12t121.5 -39.5t102 -67.5
t69.5 -100t26 -133q0 -97 -52.5 -167.5t-134.5 -111.5q113 -38 168.5 -117t55.5 -186q0 -151 -113 -256t-319.5 -159t-503.5 -62z" />
    <glyph glyph-name="uni0226" unicode="&#x226;" horiz-adv-x="1304" 
d="M0 0l514 1360h274l517 -1360h-295l-101 281h-532l-98 -281h-279zM643 1026l-186 -524h372zM512 1645h272v-215h-272v215z" />
    <glyph glyph-name="uni0227" unicode="&#x227;" horiz-adv-x="1073" 
d="M94 698l242 -8q6 76 58.5 114t140.5 38q90 0 136 -36.5t46 -121.5v-35l-185 -20q-135 -14 -226 -40.5t-152 -74.5q-95 -75 -95 -211q0 -134 100.5 -231t266.5 -97q116 0 191.5 32t125.5 102l7 -109h241q-20 161 -20 332q0 55 3 173.5t3 139.5q3 200 -101.5 293.5
t-328.5 93.5q-208 0 -324 -92t-129 -242zM723 408q0 -116 -68 -177t-170 -61q-74 0 -116.5 38.5t-42.5 96.5q0 60 51.5 95.5t167.5 48.5l178 20v-61zM430 1350h219v-226h-219v226z" />
    <glyph glyph-name="uni0232" unicode="&#x232;" horiz-adv-x="1236" 
d="M-20 1360h317l321 -578l328 578h311l-507 -848v-512h-273v516zM915 1448h-596v180h596v-180z" />
    <glyph glyph-name="uni0233" unicode="&#x233;" horiz-adv-x="958" 
d="M66 -354h110q66 0 112 6t86 24t67.5 42.5t56 71.5t52 101t54.5 140l354 973h-266l-217 -678l-213 678h-287l371 -1000l-10 -22q-34 -75 -68.5 -97t-103.5 -22h-98v-217zM762 1143h-596v180h596v-180z" />
    <glyph glyph-name="dotlessj" unicode="&#x237;" horiz-adv-x="550" 
d="M168 -8v1012h262v-1016q0 -86 -14.5 -146t-40.5 -98.5t-71 -60t-97.5 -29.5t-128.5 -8h-96v211h45q91 0 116 25t25 110z" />
    <glyph glyph-name="uni0254" unicode="&#x254;" horiz-adv-x="1075" 
d="M518 -25q-171 0 -299.5 88t-169.5 263l248 36q15 -81 71 -133.5t152 -52.5q108 0 173 83.5t65 240.5q0 156 -65.5 240.5t-172.5 84.5q-191 0 -229 -192l-250 35q30 121 105 203.5t170 118.5t208 36q234 0 367 -144t133 -380q0 -237 -135 -382t-371 -145z" />
    <glyph glyph-name="uni0259" unicode="&#x259;" horiz-adv-x="1107" 
d="M543 1026q164 0 282 -70.5t175 -187.5t57 -266q0 -230 -140 -378.5t-364 -148.5q-157 0 -273 77t-173.5 214t-49.5 312h740q-6 110 -75 178.5t-175 68.5q-176 0 -228 -147l-245 33q52 153 179.5 234t289.5 81zM553 166q93 0 163.5 54.5t80.5 172.5v2h-478q3 -78 40 -132
t87 -75.5t107 -21.5z" />
    <glyph glyph-name="uni025B" unicode="&#x25b;" horiz-adv-x="974" 
d="M920 195v-195h-484q-188 0 -289.5 71t-101.5 230q0 158 154 231q-56 33 -90.5 89.5t-34.5 126.5q0 76 32 128.5t91 79t125.5 37.5t152.5 11h428v-195h-411q-154 0 -154 -94q0 -99 164 -99h346v-194h-352q-185 0 -185 -115q0 -112 176 -112h433z" />
    <glyph glyph-name="uni0272" unicode="&#x272;" horiz-adv-x="1134" 
d="M119 -8v1012h262v-121q44 68 123 105.5t174 37.5q171 0 262.5 -101t91.5 -300v-625h-262v575q0 50 -7 88.5t-25 75t-55 56.5t-91 20q-51 0 -89.5 -16.5t-61 -43t-36.5 -67t-19 -82t-5 -94.5v-524q0 -110 -14.5 -175t-55.5 -103.5t-100.5 -51t-161.5 -12.5h-67v211h34
q71 0 87 24t16 111z" />
    <glyph glyph-name="uni0275" unicode="&#x275;" horiz-adv-x="1114" 
d="M53 500q0 130 42 232.5t113.5 165.5t160.5 95.5t188 32.5t188 -32.5t160.5 -95.5t113.5 -165.5t42 -232.5t-42 -232.5t-113.5 -165t-160.5 -95t-188 -32.5t-188 32.5t-160.5 95t-113.5 165t-42 232.5zM557 176q91 0 150.5 61t78.5 171h-460q19 -111 79 -171.5t152 -60.5z
M557 825q-91 0 -150.5 -58t-78.5 -165h458q-20 107 -80 165t-149 58z" />
    <glyph glyph-name="circumflex" unicode="&#x2c6;" horiz-adv-x="835" 
d="M514 1360l281 -242h-230l-145 105l-146 -105h-229l281 242h188z" />
    <glyph glyph-name="caron" unicode="&#x2c7;" horiz-adv-x="835" 
d="M322 1118l-281 242h229l146 -105l145 105h230l-281 -242h-188z" />
    <glyph glyph-name="breve" unicode="&#x2d8;" horiz-adv-x="727" 
d="M686 1360q-23 -256 -326 -256q-153 0 -231.5 67t-87.5 189h184q6 -62 38 -91.5t99 -29.5t100.5 29.5t39.5 91.5h184z" />
    <glyph glyph-name="dotaccent" unicode="&#x2d9;" horiz-adv-x="301" 
d="M41 1350h219v-226h-219v226z" />
    <glyph glyph-name="ring" unicode="&#x2da;" horiz-adv-x="442" 
d="M221 1454q75 0 127.5 -48.5t52.5 -121.5t-52 -121.5t-128 -48.5t-128 48.5t-52 121.5t52.5 121.5t127.5 48.5zM221 1362q-33 0 -55.5 -22.5t-22.5 -55.5t22.5 -54.5t55.5 -21.5t55.5 21.5t22.5 54.5t-22.5 55.5t-55.5 22.5z" />
    <glyph glyph-name="ogonek" unicode="&#x2db;" horiz-adv-x="499" 
d="M172 0h262q-87 -43 -126.5 -72.5t-39.5 -68.5q0 -64 84 -64q43 0 107 19v-156q-82 -20 -156 -20q-112 0 -187 44t-75 132q0 56 35.5 105.5t95.5 80.5z" />
    <glyph glyph-name="tilde" unicode="&#x2dc;" horiz-adv-x="858" 
d="M541 1276q81 0 96 84h180q-10 -64 -32.5 -111t-47.5 -71.5t-59 -38.5t-58.5 -17.5t-54.5 -3.5q-52 0 -98 21t-84 42t-68 21q-79 0 -94 -84h-180q10 64 33 111t48 71.5t59.5 38.5t59 17.5t54.5 3.5q51 0 95 -21t80.5 -42t70.5 -21z" />
    <glyph glyph-name="hungarumlaut" unicode="&#x2dd;" horiz-adv-x="929" 
d="M520 1360l-284 -242h-195l180 242h299zM889 1360l-285 -242h-194l180 242h299z" />
    <glyph glyph-name="uni032C" unicode="&#x32c;" horiz-adv-x="835" 
d="M342 -262l-301 262h229l146 -98l151 98h228l-308 -262h-145z" />
    <glyph glyph-name="pi" unicode="&#x3c0;" horiz-adv-x="1286" 
d="M461 0h-238v774h-162v230h1162v-230h-162v-444q0 -78 14.5 -99.5t77.5 -21.5h72v-209h-103q-91 0 -144.5 11.5t-90.5 45.5t-50.5 92t-13.5 156v469h-362v-774z" />
    <glyph glyph-name="Wgrave" unicode="&#x1e80;" horiz-adv-x="1675" 
d="M997 1360l211 -991l178 991h289l-307 -1360h-321l-209 987l-209 -987h-322l-307 1360h295l192 -985l193 985h317zM788 1430l-303 215h322l197 -215h-216z" />
    <glyph glyph-name="wgrave" unicode="&#x1e81;" horiz-adv-x="1396" 
d="M563 1004l-160 -689l-118 689h-285l248 -1004h262l188 694l187 -694h262l250 1004h-285l-119 -687l-162 687h-268zM612 1118l-284 242h299l180 -242h-195z" />
    <glyph glyph-name="Wacute" unicode="&#x1e82;" horiz-adv-x="1675" 
d="M997 1360l211 -991l178 991h289l-307 -1360h-321l-209 987l-209 -987h-322l-307 1360h295l192 -985l193 985h317zM1176 1645l-304 -215h-215l197 215h322z" />
    <glyph glyph-name="wacute" unicode="&#x1e83;" horiz-adv-x="1396" 
d="M563 1004l-160 -689l-118 689h-285l248 -1004h262l188 694l187 -694h262l250 1004h-285l-119 -687l-162 687h-268zM1071 1360l-285 -242h-194l180 242h299z" />
    <glyph glyph-name="Wdieresis" unicode="&#x1e84;" horiz-adv-x="1675" 
d="M997 1360l211 -991l178 991h289l-307 -1360h-321l-209 987l-209 -987h-322l-307 1360h295l192 -985l193 985h317zM496 1645h219v-215h-219v215zM952 1645h219v-215h-219v215z" />
    <glyph glyph-name="wdieresis" unicode="&#x1e85;" horiz-adv-x="1396" 
d="M563 1004l-160 -689l-118 689h-285l248 -1004h262l188 694l187 -694h262l250 1004h-285l-119 -687l-162 687h-268zM365 1124v226h219v-226h-219zM821 1350h219v-226h-219v226z" />
    <glyph glyph-name="uni1EA0" unicode="&#x1ea0;" horiz-adv-x="1304" 
d="M0 0l514 1360h274l517 -1360h-295l-101 281h-532l-98 -281h-279zM643 1026l-186 -524h372zM532 -80h220v-225h-220v225z" />
    <glyph glyph-name="uni1EA1" unicode="&#x1ea1;" horiz-adv-x="1073" 
d="M336 690l-242 8q13 150 129 242t324 92q224 0 328.5 -93.5t101.5 -293.5q0 -21 -3 -139.5t-3 -173.5q0 -171 20 -332h-241l-7 109q-50 -70 -125.5 -102t-191.5 -32q-166 0 -266.5 97t-100.5 231q0 136 95 211q61 48 152 74.5t226 40.5l185 20v35q0 85 -46 121.5
t-136 36.5q-88 0 -140.5 -38t-58.5 -114zM723 408v61l-178 -20q-116 -13 -167.5 -48.5t-51.5 -95.5q0 -58 42.5 -96.5t116.5 -38.5q102 0 170 61t68 177zM424 -80h219v-225h-219v225z" />
    <glyph glyph-name="uni1EB8" unicode="&#x1eb8;" horiz-adv-x="1173" 
d="M123 0v1360h1005v-221h-733v-332h692v-221h-692v-365h733v-221h-1005zM514 -80h219v-225h-219v225z" />
    <glyph glyph-name="uni1EB9" unicode="&#x1eb9;" horiz-adv-x="1112" 
d="M565 -25q-165 0 -283 71.5t-174.5 189t-56.5 266.5q0 232 139 378t369 146q245 0 378.5 -163.5t121.5 -440.5h-748q4 -110 73.5 -178t176.5 -68q93 0 153 41t83 107l245 -33q-15 -44 -40 -86.5t-66.5 -85t-93 -74t-123.5 -51t-154 -19.5zM553 836q-95 0 -165.5 -57
t-76.5 -175h486q-2 60 -24 106t-57.5 72.5t-76.5 40t-86 13.5zM436 -80h219v-225h-219v225z" />
    <glyph glyph-name="uni1ECA" unicode="&#x1eca;" horiz-adv-x="518" 
d="M395 1360v-1360h-272v1360h272zM150 -80h219v-225h-219v225z" />
    <glyph glyph-name="uni1ECB" unicode="&#x1ecb;" horiz-adv-x="499" 
d="M119 1004h262v-1004h-262v1004zM119 1360h262v-244h-262v244zM137 -80h219v-225h-219v225z" />
    <glyph glyph-name="uni1ECC" unicode="&#x1ecc;" horiz-adv-x="1486" 
d="M1128 686q0 238 -106.5 359.5t-278.5 121.5q-171 0 -278 -121.5t-107 -359.5t108 -365.5t277 -127.5q170 0 277.5 127.5t107.5 365.5zM1411 686q0 -326 -180 -518.5t-488 -192.5t-487.5 192.5t-179.5 518.5q0 325 179 511.5t488 186.5q310 0 489 -186.5t179 -511.5z
M629 -80h219v-225h-219v225z" />
    <glyph glyph-name="uni1ECD" unicode="&#x1ecd;" horiz-adv-x="1114" 
d="M319 500q0 -152 64 -238t174 -86t174 86t64 238q0 154 -64 239.5t-174 85.5t-174 -85.5t-64 -239.5zM53 500q0 131 41 233.5t111.5 165t160 95t191.5 32.5t191.5 -32.5t160 -95t111.5 -165t41 -233.5t-41 -233.5t-111.5 -165t-160 -94.5t-191.5 -32t-191.5 32t-160 94.5
t-111.5 165t-41 233.5zM440 -80h219v-225h-219v225z" />
    <glyph glyph-name="uni1EE4" unicode="&#x1ee4;" horiz-adv-x="1347" 
d="M102 1360h273v-778q0 -99 12 -165t43.5 -119.5t92.5 -79t153 -25.5q74 0 127 17.5t85.5 48.5t51.5 81.5t26 107t7 134.5v778h272v-776q0 -228 -59.5 -361t-181.5 -190.5t-328 -57.5t-329.5 57.5t-184 191t-60.5 360.5v776zM553 -80h219v-225h-219v225z" />
    <glyph glyph-name="uni1EE5" unicode="&#x1ee5;" horiz-adv-x="1128" 
d="M748 0v113q-44 -66 -121.5 -102t-171.5 -36q-186 0 -275 111q-76 91 -76 291v627h263v-578q0 -68 6.5 -109t27.5 -69q45 -62 138 -62q51 0 88.5 17.5t60.5 45.5t36.5 70t18.5 85t5 96v504h262v-1004h-262zM446 -80h220v-225h-220v225z" />
    <glyph glyph-name="Ygrave" unicode="&#x1ef2;" horiz-adv-x="1236" 
d="M-20 1360h317l321 -578l328 578h311l-507 -848v-512h-273v516zM569 1430l-303 215h322l196 -215h-215z" />
    <glyph glyph-name="ygrave" unicode="&#x1ef3;" horiz-adv-x="958" 
d="M66 -354h110q66 0 112 6t86 24t67.5 42.5t56 71.5t52 101t54.5 140l354 973h-266l-217 -678l-213 678h-287l371 -1000l-10 -22q-34 -75 -68.5 -97t-103.5 -22h-98v-217zM381 1118l-285 242h299l180 -242h-194z" />
    <glyph glyph-name="endash" unicode="&#x2013;" horiz-adv-x="974" 
d="M913 393h-852v230h852v-230z" />
    <glyph glyph-name="emdash" unicode="&#x2014;" horiz-adv-x="1386" 
d="M1325 393h-1264v230h1264v-230z" />
    <glyph glyph-name="quoteleft" unicode="&#x2018;" horiz-adv-x="487" 
d="M391 1051v-281h-295v301l158 289h149l-141 -309h129z" />
    <glyph glyph-name="quoteright" unicode="&#x2019;" horiz-adv-x="487" 
d="M96 1079v281h295v-301l-158 -289h-149l141 309h-129z" />
    <glyph glyph-name="quotesinglbase" unicode="&#x201a;" horiz-adv-x="487" 
d="M96 0v285h295v-305l-158 -304h-149l141 324h-129z" />
    <glyph glyph-name="quotedblleft" unicode="&#x201c;" horiz-adv-x="872" 
d="M776 1051v-281h-295v301l158 289h149l-141 -309h129zM391 1051v-281h-295v301l158 289h149l-141 -309h129z" />
    <glyph glyph-name="quotedblright" unicode="&#x201d;" horiz-adv-x="872" 
d="M96 1079v281h295v-301l-158 -289h-149l141 309h-129zM481 1079v281h295v-301l-158 -289h-149l141 309h-129z" />
    <glyph glyph-name="quotedblbase" unicode="&#x201e;" horiz-adv-x="876" 
d="M96 0v285h295v-305l-158 -304h-149l141 324h-129zM485 0v285h295v-305l-157 -304h-150l141 324h-129z" />
    <glyph glyph-name="dagger" unicode="&#x2020;" horiz-adv-x="1140" 
d="M690 0h-237v756h-412v229h412v375h237v-375h410v-229h-410v-756z" />
    <glyph glyph-name="daggerdbl" unicode="&#x2021;" horiz-adv-x="1140" 
d="M690 573h410v-229h-410v-344h-237v344h-412v229h412v224h-412v229h412v334h237v-334h410v-229h-410v-224z" />
    <glyph glyph-name="bullet" unicode="&#x2022;" horiz-adv-x="849" 
d="M82 530q0 139 99 238.5t237 99.5q148 0 249 -98.5t101 -239.5q0 -148 -100.5 -248t-249.5 -100q-139 0 -237.5 100.5t-98.5 247.5z" />
    <glyph glyph-name="ellipsis" unicode="&#x2026;" horiz-adv-x="1601" 
d="M96 0v285h283v-285h-283zM659 0v285h283v-285h-283zM1223 0v285h282v-285h-282z" />
    <glyph glyph-name="perthousand" unicode="&#x2030;" horiz-adv-x="2510" 
d="M369 569q-160 0 -244 107t-84 297q0 188 84 294.5t244 106.5t243.5 -106.5t83.5 -294.5q0 -190 -83.5 -297t-243.5 -107zM369 709q139 0 139 264q0 136 -35 199t-104 63q-140 0 -140 -262q0 -264 140 -264zM274 0h271l952 1360h-270zM1403 -14q-160 0 -244 107t-84 296
q0 188 84 295t244 107t244 -107t84 -295q0 -189 -84 -296t-244 -107zM1403 125q139 0 139 264q0 136 -35 199t-104 63t-104 -63t-35 -199q0 -264 139 -264zM2142 -14q-160 0 -243.5 106.5t-83.5 296.5q0 188 83.5 295t243.5 107t244 -107t84 -295q0 -189 -84 -296t-244 -107
zM2142 125q139 0 139 264q0 136 -35 199t-104 63t-104 -63t-35 -199q0 -264 139 -264z" />
    <glyph glyph-name="guilsinglleft" unicode="&#x2039;" horiz-adv-x="602" 
d="M324 61l-304 439l304 436h237l-237 -436l237 -439h-237z" />
    <glyph glyph-name="guilsinglright" unicode="&#x203a;" horiz-adv-x="600" 
d="M580 500l-304 -439h-235l235 439l-235 436h235z" />
    <glyph glyph-name="fraction" unicode="&#x2044;" horiz-adv-x="296" 
d="M-193 0h-270l952 1360h271z" />
    <glyph glyph-name="zero.superior" unicode="&#x2070;" horiz-adv-x="765" 
d="M383 819q-160 0 -244 107t-84 297q0 188 84 294.5t244 106.5t244 -106.5t84 -294.5q0 -190 -84 -297t-244 -107zM383 958q139 0 139 265q0 136 -35 199t-104 63t-104 -63t-35 -199q0 -265 139 -265z" />
    <glyph glyph-name="four.superior" unicode="&#x2074;" horiz-adv-x="749" 
d="M410 1382l-189 -227h189v227zM721 1155v-158h-127v-163h-184v163h-377v144l393 469h168v-455h127z" />
    <glyph glyph-name="five.superior" unicode="&#x2075;" horiz-adv-x="733" 
d="M362 958q60 0 96 35.5t36 96.5q0 63 -36.5 99t-92.5 36q-46 0 -79.5 -19t-47.5 -49l-166 12l55 441h512v-156h-358l-21 -137q58 49 164 49q110 0 184 -73.5t74 -200.5q0 -128 -87 -200.5t-226 -72.5q-133 0 -218.5 68t-99.5 178l174 25q10 -59 44 -95.5t93 -36.5z" />
    <glyph glyph-name="six.superior" unicode="&#x2076;" horiz-adv-x="727" 
d="M242 1090q0 -60 35.5 -96t89.5 -36q53 0 87.5 35.5t34.5 96.5q0 59 -35 94t-87 35q-54 0 -89.5 -35t-35.5 -94zM375 1485q-64 0 -103 -52t-39 -143q59 68 181 68q107 0 184.5 -71t77.5 -197q0 -125 -85.5 -198t-223.5 -73q-155 0 -236.5 104.5t-81.5 280.5
q0 89 19.5 163.5t59.5 132.5t105.5 91t151.5 33q127 0 198 -64t76 -157l-174 -2q-6 40 -36 62t-74 22z" />
    <glyph glyph-name="seven.superior" unicode="&#x2077;" horiz-adv-x="628" 
d="M23 1454v156h604v-152q-109 -92 -175.5 -179t-103.5 -197.5t-39 -247.5h-200q1 187 93 346.5t234 273.5h-413z" />
    <glyph glyph-name="eight.superior" unicode="&#x2078;" horiz-adv-x="727" 
d="M365 1624q132 0 210 -59.5t78 -147.5q0 -109 -86 -168q111 -67 111 -190q0 -108 -87.5 -174t-225.5 -66t-226 66t-88 174q0 123 111 190q-41 28 -63.5 72.5t-22.5 95.5q0 88 78.5 147.5t210.5 59.5zM365 1178q-58 0 -92.5 -30.5t-34.5 -78.5q0 -51 34.5 -81t92.5 -30
t92.5 30t34.5 81q0 48 -34.5 78.5t-92.5 30.5zM473 1395q0 40 -29.5 65t-78.5 25t-79 -25t-30 -65q0 -41 30 -68t79 -27t78.5 27t29.5 68z" />
    <glyph glyph-name="nine.superior" unicode="&#x2079;" horiz-adv-x="722" 
d="M483 1354q0 60 -35.5 95.5t-89.5 35.5t-88 -35t-34 -96q0 -59 35 -94t87 -35q54 0 89.5 35t35.5 94zM350 958q64 0 103 52t39 143q-62 -68 -179 -68q-109 0 -187.5 71t-78.5 196t85 198.5t220 73.5q162 0 242 -103t80 -282q0 -89 -19 -163.5t-58 -133t-104 -91
t-151 -32.5q-127 0 -199 64t-77 157l172 2q6 -40 37 -62t75 -22z" />
    <glyph glyph-name="plus.superior" unicode="&#x207a;" horiz-adv-x="724" 
d="M451 834h-177v210h-221v160h221v209h177v-209h221v-160h-221v-210z" />
    <glyph glyph-name="minus.superior" unicode="&#x207b;" horiz-adv-x="712" 
d="M53 1204h609v-160h-609v160z" />
    <glyph glyph-name="equal.superior" unicode="&#x207c;" horiz-adv-x="710" 
d="M645 1165h-579v160h579v-160zM645 924h-579v159h579v-159z" />
    <glyph glyph-name="parenleft.superior" unicode="&#x207d;" horiz-adv-x="378" 
d="M45 1122q0 141 46 272t106 216h176q-62 -100 -102 -229.5t-40 -258.5t40 -260t102 -231h-176q-59 84 -105.5 217.5t-46.5 273.5z" />
    <glyph glyph-name="parenright.superior" unicode="&#x207e;" horiz-adv-x="378" 
d="M332 1122q0 -140 -46 -274t-104 -217h-176q62 99 101.5 230.5t39.5 260.5t-39.5 258.5t-101.5 229.5h176q59 -84 104.5 -215.5t45.5 -272.5z" />
    <glyph glyph-name="n.superior" unicode="&#x207f;" horiz-adv-x="706" 
d="M264 1407v-66q52 78 174 78q107 0 154 -59q45 -51 45 -174v-352h-184v315q0 70 -19 94q-23 29 -67 29q-103 0 -103 -146v-292h-182v573h182z" />
    <glyph glyph-name="zero.inferior" unicode="&#x2080;" horiz-adv-x="765" 
d="M383 -260q-160 0 -244 107t-84 296q0 188 84 295t244 107t244 -107t84 -295q0 -189 -84 -296t-244 -107zM383 -121q139 0 139 264q0 263 -139 263t-139 -263q0 -264 139 -264z" />
    <glyph glyph-name="one.inferior" unicode="&#x2081;" horiz-adv-x="464" 
d="M373 -246h-183v541h-172v129q97 3 142 25t71 83h142v-778z" />
    <glyph glyph-name="two.inferior" unicode="&#x2082;" horiz-adv-x="679" 
d="M352 545q122 0 199.5 -57t77.5 -162q0 -55 -23 -105.5t-76 -104.5t-105.5 -96.5t-145.5 -109.5h356v-156h-600v146q28 22 79.5 60.5t83 63t74 59t69 61t52 57t37.5 58.5t12 54q0 46 -28 70.5t-72 24.5q-53 0 -88.5 -37.5t-36.5 -112.5h-176q0 133 84 210t227 77z" />
    <glyph glyph-name="three.inferior" unicode="&#x2083;" horiz-adv-x="724" 
d="M360 -121q57 0 91 26t34 70q0 105 -172 105h-32v145h30q74 0 114 25t40 72q0 40 -31 62t-76 22q-56 0 -91 -31.5t-42 -89.5l-176 20q18 112 100.5 176t223.5 64q120 0 199 -55.5t79 -155.5q0 -58 -29 -102.5t-75 -67.5q60 -23 93.5 -72.5t33.5 -114.5q0 -113 -90.5 -175
t-225.5 -62q-137 0 -221.5 72.5t-95.5 181.5l176 18q9 -64 45.5 -98.5t97.5 -34.5z" />
    <glyph glyph-name="four.inferior" unicode="&#x2084;" horiz-adv-x="749" 
d="M410 303l-189 -227h189v227zM721 76v-158h-127v-164h-184v164h-377v143l393 469h168v-454h127z" />
    <glyph glyph-name="five.inferior" unicode="&#x2085;" horiz-adv-x="733" 
d="M362 -121q60 0 96 35t36 96q0 63 -36.5 99t-92.5 36q-46 0 -79.5 -18.5t-47.5 -48.5l-166 12l55 440h512v-155h-358l-21 -137q58 49 164 49q110 0 184 -73.5t74 -201.5q0 -127 -87 -199.5t-226 -72.5q-133 0 -218.5 68t-99.5 178l174 24q10 -59 44 -95t93 -36z" />
    <glyph glyph-name="six.inferior" unicode="&#x2086;" horiz-adv-x="727" 
d="M242 10q0 -60 35.5 -95.5t89.5 -35.5q53 0 87.5 35t34.5 96q0 59 -35 94t-87 35q-54 0 -89.5 -35t-35.5 -94zM375 406q-64 0 -103 -52t-39 -143q59 68 181 68q107 0 184.5 -71t77.5 -198q0 -125 -85.5 -197.5t-223.5 -72.5q-155 0 -236.5 104.5t-81.5 280.5
q0 89 19.5 163.5t59.5 132.5t105.5 91t151.5 33q127 0 198 -64t76 -157l-174 -2q-6 40 -36 62t-74 22z" />
    <glyph glyph-name="seven.inferior" unicode="&#x2087;" horiz-adv-x="628" 
d="M23 375v155h604v-151q-109 -92 -175.5 -179.5t-103.5 -198t-39 -247.5h-200q1 97 27.5 190t73.5 171t103 142t123 118h-413z" />
    <glyph glyph-name="eight.inferior" unicode="&#x2088;" horiz-adv-x="727" 
d="M365 545q132 0 210 -59.5t78 -147.5q0 -109 -86 -168q111 -67 111 -190q0 -108 -87.5 -174t-225.5 -66t-226 66t-88 174q0 123 111 190q-41 28 -63.5 72.5t-22.5 95.5q0 88 78.5 147.5t210.5 59.5zM365 98q-58 0 -92.5 -30t-34.5 -78q0 -51 34.5 -81t92.5 -30t92.5 30
t34.5 81q0 48 -34.5 78t-92.5 30zM473 315q0 40 -29.5 65.5t-78.5 25.5t-79 -25.5t-30 -65.5t30 -67t79 -27t78.5 26.5t29.5 67.5z" />
    <glyph glyph-name="nine.inferior" unicode="&#x2089;" horiz-adv-x="722" 
d="M483 274q0 60 -35.5 96t-89.5 36t-88 -35t-34 -97q0 -59 35 -94t87 -35q54 0 89.5 35t35.5 94zM350 -121q64 0 103 52t39 143q-62 -68 -179 -68q-109 0 -187.5 70.5t-78.5 195.5t85 199t220 74q162 0 242 -103t80 -282q0 -89 -19 -163.5t-58 -133t-104 -91t-151 -32.5
q-127 0 -199 64t-77 157l172 2q6 -40 37 -62t75 -22z" />
    <glyph glyph-name="parenleft.inferior" unicode="&#x208d;" horiz-adv-x="378" 
d="M45 43q0 141 46 271.5t106 215.5h176q-62 -100 -102 -229t-40 -258t40 -261t102 -231h-176q-59 84 -105.5 218t-46.5 274z" />
    <glyph glyph-name="parenright.inferior" unicode="&#x208e;" horiz-adv-x="378" 
d="M332 43q0 -141 -46 -275t-104 -217h-176q62 99 101.5 231t39.5 261t-39.5 258t-101.5 229h176q59 -84 104.5 -215t45.5 -272z" />
    <glyph glyph-name="Euro" unicode="&#x20ac;" horiz-adv-x="1431" 
d="M717 465h-248q66 -289 336 -289q278 0 330 273l233 -3q-32 -226 -183.5 -348.5t-379.5 -122.5q-227 0 -376.5 128t-199.5 362h-249l102 156h129q-2 20 -2 63q0 39 2 59h-231l102 156h147q51 230 204.5 357.5t379.5 127.5q224 0 371 -125.5t176 -345.5l-234 -2
q-50 273 -321 273q-268 0 -338 -285h516l-102 -156h-435v-59v-63h373z" />
    <glyph glyph-name="afii61289" unicode="&#x2113;" horiz-adv-x="962" 
d="M217 334v12l-139 -104l-98 149l237 180v414q0 198 92 298.5t262 100.5q142 0 226 -80t84 -227q0 -48 -10.5 -92.5t-24 -79t-44.5 -74.5t-54.5 -66t-72.5 -67.5t-79.5 -65t-93.5 -71.5l-23 -18v-201q0 -89 30.5 -127.5t96.5 -38.5q84 0 176 70l95 -154
q-134 -117 -322 -117q-175 0 -256.5 82t-81.5 277zM479 1036v-264l8 6q85 64 123.5 131t38.5 168q0 60 -22.5 92.5t-61.5 32.5q-48 0 -67 -38t-19 -128z" />
    <glyph glyph-name="afii61352" unicode="&#x2116;" horiz-adv-x="2095" 
d="M1286 0h-362l-529 1024v-1024h-272v1360h362l529 -1024v1024h272v-1360zM2034 1038q0 -166 -88.5 -259t-243.5 -93t-243.5 93t-88.5 259q0 164 93 255t239 91q149 0 240.5 -88.5t91.5 -257.5zM1815 1038q0 83 -28.5 133t-84.5 50q-59 0 -87 -49.5t-28 -133.5
q0 -186 115 -186q57 0 85 51t28 135zM1382 393h641v230h-641v-230z" />
    <glyph glyph-name="trademark" unicode="&#x2122;" horiz-adv-x="1845" 
d="M270 600v569h-250v191h725v-191h-251v-569h-224zM1389 600h-199l-176 528v-528h-221v760h358l139 -488l158 488h336v-760h-221v533z" />
    <glyph glyph-name="Omega" unicode="&#x2126;" horiz-adv-x="1513" 
d="M758 1384q131 0 251.5 -39.5t215 -112.5t151 -187t56.5 -252q0 -178 -101 -317t-264 -200v-47h365v-229h-603v414q158 24 254.5 131t96.5 248q0 170 -115 280.5t-307 110.5q-194 0 -309 -110.5t-115 -280.5q0 -141 96 -248t254 -131v-414h-600v229h362v47
q-163 61 -263.5 200t-100.5 317q0 138 56.5 252t151.5 187t215.5 112.5t252.5 39.5z" />
    <glyph glyph-name="estimated" unicode="&#x212e;" horiz-adv-x="1103" 
d="M948 281h76q-49 -137 -165 -221.5t-294 -84.5q-124 0 -222.5 41t-161.5 113t-96.5 167t-33.5 206q0 232 138.5 378t365.5 146q116 0 211 -42t156 -114t94 -166t35 -200h-781v-361q45 -46 130 -75t180 -29q133 0 227 63.5t141 178.5zM270 864v-299h559v297
q-44 44 -116.5 72.5t-159.5 28.5q-88 0 -162.5 -26t-120.5 -73z" />
    <glyph glyph-name="onethird" unicode="&#x2153;" horiz-adv-x="1771" 
d="M545 584h-183v540h-172v129q96 3 141.5 25.5t71.5 83.5h142v-778zM545 0h-271l953 1360h270zM1405 125q57 0 91 26t34 70q0 105 -172 105h-33v145h31q74 0 113.5 24.5t39.5 71.5q0 40 -31 62t-75 22q-56 0 -91 -31.5t-42 -89.5l-176 21q18 112 100 176t223 64
q120 0 199.5 -55.5t79.5 -155.5q0 -58 -29 -102.5t-76 -67.5q60 -23 93.5 -72.5t33.5 -114.5q0 -113 -90 -175t-225 -62q-137 0 -222 72.5t-96 181.5l177 18q9 -64 45.5 -98.5t97.5 -34.5z" />
    <glyph glyph-name="twothirds" unicode="&#x2154;" horiz-adv-x="1771" 
d="M385 1374q122 0 199.5 -57t77.5 -162q0 -45 -18 -88t-44 -79t-76.5 -81.5t-94.5 -79.5t-118 -88h328v-155h-571v145q28 22 79.5 61t82.5 63t74.5 59t69.5 61.5t51.5 57t37.5 58.5t12 54q0 46 -27.5 70t-72.5 24q-53 0 -88.5 -37.5t-36.5 -112.5h-176q0 133 84 210t227 77
zM274 0h271l952 1360h-270zM1405 125q57 0 91 26t34 70q0 105 -172 105h-33v145h31q74 0 113.5 24.5t39.5 71.5q0 40 -31 62t-75 22q-56 0 -91 -31.5t-42 -89.5l-176 21q18 112 100 176t223 64q120 0 199.5 -55.5t79.5 -155.5q0 -58 -29 -102.5t-76 -67.5q60 -23 93.5 -72.5
t33.5 -114.5q0 -113 -90 -175t-225 -62q-137 0 -222 72.5t-96 181.5l177 18q9 -64 45.5 -98.5t97.5 -34.5z" />
    <glyph glyph-name="uni2155" unicode="&#x2155;" horiz-adv-x="1771" 
d="M545 584h-183v540h-172v129q96 3 141.5 25.5t71.5 83.5h142v-778zM545 0h-271l953 1360h270zM1399 125q60 0 95.5 35t35.5 96q0 63 -36.5 99t-92.5 36q-46 0 -79.5 -18.5t-47.5 -48.5l-166 12l55 440h512v-155h-358l-21 -138q58 49 164 49q110 0 184 -73.5t74 -200.5
t-87 -199.5t-226 -72.5q-133 0 -218.5 67.5t-99.5 177.5l175 25q10 -59 44 -95t93 -36z" />
    <glyph glyph-name="uni2156" unicode="&#x2156;" horiz-adv-x="1771" 
d="M385 1374q122 0 199.5 -57t77.5 -162q0 -45 -18 -88t-44 -79t-76.5 -81.5t-94.5 -79.5t-118 -88h328v-155h-571v145q28 22 79.5 61t82.5 63t74.5 59t69.5 61.5t51.5 57t37.5 58.5t12 54q0 46 -27.5 70t-72.5 24q-53 0 -88.5 -37.5t-36.5 -112.5h-176q0 133 84 210t227 77
zM274 0h271l952 1360h-270zM1399 125q60 0 95.5 35t35.5 96q0 63 -36.5 99t-92.5 36q-46 0 -79.5 -18.5t-47.5 -48.5l-166 12l55 440h512v-155h-358l-21 -138q58 49 164 49q110 0 184 -73.5t74 -200.5t-87 -199.5t-226 -72.5q-133 0 -218.5 67.5t-99.5 177.5l175 25
q10 -59 44 -95t93 -36z" />
    <glyph glyph-name="uni2157" unicode="&#x2157;" horiz-adv-x="1771" 
d="M371 709q57 0 91 26t34 70q0 104 -172 104h-33v146h31q74 0 113.5 24.5t39.5 71.5q0 40 -31 62t-75 22q-56 0 -91 -31.5t-42 -89.5l-177 21q18 112 100.5 175.5t223.5 63.5q120 0 199.5 -55.5t79.5 -155.5q0 -58 -29 -102.5t-76 -67.5q60 -23 93.5 -72t33.5 -114
q0 -113 -90 -175.5t-225 -62.5q-137 0 -222 72.5t-96 181.5l176 19q9 -64 46 -98.5t98 -34.5zM274 0h271l952 1360h-270zM1399 125q60 0 95.5 35t35.5 96q0 63 -36.5 99t-92.5 36q-46 0 -79.5 -18.5t-47.5 -48.5l-166 12l55 440h512v-155h-358l-21 -138q58 49 164 49
q110 0 184 -73.5t74 -200.5t-87 -199.5t-226 -72.5q-133 0 -218.5 67.5t-99.5 177.5l175 25q10 -59 44 -95t93 -36z" />
    <glyph glyph-name="uni2158" unicode="&#x2158;" horiz-adv-x="1771" 
d="M401 1133l-188 -228h188v228zM713 905v-157h-127v-164h-185v164h-376v143l393 469h168v-455h127zM545 0h-271l953 1360h270zM1399 125q60 0 95.5 35t35.5 96q0 63 -36.5 99t-92.5 36q-46 0 -79.5 -18.5t-47.5 -48.5l-166 12l55 440h512v-155h-358l-21 -138q58 49 164 49
q110 0 184 -73.5t74 -200.5t-87 -199.5t-226 -72.5q-133 0 -218.5 67.5t-99.5 177.5l175 25q10 -59 44 -95t93 -36z" />
    <glyph glyph-name="uni2159" unicode="&#x2159;" horiz-adv-x="1771" 
d="M545 584h-183v540h-172v129q96 3 141.5 25.5t71.5 83.5h142v-778zM545 0h-271l953 1360h270zM1282 256q0 -60 35.5 -95.5t89.5 -35.5q53 0 88 35t35 96q0 58 -35 93.5t-88 35.5q-54 0 -89.5 -35t-35.5 -94zM1415 651q-64 0 -102.5 -51.5t-38.5 -142.5q58 67 180 67
q107 0 184.5 -71t77.5 -197q0 -125 -85.5 -197.5t-223.5 -72.5q-155 0 -236 104.5t-81 280.5q0 120 33.5 212t110.5 150t191 58q126 0 198 -64.5t77 -157.5l-174 -2q-6 40 -36.5 62t-74.5 22z" />
    <glyph glyph-name="uni215A" unicode="&#x215a;" horiz-adv-x="1771" 
d="M365 709q60 0 95.5 35t35.5 96q0 63 -36.5 99t-92.5 36q-46 0 -79.5 -19t-47.5 -49l-166 13l55 440h512v-156h-358l-21 -137q58 49 164 49q110 0 184 -73.5t74 -200.5q0 -128 -87 -200.5t-226 -72.5q-133 0 -218.5 68t-99.5 178l174 25q10 -59 44.5 -95t93.5 -36zM274 0
h271l952 1360h-270zM1282 256q0 -60 35.5 -95.5t89.5 -35.5q53 0 88 35t35 96q0 58 -35 93.5t-88 35.5q-54 0 -89.5 -35t-35.5 -94zM1415 651q-64 0 -102.5 -51.5t-38.5 -142.5q58 67 180 67q107 0 184.5 -71t77.5 -197q0 -125 -85.5 -197.5t-223.5 -72.5q-155 0 -236 104.5
t-81 280.5q0 120 33.5 212t110.5 150t191 58q126 0 198 -64.5t77 -157.5l-174 -2q-6 40 -36.5 62t-74.5 22z" />
    <glyph glyph-name="oneeighth" unicode="&#x215b;" horiz-adv-x="1771" 
d="M545 584h-183v540h-172v129q96 3 141.5 25.5t71.5 83.5h142v-778zM545 0h-271l953 1360h270zM1403 791q132 0 210.5 -59.5t78.5 -147.5q0 -109 -86 -168q110 -66 110 -191q0 -108 -87.5 -173.5t-225.5 -65.5t-225.5 65.5t-87.5 173.5q0 125 110 191q-41 28 -63.5 72.5
t-22.5 95.5q0 88 78.5 147.5t210.5 59.5zM1403 344q-58 0 -92.5 -30t-34.5 -78q0 -51 34.5 -81t92.5 -30t92.5 30t34.5 81q0 48 -34.5 78t-92.5 30zM1511 561q0 40 -29.5 65t-78.5 25t-79 -25t-30 -65t30 -67t79 -27t78.5 26.5t29.5 67.5z" />
    <glyph glyph-name="threeeighths" unicode="&#x215c;" horiz-adv-x="1771" 
d="M371 709q57 0 91 26t34 70q0 104 -172 104h-33v146h31q74 0 113.5 24.5t39.5 71.5q0 40 -31 62t-75 22q-56 0 -91 -31.5t-42 -89.5l-177 21q18 112 100.5 175.5t223.5 63.5q120 0 199.5 -55.5t79.5 -155.5q0 -58 -29 -102.5t-76 -67.5q60 -23 93.5 -72t33.5 -114
q0 -113 -90 -175.5t-225 -62.5q-137 0 -222 72.5t-96 181.5l176 19q9 -64 46 -98.5t98 -34.5zM274 0h271l952 1360h-270zM1403 791q-132 0 -210.5 -59.5t-78.5 -147.5q0 -51 22.5 -95.5t63.5 -72.5q-110 -66 -110 -191q0 -108 87.5 -173.5t225.5 -65.5t225.5 65.5
t87.5 173.5q0 125 -110 191q86 59 86 168q0 88 -78.5 147.5t-210.5 59.5zM1403 344q58 0 92.5 -30t34.5 -78q0 -51 -34.5 -81t-92.5 -30t-92.5 30t-34.5 81q0 48 34.5 78t92.5 30zM1511 561q0 -41 -29.5 -67.5t-78.5 -26.5t-79 27t-30 67t30 65t79 25t78.5 -25t29.5 -65z
" />
    <glyph glyph-name="fiveeighths" unicode="&#x215d;" horiz-adv-x="1771" 
d="M365 709q60 0 95.5 35t35.5 96q0 63 -36.5 99t-92.5 36q-46 0 -79.5 -19t-47.5 -49l-166 13l55 440h512v-156h-358l-21 -137q58 49 164 49q110 0 184 -73.5t74 -200.5q0 -128 -87 -200.5t-226 -72.5q-133 0 -218.5 68t-99.5 178l174 25q10 -59 44.5 -95t93.5 -36zM274 0
h271l952 1360h-270zM1403 791q-132 0 -210.5 -59.5t-78.5 -147.5q0 -51 22.5 -95.5t63.5 -72.5q-110 -66 -110 -191q0 -108 87.5 -173.5t225.5 -65.5t225.5 65.5t87.5 173.5q0 125 -110 191q86 59 86 168q0 88 -78.5 147.5t-210.5 59.5zM1403 344q58 0 92.5 -30t34.5 -78
q0 -51 -34.5 -81t-92.5 -30t-92.5 30t-34.5 81q0 48 34.5 78t92.5 30zM1511 561q0 -41 -29.5 -67.5t-78.5 -26.5t-79 27t-30 67t30 65t79 25t78.5 -25t29.5 -65z" />
    <glyph glyph-name="seveneighths" unicode="&#x215e;" horiz-adv-x="1771" 
d="M66 1204v156h604v-152q-109 -92 -175.5 -179t-103.5 -197.5t-39 -247.5h-200q1 187 93 346.5t234 273.5h-413zM274 0h271l952 1360h-270zM1403 791q-132 0 -210.5 -59.5t-78.5 -147.5q0 -51 22.5 -95.5t63.5 -72.5q-110 -66 -110 -191q0 -108 87.5 -173.5t225.5 -65.5
t225.5 65.5t87.5 173.5q0 125 -110 191q86 59 86 168q0 88 -78.5 147.5t-210.5 59.5zM1403 344q58 0 92.5 -30t34.5 -78q0 -51 -34.5 -81t-92.5 -30t-92.5 30t-34.5 81q0 48 34.5 78t92.5 30zM1511 561q0 -41 -29.5 -67.5t-78.5 -26.5t-79 27t-30 67t30 65t79 25t78.5 -25
t29.5 -65z" />
    <glyph glyph-name="uni215F" unicode="&#x215f;" horiz-adv-x="1034" 
d="M545 584h-183v540h-172v129q96 3 141.5 25.5t71.5 83.5h142v-778zM545 0h-271l953 1360h270z" />
    <glyph glyph-name="uni2190" unicode="&#x2190;" horiz-adv-x="1536" 
d="M41 512l592 594l158 -164l-332 -319h1016v-230h-1008l324 -313l-158 -164z" />
    <glyph glyph-name="uni2191" unicode="&#x2191;" horiz-adv-x="1271" 
d="M635 1397l596 -596l-160 -156l-323 330v-975h-228v973l-321 -328l-158 156z" />
    <glyph glyph-name="uni2192" unicode="&#x2192;" horiz-adv-x="1536" 
d="M903 1106l592 -594l-592 -596l-158 164l324 313h-1008v230h1016l-332 319z" />
    <glyph glyph-name="uni2193" unicode="&#x2193;" horiz-adv-x="1271" 
d="M1231 547l-596 -594l-594 594l158 158l321 -330v973h228v-975l323 332z" />
    <glyph glyph-name="uni2196" unicode="&#x2196;" horiz-adv-x="1253" 
d="M119 1059h837v-221h-452l708 -715l-157 -158l-715 707v-453h-221v840z" />
    <glyph glyph-name="uni2197" unicode="&#x2197;" horiz-adv-x="1255" 
d="M297 1059h840v-840h-222v453l-712 -707l-162 158l709 715h-453v221z" />
    <glyph glyph-name="uni2198" unicode="&#x2198;" horiz-adv-x="1255" 
d="M1137 840v-840h-840v219h457l-713 715l162 162l712 -711v455h222z" />
    <glyph glyph-name="uni2199" unicode="&#x2199;" horiz-adv-x="1253" 
d="M119 0v840h221v-453l715 709l157 -162l-712 -715h456v-219h-837z" />
    <glyph glyph-name="uni219E" unicode="&#x219e;" horiz-adv-x="1597" 
d="M41 512l592 594l158 -164l-332 -319h180l483 483l158 -164l-332 -319h588v-230h-580l324 -313l-158 -164l-475 477h-180l324 -313l-158 -164z" />
    <glyph glyph-name="uni219F" unicode="&#x219f;" horiz-adv-x="1271" 
d="M635 1397l596 -596l-160 -156l-323 324v-164l483 -483l-160 -156l-323 323v-489h-228v487l-321 -321l-158 156l479 481v164l-321 -322l-158 156z" />
    <glyph glyph-name="uni21A0" unicode="&#x21a0;" horiz-adv-x="1597" 
d="M965 1106l591 -594l-591 -596l-158 164l323 313h-180l-475 -477l-158 164l324 313h-580v230h588l-332 319l158 164l483 -483h181l-332 319z" />
    <glyph glyph-name="uni21A1" unicode="&#x21a1;" horiz-adv-x="1271" 
d="M1231 547l-596 -594l-594 594l158 158l321 -324v166l-479 479l158 158l321 -324v500h228v-502l323 326l160 -158l-483 -481v-166l323 326z" />
    <glyph glyph-name="uni21A2" unicode="&#x21a2;" horiz-adv-x="1820" 
d="M41 512l594 594l158 -164l-332 -319h680l485 483l154 -164l-432 -430l432 -432l-154 -164l-477 477h-680l324 -313l-158 -164z" />
    <glyph glyph-name="uni21A3" unicode="&#x21a3;" horiz-adv-x="1820" 
d="M1186 1106l594 -594l-594 -596l-158 164l324 313h-680l-477 -477l-154 164l432 432l-432 430l154 164l485 -483h680l-332 319z" />
    <glyph glyph-name="uni21A4" unicode="&#x21a4;" horiz-adv-x="1593" 
d="M1475 1004v-1004h-238v393h-770l324 -313l-158 -164l-592 596l592 594l158 -164l-332 -319h778v381h238z" />
    <glyph glyph-name="uni21A5" unicode="&#x21a5;" horiz-adv-x="1271" 
d="M637 1397l594 -596l-164 -156l-317 330v-744h378v-231h-1003v231h397v742l-315 -328l-166 156z" />
    <glyph glyph-name="uni21A6" unicode="&#x21a6;" horiz-adv-x="1593" 
d="M119 0v1004h237v-381h779l-332 319l155 164l594 -594l-594 -596l-155 164l325 315h-772v-395h-237z" />
    <glyph glyph-name="uni21A7" unicode="&#x21a7;" horiz-adv-x="1271" 
d="M1231 547l-594 -594l-596 594l166 158l315 -328v751h-397v232h1003v-232h-378v-753l317 330z" />
    <glyph glyph-name="partialdiff" unicode="&#x2202;" horiz-adv-x="1153" 
d="M565 -25q-224 0 -370 133t-146 338q0 107 37.5 194t103 143.5t151.5 87t185 30.5q100 0 179 -36t126 -95l3 2q-11 179 -156.5 290t-384.5 120v202q191 1 345 -58t252 -161t150 -235t52 -285q0 -147 -31 -267t-93.5 -211t-165 -141.5t-237.5 -50.5zM815 438
q0 117 -71.5 189.5t-180.5 72.5q-108 0 -178 -72.5t-70 -189.5q0 -120 69.5 -191t178.5 -71t180.5 72t71.5 190z" />
    <glyph glyph-name="Delta" unicode="&#x2206;" horiz-adv-x="1318" 
d="M0 0l659 1405l660 -1405h-1319zM983 217l-324 682l-323 -682h647z" />
    <glyph glyph-name="product" unicode="&#x220f;" horiz-adv-x="1337" 
d="M356 -354h-237v1714h1100v-1714h-238v1484h-625v-1484z" />
    <glyph glyph-name="summation" unicode="&#x2211;" 
d="M41 -141l522 643l-514 643v213h1055v-230h-739l505 -626l-514 -627h748v-229h-1063v213z" />
    <glyph glyph-name="minus" unicode="&#x2212;" horiz-adv-x="1140" 
d="M61 623h1018v-230h-1018v230z" />
    <glyph glyph-name="radical" unicode="&#x221a;" horiz-adv-x="1085" 
d="M0 258l338 174l207 -440l282 1368h258l-368 -1714h-244l-244 485l-135 -72z" />
    <glyph glyph-name="infinity" unicode="&#x221e;" horiz-adv-x="1470" 
d="M1055 825q158 0 256 -91t98 -234q0 -146 -95.5 -237t-254.5 -91q-93 0 -170 43t-152 123q-77 -78 -153 -121t-170 -43q-158 0 -255.5 91t-97.5 235q0 143 98.5 234t256.5 91q170 0 319 -153q146 153 320 153zM416 393q51 0 93 28.5t87 80.5q-92 104 -176 104
q-54 0 -90.5 -29.5t-36.5 -74.5q0 -46 35 -77.5t88 -31.5zM1055 606q-50 0 -91.5 -28t-84.5 -76q45 -52 87 -80.5t93 -28.5q52 0 86.5 30.5t34.5 76.5t-35 76t-90 30z" />
    <glyph glyph-name="integral" unicode="&#x222b;" horiz-adv-x="681" 
d="M209 393v389q0 140 20 247.5t51.5 172.5t77.5 105.5t91.5 55.5t99.5 15q82 0 138 -43.5t56 -122.5q0 -52 -31 -84t-83 -32q-40 0 -72.5 28.5t-32.5 87.5q0 21 6 48q-77 -17 -77 -226q0 -47 10 -184.5t10 -308.5v-308q0 -595 -330 -595q-83 0 -143.5 43t-60.5 122
q0 51 31.5 84t82.5 33q40 0 72.5 -29t32.5 -86q0 -22 -6 -49q40 9 56.5 63.5t16.5 162.5q0 37 -8 176t-8 235z" />
    <glyph glyph-name="approxequal" unicode="&#x2248;" horiz-adv-x="1101" 
d="M739 770q56 0 87 30t32 101h203q-13 -356 -309 -356q-52 0 -107.5 20.5t-96 45t-92 45t-94.5 20.5q-56 0 -86.5 -30t-31.5 -101h-203q13 356 309 356q59 0 118.5 -20.5t99.5 -45t87 -45t84 -20.5zM739 381q56 0 87 30t32 101h203q-13 -356 -309 -356q-52 0 -107.5 20.5
t-96 45t-92 45t-94.5 20.5q-56 0 -86.5 -30t-31.5 -101h-203q13 356 309 356q59 0 118.5 -20.5t99.5 -45t87 -45t84 -20.5z" />
    <glyph glyph-name="notequal" unicode="&#x2260;" horiz-adv-x="1171" 
d="M295 188h-193v230h312l88 172h-400v229h519l124 240l193 -98l-74 -142h205v-229h-324l-88 -172h412v-230h-530l-140 -268l-192 98z" />
    <glyph glyph-name="lessequal" unicode="&#x2264;" horiz-adv-x="1222" 
d="M422 641l698 -149v-236l-1018 276v218l1018 276v-235zM102 0v229h1018v-229h-1018z" />
    <glyph glyph-name="greaterequal" unicode="&#x2265;" horiz-adv-x="1222" 
d="M801 641l-699 150v235l1018 -276v-218l-1018 -276v236zM1120 0h-1018v229h1018v-229z" />
    <glyph glyph-name="uni25A0" unicode="&#x25a0;" horiz-adv-x="1241" 
d="M119 0v1004h1003v-1004h-1003z" />
    <glyph glyph-name="uni25A1" unicode="&#x25a1;" horiz-adv-x="1241" 
d="M119 0v1004h1003v-1004h-1003zM244 881v-756h755v756h-755z" />
    <glyph glyph-name="lozenge" unicode="&#x25ca;" horiz-adv-x="1093" 
d="M555 1067l-279 -428l279 -428l276 428zM4 639l549 834l537 -834l-537 -836z" />
    <glyph glyph-name="uni25CB" unicode="&#x25cb;" horiz-adv-x="1163" 
d="M59 498q0 142 70 262.5t190.5 190t262.5 69.5q106 0 203 -41t167 -111t111 -167t41 -203q0 -142 -69.5 -262.5t-190 -190.5t-262.5 -70t-262.5 70t-190.5 190.5t-70 262.5zM582 94q166 0 280.5 117t114.5 287t-114.5 286.5t-280.5 116.5t-281 -116.5t-115 -286.5
q0 -167 115.5 -285.5t280.5 -118.5z" />
    <glyph glyph-name="uni25CF" unicode="&#x25cf;" horiz-adv-x="1163" 
d="M59 498q0 142 70 262.5t190.5 190t262.5 69.5q106 0 203 -41t167 -111t111 -167t41 -203q0 -142 -69.5 -262.5t-190 -190.5t-262.5 -70t-262.5 70t-190.5 190.5t-70 262.5z" />
    <glyph glyph-name="onesuperior" horiz-adv-x="464" 
d="M373 834h-183v540h-172v129q96 3 141.5 25.5t71.5 83.5h142v-778z" />
    <glyph glyph-name="threesuperior" horiz-adv-x="724" 
d="M360 958q57 0 91 26.5t34 70.5q0 104 -172 104h-32v146h30q74 0 114 24.5t40 71.5q0 40 -31 62t-76 22q-56 0 -91 -31.5t-42 -89.5l-176 20q18 112 100.5 176t223.5 64q120 0 199 -55.5t79 -155.5q0 -58 -29 -102.5t-75 -67.5q60 -23 93.5 -72t33.5 -114
q0 -113 -90.5 -175.5t-225.5 -62.5q-137 0 -221.5 72.5t-95.5 181.5l176 19q9 -64 45.5 -99t97.5 -35z" />
    <glyph glyph-name="twosuperior" horiz-adv-x="679" 
d="M352 1624q122 0 199.5 -57t77.5 -162q0 -55 -23 -105.5t-76 -104.5t-105.5 -96.5t-145.5 -109.5h356v-155h-600v145q28 22 79.5 61t82.5 63t74.5 59t69.5 61.5t51.5 57t37.5 58.5t12 54q0 46 -27.5 70t-72.5 24q-53 0 -88.5 -37.5t-36.5 -112.5h-176q0 133 84 210t227 77
z" />
    <glyph glyph-name="commaaccent" horiz-adv-x="288" 
d="M47 -258v190h201v-202l-84 -170h-123l74 182h-68z" />
    <glyph glyph-name="a.alt" 
d="M1026 1004v-1004h-252l-2 106q-94 -131 -283 -131q-194 0 -316 142t-122 385q0 237 129 380.5t326 143.5q158 0 258 -115v93h262zM541 176q109 0 171 87.5t62 238.5q0 148 -62.5 235.5t-170.5 87.5q-105 0 -164.5 -89.5t-59.5 -235.5t59.5 -235t164.5 -89z" />
    <glyph glyph-name="aacute.alt" 
d="M1026 0v1004h-262v-93q-100 115 -258 115q-197 0 -326 -143.5t-129 -380.5q0 -243 122 -385t316 -142q189 0 283 131l2 -106h252zM541 176q-105 0 -164.5 89t-59.5 235t59.5 235.5t164.5 89.5q108 0 170.5 -87.5t62.5 -235.5q0 -151 -62 -238.5t-171 -87.5zM883 1360
l-285 -242h-195l181 242h299z" />
    <glyph glyph-name="abreve.alt" 
d="M1026 0v1004h-262v-93q-100 115 -258 115q-197 0 -326 -143.5t-129 -380.5q0 -243 122 -385t316 -142q189 0 283 131l2 -106h252zM541 176q-105 0 -164.5 89t-59.5 235t59.5 235.5t164.5 89.5q108 0 170.5 -87.5t62.5 -235.5q0 -151 -62 -238.5t-171 -87.5zM901 1360
q-23 -256 -326 -256q-153 0 -231.5 67t-87.5 189h184q6 -62 38.5 -91.5t99.5 -29.5t100 29.5t39 91.5h184z" />
    <glyph glyph-name="acircumflex.alt" 
d="M1026 0v1004h-262v-93q-100 115 -258 115q-197 0 -326 -143.5t-129 -380.5q0 -243 122 -385t316 -142q189 0 283 131l2 -106h252zM541 176q-105 0 -164.5 89t-59.5 235t59.5 235.5t164.5 89.5q108 0 170.5 -87.5t62.5 -235.5q0 -151 -62 -238.5t-171 -87.5zM674 1360
l280 -242h-229l-145 105l-146 -105h-229l280 242h189z" />
    <glyph glyph-name="adieresis.alt" 
d="M1026 0v1004h-262v-93q-100 115 -258 115q-197 0 -326 -143.5t-129 -380.5q0 -243 122 -385t316 -142q189 0 283 131l2 -106h252zM541 176q-105 0 -164.5 89t-59.5 235t59.5 235.5t164.5 89.5q108 0 170.5 -87.5t62.5 -235.5q0 -151 -62 -238.5t-171 -87.5zM258 1124v226
h219v-226h-219zM715 1350h219v-226h-219v226z" />
    <glyph glyph-name="ae.alt" horiz-adv-x="1822" 
d="M541 176q109 0 171 87.5t62 238.5q0 148 -62.5 235.5t-170.5 87.5q-105 0 -164.5 -89.5t-59.5 -235.5t59.5 -235t164.5 -89zM1026 604h481q-2 60 -24 106t-57 72.5t-76 40t-86 13.5q-42 0 -81.5 -12t-76.5 -37t-59 -72.5t-21 -110.5zM1274 -25q-84 0 -160 32.5t-123 98.5
l-2 -106h-215l-2 106q-94 -131 -283 -131q-194 0 -316 142t-122 385q0 237 129 380.5t326 143.5q158 0 258 -115v93h235v-93q44 50 116 82.5t157 32.5q243 0 376 -163.5t121 -440.5h-743q-4 -117 68 -181.5t178 -64.5q93 0 152.5 41t82.5 107l246 -33q-19 -56 -55.5 -108.5
t-93.5 -101t-142.5 -77.5t-187.5 -29z" />
    <glyph glyph-name="aeacute.alt" horiz-adv-x="1822" 
d="M541 176q-105 0 -164.5 89t-59.5 235t59.5 235.5t164.5 89.5q108 0 170.5 -87.5t62.5 -235.5q0 -151 -62 -238.5t-171 -87.5zM1507 604h-481q-1 63 21 110.5t59 72.5t76.5 37t81.5 12q45 0 86 -13.5t76 -40t57 -72.5t24 -106zM1274 -25q102 0 187.5 29t142.5 77.5
t93.5 101t55.5 108.5l-246 33q-23 -66 -82.5 -107t-152.5 -41q-106 0 -178 64.5t-68 181.5h743q12 277 -121 440.5t-376 163.5q-85 0 -157 -32.5t-116 -82.5v93h-235v-93q-100 115 -258 115q-197 0 -326 -143.5t-129 -380.5q0 -243 122 -385t316 -142q189 0 283 131l2 -106
h215l2 106q47 -66 123 -98.5t160 -32.5zM1255 1360l-284 -242h-195l180 242h299z" />
    <glyph glyph-name="agrave.alt" 
d="M1026 0v1004h-262v-93q-100 115 -258 115q-197 0 -326 -143.5t-129 -380.5q0 -243 122 -385t316 -142q189 0 283 131l2 -106h252zM541 176q-105 0 -164.5 89t-59.5 235t59.5 235.5t164.5 89.5q108 0 170.5 -87.5t62.5 -235.5q0 -151 -62 -238.5t-171 -87.5zM582 1118
l-285 242h299l180 -242h-194z" />
    <glyph glyph-name="amacron.alt" 
d="M1026 0v1004h-262v-93q-100 115 -258 115q-197 0 -326 -143.5t-129 -380.5q0 -243 122 -385t316 -142q189 0 283 131l2 -106h252zM541 176q-105 0 -164.5 89t-59.5 235t59.5 235.5t164.5 89.5q108 0 170.5 -87.5t62.5 -235.5q0 -151 -62 -238.5t-171 -87.5zM885 1143
h-596v180h596v-180z" />
    <glyph glyph-name="aogonek.alt" 
d="M541 176q109 0 171 87.5t62 238.5q0 148 -62.5 235.5t-170.5 87.5q-105 0 -164.5 -89.5t-59.5 -235.5t59.5 -235t164.5 -89zM1026 1004v-1004q-87 -43 -126.5 -72.5t-39.5 -68.5q0 -64 84 -64q43 0 107 19v-156q-82 -20 -156 -20q-112 0 -187 44t-75 132q0 56 38.5 105.5
t102.5 80.5l-2 106q-94 -131 -283 -131q-194 0 -316 142t-122 385q0 237 129 380.5t326 143.5q158 0 258 -115v93h262z" />
    <glyph glyph-name="aring.alt" 
d="M1026 0v1004h-262v-93q-100 115 -258 115q-197 0 -326 -143.5t-129 -380.5q0 -243 122 -385t316 -142q189 0 283 131l2 -106h252zM541 176q-105 0 -164.5 89t-59.5 235t59.5 235.5t164.5 89.5q108 0 170.5 -87.5t62.5 -235.5q0 -151 -62 -238.5t-171 -87.5zM557 1454
q75 0 127.5 -48.5t52.5 -121.5t-52 -121.5t-128 -48.5t-128 48.5t-52 121.5t52.5 121.5t127.5 48.5zM557 1362q-33 0 -55.5 -22.5t-22.5 -55.5t22.5 -54.5t55.5 -21.5t55.5 21.5t22.5 54.5t-22.5 55.5t-55.5 22.5z" />
    <glyph glyph-name="aringacute.alt" 
d="M872 1589l-221 -205q36 -22 58 -59.5t22 -81.5q0 -73 -52 -121.5t-128 -48.5t-128 48.5t-52 121.5q0 49 39 109l163 237h299zM551 1321q-33 0 -55.5 -22.5t-22.5 -55.5t22.5 -54.5t55.5 -21.5t55.5 21.5t22.5 54.5t-22.5 55.5t-55.5 22.5zM1026 0v1004h-262v-93
q-100 115 -258 115q-197 0 -326 -143.5t-129 -380.5q0 -243 122 -385t316 -142q189 0 283 131l2 -106h252zM541 176q-105 0 -164.5 89t-59.5 235t59.5 235.5t164.5 89.5q108 0 170.5 -87.5t62.5 -235.5q0 -151 -62 -238.5t-171 -87.5z" />
    <glyph glyph-name="atilde.alt" 
d="M1026 0v1004h-262v-93q-100 115 -258 115q-197 0 -326 -143.5t-129 -380.5q0 -243 122 -385t316 -142q189 0 283 131l2 -106h252zM541 176q-105 0 -164.5 89t-59.5 235t59.5 235.5t164.5 89.5q108 0 170.5 -87.5t62.5 -235.5q0 -151 -62 -238.5t-171 -87.5zM678 1276
q81 0 96 84h180q-10 -64 -32.5 -111t-47.5 -71.5t-59 -38.5t-58.5 -17.5t-54.5 -3.5q-52 0 -98 21t-83.5 42t-67.5 21q-80 0 -95 -84h-180q10 64 33 111t48 71.5t59.5 38.5t59 17.5t54.5 3.5q51 0 95 -21t80.5 -42t70.5 -21z" />
    <glyph glyph-name="uni0227.alt" 
d="M1026 0v1004h-262v-93q-100 115 -258 115q-197 0 -326 -143.5t-129 -380.5q0 -243 122 -385t316 -142q189 0 283 131l2 -106h252zM541 176q-105 0 -164.5 89t-59.5 235t59.5 235.5t164.5 89.5q108 0 170.5 -87.5t62.5 -235.5q0 -151 -62 -238.5t-171 -87.5zM477 1350h219
v-226h-219v226z" />
    <glyph glyph-name="uni1EA1.alt" 
d="M1026 1004v-1004h-252l-2 106q-94 -131 -283 -131q-194 0 -316 142t-122 385q0 237 129 380.5t326 143.5q158 0 258 -115v93h262zM541 176q109 0 171 87.5t62 238.5q0 148 -62.5 235.5t-170.5 87.5q-105 0 -164.5 -89.5t-59.5 -235.5t59.5 -235t164.5 -89zM471 -80h219
v-225h-219v225z" />
    <glyph glyph-name="l.alt" horiz-adv-x="518" 
d="M98 276v1084h262v-1032q0 -76 24 -100.5t95 -24.5h39v-203h-151q-88 0 -140.5 13.5t-81.5 49t-38 83t-9 130.5z" />
    <glyph glyph-name="lacute.alt" horiz-adv-x="518" 
d="M98 276v1084h262v-1032q0 -76 24 -100.5t95 -24.5h39v-203h-151q-88 0 -140.5 13.5t-81.5 49t-38 83t-9 130.5zM621 1645l-304 -215h-215l197 215h322z" />
    <glyph glyph-name="lcaron.alt" horiz-adv-x="663" 
d="M725 1360l-133 -324h-172l57 324h248zM98 276v1084h262v-1032q0 -76 24 -100.5t95 -24.5h39v-203h-151q-88 0 -140.5 13.5t-81.5 49t-38 83t-9 130.5z" />
    <glyph glyph-name="lcommaaccent.alt" horiz-adv-x="518" 
d="M98 276v1084h262v-1032q0 -76 24 -100.5t95 -24.5h39v-203h-151q-88 0 -140.5 13.5t-81.5 49t-38 83t-9 130.5zM145 -258v190h201v-202l-84 -170h-123l74 182h-68z" />
    <glyph glyph-name="ldot.alt" horiz-adv-x="518" 
d="M98 1419v226h262v-226h-262zM98 276v1084h262v-1032q0 -76 24 -100.5t95 -24.5h39v-203h-151q-88 0 -140.5 13.5t-81.5 49t-38 83t-9 130.5z" />
    <glyph glyph-name="lslash.alt" horiz-adv-x="559" 
d="M-23 475v213l140 78v594h262v-445l139 80v-213l-139 -80v-374q0 -76 24.5 -100.5t94.5 -24.5h39v-203h-152q-88 0 -140.5 13.5t-81 49t-37.5 83t-9 130.5v277z" />
    <glyph glyph-name="zero.plf" horiz-adv-x="1261" 
d="M631 -25q-181 0 -307 90t-187 247t-61 370t61 369t187 244.5t307 88.5t307 -88.5t187 -244.5t61 -369t-61 -370t-187 -247t-307 -90zM631 176q140 0 213.5 129.5t73.5 376.5t-73.5 374.5t-213.5 127.5t-213.5 -127.5t-73.5 -374.5t73.5 -376.5t213.5 -129.5z" />
    <glyph glyph-name="zeroslashed.plf" horiz-adv-x="1261" 
d="M631 -25q-181 0 -307 90t-187 247t-61 370t61 369t187 244.5t307 88.5t307 -88.5t187 -244.5t61 -369t-61 -370t-187 -247t-307 -90zM631 176q140 0 213.5 129.5t73.5 376.5v35l-558 -246q28 -145 96.5 -220t174.5 -75zM344 682v-20l553 243q-28 137 -95.5 208t-170.5 71
q-140 0 -213.5 -127.5t-73.5 -374.5z" />
    <glyph glyph-name="one.plf" horiz-adv-x="702" 
d="M559 0h-262v1012h-297v178q58 2 92.5 4.5t74 8.5t64 17t50 29.5t44 45.5t35.5 65h199v-1360z" />
    <glyph glyph-name="two.plf" horiz-adv-x="1101" 
d="M571 1384q199 0 327 -98t128 -272q0 -64 -21 -127.5t-66 -129t-97 -125t-134.5 -133t-155 -133.5t-181.5 -145h686v-221h-1014v207q330 266 438 364q204 187 256 318q23 56 23 110q0 89 -56.5 139t-146.5 50q-99 0 -166 -65.5t-67 -209.5h-256q-3 213 137 342t366 129z
" />
    <glyph glyph-name="three.plf" horiz-adv-x="1169" 
d="M567 176q111 0 185.5 56t74.5 151q0 78 -47 128.5t-121.5 70.5t-177.5 20h-55v207h45q151 0 236.5 51t85.5 146q0 86 -63.5 132t-156.5 46q-114 0 -183 -66t-89 -176l-248 29q33 192 169.5 302.5t367.5 110.5q71 0 137 -13t126.5 -41.5t105.5 -70t71.5 -104t26.5 -137.5
q0 -96 -52.5 -175t-134.5 -124q105 -43 164.5 -133t59.5 -197q0 -102 -42 -182t-115.5 -130t-169 -76t-206.5 -26q-115 0 -210 35t-158.5 95.5t-102 136t-49.5 161.5l248 31q21 -114 89.5 -186t188.5 -72z" />
    <glyph glyph-name="four.plf" horiz-adv-x="1206" 
d="M696 1026l-395 -494h395v494zM1192 532v-221h-236v-311h-260v311h-682v205l686 844h256v-828h236z" />
    <glyph glyph-name="five.plf" horiz-adv-x="1185" 
d="M594 176q112 0 181 70.5t69 197.5q0 132 -76 203.5t-180 71.5q-86 0 -150 -37t-86 -90l-239 12l90 756h852v-221h-637l-37 -291q106 76 274 76q90 0 171 -31t145 -88.5t101.5 -150.5t37.5 -208q0 -111 -41 -201.5t-112 -149t-165 -89.5t-202 -31q-117 0 -213 37.5
t-157 99.5t-96.5 137t-43.5 157l248 28q17 -114 82 -186t184 -72z" />
    <glyph glyph-name="six.plf" horiz-adv-x="1196" 
d="M354 438q0 -118 71.5 -190t180.5 -72t178.5 71t69.5 191q0 117 -70 189.5t-178 72.5q-109 0 -180.5 -72.5t-71.5 -189.5zM618 1184q-130 0 -205 -111t-75 -303q47 59 129 95t186 36q96 0 180.5 -32t148.5 -90t101 -147t37 -196q0 -208 -143.5 -334.5t-370.5 -126.5
q-135 0 -238 50.5t-166 141.5t-94.5 211t-31.5 267q0 122 18 228.5t60.5 201.5t105.5 162.5t159 107t216 39.5q108 0 195.5 -34t141.5 -89.5t84.5 -120.5t35.5 -134l-256 -2q-10 84 -70.5 132t-147.5 48z" />
    <glyph glyph-name="seven.plf" horiz-adv-x="970" 
d="M-6 1139v221h1014v-221q-143 -147 -236.5 -264.5t-167 -254t-111 -286t-47.5 -334.5h-288q29 612 585 1139h-749z" />
    <glyph glyph-name="eight.plf" horiz-adv-x="1220" 
d="M610 1384q217 0 349.5 -98t132.5 -252q0 -205 -168 -307q209 -119 209 -340q0 -131 -70.5 -225.5t-187 -140.5t-265.5 -46t-265.5 46t-186.5 140.5t-70 225.5q0 222 211 340q-83 46 -126.5 128t-43.5 177q0 155 132 253.5t349 98.5zM610 618q-116 0 -185 -60t-69 -159
t69 -161t185 -62t185 62t69 161t-69 159t-185 60zM836 1001q0 82 -62 132.5t-164 50.5t-163.5 -50.5t-61.5 -132.5q0 -83 62 -136.5t163 -53.5t163.5 53.5t62.5 136.5z" />
    <glyph glyph-name="nine.plf" horiz-adv-x="1183" 
d="M829 924q0 118 -71 189t-180 71t-178.5 -70.5t-69.5 -189.5q0 -118 70 -191.5t178 -73.5t179.5 74t71.5 191zM565 176q130 0 205.5 111t75.5 303q-47 -59 -126 -95t-179 -36q-132 0 -239.5 53.5t-173 160.5t-65.5 249q0 206 141.5 334t368.5 128q113 0 202.5 -31.5
t151.5 -88.5t103 -140.5t59.5 -184.5t18.5 -224q0 -120 -18.5 -226.5t-61 -201.5t-105.5 -163.5t-157.5 -108.5t-212.5 -40q-108 0 -196 34t-143 90t-86 121t-36 134l256 2q10 -84 70 -132t147 -48z" />
    <glyph glyph-name="zero.pof" horiz-adv-x="1216" 
d="M608 -23q-260 0 -396 172.5t-136 473.5q0 299 136 469t396 170q259 0 396 -170.5t137 -468.5q0 -300 -137 -473t-396 -173zM608 178q130 0 197 112.5t67 332.5q0 438 -264 438q-130 0 -198 -109.5t-68 -328.5q0 -220 68 -332.5t198 -112.5z" />
    <glyph glyph-name="zeroslashed.pof" horiz-adv-x="1216" 
d="M608 -23q-260 0 -396 172.5t-136 473.5q0 299 136 469t396 170q259 0 396 -170.5t137 -468.5q0 -300 -137 -473t-396 -173zM608 178q130 0 197 112.5t67 332.5v28l-512 -225q53 -248 248 -248zM342 623v-9l508 224q-55 223 -242 223q-130 0 -198 -109.5t-68 -328.5z" />
    <glyph glyph-name="one.pof" horiz-adv-x="690" 
d="M547 0h-262v889h-285v180q156 5 230 39.5t118 134.5h199v-1243z" />
    <glyph glyph-name="two.pof" horiz-adv-x="1058" 
d="M551 1262q194 0 317 -91.5t123 -252.5q0 -70 -29.5 -141t-79 -135.5t-129 -137.5t-164 -137.5t-200.5 -145.5h625v-221h-971v209q308 229 378 286q209 168 270 281q34 63 34 121q0 79 -53 123.5t-135 44.5q-91 0 -153.5 -60t-61.5 -190l-259 2q-3 203 132.5 324
t355.5 121z" />
    <glyph glyph-name="three.pof" horiz-adv-x="1116" 
d="M541 178q100 0 166.5 46.5t66.5 127.5q0 96 -85 140.5t-228 44.5h-62v206h54q137 0 214.5 43t77.5 125q0 71 -58.5 110.5t-141.5 39.5q-103 0 -168 -52t-82 -145l-252 29q31 175 166.5 272t349.5 97q86 0 164 -19.5t143.5 -57.5t104.5 -103.5t39 -149.5
q0 -89 -49.5 -162.5t-126.5 -114.5q97 -39 151.5 -121.5t54.5 -177.5q0 -93 -40.5 -166.5t-110.5 -119.5t-160 -69.5t-194 -23.5q-211 0 -345 108.5t-159 283.5l252 26q18 -99 84.5 -158t173.5 -59z" />
    <glyph glyph-name="four.pof" horiz-adv-x="1138" 
d="M653 915l-352 -413h352v413zM1124 502v-226h-209v-276h-262v276h-639v205l650 760h251v-739h209z" />
    <glyph glyph-name="five.pof" horiz-adv-x="1134" 
d="M559 178q104 0 169 61t65 169q0 112 -70.5 172.5t-167.5 60.5q-79 0 -138 -31t-83 -80l-240 17l86 694h826v-221h-609l-32 -244q99 70 258 70q85 0 162.5 -28t139 -80.5t98 -137.5t36.5 -190q0 -103 -39.5 -186.5t-108.5 -136.5t-159.5 -81.5t-194.5 -28.5
q-210 0 -341.5 110.5t-154.5 274.5l250 33q18 -99 80.5 -158t167.5 -59z" />
    <glyph glyph-name="six.pof" horiz-adv-x="1150" 
d="M354 403q0 -101 64 -163t166 -62q99 0 162 62t63 163q0 98 -63.5 162t-161.5 64q-101 0 -165.5 -63t-64.5 -163zM596 1063q-119 0 -187 -90t-67 -252q45 50 120 80t171 30q121 0 221 -51.5t160.5 -151t60.5 -227.5q0 -192 -136 -308t-353 -116q-129 0 -228 46t-160 129.5
t-91.5 193.5t-30.5 244q0 111 18.5 208.5t59.5 183.5t102 147.5t152 97t204 35.5q104 0 188 -29.5t136.5 -80t82 -112t34.5 -129.5l-258 -2q-9 75 -64 114.5t-135 39.5z" />
    <glyph glyph-name="seven.pof" horiz-adv-x="919" 
d="M-6 1020v221h962v-215q-138 -127 -227.5 -231t-158.5 -226.5t-103 -259.5t-41 -309h-287q5 162 48 310t119 274t167.5 230.5t208.5 205.5h-688z" />
    <glyph glyph-name="eight.pof" horiz-adv-x="1171" 
d="M588 1262q207 0 333 -92.5t126 -231.5q0 -82 -38 -153t-114 -121q188 -107 188 -306q0 -179 -138.5 -280t-356.5 -101q-220 0 -360 101t-140 280q0 198 191 306q-73 47 -112.5 118.5t-39.5 153.5q0 141 126.5 233.5t334.5 92.5zM588 555q-107 0 -169.5 -50.5
t-62.5 -135.5q0 -84 63 -137.5t169 -53.5q105 0 168 53.5t63 137.5q0 85 -62.5 135.5t-168.5 50.5zM791 909q0 68 -55.5 110t-147.5 42q-93 0 -149 -42t-56 -110q0 -69 56.5 -114t148.5 -45q91 0 147 45t56 114z" />
    <glyph glyph-name="nine.pof" horiz-adv-x="1136" 
d="M784 836q0 100 -64 162.5t-165 62.5q-100 0 -162.5 -61.5t-62.5 -163.5q0 -98 63 -161t162 -63q100 0 164.5 62.5t64.5 161.5zM541 176q120 0 188.5 90t67.5 252q-98 -108 -285 -108q-123 0 -224.5 50.5t-163 148.5t-61.5 225q0 191 133 309.5t351 118.5q135 0 235.5 -46
t160.5 -130t89 -193t29 -244q0 -111 -18 -208.5t-58.5 -183.5t-101 -147.5t-151 -97t-202.5 -35.5q-105 0 -189.5 30t-137 81t-82.5 112.5t-35 129.5l256 2q10 -76 65 -116t134 -40z" />
    <glyph glyph-name="zero.tlf" horiz-adv-x="1290" 
d="M645 -25q-181 0 -307 90t-187 247t-61 370t61 369t187 244.5t307 88.5t307 -88.5t187 -244.5t61 -369t-61 -370t-187 -247t-307 -90zM645 176q140 0 213.5 129.5t73.5 376.5t-73.5 374.5t-213.5 127.5t-213.5 -127.5t-73.5 -374.5t73.5 -376.5t213.5 -129.5z" />
    <glyph glyph-name="zeroslashed.tlf" horiz-adv-x="1290" 
d="M645 -25q-181 0 -307 90t-187 247t-61 370t61 369t187 244.5t307 88.5t307 -88.5t187 -244.5t61 -369t-61 -370t-187 -247t-307 -90zM645 176q140 0 213.5 129.5t73.5 376.5v35l-557 -246q28 -145 96.5 -220t173.5 -75zM358 682v-20l553 243q-28 137 -95.5 208t-170.5 71
q-140 0 -213.5 -127.5t-73.5 -374.5z" />
    <glyph glyph-name="one.tlf" horiz-adv-x="1290" 
d="M782 215h310v-215h-895v215h323v797h-323v178q71 2 113 5.5t91.5 13.5t79.5 27.5t57.5 48t45.5 75.5h198v-1145z" />
    <glyph glyph-name="two.tlf" horiz-adv-x="1290" 
d="M666 1384q130 0 231.5 -41.5t162 -126.5t60.5 -202q0 -64 -21 -127.5t-66 -129t-97 -125t-134.5 -133t-155 -133.5t-181.5 -145h686v-221h-1014v207q330 266 438 364q204 187 256 318q23 56 23 110q0 89 -56.5 139t-146.5 50q-99 0 -166 -65.5t-67 -209.5h-256
q-3 213 137.5 342t366.5 129z" />
    <glyph glyph-name="three.tlf" horiz-adv-x="1290" 
d="M645 176q111 0 185.5 56t74.5 151q0 78 -47 128.5t-121.5 70.5t-177.5 20h-55v207h45q151 0 236 50.5t85 146.5q0 86 -63 132t-156 46q-114 0 -183 -66t-89 -176l-248 29q33 192 169.5 302.5t367.5 110.5q71 0 137 -13t126.5 -41.5t105.5 -70t71.5 -104t26.5 -137.5
q0 -96 -52.5 -175t-134.5 -124q105 -43 164 -133t59 -197q0 -135 -73.5 -230.5t-191.5 -139.5t-267 -44q-115 0 -210 35t-158.5 95.5t-102 136t-49.5 161.5l248 31q21 -114 89.5 -186t188.5 -72z" />
    <glyph glyph-name="four.tlf" horiz-adv-x="1290" 
d="M737 1026l-395 -494h395v494zM1233 532v-221h-236v-311h-260v311h-682v205l686 844h256v-828h236z" />
    <glyph glyph-name="five.tlf" horiz-adv-x="1290" 
d="M643 176q112 0 181 70.5t69 197.5q0 132 -76 203.5t-180 71.5q-86 0 -150 -37t-86 -90l-239 12l90 756h852v-221h-637l-37 -291q106 76 275 76q72 0 138 -19t123.5 -58.5t100.5 -95t67.5 -134t24.5 -171.5q0 -111 -41 -201.5t-112 -149t-165 -89.5t-202 -31
q-117 0 -213 37.5t-157 99.5t-96.5 137t-43.5 157l248 28q17 -114 82 -186t184 -72z" />
    <glyph glyph-name="six.tlf" horiz-adv-x="1290" 
d="M401 438q0 -118 71.5 -190t180.5 -72t178.5 71t69.5 191q0 117 -70 189.5t-178 72.5q-109 0 -180.5 -72.5t-71.5 -189.5zM666 1184q-130 0 -205.5 -111t-75.5 -303q47 59 129 95t186 36q96 0 180.5 -32t148.5 -90t101 -147t37 -196q0 -208 -143.5 -334.5t-370.5 -126.5
q-135 0 -238 50.5t-166 141.5t-94.5 211t-31.5 267q0 122 18 228.5t60.5 201.5t105.5 162.5t159 107t216 39.5q108 0 195.5 -34t141.5 -89.5t84.5 -120.5t35.5 -134l-256 -2q-10 84 -70 132t-147 48z" />
    <glyph glyph-name="seven.tlf" horiz-adv-x="1290" 
d="M137 1139v221h1014v-221q-143 -147 -236.5 -264.5t-167 -254t-110.5 -286t-47 -334.5h-289q29 611 586 1139h-750z" />
    <glyph glyph-name="eight.tlf" horiz-adv-x="1290" 
d="M645 1384q217 0 349 -98t132 -252q0 -205 -168 -307q209 -119 209 -340q0 -131 -70 -225.5t-186.5 -140.5t-265.5 -46t-265.5 46t-186.5 140.5t-70 225.5q0 222 211 340q-83 46 -126.5 128t-43.5 177q0 155 132 253.5t349 98.5zM645 618q-116 0 -185 -60t-69 -159
t69 -161t185 -62t185 62t69 161t-69 159t-185 60zM870 1001q0 82 -61.5 132.5t-163.5 50.5t-163.5 -50.5t-61.5 -132.5q0 -83 62 -136.5t163 -53.5t163 53.5t62 136.5z" />
    <glyph glyph-name="nine.tlf" horiz-adv-x="1290" 
d="M889 924q0 118 -71.5 189t-180.5 71t-178.5 -70.5t-69.5 -189.5q0 -118 70 -191.5t178 -73.5q109 0 180.5 74t71.5 191zM625 176q130 0 205 111t75 303q-47 -59 -126 -95t-179 -36q-132 0 -239.5 53.5t-172.5 160.5t-65 249q0 206 141.5 334t368.5 128q141 0 244.5 -47.5
t166.5 -137t93 -210t30 -274.5q0 -120 -18.5 -226.5t-61 -201.5t-105.5 -163.5t-157.5 -108.5t-212.5 -40q-108 0 -196 34t-142.5 90t-85.5 121t-36 134l256 2q10 -84 70 -132t147 -48z" />
    <glyph glyph-name="zeroslashed.superior" horiz-adv-x="765" 
d="M383 819q-160 0 -244 107t-84 297q0 188 84 294.5t244 106.5t244 -106.5t84 -294.5q0 -190 -84 -297t-244 -107zM383 1485q-130 0 -139 -230l272 68q-23 162 -133 162zM383 958q130 0 139 228l-272 -68q23 -160 133 -160z" />
    <glyph glyph-name="zeroslashed.inferior" horiz-adv-x="765" 
d="M383 -260q-160 0 -244 107t-84 296q0 188 84 295t244 107t244 -107t84 -295q0 -189 -84 -296t-244 -107zM383 406q-130 0 -139 -230l272 68q-23 162 -133 162zM383 -121q130 0 139 227l-272 -67q23 -160 133 -160z" />
    <glyph glyph-name="zero.denominator" horiz-adv-x="765" 
d="M383 -14q-160 0 -244 107t-84 296q0 188 84 295t244 107t244 -107t84 -295q0 -189 -84 -296t-244 -107zM383 125q139 0 139 264q0 136 -35 199t-104 63t-104 -63t-35 -199q0 -264 139 -264z" />
    <glyph glyph-name="zeroslashed.denominator" horiz-adv-x="765" 
d="M383 -14q-160 0 -244 107t-84 296q0 188 84 295t244 107t244 -107t84 -295q0 -189 -84 -296t-244 -107zM383 651q-131 0 -139 -229l272 67q-23 162 -133 162zM383 125q130 0 139 227l-272 -67q23 -160 133 -160z" />
    <glyph glyph-name="one.denominator" horiz-adv-x="464" 
d="M373 0h-183v541h-172v129q97 3 142 25t71 83h142v-778z" />
    <glyph glyph-name="two.denominator" horiz-adv-x="679" 
d="M352 791q122 0 199.5 -57.5t77.5 -162.5q0 -45 -17.5 -88t-44 -79t-76.5 -81t-94 -79t-118 -88h356v-156h-600v145q28 22 79.5 61t82.5 63t74.5 59t69.5 61.5t51.5 57t37.5 58.5t12 54q0 46 -27.5 70t-72.5 24q-54 0 -89 -37t-36 -112h-176q0 133 84 210t227 77z" />
    <glyph glyph-name="three.denominator" horiz-adv-x="724" 
d="M360 125q57 0 91 26t34 70q0 105 -172 105h-32v145h30q74 0 114 24.5t40 71.5q0 40 -31 62t-76 22q-56 0 -91 -31.5t-42 -89.5l-176 21q18 112 100.5 176t223.5 64q120 0 199 -55.5t79 -155.5q0 -58 -29 -102.5t-75 -67.5q60 -23 93.5 -72.5t33.5 -114.5
q0 -113 -90.5 -175t-225.5 -62q-137 0 -221.5 72.5t-95.5 181.5l176 18q9 -64 45.5 -98.5t97.5 -34.5z" />
    <glyph glyph-name="four.denominator" horiz-adv-x="749" 
d="M410 549l-189 -227h189v227zM721 322v-158h-127v-164h-184v164h-377v143l393 469h168v-454h127z" />
    <glyph glyph-name="five.denominator" horiz-adv-x="733" 
d="M362 125q60 0 96 35t36 96q0 63 -36.5 99t-92.5 36q-46 0 -79.5 -18.5t-47.5 -48.5l-166 12l55 440h512v-155h-358l-21 -138q58 49 164 49q110 0 184 -73.5t74 -200.5t-87 -199.5t-226 -72.5q-133 0 -218.5 67.5t-99.5 177.5l174 25q10 -59 44 -95t93 -36z" />
    <glyph glyph-name="six.denominator" horiz-adv-x="727" 
d="M242 256q0 -60 35.5 -95.5t89.5 -35.5q53 0 87.5 35t34.5 96q0 59 -35 94t-87 35q-54 0 -89.5 -35t-35.5 -94zM375 651q-64 0 -103 -51.5t-39 -142.5q58 67 181 67q107 0 184.5 -71t77.5 -197q0 -125 -85.5 -197.5t-223.5 -72.5q-155 0 -236.5 104.5t-81.5 280.5
q0 89 19.5 163.5t59.5 132.5t105.5 91t151.5 33q126 0 197.5 -64.5t76.5 -157.5l-174 -2q-6 40 -36 62t-74 22z" />
    <glyph glyph-name="seven.denominator" horiz-adv-x="628" 
d="M23 621v155h604v-151q-109 -92 -175.5 -179.5t-103.5 -198t-39 -247.5h-200q1 97 27.5 190t73.5 171t103 142t123 118h-413z" />
    <glyph glyph-name="eight.denominator" horiz-adv-x="727" 
d="M365 791q132 0 210 -59.5t78 -147.5q0 -109 -86 -168q111 -67 111 -191q0 -108 -87.5 -173.5t-225.5 -65.5t-226 65.5t-88 173.5q0 124 111 191q-41 28 -63.5 72.5t-22.5 95.5q0 88 78.5 147.5t210.5 59.5zM365 344q-58 0 -92.5 -30t-34.5 -78q0 -51 34.5 -81t92.5 -30
t92.5 30t34.5 81q0 48 -34.5 78t-92.5 30zM473 561q0 40 -29.5 65t-78.5 25t-79 -25t-30 -65t30 -67t79 -27t78.5 26.5t29.5 67.5z" />
    <glyph glyph-name="nine.denominator" horiz-adv-x="722" 
d="M483 520q0 60 -35.5 95.5t-89.5 35.5t-88 -35t-34 -96q0 -59 35 -94t87 -35q54 0 89.5 35t35.5 94zM350 125q64 0 103 51.5t39 142.5q-61 -67 -179 -67q-109 0 -187.5 70.5t-78.5 195.5t85 199t220 74q162 0 242 -103t80 -282q0 -89 -19 -163.5t-58 -133t-104 -91
t-151 -32.5q-127 0 -199 64t-77 157l172 2q6 -40 37 -62t75 -22z" />
    <glyph glyph-name="zero.numerator" horiz-adv-x="765" 
d="M383 569q-160 0 -244 107t-84 297q0 188 84 294.5t244 106.5t244 -106.5t84 -294.5q0 -190 -84 -297t-244 -107zM383 709q139 0 139 264q0 136 -35 199t-104 63t-104 -63t-35 -199q0 -264 139 -264z" />
    <glyph glyph-name="zeroslashed.numerator" horiz-adv-x="765" 
d="M383 569q-160 0 -244 107t-84 297q0 188 84 294.5t244 106.5t244 -106.5t84 -294.5q0 -190 -84 -297t-244 -107zM383 1235q-131 0 -139 -229l272 67q-23 162 -133 162zM383 709q130 0 139 227l-272 -68q12 -83 45 -121t88 -38z" />
    <glyph glyph-name="one.numerator" horiz-adv-x="464" 
d="M373 584h-183v540h-172v129q96 3 141.5 25.5t71.5 83.5h142v-778z" />
    <glyph glyph-name="two.numerator" horiz-adv-x="679" 
d="M352 1374q122 0 199.5 -57t77.5 -162q0 -55 -23 -105.5t-76 -104.5t-105.5 -96.5t-145.5 -109.5h356v-155h-600v145q28 22 79.5 61t82.5 63t74.5 59t69.5 61.5t51.5 57t37.5 58.5t12 54q0 46 -27.5 70t-72.5 24q-53 0 -88.5 -37.5t-36.5 -112.5h-176q0 133 84 210t227 77
z" />
    <glyph glyph-name="three.numerator" horiz-adv-x="724" 
d="M360 709q57 0 91 26t34 70q0 104 -172 104h-32v146h30q74 0 114 24.5t40 71.5q0 40 -31 62t-76 22q-56 0 -91 -31.5t-42 -89.5l-176 21q18 112 100.5 175.5t223.5 63.5q120 0 199 -55.5t79 -155.5q0 -58 -29 -102.5t-75 -67.5q60 -23 93.5 -72t33.5 -114
q0 -113 -90.5 -175.5t-225.5 -62.5q-137 0 -221.5 72.5t-95.5 181.5l176 19q9 -64 45.5 -98.5t97.5 -34.5z" />
    <glyph glyph-name="four.numerator" horiz-adv-x="749" 
d="M410 1133l-189 -228h189v228zM721 905v-157h-127v-164h-184v164h-377v143l393 469h168v-455h127z" />
    <glyph glyph-name="five.numerator" horiz-adv-x="733" 
d="M362 709q60 0 96 35t36 96q0 63 -36.5 99t-92.5 36q-46 0 -79.5 -19t-47.5 -49l-166 13l55 440h512v-156h-358l-21 -137q58 49 164 49q110 0 184 -73.5t74 -200.5q0 -128 -87 -200.5t-226 -72.5q-133 0 -218.5 68t-99.5 178l174 25q10 -59 44 -95t93 -36z" />
    <glyph glyph-name="six.numerator" horiz-adv-x="727" 
d="M242 840q0 -60 35.5 -95.5t89.5 -35.5q53 0 87.5 35t34.5 96q0 59 -35 94t-87 35q-54 0 -89.5 -35t-35.5 -94zM375 1235q-64 0 -103 -52t-39 -143q59 68 181 68q107 0 184.5 -71t77.5 -197q0 -125 -85.5 -198t-223.5 -73q-155 0 -236.5 104.5t-81.5 280.5
q0 89 19.5 163.5t59.5 132.5t105.5 91t151.5 33q127 0 198 -64t76 -157l-174 -2q-6 40 -36 62t-74 22z" />
    <glyph glyph-name="seven.numerator" horiz-adv-x="628" 
d="M23 1204v156h604v-152q-109 -92 -175.5 -179t-103.5 -197.5t-39 -247.5h-200q1 187 93 346.5t234 273.5h-413z" />
    <glyph glyph-name="eight.numerator" horiz-adv-x="727" 
d="M365 1374q132 0 210 -59.5t78 -147.5q0 -109 -86 -168q111 -67 111 -190q0 -108 -87.5 -174t-225.5 -66t-226 66t-88 174q0 123 111 190q-41 28 -63.5 72.5t-22.5 95.5q0 88 78.5 147.5t210.5 59.5zM365 928q-58 0 -92.5 -30.5t-34.5 -78.5q0 -51 34 -80.5t93 -29.5
t93 29.5t34 80.5q0 48 -34.5 78.5t-92.5 30.5zM473 1145q0 40 -29.5 65t-78.5 25t-79 -25t-30 -65t30 -67t79 -27t78.5 26.5t29.5 67.5z" />
    <glyph glyph-name="nine.numerator" horiz-adv-x="722" 
d="M483 1104q0 60 -35.5 95.5t-89.5 35.5t-88 -35t-34 -96q0 -59 35 -94t87 -35q54 0 89.5 35t35.5 94zM350 709q64 0 103 51.5t39 142.5q-61 -67 -179 -67q-109 0 -187.5 70.5t-78.5 195.5t85 198.5t220 73.5q162 0 242 -103t80 -282q0 -89 -19 -163.5t-58 -133t-104 -91
t-151 -32.5q-127 0 -199 64.5t-77 157.5l172 2q6 -40 37 -62t75 -22z" />
    <glyph glyph-name="a.superior" horiz-adv-x="663" 
d="M233 1225l-170 2q9 92 80 143t201 51t191.5 -54t60.5 -171q0 -16 -1 -76t-1 -73q0 -99 12 -213h-168l-2 63q-51 -78 -178 -78q-97 0 -155 56t-58 135q0 77 53 120q61 49 236 68l84 8v17q0 71 -90 71t-95 -69zM422 1057v35l-86 -9q-107 -11 -107 -67q0 -28 20.5 -47
t57.5 -19q50 0 82.5 27.5t32.5 79.5z" />
    <glyph glyph-name="b.superior" horiz-adv-x="710" 
d="M82 834v776h182v-260q50 69 158 69q107 0 175.5 -81t68.5 -220q0 -136 -71.5 -217.5t-180.5 -81.5q-100 0 -150 70l-2 -55h-180zM373 1280q-53 0 -84 -44.5t-31 -117.5q0 -70 31 -115t84 -45q52 0 79 46t27 116t-27 115t-79 45z" />
    <glyph glyph-name="c.superior" horiz-adv-x="669" 
d="M344 1419q109 0 184.5 -54.5t98.5 -152.5l-170 -24q-8 42 -36 68t-73 26q-57 0 -87 -43.5t-30 -118.5q0 -76 30.5 -120t86.5 -44q94 0 113 97l170 -25q-25 -98 -102 -153.5t-187 -55.5q-142 0 -219.5 82t-77.5 217q0 136 81 218.5t218 82.5z" />
    <glyph glyph-name="d.superior" horiz-adv-x="716" 
d="M635 1610v-776h-180v59q-49 -74 -160 -74q-107 0 -175.5 81t-68.5 220q0 136 71.5 217.5t180.5 81.5q99 0 150 -67v258h182zM344 958q53 0 84 45t31 117q0 70 -31 115t-84 45q-52 0 -79 -45.5t-27 -116.5q0 -70 27 -115t79 -45z" />
    <glyph glyph-name="e.superior" horiz-adv-x="686" 
d="M350 819q-145 0 -225 84t-80 219q0 133 83 215t218 82q147 0 226.5 -94.5t68.5 -253.5h-414q3 -53 36 -84t87 -31q86 0 111 74l172 -24q-27 -77 -95.5 -132t-187.5 -55zM346 1294q-45 0 -79.5 -25t-39.5 -83h232q-1 54 -34.5 81t-78.5 27z" />
    <glyph glyph-name="f.superior" horiz-adv-x="423" 
d="M100 1407v27q0 57 11 91.5t39.5 53.5t65.5 25t99 6h84v-140h-51q-40 0 -51.5 -9t-11.5 -44v-10h114v-131h-116v-442h-183v442h-77v131h77z" />
    <glyph glyph-name="g.superior" horiz-adv-x="706" 
d="M446 854v59q-48 -69 -155 -69q-109 0 -177.5 77t-68.5 212q0 132 71.5 209t180.5 77q98 0 152 -67v55h180v-541q0 -130 -78 -190q-69 -55 -211 -55q-246 0 -272 186l172 8q12 -65 102 -65q52 0 74 20q30 23 30 84zM338 981q54 0 84.5 40t30.5 112q0 66 -31 106.5
t-84 40.5q-52 0 -79.5 -42.5t-27.5 -107.5q0 -68 27.5 -108.5t79.5 -40.5z" />
    <glyph glyph-name="h.superior" horiz-adv-x="706" 
d="M264 1610v-269q52 78 174 78q107 0 154 -59q45 -51 45 -174v-352h-184v315q0 70 -19 94q-23 29 -67 29q-103 0 -103 -146v-292h-182v776h182z" />
    <glyph glyph-name="i.superior" horiz-adv-x="344" 
d="M82 1407h182v-573h-182v573zM82 1610h182v-152h-182v152z" />
    <glyph glyph-name="j.superior" horiz-adv-x="346" 
d="M82 829v578h182v-580q0 -119 -42.5 -157.5t-160.5 -38.5h-59v139h29q31 0 41 11.5t10 47.5zM82 1610h182v-152h-182v152z" />
    <glyph glyph-name="k.superior" horiz-adv-x="690" 
d="M82 1610h182v-398l182 195h222l-209 -217l217 -356h-209l-135 225l-68 -70v-155h-182v776z" />
    <glyph glyph-name="l.superior" horiz-adv-x="344" 
d="M264 1610v-776h-182v776h182z" />
    <glyph glyph-name="m.superior" horiz-adv-x="1054" 
d="M82 834v573h182v-66q50 78 168 78q123 0 166 -94q66 94 195 94q101 0 149 -57q43 -55 43 -176v-352h-182v313q0 71 -19 98q-20 27 -61 27q-54 0 -75 -37t-21 -109v-292h-185v313q0 76 -20 98q-17 27 -60 27q-54 0 -76 -37.5t-22 -108.5v-292h-182z" />
    <glyph glyph-name="o.superior" horiz-adv-x="692" 
d="M233 1118q0 -78 30.5 -119t82.5 -41q54 0 84.5 41t30.5 119q0 80 -30.5 121t-84.5 41q-53 0 -83 -41t-30 -121zM45 1118q0 148 85.5 224.5t215.5 76.5t216.5 -77t86.5 -224q0 -146 -86.5 -222.5t-216.5 -76.5t-215.5 76.5t-85.5 222.5z" />
    <glyph glyph-name="p.superior" horiz-adv-x="710" 
d="M264 889v-258h-182v776h180v-61q48 73 160 73q107 0 175.5 -81t68.5 -220q0 -136 -71.5 -217.5t-180.5 -81.5q-100 0 -150 70zM373 1280q-53 0 -84 -44.5t-31 -117.5q0 -70 31 -115t84 -45q52 0 79 46t27 116t-27 115t-79 45z" />
    <glyph glyph-name="q.superior" horiz-adv-x="710" 
d="M449 1352v55h180v-776h-183v260q-50 -72 -155 -72q-108 0 -177 81t-69 220q0 136 71.5 217.5t180.5 81.5q98 0 152 -67zM338 958q53 0 84 45t31 117q0 70 -31 115t-84 45q-52 0 -79.5 -45.5t-27.5 -116.5q0 -70 27.5 -115t79.5 -45z" />
    <glyph glyph-name="r.superior" horiz-adv-x="458" 
d="M440 1407v-178q-60 6 -65 6q-111 0 -111 -109v-292h-182v573h178v-86q42 88 154 88q4 0 13 -1t13 -1z" />
    <glyph glyph-name="s.superior" horiz-adv-x="626" 
d="M578 1303l-105 -89q-58 72 -164 72q-34 0 -55 -10t-21 -27q0 -33 66 -45l72 -14q109 -24 163 -60t54 -114q0 -92 -78.5 -144.5t-192.5 -52.5q-101 0 -176.5 38t-105.5 99l115 88q53 -90 169 -90q91 0 91 45q0 21 -19.5 31t-62.5 19l-70 14q-96 19 -147.5 60.5
t-51.5 119.5q0 82 74.5 129t185.5 47q91 0 162 -31t97 -85z" />
    <glyph glyph-name="t.superior" horiz-adv-x="452" 
d="M106 1407v172h183v-172h119v-131h-119v-250q0 -32 13 -43.5t44 -11.5h60v-137h-113q-111 0 -149 32.5t-38 134.5v275h-90v131h90z" />
    <glyph glyph-name="u.superior" horiz-adv-x="702" 
d="M438 834v65q-52 -80 -166 -80q-105 0 -153 62q-45 51 -45 176v350h184v-317q0 -72 18 -95q19 -28 64 -28q98 0 98 149v291h185v-573h-185z" />
    <glyph glyph-name="v.superior" horiz-adv-x="632" 
d="M217 1407l105 -371l102 371h190l-202 -573h-187l-207 573h199z" />
    <glyph glyph-name="w.superior" horiz-adv-x="909" 
d="M285 1032l75 375h191l82 -375l65 375h193l-160 -573h-188l-86 360l-84 -360h-193l-162 573h197z" />
    <glyph glyph-name="x.superior" horiz-adv-x="675" 
d="M649 1407l-209 -279l217 -294h-208l-115 155l-117 -155h-199l218 288l-207 285h209l104 -143l109 143h198z" />
    <glyph glyph-name="y.superior" horiz-adv-x="626" 
d="M141 631h-71v141h61q39 0 56 9t30 42l4 13l-209 571h197l106 -375l105 375h188l-211 -569q-45 -122 -96.5 -164.5t-159.5 -42.5z" />
    <glyph glyph-name="z.superior" horiz-adv-x="616" 
d="M37 834v135l282 293h-262v145h504v-137l-282 -291h292v-145h-534z" />
    <glyph glyph-name="a.inferior" horiz-adv-x="663" 
d="M233 145l-170 2q9 92 80 143.5t201 51.5t191.5 -54t60.5 -171q0 -16 -1 -76.5t-1 -73.5q0 -99 12 -213h-168l-2 64q-51 -78 -178 -78q-97 0 -155 55.5t-58 134.5q0 78 53 121q61 49 236 68l84 8v16q0 72 -90 72q-40 0 -66 -17t-29 -53zM422 -23v35l-86 -8
q-107 -11 -107 -67q0 -28 20.5 -47t57.5 -19q50 0 82.5 27t32.5 79z" />
    <glyph glyph-name="b.inferior" horiz-adv-x="710" 
d="M82 -246v776h182v-260q50 70 158 70q107 0 175.5 -81t68.5 -220q0 -136 -71.5 -217.5t-180.5 -81.5q-100 0 -150 70l-2 -56h-180zM373 201q-53 0 -84 -44.5t-31 -117.5q0 -70 31 -115t84 -45q52 0 79 46t27 116t-27 115t-79 45z" />
    <glyph glyph-name="c.inferior" horiz-adv-x="669" 
d="M344 340q109 0 184.5 -54.5t98.5 -152.5l-170 -24q-8 42 -36 68t-73 26q-57 0 -87 -43.5t-30 -118.5q0 -76 30.5 -120t86.5 -44q94 0 113 96l170 -24q-25 -98 -102 -153.5t-187 -55.5q-142 0 -219.5 82t-77.5 217q0 136 81 218.5t218 82.5z" />
    <glyph glyph-name="d.inferior" horiz-adv-x="716" 
d="M635 530v-776h-180v60q-49 -74 -160 -74q-107 0 -175.5 81t-68.5 220q0 136 71.5 217.5t180.5 81.5q99 0 150 -68v258h182zM344 -121q53 0 84 45t31 117q0 70 -31 115t-84 45q-52 0 -79 -45.5t-27 -116.5q0 -70 27 -115t79 -45z" />
    <glyph glyph-name="e.inferior" horiz-adv-x="686" 
d="M350 -260q-145 0 -225 84t-80 219q0 133 83 215t218 82q147 0 226.5 -94.5t68.5 -253.5h-414q3 -53 36 -84t87 -31q86 0 111 74l172 -25q-12 -35 -32.5 -65t-53 -59t-83.5 -45.5t-114 -16.5zM346 215q-45 0 -79.5 -25.5t-39.5 -83.5h232q-1 54 -34.5 81.5t-78.5 27.5z
" />
    <glyph glyph-name="f.inferior" horiz-adv-x="423" 
d="M100 328v26q0 57 11 91.5t39.5 53.5t65.5 25t99 6h84v-139h-51q-40 0 -51.5 -9t-11.5 -44v-10h114v-131h-116v-443h-183v443h-77v131h77z" />
    <glyph glyph-name="g.inferior" horiz-adv-x="706" 
d="M446 -225v59q-48 -70 -155 -70q-109 0 -177.5 77t-68.5 212q0 132 71.5 209.5t180.5 77.5q97 0 152 -68v56h180v-541q0 -130 -78 -190q-70 -56 -211 -56q-246 0 -272 187l172 8q12 -66 102 -66q50 0 74 21q30 23 30 84zM338 -98q54 0 84.5 39.5t30.5 111.5q0 66 -31 107
t-84 41q-52 0 -79.5 -42.5t-27.5 -107.5q0 -68 27.5 -108.5t79.5 -40.5z" />
    <glyph glyph-name="h.inferior" horiz-adv-x="706" 
d="M264 530v-268q52 78 174 78q107 0 154 -59q45 -51 45 -175v-352h-184v316q0 70 -19 94q-23 29 -67 29q-103 0 -103 -146v-293h-182v776h182z" />
    <glyph glyph-name="i.inferior" horiz-adv-x="344" 
d="M82 328h182v-574h-182v574zM82 530h182v-151h-182v151z" />
    <glyph glyph-name="j.inferior" horiz-adv-x="346" 
d="M82 -250v578h182v-580q0 -119 -42.5 -158t-160.5 -39h-59v140h29q31 0 41 11.5t10 47.5zM82 530h182v-151h-182v151z" />
    <glyph glyph-name="k.inferior" horiz-adv-x="690" 
d="M82 530h182v-397l182 195h222l-209 -217l217 -357h-209l-135 226l-68 -70v-156h-182v776z" />
    <glyph glyph-name="l.inferior" horiz-adv-x="344" 
d="M264 530v-776h-182v776h182z" />
    <glyph glyph-name="m.inferior" horiz-adv-x="1054" 
d="M82 -246v574h182v-66q50 78 168 78q123 0 166 -94q66 94 195 94q101 0 149 -57q43 -55 43 -177v-352h-182v314q0 71 -19 98q-20 27 -61 27q-54 0 -75 -37t-21 -109v-293h-185v314q0 76 -20 98q-17 27 -60 27q-54 0 -76 -37.5t-22 -108.5v-293h-182z" />
    <glyph glyph-name="n.inferior" horiz-adv-x="706" 
d="M264 328v-66q52 78 174 78q107 0 154 -59q45 -51 45 -175v-352h-184v316q0 70 -19 94q-23 29 -67 29q-103 0 -103 -146v-293h-182v574h182z" />
    <glyph glyph-name="o.inferior" horiz-adv-x="692" 
d="M233 39q0 -78 30.5 -119t82.5 -41q54 0 84.5 41t30.5 119q0 80 -30.5 121t-84.5 41q-53 0 -83 -41t-30 -121zM45 39q0 148 85.5 224.5t215.5 76.5t216.5 -77t86.5 -224q0 -146 -86.5 -222.5t-216.5 -76.5t-215.5 76.5t-85.5 222.5z" />
    <glyph glyph-name="p.inferior" horiz-adv-x="710" 
d="M264 -190v-259h-182v777h180v-62q49 74 160 74q107 0 175.5 -81t68.5 -220q0 -136 -71.5 -217.5t-180.5 -81.5q-100 0 -150 70zM373 201q-53 0 -84 -44.5t-31 -117.5q0 -70 31 -115t84 -45q52 0 79 46t27 116t-27 115t-79 45z" />
    <glyph glyph-name="q.inferior" horiz-adv-x="710" 
d="M449 272v56h180v-777h-183v261q-50 -72 -155 -72q-108 0 -177 81t-69 220q0 136 71.5 217.5t180.5 81.5q97 0 152 -68zM338 -121q53 0 84 45t31 117q0 70 -31 115t-84 45q-52 0 -79.5 -45.5t-27.5 -116.5q0 -70 27.5 -115t79.5 -45z" />
    <glyph glyph-name="r.inferior" horiz-adv-x="458" 
d="M440 328v-178q-60 6 -65 6q-111 0 -111 -109v-293h-182v574h178v-86q42 88 154 88q4 0 13 -1t13 -1z" />
    <glyph glyph-name="s.inferior" horiz-adv-x="626" 
d="M578 223l-105 -88q-58 72 -164 72q-34 0 -55 -10t-21 -27q0 -33 66 -45l72 -14q109 -24 163 -60t54 -114q0 -92 -78.5 -144.5t-192.5 -52.5q-101 0 -176.5 38t-105.5 99l115 88q53 -90 169 -90q91 0 91 45q0 21 -19 30.5t-63 18.5l-70 15q-96 19 -147.5 60.5t-51.5 119.5
q0 82 74.5 129t185.5 47q91 0 162 -31t97 -86z" />
    <glyph glyph-name="t.inferior" horiz-adv-x="452" 
d="M106 328v172h183v-172h119v-131h-119v-250q0 -32 13 -44t44 -12h60v-137h-113q-111 0 -149 33t-38 135v275h-90v131h90z" />
    <glyph glyph-name="u.inferior" horiz-adv-x="702" 
d="M438 -246v66q-52 -80 -166 -80q-106 0 -153 61q-45 51 -45 176v351h184v-318q0 -71 18 -94q19 -29 64 -29q98 0 98 150v291h185v-574h-185z" />
    <glyph glyph-name="v.inferior" horiz-adv-x="632" 
d="M217 328l105 -371l102 371h190l-202 -574h-187l-207 574h199z" />
    <glyph glyph-name="w.inferior" horiz-adv-x="909" 
d="M285 -47l75 375h191l82 -375l65 375h193l-160 -574h-188l-86 361l-84 -361h-193l-162 574h197z" />
    <glyph glyph-name="x.inferior" horiz-adv-x="675" 
d="M649 328l-209 -279l217 -295h-208l-115 156l-117 -156h-199l218 289l-207 285h209l104 -144l109 144h198z" />
    <glyph glyph-name="y.inferior" horiz-adv-x="626" 
d="M141 -449h-71v142h61q39 0 56 9t30 42l4 12l-209 572h197l106 -375l105 375h188l-211 -570q-45 -122 -96.5 -164.5t-159.5 -42.5z" />
    <glyph glyph-name="z.inferior" horiz-adv-x="616" 
d="M37 -246v135l282 293h-262v146h504v-138l-282 -290h292v-146h-534z" />
    <glyph glyph-name="a.denominator" horiz-adv-x="663" 
d="M233 391l-170 2q9 92 80 143.5t201 51.5t191.5 -54.5t60.5 -171.5q0 -16 -1 -76t-1 -73q0 -99 12 -213h-168l-2 63q-51 -77 -178 -77q-97 0 -155 55.5t-58 134.5q0 78 53 121q61 49 236 68l84 8v16q0 72 -90 72q-40 0 -66 -17t-29 -53zM422 223v35l-86 -8
q-107 -11 -107 -68q0 -28 20.5 -46.5t57.5 -18.5q50 0 82.5 27t32.5 79z" />
    <glyph glyph-name="b.denominator" horiz-adv-x="710" 
d="M82 0v776h182v-260q50 70 158 70q107 0 175.5 -81t68.5 -220q0 -136 -71.5 -217.5t-180.5 -81.5q-100 0 -150 69l-2 -55h-180zM373 446q-53 0 -84 -44t-31 -117q0 -70 31 -115t84 -45q52 0 79 46t27 116t-27 114.5t-79 44.5z" />
    <glyph glyph-name="c.denominator" horiz-adv-x="669" 
d="M344 586q109 0 184.5 -54.5t98.5 -152.5l-170 -25q-8 42 -36 68.5t-73 26.5q-57 0 -87 -43.5t-30 -118.5q0 -76 30.5 -120t86.5 -44q94 0 113 96l170 -24q-25 -98 -102 -153.5t-187 -55.5q-142 0 -219.5 82t-77.5 217q0 136 81 218.5t218 82.5z" />
    <glyph glyph-name="d.denominator" horiz-adv-x="716" 
d="M635 776v-776h-180v59q-48 -73 -160 -73q-107 0 -175.5 81t-68.5 220q0 136 71.5 217.5t180.5 81.5q99 0 150 -68v258h182zM344 125q53 0 84 45t31 117q0 70 -31 114.5t-84 44.5q-52 0 -79 -45t-27 -116q0 -70 27 -115t79 -45z" />
    <glyph glyph-name="e.denominator" horiz-adv-x="686" 
d="M350 -14q-145 0 -225 84t-80 219q0 133 83 215t218 82q147 0 226.5 -94.5t68.5 -253.5h-414q3 -53 36 -84t87 -31q86 0 111 74l172 -25q-12 -35 -32.5 -65t-53 -59t-83.5 -45.5t-114 -16.5zM346 461q-45 0 -79.5 -25.5t-39.5 -83.5h232q-1 54 -34.5 81.5t-78.5 27.5z" />
    <glyph glyph-name="f.denominator" horiz-adv-x="423" 
d="M100 573v27q0 57 11 91.5t39.5 53.5t65.5 25t99 6h84v-139h-51q-40 0 -51.5 -9t-11.5 -44v-11h114v-131h-116v-442h-183v442h-77v131h77z" />
    <glyph glyph-name="g.denominator" horiz-adv-x="706" 
d="M446 20v60q-48 -70 -155 -70q-109 0 -177.5 77t-68.5 212q0 132 71.5 209.5t180.5 77.5q97 0 152 -68v55h180v-540q0 -131 -78 -191q-69 -55 -211 -55q-246 0 -272 186l172 9q12 -66 102 -66q50 0 74 21q30 23 30 83zM338 147q54 0 84.5 40t30.5 112q0 66 -31 106.5
t-84 40.5q-52 0 -79.5 -42t-27.5 -107q0 -68 27.5 -109t79.5 -41z" />
    <glyph glyph-name="h.denominator" horiz-adv-x="706" 
d="M264 776v-268q52 78 174 78q106 0 154 -60q45 -51 45 -174v-352h-184v315q0 71 -19 95q-22 28 -67 28q-103 0 -103 -145v-293h-182v776h182z" />
    <glyph glyph-name="i.denominator" horiz-adv-x="344" 
d="M82 573h182v-573h-182v573zM82 776h182v-151h-182v151z" />
    <glyph glyph-name="j.denominator" horiz-adv-x="346" 
d="M82 -4v577h182v-579q0 -119 -42.5 -158t-160.5 -39h-59v140h29q31 0 41 11.5t10 47.5zM82 776h182v-151h-182v151z" />
    <glyph glyph-name="k.denominator" horiz-adv-x="690" 
d="M82 776h182v-397l182 194h222l-209 -217l217 -356h-209l-135 225l-68 -69v-156h-182v776z" />
    <glyph glyph-name="l.denominator" horiz-adv-x="344" 
d="M264 776v-776h-182v776h182z" />
    <glyph glyph-name="m.denominator" horiz-adv-x="1054" 
d="M82 0v573h182v-65q50 78 168 78q123 0 166 -94q66 94 195 94q100 0 149 -58q43 -55 43 -176v-352h-182v313q0 72 -19 99q-20 26 -61 26q-54 0 -75 -36.5t-21 -108.5v-293h-185v313q0 77 -20 99q-16 26 -60 26q-54 0 -76 -37t-22 -108v-293h-182z" />
    <glyph glyph-name="n.denominator" horiz-adv-x="706" 
d="M264 573v-65q52 78 174 78q106 0 154 -60q45 -51 45 -174v-352h-184v315q0 71 -19 95q-22 28 -67 28q-103 0 -103 -145v-293h-182v573h182z" />
    <glyph glyph-name="o.denominator" horiz-adv-x="692" 
d="M233 285q0 -78 30.5 -119t82.5 -41q54 0 84.5 41t30.5 119q0 80 -30.5 120.5t-84.5 40.5q-53 0 -83 -40.5t-30 -120.5zM45 285q0 148 85.5 224.5t215.5 76.5t216.5 -77t86.5 -224q0 -146 -86.5 -222.5t-216.5 -76.5t-215.5 76.5t-85.5 222.5z" />
    <glyph glyph-name="p.denominator" horiz-adv-x="710" 
d="M264 55v-258h-182v776h180v-61q49 74 160 74q107 0 175.5 -81t68.5 -220q0 -136 -71.5 -217.5t-180.5 -81.5q-100 0 -150 69zM373 446q-53 0 -84 -44t-31 -117q0 -70 31 -115t84 -45q52 0 79 46t27 116t-27 114.5t-79 44.5z" />
    <glyph glyph-name="q.denominator" horiz-adv-x="710" 
d="M449 518v55h180v-776h-183v260q-49 -71 -155 -71q-108 0 -177 81t-69 220q0 136 71.5 217.5t180.5 81.5q97 0 152 -68zM338 125q53 0 84 45t31 117q0 70 -31 114.5t-84 44.5q-52 0 -79.5 -45t-27.5 -116q0 -70 27.5 -115t79.5 -45z" />
    <glyph glyph-name="r.denominator" horiz-adv-x="458" 
d="M440 573v-178q-60 6 -65 6q-111 0 -111 -108v-293h-182v573h178v-86q42 88 154 88q4 0 13 -1t13 -1z" />
    <glyph glyph-name="s.denominator" horiz-adv-x="626" 
d="M578 469l-105 -88q-58 72 -164 72q-34 0 -55 -10t-21 -27q0 -33 66 -45l72 -15q109 -24 163 -60t54 -114q0 -92 -78.5 -144t-192.5 -52q-101 0 -176.5 38t-105.5 99l115 88q53 -90 169 -90q91 0 91 45q0 21 -19 30.5t-63 18.5l-70 14q-96 19 -147.5 61t-51.5 120
q0 82 74.5 129t185.5 47q91 0 162 -31t97 -86z" />
    <glyph glyph-name="t.denominator" horiz-adv-x="452" 
d="M106 573v172h183v-172h119v-131h-119v-249q0 -32 13 -44t44 -12h60v-137h-113q-111 0 -149 33t-38 135v274h-90v131h90z" />
    <glyph glyph-name="u.denominator" horiz-adv-x="702" 
d="M438 0v66q-52 -80 -166 -80q-106 0 -153 61q-45 51 -45 176v350h184v-317q0 -71 18 -94q19 -29 64 -29q98 0 98 150v290h185v-573h-185z" />
    <glyph glyph-name="v.denominator" horiz-adv-x="632" 
d="M217 573l105 -370l102 370h190l-202 -573h-187l-207 573h199z" />
    <glyph glyph-name="w.denominator" horiz-adv-x="909" 
d="M285 199l75 374h191l82 -374l65 374h193l-160 -573h-188l-86 360l-84 -360h-193l-162 573h197z" />
    <glyph glyph-name="x.denominator" horiz-adv-x="675" 
d="M649 573l-209 -278l217 -295h-208l-115 156l-117 -156h-199l218 289l-207 284h209l104 -143l109 143h198z" />
    <glyph glyph-name="y.denominator" horiz-adv-x="626" 
d="M141 -203h-71v142h61q39 0 56 9t30 42l4 12l-209 571h197l106 -374l105 374h188l-211 -569q-45 -122 -96.5 -164.5t-159.5 -42.5z" />
    <glyph glyph-name="z.denominator" horiz-adv-x="616" 
d="M37 0v135l282 293h-262v145h504v-137l-282 -291h292v-145h-534z" />
    <glyph glyph-name="a.numerator" horiz-adv-x="663" 
d="M233 975l-170 2q9 92 80 143t201 51t191.5 -54t60.5 -171q0 -16 -1 -76t-1 -73q0 -99 12 -213h-168l-2 63q-51 -78 -178 -78q-97 0 -155 56t-58 135q0 78 53 121q59 48 236 67l84 8v17q0 71 -90 71t-95 -69zM422 807v35l-86 -8q-107 -11 -107 -68q0 -28 20.5 -47
t57.5 -19q50 0 82.5 27.5t32.5 79.5z" />
    <glyph glyph-name="b.numerator" horiz-adv-x="710" 
d="M82 584v776h182v-260q50 69 158 69q107 0 175.5 -81t68.5 -220q0 -136 -71.5 -217.5t-180.5 -81.5q-100 0 -150 70l-2 -55h-180zM373 1030q-53 0 -84 -44.5t-31 -117.5q0 -70 31 -114.5t84 -44.5q52 0 79 45.5t27 115.5t-27 115t-79 45z" />
    <glyph glyph-name="c.numerator" horiz-adv-x="669" 
d="M344 1169q109 0 184.5 -54t98.5 -152l-170 -25q-8 42 -36 68t-73 26q-57 0 -87 -43.5t-30 -118.5q0 -76 30.5 -119.5t86.5 -43.5q94 0 113 96l170 -25q-25 -98 -102 -153.5t-187 -55.5q-142 0 -219.5 82t-77.5 217q0 136 81 218.5t218 82.5z" />
    <glyph glyph-name="d.numerator" horiz-adv-x="716" 
d="M635 1360v-776h-180v59q-49 -74 -160 -74q-107 0 -175.5 81t-68.5 220q0 136 71.5 217.5t180.5 81.5q99 0 150 -67v258h182zM344 709q53 0 84 44.5t31 116.5q0 70 -31 115t-84 45q-52 0 -79 -45.5t-27 -116.5q0 -70 27 -114.5t79 -44.5z" />
    <glyph glyph-name="e.numerator" horiz-adv-x="686" 
d="M350 569q-145 0 -225 84t-80 219q0 133 83 215t218 82q147 0 226.5 -94.5t68.5 -253.5h-414q3 -53 36 -83.5t87 -30.5q86 0 111 73l172 -24q-27 -77 -95.5 -132t-187.5 -55zM346 1044q-45 0 -79.5 -25t-39.5 -83h232q-1 54 -34.5 81t-78.5 27z" />
    <glyph glyph-name="f.numerator" horiz-adv-x="423" 
d="M100 1157v27q0 57 11 91.5t39.5 53.5t65.5 25t99 6h84v-139h-51q-40 0 -51.5 -9.5t-11.5 -44.5v-10h114v-131h-116v-442h-183v442h-77v131h77z" />
    <glyph glyph-name="g.numerator" horiz-adv-x="706" 
d="M446 604v60q-48 -70 -155 -70q-109 0 -177.5 77t-68.5 212q0 132 71.5 209t180.5 77q98 0 152 -67v55h180v-541q0 -130 -78 -190q-69 -55 -211 -55q-246 0 -272 186l172 8q12 -65 102 -65q52 0 74 20q30 23 30 84zM338 731q54 0 84.5 40t30.5 112q0 66 -31 106.5
t-84 40.5q-52 0 -79.5 -42t-27.5 -107q0 -68 27.5 -109t79.5 -41z" />
    <glyph glyph-name="h.numerator" horiz-adv-x="706" 
d="M264 1360v-268q51 77 174 77q107 0 154 -59q45 -51 45 -174v-352h-184v315q0 70 -19 94q-23 29 -67 29q-103 0 -103 -145v-293h-182v776h182z" />
    <glyph glyph-name="i.numerator" horiz-adv-x="344" 
d="M82 1157h182v-573h-182v573zM82 1360h182v-152h-182v152z" />
    <glyph glyph-name="j.numerator" horiz-adv-x="346" 
d="M82 580v577h182v-579q0 -119 -42.5 -158t-160.5 -39h-59v139h29q31 0 41 11.5t10 48.5zM82 1360h182v-152h-182v152z" />
    <glyph glyph-name="k.numerator" horiz-adv-x="690" 
d="M82 1360h182v-397l182 194h222l-209 -217l217 -356h-209l-135 225l-68 -70v-155h-182v776z" />
    <glyph glyph-name="l.numerator" horiz-adv-x="344" 
d="M264 1360v-776h-182v776h182z" />
    </font>
</defs>
</svg>
