<?xml version="1.0" standalone="no"?>
<!DOCTYPE svg PUBLIC "-//W3C//DTD SVG 1.1//EN" "http://www.w3.org/Graphics/SVG/1.1/DTD/svg11.dtd" >
<svg xmlns="http://www.w3.org/2000/svg" xmlns:xlink="http://www.w3.org/1999/xlink" version="1.1">
<metadata>
Created by FontForge 20170731 at Wed Feb  2 03:49:16 2022
 By Aleksey,,,
Copyright (c) 2011 by Ian Party, distributed by B&#38;P Foundry Srl, Switzerland, d/b/a b+p swiss typefaces: http://www.swisstypefaces.com. All rights reserved.
</metadata>
<defs>
<font id="SuisseBPIntl-Black" horiz-adv-x="1247" >
  <font-face 
    font-family="Suisse BP Int'l Black"
    font-weight="900"
    font-stretch="normal"
    units-per-em="2048"
    panose-1="0 0 0 0 0 0 0 0 0 0"
    ascent="1536"
    descent="-512"
    x-height="1004"
    cap-height="1360"
    bbox="-451 -467 2724 1880"
    underline-thickness="102"
    underline-position="-307"
    unicode-range="U+0020-FB06"
  />
<missing-glyph horiz-adv-x="0" 
 />
    <glyph glyph-name="f_f" unicode="ff" horiz-adv-x="1470" 
d="M131 1004v36q0 102 18.5 164t66 97t114.5 47t180 12h205v-277h-129q-42 0 -57 -12.5t-15 -50.5v-16h201v-261h-203v-743h-381v743h-127v261h127zM866 1004v36q0 102 18.5 164t66 97t114.5 47t180 12h205v-277h-129q-42 0 -57 -12.5t-15 -50.5v-16h201v-261h-203v-743
h-381v743h-127v261h127z" />
    <glyph glyph-name="fi" unicode="fi" horiz-adv-x="1341" 
d="M131 1004v36q0 102 18.5 164t66 97t114.5 47t180 12h205v-277h-129q-42 0 -57 -12.5t-15 -50.5v-16h201v-261h-203v-743h-381v743h-127v261h127zM848 1004h381v-1004h-381v1004zM848 1360h381v-291h-381v291z" />
    <glyph glyph-name="fl" unicode="fl" horiz-adv-x="1341" 
d="M131 1004v36q0 102 18.5 164t66 97t114.5 47t180 12h205v-277h-129q-42 0 -57 -12.5t-15 -50.5v-16h201v-261h-203v-743h-381v743h-127v261h127zM1229 1360v-1360h-381v1360h381z" />
    <glyph glyph-name="f_f_i" unicode="ffi" horiz-adv-x="2076" 
d="M131 1004v36q0 102 18.5 164t66 97t114.5 47t180 12h205v-277h-129q-42 0 -57 -12.5t-15 -50.5v-16h201v-261h-203v-743h-381v743h-127v261h127zM866 1004v36q0 102 18.5 164t66 97t114.5 47t180 12h205v-277h-129q-42 0 -57 -12.5t-15 -50.5v-16h201v-261h-203v-743
h-381v743h-127v261h127zM1583 1004h381v-1004h-381v1004zM1583 1360h381v-291h-381v291z" />
    <glyph glyph-name="f_f_l" unicode="ffl" horiz-adv-x="2076" 
d="M131 1004v36q0 102 18.5 164t66 97t114.5 47t180 12h205v-277h-129q-42 0 -57 -12.5t-15 -50.5v-16h201v-261h-203v-743h-381v743h-127v261h127zM866 1004v36q0 102 18.5 164t66 97t114.5 47t180 12h205v-277h-129q-42 0 -57 -12.5t-15 -50.5v-16h201v-261h-203v-743
h-381v743h-127v261h127zM1964 1360v-1360h-381v1360h381z" />
    <glyph glyph-name="s_t" unicode="st" horiz-adv-x="1906" 
d="M1047 924l-125 -262q-75 37 -171.5 61.5t-187.5 24.5q-96 0 -96 -37q0 -40 80 -54l133 -24q91 -17 155.5 -38t118.5 -55.5t81.5 -87t27.5 -122.5q0 -176 -130 -265.5t-360 -89.5q-319 0 -534 131l145 261q179 -111 373 -111q133 0 133 47q0 23 -25 33t-94 22l-108 21
q-365 66 -365 326q0 102 67.5 176t176.5 109.5t244 35.5q137 0 262 -30.5t199 -71.5zM1276 1004v303h381v-303h203v-261h-203v-395q0 -42 17.5 -57t56.5 -15h129v-276h-205q-78 0 -127 3.5t-96 14.5t-73 31t-47 55t-28.5 84.5t-7.5 120.5v434h-168v261h168z" />
    <glyph glyph-name="f_b" unicode="fb" horiz-adv-x="1982" 
d="M131 1004v36q0 102 18.5 164t66 97t114.5 47t180 12h205v-277h-129q-42 0 -57 -12.5t-15 -50.5v-16h201v-261h-203v-743h-381v743h-127v261h127zM848 1360v-1360h381v100q39 -62 109 -93.5t159 -31.5q90 0 169 35.5t138 101t93 166t34 222.5q0 244 -120 385t-306 141
q-100 0 -170 -34.5t-106 -90.5v459h-381zM1386 743q76 0 115 -71t39 -170q0 -101 -39 -172.5t-115 -71.5q-77 0 -123 70t-46 172q0 103 46 173t123 70z" />
    <glyph glyph-name="f_h" unicode="fh" horiz-adv-x="1978" 
d="M131 1004v36q0 102 18.5 164t66 97t114.5 47t180 12h205v-277h-129q-42 0 -57 -12.5t-15 -50.5v-16h201v-261h-203v-743h-381v743h-127v261h127zM1229 1360v-469q99 135 315 135q175 0 260 -94q82 -88 82 -326v-606h-381v535q0 108 -28 147q-31 39 -97 39
q-151 0 -151 -205v-516h-381v1360h381z" />
    <glyph glyph-name="f_k" unicode="fk" horiz-adv-x="1978" 
d="M131 1004v36q0 102 18.5 164t66 97t114.5 47t180 12h205v-277h-129q-42 0 -57 -12.5t-15 -50.5v-16h201v-261h-203v-743h-381v743h-127v261h127zM1229 1360h-381v-1360h381v242l112 114l215 -356h433l-383 625l372 379h-467l-282 -306v662z" />
    <glyph glyph-name="f_j" unicode="fj" horiz-adv-x="1341" 
d="M131 1004v36q0 102 18.5 164t66 97t114.5 47t180 12h205v-277h-129q-42 0 -57 -12.5t-15 -50.5v-16h201v-261h-203v-743h-381v743h-127v261h127zM848 -6v1010h381v-1016q0 -85 -13 -143.5t-39 -98t-73 -61t-107 -30.5t-149 -9h-143v276h67q40 0 58 15t18 57zM848 1360
h381v-291h-381v291z" />
    <glyph glyph-name="f_t" unicode="ft" horiz-adv-x="1533" 
d="M131 1004v36q0 102 18.5 164t66 97t114.5 47t180 12h205v-277h-129q-42 0 -57 -12.5t-15 -50.5v-16h201v-261h-203v-743h-381v743h-127v261h127zM903 1004v303h381v-303h203v-261h-203v-395q0 -42 17.5 -57t56.5 -15h129v-276h-205q-78 0 -127 3.5t-96 14.5t-73 31
t-47 55t-28.5 84.5t-7.5 120.5v434h-168v261h168z" />
    <glyph glyph-name="f_f_j" unicode="ffj" horiz-adv-x="2076" 
d="M131 1004v36q0 102 18.5 164t66 97t114.5 47t180 12h205v-277h-129q-42 0 -57 -12.5t-15 -50.5v-16h201v-261h-203v-743h-381v743h-127v261h127zM866 1004v36q0 102 18.5 164t66 97t114.5 47t180 12h205v-277h-129q-42 0 -57 -12.5t-15 -50.5v-16h201v-261h-203v-743
h-381v743h-127v261h127zM1583 -6v1010h381v-1016q0 -85 -13 -143.5t-39 -98t-73 -61t-107 -30.5t-149 -9h-143v276h67q40 0 58 15t18 57zM1583 1360h381v-291h-381v291z" />
    <glyph glyph-name="f_f_k" unicode="ffk" horiz-adv-x="2713" 
d="M131 1004v36q0 102 18.5 164t66 97t114.5 47t180 12h205v-277h-129q-42 0 -57 -12.5t-15 -50.5v-16h201v-261h-203v-743h-381v743h-127v261h127zM866 1004v36q0 102 18.5 164t66 97t114.5 47t180 12h205v-277h-129q-42 0 -57 -12.5t-15 -50.5v-16h201v-261h-203v-743
h-381v743h-127v261h127zM1964 1360h-381v-1360h381v242l113 114l215 -356h432l-383 625l373 379h-467l-283 -306v662z" />
    <glyph glyph-name="f_f_t" unicode="fft" horiz-adv-x="2269" 
d="M131 1004v36q0 102 18.5 164t66 97t114.5 47t180 12h205v-277h-129q-42 0 -57 -12.5t-15 -50.5v-16h201v-261h-203v-743h-381v743h-127v261h127zM866 1004v36q0 102 18.5 164t66 97t114.5 47t180 12h205v-277h-129q-42 0 -57 -12.5t-15 -50.5v-16h201v-261h-203v-743
h-381v743h-127v261h127zM1638 1004v303h381v-303h203v-261h-203v-395q0 -42 17.5 -57t56.5 -15h129v-276h-205q-78 0 -127 3.5t-96 14.5t-73 31t-47 55t-28.5 84.5t-7.5 120.5v434h-168v261h168z" />
    <glyph glyph-name="f_f_b" unicode="ffb" horiz-adv-x="2717" 
d="M131 1004v36q0 102 18.5 164t66 97t114.5 47t180 12h205v-277h-129q-42 0 -57 -12.5t-15 -50.5v-16h201v-261h-203v-743h-381v743h-127v261h127zM866 1004v36q0 102 18.5 164t66 97t114.5 47t180 12h205v-277h-129q-42 0 -57 -12.5t-15 -50.5v-16h201v-261h-203v-743
h-381v743h-127v261h127zM1583 1360v-1360h381v100q39 -62 109 -93.5t159 -31.5q90 0 169 35.5t138 101t93 166t34 222.5q0 244 -120 385t-305 141q-100 0 -170.5 -34.5t-106.5 -90.5v459h-381zM2122 743q76 0 114.5 -71t38.5 -170q0 -101 -38.5 -172.5t-114.5 -71.5
q-77 0 -123.5 70t-46.5 172q0 103 46.5 173t123.5 70z" />
    <glyph glyph-name="f_f_h" unicode="ffh" horiz-adv-x="2713" 
d="M131 1004v36q0 102 18.5 164t66 97t114.5 47t180 12h205v-277h-129q-42 0 -57 -12.5t-15 -50.5v-16h201v-261h-203v-743h-381v743h-127v261h127zM866 1004v36q0 102 18.5 164t66 97t114.5 47t180 12h205v-277h-129q-42 0 -57 -12.5t-15 -50.5v-16h201v-261h-203v-743
h-381v743h-127v261h127zM1964 1360v-469q99 135 315 135q176 0 261 -94q81 -87 81 -326v-606h-380v535q0 107 -29 147q-31 39 -96 39q-152 0 -152 -205v-516h-381v1360h381z" />
    <glyph glyph-name="s_p" unicode="sp" horiz-adv-x="2355" 
d="M1047 924l-125 -262q-75 37 -171.5 61.5t-187.5 24.5q-96 0 -96 -37q0 -40 80 -54l133 -24q91 -17 155.5 -38t118.5 -55.5t81.5 -87t27.5 -122.5q0 -176 -130 -265.5t-360 -89.5q-319 0 -534 131l145 261q179 -111 373 -111q133 0 133 47q0 23 -25 33t-94 22l-108 21
q-365 66 -365 326q0 102 67.5 176t176.5 109.5t244 35.5q137 0 262 -30.5t199 -71.5zM1602 -354v454q39 -62 109 -93.5t159 -31.5q90 0 169 35.5t138 101t93 166t34 222.5q0 244 -120 385t-306 141q-100 0 -170 -34.5t-106 -90.5v103h-381v-1358h381zM1759 743q76 0 115 -71
t39 -170q0 -101 -39 -172.5t-115 -71.5q-77 0 -123.5 70t-46.5 172q0 103 46.5 173t123.5 70z" />
    <glyph glyph-name="c_t" unicode="ct" horiz-adv-x="1955" 
d="M596 1026q216 0 352 -103.5t178 -269.5l-350 -53q-29 145 -160 145q-176 0 -176 -243q0 -111 41.5 -178.5t132.5 -67.5q137 0 166 145l350 -53q-42 -165 -180 -269t-350 -104q-264 0 -406.5 143t-142.5 382q0 237 149.5 381.5t395.5 144.5zM1325 1004v303h381v-303h203
v-261h-203v-395q0 -42 17.5 -57t56.5 -15h129v-276h-205q-78 0 -127 3.5t-96 14.5t-73 31t-47 55t-28.5 84.5t-7.5 120.5v434h-168v261h168z" />
    <glyph glyph-name="t_t" unicode="tt" horiz-adv-x="1597" 
d="M168 1004v303h381v-303h203v-261h-203v-395q0 -42 17.5 -57t56.5 -15h129v-276h-205q-78 0 -127 3.5t-96 14.5t-73 31t-47 55t-28.5 84.5t-7.5 120.5v434h-168v261h168zM967 1004v303h381v-303h202v-261h-202v-395q0 -42 17 -57t56 -15h129v-276h-204q-78 0 -127 3.5
t-96 14.5t-73 31t-47 55t-28.5 84.5t-7.5 120.5v434h-168v261h168z" />
    <glyph glyph-name="t_f" unicode="tf" horiz-adv-x="1533" 
d="M168 1004v303h381v-303h203v-261h-203v-395q0 -42 17.5 -57t56.5 -15h129v-276h-205q-78 0 -127 3.5t-96 14.5t-73 31t-47 55t-28.5 84.5t-7.5 120.5v434h-168v261h168zM930 1004v36q0 102 18.5 164t66 97t114.5 47t180 12h204v-277h-129q-42 0 -56.5 -12.5t-14.5 -50.5
v-16h200v-261h-202v-743h-381v743h-127v261h127z" />
    <glyph glyph-name=".notdef" horiz-adv-x="0" 
 />
    <glyph glyph-name=".null" horiz-adv-x="0" 
 />
    <glyph glyph-name="nonmarkingreturn" horiz-adv-x="682" 
 />
    <glyph glyph-name="space" unicode=" " horiz-adv-x="409" 
 />
    <glyph glyph-name="exclam" unicode="!" horiz-adv-x="645" 
d="M469 451h-293l-84 632v277h461v-277zM532 0h-413v399h413v-399z" />
    <glyph glyph-name="quotedbl" unicode="&#x22;" horiz-adv-x="772" 
d="M35 1360h313l-41 -483h-231zM424 1360h313l-41 -483h-231z" />
    <glyph glyph-name="numbersign" unicode="#" horiz-adv-x="1572" 
d="M115 1069h282l43 291h299l-43 -291h291l43 291h299l-43 -291h283l-35 -262h-287l-39 -266h283l-33 -262h-289l-41 -279h-299l41 279h-290l-41 -279h-299l41 279h-277l35 262h280l39 266h-276zM657 807l-39 -266h291l39 266h-291z" />
    <glyph glyph-name="dollar" unicode="$" horiz-adv-x="1314" 
d="M602 1556h100v-165q231 -15 366 -133t153 -308l-363 -4q-21 149 -156 164v-254l58 -14q49 -13 79.5 -21t76 -23t75 -28.5t67.5 -34t62 -42.5t49.5 -52t40 -64t24 -77.5t9.5 -93.5q0 -98 -44.5 -178.5t-120 -133t-172 -82.5t-204.5 -35v-194h-100v194q-233 17 -374 151
t-156 335l362 4q9 -90 53.5 -146t114.5 -65v272l-113 31q-403 107 -403 430q0 94 44 170.5t117.5 125t164.5 75.5t190 31v165zM868 365q0 50 -42.5 81.5t-123.5 55.5v-248q70 -3 118 29t48 82zM459 1014q0 -42 33 -75.5t98 -51.5l12 -4v229q-65 -1 -104 -30.5t-39 -67.5z
" />
    <glyph glyph-name="percent" unicode="%" horiz-adv-x="1882" 
d="M379 569q-165 0 -252.5 105.5t-87.5 296.5t87 296t253 105t253 -105t87 -296t-87.5 -296.5t-252.5 -105.5zM379 731q117 0 117 240q0 241 -117 241q-56 0 -86.5 -55t-30.5 -186t30.5 -185.5t86.5 -54.5zM307 0h316l952 1360h-315zM1503 -14q-166 0 -253 105t-87 296
t87 296t253 105t253 -105t87 -296t-87 -296t-253 -105zM1503 147q117 0 117 240q0 242 -117 242q-56 0 -86.5 -55.5t-30.5 -186.5t30.5 -185.5t86.5 -54.5z" />
    <glyph glyph-name="ampersand" unicode="&#x26;" horiz-adv-x="1558" 
d="M535 -25q-222 0 -359 104.5t-137 297.5q0 263 326 391q-68 79 -103 150.5t-35 150.5q0 143 131.5 233.5t348.5 90.5q93 0 168.5 -20t124.5 -52.5t82 -76t47 -88.5t14 -93q0 -104 -78.5 -201t-179.5 -139l151 -170q81 125 111 231h362q-27 -100 -96 -225t-170 -237
l289 -322h-473l-86 94q-210 -119 -438 -119zM618 258q78 0 164 47l-231 256q-92 -60 -92 -160q0 -67 46.5 -105t112.5 -38zM635 1063q0 -32 16.5 -63.5t61.5 -84.5q41 21 66.5 57t25.5 75q0 43 -25.5 65.5t-60.5 22.5q-36 0 -60 -18.5t-24 -53.5z" />
    <glyph glyph-name="quotesingle" unicode="'" horiz-adv-x="401" 
d="M43 1360h315l-41 -483h-233z" />
    <glyph glyph-name="parenleft" unicode="(" horiz-adv-x="696" 
d="M61 510q0 236 82 471t185 379h379q-115 -177 -190 -410t-75 -440q0 -208 75.5 -448t189.5 -416h-379q-101 139 -184 383.5t-83 480.5z" />
    <glyph glyph-name="parenright" unicode=")" horiz-adv-x="696" 
d="M635 510q0 -237 -83 -481t-183 -383h-379q114 175 189 415.5t75 448.5q0 207 -74.5 440t-189.5 410h379q102 -143 184 -378t82 -472z" />
    <glyph glyph-name="asterisk" unicode="*" horiz-adv-x="679" 
d="M418 1360v-191l178 68l70 -178l-185 -66l111 -153l-152 -113l-116 160l-109 -160l-162 109l113 157l-184 66l67 178l176 -68v191h193z" />
    <glyph glyph-name="plus" unicode="+" horiz-adv-x="1241" 
d="M811 0h-381v344h-369v332h369v328h381v-328h369v-332h-369v-344z" />
    <glyph glyph-name="comma" unicode="," horiz-adv-x="598" 
d="M92 0v399h414v-422l-166 -294h-281l140 317h-107z" />
    <glyph glyph-name="hyphen" unicode="-" horiz-adv-x="866" 
d="M784 344h-702v332h702v-332z" />
    <glyph glyph-name="period" unicode="." horiz-adv-x="598" 
d="M506 0h-414v399h414v-399z" />
    <glyph glyph-name="slash" unicode="/" horiz-adv-x="952" 
d="M395 0h-395l555 1360h397z" />
    <glyph glyph-name="zero" unicode="0" horiz-adv-x="1359" 
d="M680 -25q-291 0 -444.5 186.5t-153.5 522.5t153.5 522.5t444.5 186.5t444.5 -186.5t153.5 -522.5t-153.5 -522.5t-444.5 -186.5zM680 258q47 0 83.5 21.5t65 69.5t43.5 132.5t15 202.5t-15 202.5t-43.5 132.5t-65 69.5t-83.5 21.5t-83.5 -21.5t-65 -69.5t-43.5 -132.5
t-15 -202.5t15 -202.5t43.5 -132.5t65 -69.5t83.5 -21.5z" />
    <glyph glyph-name="one" unicode="1" horiz-adv-x="849" 
d="M707 0h-381v879h-306v276q176 4 261.5 51t126.5 154h299v-1360z" />
    <glyph glyph-name="two" unicode="2" horiz-adv-x="1208" 
d="M633 1393q110 0 203 -24t164 -71.5t111 -124.5t40 -176q0 -57 -14.5 -110.5t-37.5 -99.5t-65 -95.5t-84.5 -89.5t-108 -90.5t-123.5 -90.5t-143 -97h570v-324h-1100v301q32 23 125 85.5t158 107t154 114.5t145 125.5t96.5 120t40.5 117.5q0 70 -42.5 104.5t-111.5 34.5
q-89 0 -143.5 -63.5t-60.5 -186.5l-363 4q3 253 157 391t433 138z" />
    <glyph glyph-name="three" unicode="3" horiz-adv-x="1282" 
d="M633 258q89 0 134.5 36.5t45.5 94.5q0 76 -64.5 108.5t-201.5 32.5h-58v306h62q110 0 167.5 42t57.5 113q0 57 -47 88t-113 31q-84 0 -142 -45t-64 -139l-371 43q26 201 184 312.5t424 111.5q232 0 375 -100.5t143 -272.5q0 -105 -52 -191.5t-128 -121.5
q101 -33 161 -116t60 -200q0 -99 -47 -179.5t-127.5 -131t-183.5 -78t-219 -27.5q-258 0 -419.5 128t-180.5 331l368 37q32 -213 236 -213z" />
    <glyph glyph-name="four" unicode="4" horiz-adv-x="1273" 
d="M666 907l-275 -319h275v319zM1260 588v-324h-213v-264h-381v264h-652v287l699 809h334v-772h213z" />
    <glyph glyph-name="five" unicode="5" horiz-adv-x="1343" 
d="M664 258q98 0 154 54.5t56 142.5q0 87 -53.5 143.5t-144.5 56.5q-155 0 -215 -110l-340 28l104 787h951v-322h-631l-31 -194q99 94 301 94q200 0 326.5 -131t126.5 -350q0 -224 -159.5 -353t-422.5 -129q-246 0 -411 108.5t-195 319.5l364 56q14 -91 72 -146t148 -55z
" />
    <glyph glyph-name="six" unicode="6" horiz-adv-x="1310" 
d="M467 457q0 -93 55 -146t135 -53q79 0 133 53t54 146q0 91 -55 142.5t-132 51.5q-81 0 -135.5 -51.5t-54.5 -142.5zM676 1110q-95 0 -157.5 -76.5t-61.5 -206.5q104 107 319 107q83 0 162 -28.5t146.5 -84t109 -148.5t41.5 -210q0 -154 -75.5 -265.5t-205 -167
t-297.5 -55.5q-188 0 -320.5 84.5t-197.5 235t-65 356.5q0 128 23.5 239.5t73.5 204t122.5 159t175 103t227.5 36.5q234 0 367.5 -111t138.5 -285l-352 -2q-9 56 -57 85.5t-117 29.5z" />
    <glyph glyph-name="seven" unicode="7" horiz-adv-x="1077" 
d="M-6 1038v322h1114v-322q-290 -192 -428 -441t-131 -597h-418q-4 133 27 265.5t86 244t131.5 213t160.5 179.5t175 136h-717z" />
    <glyph glyph-name="eight" unicode="8" horiz-adv-x="1359" 
d="M680 1393q132 0 238 -30.5t173 -82.5t102.5 -118.5t35.5 -141.5q0 -87 -36.5 -163.5t-102.5 -123.5q182 -114 182 -325q0 -189 -163 -311t-429 -122t-429 122t-163 311q0 211 182 325q-66 47 -102.5 123.5t-36.5 163.5q0 156 146 264.5t403 108.5zM680 596
q-88 0 -145.5 -48.5t-57.5 -119.5q0 -77 56.5 -123.5t146.5 -46.5t146.5 46.5t56.5 123.5q0 71 -57.5 119.5t-145.5 48.5zM852 973q0 61 -49.5 99t-122.5 38t-122.5 -38t-49.5 -99t49.5 -100t122.5 -39t122.5 39t49.5 100z" />
    <glyph glyph-name="nine" unicode="9" horiz-adv-x="1304" 
d="M831 911q0 93 -55 146t-135 53q-79 0 -132.5 -53t-53.5 -146q0 -91 54.5 -142.5t131.5 -51.5q81 0 135.5 51.5t54.5 142.5zM623 258q95 0 157.5 76.5t61.5 206.5q-104 -107 -320 -107q-83 0 -162 28.5t-146.5 84t-109 148.5t-41.5 210q0 153 76 265t203 167.5t289 55.5
q294 0 444 -177.5t150 -498.5q0 -161 -37.5 -294.5t-111.5 -234.5t-193.5 -157t-274.5 -56q-235 0 -371 111.5t-141 284.5l353 2q9 -56 57 -85.5t117 -29.5z" />
    <glyph glyph-name="colon" unicode=":" horiz-adv-x="598" 
d="M92 0v399h414v-399h-414zM92 604v400h414v-400h-414z" />
    <glyph glyph-name="semicolon" unicode=";" horiz-adv-x="598" 
d="M92 604v400h414v-400h-414zM92 0v399h414v-422l-166 -294h-281l140 317h-107z" />
    <glyph glyph-name="less" unicode="&#x3c;" horiz-adv-x="1222" 
d="M61 676l1080 377v-369l-604 -174l604 -174v-369l-1080 377v332z" />
    <glyph glyph-name="equal" unicode="=" horiz-adv-x="1241" 
d="M1159 571h-1077v332h1077v-332zM1159 127h-1077v332h1077v-332z" />
    <glyph glyph-name="greater" unicode="&#x3e;" horiz-adv-x="1222" 
d="M1161 676v-332l-1079 -377v369l604 174l-604 174v369z" />
    <glyph glyph-name="question" unicode="?" horiz-adv-x="1198" 
d="M629 1393q148 0 266.5 -41t192 -127.5t73.5 -206.5q0 -70 -22 -127.5t-62 -98.5t-79.5 -68t-90.5 -52q-39 -19 -59 -29t-44 -25t-34.5 -26.5t-21 -28t-14 -35.5t-3.5 -45q0 -20 2 -32h-397q-6 50 -6 92q0 114 54.5 191.5t184.5 131.5q51 21 79 34t60.5 32t47 38.5
t14.5 41.5q0 50 -48 74t-112 24q-93 0 -156 -52t-63 -149l-377 9q0 122 46 214t129.5 148.5t194 84.5t245.5 28zM330 0v399h413v-399h-413z" />
    <glyph glyph-name="at" unicode="@" horiz-adv-x="1615" 
d="M1112 266h-2l78 -184q-110 -49 -237 -77t-224 -28q-151 0 -280 51t-219 140t-140.5 213t-50.5 268q0 196 100.5 357t275.5 252.5t388 91.5q116 0 218.5 -22.5t189.5 -70.5t150 -117.5t98.5 -169t35.5 -220.5q0 -112 -33 -205.5t-87 -153t-122 -92.5t-139 -33zM727 193
q170 0 348 75q-112 16 -162 109q-97 -105 -264 -105q-64 0 -119 21t-99 63t-69.5 111.5t-25.5 159.5q0 84 29 163.5t81 143t132.5 101.5t175.5 38q107 0 182 -65l8 34h191q-128 103 -336 103q-154 0 -275 -65.5t-186.5 -178.5t-65.5 -254q0 -201 122 -327.5t333 -126.5z
M1266 743q0 173 -111 281l-55 -408q-6 -41 -6 -65q0 -76 41 -76q55 0 93 73t38 195zM756 858q-79 0 -126.5 -68.5t-47.5 -164.5q0 -142 108 -142q84 0 132 71t48 175q0 61 -30 95t-84 34z" />
    <glyph glyph-name="A" unicode="A" horiz-adv-x="1417" 
d="M-10 0l499 1360h437l501 -1360h-432l-75 229h-431l-75 -229h-424zM707 889l-107 -322h211z" />
    <glyph glyph-name="B" unicode="B" horiz-adv-x="1370" 
d="M123 0v1360h606q98 0 174.5 -9t147 -34t117 -65t73.5 -104.5t27 -150.5t-25.5 -148t-83.5 -116q160 -95 160 -299q0 -434 -565 -434h-631zM520 526v-184h244q70 0 104.5 21.5t34.5 70.5t-34.5 70.5t-104.5 21.5h-244zM520 1018v-174h219q119 0 119 86q0 88 -119 88h-219z
" />
    <glyph glyph-name="C" unicode="C" horiz-adv-x="1452" 
d="M1028 547l391 -58q-41 -244 -228.5 -384t-457.5 -140q-323 0 -507.5 192t-184.5 529q0 331 188 519t512 188q263 0 445.5 -142.5t222.5 -382.5l-391 -57q-17 105 -86.5 176.5t-188.5 71.5q-126 0 -206 -96t-80 -277q0 -188 80 -287.5t215 -99.5q107 0 181.5 67t94.5 181z
" />
    <glyph glyph-name="D" unicode="D" horiz-adv-x="1415" 
d="M958 680q0 62 -12 111.5t-32 84.5t-51 61t-64.5 41t-77.5 24.5t-85.5 12.5t-92.5 3h-23v-676h23q51 0 92.5 3t85.5 12.5t77.5 24.5t64.5 41t51 61t32 84.5t12 111.5zM123 1360h414q140 0 258.5 -20t227.5 -68.5t185 -124.5t121 -195t45 -272t-45 -272t-121 -195
t-185 -124.5t-227.5 -68.5t-258.5 -20h-414v1360z" />
    <glyph glyph-name="E" unicode="E" horiz-adv-x="1300" 
d="M123 0v1360h1091v-342h-694v-164h660v-342h-660v-170h703v-342h-1100z" />
    <glyph glyph-name="F" unicode="F" horiz-adv-x="1144" 
d="M123 0v1360h1001v-342h-604v-164h567v-342h-567v-512h-397z" />
    <glyph glyph-name="G" unicode="G" horiz-adv-x="1511" 
d="M745 1393q156 0 286.5 -49.5t226 -151t133.5 -244.5l-392 -67q-22 76 -81 127t-166 51q-139 0 -217 -97t-78 -274q0 -178 76 -278.5t223 -100.5q121 0 188.5 56t67.5 120v2h-299v301h686v-788h-312l-2 147q-121 -172 -397 -172q-297 0 -472 192t-175 521q0 327 189 516
t515 189z" />
    <glyph glyph-name="H" unicode="H" horiz-adv-x="1515" 
d="M995 1360h398v-1360h-398v512h-475v-512h-397v1360h397v-506h475v506z" />
    <glyph glyph-name="I" unicode="I" horiz-adv-x="643" 
d="M520 1360v-1360h-397v1360h397z" />
    <glyph glyph-name="J" unicode="J" horiz-adv-x="761" 
d="M61 0v342h68q60 0 86.5 18t26.5 62v938h397v-957q0 -97 -13 -164.5t-40.5 -115t-76.5 -74t-113.5 -38t-159.5 -11.5h-175z" />
    <glyph glyph-name="K" unicode="K" horiz-adv-x="1400" 
d="M520 1360v-477l398 477h481l-473 -543l493 -817h-469l-295 510l-135 -156v-354h-397v1360h397z" />
    <glyph glyph-name="L" unicode="L" horiz-adv-x="1163" 
d="M520 1360v-1018h643v-342h-1040v1360h397z" />
    <glyph glyph-name="M" unicode="M" horiz-adv-x="1869" 
d="M1114 0h-356l-238 909v-909h-397v1360h641l176 -799l172 799h635v-1360h-397v915z" />
    <glyph glyph-name="N" unicode="N" horiz-adv-x="1525" 
d="M1403 0h-518l-365 858v-858h-397v1360h518l365 -858v858h397v-1360z" />
    <glyph glyph-name="O" unicode="O" horiz-adv-x="1527" 
d="M1073 686q0 98 -25.5 172.5t-69.5 117t-97.5 63t-116.5 20.5t-116.5 -20.5t-97.5 -63t-69.5 -117t-25.5 -172.5t25.5 -173t69.5 -118t98 -64.5t116 -21.5t116 21.5t98 64.5t69.5 118t25.5 173zM1487 686q0 -223 -93 -385t-255.5 -244t-374.5 -82t-374.5 82t-255.5 244
t-93 385q0 167 53.5 301.5t149.5 223t228.5 135.5t291.5 47t291.5 -47t228.5 -135.5t149.5 -223t53.5 -301.5z" />
    <glyph glyph-name="P" unicode="P" horiz-adv-x="1323" 
d="M123 1360h561q114 0 204.5 -12.5t172.5 -44.5t136.5 -83.5t86 -134t31.5 -192.5t-32 -192t-86 -133.5t-136 -83.5t-172.5 -44t-204.5 -12h-164v-428h-397v1360zM721 1018h-201v-248h201q92 0 136 26.5t44 96.5q0 71 -44 98t-136 27z" />
    <glyph glyph-name="Q" unicode="Q" horiz-adv-x="1548" 
d="M1487 686q0 -178 -61 -318t-171 -233l125 -172l-241 -168l-152 207q-118 -27 -223 -27q-212 0 -374.5 82t-255.5 244t-93 385q0 167 53.5 301.5t149.5 223t228.5 135.5t291.5 47t291.5 -47t228.5 -135.5t149.5 -223t53.5 -301.5zM1073 686q0 98 -25.5 172.5t-69.5 117
t-97.5 63t-116.5 20.5t-116.5 -20.5t-97.5 -63t-69.5 -117t-25.5 -172.5t25.5 -173t69.5 -118t98 -64.5t116 -21.5h2l-104 146l237 176l125 -174q49 90 49 229z" />
    <glyph glyph-name="R" unicode="R" horiz-adv-x="1427" 
d="M961 0l-273 465h-168v-465h-397v1360h571q114 0 204.5 -12t172.5 -42.5t136.5 -80t86 -128t31.5 -182.5q0 -266 -246 -380l328 -535h-446zM739 1018h-219v-211h219q90 0 131 23.5t41 80.5q0 58 -41.5 82.5t-130.5 24.5z" />
    <glyph glyph-name="S" unicode="S" horiz-adv-x="1343" 
d="M88 956q0 108 50 193.5t134.5 137.5t187.5 79t216 27q328 0 604 -154l-166 -309q-87 54 -206.5 91.5t-245.5 37.5q-75 0 -120.5 -21.5t-45.5 -58.5q0 -65 112 -88l205 -43q70 -15 124.5 -31t112 -39.5t98.5 -54t74.5 -71t50.5 -94.5t17 -120q0 -114 -47 -203.5
t-129.5 -145.5t-191 -85t-236.5 -29q-390 0 -661 199l196 301q95 -71 214.5 -116.5t244.5 -45.5q88 0 144.5 20t56.5 58q0 39 -51.5 66.5t-153.5 48.5l-156 33q-69 14 -128.5 35t-117 56t-97.5 79t-64.5 107.5t-24.5 139.5z" />
    <glyph glyph-name="T" unicode="T" horiz-adv-x="1243" 
d="M422 0v1018h-412v342h1223v-342h-414v-1018h-397z" />
    <glyph glyph-name="U" unicode="U" horiz-adv-x="1449" 
d="M102 1360h402v-789q0 -137 50 -199.5t175 -62.5q122 0 172.5 66.5t50.5 195.5v789h396v-750q0 -329 -143.5 -482t-475.5 -153q-166 0 -281.5 33t-194 106.5t-115 192.5t-36.5 291v762z" />
    <glyph glyph-name="V" unicode="V" horiz-adv-x="1335" 
d="M-10 1360h432l248 -889l252 889h424l-459 -1360h-436z" />
    <glyph glyph-name="W" unicode="W" horiz-adv-x="1873" 
d="M1153 1360l172 -850l109 850h421l-270 -1360h-463l-184 922l-186 -922h-461l-273 1360h422l121 -838l160 838h432z" />
    <glyph glyph-name="X" unicode="X" horiz-adv-x="1384" 
d="M-20 0l483 684l-469 676h471l235 -340l240 340h451l-469 -662l483 -698h-469l-252 362l-256 -362h-448z" />
    <glyph glyph-name="Y" unicode="Y" horiz-adv-x="1390" 
d="M-31 1360h467l258 -481l262 481h465l-534 -848v-512h-398v516z" />
    <glyph glyph-name="Z" unicode="Z" horiz-adv-x="1308" 
d="M1217 1360v-342l-685 -676h709v-342h-1192v342l684 676h-629v342h1113z" />
    <glyph glyph-name="bracketleft" unicode="[" horiz-adv-x="681" 
d="M102 1360h570v-299h-219v-1116h219v-299h-570v1714z" />
    <glyph glyph-name="backslash" unicode="\" horiz-adv-x="952" 
d="M397 1360l555 -1360h-395l-557 1360h397z" />
    <glyph glyph-name="bracketright" unicode="]" horiz-adv-x="681" 
d="M10 1360h570v-1714h-570v299h219v1116h-219v299z" />
    <glyph glyph-name="asciicircum" unicode="^" horiz-adv-x="1138" 
d="M760 1360l358 -737h-358l-191 434l-190 -434h-359l359 737h381z" />
    <glyph glyph-name="underscore" unicode="_" horiz-adv-x="993" 
d="M973 -332h-953v332h953v-332z" />
    <glyph glyph-name="grave" unicode="`" horiz-adv-x="698" 
d="M332 1118l-271 242h396l180 -242h-305z" />
    <glyph glyph-name="a" unicode="a" horiz-adv-x="1181" 
d="M449 680h-357q35 346 535 346q233 0 345 -95t111 -306l-2 -213q-3 -177 19 -412h-342l-2 117q-86 -142 -314 -142q-176 0 -279.5 99t-103.5 239q0 136 95 211q66 54 181 80.5t267 42.5l113 12v21q0 48 -31 71t-100 23q-128 0 -135 -94zM725 377v61l-123 -12
q-87 -9 -123.5 -32.5t-36.5 -63.5q0 -39 29 -66.5t84 -27.5q78 0 124 37t46 104z" />
    <glyph glyph-name="b" unicode="b" 
d="M113 0v1360h381v-459q36 56 106 90.5t170 34.5q186 0 306 -141t120 -385q0 -122 -34 -222.5t-93 -166t-138 -101t-169 -35.5q-89 0 -159 31.5t-109 93.5v-100h-381zM651 743q-77 0 -123.5 -70t-46.5 -173q0 -102 46.5 -172t123.5 -70q76 0 115 71.5t39 172.5
q0 99 -39 170t-115 71z" />
    <glyph glyph-name="c" unicode="c" horiz-adv-x="1157" 
d="M596 1026q216 0 352 -103.5t178 -269.5l-350 -53q-29 145 -160 145q-176 0 -176 -243q0 -111 41.5 -178.5t132.5 -67.5q137 0 166 145l350 -53q-42 -165 -180 -269t-350 -104q-264 0 -406.5 143t-142.5 382q0 237 149.5 381.5t395.5 144.5z" />
    <glyph glyph-name="d" unicode="d" 
d="M1135 1360v-1360h-381v100q-36 -56 -106.5 -90.5t-170.5 -34.5q-185 0 -305.5 141.5t-120.5 385.5q0 122 34 222t93 165.5t138 101t169 35.5q89 0 159.5 -32t109.5 -93v459h381zM596 258q77 0 123.5 70.5t46.5 173.5q0 102 -46.5 171.5t-123.5 69.5q-76 0 -115 -71
t-39 -172q0 -99 39 -170.5t115 -71.5z" />
    <glyph glyph-name="e" unicode="e" horiz-adv-x="1204" 
d="M610 -25q-264 0 -411.5 147t-147.5 386q0 234 155.5 376t403.5 142q276 0 420.5 -167t118.5 -449h-715q8 -73 54.5 -113.5t127.5 -40.5q124 0 170 106l357 -53q-22 -63 -60 -117.5t-99.5 -105.5t-158 -81t-215.5 -30zM608 776q-65 0 -114 -33t-60 -112h340
q-4 74 -51.5 109.5t-114.5 35.5z" />
    <glyph glyph-name="f" unicode="f" horiz-adv-x="735" 
d="M131 1004v36q0 102 18.5 164t66 97t114.5 47t180 12h205v-277h-129q-42 0 -57 -12.5t-15 -50.5v-16h201v-261h-203v-743h-381v743h-127v261h127z" />
    <glyph glyph-name="g" unicode="g" 
d="M754 39v102q-36 -56 -106.5 -90.5t-170.5 -34.5q-188 0 -307 132t-119 374q0 122 34 219t93.5 158.5t137.5 94t169 32.5q89 0 159.5 -32t109.5 -93v103h381v-902q0 -160 -40 -248.5t-116 -140.5q-137 -92 -371 -92q-452 0 -520 326l352 18q16 -92 148 -92q90 0 129 39
q37 37 37 127zM596 299q79 0 124.5 61t45.5 162q0 99 -45.5 160t-124.5 61q-77 0 -115.5 -62.5t-38.5 -160.5q0 -96 38.5 -158.5t115.5 -62.5z" />
    <glyph glyph-name="h" unicode="h" horiz-adv-x="1243" 
d="M494 1360v-469q99 135 315 135q175 0 260 -94q82 -88 82 -326v-606h-381v535q0 107 -29 147q-31 39 -96 39q-151 0 -151 -205v-516h-381v1360h381z" />
    <glyph glyph-name="i" unicode="i" horiz-adv-x="606" 
d="M113 1004h381v-1004h-381v1004zM113 1360h381v-291h-381v291z" />
    <glyph glyph-name="j" unicode="j" horiz-adv-x="606" 
d="M113 -6v1010h381v-1016q0 -85 -13 -143.5t-39 -98t-73 -61t-107 -30.5t-149 -9h-144v276h68q40 0 58 15t18 57zM113 1360h381v-291h-381v291z" />
    <glyph glyph-name="k" unicode="k" horiz-adv-x="1243" 
d="M113 1360h381v-662l282 306h467l-373 -379l383 -625h-432l-215 356l-112 -114v-242h-381v1360z" />
    <glyph glyph-name="l" unicode="l" horiz-adv-x="606" 
d="M494 1360v-1360h-381v1360h381z" />
    <glyph glyph-name="m" unicode="m" horiz-adv-x="1867" 
d="M113 0v1004h381v-113q92 135 305 135q114 0 184 -42t104 -130q59 84 143.5 128t211.5 44q172 0 254 -94q80 -92 80 -324v-608h-381v526q0 122 -35 162q-26 33 -82 33q-71 0 -107 -48t-36 -157v-516h-381v526q0 122 -35 162q-26 33 -82 33q-71 0 -107 -48t-36 -157v-516
h-381z" />
    <glyph glyph-name="n" unicode="n" horiz-adv-x="1243" 
d="M494 1004v-113q99 135 315 135q175 0 260 -94q82 -88 82 -326v-606h-381v535q0 107 -29 147q-31 39 -96 39q-151 0 -151 -205v-516h-381v1004h381z" />
    <glyph glyph-name="o" unicode="o" horiz-adv-x="1216" 
d="M442 500q0 -122 45 -182t121 -60t121 60t45 182t-45 182.5t-121 60.5t-121 -60.5t-45 -182.5zM51 500q0 105 29 192.5t80 148.5t121.5 103t152.5 62t174 20t174 -20t152.5 -62t121.5 -103t80 -148.5t29 -192.5q0 -131 -44 -233t-121 -165t-176.5 -95t-215.5 -32
t-215.5 32t-176.5 95t-121 165t-44 233z" />
    <glyph glyph-name="p" unicode="p" 
d="M494 100v-454h-381v1358h381v-103q36 56 106 90.5t170 34.5q186 0 306 -141t120 -385q0 -122 -34 -222.5t-93 -166t-138 -101t-169 -35.5q-89 0 -159 31.5t-109 93.5zM651 743q-77 0 -123.5 -70t-46.5 -173q0 -102 46.5 -172t123.5 -70q76 0 115 71.5t39 172.5
q0 99 -39 170t-115 71z" />
    <glyph glyph-name="q" unicode="q" 
d="M754 901v103h381v-1358h-381v454q-36 -56 -106.5 -90.5t-170.5 -34.5q-185 0 -305.5 141.5t-120.5 385.5q0 122 34 222t93 165.5t138 101t169 35.5q89 0 159.5 -32t109.5 -93zM596 258q77 0 123.5 70.5t46.5 173.5q0 102 -46.5 171.5t-123.5 69.5q-76 0 -115 -71
t-39 -172q0 -99 39 -170.5t115 -71.5z" />
    <glyph glyph-name="r" unicode="r" horiz-adv-x="817" 
d="M791 1010v-373q-74 12 -121 12q-176 0 -176 -139v-510h-381v1004h370v-140q21 52 64 86.5t93.5 48t109.5 13.5q29 0 41 -2z" />
    <glyph glyph-name="s" unicode="s" horiz-adv-x="1107" 
d="M1047 924l-125 -262q-75 37 -171.5 61.5t-187.5 24.5q-96 0 -96 -37q0 -40 80 -54l133 -24q91 -17 155.5 -38t118.5 -55.5t81.5 -87t27.5 -122.5q0 -176 -130 -265.5t-360 -89.5q-319 0 -534 131l145 261q179 -111 373 -111q133 0 133 47q0 23 -25 33t-94 22l-108 21
q-365 66 -365 326q0 102 67.5 176t176.5 109.5t244 35.5q137 0 262 -30.5t199 -71.5z" />
    <glyph glyph-name="t" unicode="t" horiz-adv-x="798" 
d="M168 1004v303h381v-303h203v-261h-203v-395q0 -42 17.5 -57t56.5 -15h129v-276h-205q-78 0 -127 3.5t-96 14.5t-73 31t-47 55t-28.5 84.5t-7.5 120.5v434h-168v261h168z" />
    <glyph glyph-name="u" unicode="u" horiz-adv-x="1226" 
d="M733 0v119q-87 -144 -295 -144q-186 0 -268 101q-78 93 -78 325v603h381v-537q0 -108 29 -148q28 -38 94 -38q67 0 102 48t35 158v517h381v-1004h-381z" />
    <glyph glyph-name="v" unicode="v" horiz-adv-x="1120" 
d="M408 1004l163 -625l154 625h395l-344 -1004h-422l-354 1004h408z" />
    <glyph glyph-name="w" unicode="w" horiz-adv-x="1673" 
d="M530 379l113 625h395l127 -625l113 625h395l-303 -1004h-414l-114 573l-111 -573h-418l-313 1004h408z" />
    <glyph glyph-name="x" unicode="x" horiz-adv-x="1191" 
d="M1190 1004l-383 -490l395 -514h-426l-184 238l-184 -238h-418l395 506l-381 498h430l168 -222l172 222h416z" />
    <glyph glyph-name="y" unicode="y" horiz-adv-x="1118" 
d="M248 -354h-137v276h116q63 0 91.5 11t41.5 49l5 12l-365 1010h408l157 -635l158 635h395l-387 -1022q-74 -196 -174 -266t-309 -70z" />
    <glyph glyph-name="z" unicode="z" horiz-adv-x="1101" 
d="M45 0v258l516 487h-477v259h954v-259l-516 -487h539v-258h-1016z" />
    <glyph glyph-name="braceleft" unicode="{" horiz-adv-x="729" 
d="M565 -354q-111 0 -179.5 13.5t-115.5 52t-65.5 104t-18.5 172.5v180q0 101 -28.5 149t-116.5 48v278q88 0 116.5 48t28.5 149v178q0 107 18.5 172.5t65.5 104t115.5 52t179.5 13.5h164v-277h-88q-39 0 -55.5 -14.5t-16.5 -56.5v-221q0 -72 -15 -124.5t-44 -84t-60 -48.5
t-73 -28v-4q42 -11 73 -28t60 -48t44 -83t15 -124v-225q0 -42 16.5 -57t55.5 -15h88v-276h-164z" />
    <glyph glyph-name="bar" unicode="|" horiz-adv-x="546" 
d="M102 1360h342v-1532h-342v1532z" />
    <glyph glyph-name="braceright" unicode="}" horiz-adv-x="729" 
d="M0 -354v276h88q39 0 55.5 15t16.5 57v225q0 72 15 124t44 83t60 48t73 28v4q-42 11 -73 28t-60 48.5t-44 84t-15 124.5v221q0 42 -16.5 56.5t-55.5 14.5h-88v277h164q111 0 179.5 -13.5t115.5 -52t65.5 -104t18.5 -172.5v-178q0 -101 28.5 -149t116.5 -48v-278
q-88 0 -116.5 -48t-28.5 -149v-180q0 -107 -18.5 -172.5t-65.5 -104t-115.5 -52t-179.5 -13.5h-164z" />
    <glyph glyph-name="asciitilde" unicode="~" horiz-adv-x="1159" 
d="M758 606q32 0 45 24.5t14 90.5h281q0 -208 -67 -318t-216 -110q-57 0 -122.5 18.5t-113.5 40t-97 40t-76 18.5q-34 0 -48.5 -25t-15.5 -92h-281q0 207 68 317.5t219 110.5q58 0 127.5 -18t119.5 -39.5t97 -39.5t66 -18z" />
    <glyph glyph-name="exclamdown" unicode="&#xa1;" horiz-adv-x="645" 
d="M553 -78v-276h-461v276l84 633h293zM113 1004h413v-400h-413v400z" />
    <glyph glyph-name="cent" unicode="&#xa2;" horiz-adv-x="1150" 
d="M1120 653l-350 -53q-25 120 -119 141v-481q97 19 123 141l350 -53q-40 -155 -161.5 -256.5t-311.5 -114.5v-180h-102v180q-241 13 -369.5 154t-128.5 369q0 224 136 367t362 157v180h102v-180q190 -13 309 -114.5t160 -256.5zM434 502q0 -196 115 -238v471
q-115 -38 -115 -233z" />
    <glyph glyph-name="sterling" unicode="&#xa3;" horiz-adv-x="1314" 
d="M696 1110q-69 0 -117.5 -31t-48.5 -90q0 -23 5.5 -47.5t19.5 -54.5t23 -47t31.5 -55t29.5 -50h313v-143h-254q4 -28 4 -41q0 -116 -149 -221l2 -4q51 18 125 18q70 0 145.5 -21.5t114.5 -21.5q84 0 229 64l123 -308q-194 -80 -381 -80q-70 0 -206.5 36t-208.5 36
q-131 0 -289 -84l-141 285q137 63 198.5 123.5t61.5 152.5q0 29 -13 66h-231v143h158q-32 55 -49.5 89t-34.5 88t-17 102q0 97 48.5 172.5t129.5 119t177.5 65.5t201.5 22q271 0 428.5 -140.5t157.5 -388.5l-362 -4q-6 123 -66 186.5t-158 63.5z" />
    <glyph glyph-name="currency" unicode="&#xa4;" horiz-adv-x="1210" 
d="M150 659q0 149 83 265l-131 133l95 92l129 -129q121 94 274 94q154 0 281 -96l133 131l94 -92l-135 -135q82 -119 82 -263q0 -143 -84 -260l137 -137l-94 -92l-135 133q-124 -94 -279 -94q-152 0 -272 90l-131 -129l-95 92l131 133q-83 116 -83 264zM444 659
q0 -72 43.5 -118.5t112.5 -46.5q73 0 118.5 46.5t45.5 118.5q0 75 -45.5 123.5t-118.5 48.5q-69 0 -112.5 -48.5t-43.5 -123.5z" />
    <glyph glyph-name="yen" unicode="&#xa5;" horiz-adv-x="1353" 
d="M1126 131h-266v-131h-381v131h-266v150h266v122h-266v152h244l-457 805h420l258 -502l262 502h414l-469 -805h241v-152h-266v-122h266v-150z" />
    <glyph glyph-name="brokenbar" unicode="&#xa6;" horiz-adv-x="546" 
d="M102 1360h342v-625h-342v625zM102 455h342v-625h-342v625z" />
    <glyph glyph-name="section" unicode="&#xa7;" horiz-adv-x="1320" 
d="M664 -113q52 0 88 19t36 53q0 19 -12.5 36.5t-41 35.5t-51 29.5t-65.5 31.5l-243 115q-160 75 -242 163.5t-82 202.5q0 77 48 148.5t134 118.5q-77 96 -77 213q0 106 68.5 184.5t178.5 117t244 38.5q216 0 356.5 -99.5t172.5 -279.5l-373 -23q-32 127 -176 127
q-49 0 -80 -15.5t-31 -37.5q0 -26 35 -50.5t106 -58.5l261 -122q178 -84 265 -166.5t87 -196.5q0 -94 -51.5 -167.5t-135.5 -121.5q72 -84 72 -196q0 -117 -69 -203t-182 -128t-253 -42q-232 0 -376.5 115t-168.5 303l373 18q16 -90 63 -126t122 -36zM748 543l-275 129
q-47 -32 -47 -66q0 -29 33 -54t100 -58l256 -125q14 -9 21 -11q53 32 53 70q0 28 -31 53t-110 62z" />
    <glyph glyph-name="dieresis" unicode="&#xa8;" horiz-adv-x="843" 
d="M20 1118v242h326v-242h-326zM500 1360h323v-242h-323v242z" />
    <glyph glyph-name="copyright" unicode="&#xa9;" horiz-adv-x="1570" 
d="M82 678q0 204 94.5 366.5t255 251t354.5 88.5q144 0 273 -52.5t224 -144t150.5 -224t55.5 -285.5q0 -204 -95 -366t-255 -249.5t-353 -87.5q-195 0 -355 87.5t-254.5 249.5t-94.5 366zM238 678q0 -247 156.5 -404t391.5 -157q237 0 392 156.5t155 404.5q0 165 -71.5 294
t-195.5 199t-280 70q-154 0 -278.5 -70t-197 -199t-72.5 -294zM788 457q69 0 117 35t62 108l194 -45q-33 -117 -134.5 -189.5t-244.5 -72.5q-174 0 -275 107.5t-101 279.5t105 277.5t277 105.5q139 0 239.5 -76t125.5 -196l-192 -50q-8 68 -56 114t-117 46q-76 0 -126 -58.5
t-50 -162.5t49 -163.5t127 -59.5z" />
    <glyph glyph-name="ordfeminine" unicode="&#xaa;" horiz-adv-x="661" 
d="M250 1196h-203q22 197 305 197q132 0 195.5 -54.5t62.5 -175.5v-121q-3 -89 11 -235h-195l-2 67q-49 -81 -176 -81q-100 0 -159.5 56.5t-59.5 135.5q0 78 53 121q70 55 256 72l63 6v12q0 53 -73 53t-78 -53zM408 1022v35l-70 -6q-50 -6 -70 -19.5t-20 -36.5
q0 -22 15.5 -37.5t47.5 -15.5q44 0 70.5 21t26.5 59z" />
    <glyph glyph-name="guillemotleft" unicode="&#xab;" horiz-adv-x="1228" 
d="M315 57l-321 445l321 438h334l-227 -440l225 -443h-332zM854 57l-319 445l319 438h334l-232 -440l230 -443h-332z" />
    <glyph glyph-name="logicalnot" unicode="&#xac;" horiz-adv-x="1200" 
d="M758 522h-697v332h1078v-657h-381v325z" />
    <glyph glyph-name="registered" unicode="&#xae;" horiz-adv-x="1570" 
d="M82 678q0 204 94.5 366.5t255 251t354.5 88.5q144 0 273 -52.5t224 -144t150.5 -224t55.5 -285.5q0 -204 -95 -366t-255 -249.5t-353 -87.5q-195 0 -355 87.5t-254.5 249.5t-94.5 366zM238 678q0 -247 156.5 -404t391.5 -157q237 0 392 156.5t155 404.5q0 165 -71.5 294
t-195.5 199t-280 70q-154 0 -278.5 -70t-197 -199t-72.5 -294zM764 596h-98v-268h-201v749h299q63 0 113 -6.5t95 -23.5t75 -44t47.5 -70.5t17.5 -101.5q0 -152 -137 -204l182 -299h-225l-158 268h-10zM909 831q0 36 -24 63.5t-70 27.5h-149v-170h149q47 0 70.5 22t23.5 57z
" />
    <glyph glyph-name="macron" unicode="&#xaf;" horiz-adv-x="677" 
d="M637 1126h-596v226h596v-226z" />
    <glyph glyph-name="degree" unicode="&#xb0;" horiz-adv-x="710" 
d="M20 1047q0 139 98 237t236 98q140 0 238 -98t98 -237q0 -138 -98.5 -236t-237.5 -98q-138 0 -236 98t-98 236zM215 1047q0 -63 39.5 -106.5t99.5 -43.5q62 0 103 44t41 106q0 64 -41 107.5t-103 43.5q-61 0 -100 -43.5t-39 -107.5z" />
    <glyph glyph-name="plusminus" unicode="&#xb1;" horiz-adv-x="1282" 
d="M451 852v152h380v-152h369v-332h-369v-153h-380v153h-369v332h369zM1200 0h-1118v332h1118v-332z" />
    <glyph glyph-name="two.superior" unicode="&#xb2;" horiz-adv-x="688" 
d="M356 1622q131 0 213 -56.5t82 -168.5q0 -38 -9.5 -71.5t-32 -66t-46.5 -59t-67 -60t-78 -58t-94 -64.5h323v-184h-624v172q20 14 86.5 58t111.5 76.5t98.5 77t82 86.5t28.5 78q0 40 -23.5 60t-62.5 20q-51 0 -82.5 -36.5t-34.5 -106.5l-207 2q3 145 90.5 223t245.5 78z
" />
    <glyph glyph-name="three.superior" unicode="&#xb3;" horiz-adv-x="735" 
d="M369 981q50 0 76 20.5t26 53.5q0 45 -37 65.5t-115 20.5h-32v174h35q129 0 129 80q0 32 -27 49.5t-64 17.5q-47 0 -78 -26t-34 -80l-211 24q15 115 102 178.5t238 63.5q133 0 214 -56.5t81 -154.5q0 -60 -29.5 -105t-73.5 -65q57 -19 91 -67.5t34 -116.5
q0 -112 -94.5 -175t-232.5 -63q-148 0 -238.5 72.5t-101.5 189.5l209 21q20 -121 133 -121z" />
    <glyph glyph-name="acute" unicode="&#xb4;" horiz-adv-x="698" 
d="M637 1360l-270 -242h-306l181 242h395z" />
    <glyph glyph-name="mu" unicode="&#xb5;" horiz-adv-x="1226" 
d="M80 -354q22 129 22 245v1113h381v-537q0 -103 31 -144.5t92 -41.5q137 0 137 186v537h381v-1004h-381v119q-80 -130 -260 -142v-57q0 -142 -22 -274h-381z" />
    <glyph glyph-name="mu" unicode="&#x3bc;" horiz-adv-x="1226" 
d="M80 -354q22 129 22 245v1113h381v-537q0 -103 31 -144.5t92 -41.5q137 0 137 186v537h381v-1004h-381v119q-80 -130 -260 -142v-57q0 -142 -22 -274h-381z" />
    <glyph glyph-name="paragraph" unicode="&#xb6;" horiz-adv-x="958" 
d="M0 1034q0 152 118.5 239t315.5 87h406v-1530h-156v1384h-213v-1384h-156v881q-57 6 -108.5 25t-100 55t-77.5 98.5t-29 144.5z" />
    <glyph glyph-name="periodcentered" unicode="&#xb7;" horiz-adv-x="598" 
d="M92 313v400h414v-400h-414z" />
    <glyph glyph-name="cedilla" unicode="&#xb8;" horiz-adv-x="526" 
d="M41 -356l33 102q52 -27 125 -27q92 0 92 56q0 26 -20.5 39.5t-55.5 13.5q-47 0 -74 -16l-57 32l98 158h117l-61 -98q27 6 69 6q43 0 81.5 -11.5t67.5 -42t29 -75.5q0 -83 -76.5 -123.5t-187.5 -40.5q-94 0 -180 27z" />
    <glyph glyph-name="one.superior" unicode="&#xb9;" horiz-adv-x="471" 
d="M395 834h-215v501h-174v158q100 3 148.5 29.5t70.5 87.5h170v-776z" />
    <glyph glyph-name="ordmasculine" unicode="&#xba;" horiz-adv-x="692" 
d="M252 1092q0 -69 25.5 -103.5t68.5 -34.5t68.5 34.5t25.5 103.5q0 71 -25.5 105t-68.5 34t-68.5 -34t-25.5 -105zM29 1092q0 148 89.5 224.5t227.5 76.5t227 -76.5t89 -224.5q0 -146 -89.5 -222.5t-226.5 -76.5q-138 0 -227.5 76.5t-89.5 222.5z" />
    <glyph glyph-name="guillemotright" unicode="&#xbb;" horiz-adv-x="1228" 
d="M1235 502l-322 -445h-331l225 443l-227 440h333zM694 502l-319 -445h-332l229 443l-231 440h334z" />
    <glyph glyph-name="onequarter" unicode="&#xbc;" horiz-adv-x="1882" 
d="M573 584h-215v501h-174v158q100 3 148.5 29.5t70.5 87.5h170v-776zM623 0h-316l953 1360h315zM1520 518l-156 -182h156v182zM1858 336v-184h-121v-152h-217v152h-371v163l397 461h191v-440h121z" />
    <glyph glyph-name="onehalf" unicode="&#xbd;" horiz-adv-x="1882" 
d="M573 584h-215v501h-174v158q100 3 148.5 29.5t70.5 87.5h170v-776zM623 0h-316l953 1360h315zM1524 788q131 0 213 -56.5t82 -168.5q0 -45 -16.5 -86.5t-40 -74t-71.5 -73t-88 -69t-112 -76.5h324v-184h-625v172q20 14 86.5 58.5t111 77t98.5 77t82.5 86.5t28.5 78
q0 40 -23.5 60t-62.5 20q-51 0 -82 -37t-34 -107l-207 2q3 145 90.5 223t245.5 78z" />
    <glyph glyph-name="threequarters" unicode="&#xbe;" horiz-adv-x="1882" 
d="M387 731q50 0 76 20.5t26 53.5q0 45 -37 65.5t-114 20.5h-33v174h35q129 0 129 80q0 32 -26.5 49.5t-63.5 17.5q-47 0 -78.5 -26t-34.5 -80l-211 24q15 115 102 178.5t238 63.5q133 0 214 -56.5t81 -154.5q0 -60 -29 -105t-73 -65q57 -19 91 -67.5t34 -116.5
q0 -112 -95 -175t-233 -63q-148 0 -238.5 72.5t-101.5 189.5l209 21q20 -121 133 -121zM307 0h316l952 1360h-315zM1364 336l156 182v-182h-156zM1858 152v184h-121v440h-191l-397 -461v-163h371v-152h217v152h121z" />
    <glyph glyph-name="questiondown" unicode="&#xbf;" horiz-adv-x="1228" 
d="M573 -375q-147 0 -266 44t-192.5 133.5t-73.5 209.5q0 56 16.5 103.5t38 78t60.5 60t66.5 45t72.5 37.5q109 52 142.5 84t33.5 104q0 21 -2 33h397q6 -50 6 -92q0 -114 -54.5 -192.5t-184.5 -131.5q-13 -5 -35.5 -14t-34.5 -14t-30.5 -13t-28.5 -13.5t-23.5 -13.5
t-21 -15t-14.5 -15.5t-10 -17.5t-3 -19q0 -50 48 -74t112 -24q93 0 156 52t63 149l377 -9q0 -122 -46 -214t-129.5 -148.5t-194 -84.5t-245.5 -28zM872 1006v-400h-413v400h413z" />
    <glyph glyph-name="Agrave" unicode="&#xc0;" horiz-adv-x="1417" 
d="M-10 0l499 1360h437l501 -1360h-432l-75 229h-431l-75 -229h-424zM578 1430l-304 215h445l196 -215h-337zM707 889l-107 -322h211z" />
    <glyph glyph-name="Aacute" unicode="&#xc1;" horiz-adv-x="1417" 
d="M-10 0l499 1360h437l501 -1360h-432l-75 229h-431l-75 -229h-424zM707 889l-107 -322h211zM1143 1645l-303 -215h-338l196 215h445z" />
    <glyph glyph-name="Acircumflex" unicode="&#xc2;" horiz-adv-x="1437" 
d="M10 0l500 1360h436l502 -1360h-432l-76 229h-430l-76 -229h-424zM727 889l-106 -322h210zM946 1645l260 -215h-372l-105 94l-111 -94h-370l266 215h432z" />
    <glyph glyph-name="Atilde" unicode="&#xc3;" horiz-adv-x="1417" 
d="M-10 0l499 1360h437l501 -1360h-432l-75 229h-431l-75 -229h-424zM707 889l-107 -322h211zM823 1575q88 0 103 70h184q-10 -54 -34 -95.5t-52.5 -64.5t-64.5 -37t-64.5 -18.5t-58.5 -4.5q-53 0 -97.5 17.5t-81 35t-67.5 17.5q-86 0 -101 -70h-184q10 54 34 95.5
t52.5 64.5t65 37t65 18.5t58.5 4.5q52 0 94.5 -17.5t78 -35t70.5 -17.5z" />
    <glyph glyph-name="Adieresis" unicode="&#xc4;" horiz-adv-x="1417" 
d="M-10 0l499 1360h437l501 -1360h-432l-75 229h-431l-75 -229h-424zM707 889l-107 -322h211zM328 1645h321v-215h-321v215zM764 1645h321v-215h-321v215z" />
    <glyph glyph-name="Aring" unicode="&#xc5;" horiz-adv-x="1417" 
d="M-10 0l499 1360h437l501 -1360h-432l-75 229h-431l-75 -229h-424zM709 1735q72 0 122 -46t50 -116t-49.5 -116t-122.5 -46t-122.5 46t-49.5 116t50 116t122 46zM707 889l-107 -322h211zM709 1655q-33 0 -57.5 -23.5t-24.5 -58.5q0 -34 24.5 -57t57.5 -23t57.5 23t24.5 57
q0 35 -24.5 58.5t-57.5 23.5z" />
    <glyph glyph-name="AE" unicode="&#xc6;" horiz-adv-x="2232" 
d="M1075 1360h1071v-342h-673v-164h638v-342h-638v-170h681v-342h-1079v229h-502l-190 -229h-465zM1075 831l-221 -264h221v264z" />
    <glyph glyph-name="Ccedilla" unicode="&#xc7;" horiz-adv-x="1452" 
d="M524 -356l33 102q52 -27 125 -27q92 0 92 56q0 26 -20.5 39.5t-55.5 13.5q-46 0 -73 -16l-58 32l78 125q-285 26 -444.5 215t-159.5 502q0 331 188 519t512 188q263 0 445.5 -142.5t222.5 -382.5l-391 -57q-17 105 -86.5 176.5t-188.5 71.5q-126 0 -206 -96t-80 -277
q0 -188 80 -287.5t215 -99.5q107 0 181.5 67t94.5 181l391 -58q-41 -238 -220.5 -377t-440.5 -147l-37 -61q27 6 70 6t81.5 -11.5t67.5 -42t29 -75.5q0 -83 -76.5 -123.5t-187.5 -40.5q-95 0 -181 27z" />
    <glyph glyph-name="Egrave" unicode="&#xc8;" horiz-adv-x="1300" 
d="M123 0v1360h1091v-342h-694v-164h660v-342h-660v-170h703v-342h-1100zM580 1430l-304 215h445l197 -215h-338z" />
    <glyph glyph-name="Eacute" unicode="&#xc9;" horiz-adv-x="1300" 
d="M123 0v1360h1091v-342h-694v-164h660v-342h-660v-170h703v-342h-1100zM1085 1645l-303 -215h-338l197 215h444z" />
    <glyph glyph-name="Ecircumflex" unicode="&#xca;" horiz-adv-x="1300" 
d="M123 0v1360h1091v-342h-694v-164h660v-342h-660v-170h703v-342h-1100zM887 1645l260 -215h-373l-104 94l-111 -94h-371l267 215h432z" />
    <glyph glyph-name="Edieresis" unicode="&#xcb;" horiz-adv-x="1300" 
d="M123 0v1360h1091v-342h-694v-164h660v-342h-660v-170h703v-342h-1100zM289 1645h321v-215h-321v215zM725 1645h322v-215h-322v215z" />
    <glyph glyph-name="Igrave" unicode="&#xcc;" horiz-adv-x="622" 
d="M510 1360v-1360h-397v1360h397zM168 1430l-303 215h444l197 -215h-338z" />
    <glyph glyph-name="Iacute" unicode="&#xcd;" horiz-adv-x="622" 
d="M510 1360v-1360h-397v1360h397zM756 1645l-303 -215h-338l196 215h445z" />
    <glyph glyph-name="Icircumflex" unicode="&#xce;" horiz-adv-x="622" 
d="M530 1645l179 -215h-312l-84 94l-90 -94h-309l184 215h432zM510 1360v-1360h-397v1360h397z" />
    <glyph glyph-name="Idieresis" unicode="&#xcf;" horiz-adv-x="622" 
d="M-45 1430v215h321v-215h-321zM350 1430v215h322v-215h-322zM510 1360v-1360h-397v1360h397z" />
    <glyph glyph-name="Eth" unicode="&#xd0;" horiz-adv-x="1499" 
d="M207 1360h414q140 0 258.5 -20t227.5 -68.5t185 -124.5t121 -195t45 -272t-45 -272t-121 -195t-185 -124.5t-227.5 -68.5t-258.5 -20h-414v512h-156v342h156v506zM813 512h-209v-170h23q51 0 92.5 3t85.5 12.5t77.5 24.5t64.5 41t51 61t32 84.5t12 111.5t-12 111.5
t-32 84.5t-51 61t-64.5 41t-77.5 24.5t-85.5 12.5t-92.5 3h-23v-164h209v-342z" />
    <glyph glyph-name="Ntilde" unicode="&#xd1;" horiz-adv-x="1525" 
d="M1403 0h-518l-365 858v-858h-397v1360h518l365 -858v858h397v-1360zM893 1575q87 0 102 70h185q-10 -54 -34 -95.5t-52.5 -64.5t-65 -37t-65 -18.5t-58.5 -4.5q-53 0 -97.5 17.5t-81 35t-67.5 17.5q-85 0 -100 -70h-184q10 54 34 95.5t52.5 64.5t64.5 37t64.5 18.5
t58.5 4.5q52 0 95 -17.5t78.5 -35t70.5 -17.5z" />
    <glyph glyph-name="Ograve" unicode="&#xd2;" horiz-adv-x="1527" 
d="M1073 686q0 98 -25.5 172.5t-69.5 117t-97.5 63t-116.5 20.5t-116.5 -20.5t-97.5 -63t-69.5 -117t-25.5 -172.5t25.5 -173t69.5 -118t98 -64.5t116 -21.5t116 21.5t98 64.5t69.5 118t25.5 173zM1487 686q0 -223 -93 -385t-255.5 -244t-374.5 -82t-374.5 82t-255.5 244
t-93 385q0 167 53.5 301.5t149.5 223t228.5 135.5t291.5 47t291.5 -47t228.5 -135.5t149.5 -223t53.5 -301.5zM696 1430l-303 215h445l196 -215h-338z" />
    <glyph glyph-name="Oacute" unicode="&#xd3;" horiz-adv-x="1527" 
d="M1073 686q0 98 -25.5 172.5t-69.5 117t-97.5 63t-116.5 20.5t-116.5 -20.5t-97.5 -63t-69.5 -117t-25.5 -172.5t25.5 -173t69.5 -118t98 -64.5t116 -21.5t116 21.5t98 64.5t69.5 118t25.5 173zM1487 686q0 -223 -93 -385t-255.5 -244t-374.5 -82t-374.5 82t-255.5 244
t-93 385q0 167 53.5 301.5t149.5 223t228.5 135.5t291.5 47t291.5 -47t228.5 -135.5t149.5 -223t53.5 -301.5zM1198 1645l-303 -215h-338l197 215h444z" />
    <glyph glyph-name="Ocircumflex" unicode="&#xd4;" horiz-adv-x="1527" 
d="M1073 686q0 98 -25.5 172.5t-69.5 117t-97.5 63t-116.5 20.5t-116.5 -20.5t-97.5 -63t-69.5 -117t-25.5 -172.5t25.5 -173t69.5 -118t98 -64.5t116 -21.5t116 21.5t98 64.5t69.5 118t25.5 173zM1487 686q0 -223 -93 -385t-255.5 -244t-374.5 -82t-374.5 82t-255.5 244
t-93 385q0 167 53.5 301.5t149.5 223t228.5 135.5t291.5 47t291.5 -47t228.5 -135.5t149.5 -223t53.5 -301.5zM983 1645l260 -215h-373l-104 94l-111 -94h-370l266 215h432z" />
    <glyph glyph-name="Otilde" unicode="&#xd5;" horiz-adv-x="1527" 
d="M1073 686q0 98 -25.5 172.5t-69.5 117t-97.5 63t-116.5 20.5t-116.5 -20.5t-97.5 -63t-69.5 -117t-25.5 -172.5t25.5 -173t69.5 -118t98 -64.5t116 -21.5t116 21.5t98 64.5t69.5 118t25.5 173zM1487 686q0 -223 -93 -385t-255.5 -244t-374.5 -82t-374.5 82t-255.5 244
t-93 385q0 167 53.5 301.5t149.5 223t228.5 135.5t291.5 47t291.5 -47t228.5 -135.5t149.5 -223t53.5 -301.5zM874 1575q88 0 103 70h184q-10 -54 -34 -95.5t-52.5 -64.5t-64.5 -37t-64.5 -18.5t-58.5 -4.5q-53 0 -97.5 17.5t-81 35t-67.5 17.5q-85 0 -100 -70h-185
q10 54 34 95.5t52.5 64.5t65 37t65 18.5t58.5 4.5q52 0 94.5 -17.5t78 -35t70.5 -17.5z" />
    <glyph glyph-name="Odieresis" unicode="&#xd6;" horiz-adv-x="1527" 
d="M1073 686q0 98 -25.5 172.5t-69.5 117t-97.5 63t-116.5 20.5t-116.5 -20.5t-97.5 -63t-69.5 -117t-25.5 -172.5t25.5 -173t69.5 -118t98 -64.5t116 -21.5t116 21.5t98 64.5t69.5 118t25.5 173zM1487 686q0 -223 -93 -385t-255.5 -244t-374.5 -82t-374.5 82t-255.5 244
t-93 385q0 167 53.5 301.5t149.5 223t228.5 135.5t291.5 47t291.5 -47t228.5 -135.5t149.5 -223t53.5 -301.5zM379 1645h321v-215h-321v215zM815 1645h322v-215h-322v215z" />
    <glyph glyph-name="multiply" unicode="&#xd7;" horiz-adv-x="1128" 
d="M1063 240l-217 -209l-281 266l-297 -281l-217 207l295 283l-285 268l220 209l284 -270l293 280l219 -209l-295 -278z" />
    <glyph glyph-name="Oslash" unicode="&#xd8;" horiz-adv-x="1519" 
d="M1479 686q0 -166 -53 -301t-148 -224.5t-227.5 -137.5t-290.5 -48q-246 0 -422 113l-109 -127l-104 90l104 123q-188 191 -188 512q0 166 53 300t148.5 223t227.5 136.5t290 47.5q244 0 418 -109l96 115l106 -88l-94 -111q193 -193 193 -514zM1065 686q0 124 -39 207
l-448 -524q75 -60 182 -60q62 0 115.5 21t96.5 64.5t68 118.5t25 173zM455 686q0 -127 37 -205l446 523q-72 55 -178 55q-62 0 -115.5 -20.5t-97 -63.5t-68 -117t-24.5 -172z" />
    <glyph glyph-name="Ugrave" unicode="&#xd9;" horiz-adv-x="1449" 
d="M102 1360h402v-789q0 -137 50 -199.5t175 -62.5q122 0 172.5 66.5t50.5 195.5v789h396v-750q0 -329 -143.5 -482t-475.5 -153q-166 0 -281.5 33t-194 106.5t-115 192.5t-36.5 291v762zM666 1430l-304 215h445l197 -215h-338z" />
    <glyph glyph-name="Uacute" unicode="&#xda;" horiz-adv-x="1449" 
d="M102 1360h402v-789q0 -137 50 -199.5t175 -62.5q122 0 172.5 66.5t50.5 195.5v789h396v-750q0 -329 -143.5 -482t-475.5 -153q-166 0 -281.5 33t-194 106.5t-115 192.5t-36.5 291v762zM1157 1645l-303 -215h-338l197 215h444z" />
    <glyph glyph-name="Ucircumflex" unicode="&#xdb;" horiz-adv-x="1449" 
d="M102 1360h402v-789q0 -137 50 -199.5t175 -62.5q122 0 172.5 66.5t50.5 195.5v789h396v-750q0 -329 -143.5 -482t-475.5 -153q-166 0 -281.5 33t-194 106.5t-115 192.5t-36.5 291v762zM946 1645l260 -215h-372l-105 94l-111 -94h-370l266 215h432z" />
    <glyph glyph-name="Udieresis" unicode="&#xdc;" horiz-adv-x="1449" 
d="M102 1360h402v-789q0 -137 50 -199.5t175 -62.5q122 0 172.5 66.5t50.5 195.5v789h396v-750q0 -329 -143.5 -482t-475.5 -153q-166 0 -281.5 33t-194 106.5t-115 192.5t-36.5 291v762zM344 1645h322v-215h-322v215zM780 1645h322v-215h-322v215z" />
    <glyph glyph-name="Yacute" unicode="&#xdd;" horiz-adv-x="1390" 
d="M-31 1360h467l258 -481l262 481h465l-534 -848v-512h-398v516zM1094 1645l-303 -215h-338l196 215h445z" />
    <glyph glyph-name="Thorn" unicode="&#xde;" horiz-adv-x="1314" 
d="M520 1165h144q114 0 204.5 -12.5t172 -44.5t136 -83.5t86 -134t31.5 -192.5t-31.5 -192t-85.5 -133.5t-136 -83.5t-172.5 -44t-204.5 -12h-144v-233h-397v1360h397v-195zM700 823h-180v-248h180q92 0 136.5 26.5t44.5 96.5q0 71 -44.5 98t-136.5 27z" />
    <glyph glyph-name="germandbls" unicode="&#xdf;" horiz-adv-x="1378" 
d="M494 0h-381v893q0 144 37 232.5t110 148.5q147 119 440 119q245 0 394 -98t149 -281q0 -77 -31.5 -141.5t-76.5 -100.5q84 -42 138 -133.5t54 -214.5q0 -217 -136.5 -333t-373.5 -116q-116 0 -266 27l63 297q78 -20 138 -20q82 0 134 36t52 115q0 83 -60.5 119.5
t-179.5 36.5h-82v291h68q100 0 144 28.5t44 87.5q0 54 -47 85.5t-131 31.5q-119 0 -166 -57q-34 -43 -34 -158v-895z" />
    <glyph glyph-name="agrave" unicode="&#xe0;" horiz-adv-x="1181" 
d="M92 680h357q7 94 135 94q69 0 100 -23t31 -71v-21l-113 -12q-152 -16 -267 -42.5t-181 -80.5q-95 -75 -95 -211q0 -140 103.5 -239t279.5 -99q228 0 314 142l2 -117h342q-22 235 -19 412l2 213q1 211 -111 306t-345 95q-500 0 -535 -346zM725 377q0 -67 -46 -104
t-124 -37q-55 0 -84 27.5t-29 66.5q0 40 36.5 63.5t123.5 32.5l123 12v-61zM532 1118l-270 242h395l181 -242h-306z" />
    <glyph glyph-name="aacute" unicode="&#xe1;" horiz-adv-x="1181" 
d="M92 680h357q7 94 135 94q69 0 100 -23t31 -71v-21l-113 -12q-152 -16 -267 -42.5t-181 -80.5q-95 -75 -95 -211q0 -140 103.5 -239t279.5 -99q228 0 314 142l2 -117h342q-22 235 -19 412l2 213q1 211 -111 306t-345 95q-500 0 -535 -346zM725 377q0 -67 -46 -104
t-124 -37q-55 0 -84 27.5t-29 66.5q0 40 36.5 63.5t123.5 32.5l123 12v-61zM961 1360l-271 -242h-305l180 242h396z" />
    <glyph glyph-name="acircumflex" unicode="&#xe2;" horiz-adv-x="1181" 
d="M92 680h357q7 94 135 94q69 0 100 -23t31 -71v-21l-113 -12q-152 -16 -267 -42.5t-181 -80.5q-95 -75 -95 -211q0 -140 103.5 -239t279.5 -99q228 0 314 142l2 -117h342q-22 235 -19 412l2 213q1 211 -111 306t-345 95q-500 0 -535 -346zM725 377q0 -67 -46 -104
t-124 -37q-55 0 -84 27.5t-29 66.5q0 40 36.5 63.5t123.5 32.5l123 12v-61zM768 1360l250 -242h-307l-117 109l-121 -109h-309l258 242h346z" />
    <glyph glyph-name="atilde" unicode="&#xe3;" horiz-adv-x="1181" 
d="M92 680h357q7 94 135 94q69 0 100 -23t31 -71v-21l-113 -12q-152 -16 -267 -42.5t-181 -80.5q-95 -75 -95 -211q0 -140 103.5 -239t279.5 -99q228 0 314 142l2 -117h342q-22 235 -19 412l2 213q1 211 -111 306t-345 95q-500 0 -535 -346zM725 377q0 -67 -46 -104
t-124 -37q-55 0 -84 27.5t-29 66.5q0 40 36.5 63.5t123.5 32.5l123 12v-61zM707 1276q85 0 100 84h184q-20 -119 -86.5 -180.5t-169.5 -61.5q-45 0 -85.5 13t-65 29t-54.5 29t-55 13q-83 0 -98 -84h-184q19 115 85 178.5t173 63.5q56 0 101.5 -21t82.5 -42t72 -21z" />
    <glyph glyph-name="adieresis" unicode="&#xe4;" horiz-adv-x="1181" 
d="M92 680h357q7 94 135 94q69 0 100 -23t31 -71v-21l-113 -12q-152 -16 -267 -42.5t-181 -80.5q-95 -75 -95 -211q0 -140 103.5 -239t279.5 -99q228 0 314 142l2 -117h342q-22 235 -19 412l2 213q1 211 -111 306t-345 95q-500 0 -535 -346zM725 377q0 -67 -46 -104
t-124 -37q-55 0 -84 27.5t-29 66.5q0 40 36.5 63.5t123.5 32.5l123 12v-61zM207 1118v242h325v-242h-325zM686 1360h324v-242h-324v242z" />
    <glyph glyph-name="aring" unicode="&#xe5;" horiz-adv-x="1181" 
d="M92 680h357q7 94 135 94q69 0 100 -23t31 -71v-21l-113 -12q-152 -16 -267 -42.5t-181 -80.5q-95 -75 -95 -211q0 -140 103.5 -239t279.5 -99q228 0 314 142l2 -117h342q-22 235 -19 412l2 213q1 211 -111 306t-345 95q-500 0 -535 -346zM725 377q0 -67 -46 -104
t-124 -37q-55 0 -84 27.5t-29 66.5q0 40 36.5 63.5t123.5 32.5l123 12v-61zM612 1454q75 0 128 -49t53 -121q0 -73 -52.5 -121.5t-128.5 -48.5t-128 48.5t-52 121.5t52.5 121.5t127.5 48.5zM612 1362q-32 0 -54.5 -22t-22.5 -56q0 -33 22 -54.5t55 -21.5t55.5 21.5
t22.5 54.5t-22.5 55.5t-55.5 22.5z" />
    <glyph glyph-name="ae" unicode="&#xe6;" horiz-adv-x="1873" 
d="M449 680h-357q35 346 535 346q217 0 325 -86q141 86 328 86q276 0 420.5 -167t118.5 -449h-715q8 -73 54.5 -113.5t127.5 -40.5q118 0 164 106l356 -53q-17 -49 -42.5 -93t-69.5 -89.5t-99.5 -78t-137 -53t-177.5 -20.5q-266 0 -420 154q-137 -154 -411 -154
q-181 0 -285.5 98.5t-104.5 239.5q0 131 95 209q39 31 91 53.5t118.5 36.5t114.5 20.5t124 14.5l113 12v21q0 48 -31 71t-100 23q-128 0 -135 -94zM555 236q78 0 124 37t46 104v61l-123 -12q-87 -9 -123.5 -32.5t-36.5 -63.5q0 -39 29 -66.5t84 -27.5zM1104 631h340
q-4 74 -51.5 109.5t-114.5 35.5q-65 0 -114 -33t-60 -112z" />
    <glyph glyph-name="ccedilla" unicode="&#xe7;" horiz-adv-x="1157" 
d="M362 -356l33 102q52 -27 125 -27q92 0 92 56q0 26 -20 39.5t-55 13.5q-47 0 -74 -16l-57 32l86 140q-214 27 -327.5 164.5t-113.5 351.5q0 237 149.5 381.5t395.5 144.5q216 0 352 -103.5t178 -269.5l-350 -53q-29 145 -160 145q-176 0 -176 -243q0 -111 41.5 -178.5
t132.5 -67.5q137 0 166 145l350 -53q-42 -165 -178.5 -268.5t-347.5 -104.5l-45 -71q27 6 70 6t81.5 -11.5t67.5 -42t29 -75.5q0 -83 -76.5 -123.5t-187.5 -40.5q-95 0 -181 27z" />
    <glyph glyph-name="egrave" unicode="&#xe8;" horiz-adv-x="1204" 
d="M610 -25q-264 0 -411.5 147t-147.5 386q0 234 155.5 376t403.5 142q276 0 420.5 -167t118.5 -449h-715q8 -73 54.5 -113.5t127.5 -40.5q124 0 170 106l357 -53q-22 -63 -60 -117.5t-99.5 -105.5t-158 -81t-215.5 -30zM506 1118l-270 242h395l180 -242h-305zM608 776
q-65 0 -114 -33t-60 -112h340q-4 74 -51.5 109.5t-114.5 35.5z" />
    <glyph glyph-name="eacute" unicode="&#xe9;" horiz-adv-x="1204" 
d="M610 -25q-264 0 -411.5 147t-147.5 386q0 234 155.5 376t403.5 142q276 0 420.5 -167t118.5 -449h-715q8 -73 54.5 -113.5t127.5 -40.5q124 0 170 106l357 -53q-22 -63 -60 -117.5t-99.5 -105.5t-158 -81t-215.5 -30zM991 1360l-270 -242h-305l180 242h395zM608 776
q-65 0 -114 -33t-60 -112h340q-4 74 -51.5 109.5t-114.5 35.5z" />
    <glyph glyph-name="ecircumflex" unicode="&#xea;" horiz-adv-x="1204" 
d="M610 -25q-264 0 -411.5 147t-147.5 386q0 234 155.5 376t403.5 142q276 0 420.5 -167t118.5 -449h-715q8 -73 54.5 -113.5t127.5 -40.5q124 0 170 106l357 -53q-22 -63 -60 -117.5t-99.5 -105.5t-158 -81t-215.5 -30zM784 1360l250 -242h-307l-117 109l-121 -109h-309
l258 242h346zM608 776q-65 0 -114 -33t-60 -112h340q-4 74 -51.5 109.5t-114.5 35.5z" />
    <glyph glyph-name="edieresis" unicode="&#xeb;" horiz-adv-x="1204" 
d="M610 -25q-264 0 -411.5 147t-147.5 386q0 234 155.5 376t403.5 142q276 0 420.5 -167t118.5 -449h-715q8 -73 54.5 -113.5t127.5 -40.5q124 0 170 106l357 -53q-22 -63 -60 -117.5t-99.5 -105.5t-158 -81t-215.5 -30zM205 1118v242h325v-242h-325zM684 1360h324v-242
h-324v242zM608 776q-65 0 -114 -33t-60 -112h340q-4 74 -51.5 109.5t-114.5 35.5z" />
    <glyph glyph-name="igrave" unicode="&#xec;" horiz-adv-x="606" 
d="M113 1004h381v-1004h-381v1004zM174 1118l-270 242h395l180 -242h-305z" />
    <glyph glyph-name="iacute" unicode="&#xed;" horiz-adv-x="606" 
d="M113 1004h381v-1004h-381v1004zM694 1360l-270 -242h-305l180 242h395z" />
    <glyph glyph-name="icircumflex" unicode="&#xee;" horiz-adv-x="606" 
d="M461 1360l219 -262h-307l-76 129l-80 -129h-309l227 262h326zM113 1004h381v-1004h-381v1004z" />
    <glyph glyph-name="idieresis" unicode="&#xef;" horiz-adv-x="606" 
d="M-68 1098v262h326v-262h-326zM330 1098v262h323v-262h-323zM113 1004h381v-1004h-381v1004z" />
    <glyph glyph-name="eth" unicode="&#xf0;" horiz-adv-x="1210" 
d="M711 1337l112 70l111 -53l-127 -76q352 -247 352 -686q0 -154 -42 -272.5t-118.5 -193.5t-180.5 -113t-232 -38q-246 0 -390.5 140.5t-144.5 386.5q0 122 34 222t93 165.5t138 101t169 35.5q85 0 155 -31t112 -86l2 2q-59 124 -189 222l-123 -74l-108 51l137 84
q-73 42 -190 92l307 113q57 -25 123 -62zM600 258q79 0 122.5 63t43.5 179t-43.5 179.5t-122.5 63.5q-77 0 -117.5 -71t-40.5 -172t40.5 -171.5t117.5 -70.5z" />
    <glyph glyph-name="ntilde" unicode="&#xf1;" horiz-adv-x="1243" 
d="M494 1004v-113q99 135 315 135q175 0 260 -94q82 -88 82 -326v-606h-381v535q0 107 -29 147q-31 39 -96 39q-151 0 -151 -205v-516h-381v1004h381zM768 1276q85 0 100 84h185q-20 -119 -86.5 -180.5t-169.5 -61.5q-45 0 -85.5 13t-65 29t-54.5 29t-55 13q-84 0 -99 -84
h-184q19 115 85 178.5t173 63.5q56 0 101.5 -21t82.5 -42t72 -21z" />
    <glyph glyph-name="ograve" unicode="&#xf2;" horiz-adv-x="1216" 
d="M442 500q0 -122 45 -182t121 -60t121 60t45 182t-45 182.5t-121 60.5t-121 -60.5t-45 -182.5zM51 500q0 105 29 192.5t80 148.5t121.5 103t152.5 62t174 20t174 -20t152.5 -62t121.5 -103t80 -148.5t29 -192.5q0 -131 -44 -233t-121 -165t-176.5 -95t-215.5 -32
t-215.5 32t-176.5 95t-121 165t-44 233zM537 1118l-271 242h396l180 -242h-305z" />
    <glyph glyph-name="oacute" unicode="&#xf3;" horiz-adv-x="1216" 
d="M442 500q0 -122 45 -182t121 -60t121 60t45 182t-45 182.5t-121 60.5t-121 -60.5t-45 -182.5zM51 500q0 105 29 192.5t80 148.5t121.5 103t152.5 62t174 20t174 -20t152.5 -62t121.5 -103t80 -148.5t29 -192.5q0 -131 -44 -233t-121 -165t-176.5 -95t-215.5 -32
t-215.5 32t-176.5 95t-121 165t-44 233zM985 1360l-270 -242h-305l180 242h395z" />
    <glyph glyph-name="ocircumflex" unicode="&#xf4;" horiz-adv-x="1216" 
d="M442 500q0 -122 45 -182t121 -60t121 60t45 182t-45 182.5t-121 60.5t-121 -60.5t-45 -182.5zM51 500q0 105 29 192.5t80 148.5t121.5 103t152.5 62t174 20t174 -20t152.5 -62t121.5 -103t80 -148.5t29 -192.5q0 -131 -44 -233t-121 -165t-176.5 -95t-215.5 -32
t-215.5 32t-176.5 95t-121 165t-44 233zM786 1360l250 -242h-307l-117 109l-120 -109h-310l258 242h346z" />
    <glyph glyph-name="otilde" unicode="&#xf5;" horiz-adv-x="1216" 
d="M442 500q0 -122 45 -182t121 -60t121 60t45 182t-45 182.5t-121 60.5t-121 -60.5t-45 -182.5zM51 500q0 105 29 192.5t80 148.5t121.5 103t152.5 62t174 20t174 -20t152.5 -62t121.5 -103t80 -148.5t29 -192.5q0 -131 -44 -233t-121 -165t-176.5 -95t-215.5 -32
t-215.5 32t-176.5 95t-121 165t-44 233zM719 1276q85 0 100 84h185q-20 -119 -86.5 -180.5t-169.5 -61.5q-57 0 -105.5 21t-86.5 42t-69 21q-83 0 -98 -84h-184q19 115 85 178.5t173 63.5q56 0 101.5 -21t82.5 -42t72 -21z" />
    <glyph glyph-name="odieresis" unicode="&#xf6;" horiz-adv-x="1216" 
d="M442 500q0 -122 45 -182t121 -60t121 60t45 182t-45 182.5t-121 60.5t-121 -60.5t-45 -182.5zM51 500q0 105 29 192.5t80 148.5t121.5 103t152.5 62t174 20t174 -20t152.5 -62t121.5 -103t80 -148.5t29 -192.5q0 -131 -44 -233t-121 -165t-176.5 -95t-215.5 -32
t-215.5 32t-176.5 95t-121 165t-44 233zM205 1118v242h325v-242h-325zM684 1360h324v-242h-324v242z" />
    <glyph glyph-name="divide" unicode="&#xf7;" horiz-adv-x="1241" 
d="M414 0v276h413v-276h-413zM414 727v277h413v-277h-413zM61 344h1119v332h-1119v-332z" />
    <glyph glyph-name="oslash" unicode="&#xf8;" horiz-adv-x="1216" 
d="M51 500q0 130 44 232.5t121 165.5t176.5 95.5t215.5 32.5q167 0 297 -65l90 104l95 -82l-82 -94q157 -141 157 -389q0 -130 -44 -232t-121 -165t-176.5 -95.5t-215.5 -32.5q-184 0 -323 80l-107 -123l-92 84l98 115q-133 136 -133 369zM774 500q0 60 -12 106l-262 -303
q42 -45 108 -45q76 0 121 60t45 182zM442 500q0 -48 4 -68l248 285q-36 26 -86 26q-76 0 -121 -60.5t-45 -182.5z" />
    <glyph glyph-name="ugrave" unicode="&#xf9;" horiz-adv-x="1226" 
d="M733 0v119q-87 -144 -295 -144q-186 0 -268 101q-78 93 -78 325v603h381v-537q0 -108 29 -148q28 -38 94 -38q67 0 102 48t35 158v517h381v-1004h-381zM557 1118l-270 242h395l180 -242h-305z" />
    <glyph glyph-name="uacute" unicode="&#xfa;" horiz-adv-x="1226" 
d="M733 0v119q-87 -144 -295 -144q-186 0 -268 101q-78 93 -78 325v603h381v-537q0 -108 29 -148q28 -38 94 -38q67 0 102 48t35 158v517h381v-1004h-381zM971 1360l-271 -242h-305l180 242h396z" />
    <glyph glyph-name="ucircumflex" unicode="&#xfb;" horiz-adv-x="1226" 
d="M733 0v119q-87 -144 -295 -144q-186 0 -268 101q-78 93 -78 325v603h381v-537q0 -108 29 -148q28 -38 94 -38q67 0 102 48t35 158v517h381v-1004h-381zM780 1360l250 -242h-307l-117 109l-121 -109h-309l258 242h346z" />
    <glyph glyph-name="udieresis" unicode="&#xfc;" horiz-adv-x="1226" 
d="M733 0v119q-87 -144 -295 -144q-186 0 -268 101q-78 93 -78 325v603h381v-537q0 -108 29 -148q28 -38 94 -38q67 0 102 48t35 158v517h381v-1004h-381zM203 1118v242h325v-242h-325zM682 1360h324v-242h-324v242z" />
    <glyph glyph-name="yacute" unicode="&#xfd;" horiz-adv-x="1118" 
d="M111 -354h137q209 0 309 70t174 266l387 1022h-395l-158 -635l-157 635h-408l365 -1010l-5 -12q-13 -38 -41.5 -49t-91.5 -11h-116v-276zM942 1360l-270 -242h-305l180 242h395z" />
    <glyph glyph-name="thorn" unicode="&#xfe;" 
d="M113 -354v1714h381v-459q36 56 106 90.5t170 34.5q186 0 306 -141t120 -385q0 -122 -34 -222.5t-93 -166t-138 -101t-169 -35.5q-89 0 -159 31.5t-109 93.5v-454h-381zM651 743q-77 0 -123.5 -70t-46.5 -173q0 -102 46.5 -172t123.5 -70q76 0 115 71.5t39 172.5
q0 99 -39 170t-115 71z" />
    <glyph glyph-name="ydieresis" unicode="&#xff;" horiz-adv-x="1118" 
d="M111 -354h137q209 0 309 70t174 266l387 1022h-395l-158 -635l-157 635h-408l365 -1010l-5 -12q-13 -38 -41.5 -49t-91.5 -11h-116v-276zM166 1118v242h326v-242h-326zM645 1360h324v-242h-324v242z" />
    <glyph glyph-name="Amacron" unicode="&#x100;" horiz-adv-x="1417" 
d="M-10 0l499 1360h437l501 -1360h-432l-75 229h-431l-75 -229h-424zM707 889l-107 -322h211zM1047 1448h-678v180h678v-180z" />
    <glyph glyph-name="amacron" unicode="&#x101;" horiz-adv-x="1181" 
d="M92 680h357q7 94 135 94q69 0 100 -23t31 -71v-21l-113 -12q-152 -16 -267 -42.5t-181 -80.5q-95 -75 -95 -211q0 -140 103.5 -239t279.5 -99q228 0 314 142l2 -117h342q-22 235 -19 412l2 213q1 211 -111 306t-345 95q-500 0 -535 -346zM725 377q0 -67 -46 -104
t-124 -37q-55 0 -84 27.5t-29 66.5q0 40 36.5 63.5t123.5 32.5l123 12v-61zM905 1126h-596v226h596v-226z" />
    <glyph glyph-name="Abreve" unicode="&#x102;" horiz-adv-x="1417" 
d="M-10 0l499 1360h437l501 -1360h-432l-75 229h-431l-75 -229h-424zM825 1645h246q-10 -117 -97.5 -170.5t-266.5 -53.5q-175 0 -264.5 54t-98.5 170h246q12 -68 117 -68q106 0 118 68zM707 889l-107 -322h211z" />
    <glyph glyph-name="abreve" unicode="&#x103;" horiz-adv-x="1181" 
d="M92 680h357q7 94 135 94q69 0 100 -23t31 -71v-21l-113 -12q-152 -16 -267 -42.5t-181 -80.5q-95 -75 -95 -211q0 -140 103.5 -239t279.5 -99q228 0 314 142l2 -117h342q-22 235 -19 412l2 213q1 211 -111 306t-345 95q-500 0 -535 -346zM725 377q0 -67 -46 -104
t-124 -37q-55 0 -84 27.5t-29 66.5q0 40 36.5 63.5t123.5 32.5l123 12v-61zM944 1360q-11 -108 -101 -179t-245 -71q-152 0 -241 71.5t-99 178.5h225q5 -42 39.5 -61t77.5 -19q27 0 51 7t44 25.5t24 47.5h225z" />
    <glyph glyph-name="Aogonek" unicode="&#x104;" horiz-adv-x="1417" 
d="M995 0l-75 229h-431l-75 -229h-424l499 1360h437l501 -1360q-86 -42 -125.5 -72t-39.5 -69q0 -30 28.5 -44t71.5 -14q40 0 90 13v-166q-97 -19 -217 -19q-65 0 -121.5 8.5t-111.5 29t-87 62.5t-32 101q0 44 31.5 91.5t80.5 78.5zM707 889l-107 -322h211z" />
    <glyph glyph-name="aogonek" unicode="&#x105;" horiz-adv-x="1181" 
d="M725 377v61l-123 -12q-87 -9 -123.5 -32.5t-36.5 -63.5q0 -39 29 -66.5t84 -27.5q78 0 124 37t46 104zM1100 0q-87 -43 -126.5 -72.5t-39.5 -68.5q0 -30 28.5 -44t71.5 -14q40 0 90 13v-166q-97 -19 -188 -19q-309 0 -309 185q0 56 35.5 105.5t95.5 80.5l-2 117
q-86 -142 -314 -142q-176 0 -279.5 99t-103.5 239q0 136 95 211q66 54 181 80.5t267 42.5l113 12v21q0 48 -31 71t-100 23q-128 0 -135 -94h-357q35 346 535 346q233 0 345 -95t111 -306l-2 -213q-3 -177 19 -412z" />
    <glyph glyph-name="Cacute" unicode="&#x106;" horiz-adv-x="1452" 
d="M1028 547l391 -58q-41 -244 -228.5 -384t-457.5 -140q-323 0 -507.5 192t-184.5 529q0 331 188 519t512 188q263 0 445.5 -142.5t222.5 -382.5l-391 -57q-17 105 -86.5 176.5t-188.5 71.5q-126 0 -206 -96t-80 -277q0 -188 80 -287.5t215 -99.5q107 0 181.5 67t94.5 181z
M1167 1645l-303 -215h-338l197 215h444z" />
    <glyph glyph-name="cacute" unicode="&#x107;" horiz-adv-x="1157" 
d="M596 1026q216 0 352 -103.5t178 -269.5l-350 -53q-29 145 -160 145q-176 0 -176 -243q0 -111 41.5 -178.5t132.5 -67.5q137 0 166 145l350 -53q-42 -165 -180 -269t-350 -104q-264 0 -406.5 143t-142.5 382q0 237 149.5 381.5t395.5 144.5zM948 1360l-270 -242h-305
l180 242h395z" />
    <glyph glyph-name="Ccircumflex" unicode="&#x108;" horiz-adv-x="1452" 
d="M1028 547l391 -58q-41 -244 -228.5 -384t-457.5 -140q-323 0 -507.5 192t-184.5 529q0 331 188 519t512 188q263 0 445.5 -142.5t222.5 -382.5l-391 -57q-17 105 -86.5 176.5t-188.5 71.5q-126 0 -206 -96t-80 -277q0 -188 80 -287.5t215 -99.5q107 0 181.5 67t94.5 181z
M961 1645l260 -215h-373l-105 94l-110 -94h-371l266 215h433z" />
    <glyph glyph-name="ccircumflex" unicode="&#x109;" horiz-adv-x="1157" 
d="M596 1026q216 0 352 -103.5t178 -269.5l-350 -53q-29 145 -160 145q-176 0 -176 -243q0 -111 41.5 -178.5t132.5 -67.5q137 0 166 145l350 -53q-42 -165 -180 -269t-350 -104q-264 0 -406.5 143t-142.5 382q0 237 149.5 381.5t395.5 144.5zM786 1360l250 -242h-307
l-117 109l-120 -109h-310l258 242h346z" />
    <glyph glyph-name="Cdotaccent" unicode="&#x10a;" horiz-adv-x="1452" 
d="M1028 547l391 -58q-41 -244 -228.5 -384t-457.5 -140q-323 0 -507.5 192t-184.5 529q0 331 188 519t512 188q263 0 445.5 -142.5t222.5 -382.5l-391 -57q-17 105 -86.5 176.5t-188.5 71.5q-126 0 -206 -96t-80 -277q0 -188 80 -287.5t215 -99.5q107 0 181.5 67t94.5 181z
M578 1645h325v-215h-325v215z" />
    <glyph glyph-name="cdotaccent" unicode="&#x10b;" horiz-adv-x="1157" 
d="M596 1026q216 0 352 -103.5t178 -269.5l-350 -53q-29 145 -160 145q-176 0 -176 -243q0 -111 41.5 -178.5t132.5 -67.5q137 0 166 145l350 -53q-42 -165 -180 -269t-350 -104q-264 0 -406.5 143t-142.5 382q0 237 149.5 381.5t395.5 144.5zM461 1360h315v-242h-315v242z
" />
    <glyph glyph-name="Ccaron" unicode="&#x10c;" horiz-adv-x="1452" 
d="M1028 547l391 -58q-41 -244 -228.5 -384t-457.5 -140q-323 0 -507.5 192t-184.5 529q0 331 188 519t512 188q263 0 445.5 -142.5t222.5 -382.5l-391 -57q-17 105 -86.5 176.5t-188.5 71.5q-126 0 -206 -96t-80 -277q0 -188 80 -287.5t215 -99.5q107 0 181.5 67t94.5 181z
M516 1430l-260 215h373l104 -95l111 95h370l-266 -215h-432z" />
    <glyph glyph-name="ccaron" unicode="&#x10d;" horiz-adv-x="1157" 
d="M596 1026q216 0 352 -103.5t178 -269.5l-350 -53q-29 145 -160 145q-176 0 -176 -243q0 -111 41.5 -178.5t132.5 -67.5q137 0 166 145l350 -53q-42 -165 -180 -269t-350 -104q-264 0 -406.5 143t-142.5 382q0 237 149.5 381.5t395.5 144.5zM438 1118l-250 242h308
l116 -109l121 109h309l-258 -242h-346z" />
    <glyph glyph-name="Dcaron" unicode="&#x10e;" horiz-adv-x="1415" 
d="M958 680q0 62 -12 111.5t-32 84.5t-51 61t-64.5 41t-77.5 24.5t-85.5 12.5t-92.5 3h-23v-676h23q51 0 92.5 3t85.5 12.5t77.5 24.5t64.5 41t51 61t32 84.5t12 111.5zM123 1360h414q140 0 258.5 -20t227.5 -68.5t185 -124.5t121 -195t45 -272t-45 -272t-121 -195
t-185 -124.5t-227.5 -68.5t-258.5 -20h-414v1360zM387 1430l-260 215h373l104 -95l111 95h370l-266 -215h-432z" />
    <glyph glyph-name="dcaron" unicode="&#x10f;" horiz-adv-x="1519" 
d="M1561 1360l-113 -324h-254l37 324h330zM1135 0v1360h-381v-459q-39 61 -109.5 93t-159.5 32q-90 0 -169 -35.5t-138 -101t-93 -165.5t-34 -222q0 -244 120.5 -385.5t305.5 -141.5q100 0 170.5 34.5t106.5 90.5v-100h381zM596 258q-76 0 -115 71.5t-39 170.5q0 101 39 172
t115 71q77 0 123.5 -69.5t46.5 -171.5q0 -103 -46.5 -173.5t-123.5 -70.5z" />
    <glyph glyph-name="Dcroat" unicode="&#x110;" horiz-adv-x="1499" 
d="M51 854h156v506h414q140 0 258.5 -20t227.5 -68.5t185 -124.5t121 -195t45 -272t-45 -272t-121 -195t-185 -124.5t-227.5 -68.5t-258.5 -20h-414v512h-156v342zM1042 680q0 62 -12 111.5t-32 84.5t-51 61t-64.5 41t-77.5 24.5t-85.5 12.5t-92.5 3h-23v-164h209v-342h-209
v-170h23q51 0 92.5 3t85.5 12.5t77.5 24.5t64.5 41t51 61t32 84.5t12 111.5z" />
    <glyph glyph-name="dcroat" unicode="&#x111;" 
d="M1135 1075v-1075h-381v100q-36 -56 -106.5 -90.5t-170.5 -34.5q-185 0 -305.5 141.5t-120.5 385.5q0 122 34 222t93 165.5t138 101t169 35.5q89 0 159.5 -32t109.5 -93v174h-179v166h179v119h381v-119h143v-166h-143zM596 258q77 0 123.5 70.5t46.5 173.5
q0 102 -46.5 171.5t-123.5 69.5q-76 0 -115 -71t-39 -172q0 -99 39 -170.5t115 -71.5z" />
    <glyph glyph-name="Emacron" unicode="&#x112;" horiz-adv-x="1300" 
d="M123 0v1360h1091v-342h-694v-164h660v-342h-660v-170h703v-342h-1100zM1012 1448h-678v180h678v-180z" />
    <glyph glyph-name="emacron" unicode="&#x113;" horiz-adv-x="1204" 
d="M610 -25q-264 0 -411.5 147t-147.5 386q0 234 155.5 376t403.5 142q276 0 420.5 -167t118.5 -449h-715q8 -73 54.5 -113.5t127.5 -40.5q124 0 170 106l357 -53q-22 -63 -60 -117.5t-99.5 -105.5t-158 -81t-215.5 -30zM897 1126h-596v226h596v-226zM608 776
q-65 0 -114 -33t-60 -112h340q-4 74 -51.5 109.5t-114.5 35.5z" />
    <glyph glyph-name="Ebreve" unicode="&#x114;" horiz-adv-x="1300" 
d="M123 0v1360h1091v-342h-694v-164h660v-342h-660v-170h703v-342h-1100zM791 1645h245q-10 -117 -97.5 -170.5t-266.5 -53.5q-175 0 -264.5 54t-98.5 170h246q12 -68 117 -68q107 0 119 68z" />
    <glyph glyph-name="ebreve" unicode="&#x115;" horiz-adv-x="1204" 
d="M610 -25q-264 0 -411.5 147t-147.5 386q0 234 155.5 376t403.5 142q276 0 420.5 -167t118.5 -449h-715q8 -73 54.5 -113.5t127.5 -40.5q124 0 170 106l357 -53q-22 -63 -60 -117.5t-99.5 -105.5t-158 -81t-215.5 -30zM934 1360q-11 -108 -101 -179t-245 -71
q-152 0 -241 71.5t-99 178.5h225q5 -42 39.5 -61t77.5 -19q27 0 51 7t44 25.5t24 47.5h225zM608 776q-65 0 -114 -33t-60 -112h340q-4 74 -51.5 109.5t-114.5 35.5z" />
    <glyph glyph-name="Edotaccent" unicode="&#x116;" horiz-adv-x="1300" 
d="M123 0v1360h1091v-342h-694v-164h660v-342h-660v-170h703v-342h-1100zM508 1645h326v-215h-326v215z" />
    <glyph glyph-name="edotaccent" unicode="&#x117;" horiz-adv-x="1204" 
d="M610 -25q-264 0 -411.5 147t-147.5 386q0 234 155.5 376t403.5 142q276 0 420.5 -167t118.5 -449h-715q8 -73 54.5 -113.5t127.5 -40.5q124 0 170 106l357 -53q-22 -63 -60 -117.5t-99.5 -105.5t-158 -81t-215.5 -30zM453 1360h315v-242h-315v242zM608 776
q-65 0 -114 -33t-60 -112h340q-4 74 -51.5 109.5t-114.5 35.5z" />
    <glyph glyph-name="Eogonek" unicode="&#x118;" horiz-adv-x="1300" 
d="M123 0v1360h1091v-342h-694v-164h660v-342h-660v-170h703v-342q-87 -43 -126.5 -72.5t-39.5 -68.5q0 -30 28.5 -44t71.5 -14q40 0 90 13v-166q-97 -19 -188 -19q-64 0 -118.5 8t-105 27.5t-79.5 57.5t-29 92q0 56 35.5 105.5t95.5 80.5h-735z" />
    <glyph glyph-name="eogonek" unicode="&#x119;" horiz-adv-x="1204" 
d="M1137 309q-37 -102 -108.5 -180t-205.5 -129q-182 -70 -182 -141q0 -30 28.5 -44t71.5 -14q40 0 90 13v-166q-97 -19 -188 -19q-64 0 -118.5 8t-105 27.5t-79.5 57.5t-29 92q0 55 33 103t90 79q-185 45 -284 181t-99 331q0 234 155.5 376t403.5 142q276 0 420.5 -167
t118.5 -449h-715q8 -73 54.5 -113.5t127.5 -40.5q118 0 164 106zM608 776q-65 0 -114 -33t-60 -112h340q-4 74 -51.5 109.5t-114.5 35.5z" />
    <glyph glyph-name="Ecaron" unicode="&#x11a;" horiz-adv-x="1300" 
d="M123 0v1360h1091v-342h-694v-164h660v-342h-660v-170h703v-342h-1100zM446 1430l-260 215h373l105 -95l110 95h371l-266 -215h-433z" />
    <glyph glyph-name="ecaron" unicode="&#x11b;" horiz-adv-x="1204" 
d="M610 -25q-264 0 -411.5 147t-147.5 386q0 234 155.5 376t403.5 142q276 0 420.5 -167t118.5 -449h-715q8 -73 54.5 -113.5t127.5 -40.5q124 0 170 106l357 -53q-22 -63 -60 -117.5t-99.5 -105.5t-158 -81t-215.5 -30zM426 1118l-250 242h307l117 -109l121 109h309
l-258 -242h-346zM608 776q-65 0 -114 -33t-60 -112h340q-4 74 -51.5 109.5t-114.5 35.5z" />
    <glyph glyph-name="Gcircumflex" unicode="&#x11c;" horiz-adv-x="1511" 
d="M745 1393q156 0 286.5 -49.5t226 -151t133.5 -244.5l-392 -67q-22 76 -81 127t-166 51q-139 0 -217 -97t-78 -274q0 -178 76 -278.5t223 -100.5q121 0 188.5 56t67.5 120v2h-299v301h686v-788h-312l-2 147q-121 -172 -397 -172q-297 0 -472 192t-175 521q0 327 189 516
t515 189zM958 1645l261 -215h-373l-105 94l-110 -94h-371l266 215h432z" />
    <glyph glyph-name="gcircumflex" unicode="&#x11d;" 
d="M754 141v-102q0 -90 -37 -127q-39 -39 -129 -39q-132 0 -148 92l-352 -18q68 -326 520 -326q234 0 371 92q76 52 116 140.5t40 248.5v902h-381v-103q-39 61 -109.5 93t-159.5 32q-91 0 -169 -32.5t-137.5 -94t-93.5 -158.5t-34 -219q0 -242 119 -374t307 -132
q100 0 170.5 34.5t106.5 90.5zM596 299q-77 0 -115.5 62.5t-38.5 158.5q0 98 38.5 160.5t115.5 62.5q79 0 124.5 -61t45.5 -160q0 -101 -45.5 -162t-124.5 -61zM840 1360l250 -242h-308l-116 109l-121 -109h-309l258 242h346z" />
    <glyph glyph-name="Gbreve" unicode="&#x11e;" horiz-adv-x="1511" 
d="M745 1393q156 0 286.5 -49.5t226 -151t133.5 -244.5l-392 -67q-22 76 -81 127t-166 51q-139 0 -217 -97t-78 -274q0 -178 76 -278.5t223 -100.5q121 0 188.5 56t67.5 120v2h-299v301h686v-788h-312l-2 147q-121 -172 -397 -172q-297 0 -472 192t-175 521q0 327 189 516
t515 189zM856 1645h246q-10 -117 -98 -170.5t-267 -53.5q-175 0 -264 54t-98 170h246q12 -68 116 -68q107 0 119 68z" />
    <glyph glyph-name="gbreve" unicode="&#x11f;" 
d="M754 141v-102q0 -90 -37 -127q-39 -39 -129 -39q-132 0 -148 92l-352 -18q68 -326 520 -326q234 0 371 92q76 52 116 140.5t40 248.5v902h-381v-103q-39 61 -109.5 93t-159.5 32q-91 0 -169 -32.5t-137.5 -94t-93.5 -158.5t-34 -219q0 -242 119 -374t307 -132
q100 0 170.5 34.5t106.5 90.5zM596 299q-77 0 -115.5 62.5t-38.5 158.5q0 98 38.5 160.5t115.5 62.5q79 0 124.5 -61t45.5 -160q0 -101 -45.5 -162t-124.5 -61zM967 1360q-11 -108 -101 -179t-245 -71q-152 0 -241 71.5t-99 178.5h225q5 -42 39.5 -61t77.5 -19t78 19t40 61
h226z" />
    <glyph glyph-name="Gdotaccent" unicode="&#x120;" horiz-adv-x="1511" 
d="M745 1393q156 0 286.5 -49.5t226 -151t133.5 -244.5l-392 -67q-22 76 -81 127t-166 51q-139 0 -217 -97t-78 -274q0 -178 76 -278.5t223 -100.5q121 0 188.5 56t67.5 120v2h-299v301h686v-788h-312l-2 147q-121 -172 -397 -172q-297 0 -472 192t-175 521q0 327 189 516
t515 189zM580 1645h325v-215h-325v215z" />
    <glyph glyph-name="gdotaccent" unicode="&#x121;" 
d="M754 141v-102q0 -90 -37 -127q-39 -39 -129 -39q-132 0 -148 92l-352 -18q68 -326 520 -326q234 0 371 92q76 52 116 140.5t40 248.5v902h-381v-103q-39 61 -109.5 93t-159.5 32q-91 0 -169 -32.5t-137.5 -94t-93.5 -158.5t-34 -219q0 -242 119 -374t307 -132
q100 0 170.5 34.5t106.5 90.5zM596 299q-77 0 -115.5 62.5t-38.5 158.5q0 98 38.5 160.5t115.5 62.5q79 0 124.5 -61t45.5 -160q0 -101 -45.5 -162t-124.5 -61zM799 1360v-262h-316v262h316z" />
    <glyph glyph-name="Gcommaaccent" unicode="&#x122;" horiz-adv-x="1511" 
d="M745 1393q156 0 286.5 -49.5t226 -151t133.5 -244.5l-392 -67q-22 76 -81 127t-166 51q-139 0 -217 -97t-78 -274q0 -178 76 -278.5t223 -100.5q121 0 188.5 56t67.5 120v2h-299v301h686v-788h-312l-2 147q-121 -172 -397 -172q-297 0 -472 192t-175 521q0 327 189 516
t515 189zM584 -258v190h282v-202l-104 -170h-184l73 182h-67z" />
    <glyph glyph-name="gcommaaccent" unicode="&#x123;" 
d="M745 1288v-190h-282v202l104 170h185l-74 -182h67zM754 141v-102q0 -90 -37 -127q-39 -39 -129 -39q-132 0 -148 92l-352 -18q68 -326 520 -326q234 0 371 92q76 52 116 140.5t40 248.5v902h-381v-103q-39 61 -109.5 93t-159.5 32q-91 0 -169 -32.5t-137.5 -94
t-93.5 -158.5t-34 -219q0 -242 119 -374t307 -132q100 0 170.5 34.5t106.5 90.5zM596 299q-77 0 -115.5 62.5t-38.5 158.5q0 98 38.5 160.5t115.5 62.5q79 0 124.5 -61t45.5 -160q0 -101 -45.5 -162t-124.5 -61z" />
    <glyph glyph-name="Hcircumflex" unicode="&#x124;" horiz-adv-x="1515" 
d="M995 1360h398v-1360h-398v512h-475v-512h-397v1360h397v-506h475v506zM975 1645l260 -215h-373l-104 94l-111 -94h-371l267 215h432z" />
    <glyph glyph-name="hcircumflex" unicode="&#x125;" horiz-adv-x="1243" 
d="M963 1360l198 -262h-225l-96 149l-101 -149h-227l207 262h244zM494 1360v-469q99 135 315 135q175 0 260 -94q82 -88 82 -326v-606h-381v535q0 107 -29 147q-31 39 -96 39q-151 0 -151 -205v-516h-381v1360h381z" />
    <glyph glyph-name="Hbar" unicode="&#x126;" horiz-adv-x="1515" 
d="M995 1360h398v-1360h-398v512h-475v-512h-397v1360h397v-133h475v133zM520 854h475v133h-475v-133z" />
    <glyph glyph-name="hbar" unicode="&#x127;" horiz-adv-x="1243" 
d="M494 1360v-119h168v-166h-168v-184q99 135 315 135q175 0 260 -94q82 -88 82 -326v-606h-381v535q0 107 -29 147q-31 39 -96 39q-151 0 -151 -205v-516h-381v1075h-154v166h154v119h381z" />
    <glyph glyph-name="Itilde" unicode="&#x128;" horiz-adv-x="622" 
d="M393 1575q70 0 82 70h146q-8 -54 -27.5 -95.5t-42 -64.5t-51 -37t-51 -18.5t-46.5 -4.5q-42 0 -77.5 17.5t-64 35t-52.5 17.5q-68 0 -80 -70h-145q8 54 27 95.5t41.5 64.5t51 37t51 18.5t46.5 4.5q51 0 106 -35t86 -35zM510 1360v-1360h-397v1360h397z" />
    <glyph glyph-name="itilde" unicode="&#x129;" horiz-adv-x="606" 
d="M391 1276q64 0 76 84h141q-8 -65 -26.5 -114t-40.5 -76.5t-49.5 -44.5t-49 -22t-43.5 -5q-40 0 -74 21t-62 42t-52 21q-62 0 -74 -84h-141q8 65 26.5 114t40.5 76.5t49.5 44.5t49 22t43.5 5q40 0 72 -21t59 -42t55 -21zM113 1004h381v-1004h-381v1004z" />
    <glyph glyph-name="Imacron" unicode="&#x12a;" horiz-adv-x="622" 
d="M612 1448h-602v180h602v-180zM510 1360v-1360h-397v1360h397z" />
    <glyph glyph-name="imacron" unicode="&#x12b;" horiz-adv-x="606" 
d="M561 1120h-514v226h514v-226zM113 1004h381v-1004h-381v1004z" />
    <glyph glyph-name="Ibreve" unicode="&#x12c;" horiz-adv-x="622" 
d="M309 1421q-304 0 -321 224h245q6 -36 23 -52t53 -16t54 16t24 52h246q-20 -224 -324 -224zM510 1360v-1360h-397v1360h397z" />
    <glyph glyph-name="ibreve" unicode="&#x12d;" horiz-adv-x="585" 
d="M594 1360q-11 -124 -87.5 -200.5t-217.5 -76.5q-137 0 -213.5 77t-85.5 200h225q0 -46 20 -73t56 -27t57 27t21 73h225zM113 1004h381v-1004h-381v1004z" />
    <glyph glyph-name="Iogonek" unicode="&#x12e;" horiz-adv-x="622" 
d="M113 0v1360h397v-1360q-34 -17 -47.5 -23.5t-39.5 -20.5t-37 -23t-25.5 -22t-19.5 -25.5t-5 -26.5q0 -30 28.5 -44t71.5 -14q40 0 90 13v-166q-97 -19 -188 -19q-65 0 -120 8.5t-107.5 28.5t-82.5 60.5t-30 97.5q0 49 31 96.5t84 79.5z" />
    <glyph glyph-name="iogonek" unicode="&#x12f;" horiz-adv-x="606" 
d="M113 1360h381v-291h-381v291zM113 0v1004h381v-1004q-87 -43 -126.5 -72.5t-39.5 -68.5q0 -30 28.5 -44t71.5 -14q40 0 90 13v-166q-97 -19 -188 -19q-65 0 -120 8.5t-107.5 27.5t-82.5 57t-30 92q0 56 33 104.5t90 81.5z" />
    <glyph glyph-name="Idotaccent" unicode="&#x130;" horiz-adv-x="622" 
d="M113 1645h397v-215h-397v215zM510 1360v-1360h-397v1360h397z" />
    <glyph glyph-name="dotlessi" unicode="&#x131;" horiz-adv-x="606" 
d="M113 1004h381v-1004h-381v1004z" />
    <glyph glyph-name="IJ" unicode="&#x132;" horiz-adv-x="1404" 
d="M520 1360v-1360h-397v1360h397zM705 0v342h67q60 0 86.5 18t26.5 62v938h397v-957q0 -97 -13 -164.5t-40.5 -115t-76.5 -74t-113.5 -38t-159.5 -11.5h-174z" />
    <glyph glyph-name="ij" unicode="&#x133;" horiz-adv-x="1212" 
d="M113 1004h381v-1004h-381v1004zM113 1360h381v-291h-381v291zM719 -6v1010h381v-1016q0 -85 -13 -143.5t-39 -98t-73 -61t-107 -30.5t-149 -9h-144v276h68q40 0 58 15t18 57zM719 1360h381v-291h-381v291z" />
    <glyph glyph-name="Jcircumflex" unicode="&#x134;" horiz-adv-x="761" 
d="M602 1645l199 -215h-307l-56 81l-59 -81h-309l206 215h326zM61 0v342h68q60 0 86.5 18t26.5 62v938h397v-957q0 -97 -13 -164.5t-40.5 -115t-76.5 -74t-113.5 -38t-159.5 -11.5h-175z" />
    <glyph glyph-name="jcircumflex" unicode="&#x135;" horiz-adv-x="606" 
d="M113 -6v1010h381v-1016q0 -85 -13 -143.5t-39 -98t-73 -61t-107 -30.5t-149 -9h-144v276h68q40 0 58 15t18 57zM461 1360l219 -262h-307l-76 129l-80 -129h-309l227 262h326z" />
    <glyph glyph-name="Kcommaaccent" unicode="&#x136;" horiz-adv-x="1400" 
d="M520 1360v-477l398 477h481l-473 -543l493 -817h-469l-295 510l-135 -156v-354h-397v1360h397zM580 -258v190h282v-202l-104 -170h-185l74 182h-67z" />
    <glyph glyph-name="kcommaaccent" unicode="&#x137;" horiz-adv-x="1243" 
d="M113 1360h381v-662l282 306h467l-373 -379l383 -625h-432l-215 356l-112 -114v-242h-381v1360zM496 -258v190h282v-202l-104 -170h-185l74 182h-67z" />
    <glyph glyph-name="kgreenlandic" unicode="&#x138;" horiz-adv-x="1243" 
d="M113 1006h381v-308l282 306h467l-395 -402l405 -602h-450l-219 334l-90 -92v-242h-381v1006z" />
    <glyph glyph-name="Lacute" unicode="&#x139;" horiz-adv-x="1163" 
d="M520 1360v-1018h643v-342h-1040v1360h397zM772 1645l-303 -215h-338l197 215h444z" />
    <glyph glyph-name="lacute" unicode="&#x13a;" horiz-adv-x="606" 
d="M494 1360v-1360h-381v1360h381zM752 1645l-303 -215h-338l196 215h445z" />
    <glyph glyph-name="Lcommaaccent" unicode="&#x13b;" horiz-adv-x="1163" 
d="M520 1360v-1018h643v-342h-1040v1360h397zM489 -258v190h283v-202l-104 -170h-185l74 182h-68z" />
    <glyph glyph-name="lcommaaccent" unicode="&#x13c;" horiz-adv-x="606" 
d="M494 1360v-1360h-381v1360h381zM160 -258v190h282v-202l-104 -170h-184l73 182h-67z" />
    <glyph glyph-name="Lcaron" unicode="&#x13d;" horiz-adv-x="1163" 
d="M997 1360l-112 -324h-254l37 324h329zM520 1360v-1018h643v-342h-1040v1360h397z" />
    <glyph glyph-name="lcaron" unicode="&#x13e;" horiz-adv-x="878" 
d="M920 1360l-113 -324h-254l37 324h330zM494 1360v-1360h-381v1360h381z" />
    <glyph glyph-name="Ldot" unicode="&#x13f;" horiz-adv-x="1163" 
d="M123 1645h397v-215h-397v215zM520 1360v-1018h643v-342h-1040v1360h397z" />
    <glyph glyph-name="ldot" unicode="&#x140;" horiz-adv-x="606" 
d="M113 1430v215h381v-215h-381zM494 1360v-1360h-381v1360h381z" />
    <glyph glyph-name="Lslash" unicode="&#x141;" horiz-adv-x="1234" 
d="M20 346v342l175 107v565h397v-320l227 140v-342l-227 -140v-356h643v-342h-1040v453z" />
    <glyph glyph-name="lslash" unicode="&#x142;" horiz-adv-x="675" 
d="M20 434v295l127 62v569h381v-385l127 61v-295l-127 -61v-680h-381v496z" />
    <glyph glyph-name="Nacute" unicode="&#x143;" horiz-adv-x="1525" 
d="M1403 0h-518l-365 858v-858h-397v1360h518l365 -858v858h397v-1360zM1161 1645l-303 -215h-338l197 215h444z" />
    <glyph glyph-name="nacute" unicode="&#x144;" horiz-adv-x="1243" 
d="M494 1004v-113q99 135 315 135q175 0 260 -94q82 -88 82 -326v-606h-381v535q0 107 -29 147q-31 39 -96 39q-151 0 -151 -205v-516h-381v1004h381zM1051 1360l-271 -242h-305l180 242h396z" />
    <glyph glyph-name="Ncommaaccent" unicode="&#x145;" horiz-adv-x="1525" 
d="M1403 0h-518l-365 858v-858h-397v1360h518l365 -858v858h397v-1360zM643 -258v190h283v-202l-105 -170h-184l74 182h-68z" />
    <glyph glyph-name="ncommaaccent" unicode="&#x146;" horiz-adv-x="1243" 
d="M494 1004v-113q99 135 315 135q175 0 260 -94q82 -88 82 -326v-606h-381v535q0 107 -29 147q-31 39 -96 39q-151 0 -151 -205v-516h-381v1004h381zM492 -258v190h282v-202l-104 -170h-185l74 182h-67z" />
    <glyph glyph-name="Ncaron" unicode="&#x147;" horiz-adv-x="1525" 
d="M1403 0h-518l-365 858v-858h-397v1360h518l365 -858v858h397v-1360zM547 1430l-260 215h372l105 -95l110 95h371l-266 -215h-432z" />
    <glyph glyph-name="ncaron" unicode="&#x148;" horiz-adv-x="1243" 
d="M494 1004v-113q99 135 315 135q175 0 260 -94q82 -88 82 -326v-606h-381v535q0 107 -29 147q-31 39 -96 39q-151 0 -151 -205v-516h-381v1004h381zM457 1118l-250 242h307l117 -109l121 109h309l-258 -242h-346z" />
    <glyph glyph-name="napostrophe" unicode="&#x149;" horiz-adv-x="1243" 
d="M494 1004v-113q99 135 315 135q175 0 260 -94q82 -88 82 -326v-606h-381v535q0 107 -29 147q-31 39 -96 39q-151 0 -151 -205v-516h-381v1004h381zM180 1280v190h283v-202l-105 -170h-184l74 182h-68z" />
    <glyph glyph-name="Eng" unicode="&#x14a;" horiz-adv-x="1517" 
d="M997 35l-477 803v-838h-397v1360h518l356 -629v629h398v-1344q0 -81 -8 -138.5t-29 -99t-50 -67t-77.5 -40.5t-103.5 -20t-136 -5h-174v309h68q112 0 112 63v17z" />
    <glyph glyph-name="eng" unicode="&#x14b;" horiz-adv-x="1243" 
d="M770 -6v541q0 102 -34.5 144t-96.5 42q-68 0 -106.5 -45.5t-38.5 -140.5v-535h-381v1004h381v-121q87 143 313 143q344 0 344 -418v-620q0 -85 -13 -143.5t-39 -98t-73 -61t-107 -30.5t-149 -9h-143v276h67q40 0 58 15t18 57z" />
    <glyph glyph-name="Omacron" unicode="&#x14c;" horiz-adv-x="1527" 
d="M1073 686q0 98 -25.5 172.5t-69.5 117t-97.5 63t-116.5 20.5t-116.5 -20.5t-97.5 -63t-69.5 -117t-25.5 -172.5t25.5 -173t69.5 -118t98 -64.5t116 -21.5t116 21.5t98 64.5t69.5 118t25.5 173zM1487 686q0 -223 -93 -385t-255.5 -244t-374.5 -82t-374.5 82t-255.5 244
t-93 385q0 167 53.5 301.5t149.5 223t228.5 135.5t291.5 47t291.5 -47t228.5 -135.5t149.5 -223t53.5 -301.5zM1100 1448h-678v180h678v-180z" />
    <glyph glyph-name="omacron" unicode="&#x14d;" horiz-adv-x="1216" 
d="M442 500q0 -122 45 -182t121 -60t121 60t45 182t-45 182.5t-121 60.5t-121 -60.5t-45 -182.5zM51 500q0 105 29 192.5t80 148.5t121.5 103t152.5 62t174 20t174 -20t152.5 -62t121.5 -103t80 -148.5t29 -192.5q0 -131 -44 -233t-121 -165t-176.5 -95t-215.5 -32
t-215.5 32t-176.5 95t-121 165t-44 233zM911 1126h-596v226h596v-226z" />
    <glyph glyph-name="Obreve" unicode="&#x14e;" horiz-adv-x="1527" 
d="M1073 686q0 98 -25.5 172.5t-69.5 117t-97.5 63t-116.5 20.5t-116.5 -20.5t-97.5 -63t-69.5 -117t-25.5 -172.5t25.5 -173t69.5 -118t98 -64.5t116 -21.5t116 21.5t98 64.5t69.5 118t25.5 173zM1487 686q0 -223 -93 -385t-255.5 -244t-374.5 -82t-374.5 82t-255.5 244
t-93 385q0 167 53.5 301.5t149.5 223t228.5 135.5t291.5 47t291.5 -47t228.5 -135.5t149.5 -223t53.5 -301.5zM881 1645h245q-10 -117 -97.5 -170.5t-266.5 -53.5q-175 0 -264.5 54t-98.5 170h246q12 -68 117 -68q107 0 119 68z" />
    <glyph glyph-name="obreve" unicode="&#x14f;" horiz-adv-x="1216" 
d="M442 500q0 -122 45 -182t121 -60t121 60t45 182t-45 182.5t-121 60.5t-121 -60.5t-45 -182.5zM51 500q0 105 29 192.5t80 148.5t121.5 103t152.5 62t174 20t174 -20t152.5 -62t121.5 -103t80 -148.5t29 -192.5q0 -131 -44 -233t-121 -165t-176.5 -95t-215.5 -32
t-215.5 32t-176.5 95t-121 165t-44 233zM954 1360q-11 -108 -101 -179t-245 -71q-152 0 -241 71.5t-99 178.5h226q5 -42 39 -61t77 -19q27 0 51 7t44 25.5t24 47.5h225z" />
    <glyph glyph-name="Ohungarumlaut" unicode="&#x150;" horiz-adv-x="1527" 
d="M1073 686q0 98 -25.5 172.5t-69.5 117t-97.5 63t-116.5 20.5t-116.5 -20.5t-97.5 -63t-69.5 -117t-25.5 -172.5t25.5 -173t69.5 -118t98 -64.5t116 -21.5t116 21.5t98 64.5t69.5 118t25.5 173zM1487 686q0 -223 -93 -385t-255.5 -244t-374.5 -82t-374.5 82t-255.5 244
t-93 385q0 167 53.5 301.5t149.5 223t228.5 135.5t291.5 47t291.5 -47t228.5 -135.5t149.5 -223t53.5 -301.5zM950 1645l-303 -215h-338l197 215h444zM1444 1645l-303 -215h-338l196 215h445z" />
    <glyph glyph-name="ohungarumlaut" unicode="&#x151;" horiz-adv-x="1216" 
d="M442 500q0 -122 45 -182t121 -60t121 60t45 182t-45 182.5t-121 60.5t-121 -60.5t-45 -182.5zM51 500q0 105 29 192.5t80 148.5t121.5 103t152.5 62t174 20t174 -20t152.5 -62t121.5 -103t80 -148.5t29 -192.5q0 -131 -44 -233t-121 -165t-176.5 -95t-215.5 -32
t-215.5 32t-176.5 95t-121 165t-44 233zM739 1360l-270 -242h-305l180 242h395zM1196 1360l-270 -242h-305l180 242h395z" />
    <glyph glyph-name="OE" unicode="&#x152;" horiz-adv-x="2197" 
d="M709 1382q191 0 331 -100v78h1071v-342h-673v-164h639v-342h-639v-170h682v-342h-1080v74q-143 -99 -346 -99q-136 0 -254 47.5t-207 135t-140.5 222.5t-51.5 300t51.5 299t142 221.5t212 134.5t262.5 47zM1065 680q0 98 -24.5 171.5t-68 115.5t-96.5 62t-116 20
t-116 -20t-96.5 -62t-68 -115.5t-24.5 -171.5t24.5 -172t68 -116t96.5 -62.5t116 -20.5t116 20.5t96.5 62.5t68 116t24.5 172z" />
    <glyph glyph-name="oe" unicode="&#x153;" horiz-adv-x="1910" 
d="M51 500q0 130 44 232.5t121 165.5t176.5 95.5t215.5 32.5q219 0 353 -113q141 113 356 113q276 0 420 -167t118 -449h-714q8 -73 54.5 -113.5t127.5 -40.5q118 0 164 106l356 -53q-17 -49 -42.5 -93t-69.5 -89.5t-99.5 -78t-137 -53t-177.5 -20.5q-225 0 -359 109
q-133 -109 -350 -109q-116 0 -215.5 32.5t-176.5 95.5t-121 165t-44 232zM442 500q0 -122 45 -182t121 -60t121 60t45 182t-45 182.5t-121 60.5t-121 -60.5t-45 -182.5zM1315 776q-65 0 -114 -33t-60 -112h340q-4 74 -51.5 109.5t-114.5 35.5z" />
    <glyph glyph-name="Racute" unicode="&#x154;" horiz-adv-x="1427" 
d="M961 0l-273 465h-168v-465h-397v1360h571q114 0 204.5 -12t172.5 -42.5t136.5 -80t86 -128t31.5 -182.5q0 -266 -246 -380l328 -535h-446zM739 1018h-219v-211h219q90 0 131 23.5t41 80.5q0 58 -41.5 82.5t-130.5 24.5zM1044 1645l-303 -215h-338l197 215h444z" />
    <glyph glyph-name="racute" unicode="&#x155;" horiz-adv-x="817" 
d="M791 1010v-373q-74 12 -121 12q-176 0 -176 -139v-510h-381v1004h370v-140q21 52 64 86.5t93.5 48t109.5 13.5q29 0 41 -2zM702 1360l-270 -242h-305l180 242h395z" />
    <glyph glyph-name="Rcommaaccent" unicode="&#x156;" horiz-adv-x="1427" 
d="M961 0l-273 465h-168v-465h-397v1360h571q114 0 204.5 -12t172.5 -42.5t136.5 -80t86 -128t31.5 -182.5q0 -266 -246 -380l328 -535h-446zM575 -258v190h283v-202l-104 -170h-185l74 182h-68zM739 1018h-219v-211h219q90 0 131 23.5t41 80.5q0 58 -41.5 82.5t-130.5 24.5
z" />
    <glyph glyph-name="rcommaaccent" unicode="&#x157;" horiz-adv-x="817" 
d="M791 1010v-373q-74 12 -121 12q-176 0 -176 -139v-510h-381v1004h370v-140q21 52 64 86.5t93.5 48t109.5 13.5q29 0 41 -2zM166 -258v190h283v-202l-105 -170h-184l73 182h-67z" />
    <glyph glyph-name="Rcaron" unicode="&#x158;" horiz-adv-x="1427" 
d="M961 0l-273 465h-168v-465h-397v1360h571q114 0 204.5 -12t172.5 -42.5t136.5 -80t86 -128t31.5 -182.5q0 -266 -246 -380l328 -535h-446zM457 1430l-260 215h372l105 -95l110 95h371l-266 -215h-432zM739 1018h-219v-211h219q90 0 131 23.5t41 80.5q0 58 -41.5 82.5
t-130.5 24.5z" />
    <glyph glyph-name="rcaron" unicode="&#x159;" horiz-adv-x="817" 
d="M791 1010v-373q-74 12 -121 12q-176 0 -176 -139v-510h-381v1004h370v-140q21 52 64 86.5t93.5 48t109.5 13.5q29 0 41 -2zM291 1118l-250 242h307l117 -109l121 109h309l-258 -242h-346z" />
    <glyph glyph-name="Sacute" unicode="&#x15a;" horiz-adv-x="1343" 
d="M88 956q0 108 50 193.5t134.5 137.5t187.5 79t216 27q328 0 604 -154l-166 -309q-87 54 -206.5 91.5t-245.5 37.5q-75 0 -120.5 -21.5t-45.5 -58.5q0 -65 112 -88l205 -43q70 -15 124.5 -31t112 -39.5t98.5 -54t74.5 -71t50.5 -94.5t17 -120q0 -114 -47 -203.5
t-129.5 -145.5t-191 -85t-236.5 -29q-390 0 -661 199l196 301q95 -71 214.5 -116.5t244.5 -45.5q88 0 144.5 20t56.5 58q0 39 -51.5 66.5t-153.5 48.5l-156 33q-69 14 -128.5 35t-117 56t-97.5 79t-64.5 107.5t-24.5 139.5zM1106 1645l-303 -215h-338l197 215h444z" />
    <glyph glyph-name="sacute" unicode="&#x15b;" horiz-adv-x="1107" 
d="M1047 924l-125 -262q-75 37 -171.5 61.5t-187.5 24.5q-96 0 -96 -37q0 -40 80 -54l133 -24q91 -17 155.5 -38t118.5 -55.5t81.5 -87t27.5 -122.5q0 -176 -130 -265.5t-360 -89.5q-319 0 -534 131l145 261q179 -111 373 -111q133 0 133 47q0 23 -25 33t-94 22l-108 21
q-365 66 -365 326q0 102 67.5 176t176.5 109.5t244 35.5q137 0 262 -30.5t199 -71.5zM958 1360l-270 -242h-305l180 242h395z" />
    <glyph glyph-name="Scircumflex" unicode="&#x15c;" horiz-adv-x="1343" 
d="M88 956q0 108 50 193.5t134.5 137.5t187.5 79t216 27q328 0 604 -154l-166 -309q-87 54 -206.5 91.5t-245.5 37.5q-75 0 -120.5 -21.5t-45.5 -58.5q0 -65 112 -88l205 -43q70 -15 124.5 -31t112 -39.5t98.5 -54t74.5 -71t50.5 -94.5t17 -120q0 -114 -47 -203.5
t-129.5 -145.5t-191 -85t-236.5 -29q-390 0 -661 199l196 301q95 -71 214.5 -116.5t244.5 -45.5q88 0 144.5 20t56.5 58q0 39 -51.5 66.5t-153.5 48.5l-156 33q-69 14 -128.5 35t-117 56t-97.5 79t-64.5 107.5t-24.5 139.5zM903 1645l260 -215h-372l-105 94l-111 -94h-370
l266 215h432z" />
    <glyph glyph-name="scircumflex" unicode="&#x15d;" horiz-adv-x="1107" 
d="M1047 924l-125 -262q-75 37 -171.5 61.5t-187.5 24.5q-96 0 -96 -37q0 -40 80 -54l133 -24q91 -17 155.5 -38t118.5 -55.5t81.5 -87t27.5 -122.5q0 -176 -130 -265.5t-360 -89.5q-319 0 -534 131l145 261q179 -111 373 -111q133 0 133 47q0 23 -25 33t-94 22l-108 21
q-365 66 -365 326q0 102 67.5 176t176.5 109.5t244 35.5q137 0 262 -30.5t199 -71.5zM764 1360l250 -242h-307l-117 109l-121 -109h-309l258 242h346z" />
    <glyph glyph-name="Scedilla" unicode="&#x15e;" horiz-adv-x="1343" 
d="M434 -356l33 102q52 -27 125 -27q92 0 92 56q0 26 -20.5 39.5t-55.5 13.5q-46 0 -73 -16l-58 32l84 138q-307 24 -536 192l196 301q95 -71 214.5 -116.5t244.5 -45.5q88 0 144.5 20t56.5 58q0 39 -51.5 66.5t-153.5 48.5l-156 33q-69 14 -128.5 35t-117 56t-97.5 79
t-64.5 107.5t-24.5 139.5q0 108 50 193.5t134.5 137.5t187.5 79t216 27q328 0 604 -154l-166 -309q-87 54 -206.5 91.5t-245.5 37.5q-75 0 -120.5 -21.5t-45.5 -58.5q0 -65 112 -88l205 -43q70 -15 124.5 -31t112 -39.5t98.5 -54t74.5 -71t50.5 -94.5t17 -120
q0 -114 -47 -203.5t-129.5 -145.5t-191 -85t-236.5 -29h-10l-45 -71q27 6 69 6q43 0 81.5 -11.5t68 -42t29.5 -75.5q0 -83 -77 -123.5t-188 -40.5q-94 0 -180 27z" />
    <glyph glyph-name="scedilla" unicode="&#x15f;" horiz-adv-x="1107" 
d="M317 -356l33 102q52 -27 125 -27q92 0 92 56q0 26 -20 39.5t-55 13.5q-47 0 -74 -16l-58 32l84 138q-235 21 -405 124l145 261q179 -111 373 -111q133 0 133 47q0 23 -25 33t-94 22l-108 21q-365 66 -365 326q0 102 67.5 176t176.5 109.5t244 35.5q137 0 262 -30.5
t199 -71.5l-125 -262q-75 37 -171.5 61.5t-187.5 24.5q-96 0 -96 -37q0 -40 80 -54l133 -24q91 -17 155.5 -38t118.5 -55.5t81.5 -87t27.5 -122.5q0 -176 -130 -265.5t-360 -89.5h-14l-45 -71q27 6 70 6t81.5 -11.5t67.5 -42t29 -75.5q0 -83 -76.5 -123.5t-187.5 -40.5
q-95 0 -181 27z" />
    <glyph glyph-name="Scaron" unicode="&#x160;" horiz-adv-x="1343" 
d="M88 956q0 108 50 193.5t134.5 137.5t187.5 79t216 27q328 0 604 -154l-166 -309q-87 54 -206.5 91.5t-245.5 37.5q-75 0 -120.5 -21.5t-45.5 -58.5q0 -65 112 -88l205 -43q70 -15 124.5 -31t112 -39.5t98.5 -54t74.5 -71t50.5 -94.5t17 -120q0 -114 -47 -203.5
t-129.5 -145.5t-191 -85t-236.5 -29q-390 0 -661 199l196 301q95 -71 214.5 -116.5t244.5 -45.5q88 0 144.5 20t56.5 58q0 39 -51.5 66.5t-153.5 48.5l-156 33q-69 14 -128.5 35t-117 56t-97.5 79t-64.5 107.5t-24.5 139.5zM479 1430l-260 215h373l104 -95l111 95h371
l-267 -215h-432z" />
    <glyph glyph-name="scaron" unicode="&#x161;" horiz-adv-x="1107" 
d="M1047 924l-125 -262q-75 37 -171.5 61.5t-187.5 24.5q-96 0 -96 -37q0 -40 80 -54l133 -24q91 -17 155.5 -38t118.5 -55.5t81.5 -87t27.5 -122.5q0 -176 -130 -265.5t-360 -89.5q-319 0 -534 131l145 261q179 -111 373 -111q133 0 133 47q0 23 -25 33t-94 22l-108 21
q-365 66 -365 326q0 102 67.5 176t176.5 109.5t244 35.5q137 0 262 -30.5t199 -71.5zM401 1118l-249 242h307l116 -109l121 109h310l-258 -242h-347z" />
    <glyph glyph-name="Tcommaaccent" unicode="&#x162;" horiz-adv-x="1243" 
d="M422 0v1018h-412v342h1223v-342h-414v-1018h-133l-61 -98q27 6 69 6q43 0 81.5 -11.5t67.5 -42t29 -75.5q0 -83 -76.5 -123.5t-187.5 -40.5q-94 0 -180 27l33 102q52 -27 125 -27q92 0 92 56q0 26 -20.5 39.5t-55.5 13.5q-47 0 -74 -16l-57 32l98 158h-147z" />
    <glyph glyph-name="tcommaaccent" unicode="&#x163;" horiz-adv-x="798" 
d="M274 -358l33 102q52 -27 125 -27q92 0 92 56q0 26 -20 39.5t-55 13.5q-47 0 -74 -16l-58 32l101 162q-142 9 -196 71.5t-54 233.5v434h-168v261h168v303h381v-303h203v-261h-203v-395q0 -42 17.5 -57t56.5 -15h129v-276h-205h-15l-61 -98q27 6 70 6t81.5 -11.5t67.5 -42
t29 -75.5q0 -83 -76.5 -123.5t-187.5 -40.5q-95 0 -181 27z" />
    <glyph glyph-name="Tcaron" unicode="&#x164;" horiz-adv-x="1243" 
d="M422 0v1018h-412v342h1223v-342h-414v-1018h-397zM399 1430l-260 215h373l104 -95l111 95h371l-267 -215h-432z" />
    <glyph glyph-name="tcaron" unicode="&#x165;" horiz-adv-x="935" 
d="M1038 1360l-112 -324h-254l37 324h329zM168 1004v303h381v-303h203v-261h-203v-395q0 -42 17.5 -57t56.5 -15h129v-276h-205q-78 0 -127 3.5t-96 14.5t-73 31t-47 55t-28.5 84.5t-7.5 120.5v434h-168v261h168z" />
    <glyph glyph-name="Tbar" unicode="&#x166;" horiz-adv-x="1243" 
d="M422 0v512h-205v342h205v164h-412v342h1223v-342h-414v-164h205v-342h-205v-512h-397z" />
    <glyph glyph-name="tbar" unicode="&#x167;" horiz-adv-x="903" 
d="M229 1004v303h381v-303h203v-261h-203v-88h203v-260h-203v-47q0 -42 17.5 -57t56.5 -15h129v-276h-205q-78 0 -127 3.5t-96 14.5t-73 31t-47 55t-28.5 84.5t-7.5 120.5v86h-168v260h168v88h-168v261h168z" />
    <glyph glyph-name="Utilde" unicode="&#x168;" horiz-adv-x="1449" 
d="M102 1360h402v-789q0 -137 50 -199.5t175 -62.5q122 0 172.5 66.5t50.5 195.5v789h396v-750q0 -329 -143.5 -482t-475.5 -153q-166 0 -281.5 33t-194 106.5t-115 192.5t-36.5 291v762zM844 1575q87 0 102 70h184q-10 -54 -34 -95.5t-52.5 -64.5t-64.5 -37t-64.5 -18.5
t-58.5 -4.5q-53 0 -97.5 17.5t-81 35t-67.5 17.5q-85 0 -100 -70h-184q10 54 34 95.5t52.5 64.5t64.5 37t64.5 18.5t58.5 4.5q52 0 95 -17.5t78.5 -35t70.5 -17.5z" />
    <glyph glyph-name="utilde" unicode="&#x169;" horiz-adv-x="1226" 
d="M733 0v119q-87 -144 -295 -144q-186 0 -268 101q-78 93 -78 325v603h381v-537q0 -108 29 -148q28 -38 94 -38q67 0 102 48t35 158v517h381v-1004h-381zM721 1276q85 0 100 84h185q-20 -119 -86.5 -180.5t-169.5 -61.5q-57 0 -105.5 21t-86.5 42t-69 21q-83 0 -98 -84
h-184q19 115 85 178.5t173 63.5q56 0 101.5 -21t82.5 -42t72 -21z" />
    <glyph glyph-name="Umacron" unicode="&#x16a;" horiz-adv-x="1449" 
d="M102 1360h402v-789q0 -137 50 -199.5t175 -62.5q122 0 172.5 66.5t50.5 195.5v789h396v-750q0 -329 -143.5 -482t-475.5 -153q-166 0 -281.5 33t-194 106.5t-115 192.5t-36.5 291v762zM1057 1448h-678v180h678v-180z" />
    <glyph glyph-name="umacron" unicode="&#x16b;" horiz-adv-x="1226" 
d="M733 0v119q-87 -144 -295 -144q-186 0 -268 101q-78 93 -78 325v603h381v-537q0 -108 29 -148q28 -38 94 -38q67 0 102 48t35 158v517h381v-1004h-381zM907 1126h-596v226h596v-226z" />
    <glyph glyph-name="Ubreve" unicode="&#x16c;" horiz-adv-x="1449" 
d="M102 1360h402v-789q0 -137 50 -199.5t175 -62.5q122 0 172.5 66.5t50.5 195.5v789h396v-750q0 -329 -143.5 -482t-475.5 -153q-166 0 -281.5 33t-194 106.5t-115 192.5t-36.5 291v762zM829 1645h246q-10 -117 -97.5 -170.5t-266.5 -53.5q-175 0 -264.5 54t-98.5 170h246
q12 -68 117 -68q106 0 118 68z" />
    <glyph glyph-name="ubreve" unicode="&#x16d;" horiz-adv-x="1226" 
d="M733 0v119q-87 -144 -295 -144q-186 0 -268 101q-78 93 -78 325v603h381v-537q0 -108 29 -148q28 -38 94 -38q67 0 102 48t35 158v517h381v-1004h-381zM946 1360q-11 -108 -101 -179t-245 -71q-152 0 -241 71.5t-99 178.5h225q5 -42 39.5 -61t77.5 -19q27 0 51 7t44 25.5
t24 47.5h225z" />
    <glyph glyph-name="Uring" unicode="&#x16e;" horiz-adv-x="1449" 
d="M102 1360h402v-789q0 -137 50 -199.5t175 -62.5q122 0 172.5 66.5t50.5 195.5v789h396v-750q0 -329 -143.5 -482t-475.5 -153q-166 0 -281.5 33t-194 106.5t-115 192.5t-36.5 291v762zM723 1735q72 0 122 -46t50 -116t-49.5 -116t-122.5 -46t-122.5 46t-49.5 116t50 116
t122 46zM723 1655q-33 0 -57.5 -23.5t-24.5 -58.5q0 -34 24.5 -57t57.5 -23t57.5 23t24.5 57q0 35 -24.5 58.5t-57.5 23.5z" />
    <glyph glyph-name="uring" unicode="&#x16f;" horiz-adv-x="1226" 
d="M733 0v119q-87 -144 -295 -144q-186 0 -268 101q-78 93 -78 325v603h381v-537q0 -108 29 -148q28 -38 94 -38q67 0 102 48t35 158v517h381v-1004h-381zM602 1454q75 0 127.5 -48.5t52.5 -121.5t-52 -121.5t-128 -48.5t-128 48.5t-52 121.5t52.5 121.5t127.5 48.5z
M602 1362q-33 0 -55.5 -22.5t-22.5 -55.5t22.5 -54.5t55.5 -21.5t55.5 21.5t22.5 54.5t-22.5 55.5t-55.5 22.5z" />
    <glyph glyph-name="Uhungarumlaut" unicode="&#x170;" horiz-adv-x="1449" 
d="M102 1360h402v-789q0 -137 50 -199.5t175 -62.5q122 0 172.5 66.5t50.5 195.5v789h396v-750q0 -329 -143.5 -482t-475.5 -153q-166 0 -281.5 33t-194 106.5t-115 192.5t-36.5 291v762zM840 1645l-303 -215h-338l196 215h445zM1333 1645l-303 -215h-338l197 215h444z" />
    <glyph glyph-name="uhungarumlaut" unicode="&#x171;" horiz-adv-x="1226" 
d="M733 0v119q-87 -144 -295 -144q-186 0 -268 101q-78 93 -78 325v603h381v-537q0 -108 29 -148q28 -38 94 -38q67 0 102 48t35 158v517h381v-1004h-381zM711 1360l-271 -242h-305l180 242h396zM1167 1360l-270 -242h-305l180 242h395z" />
    <glyph glyph-name="Uogonek" unicode="&#x172;" horiz-adv-x="1449" 
d="M102 1360h402v-789q0 -137 50 -199.5t175 -62.5q122 0 172.5 66.5t50.5 195.5v789h396v-750q0 -266 -92.5 -416t-299.5 -196q-82 -40 -120.5 -70t-38.5 -69q0 -30 28.5 -44t71.5 -14q40 0 90 13v-166q-97 -19 -188 -19q-64 0 -118.5 8t-105 27.5t-79.5 57.5t-29 92
q0 101 104 172q-245 28 -357 171.5t-112 440.5v762z" />
    <glyph glyph-name="uogonek" unicode="&#x173;" horiz-adv-x="1226" 
d="M733 0v119q-87 -144 -295 -144q-186 0 -268 101q-78 93 -78 325v603h381v-537q0 -108 29 -148q28 -38 94 -38q67 0 102 48t35 158v517h381v-1004q-84 -35 -125 -67.5t-41 -73.5q0 -30 29 -44t72 -14q40 0 90 13v-166q-97 -19 -189 -19q-51 0 -96 4.5t-91 18t-78.5 34
t-53.5 55t-21 79.5q0 112 123 180z" />
    <glyph glyph-name="Wcircumflex" unicode="&#x174;" horiz-adv-x="1873" 
d="M1153 1360l172 -850l109 850h421l-270 -1360h-463l-184 922l-186 -922h-461l-273 1360h422l121 -838l160 838h432zM1159 1645l260 -215h-372l-105 94l-111 -94h-370l266 215h432z" />
    <glyph glyph-name="wcircumflex" unicode="&#x175;" horiz-adv-x="1673" 
d="M643 1004l-113 -625l-122 625h-408l313 -1004h418l111 573l114 -573h414l303 1004h-395l-113 -625l-127 625h-395zM1022 1360l250 -242h-307l-117 109l-121 -109h-309l258 242h346z" />
    <glyph glyph-name="Ycircumflex" unicode="&#x176;" horiz-adv-x="1390" 
d="M-31 1360h467l258 -481l262 481h465l-534 -848v-512h-398v516zM920 1645l260 -215h-373l-105 94l-110 -94h-371l266 215h433z" />
    <glyph glyph-name="ycircumflex" unicode="&#x177;" horiz-adv-x="1118" 
d="M111 -354h137q209 0 309 70t174 266l387 1022h-395l-158 -635l-157 635h-408l365 -1010l-5 -12q-13 -38 -41.5 -49t-91.5 -11h-116v-276zM743 1360l250 -242h-307l-117 109l-120 -109h-310l258 242h346z" />
    <glyph glyph-name="Ydieresis" unicode="&#x178;" horiz-adv-x="1390" 
d="M-31 1360h467l258 -481l262 481h465l-534 -848v-512h-398v516zM315 1645h322v-215h-322v215zM752 1645h321v-215h-321v215z" />
    <glyph glyph-name="Zacute" unicode="&#x179;" horiz-adv-x="1308" 
d="M1217 1360v-342l-685 -676h709v-342h-1192v342l684 676h-629v342h1113zM1065 1645l-303 -215h-338l197 215h444z" />
    <glyph glyph-name="zacute" unicode="&#x17a;" horiz-adv-x="1101" 
d="M45 258v-258h1016v258h-539l516 487v259h-954v-259h477zM961 1360l-271 -242h-305l180 242h396z" />
    <glyph glyph-name="Zdotaccent" unicode="&#x17b;" horiz-adv-x="1308" 
d="M1217 1360v-342l-685 -676h709v-342h-1192v342l684 676h-629v342h1113zM492 1645h325v-215h-325v215z" />
    <glyph glyph-name="zdotaccent" unicode="&#x17c;" horiz-adv-x="1101" 
d="M45 258v-258h1016v258h-539l516 487v259h-954v-259h477zM408 1360h315v-242h-315v242z" />
    <glyph glyph-name="Zcaron" unicode="&#x17d;" horiz-adv-x="1308" 
d="M1217 1360v-342l-685 -676h709v-342h-1192v342l684 676h-629v342h1113zM459 1430l-260 215h372l105 -95l110 95h371l-266 -215h-432z" />
    <glyph glyph-name="zcaron" unicode="&#x17e;" horiz-adv-x="1101" 
d="M45 258v-258h1016v258h-539l516 487v259h-954v-259h477zM393 1118l-250 242h308l116 -109l121 109h309l-258 -242h-346z" />
    <glyph glyph-name="uni0186" unicode="&#x186;" horiz-adv-x="1452" 
d="M426 831l-389 84q51 218 236.5 348t449.5 130q323 0 505.5 -188.5t182.5 -524.5q0 -329 -190.5 -517t-507.5 -188q-257 0 -440 139.5t-226 360.5l387 86q17 -103 88 -177.5t189 -74.5q127 0 205.5 93t78.5 278q0 186 -78 282.5t-204 96.5q-238 0 -287 -228z" />
    <glyph glyph-name="uni018F" unicode="&#x18f;" horiz-adv-x="1519" 
d="M53 838h991q-6 77 -49 128.5t-100.5 72t-124.5 20.5q-82 0 -153 -28.5t-111 -88.5l-387 131q89 156 255 238t386 82q158 0 290.5 -48t227.5 -137t148 -223.5t53 -300.5t-53 -300.5t-148 -223.5t-227.5 -137t-290.5 -48q-245 0 -419 110t-249.5 306t-38.5 447zM760 309
q111 0 192.5 57t94.5 171h-576q13 -113 97.5 -170.5t191.5 -57.5z" />
    <glyph glyph-name="uni0190" unicode="&#x190;" horiz-adv-x="1327" 
d="M1249 342v-342h-633q-565 0 -565 434q0 204 160 299q-58 54 -83.5 116t-25.5 148t27 150.5t73.5 104.5t117 65t147 34t174.5 9h600v-342h-610q-119 0 -119 -88q0 -86 119 -86h575v-318h-600q-71 0 -105 -21.5t-34 -70.5t34 -70.5t105 -21.5h643z" />
    <glyph glyph-name="uni019D" unicode="&#x19d;" horiz-adv-x="1517" 
d="M-20 -354v340h67q40 0 58 14.5t18 56.5v1303h518l356 -838v838h398v-1360h-518l-357 838v-850q0 -105 -21.5 -172t-72 -104.5t-121 -51.5t-182.5 -14h-143z" />
    <glyph glyph-name="uni019F" unicode="&#x19f;" horiz-adv-x="1519" 
d="M1479 684q0 -166 -53 -300.5t-148 -223.5t-227.5 -137t-290.5 -48t-290.5 48t-227.5 137t-148 223.5t-53 300.5t53 300.5t148 223.5t227.5 137t290.5 48t290.5 -48t227.5 -137t148 -223.5t53 -300.5zM760 1059q-104 0 -185.5 -56t-109.5 -169h590q-19 76 -66.5 128.5
t-105 74.5t-123.5 22zM760 309q103 0 184.5 55t110.5 168h-590q19 -77 66 -128.5t104.5 -73t124.5 -21.5z" />
    <glyph glyph-name="Ohorn" unicode="&#x1a0;" horiz-adv-x="1527" 
d="M1487 686q0 -223 -93 -385t-255.5 -244t-374.5 -82t-374.5 82t-255.5 244t-93 385q0 167 53.5 301.5t149.5 223t228.5 135.5t291.5 47q202 0 366 -76q69 -32 119.5 -20.5t54.5 56t-44 111.5l280 41q38 -57 46 -122t-12.5 -120t-76 -94.5t-137.5 -46.5q127 -179 127 -436z
M1073 686q0 98 -25.5 172.5t-69.5 117t-97.5 63t-116.5 20.5t-116.5 -20.5t-97.5 -63t-69.5 -117t-25.5 -172.5t25.5 -173t69.5 -118t98 -64.5t116 -21.5t116 21.5t98 64.5t69.5 118t25.5 173z" />
    <glyph glyph-name="ohorn" unicode="&#x1a1;" horiz-adv-x="1216" 
d="M51 500q0 105 29 192.5t80 148.5t121.5 103t152.5 62t174 20q109 0 211 -31q61 -18 86 -18q26 2 41 15t15 46q0 27 -7.5 53t-15.5 38l-8 12l258 35q35 -75 35 -138q0 -80 -38.5 -142t-111.5 -81q92 -129 92 -315q0 -131 -44 -233t-121 -165t-176.5 -95t-215.5 -32
t-215.5 32t-176.5 95t-121 165t-44 233zM442 500q0 -122 45 -182t121 -60t121 60t45 182t-45 182.5t-121 60.5t-121 -60.5t-45 -182.5z" />
    <glyph glyph-name="Uhorn" unicode="&#x1af;" horiz-adv-x="1449" 
d="M102 1360h402v-789q0 -137 50 -199.5t175 -62.5q122 0 172.5 66.5t50.5 195.5v789h222q46 0 72 32t26 85q0 52 -17 90l263 51q38 -62 38 -150q0 -79 -55 -152t-153 -89v-617q0 -329 -143.5 -482t-475.5 -153q-166 0 -281.5 33t-194 106.5t-115 192.5t-36.5 291v762z" />
    <glyph glyph-name="uhorn" unicode="&#x1b0;" horiz-adv-x="1275" 
d="M733 0v119q-87 -144 -295 -144q-186 0 -268 101q-78 93 -78 325v603h381v-537q0 -108 29 -148q28 -38 94 -38q67 0 102 48t35 158v517h178q56 0 83.5 31t27.5 85t-16 90l262 52q39 -64 39 -150q0 -79 -50.5 -148.5t-142.5 -91.5v-872h-381z" />
    <glyph glyph-name="uni01C4" unicode="&#x1c4;" horiz-adv-x="2678" 
d="M958 680q0 62 -12 111.5t-32 84.5t-51 61t-64.5 41t-77.5 24.5t-85.5 12.5t-92.5 3h-23v-676h23q51 0 92.5 3t85.5 12.5t77.5 24.5t64.5 41t51 61t32 84.5t12 111.5zM123 1360h414q140 0 258.5 -20t227.5 -68.5t185 -124.5t121 -195t45 -272t-45 -272t-121 -195
t-185 -124.5t-227.5 -68.5t-258.5 -20h-414v1360zM2587 1360v-342l-684 -676h708v-342h-1192v342l684 676h-628v342h1112zM1817 1430l-261 215h373l105 -95l110 95h371l-266 -215h-432z" />
    <glyph glyph-name="uni01C5" unicode="&#x1c5;" horiz-adv-x="2512" 
d="M958 680q0 62 -12 111.5t-32 84.5t-51 61t-64.5 41t-77.5 24.5t-85.5 12.5t-92.5 3h-23v-676h23q51 0 92.5 3t85.5 12.5t77.5 24.5t64.5 41t51 61t32 84.5t12 111.5zM123 1360h414q140 0 258.5 -20t227.5 -68.5t185 -124.5t121 -195t45 -272t-45 -272t-121 -195
t-185 -124.5t-227.5 -68.5t-258.5 -20h-414v1360zM1456 258v-258h1016v258h-539l516 487v259h-954v-259h477zM1819 1118l-250 242h307l117 -109l121 109h309l-258 -242h-346z" />
    <glyph glyph-name="uni01C6" unicode="&#x1c6;" horiz-adv-x="2349" 
d="M1135 1360v-1360h-381v100q-36 -56 -106.5 -90.5t-170.5 -34.5q-185 0 -305.5 141.5t-120.5 385.5q0 122 34 222t93 165.5t138 101t169 35.5q89 0 159.5 -32t109.5 -93v459h381zM596 258q77 0 123.5 70.5t46.5 173.5q0 102 -46.5 171.5t-123.5 69.5q-76 0 -115 -71
t-39 -172q0 -99 39 -170.5t115 -71.5zM1292 0v258l516 487h-477v259h955v-259l-517 -487h539v-258h-1016zM1655 1118l-250 242h307l117 -109l121 109h309l-258 -242h-346z" />
    <glyph glyph-name="uni01C7" unicode="&#x1c7;" horiz-adv-x="1925" 
d="M520 1360v-1018h643v-342h-1040v1360h397zM1225 0v342h67q60 0 86.5 18t26.5 62v938h397v-957q0 -97 -13 -164.5t-40.5 -115t-76.5 -74t-113.5 -38t-159.5 -11.5h-174z" />
    <glyph glyph-name="uni01C8" unicode="&#x1c8;" horiz-adv-x="1769" 
d="M520 1360v-1018h643v-342h-1040v1360h397zM1276 -6v1010h381v-1016q0 -85 -13 -143.5t-39 -98t-73 -61t-107 -30.5t-149 -9h-143v276h67q40 0 58 15t18 57zM1276 1360h381v-291h-381v291z" />
    <glyph glyph-name="uni01C9" unicode="&#x1c9;" horiz-adv-x="1212" 
d="M494 1360v-1360h-381v1360h381zM719 -6v1010h381v-1016q0 -85 -13 -143.5t-39 -98t-73 -61t-107 -30.5t-149 -9h-144v276h68q40 0 58 15t18 57zM719 1360h381v-291h-381v291z" />
    <glyph glyph-name="uni01CA" unicode="&#x1ca;" horiz-adv-x="2287" 
d="M1403 0h-518l-365 858v-858h-397v1360h518l365 -858v858h397v-1360zM1587 0v342h68q59 0 85.5 18t26.5 62v938h398v-957q0 -122 -19.5 -198t-68.5 -122.5t-123.5 -64.5t-192.5 -18h-174z" />
    <glyph glyph-name="uni01CB" unicode="&#x1cb;" horiz-adv-x="2131" 
d="M1403 0h-518l-365 858v-858h-397v1360h518l365 -858v858h397v-1360zM1638 -6v1010h381v-1016q0 -85 -13 -143.5t-39 -98t-73 -61t-107 -30.5t-149 -9h-143v276h68q39 0 57 15t18 57zM1638 1360h381v-291h-381v291z" />
    <glyph glyph-name="uni01CC" unicode="&#x1cc;" horiz-adv-x="1849" 
d="M494 1004v-113q99 135 315 135q175 0 260 -94q82 -88 82 -326v-606h-381v535q0 107 -29 147q-31 39 -96 39q-151 0 -151 -205v-516h-381v1004h381zM1356 -6v1010h381v-1016q0 -85 -13 -143.5t-39 -98t-73 -61t-107 -30.5t-149 -9h-144v276h68q40 0 58 15t18 57z
M1356 1360h381v-291h-381v291z" />
    <glyph glyph-name="uni01F1" unicode="&#x1f1;" horiz-adv-x="2678" 
d="M958 680q0 62 -12 111.5t-32 84.5t-51 61t-64.5 41t-77.5 24.5t-85.5 12.5t-92.5 3h-23v-676h23q51 0 92.5 3t85.5 12.5t77.5 24.5t64.5 41t51 61t32 84.5t12 111.5zM123 1360h414q140 0 258.5 -20t227.5 -68.5t185 -124.5t121 -195t45 -272t-45 -272t-121 -195
t-185 -124.5t-227.5 -68.5t-258.5 -20h-414v1360zM2587 1360v-342l-684 -676h708v-342h-1192v342l684 676h-628v342h1112z" />
    <glyph glyph-name="uni01F2" unicode="&#x1f2;" horiz-adv-x="2512" 
d="M958 680q0 62 -12 111.5t-32 84.5t-51 61t-64.5 41t-77.5 24.5t-85.5 12.5t-92.5 3h-23v-676h23q51 0 92.5 3t85.5 12.5t77.5 24.5t64.5 41t51 61t32 84.5t12 111.5zM123 1360h414q140 0 258.5 -20t227.5 -68.5t185 -124.5t121 -195t45 -272t-45 -272t-121 -195
t-185 -124.5t-227.5 -68.5t-258.5 -20h-414v1360zM1456 258v-258h1016v258h-539l516 487v259h-954v-259h477z" />
    <glyph glyph-name="uni01F3" unicode="&#x1f3;" horiz-adv-x="2349" 
d="M1135 1360v-1360h-381v100q-36 -56 -106.5 -90.5t-170.5 -34.5q-185 0 -305.5 141.5t-120.5 385.5q0 122 34 222t93 165.5t138 101t169 35.5q89 0 159.5 -32t109.5 -93v459h381zM596 258q77 0 123.5 70.5t46.5 173.5q0 102 -46.5 171.5t-123.5 69.5q-76 0 -115 -71
t-39 -172q0 -99 39 -170.5t115 -71.5zM1292 0v258l516 487h-477v259h955v-259l-517 -487h539v-258h-1016z" />
    <glyph glyph-name="Aringacute" unicode="&#x1fa;" horiz-adv-x="1417" 
d="M1206 1880l-342 -240q17 -34 17 -67q0 -70 -49.5 -116t-122.5 -46t-122.5 46t-49.5 116q0 31 11 58.5t46 66.5l168 182h444zM709 1655q-33 0 -57.5 -23.5t-24.5 -58.5q0 -34 24.5 -57t57.5 -23t57.5 23t24.5 57q0 35 -24.5 58.5t-57.5 23.5zM-10 0l499 1360h437
l501 -1360h-432l-75 229h-431l-75 -229h-424zM707 889l-107 -322h211z" />
    <glyph glyph-name="aringacute" unicode="&#x1fb;" horiz-adv-x="1181" 
d="M1022 1593l-266 -260q26 -41 26 -90q0 -73 -52 -121.5t-128 -48.5t-128 48.5t-52 121.5q0 28 10 55t43 76l152 219h395zM602 1321q-33 0 -55.5 -22.5t-22.5 -55.5t22.5 -54.5t55.5 -21.5t55.5 21.5t22.5 54.5t-22.5 55.5t-55.5 22.5zM92 680h357q7 94 135 94
q69 0 100 -23t31 -71v-21l-113 -12q-152 -16 -267 -42.5t-181 -80.5q-95 -75 -95 -211q0 -140 103.5 -239t279.5 -99q228 0 314 142l2 -117h342q-22 235 -19 412l2 213q1 211 -111 306t-345 95q-500 0 -535 -346zM725 377q0 -67 -46 -104t-124 -37q-55 0 -84 27.5t-29 66.5
q0 40 36.5 63.5t123.5 32.5l123 12v-61z" />
    <glyph glyph-name="AEacute" unicode="&#x1fc;" horiz-adv-x="2232" 
d="M1075 1360h1071v-342h-673v-164h638v-342h-638v-170h681v-342h-1079v229h-502l-190 -229h-465zM2054 1645l-303 -215h-338l197 215h444zM1075 831l-221 -264h221v264z" />
    <glyph glyph-name="aeacute" unicode="&#x1fd;" horiz-adv-x="1873" 
d="M92 680h357q7 94 135 94q69 0 100 -23t31 -71v-21l-113 -12q-76 -8 -124 -14.5t-114.5 -20.5t-118.5 -36.5t-91 -53.5q-95 -78 -95 -209q0 -141 104.5 -239.5t285.5 -98.5q274 0 411 154q154 -154 420 -154q96 0 177.5 20.5t137 53t99.5 78t69.5 89.5t42.5 93l-356 53
q-46 -106 -164 -106q-81 0 -127.5 40.5t-54.5 113.5h715q26 282 -118.5 449t-420.5 167q-187 0 -328 -86q-108 86 -325 86q-500 0 -535 -346zM555 236q-55 0 -84 27.5t-29 66.5q0 40 36.5 63.5t123.5 32.5l123 12v-61q0 -67 -46 -104t-124 -37zM1444 631h-340q11 79 60 112
t114 33q67 0 114.5 -35.5t51.5 -109.5zM1315 1360l-271 -242h-305l181 242h395z" />
    <glyph glyph-name="Oslashacute" unicode="&#x1fe;" horiz-adv-x="1519" 
d="M1479 680q0 -166 -53 -300t-148.5 -222.5t-227.5 -135.5t-290 -47q-252 0 -424 111l-107 -125l-104 90l102 121q-186 186 -186 508q0 221 92 381t253.5 240.5t373.5 80.5q235 0 411 -104l103 121l106 -88l-98 -115q197 -191 197 -516zM1065 680q0 127 -43 211l-447 -524
q72 -58 185 -58q63 0 116 20.5t96.5 62.5t68 116t24.5 172zM455 680q0 -123 34 -201l443 520q-70 50 -172 50q-63 0 -116 -20t-96.5 -62t-68 -115.5t-24.5 -171.5zM1239 1645l-303 -215h-338l197 215h444z" />
    <glyph glyph-name="oslashacute" unicode="&#x1ff;" horiz-adv-x="1216" 
d="M51 500q0 130 44 232.5t121 165.5t176.5 95.5t215.5 32.5q167 0 297 -65l90 104l95 -82l-82 -94q157 -141 157 -389q0 -130 -44 -232t-121 -165t-176.5 -95.5t-215.5 -32.5q-184 0 -323 80l-107 -123l-92 84l98 115q-133 136 -133 369zM1008 1360l-271 -242h-305l180 242
h396zM774 500q0 60 -12 106l-262 -303q42 -45 108 -45q76 0 121 60t45 182zM442 500q0 -48 4 -68l248 285q-36 26 -86 26q-76 0 -121 -60.5t-45 -182.5z" />
    <glyph glyph-name="Scommaaccent" unicode="&#x218;" horiz-adv-x="1343" 
d="M88 956q0 108 50 193.5t134.5 137.5t187.5 79t216 27q328 0 604 -154l-166 -309q-87 54 -206.5 91.5t-245.5 37.5q-75 0 -120.5 -21.5t-45.5 -58.5q0 -65 112 -88l205 -43q70 -15 124.5 -31t112 -39.5t98.5 -54t74.5 -71t50.5 -94.5t17 -120q0 -114 -47 -203.5
t-129.5 -145.5t-191 -85t-236.5 -29q-390 0 -661 199l196 301q95 -71 214.5 -116.5t244.5 -45.5q88 0 144.5 20t56.5 58q0 39 -51.5 66.5t-153.5 48.5l-156 33q-69 14 -128.5 35t-117 56t-97.5 79t-64.5 107.5t-24.5 139.5zM532 -258v190h283v-202l-104 -170h-185l74 182
h-68z" />
    <glyph glyph-name="scommaaccent" unicode="&#x219;" horiz-adv-x="1107" 
d="M1047 924l-125 -262q-75 37 -171.5 61.5t-187.5 24.5q-96 0 -96 -37q0 -40 80 -54l133 -24q91 -17 155.5 -38t118.5 -55.5t81.5 -87t27.5 -122.5q0 -176 -130 -265.5t-360 -89.5q-319 0 -534 131l145 261q179 -111 373 -111q133 0 133 47q0 23 -25 33t-94 22l-108 21
q-365 66 -365 326q0 102 67.5 176t176.5 109.5t244 35.5q137 0 262 -30.5t199 -71.5zM422 -258v190h283v-202l-105 -170h-184l73 182h-67z" />
    <glyph glyph-name="uni021A" unicode="&#x21a;" horiz-adv-x="1243" 
d="M422 0v1018h-412v342h1223v-342h-414v-1018h-397zM481 -258v190h283v-202l-105 -170h-184l74 182h-68z" />
    <glyph glyph-name="uni021B" unicode="&#x21b;" horiz-adv-x="798" 
d="M168 1004v303h381v-303h203v-261h-203v-395q0 -42 17.5 -57t56.5 -15h129v-276h-205q-78 0 -127 3.5t-96 14.5t-73 31t-47 55t-28.5 84.5t-7.5 120.5v434h-168v261h168zM227 -258v190h283v-202l-104 -170h-185l74 182h-68z" />
    <glyph glyph-name="uni021C" unicode="&#x21c;" horiz-adv-x="1292" 
d="M80 -377l-23 348q152 11 260 22.5t211 31.5t165.5 46t100 65.5t37.5 90.5q0 144 -213 144q-80 0 -202 -27l-45 350q234 43 332 90t98 136q0 60 -49.5 94.5t-139.5 34.5t-160.5 -51.5t-109.5 -135.5l-356 144q58 130 161 216t225 123t265 37q88 0 170.5 -16t156.5 -50.5
t129.5 -85t88 -124t32.5 -162.5q0 -218 -192 -360q108 -58 166.5 -155t58.5 -216q0 -192 -117 -314.5t-373 -190t-677 -85.5z" />
    <glyph glyph-name="uni021D" unicode="&#x21d;" horiz-adv-x="1161" 
d="M344 598l-344 80q33 94 94 163t140 108.5t166 58t186 18.5q78 0 150 -13t135.5 -41t110.5 -69t74 -101t27 -132q0 -177 -147 -277q83 -40 128.5 -115t45.5 -172q0 -226 -271.5 -343t-793.5 -128l-20 302q112 7 190 13.5t164.5 17t143 24.5t104.5 33t71 45t23 59
q0 40 -34.5 65.5t-112 30t-203.5 -38.5l-45 303q198 31 284 63.5t86 86.5q0 88 -155 88q-159 0 -197 -129z" />
    <glyph glyph-name="uni0226" unicode="&#x226;" horiz-adv-x="1417" 
d="M-10 0l499 1360h437l501 -1360h-432l-75 229h-431l-75 -229h-424zM547 1645h325v-215h-325v215zM707 889l-107 -322h211z" />
    <glyph glyph-name="uni0227" unicode="&#x227;" horiz-adv-x="1181" 
d="M92 680h357q7 94 135 94q69 0 100 -23t31 -71v-21l-113 -12q-152 -16 -267 -42.5t-181 -80.5q-95 -75 -95 -211q0 -140 103.5 -239t279.5 -99q228 0 314 142l2 -117h342q-22 235 -19 412l2 213q1 211 -111 306t-345 95q-500 0 -535 -346zM725 377q0 -67 -46 -104
t-124 -37q-55 0 -84 27.5t-29 66.5q0 40 36.5 63.5t123.5 32.5l123 12v-61zM453 1360h315v-242h-315v242z" />
    <glyph glyph-name="uni0232" unicode="&#x232;" horiz-adv-x="1390" 
d="M-31 1360h467l258 -481l262 481h465l-534 -848v-512h-398v516zM1034 1448h-678v180h678v-180z" />
    <glyph glyph-name="uni0233" unicode="&#x233;" horiz-adv-x="1118" 
d="M111 -354h137q209 0 309 70t174 266l387 1022h-395l-158 -635l-157 635h-408l365 -1010l-5 -12q-13 -38 -41.5 -49t-91.5 -11h-116v-276zM860 1126h-596v226h596v-226z" />
    <glyph glyph-name="dotlessj" unicode="&#x237;" horiz-adv-x="606" 
d="M113 -6v1010h381v-1016q0 -85 -13 -143.5t-39 -98t-73 -61t-107 -30.5t-149 -9h-144v276h68q40 0 58 15t18 57z" />
    <glyph glyph-name="uni0254" unicode="&#x254;" horiz-adv-x="1157" 
d="M561 -25q-216 0 -352 103.5t-178 269.5l350 53q29 -145 160 -145q176 0 176 244q0 111 -41.5 178t-132.5 67q-137 0 -166 -145l-350 53q42 165 180 269t350 104q264 0 406.5 -142.5t142.5 -381.5q0 -237 -149.5 -382t-395.5 -145z" />
    <glyph glyph-name="uni0259" unicode="&#x259;" horiz-adv-x="1204" 
d="M594 1026q264 0 411.5 -146.5t147.5 -385.5q0 -234 -155.5 -376.5t-403.5 -142.5q-276 0 -420.5 167.5t-118.5 449.5h715q-8 72 -55 112.5t-127 40.5q-118 0 -164 -106l-356 53q17 49 42.5 93t69.5 89.5t99.5 78t137 53t177.5 20.5zM596 225q65 0 113.5 33t58.5 113h-338
q4 -74 51.5 -110t114.5 -36z" />
    <glyph glyph-name="uni025B" unicode="&#x25b;" horiz-adv-x="1249" 
d="M1167 258v-258h-594q-260 0 -391 75t-131 244q0 151 156 224q-105 72 -105 194q0 80 33.5 133t101.5 82t153 40.5t206 11.5h567v-261h-561q-61 0 -90 -12.5t-29 -44.5q0 -31 29.5 -44t89.5 -13h541v-244h-565q-71 0 -103.5 -15t-32.5 -51q0 -34 32 -47.5t104 -13.5h589z
" />
    <glyph glyph-name="uni0272" unicode="&#x272;" horiz-adv-x="1243" 
d="M113 -6v1010h381v-121q87 143 313 143q344 0 344 -418v-608h-381v535q0 102 -34.5 144t-96.5 42q-68 0 -106.5 -45.5t-38.5 -140.5v-547q0 -85 -13 -143.5t-39 -98t-73 -61t-107 -30.5t-149 -9h-144v276h68q40 0 58 15t18 57z" />
    <glyph glyph-name="uni0275" unicode="&#x275;" horiz-adv-x="1216" 
d="M51 500q0 130 44 232.5t121 165.5t176.5 95.5t215.5 32.5t215.5 -32.5t176.5 -95.5t121 -165.5t44 -232.5t-44 -232t-121 -165t-176.5 -95.5t-215.5 -32.5t-215.5 32.5t-176.5 95.5t-121 165t-44 232zM608 743q-123 0 -157 -149h313q-15 74 -56 111.5t-100 37.5zM608 258
q59 0 100 37t56 111h-313q33 -148 157 -148z" />
    <glyph glyph-name="circumflex" unicode="&#x2c6;" horiz-adv-x="935" 
d="M645 1360l250 -242h-307l-117 109l-121 -109h-309l258 242h346z" />
    <glyph glyph-name="caron" unicode="&#x2c7;" horiz-adv-x="935" 
d="M291 1118l-250 242h307l117 -109l121 109h309l-258 -242h-346z" />
    <glyph glyph-name="breve" unicode="&#x2d8;" horiz-adv-x="768" 
d="M727 1360q-11 -108 -101 -179t-245 -71q-152 0 -241 71.5t-99 178.5h225q5 -42 39.5 -61t77.5 -19q27 0 51 7t44 25.5t24 47.5h225z" />
    <glyph glyph-name="dotaccent" unicode="&#x2d9;" horiz-adv-x="397" 
d="M41 1360h315v-242h-315v242z" />
    <glyph glyph-name="ring" unicode="&#x2da;" horiz-adv-x="442" 
d="M221 1454q75 0 127.5 -48.5t52.5 -121.5t-52 -121.5t-128 -48.5t-128 48.5t-52 121.5t52.5 121.5t127.5 48.5zM221 1362q-33 0 -55.5 -22.5t-22.5 -55.5t22.5 -54.5t55.5 -21.5t55.5 21.5t22.5 54.5t-22.5 55.5t-55.5 22.5z" />
    <glyph glyph-name="ogonek" unicode="&#x2db;" horiz-adv-x="602" 
d="M172 0h365q-87 -43 -126.5 -72.5t-39.5 -68.5q0 -30 28.5 -44t71.5 -14q40 0 90 13v-166q-97 -19 -188 -19q-64 0 -118.5 8t-105 27.5t-79.5 57.5t-29 92q0 56 35.5 105.5t95.5 80.5z" />
    <glyph glyph-name="tilde" unicode="&#x2dc;" horiz-adv-x="880" 
d="M555 1276q85 0 100 84h185q-20 -119 -86.5 -180.5t-169.5 -61.5q-45 0 -85.5 13t-65 29t-54.5 29t-55 13q-84 0 -99 -84h-184q19 115 85 178.5t173 63.5q56 0 101.5 -21t82.5 -42t72 -21z" />
    <glyph glyph-name="hungarumlaut" unicode="&#x2dd;" horiz-adv-x="1114" 
d="M616 1360l-270 -242h-305l180 242h395zM1073 1360l-270 -242h-305l180 242h395z" />
    <glyph glyph-name="uni032C" unicode="&#x32c;" horiz-adv-x="935" 
d="M301 -262l-260 262h328l96 -109l100 109h330l-268 -262h-326z" />
    <glyph glyph-name="pi" unicode="&#x3c0;" horiz-adv-x="1425" 
d="M586 0h-381v672h-144v332h1303v-332h-143v-324q0 -42 17 -57t56 -15h70v-276h-145q-78 0 -127 3.5t-96 14.5t-73 31t-47 55t-28.5 84.5t-7.5 120.5v363h-254v-672z" />
    <glyph glyph-name="Wgrave" unicode="&#x1e80;" horiz-adv-x="1873" 
d="M1153 1360l172 -850l109 850h421l-270 -1360h-463l-184 922l-186 -922h-461l-273 1360h422l121 -838l160 838h432zM817 1430l-303 215h444l197 -215h-338z" />
    <glyph glyph-name="wgrave" unicode="&#x1e81;" horiz-adv-x="1673" 
d="M643 1004l-113 -625l-122 625h-408l313 -1004h418l111 573l114 -573h414l303 1004h-395l-113 -625l-127 625h-395zM715 1118l-271 242h396l180 -242h-305z" />
    <glyph glyph-name="Wacute" unicode="&#x1e82;" horiz-adv-x="1873" 
d="M1153 1360l172 -850l109 850h421l-270 -1360h-463l-184 922l-186 -922h-461l-273 1360h422l121 -838l160 838h432zM1391 1645l-304 -215h-337l196 215h445z" />
    <glyph glyph-name="wacute" unicode="&#x1e83;" horiz-adv-x="1673" 
d="M643 1004l-113 -625l-122 625h-408l313 -1004h418l111 573l114 -573h414l303 1004h-395l-113 -625l-127 625h-395zM1239 1360l-270 -242h-305l180 242h395z" />
    <glyph glyph-name="Wdieresis" unicode="&#x1e84;" horiz-adv-x="1873" 
d="M1153 1360l172 -850l109 850h421l-270 -1360h-463l-184 922l-186 -922h-461l-273 1360h422l121 -838l160 838h432zM557 1645h322v-215h-322v215zM993 1645h322v-215h-322v215z" />
    <glyph glyph-name="wdieresis" unicode="&#x1e85;" horiz-adv-x="1673" 
d="M643 1004l-113 -625l-122 625h-408l313 -1004h418l111 573l114 -573h414l303 1004h-395l-113 -625l-127 625h-395zM444 1118v242h326v-242h-326zM924 1360h323v-242h-323v242z" />
    <glyph glyph-name="uni1EA0" unicode="&#x1ea0;" horiz-adv-x="1417" 
d="M-10 0l499 1360h437l501 -1360h-432l-75 229h-431l-75 -229h-424zM707 889l-107 -322h211zM864 -72v-262h-315v262h315z" />
    <glyph glyph-name="uni1EA1" unicode="&#x1ea1;" horiz-adv-x="1181" 
d="M449 680h-357q35 346 535 346q233 0 345 -95t111 -306l-2 -213q-3 -177 19 -412h-342l-2 117q-86 -142 -314 -142q-176 0 -279.5 99t-103.5 239q0 136 95 211q66 54 181 80.5t267 42.5l113 12v21q0 48 -31 71t-100 23q-128 0 -135 -94zM725 377v61l-123 -12
q-87 -9 -123.5 -32.5t-36.5 -63.5q0 -39 29 -66.5t84 -27.5q78 0 124 37t46 104zM772 -72v-262h-315v262h315z" />
    <glyph glyph-name="uni1EB8" unicode="&#x1eb8;" horiz-adv-x="1300" 
d="M123 0v1360h1091v-342h-694v-164h660v-342h-660v-170h703v-342h-1100zM813 -72v-262h-315v262h315z" />
    <glyph glyph-name="uni1EB9" unicode="&#x1eb9;" horiz-adv-x="1204" 
d="M610 -25q-264 0 -411.5 147t-147.5 386q0 234 155.5 376t403.5 142q276 0 420.5 -167t118.5 -449h-715q8 -73 54.5 -113.5t127.5 -40.5q124 0 170 106l357 -53q-22 -63 -60 -117.5t-99.5 -105.5t-158 -81t-215.5 -30zM764 -72v-262h-315v262h315zM608 776q-65 0 -114 -33
t-60 -112h340q-4 74 -51.5 109.5t-114.5 35.5z" />
    <glyph glyph-name="uni1ECA" unicode="&#x1eca;" horiz-adv-x="622" 
d="M510 1360v-1360h-397v1360h397zM469 -72v-262h-315v262h315z" />
    <glyph glyph-name="uni1ECB" unicode="&#x1ecb;" horiz-adv-x="606" 
d="M113 1004h381v-1004h-381v1004zM113 1360h381v-291h-381v291zM459 -72v-262h-316v262h316z" />
    <glyph glyph-name="uni1ECC" unicode="&#x1ecc;" horiz-adv-x="1527" 
d="M1073 686q0 98 -25.5 172.5t-69.5 117t-97.5 63t-116.5 20.5t-116.5 -20.5t-97.5 -63t-69.5 -117t-25.5 -172.5t25.5 -173t69.5 -118t98 -64.5t116 -21.5t116 21.5t98 64.5t69.5 118t25.5 173zM1487 686q0 -223 -93 -385t-255.5 -244t-374.5 -82t-374.5 82t-255.5 244
t-93 385q0 167 53.5 301.5t149.5 223t228.5 135.5t291.5 47t291.5 -47t228.5 -135.5t149.5 -223t53.5 -301.5zM920 -72v-262h-316v262h316z" />
    <glyph glyph-name="uni1ECD" unicode="&#x1ecd;" horiz-adv-x="1216" 
d="M442 500q0 -122 45 -182t121 -60t121 60t45 182t-45 182.5t-121 60.5t-121 -60.5t-45 -182.5zM51 500q0 105 29 192.5t80 148.5t121.5 103t152.5 62t174 20t174 -20t152.5 -62t121.5 -103t80 -148.5t29 -192.5q0 -131 -44 -233t-121 -165t-176.5 -95t-215.5 -32
t-215.5 32t-176.5 95t-121 165t-44 233zM762 -72v-262h-316v262h316z" />
    <glyph glyph-name="uni1EE4" unicode="&#x1ee4;" horiz-adv-x="1449" 
d="M102 1360h402v-789q0 -137 50 -199.5t175 -62.5q122 0 172.5 66.5t50.5 195.5v789h396v-750q0 -329 -143.5 -482t-475.5 -153q-166 0 -281.5 33t-194 106.5t-115 192.5t-36.5 291v762zM879 -72v-262h-316v262h316z" />
    <glyph glyph-name="uni1EE5" unicode="&#x1ee5;" horiz-adv-x="1226" 
d="M733 0v119q-87 -144 -295 -144q-186 0 -268 101q-78 93 -78 325v603h381v-537q0 -108 29 -148q28 -38 94 -38q67 0 102 48t35 158v517h381v-1004h-381zM762 -72v-262h-316v262h316z" />
    <glyph glyph-name="Ygrave" unicode="&#x1ef2;" horiz-adv-x="1390" 
d="M-31 1360h467l258 -481l262 481h465l-534 -848v-512h-398v516zM584 1430l-303 215h444l197 -215h-338z" />
    <glyph glyph-name="ygrave" unicode="&#x1ef3;" horiz-adv-x="1118" 
d="M111 -354h137q209 0 309 70t174 266l387 1022h-395l-158 -635l-157 635h-408l365 -1010l-5 -12q-13 -38 -41.5 -49t-91.5 -11h-116v-276zM463 1118l-270 242h395l180 -242h-305z" />
    <glyph glyph-name="endash" unicode="&#x2013;" horiz-adv-x="1075" 
d="M1014 344h-953v332h953v-332z" />
    <glyph glyph-name="emdash" unicode="&#x2014;" horiz-adv-x="1386" 
d="M1325 344h-1264v332h1264v-332z" />
    <glyph glyph-name="quoteleft" unicode="&#x2018;" horiz-adv-x="598" 
d="M506 1042v-399h-414v422l166 295h281l-140 -318h107z" />
    <glyph glyph-name="quoteright" unicode="&#x2019;" horiz-adv-x="598" 
d="M92 961v399h414v-422l-166 -295h-281l140 318h-107z" />
    <glyph glyph-name="quotesinglbase" unicode="&#x201a;" horiz-adv-x="598" 
d="M92 0v399h414v-422l-166 -294h-281l140 317h-107z" />
    <glyph glyph-name="quotedblleft" unicode="&#x201c;" horiz-adv-x="1091" 
d="M999 1042v-399h-413v422l166 295h280l-139 -318h106zM506 1042v-399h-414v422l166 295h281l-140 -318h107z" />
    <glyph glyph-name="quotedblright" unicode="&#x201d;" horiz-adv-x="1091" 
d="M92 961v399h414v-422l-166 -295h-281l140 318h-107zM586 961v399h413v-422l-165 -295h-281l139 318h-106z" />
    <glyph glyph-name="quotedblbase" unicode="&#x201e;" horiz-adv-x="1114" 
d="M92 0v399h414v-422l-166 -294h-281l140 317h-107zM608 0v399h414v-422l-166 -294h-281l140 317h-107z" />
    <glyph glyph-name="dagger" unicode="&#x2020;" horiz-adv-x="1241" 
d="M811 0h-381v672h-369v332h369v356h381v-356h369v-332h-369v-672z" />
    <glyph glyph-name="daggerdbl" unicode="&#x2021;" horiz-adv-x="1241" 
d="M811 590h369v-332h-369v-258h-381v258h-369v332h369v176h-369v332h369v262h381v-262h369v-332h-369v-176z" />
    <glyph glyph-name="bullet" unicode="&#x2022;" horiz-adv-x="849" 
d="M82 530q0 139 99 238.5t237 99.5q148 0 249 -98.5t101 -239.5q0 -148 -100.5 -248t-249.5 -100q-139 0 -237.5 100.5t-98.5 247.5z" />
    <glyph glyph-name="ellipsis" unicode="&#x2026;" horiz-adv-x="1880" 
d="M92 0v399h414v-399h-414zM733 0v399h414v-399h-414zM1374 0v399h414v-399h-414z" />
    <glyph glyph-name="perthousand" unicode="&#x2030;" horiz-adv-x="2643" 
d="M379 569q-165 0 -252.5 105.5t-87.5 296.5t87 296t253 105t253 -105t87 -296t-87.5 -296.5t-252.5 -105.5zM379 731q117 0 117 240q0 241 -117 241q-56 0 -86.5 -55t-30.5 -186t30.5 -185.5t86.5 -54.5zM307 0h316l952 1360h-315zM1503 -14q-166 0 -253 105t-87 296
t87 296t253 105t253 -105t87 -296t-87 -296t-253 -105zM1503 147q117 0 117 240q0 242 -117 242q-56 0 -86.5 -55.5t-30.5 -186.5t30.5 -185.5t86.5 -54.5zM2265 -14q-166 0 -253 105t-87 296t87 296t253 105t253 -105t87 -296t-87 -296t-253 -105zM2265 147q117 0 117 240
q0 242 -117 242q-56 0 -86.5 -55.5t-30.5 -186.5t30.5 -185.5t86.5 -54.5z" />
    <glyph glyph-name="guilsinglleft" unicode="&#x2039;" horiz-adv-x="690" 
d="M315 57l-321 445l321 438h334l-227 -440l225 -443h-332z" />
    <glyph glyph-name="guilsinglright" unicode="&#x203a;" horiz-adv-x="690" 
d="M696 502l-321 -445h-332l225 443l-227 440h334z" />
    <glyph glyph-name="fraction" unicode="&#x2044;" horiz-adv-x="366" 
d="M-135 0h-316l953 1360h315z" />
    <glyph glyph-name="zero.superior" unicode="&#x2070;" horiz-adv-x="761" 
d="M381 819q-165 0 -252.5 105.5t-87.5 296.5t87 296t253 105t253 -105t87 -296t-87.5 -296.5t-252.5 -105.5zM381 981q117 0 117 240q0 241 -117 241q-56 0 -86.5 -55t-30.5 -186t30.5 -185.5t86.5 -54.5z" />
    <glyph glyph-name="four.superior" unicode="&#x2074;" horiz-adv-x="759" 
d="M399 1352l-155 -183h155v183zM737 1169v-184h-121v-151h-217v151h-370v164l397 461h190v-441h121z" />
    <glyph glyph-name="five.superior" unicode="&#x2075;" horiz-adv-x="757" 
d="M373 981q56 0 87.5 31t31.5 82q0 49 -30.5 81.5t-82.5 32.5q-89 0 -121 -63l-195 16l60 449h541v-185h-359l-18 -110q58 55 172 55t185 -75t71 -201q0 -128 -90.5 -201.5t-239.5 -73.5q-140 0 -233.5 62t-110.5 182l207 33q8 -52 41 -83.5t84 -31.5z" />
    <glyph glyph-name="six.superior" unicode="&#x2076;" horiz-adv-x="741" 
d="M264 1094q0 -53 32 -83t77 -30t75.5 30t30.5 83t-31 82.5t-75 29.5q-46 0 -77.5 -29.5t-31.5 -82.5zM383 1462q-54 0 -89.5 -41t-35.5 -114q59 59 182 59q47 0 92 -16t83 -47.5t61.5 -84.5t23.5 -120q0 -132 -91 -205.5t-236 -73.5q-160 0 -246 104.5t-86 282.5
q0 188 89.5 302t264.5 114q132 0 208 -63t79 -162h-201q-4 31 -31.5 48t-66.5 17z" />
    <glyph glyph-name="seven.superior" unicode="&#x2077;" horiz-adv-x="645" 
d="M18 1425v185h633v-185q-165 -108 -243 -250t-74 -341h-238q-4 124 45 244t122 204.5t161 142.5h-406z" />
    <glyph glyph-name="eight.superior" unicode="&#x2078;" horiz-adv-x="737" 
d="M369 1622q143 0 225 -61t82 -150q0 -50 -20.5 -93t-57.5 -69q102 -64 102 -186q0 -107 -91.5 -175.5t-239.5 -68.5q-147 0 -239.5 69t-92.5 175q0 122 104 186q-38 26 -59 69t-21 93q0 89 82.5 150t225.5 61zM369 1169q-50 0 -80.5 -26t-30.5 -66q0 -44 30 -70t81 -26
t80.5 26t29.5 70q0 40 -30 66t-80 26zM463 1384q0 35 -26 56.5t-68 21.5q-40 0 -66.5 -21.5t-26.5 -56.5t26.5 -56t66.5 -21q42 0 68 21t26 56z" />
    <glyph glyph-name="nine.superior" unicode="&#x2079;" horiz-adv-x="743" 
d="M477 1348q0 53 -31 83.5t-77 30.5q-45 0 -75 -30.5t-30 -83.5q0 -51 31 -81t74 -30q46 0 77 29.5t31 81.5zM358 981q55 0 90 41t35 115q-62 -62 -182 -62q-64 0 -121.5 28t-98 91.5t-40.5 151.5q0 129 90.5 202.5t230.5 73.5q167 0 252.5 -101t85.5 -284
q0 -190 -87.5 -304t-262.5 -114q-133 0 -210.5 63.5t-80.5 161.5l201 3q4 -32 31.5 -49t66.5 -17z" />
    <glyph glyph-name="plus.superior" unicode="&#x207a;" horiz-adv-x="716" 
d="M467 834h-217v196h-209v189h209v188h217v-188h209v-189h-209v-196z" />
    <glyph glyph-name="minus.superior" unicode="&#x207b;" horiz-adv-x="716" 
d="M41 1219h635v-189h-635v189z" />
    <glyph glyph-name="equal.superior" unicode="&#x207c;" horiz-adv-x="694" 
d="M653 1159h-612v191h612v-191zM653 905h-612v191h612v-191z" />
    <glyph glyph-name="parenleft.superior" unicode="&#x207d;" horiz-adv-x="407" 
d="M41 1124q0 135 47 269t105 217h215q-65 -100 -107.5 -233.5t-42.5 -252.5t42.5 -255.5t107.5 -237.5h-215q-57 80 -104.5 219t-47.5 274z" />
    <glyph glyph-name="parenright.superior" unicode="&#x207e;" horiz-adv-x="407" 
d="M367 1124q0 -136 -47 -275.5t-105 -217.5h-215q65 101 107.5 237.5t42.5 255.5t-42.5 252.5t-107.5 233.5h215q59 -81 105.5 -215.5t46.5 -270.5z" />
    <glyph glyph-name="n.superior" unicode="&#x207f;" horiz-adv-x="706" 
d="M281 1407v-66q54 78 180 78q100 0 147 -53q45 -51 45 -186v-346h-215v305q0 62 -16 84q-17 22 -55 22q-86 0 -86 -117v-294h-218v573h218z" />
    <glyph glyph-name="zero.inferior" unicode="&#x2080;" horiz-adv-x="761" 
d="M381 -260q-166 0 -253 105t-87 296t87.5 296.5t252.5 105.5t252.5 -105.5t87.5 -296.5t-87 -296t-253 -105zM381 -98q117 0 117 239q0 242 -117 242q-56 0 -86.5 -55.5t-30.5 -186.5t30 -185t87 -54z" />
    <glyph glyph-name="one.inferior" unicode="&#x2081;" horiz-adv-x="471" 
d="M395 -246h-215v502h-174v158q100 3 148.5 29t70.5 87h170v-776z" />
    <glyph glyph-name="two.inferior" unicode="&#x2082;" horiz-adv-x="688" 
d="M356 543q131 0 213 -57t82 -169q0 -45 -16.5 -86.5t-40 -74t-71 -72.5t-87.5 -68.5t-112 -76.5h323v-185h-624v172q20 14 86.5 58.5t111 77t98.5 77t82.5 86.5t28.5 78q0 40 -23.5 60t-62.5 20q-51 0 -82.5 -36.5t-34.5 -106.5l-207 2q3 145 90.5 223t245.5 78z" />
    <glyph glyph-name="three.inferior" unicode="&#x2083;" horiz-adv-x="735" 
d="M369 -98q50 0 76 20.5t26 52.5q0 45 -37 65.5t-115 20.5h-32v175h35q129 0 129 79q0 32 -27 50t-64 18q-46 0 -77.5 -26.5t-34.5 -80.5l-211 25q15 115 102 178.5t238 63.5q133 0 214 -56.5t81 -154.5q0 -60 -29.5 -105t-73.5 -65q57 -19 91 -68t34 -117
q0 -112 -94.5 -174.5t-232.5 -62.5q-148 0 -238.5 72.5t-101.5 189.5l209 21q20 -121 133 -121z" />
    <glyph glyph-name="four.inferior" unicode="&#x2084;" horiz-adv-x="759" 
d="M399 272l-155 -182h155v182zM737 90v-184h-121v-152h-217v152h-370v164l397 460h190v-440h121z" />
    <glyph glyph-name="five.inferior" unicode="&#x2085;" horiz-adv-x="757" 
d="M373 -98q56 0 87.5 30.5t31.5 81.5q0 49 -30.5 82t-82.5 33q-89 0 -121 -63l-195 16l60 448h541v-184h-359l-18 -110q58 55 172 55t185 -75.5t71 -201.5q0 -127 -90 -200.5t-240 -73.5q-140 0 -233.5 62t-110.5 182l207 32q8 -52 40.5 -83t84.5 -31z" />
    <glyph glyph-name="six.inferior" unicode="&#x2086;" horiz-adv-x="741" 
d="M264 14q0 -53 31.5 -82.5t77.5 -29.5q45 0 75.5 29.5t30.5 82.5t-31 83t-75 30q-45 0 -77 -30t-32 -83zM383 383q-54 0 -89.5 -41.5t-35.5 -114.5q60 60 182 60q64 0 121.5 -27.5t98 -90.5t40.5 -151q0 -131 -91 -204.5t-236 -73.5q-160 0 -246 104.5t-86 282.5
q0 188 89.5 302t264.5 114q132 0 208 -63.5t79 -162.5h-201q-4 31 -32 48.5t-66 17.5z" />
    <glyph glyph-name="seven.inferior" unicode="&#x2087;" horiz-adv-x="645" 
d="M18 346v184h633v-184q-165 -108 -243 -250.5t-74 -341.5h-238q-3 94 24 186.5t75 167.5t106 135.5t123 102.5h-406z" />
    <glyph glyph-name="eight.inferior" unicode="&#x2088;" horiz-adv-x="737" 
d="M369 543q143 0 225 -61t82 -150q0 -50 -20.5 -93t-57.5 -69q102 -64 102 -186q0 -107 -91.5 -175.5t-239.5 -68.5q-147 0 -239.5 69t-92.5 175q0 122 104 186q-38 26 -59 69t-21 93q0 89 82.5 150t225.5 61zM369 90q-50 0 -80.5 -26t-30.5 -66q0 -44 30 -70t81 -26
t80.5 26t29.5 70q0 40 -30 66t-80 26zM463 305q0 35 -26 56.5t-68 21.5q-40 0 -66.5 -21.5t-26.5 -56.5t26.5 -56.5t66.5 -21.5q42 0 68 21.5t26 56.5z" />
    <glyph glyph-name="nine.inferior" unicode="&#x2089;" horiz-adv-x="743" 
d="M477 268q0 54 -31 84.5t-77 30.5q-45 0 -75 -30.5t-30 -84.5q0 -51 31 -80.5t74 -29.5q46 0 77 29t31 81zM358 -98q55 0 90 40.5t35 114.5q-61 -61 -182 -61q-47 0 -92 16.5t-83 48t-61.5 85t-23.5 120.5q0 130 90.5 203.5t230.5 73.5q167 0 252.5 -101t85.5 -284
q0 -190 -87.5 -304t-262.5 -114q-133 0 -210.5 63.5t-80.5 161.5l201 2q4 -32 31.5 -48.5t66.5 -16.5z" />
    <glyph glyph-name="parenleft.inferior" unicode="&#x208d;" horiz-adv-x="407" 
d="M41 45q0 135 47 268.5t105 216.5h215q-65 -100 -107.5 -233t-42.5 -252t42.5 -256t107.5 -238h-215q-57 79 -104.5 219t-47.5 275z" />
    <glyph glyph-name="parenright.inferior" unicode="&#x208e;" horiz-adv-x="407" 
d="M367 45q0 -136 -47 -276t-105 -218h-215q65 101 107.5 238t42.5 256t-42.5 252t-107.5 233h215q59 -82 105.5 -215.5t46.5 -269.5z" />
    <glyph glyph-name="Euro" unicode="&#x20ac;" horiz-adv-x="1495" 
d="M793 500h-183q21 -113 81 -177.5t179 -64.5q108 0 169.5 59t72.5 170l363 -4q-3 -153 -80 -269t-213 -177.5t-312 -61.5q-263 0 -433.5 137.5t-217.5 387.5h-260l98 131h146v57v41h-230l99 131h143q43 255 212.5 394t442.5 139q267 0 431 -138t167 -370l-362 -4
q-25 229 -242 229q-119 0 -178 -66.5t-78 -183.5h428l-98 -131h-340v-41v-57h293z" />
    <glyph glyph-name="afii61289" unicode="&#x2113;" horiz-adv-x="1089" 
d="M631 -25q-87 0 -154.5 15.5t-122.5 50t-89.5 95.5t-45.5 147l-110 -78l-109 166l213 151v389q0 124 36 217t100.5 147.5t145 80.5t177.5 26q170 0 263 -78.5t93 -218.5q0 -38 -5.5 -72t-14 -63t-26.5 -59t-34.5 -53.5t-47 -53t-54.5 -51t-67 -54t-75.5 -56t-87.5 -62.5
l-22 -16v-121q0 -89 30.5 -127.5t96.5 -38.5q84 0 176 70l127 -209q-60 -54 -165 -99t-228 -45zM594 975v-180q170 127 170 239q0 88 -82 88q-48 0 -68 -35.5t-20 -111.5z" />
    <glyph glyph-name="afii61352" unicode="&#x2116;" horiz-adv-x="2285" 
d="M1395 0h-518l-357 858v-858h-397v1360h518l356 -858v858h398v-1360zM2193 995q0 -194 -97 -290.5t-263 -96.5q-163 0 -260.5 97t-97.5 290t97.5 290t260.5 97q164 0 262 -97t98 -290zM1909 995q0 70 -17 104t-57 34q-41 0 -58.5 -34t-17.5 -104t17.5 -103.5t58.5 -33.5
q40 0 57 33.5t17 103.5zM1485 225h698v332h-698v-332z" />
    <glyph glyph-name="trademark" unicode="&#x2122;" horiz-adv-x="1845" 
d="M270 600v569h-250v191h725v-191h-251v-569h-224zM1389 600h-199l-176 528v-528h-221v760h358l139 -488l158 488h336v-760h-221v533z" />
    <glyph glyph-name="Omega" unicode="&#x2126;" horiz-adv-x="1478" 
d="M739 1393q106 0 204 -22t184.5 -68t151 -112.5t101.5 -161t37 -206.5q0 -168 -83.5 -289t-250.5 -155v-43h334v-336h-624v506q141 6 210.5 84.5t69.5 202.5q0 128 -89 203t-245 75t-244.5 -75t-88.5 -203q0 -124 69.5 -202.5t210.5 -84.5v-506h-625v336h334v43
q-167 34 -250.5 155t-83.5 289q0 112 37 206.5t101.5 161t151 112.5t184.5 68t204 22z" />
    <glyph glyph-name="estimated" unicode="&#x212e;" horiz-adv-x="1101" 
d="M948 281h76q-49 -137 -165 -221.5t-294 -84.5q-124 0 -222.5 41t-161.5 113t-96.5 167t-33.5 206q0 232 138.5 378t365.5 146q116 0 211 -42t156 -114t94 -166t35 -200h-781v-361q45 -46 130 -75t180 -29q133 0 227 63.5t141 178.5zM270 864v-299h559v297
q-44 44 -116.5 72.5t-159.5 28.5q-88 0 -162.5 -26t-120.5 -73z" />
    <glyph glyph-name="onethird" unicode="&#x2153;" horiz-adv-x="1882" 
d="M573 584h-215v501h-174v158q100 3 148.5 29.5t70.5 87.5h170v-776zM623 0h-316l953 1360h315zM1511 147q50 0 76.5 20.5t26.5 53.5q0 45 -37 65.5t-115 20.5h-32v174h34q129 0 129 80q0 32 -27 50t-63 18q-46 0 -77.5 -26.5t-34.5 -80.5l-211 25q15 115 102 178t238 63
q133 0 214 -56t81 -154q0 -60 -29.5 -105t-73.5 -65q57 -19 91 -68t34 -117q0 -112 -95 -174.5t-233 -62.5q-148 0 -238.5 72.5t-101.5 189.5l209 20q20 -121 133 -121z" />
    <glyph glyph-name="twothirds" unicode="&#x2154;" horiz-adv-x="1882" 
d="M399 1372q131 0 213 -56.5t82 -168.5q0 -38 -9.5 -71.5t-32 -66t-46.5 -59t-67 -60t-78 -58t-94 -64.5h299v-184h-600v172q20 14 86.5 58.5t111 77t98.5 77t82.5 86.5t28.5 78q0 40 -23.5 59.5t-62.5 19.5q-51 0 -82.5 -36.5t-34.5 -106.5l-207 2q3 145 90.5 223
t245.5 78zM307 0h316l952 1360h-315zM1511 147q50 0 76.5 20.5t26.5 53.5q0 45 -37 65.5t-115 20.5h-32v174h34q129 0 129 80q0 32 -27 50t-63 18q-46 0 -77.5 -26.5t-34.5 -80.5l-211 25q15 115 102 178t238 63q133 0 214 -56t81 -154q0 -60 -29.5 -105t-73.5 -65
q57 -19 91 -68t34 -117q0 -112 -95 -174.5t-233 -62.5q-148 0 -238.5 72.5t-101.5 189.5l209 20q20 -121 133 -121z" />
    <glyph glyph-name="uni2155" unicode="&#x2155;" horiz-adv-x="1882" 
d="M573 584h-215v501h-174v158q100 3 148.5 29.5t70.5 87.5h170v-776zM623 0h-316l953 1360h315zM1497 147q56 0 87.5 31t31.5 82q0 49 -30.5 82t-82.5 33q-88 0 -121 -64l-194 17l59 448h541v-184h-358l-19 -111q59 56 172 56q114 0 185 -75.5t71 -201.5q0 -127 -90 -200.5
t-240 -73.5q-140 0 -233.5 61.5t-110.5 181.5l207 33q8 -52 41 -83.5t84 -31.5z" />
    <glyph glyph-name="uni2156" unicode="&#x2156;" horiz-adv-x="1882" 
d="M399 1372q131 0 213 -56.5t82 -168.5q0 -38 -9.5 -71.5t-32 -66t-46.5 -59t-67 -60t-78 -58t-94 -64.5h299v-184h-600v172q20 14 86.5 58.5t111 77t98.5 77t82.5 86.5t28.5 78q0 40 -23.5 59.5t-62.5 19.5q-51 0 -82.5 -36.5t-34.5 -106.5l-207 2q3 145 90.5 223
t245.5 78zM307 0h316l952 1360h-315zM1497 147q56 0 87.5 31t31.5 82q0 49 -30.5 82t-82.5 33q-88 0 -121 -64l-194 17l59 448h541v-184h-358l-19 -111q59 56 172 56q114 0 185 -75.5t71 -201.5q0 -127 -90 -200.5t-240 -73.5q-140 0 -233.5 61.5t-110.5 181.5l207 33
q8 -52 41 -83.5t84 -31.5z" />
    <glyph glyph-name="uni2157" unicode="&#x2157;" horiz-adv-x="1882" 
d="M387 731q50 0 76 20.5t26 53.5q0 45 -37 65.5t-114 20.5h-33v174h35q129 0 129 80q0 32 -26.5 49.5t-63.5 17.5q-47 0 -78.5 -26t-34.5 -80l-211 24q15 115 102 178.5t238 63.5q133 0 214 -56.5t81 -154.5q0 -60 -29 -105t-73 -65q57 -19 91 -67.5t34 -116.5
q0 -112 -95 -175t-233 -63q-148 0 -238.5 72.5t-101.5 189.5l209 21q20 -121 133 -121zM307 0h316l952 1360h-315zM1497 147q56 0 87.5 31t31.5 82q0 49 -30.5 82t-82.5 33q-88 0 -121 -64l-194 17l59 448h541v-184h-358l-19 -111q59 56 172 56q114 0 185 -75.5t71 -201.5
q0 -127 -90 -200.5t-240 -73.5q-140 0 -233.5 61.5t-110.5 181.5l207 33q8 -52 41 -83.5t84 -31.5z" />
    <glyph glyph-name="uni2158" unicode="&#x2158;" horiz-adv-x="1882" 
d="M395 1102l-155 -182h155v182zM733 920v-185h-121v-151h-217v151h-370v164l397 461h190v-440h121zM623 0h-316l953 1360h315zM1497 147q56 0 87.5 31t31.5 82q0 49 -30.5 82t-82.5 33q-88 0 -121 -64l-194 17l59 448h541v-184h-358l-19 -111q59 56 172 56q114 0 185 -75.5
t71 -201.5q0 -127 -90 -200.5t-240 -73.5q-140 0 -233.5 61.5t-110.5 181.5l207 33q8 -52 41 -83.5t84 -31.5z" />
    <glyph glyph-name="uni2159" unicode="&#x2159;" horiz-adv-x="1882" 
d="M573 584h-215v501h-174v158q100 3 148.5 29.5t70.5 87.5h170v-776zM623 0h-316l953 1360h315zM1397 260q0 -53 31.5 -83t76.5 -30t76 30t31 83t-31.5 83t-75.5 30q-45 0 -76.5 -30t-31.5 -83zM1516 629q-54 0 -89.5 -41.5t-35.5 -114.5q59 59 182 59q47 0 92 -16
t83 -47.5t61.5 -84.5t23.5 -120q0 -131 -91 -204.5t-237 -73.5q-160 0 -245.5 104t-85.5 283q0 188 89.5 301.5t264.5 113.5q132 0 208 -63t79 -162h-201q-4 31 -32 48.5t-66 17.5z" />
    <glyph glyph-name="uni215A" unicode="&#x215a;" horiz-adv-x="1882" 
d="M373 731q56 0 87.5 31t31.5 82q0 49 -30.5 81.5t-82.5 32.5q-89 0 -121 -63l-195 16l60 449h541v-184h-359l-18 -111q58 55 172 55t185 -75t71 -201q0 -128 -90.5 -201.5t-239.5 -73.5q-140 0 -233.5 62t-110.5 182l207 33q8 -52 41 -83.5t84 -31.5zM307 0h316l952 1360
h-315zM1397 260q0 -53 31.5 -83t76.5 -30t76 30t31 83t-31.5 83t-75.5 30q-45 0 -76.5 -30t-31.5 -83zM1516 629q-54 0 -89.5 -41.5t-35.5 -114.5q59 59 182 59q47 0 92 -16t83 -47.5t61.5 -84.5t23.5 -120q0 -131 -91 -204.5t-237 -73.5q-160 0 -245.5 104t-85.5 283
q0 188 89.5 301.5t264.5 113.5q132 0 208 -63t79 -162h-201q-4 31 -32 48.5t-66 17.5z" />
    <glyph glyph-name="oneeighth" unicode="&#x215b;" horiz-adv-x="1882" 
d="M573 584h-215v501h-174v158q100 3 148.5 29.5t70.5 87.5h170v-776zM623 0h-316l953 1360h315zM1503 788q143 0 225 -60.5t82 -149.5q0 -50 -20.5 -93t-56.5 -69q102 -64 102 -187q0 -107 -92 -175t-240 -68q-147 0 -239.5 68.5t-92.5 174.5q0 122 105 187q-38 26 -59 69
t-21 93q0 89 82 149.5t225 60.5zM1503 336q-50 0 -80 -26t-30 -66q0 -44 29.5 -70.5t80.5 -26.5t81 26.5t30 70.5q0 40 -30.5 66t-80.5 26zM1597 551q0 35 -26 56.5t-68 21.5q-40 0 -66 -21.5t-26 -56.5t26 -56.5t66 -21.5q42 0 68 21.5t26 56.5z" />
    <glyph glyph-name="threeeighths" unicode="&#x215c;" horiz-adv-x="1882" 
d="M387 731q50 0 76 20.5t26 53.5q0 45 -37 65.5t-114 20.5h-33v174h35q129 0 129 80q0 32 -26.5 49.5t-63.5 17.5q-47 0 -78.5 -26t-34.5 -80l-211 24q15 115 102 178.5t238 63.5q133 0 214 -56.5t81 -154.5q0 -60 -29 -105t-73 -65q57 -19 91 -67.5t34 -116.5
q0 -112 -95 -175t-233 -63q-148 0 -238.5 72.5t-101.5 189.5l209 21q20 -121 133 -121zM307 0h316l952 1360h-315zM1503 788q-143 0 -225 -60.5t-82 -149.5q0 -50 21 -93t59 -69q-105 -65 -105 -187q0 -106 92.5 -174.5t239.5 -68.5q148 0 240 68t92 175q0 122 -102 187
q36 26 56.5 69t20.5 93q0 89 -82 149.5t-225 60.5zM1503 336q50 0 80.5 -26t30.5 -66q0 -44 -30 -70.5t-81 -26.5t-80.5 26.5t-29.5 70.5q0 40 30 66t80 26zM1597 551q0 -35 -26 -56.5t-68 -21.5q-40 0 -66 21.5t-26 56.5t26 56.5t66 21.5q42 0 68 -21.5t26 -56.5z" />
    <glyph glyph-name="fiveeighths" unicode="&#x215d;" horiz-adv-x="1882" 
d="M373 731q56 0 87.5 31t31.5 82q0 49 -30.5 81.5t-82.5 32.5q-89 0 -121 -63l-195 16l60 449h541v-184h-359l-18 -111q58 55 172 55t185 -75t71 -201q0 -128 -90.5 -201.5t-239.5 -73.5q-140 0 -233.5 62t-110.5 182l207 33q8 -52 41 -83.5t84 -31.5zM307 0h316l952 1360
h-315zM1503 788q-143 0 -225 -60.5t-82 -149.5q0 -50 21 -93t59 -69q-105 -65 -105 -187q0 -106 92.5 -174.5t239.5 -68.5q148 0 240 68t92 175q0 122 -102 187q36 26 56.5 69t20.5 93q0 89 -82 149.5t-225 60.5zM1503 336q50 0 80.5 -26t30.5 -66q0 -44 -30 -70.5
t-81 -26.5t-80.5 26.5t-29.5 70.5q0 40 30 66t80 26zM1597 551q0 -35 -26 -56.5t-68 -21.5q-40 0 -66 21.5t-26 56.5t26 56.5t66 21.5q42 0 68 -21.5t26 -56.5z" />
    <glyph glyph-name="seveneighths" unicode="&#x215e;" horiz-adv-x="1882" 
d="M61 1176v184h633v-184q-165 -108 -243 -250.5t-74 -341.5h-238q-3 94 24 186.5t75 167.5t106 135.5t123 102.5h-406zM307 0h316l952 1360h-315zM1503 788q-143 0 -225 -60.5t-82 -149.5q0 -50 21 -93t59 -69q-105 -65 -105 -187q0 -106 92.5 -174.5t239.5 -68.5
q148 0 240 68t92 175q0 122 -102 187q36 26 56.5 69t20.5 93q0 89 -82 149.5t-225 60.5zM1503 336q50 0 80.5 -26t30.5 -66q0 -44 -30 -70.5t-81 -26.5t-80.5 26.5t-29.5 70.5q0 40 30 66t80 26zM1597 551q0 -35 -26 -56.5t-68 -21.5q-40 0 -66 21.5t-26 56.5t26 56.5
t66 21.5q42 0 68 -21.5t26 -56.5z" />
    <glyph glyph-name="uni215F" unicode="&#x215f;" horiz-adv-x="1124" 
d="M573 584h-215v501h-174v158q100 3 148.5 29.5t70.5 87.5h170v-776zM623 0h-316l953 1360h315z" />
    <glyph glyph-name="uni2190" unicode="&#x2190;" horiz-adv-x="1525" 
d="M41 512l598 600l182 -188l-299 -287h942v-262h-929l286 -277l-182 -188z" />
    <glyph glyph-name="uni2191" unicode="&#x2191;" horiz-adv-x="1284" 
d="M641 1391l602 -603l-184 -180l-287 291v-899h-262v899l-287 -291l-182 180z" />
    <glyph glyph-name="uni2192" unicode="&#x2192;" horiz-adv-x="1527" 
d="M889 1112l598 -600l-598 -602l-182 188l286 279h-932v262h940l-294 285z" />
    <glyph glyph-name="uni2193" unicode="&#x2193;" horiz-adv-x="1284" 
d="M1243 545l-602 -600l-600 600l182 182l287 -295v901h262v-901l287 295z" />
    <glyph glyph-name="uni2196" unicode="&#x2196;" horiz-adv-x="1253" 
d="M113 1057h843v-256h-401l657 -662l-182 -182l-663 655v-403h-254v848z" />
    <glyph glyph-name="uni2197" unicode="&#x2197;" horiz-adv-x="1255" 
d="M295 1057h848v-848h-256v403l-660 -655l-186 182l657 662h-403v256z" />
    <glyph glyph-name="uni2198" unicode="&#x2198;" horiz-adv-x="1255" 
d="M1143 846v-846h-848v252h407l-661 663l186 187l660 -660v404h256z" />
    <glyph glyph-name="uni2199" unicode="&#x2199;" horiz-adv-x="1253" 
d="M113 0v846h254v-404l663 660l182 -187l-663 -663h407v-252h-843z" />
    <glyph glyph-name="uni219E" unicode="&#x219e;" horiz-adv-x="1587" 
d="M41 512l598 600l182 -188l-297 -285h152l473 473l182 -188l-297 -285h492v-262h-484l289 -279l-182 -188l-465 467h-152l289 -279l-182 -188z" />
    <glyph glyph-name="uni219F" unicode="&#x219f;" horiz-adv-x="1284" 
d="M641 1391l602 -603l-184 -180l-287 287v-135l471 -471l-184 -180l-287 286v-395h-262v395l-287 -286l-182 180l469 471v135l-287 -287l-182 180z" />
    <glyph glyph-name="uni21A0" unicode="&#x21a0;" horiz-adv-x="1585" 
d="M946 1112l598 -600l-598 -602l-182 188l287 279h-150l-463 -467l-182 188l287 279h-482v262h490l-295 285l182 188l471 -473h150l-295 285z" />
    <glyph glyph-name="uni21A1" unicode="&#x21a1;" horiz-adv-x="1284" 
d="M1243 545l-602 -600l-600 600l182 182l287 -289v137l-469 469l182 183l287 -289v408h262v-408l287 289l184 -183l-471 -469v-137l287 289z" />
    <glyph glyph-name="uni21A2" unicode="&#x21a2;" horiz-adv-x="1810" 
d="M41 512l600 600l182 -188l-295 -285h588l473 473l180 -188l-413 -412l413 -414l-180 -188l-465 467h-587l286 -279l-182 -188z" />
    <glyph glyph-name="uni21A3" unicode="&#x21a3;" horiz-adv-x="1810" 
d="M1169 1112l600 -600l-600 -602l-182 188l287 279h-588l-467 -467l-178 188l414 414l-414 412l178 188l475 -473h588l-295 285z" />
    <glyph glyph-name="uni21A4" unicode="&#x21a4;" horiz-adv-x="1576" 
d="M1464 1004v-1004h-270v377h-662l289 -279l-182 -188l-598 602l598 600l182 -188l-297 -285h670v365h270z" />
    <glyph glyph-name="uni21A5" unicode="&#x21a5;" horiz-adv-x="1325" 
d="M664 1391l600 -603l-189 -180l-282 293v-637h364v-264h-1003v264h378v635l-278 -289l-193 178z" />
    <glyph glyph-name="uni21A6" unicode="&#x21a6;" horiz-adv-x="1599" 
d="M113 0v1004h270v-365h670l-295 285l180 188l600 -600l-600 -602l-180 188l289 281h-664v-379h-270z" />
    <glyph glyph-name="uni21A7" unicode="&#x21a7;" horiz-adv-x="1325" 
d="M1264 545l-600 -600l-603 600l193 180l278 -291v645h-378v267h1003v-267h-364v-647l282 295z" />
    <glyph glyph-name="partialdiff" unicode="&#x2202;" horiz-adv-x="1189" 
d="M756 500q0 116 -43.5 179.5t-122.5 63.5q-77 0 -117.5 -71t-40.5 -172t40.5 -171.5t117.5 -70.5q79 0 122.5 63t43.5 179zM571 -25q-246 0 -388 140.5t-142 386.5q0 122 34 222t93 165.5t138 101t169 35.5q85 0 154.5 -31t111.5 -86l2 2q-28 82 -99.5 138.5t-153 79
t-168.5 22.5v268q207 -5 367.5 -70.5t259.5 -176.5t149.5 -254t50.5 -310q0 -152 -46.5 -274.5t-126.5 -199.5t-183.5 -118t-221.5 -41z" />
    <glyph glyph-name="Delta" unicode="&#x2206;" horiz-adv-x="1363" 
d="M0 0l682 1452l682 -1452h-1364zM893 305l-211 447l-213 -447h424z" />
    <glyph glyph-name="product" unicode="&#x220f;" horiz-adv-x="1425" 
d="M504 -354h-381v1714h1180v-1714h-381v1382h-418v-1382z" />
    <glyph glyph-name="summation" unicode="&#x2211;" horiz-adv-x="1241" 
d="M61 -23l572 527l-572 524v332h1119v-332h-666l565 -524l-565 -527h666v-331h-1119v331z" />
    <glyph glyph-name="minus" unicode="&#x2212;" horiz-adv-x="1241" 
d="M61 676h1119v-332h-1119v332z" />
    <glyph glyph-name="radical" unicode="&#x221a;" horiz-adv-x="1251" 
d="M0 406l477 145l191 -475l227 1284h356l-313 -1714h-430l-248 565l-182 -55z" />
    <glyph glyph-name="infinity" unicode="&#x221e;" horiz-adv-x="1470" 
d="M1067 172q-173 0 -330 164q-75 -77 -154 -119.5t-182 -42.5q-150 0 -245 91.5t-95 234.5t98.5 234t256.5 91q94 0 170.5 -39.5t148.5 -113.5q146 153 320 153q158 0 256 -91t98 -234q0 -145 -94.5 -236.5t-247.5 -91.5zM416 393q92 0 180 107q-87 106 -176 106
q-54 0 -90.5 -29.5t-36.5 -74.5q0 -46 35 -77.5t88 -31.5zM1055 606q-50 0 -92 -28.5t-84 -77.5q92 -107 180 -107q52 0 86.5 30.5t34.5 76.5t-35 76t-90 30z" />
    <glyph glyph-name="integral" unicode="&#x222b;" horiz-adv-x="710" 
d="M207 393v389q0 142 19 248t50 171.5t78.5 106t98 55.5t114.5 15q83 0 144 -43.5t61 -122.5q0 -51 -30.5 -81.5t-84.5 -30.5q-42 0 -73 25t-31 83q0 25 6 52q-78 -17 -78 -226q0 -47 10.5 -184.5t10.5 -308.5v-308q0 -142 -19 -248t-50.5 -171.5t-79 -105.5t-98 -55
t-114.5 -15q-83 0 -143.5 43t-60.5 122q0 47 31 80t85 33q40 0 71.5 -27t31.5 -84q0 -22 -6 -49q40 9 56.5 63.5t16.5 162.5q0 37 -8 176t-8 235z" />
    <glyph glyph-name="approxequal" unicode="&#x2248;" horiz-adv-x="1159" 
d="M758 838q32 0 45 24t14 90h281q0 -208 -67 -318t-216 -110q-57 0 -122.5 18.5t-113.5 40t-97 40t-76 18.5q-34 0 -48.5 -25t-15.5 -92h-281q0 207 68 317.5t219 110.5q75 0 164 -28.5t156.5 -57t89.5 -28.5zM758 373q32 0 45 24t14 90h281q0 -208 -67 -318t-216 -110
q-57 0 -122.5 18.5t-113.5 40t-97 40t-76 18.5q-34 0 -48.5 -25t-15.5 -92h-281q0 207 68 317.5t219 110.5q75 0 164 -28.5t156.5 -57t89.5 -28.5z" />
    <glyph glyph-name="notequal" unicode="&#x2260;" horiz-adv-x="1200" 
d="M266 123h-205v332h326l41 112h-367v332h490l61 166h394l-62 -166h195v-332h-316l-41 -112h357v-332h-477l-66 -184h-397z" />
    <glyph glyph-name="lessequal" unicode="&#x2264;" horiz-adv-x="1282" 
d="M557 840l643 -113v-369l-1118 316v332l1118 315v-369zM82 0v332h1118v-332h-1118z" />
    <glyph glyph-name="greaterequal" unicode="&#x2265;" horiz-adv-x="1282" 
d="M725 840l-643 112v369l1118 -315v-332l-1118 -316v369zM1200 0h-1118v332h1118v-332z" />
    <glyph glyph-name="uni25A0" unicode="&#x25a0;" horiz-adv-x="1241" 
d="M119 0v1004h1003v-1004h-1003z" />
    <glyph glyph-name="uni25A1" unicode="&#x25a1;" horiz-adv-x="1241" 
d="M119 0v1004h1003v-1004h-1003zM244 881v-756h755v756h-755z" />
    <glyph glyph-name="lozenge" unicode="&#x25ca;" horiz-adv-x="1134" 
d="M575 926l-200 -297l200 -295l199 295zM0 629l573 839l562 -839l-562 -842z" />
    <glyph glyph-name="uni25CB" unicode="&#x25cb;" horiz-adv-x="1163" 
d="M59 498q0 142 70 262.5t190.5 190t262.5 69.5q106 0 203 -41t167 -111t111 -167t41 -203q0 -142 -69.5 -262.5t-190 -190.5t-262.5 -70t-262.5 70t-190.5 190.5t-70 262.5zM582 94q166 0 280.5 117t114.5 287t-114.5 286.5t-280.5 116.5t-281 -116.5t-115 -286.5
q0 -167 115.5 -285.5t280.5 -118.5z" />
    <glyph glyph-name="uni25CF" unicode="&#x25cf;" horiz-adv-x="1163" 
d="M59 498q0 142 70 262.5t190.5 190t262.5 69.5q106 0 203 -41t167 -111t111 -167t41 -203q0 -142 -69.5 -262.5t-190 -190.5t-262.5 -70t-262.5 70t-190.5 190.5t-70 262.5z" />
    <glyph glyph-name="onesuperior" horiz-adv-x="471" 
d="M395 834h-215v501h-174v158q100 3 148.5 29.5t70.5 87.5h170v-776z" />
    <glyph glyph-name="threesuperior" horiz-adv-x="735" 
d="M369 981q50 0 76 20.5t26 53.5q0 45 -37 65.5t-115 20.5h-32v174h35q129 0 129 80q0 32 -27 49.5t-64 17.5q-47 0 -78 -26t-34 -80l-211 24q15 115 102 178.5t238 63.5q133 0 214 -56.5t81 -154.5q0 -60 -29.5 -105t-73.5 -65q57 -19 91 -67.5t34 -116.5
q0 -112 -94.5 -175t-232.5 -63q-148 0 -238.5 72.5t-101.5 189.5l209 21q20 -121 133 -121z" />
    <glyph glyph-name="twosuperior" horiz-adv-x="688" 
d="M356 1622q131 0 213 -56.5t82 -168.5q0 -38 -9.5 -71.5t-32 -66t-46.5 -59t-67 -60t-78 -58t-94 -64.5h323v-184h-624v172q20 14 86.5 58t111.5 76.5t98.5 77t82 86.5t28.5 78q0 40 -23.5 60t-62.5 20q-51 0 -82.5 -36.5t-34.5 -106.5l-207 2q3 145 90.5 223t245.5 78z
" />
    <glyph glyph-name="commaaccent" horiz-adv-x="370" 
d="M47 -258v190h283v-202l-105 -170h-184l74 182h-68z" />
    <glyph glyph-name="a.alt" 
d="M1135 1004v-1004h-381v100q-36 -56 -106.5 -90.5t-170.5 -34.5q-185 0 -305.5 141.5t-120.5 385.5q0 122 34 222t93 165.5t138 101t169 35.5q89 0 159.5 -32t109.5 -93v103h381zM596 258q77 0 123.5 70.5t46.5 173.5q0 102 -46.5 171.5t-123.5 69.5q-76 0 -115 -71
t-39 -172q0 -99 39 -170.5t115 -71.5z" />
    <glyph glyph-name="aacute.alt" 
d="M1135 0v1004h-381v-103q-39 61 -109.5 93t-159.5 32q-90 0 -169 -35.5t-138 -101t-93 -165.5t-34 -222q0 -244 120.5 -385.5t305.5 -141.5q100 0 170.5 34.5t106.5 90.5v-100h381zM596 258q-76 0 -115 71.5t-39 170.5q0 101 39 172t115 71q77 0 123.5 -69.5t46.5 -171.5
q0 -103 -46.5 -173.5t-123.5 -70.5zM1040 1360l-270 -242h-305l180 242h395z" />
    <glyph glyph-name="abreve.alt" 
d="M1135 0v1004h-381v-103q-39 61 -109.5 93t-159.5 32q-90 0 -169 -35.5t-138 -101t-93 -165.5t-34 -222q0 -244 120.5 -385.5t305.5 -141.5q100 0 170.5 34.5t106.5 90.5v-100h381zM596 258q-76 0 -115 71.5t-39 170.5q0 101 39 172t115 71q77 0 123.5 -69.5t46.5 -171.5
q0 -103 -46.5 -173.5t-123.5 -70.5zM997 1360q-11 -108 -101 -179t-245 -71q-152 0 -241 71.5t-99 178.5h226q5 -42 39 -61t77 -19q27 0 51 7t44 25.5t24 47.5h225z" />
    <glyph glyph-name="acircumflex.alt" 
d="M1135 0v1004h-381v-103q-39 61 -109.5 93t-159.5 32q-90 0 -169 -35.5t-138 -101t-93 -165.5t-34 -222q0 -244 120.5 -385.5t305.5 -141.5q100 0 170.5 34.5t106.5 90.5v-100h381zM596 258q-76 0 -115 71.5t-39 170.5q0 101 39 172t115 71q77 0 123.5 -69.5t46.5 -171.5
q0 -103 -46.5 -173.5t-123.5 -70.5zM838 1360l249 -242h-307l-116 109l-121 -109h-310l259 242h346z" />
    <glyph glyph-name="adieresis.alt" 
d="M1135 0v1004h-381v-103q-39 61 -109.5 93t-159.5 32q-90 0 -169 -35.5t-138 -101t-93 -165.5t-34 -222q0 -244 120.5 -385.5t305.5 -141.5q100 0 170.5 34.5t106.5 90.5v-100h381zM596 258q-76 0 -115 71.5t-39 170.5q0 101 39 172t115 71q77 0 123.5 -69.5t46.5 -171.5
q0 -103 -46.5 -173.5t-123.5 -70.5zM276 1118v242h326v-242h-326zM756 1360h323v-242h-323v242z" />
    <glyph glyph-name="ae.alt" horiz-adv-x="1908" 
d="M1018 100v-100h-264v100q-36 -56 -106.5 -90.5t-170.5 -34.5q-185 0 -305.5 141.5t-120.5 385.5q0 122 34 222t93 165.5t138 101t169 35.5q89 0 159.5 -32t109.5 -93v103h264v-103q41 58 126 91.5t175 33.5q275 0 417.5 -166.5t116.5 -449.5h-714q8 -73 54.5 -113.5
t127.5 -40.5q124 0 170 106l356 -53q-17 -48 -43.5 -93t-70 -90t-98 -77.5t-130 -53t-162.5 -20.5q-108 0 -197 36.5t-128 88.5zM596 258q77 0 123.5 70.5t46.5 173.5q0 102 -46.5 171.5t-123.5 69.5q-76 0 -115 -71t-39 -172q0 -99 39 -170.5t115 -71.5zM1139 631h340
q-4 74 -51.5 109.5t-114.5 35.5q-65 0 -114 -33t-60 -112z" />
    <glyph glyph-name="aeacute.alt" horiz-adv-x="1908" 
d="M1018 0v100q39 -52 128 -88.5t197 -36.5q87 0 162.5 20.5t130 53t98 77.5t70 90t43.5 93l-356 53q-46 -106 -170 -106q-81 0 -127.5 40.5t-54.5 113.5h714q26 283 -116.5 449.5t-417.5 166.5q-90 0 -175 -33.5t-126 -91.5v103h-264v-103q-39 61 -109.5 93t-159.5 32
q-90 0 -169 -35.5t-138 -101t-93 -165.5t-34 -222q0 -244 120.5 -385.5t305.5 -141.5q100 0 170.5 34.5t106.5 90.5v-100h264zM596 258q-76 0 -115 71.5t-39 170.5q0 101 39 172t115 71q77 0 123.5 -69.5t46.5 -171.5q0 -103 -46.5 -173.5t-123.5 -70.5zM1479 631h-340
q11 79 60 112t114 33q67 0 114.5 -35.5t51.5 -109.5zM1313 1360l-271 -242h-305l181 242h395z" />
    <glyph glyph-name="agrave.alt" 
d="M1135 0v1004h-381v-103q-39 61 -109.5 93t-159.5 32q-90 0 -169 -35.5t-138 -101t-93 -165.5t-34 -222q0 -244 120.5 -385.5t305.5 -141.5q100 0 170.5 34.5t106.5 90.5v-100h381zM596 258q-76 0 -115 71.5t-39 170.5q0 101 39 172t115 71q77 0 123.5 -69.5t46.5 -171.5
q0 -103 -46.5 -173.5t-123.5 -70.5zM588 1118l-271 242h396l180 -242h-305z" />
    <glyph glyph-name="amacron.alt" 
d="M1135 0v1004h-381v-103q-39 61 -109.5 93t-159.5 32q-90 0 -169 -35.5t-138 -101t-93 -165.5t-34 -222q0 -244 120.5 -385.5t305.5 -141.5q100 0 170.5 34.5t106.5 90.5v-100h381zM596 258q-76 0 -115 71.5t-39 170.5q0 101 39 172t115 71q77 0 123.5 -69.5t46.5 -171.5
q0 -103 -46.5 -173.5t-123.5 -70.5zM971 1126h-596v226h596v-226z" />
    <glyph glyph-name="aogonek.alt" 
d="M596 258q77 0 123.5 70.5t46.5 173.5q0 102 -46.5 171.5t-123.5 69.5q-76 0 -115 -71t-39 -172q0 -99 39 -170.5t115 -71.5zM1135 1004v-1004q-87 -43 -126.5 -72.5t-39.5 -68.5q0 -30 28.5 -44t71.5 -14q40 0 90 13v-166q-97 -19 -188 -19q-65 0 -121.5 8.5t-110 27.5
t-85 57t-31.5 92q0 113 131 186v100q-36 -56 -106.5 -90.5t-170.5 -34.5q-185 0 -305.5 141.5t-120.5 385.5q0 122 34 222t93 165.5t138 101t169 35.5q89 0 159.5 -32t109.5 -93v103h381z" />
    <glyph glyph-name="aring.alt" 
d="M1135 0v1004h-381v-103q-39 61 -109.5 93t-159.5 32q-90 0 -169 -35.5t-138 -101t-93 -165.5t-34 -222q0 -244 120.5 -385.5t305.5 -141.5q100 0 170.5 34.5t106.5 90.5v-100h381zM596 258q-76 0 -115 71.5t-39 170.5q0 101 39 172t115 71q77 0 123.5 -69.5t46.5 -171.5
q0 -103 -46.5 -173.5t-123.5 -70.5zM655 1454q75 0 128 -49t53 -121q0 -73 -52.5 -121.5t-128.5 -48.5t-128 48.5t-52 121.5t52.5 121.5t127.5 48.5zM655 1362q-33 0 -55 -22t-22 -56q0 -33 22 -54.5t55 -21.5t55.5 21.5t22.5 54.5t-22.5 55.5t-55.5 22.5z" />
    <glyph glyph-name="aringacute.alt" 
d="M1040 1593l-266 -260q27 -42 27 -90q0 -73 -52 -121.5t-128 -48.5t-128.5 48.5t-52.5 121.5q0 27 10.5 54.5t43.5 76.5l151 219h395zM621 1321q-33 0 -55.5 -22.5t-22.5 -55.5t22.5 -54.5t55.5 -21.5t55 21.5t22 54.5t-22 55.5t-55 22.5zM1135 0v1004h-381v-103
q-39 61 -109.5 93t-159.5 32q-90 0 -169 -35.5t-138 -101t-93 -165.5t-34 -222q0 -244 120.5 -385.5t305.5 -141.5q100 0 170.5 34.5t106.5 90.5v-100h381zM596 258q-76 0 -115 71.5t-39 170.5q0 101 39 172t115 71q77 0 123.5 -69.5t46.5 -171.5q0 -103 -46.5 -173.5
t-123.5 -70.5z" />
    <glyph glyph-name="atilde.alt" 
d="M1135 0v1004h-381v-103q-39 61 -109.5 93t-159.5 32q-90 0 -169 -35.5t-138 -101t-93 -165.5t-34 -222q0 -244 120.5 -385.5t305.5 -141.5q100 0 170.5 34.5t106.5 90.5v-100h381zM596 258q-76 0 -115 71.5t-39 170.5q0 101 39 172t115 71q77 0 123.5 -69.5t46.5 -171.5
q0 -103 -46.5 -173.5t-123.5 -70.5zM770 1276q85 0 100 84h185q-20 -119 -86.5 -180.5t-169.5 -61.5q-45 0 -85.5 13t-65 29t-54.5 29t-55 13q-84 0 -99 -84h-184q19 115 85 178.5t173 63.5q56 0 101.5 -21t82.5 -42t72 -21z" />
    <glyph glyph-name="uni0227.alt" 
d="M1135 0v1004h-381v-103q-39 61 -109.5 93t-159.5 32q-90 0 -169 -35.5t-138 -101t-93 -165.5t-34 -222q0 -244 120.5 -385.5t305.5 -141.5q100 0 170.5 34.5t106.5 90.5v-100h381zM596 258q-76 0 -115 71.5t-39 170.5q0 101 39 172t115 71q77 0 123.5 -69.5t46.5 -171.5
q0 -103 -46.5 -173.5t-123.5 -70.5zM518 1360h316v-242h-316v242z" />
    <glyph glyph-name="uni1EA1.alt" 
d="M1135 1004v-1004h-381v100q-36 -56 -106.5 -90.5t-170.5 -34.5q-185 0 -305.5 141.5t-120.5 385.5q0 122 34 222t93 165.5t138 101t169 35.5q89 0 159.5 -32t109.5 -93v103h381zM596 258q77 0 123.5 70.5t46.5 173.5q0 102 -46.5 171.5t-123.5 69.5q-76 0 -115 -71
t-39 -172q0 -99 39 -170.5t115 -71.5zM788 -72v-262h-315v262h315z" />
    <glyph glyph-name="l.alt" horiz-adv-x="696" 
d="M113 309v1051h381v-1012q0 -42 17 -57t56 -15h78v-276h-153q-78 0 -127 3.5t-96 14.5t-73 31t-47 55t-28.5 84.5t-7.5 120.5z" />
    <glyph glyph-name="lacute.alt" horiz-adv-x="696" 
d="M113 309v1051h381v-1012q0 -42 17 -57t56 -15h78v-276h-153q-78 0 -127 3.5t-96 14.5t-73 31t-47 55t-28.5 84.5t-7.5 120.5zM758 1645l-303 -215h-338l196 215h445z" />
    <glyph glyph-name="lcaron.alt" horiz-adv-x="878" 
d="M920 1360l-113 -324h-254l37 324h330zM113 309v1051h381v-1012q0 -42 17 -57t56 -15h78v-276h-153q-78 0 -127 3.5t-96 14.5t-73 31t-47 55t-28.5 84.5t-7.5 120.5z" />
    <glyph glyph-name="lcommaaccent.alt" horiz-adv-x="696" 
d="M113 309v1051h381v-1012q0 -42 17 -57t56 -15h78v-276h-153q-78 0 -127 3.5t-96 14.5t-73 31t-47 55t-28.5 84.5t-7.5 120.5zM174 -258v190h283v-202l-105 -170h-184l74 182h-68z" />
    <glyph glyph-name="ldot.alt" horiz-adv-x="696" 
d="M113 1430v215h381v-215h-381zM113 309v1051h381v-1012q0 -42 17 -57t56 -15h78v-276h-153q-78 0 -127 3.5t-96 14.5t-73 31t-47 55t-28.5 84.5t-7.5 120.5z" />
    <glyph glyph-name="lslash.alt" horiz-adv-x="696" 
d="M-10 434v295l123 59v572h381v-387l131 63v-295l-131 -63v-330q0 -42 17 -57t56 -15h78v-276h-153q-78 0 -127 3.5t-96 14.5t-73 31t-47 55t-28.5 84.5t-7.5 120.5v185z" />
    <glyph glyph-name="zero.plf" horiz-adv-x="1359" 
d="M680 -25q-291 0 -444.5 186.5t-153.5 522.5t153.5 522.5t444.5 186.5t444.5 -186.5t153.5 -522.5t-153.5 -522.5t-444.5 -186.5zM680 258q47 0 83.5 21.5t65 69.5t43.5 132.5t15 202.5t-15 202.5t-43.5 132.5t-65 69.5t-83.5 21.5t-83.5 -21.5t-65 -69.5t-43.5 -132.5
t-15 -202.5t15 -202.5t43.5 -132.5t65 -69.5t83.5 -21.5z" />
    <glyph glyph-name="zeroslashed.plf" horiz-adv-x="1359" 
d="M680 -25q-291 0 -444.5 186.5t-153.5 522.5t153.5 522.5t444.5 186.5t444.5 -186.5t153.5 -522.5t-153.5 -522.5t-444.5 -186.5zM680 1110q-207 0 -207 -420l401 176q-37 244 -194 244zM680 258q204 0 207 416l-402 -176q36 -240 195 -240z" />
    <glyph glyph-name="one.plf" horiz-adv-x="849" 
d="M707 0h-381v879h-306v276q176 4 261.5 51t126.5 154h299v-1360z" />
    <glyph glyph-name="two.plf" horiz-adv-x="1208" 
d="M633 1393q110 0 203 -24t164 -71.5t111 -124.5t40 -176q0 -57 -14.5 -110.5t-37.5 -99.5t-65 -95.5t-84.5 -89.5t-108 -90.5t-123.5 -90.5t-143 -97h570v-324h-1100v301q32 23 125 85.5t158 107t154 114.5t145 125.5t96.5 120t40.5 117.5q0 70 -42.5 104.5t-111.5 34.5
q-89 0 -143.5 -63.5t-60.5 -186.5l-363 4q3 253 157 391t433 138z" />
    <glyph glyph-name="three.plf" horiz-adv-x="1282" 
d="M633 258q89 0 134.5 36.5t45.5 94.5q0 76 -64.5 108.5t-201.5 32.5h-58v306h62q110 0 167.5 42t57.5 113q0 57 -47 88t-113 31q-84 0 -142 -45t-64 -139l-371 43q26 201 184 312.5t424 111.5q232 0 375 -100.5t143 -272.5q0 -105 -52 -191.5t-128 -121.5
q101 -33 161 -116t60 -200q0 -99 -47 -179.5t-127.5 -131t-183.5 -78t-219 -27.5q-258 0 -419.5 128t-180.5 331l368 37q32 -213 236 -213z" />
    <glyph glyph-name="four.plf" horiz-adv-x="1273" 
d="M666 907l-275 -319h275v319zM1260 588v-324h-213v-264h-381v264h-652v287l699 809h334v-772h213z" />
    <glyph glyph-name="five.plf" horiz-adv-x="1343" 
d="M664 258q98 0 154 54.5t56 142.5q0 87 -53.5 143.5t-144.5 56.5q-155 0 -215 -110l-340 28l104 787h951v-322h-631l-31 -194q99 94 301 94q200 0 326.5 -131t126.5 -350q0 -224 -159.5 -353t-422.5 -129q-246 0 -411 108.5t-195 319.5l364 56q14 -91 72 -146t148 -55z
" />
    <glyph glyph-name="six.plf" horiz-adv-x="1310" 
d="M467 457q0 -93 55 -146t135 -53q79 0 133 53t54 146q0 91 -55 142.5t-132 51.5q-81 0 -135.5 -51.5t-54.5 -142.5zM676 1110q-95 0 -157.5 -76.5t-61.5 -206.5q104 107 319 107q83 0 162 -28.5t146.5 -84t109 -148.5t41.5 -210q0 -154 -75.5 -265.5t-205 -167
t-297.5 -55.5q-188 0 -320.5 84.5t-197.5 235t-65 356.5q0 128 23.5 239.5t73.5 204t122.5 159t175 103t227.5 36.5q234 0 367.5 -111t138.5 -285l-352 -2q-9 56 -57 85.5t-117 29.5z" />
    <glyph glyph-name="seven.plf" horiz-adv-x="1077" 
d="M-6 1038v322h1114v-322q-290 -192 -428 -441t-131 -597h-418q-4 133 27 265.5t86 244t131.5 213t160.5 179.5t175 136h-717z" />
    <glyph glyph-name="eight.plf" horiz-adv-x="1359" 
d="M680 1393q132 0 238 -30.5t173 -82.5t102.5 -118.5t35.5 -141.5q0 -87 -36.5 -163.5t-102.5 -123.5q182 -114 182 -325q0 -189 -163 -311t-429 -122t-429 122t-163 311q0 211 182 325q-66 47 -102.5 123.5t-36.5 163.5q0 156 146 264.5t403 108.5zM680 596
q-88 0 -145.5 -48.5t-57.5 -119.5q0 -77 56.5 -123.5t146.5 -46.5t146.5 46.5t56.5 123.5q0 71 -57.5 119.5t-145.5 48.5zM852 973q0 61 -49.5 99t-122.5 38t-122.5 -38t-49.5 -99t49.5 -100t122.5 -39t122.5 39t49.5 100z" />
    <glyph glyph-name="nine.plf" horiz-adv-x="1304" 
d="M831 911q0 93 -55 146t-135 53q-79 0 -132.5 -53t-53.5 -146q0 -91 54.5 -142.5t131.5 -51.5q81 0 135.5 51.5t54.5 142.5zM623 258q95 0 157.5 76.5t61.5 206.5q-104 -107 -320 -107q-83 0 -162 28.5t-146.5 84t-109 148.5t-41.5 210q0 153 76 265t203 167.5t289 55.5
q294 0 444 -177.5t150 -498.5q0 -161 -37.5 -294.5t-111.5 -234.5t-193.5 -157t-274.5 -56q-235 0 -371 111.5t-141 284.5l353 2q9 -56 57 -85.5t117 -29.5z" />
    <glyph glyph-name="zero.pof" horiz-adv-x="1263" 
d="M633 -23q-278 0 -422.5 165t-144.5 472q0 308 145 478t422 170q276 0 420.5 -169.5t144.5 -478.5q0 -307 -144 -472t-421 -165zM633 260q33 0 57 7.5t47 30t37.5 61t23.5 102.5t9 153q0 111 -12.5 185t-37.5 111.5t-54 52t-70 14.5q-42 0 -71.5 -14.5t-54.5 -52
t-37.5 -111.5t-12.5 -185q0 -89 9 -153t23.5 -102.5t38 -61t48 -30t57.5 -7.5z" />
    <glyph glyph-name="zeroslashed.pof" horiz-adv-x="1263" 
d="M633 -23q-278 0 -422.5 165t-144.5 472q0 308 145 478t422 170q276 0 420.5 -169.5t144.5 -478.5q0 -307 -144 -472t-421 -165zM633 977q-41 0 -70 -13.5t-54 -49.5t-38 -106.5t-14 -176.5l340 149q-17 113 -58 155t-106 42zM633 260q40 0 68 12.5t53 46t38.5 101
t14.5 170.5l-340 -150q17 -106 57.5 -143t108.5 -37z" />
    <glyph glyph-name="one.pof" horiz-adv-x="829" 
d="M686 0h-381v778h-285v271q80 1 138 10.5t95 24t63.5 40t40.5 51.5t28 66h301v-1241z" />
    <glyph glyph-name="two.pof" horiz-adv-x="1167" 
d="M614 1262q105 0 192.5 -21t157 -64t108 -115t38.5 -167q0 -74 -26.5 -141t-69 -120t-115.5 -109t-145.5 -100t-178.5 -101h525v-324h-1049v301q91 45 189.5 103t215.5 138t192 165t75 153q0 53 -35 85t-106 32q-87 0 -132.5 -55t-48.5 -156l-358 2q6 242 151.5 368
t419.5 126z" />
    <glyph glyph-name="three.pof" horiz-adv-x="1234" 
d="M608 260q81 0 118.5 29t37.5 73q0 111 -240 111h-43v295h51q95 0 148 33t53 86q0 44 -42.5 67t-100.5 23q-75 0 -126 -41.5t-58 -130.5l-369 41q24 189 172.5 302.5t413.5 113.5q226 0 362.5 -101t136.5 -254q0 -94 -49 -160t-125 -100q94 -32 152.5 -103.5t58.5 -181.5
q0 -120 -78 -209t-202.5 -132.5t-274.5 -43.5q-130 0 -236 35t-177 96t-112 141t-50 173l366 35q14 -108 66.5 -152.5t146.5 -44.5z" />
    <glyph glyph-name="four.pof" horiz-adv-x="1224" 
d="M623 819l-250 -276h250v276zM1210 543v-324h-206v-219h-381v219h-609v295l660 727h330v-698h206z" />
    <glyph glyph-name="five.pof" horiz-adv-x="1263" 
d="M639 260q83 0 129.5 43t46.5 115q0 70 -46.5 116t-139.5 46q-62 0 -112 -25.5t-73 -71.5l-338 27l103 731h924v-323h-605l-26 -148q106 84 291 84q189 0 302 -117t113 -315q0 -200 -151.5 -322.5t-403.5 -122.5q-231 0 -382.5 101.5t-190.5 288.5l354 51
q13 -67 66 -112.5t139 -45.5z" />
    <glyph glyph-name="six.pof" horiz-adv-x="1265" 
d="M465 424q0 -84 48.5 -124t119.5 -40t118.5 40t47.5 124q0 82 -48.5 119t-117.5 37q-71 0 -119.5 -38.5t-48.5 -117.5zM651 975q-84 0 -141 -60t-57 -159q90 102 309 102q60 0 117 -12t114.5 -42t100 -76.5t69.5 -122t27 -171.5q0 -112 -42 -200t-117 -144t-176 -84.5
t-222 -28.5q-268 0 -413.5 162.5t-145.5 456.5q0 201 65 349t201 232.5t332 84.5q222 0 350.5 -101t130.5 -260l-346 -2q-8 31 -52.5 53.5t-103.5 22.5z" />
    <glyph glyph-name="seven.pof" horiz-adv-x="1038" 
d="M-6 918v323h1075v-332q-260 -123 -398.5 -366.5t-127.5 -542.5h-420q-6 137 42 285t128 270.5t180.5 219.5t200.5 143h-680z" />
    <glyph glyph-name="eight.pof" horiz-adv-x="1294" 
d="M647 1262q124 0 224.5 -29.5t163.5 -78.5t96.5 -109.5t33.5 -126.5q0 -84 -34 -152.5t-95 -103.5q170 -92 170 -293q0 -76 -40 -147t-111 -125.5t-177.5 -87t-230.5 -32.5t-230.5 32.5t-177.5 87t-111 125.5t-40 147q0 198 170 293q-60 36 -94.5 107t-34.5 151
q0 65 33.5 125.5t96 109t163.5 78t225 29.5zM647 535q-77 0 -124.5 -39t-47.5 -97q0 -70 45.5 -104.5t126.5 -34.5t126.5 34.5t45.5 104.5q0 58 -47.5 97t-124.5 39zM788 860q0 53 -39.5 85t-101.5 32q-63 0 -102 -31.5t-39 -85.5q0 -53 38.5 -84t102.5 -31q63 0 102 31
t39 84z" />
    <glyph glyph-name="nine.pof" horiz-adv-x="1259" 
d="M791 819q0 83 -48.5 120.5t-121.5 37.5q-71 0 -118.5 -37.5t-47.5 -120.5t49 -121.5t117 -38.5q71 0 120.5 40.5t49.5 119.5zM604 264q84 0 141 60t56 157q-90 -100 -307 -100q-61 0 -118.5 12t-115 43t-100.5 78.5t-70 123t-27 171.5q0 115 42.5 203t118.5 142t174 81
t214 27q281 0 424.5 -155.5t143.5 -463.5q0 -309 -149.5 -487.5t-440.5 -178.5q-223 0 -355.5 101.5t-134.5 259.5l346 2q9 -37 52 -56.5t106 -19.5z" />
    <glyph glyph-name="zero.tlf" horiz-adv-x="1290" 
d="M645 -25q-291 0 -444.5 186.5t-153.5 522.5t153.5 522.5t444.5 186.5t444.5 -186.5t153.5 -522.5t-153.5 -522.5t-444.5 -186.5zM645 258q47 0 83.5 21.5t65 69.5t43.5 132.5t15 202.5t-15 202.5t-43.5 132.5t-65 69.5t-83.5 21.5t-83.5 -21.5t-65 -69.5t-43.5 -132.5
t-15 -202.5t15 -202.5t43.5 -132.5t65 -69.5t83.5 -21.5z" />
    <glyph glyph-name="zeroslashed.tlf" horiz-adv-x="1290" 
d="M645 -25q-291 0 -444.5 186.5t-153.5 522.5t153.5 522.5t444.5 186.5t444.5 -186.5t153.5 -522.5t-153.5 -522.5t-444.5 -186.5zM645 1110q-207 0 -207 -420l402 176q-37 244 -195 244zM645 258q204 0 207 416l-401 -176q36 -240 194 -240z" />
    <glyph glyph-name="one.tlf" horiz-adv-x="1290" 
d="M858 324h361v-324h-1149v324h407v555h-407v276q160 3 258.5 25.5t151 65t79.5 114.5h299v-1036z" />
    <glyph glyph-name="two.tlf" horiz-adv-x="1290" 
d="M680 1393q110 0 203 -24t164 -71.5t111 -124.5t40 -176q0 -66 -17 -126.5t-55.5 -117.5t-82.5 -105.5t-116.5 -106.5t-138 -104t-165.5 -113h569v-324h-1100v301q32 23 125 85.5t158 107t154 114.5t145 125.5t96.5 120t40.5 117.5q0 70 -42.5 104.5t-111.5 34.5
q-89 0 -143.5 -63.5t-60.5 -186.5l-363 4q3 253 157 391t433 138z" />
    <glyph glyph-name="three.tlf" horiz-adv-x="1290" 
d="M659 258q89 0 135 36.5t46 94.5q0 76 -65 108.5t-202 32.5h-57v306h62q110 0 167.5 42t57.5 113q0 57 -47 88t-113 31q-84 0 -142.5 -45t-64.5 -139l-370 43q26 201 184 312.5t424 111.5q232 0 375 -100.5t143 -272.5q0 -105 -52 -191.5t-128 -121.5q101 -33 161 -116
t60 -200q0 -131 -82 -227.5t-211 -142.5t-285 -46q-258 0 -419.5 128t-180.5 331l369 37q32 -213 235 -213z" />
    <glyph glyph-name="four.tlf" horiz-adv-x="1290" 
d="M674 907l-275 -319h275v319zM1268 588v-324h-213v-264h-381v264h-651v287l698 809h334v-772h213z" />
    <glyph glyph-name="five.tlf" horiz-adv-x="1290" 
d="M635 258q98 0 154.5 54.5t56.5 142.5q0 87 -53.5 143.5t-145.5 56.5q-155 0 -215 -110l-340 28l105 787h950v-322h-631l-31 -194q99 94 301 94q200 0 326.5 -131t126.5 -350q0 -224 -159.5 -353t-422.5 -129q-246 0 -411 108.5t-195 319.5l365 56q14 -91 71.5 -146
t147.5 -55z" />
    <glyph glyph-name="six.tlf" horiz-adv-x="1290" 
d="M457 457q0 -93 55 -146t135 -53q79 0 133 53t54 146q0 91 -55 142.5t-132 51.5q-81 0 -135.5 -51.5t-54.5 -142.5zM666 1110q-95 0 -158 -76.5t-62 -206.5q104 107 320 107q83 0 162 -28.5t146.5 -84t109 -148.5t41.5 -210q0 -154 -75.5 -265.5t-205 -167t-297.5 -55.5
q-188 0 -320.5 84.5t-198 235t-65.5 356.5q0 161 38.5 294.5t113.5 234.5t195.5 157t275.5 56q234 0 367.5 -111t138.5 -285l-352 -2q-9 56 -57 85.5t-117 29.5z" />
    <glyph glyph-name="seven.tlf" horiz-adv-x="1290" 
d="M88 1038v322h1114v-322q-290 -192 -428 -441t-131 -597h-418q-4 133 27 265.5t86 244t131.5 213t160.5 179.5t175 136h-717z" />
    <glyph glyph-name="eight.tlf" horiz-adv-x="1290" 
d="M645 1393q132 0 238 -30.5t173 -82.5t102.5 -118.5t35.5 -141.5q0 -87 -36.5 -163.5t-102.5 -123.5q182 -114 182 -325q0 -189 -163 -311t-429 -122t-429 122t-163 311q0 210 183 325q-66 47 -103 123.5t-37 163.5q0 156 146 264.5t403 108.5zM645 596
q-88 0 -145.5 -48.5t-57.5 -119.5q0 -77 56.5 -123.5t146.5 -46.5t146.5 46.5t56.5 123.5q0 71 -57.5 119.5t-145.5 48.5zM817 973q0 61 -49.5 99t-122.5 38t-122.5 -38t-49.5 -99t49.5 -100t122.5 -39t122.5 39t49.5 100z" />
    <glyph glyph-name="nine.tlf" horiz-adv-x="1290" 
d="M831 911q0 93 -55 146t-135 53q-79 0 -132.5 -53t-53.5 -146q0 -91 54.5 -142.5t131.5 -51.5q81 0 135.5 51.5t54.5 142.5zM623 258q95 0 157.5 76.5t61.5 206.5q-104 -107 -320 -107q-83 0 -162 28.5t-146.5 84t-109 148.5t-41.5 210q0 153 76 265t203 167.5t289 55.5
q294 0 444 -177.5t150 -498.5q0 -161 -37.5 -294.5t-111.5 -234.5t-193.5 -157t-274.5 -56q-235 0 -371 111.5t-141 284.5l353 2q9 -56 57 -85.5t117 -29.5z" />
    <glyph glyph-name="zeroslashed.superior" horiz-adv-x="761" 
d="M381 819q-165 0 -252.5 105.5t-87.5 296.5t87 296t253 105t253 -105t87 -296t-87.5 -296.5t-252.5 -105.5zM381 1462q-53 0 -82 -45.5t-35 -154.5l228 55q-21 145 -111 145zM381 981q104 0 115 193l-226 -58q19 -135 111 -135z" />
    <glyph glyph-name="zeroslashed.inferior" horiz-adv-x="761" 
d="M381 -260q-166 0 -253 105t-87 296t87.5 296.5t252.5 105.5t252.5 -105.5t87.5 -296.5t-87 -296t-253 -105zM381 383q-52 0 -81.5 -46t-35.5 -155l228 56q-21 145 -111 145zM381 -98q104 0 115 192l-226 -57q19 -135 111 -135z" />
    <glyph glyph-name="zero.denominator" horiz-adv-x="761" 
d="M381 -14q-166 0 -253 105t-87 296t87 296t253 105t253 -105t87 -296t-87 -296t-253 -105zM381 147q117 0 117 240q0 242 -117 242q-56 0 -86.5 -55.5t-30.5 -186.5t30.5 -185.5t86.5 -54.5z" />
    <glyph glyph-name="zeroslashed.denominator" horiz-adv-x="761" 
d="M381 -14q-166 0 -253 105t-87 296t87 296t253 105t253 -105t87 -296t-87 -296t-253 -105zM381 629q-52 0 -81.5 -46t-35.5 -155l228 55q-21 146 -111 146zM381 147q104 0 115 193l-226 -57q19 -136 111 -136z" />
    <glyph glyph-name="one.denominator" horiz-adv-x="471" 
d="M395 0h-215v502h-174v157q100 3 148.5 29.5t70.5 87.5h170v-776z" />
    <glyph glyph-name="two.denominator" horiz-adv-x="688" 
d="M356 788q131 0 213 -56.5t82 -168.5q0 -38 -9.5 -71.5t-32 -66t-46.5 -59t-67 -60t-78 -58t-94 -64.5h323v-184h-624v172q20 14 86.5 58.5t111 77t98.5 77t82.5 86.5t28.5 78q0 40 -23.5 60t-62.5 20q-51 0 -82.5 -37t-34.5 -107l-207 2q3 145 90.5 223t245.5 78z" />
    <glyph glyph-name="three.denominator" horiz-adv-x="735" 
d="M369 147q50 0 76 20.5t26 53.5q0 45 -37 65.5t-115 20.5h-32v174h35q129 0 129 80q0 32 -27 50t-64 18q-46 0 -77.5 -26.5t-34.5 -80.5l-211 25q15 115 102 178t238 63q133 0 214 -56t81 -154q0 -60 -29.5 -105t-73.5 -65q57 -19 91 -68t34 -117q0 -112 -94.5 -174.5
t-232.5 -62.5q-148 0 -238.5 72.5t-101.5 189.5l209 20q20 -121 133 -121z" />
    <glyph glyph-name="four.denominator" horiz-adv-x="759" 
d="M399 518l-155 -182h155v182zM737 336v-184h-121v-152h-217v152h-370v163l397 461h190v-440h121z" />
    <glyph glyph-name="five.denominator" horiz-adv-x="757" 
d="M373 147q56 0 87.5 31t31.5 82q0 49 -30.5 82t-82.5 33q-88 0 -121 -64l-195 17l60 448h541v-184h-359l-18 -111q59 56 172 56q114 0 185 -75.5t71 -201.5q0 -127 -90 -200.5t-240 -73.5q-140 0 -233.5 61.5t-110.5 181.5l207 33q8 -52 41 -83.5t84 -31.5z" />
    <glyph glyph-name="six.denominator" horiz-adv-x="741" 
d="M264 260q0 -53 32 -83t77 -30t75.5 30t30.5 83t-31 83t-75 30q-45 0 -77 -30t-32 -83zM383 629q-54 0 -89.5 -41.5t-35.5 -114.5q59 59 182 59q47 0 92 -16t83 -47.5t61.5 -84.5t23.5 -120q0 -131 -91 -204.5t-236 -73.5q-160 0 -246 104.5t-86 282.5q0 188 89.5 301.5
t264.5 113.5q132 0 208 -63t79 -162h-201q-4 31 -32 48.5t-66 17.5z" />
    <glyph glyph-name="seven.denominator" horiz-adv-x="645" 
d="M18 592v184h633v-184q-165 -108 -243 -250.5t-74 -341.5h-238q-3 94 24 186.5t75 167.5t106 135.5t123 102.5h-406z" />
    <glyph glyph-name="eight.denominator" horiz-adv-x="737" 
d="M369 788q143 0 225 -60.5t82 -149.5q0 -50 -20.5 -93t-57.5 -69q102 -64 102 -187q0 -107 -91.5 -175t-239.5 -68q-147 0 -239.5 68.5t-92.5 174.5q0 123 104 187q-38 26 -59 69t-21 93q0 89 82 149.5t226 60.5zM369 336q-50 0 -80.5 -26t-30.5 -66q0 -44 30 -70.5
t81 -26.5t80.5 26.5t29.5 70.5q0 40 -30 66t-80 26zM463 551q0 35 -26 56.5t-68 21.5q-40 0 -66.5 -21.5t-26.5 -56.5t26.5 -56.5t66.5 -21.5q42 0 68 21.5t26 56.5z" />
    <glyph glyph-name="nine.denominator" horiz-adv-x="743" 
d="M477 514q0 54 -31 84.5t-77 30.5q-45 0 -75 -30.5t-30 -84.5q0 -51 31 -81t74 -30q46 0 77 29.5t31 81.5zM358 147q55 0 90 41t35 115q-61 -61 -182 -61q-47 0 -92 16.5t-83 48t-61.5 85t-23.5 120.5q0 129 90.5 202.5t230.5 73.5q167 0 252.5 -101t85.5 -284
q0 -190 -87.5 -303.5t-262.5 -113.5q-133 0 -210.5 63.5t-80.5 161.5l201 2q4 -32 31.5 -49t66.5 -17z" />
    <glyph glyph-name="zero.numerator" horiz-adv-x="761" 
d="M381 569q-165 0 -252.5 105.5t-87.5 296.5t87 296t253 105t253 -105t87 -296t-87.5 -296.5t-252.5 -105.5zM381 731q117 0 117 240q0 241 -117 241q-56 0 -86.5 -55t-30.5 -186t30.5 -185.5t86.5 -54.5z" />
    <glyph glyph-name="zeroslashed.numerator" horiz-adv-x="761" 
d="M381 569q-165 0 -252.5 105.5t-87.5 296.5t87 296t253 105t253 -105t87 -296t-87.5 -296.5t-252.5 -105.5zM381 1212q-53 0 -82 -45.5t-35 -154.5l228 55q-21 145 -111 145zM381 731q104 0 115 193l-226 -58q19 -135 111 -135z" />
    <glyph glyph-name="one.numerator" horiz-adv-x="471" 
d="M395 584h-215v501h-174v158q100 3 148.5 29.5t70.5 87.5h170v-776z" />
    <glyph glyph-name="two.numerator" horiz-adv-x="688" 
d="M356 1372q131 0 213 -56.5t82 -168.5q0 -38 -9.5 -71.5t-32 -66t-46.5 -59t-67 -60t-78 -58t-94 -64.5h323v-184h-624v172q20 14 86.5 58.5t111 77t98.5 77t82.5 86.5t28.5 78q0 40 -23.5 59.5t-62.5 19.5q-51 0 -82.5 -36.5t-34.5 -106.5l-207 2q3 145 90.5 223
t245.5 78z" />
    <glyph glyph-name="three.numerator" horiz-adv-x="735" 
d="M369 731q50 0 76 20.5t26 53.5q0 45 -37 65.5t-115 20.5h-32v174h35q129 0 129 80q0 32 -27 49.5t-64 17.5q-47 0 -78 -26t-34 -80l-211 24q15 115 102 178.5t238 63.5q133 0 214 -56.5t81 -154.5q0 -60 -29.5 -105t-73.5 -65q57 -19 91 -67.5t34 -116.5
q0 -112 -94.5 -175t-232.5 -63q-148 0 -238.5 72.5t-101.5 189.5l209 21q20 -121 133 -121z" />
    <glyph glyph-name="four.numerator" horiz-adv-x="759" 
d="M399 1102l-155 -182h155v182zM737 920v-185h-121v-151h-217v151h-370v164l397 461h190v-440h121z" />
    <glyph glyph-name="five.numerator" horiz-adv-x="757" 
d="M373 731q56 0 87.5 31t31.5 82q0 49 -30.5 81.5t-82.5 32.5q-89 0 -121 -63l-195 16l60 449h541v-184h-359l-18 -111q58 55 172 55t185 -75t71 -201q0 -128 -90.5 -201.5t-239.5 -73.5q-140 0 -233.5 62t-110.5 182l207 33q8 -52 41 -83.5t84 -31.5z" />
    <glyph glyph-name="six.numerator" horiz-adv-x="741" 
d="M264 844q0 -53 32 -83t77 -30t75.5 30t30.5 83t-31 82.5t-75 29.5q-46 0 -77.5 -29.5t-31.5 -82.5zM383 1212q-54 0 -89.5 -41t-35.5 -114q59 59 182 59q47 0 92 -16t83 -47.5t61.5 -84.5t23.5 -120q0 -132 -91 -205.5t-236 -73.5q-160 0 -246 104.5t-86 282.5
q0 188 89.5 302t264.5 114q132 0 208 -63t79 -162h-201q-4 31 -31.5 48t-66.5 17z" />
    <glyph glyph-name="seven.numerator" horiz-adv-x="645" 
d="M18 1176v184h633v-184q-165 -108 -243 -250.5t-74 -341.5h-238q-3 94 24 186.5t75 167.5t106 135.5t123 102.5h-406z" />
    <glyph glyph-name="eight.numerator" horiz-adv-x="737" 
d="M369 1372q143 0 225 -61t82 -150q0 -50 -20.5 -93t-57.5 -69q102 -64 102 -186q0 -107 -91.5 -175.5t-239.5 -68.5q-147 0 -239.5 69t-92.5 175q0 122 104 186q-38 26 -59 69t-21 93q0 89 82.5 150t225.5 61zM369 920q-50 0 -80.5 -26.5t-30.5 -66.5q0 -44 30 -70t81 -26
t80.5 26t29.5 70q0 41 -30 67t-80 26zM463 1135q0 35 -26 56t-68 21q-40 0 -66.5 -21t-26.5 -56t26.5 -56.5t66.5 -21.5q42 0 68 21.5t26 56.5z" />
    <glyph glyph-name="nine.numerator" horiz-adv-x="743" 
d="M477 1098q0 53 -31 83.5t-77 30.5q-45 0 -75 -30.5t-30 -83.5q0 -51 31 -81t74 -30q46 0 77 29.5t31 81.5zM358 731q55 0 90 41t35 115q-62 -62 -182 -62q-64 0 -121.5 28t-98 91.5t-40.5 151.5q0 129 90.5 202.5t230.5 73.5q167 0 252.5 -101t85.5 -284
q0 -190 -87.5 -304t-262.5 -114q-133 0 -210.5 63.5t-80.5 162.5l201 2q4 -32 31.5 -49t66.5 -17z" />
    <glyph glyph-name="a.superior" horiz-adv-x="661" 
d="M250 1223h-203q22 196 305 196q132 0 195.5 -54t62.5 -175v-121q-3 -89 11 -235h-195l-2 67q-49 -82 -176 -82q-100 0 -159.5 57t-59.5 136q0 78 53 121q68 54 256 71l63 6v13q0 53 -73 53t-78 -53zM408 1049v34l-70 -6q-50 -6 -70 -19t-20 -36q0 -22 15.5 -37.5
t47.5 -15.5q44 0 70.5 21t26.5 59z" />
    <glyph glyph-name="b.superior" horiz-adv-x="708" 
d="M63 834v776h218v-262q47 71 157 71q104 0 173 -81t69 -220q0 -138 -70.5 -218.5t-177.5 -80.5q-104 0 -151 72v-57h-218zM371 1257q-44 0 -70.5 -40t-26.5 -99q0 -58 26.5 -97.5t70.5 -39.5q43 0 64.5 40.5t21.5 98.5q0 57 -21.5 97t-64.5 40z" />
    <glyph glyph-name="c.superior" horiz-adv-x="665" 
d="M338 1419q123 0 200.5 -59t102.5 -154l-201 -30q-16 84 -90 84q-100 0 -100 -140q0 -141 100 -141q74 0 94 84l199 -31q-24 -94 -103 -153.5t-198 -59.5q-150 0 -231.5 81.5t-81.5 217.5q0 135 85.5 218t223.5 83z" />
    <glyph glyph-name="d.superior" horiz-adv-x="720" 
d="M657 1610v-776h-217v57q-50 -72 -157 -72q-104 0 -173 81t-69 220q0 138 70.5 218.5t175.5 80.5q108 0 153 -71v262h217zM350 981q44 0 70 40t26 99q0 58 -26 97.5t-70 39.5q-43 0 -64.5 -40.5t-21.5 -98.5q0 -57 21.5 -97t64.5 -40z" />
    <glyph glyph-name="e.superior" horiz-adv-x="684" 
d="M346 819q-150 0 -233.5 84t-83.5 221q0 133 88.5 214t228.5 81q157 0 239 -95t68 -257h-407q10 -88 104 -88q68 0 94 61l201 -30q-12 -36 -33 -67t-55.5 -60.5t-88.5 -46.5t-122 -17zM346 1276q-88 0 -98 -82h192q-3 43 -29.5 62.5t-64.5 19.5z" />
    <glyph glyph-name="f.superior" horiz-adv-x="438" 
d="M88 1407v20q0 112 44.5 147.5t170.5 35.5h117v-158h-74q-24 0 -32.5 -7t-8.5 -30v-8h115v-150h-117v-423h-215v423h-72v150h72z" />
    <glyph glyph-name="g.superior" horiz-adv-x="708" 
d="M428 846v67q-44 -69 -156 -69q-107 0 -175 75.5t-68 213.5q0 137 69.5 211.5t177.5 74.5q107 0 152 -71v59h217v-565q0 -120 -82 -176q-80 -54 -219 -54q-140 0 -209.5 48.5t-83.5 144.5l203 10q11 -59 88 -59q37 0 61 18q25 25 25 72zM338 1004q45 0 71.5 35t26.5 94
q0 56 -26.5 90t-71.5 34q-43 0 -64.5 -35.5t-21.5 -91.5q0 -55 21.5 -90.5t64.5 -35.5z" />
    <glyph glyph-name="h.superior" horiz-adv-x="706" 
d="M281 1610v-269q54 78 180 78q100 0 147 -53q45 -51 45 -186v-346h-215v305q0 62 -16 84q-17 22 -55 22q-86 0 -86 -117v-294h-218v776h218z" />
    <glyph glyph-name="i.superior" horiz-adv-x="344" 
d="M63 1407h218v-573h-218v573zM63 1610h218v-166h-218v166z" />
    <glyph glyph-name="j.superior" horiz-adv-x="344" 
d="M63 829v578h218v-580q0 -118 -46.5 -157t-171.5 -39h-79v157h36q23 0 33 8.5t10 32.5zM63 1610h218v-166h-218v166z" />
    <glyph glyph-name="k.superior" horiz-adv-x="718" 
d="M63 1610h218v-377l159 174h267l-211 -217l217 -356h-246l-123 202l-63 -65v-137h-218v776z" />
    <glyph glyph-name="l.superior" horiz-adv-x="344" 
d="M281 1610v-776h-218v776h218z" />
    <glyph glyph-name="m.superior" horiz-adv-x="1060" 
d="M63 834v573h218v-66q53 78 174 78q65 0 104 -23.5t59 -74.5q66 98 201 98q100 0 144 -53q47 -53 47 -184v-348h-217v301q0 69 -21 92q-12 18 -45 18q-41 0 -61.5 -27t-20.5 -90v-294h-217v301q0 69 -18 92q-15 18 -48 18q-41 0 -61 -27t-20 -90v-294h-218z" />
    <glyph glyph-name="o.superior" horiz-adv-x="692" 
d="M252 1118q0 -69 25.5 -103t68.5 -34t68.5 34t25.5 103q0 71 -25.5 105t-68.5 34t-68.5 -34t-25.5 -105zM29 1118q0 148 89.5 224.5t227.5 76.5t227 -76.5t89 -224.5q0 -146 -89.5 -222.5t-226.5 -76.5q-138 0 -227.5 76.5t-89.5 222.5z" />
    <glyph glyph-name="p.superior" horiz-adv-x="708" 
d="M281 891v-260h-218v776h218v-59q47 71 157 71q104 0 173 -81t69 -220q0 -138 -70.5 -218.5t-177.5 -80.5q-104 0 -151 72zM371 1257q-44 0 -70.5 -40t-26.5 -99q0 -58 26.5 -97.5t70.5 -39.5q43 0 64.5 40.5t21.5 98.5q0 57 -21.5 97t-64.5 40z" />
    <glyph glyph-name="q.superior" horiz-adv-x="708" 
d="M428 1348v59h217v-776h-217v260q-46 -72 -156 -72q-106 0 -174.5 81t-68.5 220q0 138 70.5 218.5t176.5 80.5q107 0 152 -71zM338 981q44 0 71 40t27 99q0 58 -27 97.5t-71 39.5q-43 0 -64.5 -40.5t-21.5 -98.5q0 -57 21.5 -97t64.5 -40z" />
    <glyph glyph-name="r.superior" horiz-adv-x="460" 
d="M449 1411v-213q-60 6 -68 6q-100 0 -100 -80v-290h-218v573h211v-80q18 43 59 63.5t93 20.5h23z" />
    <glyph glyph-name="s.superior" horiz-adv-x="624" 
d="M584 1358l-78 -152q-87 54 -195 54q-53 0 -53 -21q0 -22 45 -29l76 -14q106 -19 161.5 -57.5t55.5 -116.5q0 -98 -82.5 -150.5t-204.5 -52.5q-181 0 -295 84l88 152q83 -76 207 -76q76 0 76 29q0 12 -14 17.5t-54 12.5l-61 13q-100 19 -154.5 62t-54.5 122
q0 87 79.5 135.5t199.5 48.5q162 0 258 -61z" />
    <glyph glyph-name="t.superior" horiz-adv-x="462" 
d="M98 1407v172h217v-172h115v-150h-115v-225q0 -24 10 -32.5t33 -8.5h72v-157h-115q-67 0 -103 5t-65 23t-39 53t-10 95v247h-94v150h94z" />
    <glyph glyph-name="u.superior" horiz-adv-x="702" 
d="M422 834v67q-51 -82 -166 -82q-105 0 -154 58q-43 52 -43 186v344h215v-307q0 -60 17 -84q20 -23 53 -23q78 0 78 119v295h217v-573h-217z" />
    <glyph glyph-name="v.superior" horiz-adv-x="649" 
d="M238 1407l92 -356l88 356h225l-197 -573h-239l-201 573h232z" />
    <glyph glyph-name="w.superior" horiz-adv-x="962" 
d="M307 1051l64 356h225l72 -356l63 356h225l-172 -573h-235l-66 327l-61 -327h-238l-178 573h232z" />
    <glyph glyph-name="x.superior" horiz-adv-x="700" 
d="M688 1407l-217 -281l223 -292h-241l-105 135l-104 -135h-238l225 288l-217 285h244l96 -127l99 127h235z" />
    <glyph glyph-name="y.superior" horiz-adv-x="647" 
d="M147 631h-77v157h65q37 0 53 6.5t23 28.5l2 6l-207 578h232l90 -363l90 363h223l-219 -584q-41 -112 -98.5 -152t-176.5 -40z" />
    <glyph glyph-name="z.superior" horiz-adv-x="647" 
d="M31 834v165l278 242h-256v166h543v-166l-274 -242h286v-165h-577z" />
    <glyph glyph-name="a.inferior" horiz-adv-x="661" 
d="M250 143h-203q22 197 305 197q132 0 195.5 -54t62.5 -175v-121q-3 -90 11 -236h-195l-2 68q-49 -82 -176 -82q-100 0 -159.5 56.5t-59.5 135.5q0 78 53 121q70 55 256 72l63 6v12q0 54 -73 54t-78 -54zM408 -31v35l-70 -6q-50 -6 -70 -19t-20 -36t16 -38.5t47 -15.5
q44 0 70.5 21t26.5 59z" />
    <glyph glyph-name="b.inferior" horiz-adv-x="708" 
d="M63 -246v776h218v-262q47 72 157 72q104 0 173 -81t69 -220q0 -138 -70.5 -218.5t-177.5 -80.5q-104 0 -151 72v-58h-218zM371 178q-44 0 -70.5 -40t-26.5 -99q0 -58 26.5 -97.5t70.5 -39.5q43 0 64.5 40.5t21.5 98.5q0 57 -21.5 97t-64.5 40z" />
    <glyph glyph-name="c.inferior" horiz-adv-x="665" 
d="M338 340q123 0 200.5 -59t102.5 -154l-201 -31q-16 84 -90 84q-100 0 -100 -139q0 -141 100 -141q74 0 94 84l199 -31q-24 -94 -103 -153.5t-198 -59.5q-150 0 -231.5 81.5t-81.5 217.5q0 135 85.5 218t223.5 83z" />
    <glyph glyph-name="d.inferior" horiz-adv-x="720" 
d="M657 530v-776h-217v58q-50 -72 -157 -72q-104 0 -173 81t-69 220q0 138 70.5 218.5t175.5 80.5q107 0 153 -72v262h217zM350 -98q44 0 70 40t26 99q0 58 -26 97.5t-70 39.5q-43 0 -64.5 -40.5t-21.5 -98.5q0 -57 21.5 -97t64.5 -40z" />
    <glyph glyph-name="e.inferior" horiz-adv-x="684" 
d="M346 -260q-150 0 -233.5 84t-83.5 221q0 133 88.5 214t228.5 81q157 0 239 -95t68 -257h-407q10 -88 104 -88q68 0 94 61l201 -31q-12 -36 -33 -66.5t-55.5 -60t-88.5 -46.5t-122 -17zM346 197q-88 0 -98 -82h192q-3 43 -29.5 62.5t-64.5 19.5z" />
    <glyph glyph-name="f.inferior" horiz-adv-x="438" 
d="M88 328v20q0 112 44.5 147t170.5 35h117v-157h-74q-24 0 -32.5 -7t-8.5 -30v-8h115v-150h-117v-424h-215v424h-72v150h72z" />
    <glyph glyph-name="g.inferior" horiz-adv-x="708" 
d="M428 -233v67q-45 -70 -156 -70q-107 0 -175 75.5t-68 213.5q0 137 69.5 212t177.5 75q106 0 152 -72v60h217v-566q0 -120 -82 -176q-79 -53 -219 -53t-209.5 48.5t-83.5 144.5l203 10q11 -60 88 -60q36 0 61 19q25 25 25 72zM338 -76q45 0 71.5 35t26.5 94
q0 56 -26.5 90.5t-71.5 34.5q-43 0 -64.5 -35.5t-21.5 -91.5q0 -55 21.5 -91t64.5 -36z" />
    <glyph glyph-name="h.inferior" horiz-adv-x="706" 
d="M281 530v-268q54 78 180 78q100 0 147 -53q45 -51 45 -187v-346h-215v305q0 62 -16 84q-17 23 -55 23q-86 0 -86 -117v-295h-218v776h218z" />
    <glyph glyph-name="i.inferior" horiz-adv-x="344" 
d="M63 328h218v-574h-218v574zM63 530h218v-165h-218v165z" />
    <glyph glyph-name="j.inferior" horiz-adv-x="344" 
d="M63 -250v578h218v-580q0 -118 -46.5 -157.5t-171.5 -39.5h-79v158h36q23 0 33 8.5t10 32.5zM63 530h218v-165h-218v165z" />
    <glyph glyph-name="k.inferior" horiz-adv-x="718" 
d="M63 530h218v-376l159 174h267l-211 -217l217 -357h-246l-123 205l-63 -68v-137h-218v776z" />
    <glyph glyph-name="l.inferior" horiz-adv-x="344" 
d="M281 530v-776h-218v776h218z" />
    <glyph glyph-name="m.inferior" horiz-adv-x="1060" 
d="M63 -246v574h218v-66q53 78 174 78q65 0 104 -23.5t59 -74.5q66 98 201 98q100 0 144 -53q47 -53 47 -185v-348h-217v301q0 69 -21 92q-13 19 -45 19q-41 0 -61.5 -27t-20.5 -90v-295h-217v301q0 69 -18 92q-16 19 -48 19q-41 0 -61 -27t-20 -90v-295h-218z" />
    <glyph glyph-name="n.inferior" horiz-adv-x="706" 
d="M281 328v-66q54 78 180 78q100 0 147 -53q45 -51 45 -187v-346h-215v305q0 62 -16 84q-17 23 -55 23q-86 0 -86 -117v-295h-218v574h218z" />
    <glyph glyph-name="o.inferior" horiz-adv-x="692" 
d="M252 39q0 -69 25.5 -103t68.5 -34t68.5 34t25.5 103q0 71 -25.5 105t-68.5 34t-68.5 -34t-25.5 -105zM29 39q0 148 89.5 224.5t227.5 76.5t227 -76.5t89 -224.5q0 -146 -89.5 -222.5t-226.5 -76.5q-138 0 -227.5 76.5t-89.5 222.5z" />
    <glyph glyph-name="p.inferior" horiz-adv-x="708" 
d="M281 -188v-261h-218v777h218v-60q47 72 157 72q104 0 173 -81t69 -220q0 -138 -70.5 -218.5t-177.5 -80.5q-104 0 -151 72zM371 178q-44 0 -70.5 -40t-26.5 -99q0 -58 26.5 -97.5t70.5 -39.5q43 0 64.5 40.5t21.5 98.5q0 57 -21.5 97t-64.5 40z" />
    <glyph glyph-name="q.inferior" horiz-adv-x="708" 
d="M428 268v60h217v-777h-217v261q-46 -72 -156 -72q-106 0 -174.5 81t-68.5 220q0 138 70.5 218.5t176.5 80.5t152 -72zM338 -98q44 0 71 40t27 99q0 58 -27 97.5t-71 39.5q-43 0 -64.5 -40.5t-21.5 -98.5q0 -57 21.5 -97t64.5 -40z" />
    <glyph glyph-name="r.inferior" horiz-adv-x="460" 
d="M449 332v-213q-60 6 -68 6q-100 0 -100 -80v-291h-218v574h211v-80q18 43 59 63.5t93 20.5h23z" />
    <glyph glyph-name="s.inferior" horiz-adv-x="624" 
d="M584 279l-78 -152q-85 53 -195 53q-53 0 -53 -20q0 -22 45 -29l76 -14q106 -19 161.5 -57.5t55.5 -116.5q0 -98 -82.5 -150.5t-204.5 -52.5q-181 0 -295 84l88 151q82 -75 207 -75q76 0 76 28q0 12 -15 18t-53 13l-61 12q-209 39 -209 185q0 87 79.5 135.5t199.5 48.5
q162 0 258 -61z" />
    <glyph glyph-name="t.inferior" horiz-adv-x="462" 
d="M98 328v172h217v-172h115v-150h-115v-225q0 -24 10 -32.5t33 -8.5h72v-158h-115q-67 0 -103 5t-65 23t-39 53t-10 95v248h-94v150h94z" />
    <glyph glyph-name="u.inferior" horiz-adv-x="702" 
d="M422 -246v68q-51 -82 -166 -82q-106 0 -154 57q-43 52 -43 187v344h215v-308q0 -59 17 -83q20 -23 53 -23q78 0 78 119v295h217v-574h-217z" />
    <glyph glyph-name="v.inferior" horiz-adv-x="649" 
d="M238 328l92 -357l88 357h225l-197 -574h-239l-201 574h232z" />
    <glyph glyph-name="w.inferior" horiz-adv-x="962" 
d="M307 -29l64 357h225l72 -357l63 357h225l-172 -574h-235l-66 328l-61 -328h-238l-178 574h232z" />
    <glyph glyph-name="x.inferior" horiz-adv-x="700" 
d="M688 328l-217 -281l223 -293h-241l-105 137l-104 -137h-238l225 289l-217 285h244l96 -127l99 127h235z" />
    <glyph glyph-name="y.inferior" horiz-adv-x="647" 
d="M147 -449h-77v158h65q37 0 53 6.5t23 28.5l2 6l-207 578h232l90 -363l90 363h223l-219 -584q-41 -112 -98.5 -152.5t-176.5 -40.5z" />
    <glyph glyph-name="z.inferior" horiz-adv-x="647" 
d="M31 -246v166l278 242h-256v166h543v-166l-274 -242h286v-166h-577z" />
    <glyph glyph-name="a.denominator" horiz-adv-x="661" 
d="M250 389h-203q22 197 305 197q132 0 195.5 -54.5t62.5 -175.5v-120q-3 -90 11 -236h-195l-2 68q-49 -82 -176 -82q-100 0 -159.5 56.5t-59.5 135.5q0 78 53 121q70 55 256 72l63 6v12q0 53 -73 53t-78 -53zM408 215v35l-70 -6q-50 -6 -70 -19.5t-20 -36.5
q0 -22 15.5 -37.5t47.5 -15.5q44 0 70.5 21t26.5 59z" />
    <glyph glyph-name="b.denominator" horiz-adv-x="708" 
d="M63 0v776h218v-262q47 72 157 72q104 0 173 -81t69 -220q0 -138 -70.5 -218.5t-177.5 -80.5q-104 0 -151 71v-57h-218zM371 424q-44 0 -70.5 -40t-26.5 -99q0 -58 26.5 -98t70.5 -40q43 0 64.5 41t21.5 99q0 57 -21.5 97t-64.5 40z" />
    <glyph glyph-name="c.denominator" horiz-adv-x="665" 
d="M338 586q123 0 200.5 -59t102.5 -154l-201 -31q-16 84 -90 84q-100 0 -100 -139q0 -64 24 -103t76 -39q74 0 94 84l199 -30q-24 -94 -103 -153.5t-198 -59.5q-150 0 -231.5 81.5t-81.5 217.5q0 135 85.5 218t223.5 83z" />
    <glyph glyph-name="d.denominator" horiz-adv-x="720" 
d="M657 776v-776h-217v57q-49 -71 -157 -71q-104 0 -173 81t-69 220q0 138 70.5 218.5t175.5 80.5q107 0 153 -72v262h217zM350 147q44 0 70 40.5t26 99.5q0 58 -26 97.5t-70 39.5q-43 0 -64.5 -40.5t-21.5 -98.5q0 -57 21.5 -97.5t64.5 -40.5z" />
    <glyph glyph-name="e.denominator" horiz-adv-x="684" 
d="M346 -14q-150 0 -233.5 84t-83.5 221q0 133 88.5 214t228.5 81q157 0 239 -95.5t68 -257.5h-407q10 -88 104 -88q68 0 94 62l201 -31q-12 -36 -33 -66.5t-55.5 -60t-88.5 -46.5t-122 -17zM346 442q-88 0 -98 -82h192q-3 43 -29.5 62.5t-64.5 19.5z" />
    <glyph glyph-name="f.denominator" horiz-adv-x="438" 
d="M88 573v21q0 112 44.5 147t170.5 35h117v-158h-74q-24 0 -32.5 -7t-8.5 -29v-9h115v-149h-117v-424h-215v424h-72v149h72z" />
    <glyph glyph-name="g.denominator" horiz-adv-x="708" 
d="M428 12v68q-45 -70 -156 -70q-107 0 -175 75.5t-68 213.5q0 137 69.5 212t177.5 75q106 0 152 -72v59h217v-565q0 -120 -82 -176q-79 -53 -219 -53t-209.5 48t-83.5 144l203 11q11 -60 88 -60q36 0 61 19q25 25 25 71zM338 170q45 0 71.5 35t26.5 94q0 56 -26.5 90.5
t-71.5 34.5q-43 0 -64.5 -35.5t-21.5 -91.5q0 -55 21.5 -91t64.5 -36z" />
    <glyph glyph-name="h.denominator" horiz-adv-x="706" 
d="M281 776v-268q54 78 180 78q99 0 147 -54q45 -51 45 -186v-346h-215v305q0 62 -16 84q-17 23 -55 23q-86 0 -86 -117v-295h-218v776h218z" />
    <glyph glyph-name="i.denominator" horiz-adv-x="344" 
d="M63 573h218v-573h-218v573zM63 776h218v-166h-218v166z" />
    <glyph glyph-name="j.denominator" horiz-adv-x="344" 
d="M63 -4v577h218v-579q0 -118 -46.5 -157.5t-171.5 -39.5h-79v158h36q23 0 33 8.5t10 32.5zM63 776h218v-166h-218v166z" />
    <glyph glyph-name="k.denominator" horiz-adv-x="718" 
d="M63 776h218v-377l159 174h267l-211 -217l217 -356h-246l-123 203l-63 -66v-137h-218v776z" />
    <glyph glyph-name="l.denominator" horiz-adv-x="344" 
d="M281 776v-776h-218v776h218z" />
    <glyph glyph-name="m.denominator" horiz-adv-x="1060" 
d="M63 0v573h218v-65q53 78 174 78q124 0 163 -99q67 99 201 99q99 0 144 -54q47 -53 47 -184v-348h-217v301q0 69 -21 92q-13 19 -45 19q-41 0 -61.5 -27t-20.5 -90v-295h-217v301q0 69 -18 92q-16 19 -48 19q-41 0 -61 -27t-20 -90v-295h-218z" />
    <glyph glyph-name="n.denominator" horiz-adv-x="706" 
d="M281 573v-65q54 78 180 78q99 0 147 -54q45 -51 45 -186v-346h-215v305q0 62 -16 84q-17 23 -55 23q-86 0 -86 -117v-295h-218v573h218z" />
    <glyph glyph-name="o.denominator" horiz-adv-x="692" 
d="M252 285q0 -69 25.5 -103.5t68.5 -34.5t68.5 34.5t25.5 103.5q0 71 -25.5 105t-68.5 34t-68.5 -34t-25.5 -105zM29 285q0 148 89.5 224.5t227.5 76.5t227 -76.5t89 -224.5q0 -146 -89.5 -222.5t-226.5 -76.5q-138 0 -227.5 76.5t-89.5 222.5z" />
    <glyph glyph-name="p.denominator" horiz-adv-x="708" 
d="M281 57v-260h-218v776h218v-59q47 72 157 72q104 0 173 -81t69 -220q0 -138 -70.5 -218.5t-177.5 -80.5q-104 0 -151 71zM371 424q-44 0 -70.5 -40t-26.5 -99q0 -58 26.5 -98t70.5 -40q43 0 64.5 41t21.5 99q0 57 -21.5 97t-64.5 40z" />
    <glyph glyph-name="q.denominator" horiz-adv-x="708" 
d="M428 514v59h217v-776h-217v260q-46 -71 -156 -71q-106 0 -174.5 81t-68.5 220q0 138 70.5 218.5t176.5 80.5t152 -72zM338 147q44 0 71 40.5t27 99.5q0 58 -27 97.5t-71 39.5q-43 0 -64.5 -40.5t-21.5 -98.5q0 -57 21.5 -97.5t64.5 -40.5z" />
    <glyph glyph-name="r.denominator" horiz-adv-x="460" 
d="M449 578v-213q-60 6 -68 6q-100 0 -100 -80v-291h-218v573h211v-79q18 43 59 63.5t93 20.5h23z" />
    <glyph glyph-name="s.denominator" horiz-adv-x="624" 
d="M584 524l-78 -151q-85 53 -195 53q-53 0 -53 -20q0 -22 45 -29l76 -15q106 -19 161.5 -57.5t55.5 -116.5q0 -98 -82.5 -150t-204.5 -52q-181 0 -295 84l88 151q83 -76 207 -76q76 0 76 29q0 12 -15 18t-53 13l-61 12q-100 19 -154.5 62t-54.5 122q0 87 79.5 136t199.5 49
q160 0 258 -62z" />
    <glyph glyph-name="t.denominator" horiz-adv-x="462" 
d="M98 573v172h217v-172h115v-149h-115v-225q0 -24 10 -32.5t33 -8.5h72v-158h-115q-67 0 -103 5t-65 23t-39 53t-10 95v248h-94v149h94z" />
    <glyph glyph-name="u.denominator" horiz-adv-x="702" 
d="M422 0v68q-51 -82 -166 -82q-106 0 -154 57q-43 52 -43 186v344h215v-307q0 -60 17 -84q19 -22 53 -22q78 0 78 119v294h217v-573h-217z" />
    <glyph glyph-name="v.denominator" horiz-adv-x="649" 
d="M238 573l92 -356l88 356h225l-197 -573h-239l-201 573h232z" />
    <glyph glyph-name="w.denominator" horiz-adv-x="962" 
d="M307 217l64 356h225l72 -356l63 356h225l-172 -573h-235l-66 328l-61 -328h-238l-178 573h232z" />
    <glyph glyph-name="x.denominator" horiz-adv-x="700" 
d="M688 573l-217 -280l223 -293h-241l-105 135l-104 -135h-238l225 289l-217 284h244l96 -127l99 127h235z" />
    <glyph glyph-name="y.denominator" horiz-adv-x="647" 
d="M147 -203h-77v158h65q37 0 53 6.5t23 28.5l2 6l-207 577h232l90 -362l90 362h223l-219 -583q-41 -112 -98.5 -152.5t-176.5 -40.5z" />
    <glyph glyph-name="z.denominator" horiz-adv-x="647" 
d="M31 0v166l278 242h-256v165h543v-165l-274 -242h286v-166h-577z" />
    <glyph glyph-name="a.numerator" horiz-adv-x="661" 
d="M250 973h-203q22 196 305 196q132 0 195.5 -54t62.5 -175v-121q-3 -89 11 -235h-195l-2 67q-49 -82 -176 -82q-100 0 -159.5 57t-59.5 136q0 78 53 121q68 54 256 71l63 7v12q0 53 -73 53t-78 -53zM408 799v35l-70 -7q-50 -6 -70 -19t-20 -36q0 -22 15.5 -37.5
t47.5 -15.5q44 0 70.5 21t26.5 59z" />
    <glyph glyph-name="b.numerator" horiz-adv-x="708" 
d="M63 584v776h218v-262q47 71 157 71q104 0 173 -81t69 -220q0 -138 -70.5 -218.5t-177.5 -80.5q-104 0 -151 72v-57h-218zM371 1008q-44 0 -70.5 -40.5t-26.5 -99.5q0 -58 26.5 -97.5t70.5 -39.5q43 0 64.5 40.5t21.5 98.5q0 57 -21.5 97.5t-64.5 40.5z" />
    <glyph glyph-name="c.numerator" horiz-adv-x="665" 
d="M338 1169q123 0 200.5 -59t102.5 -154l-201 -30q-16 84 -90 84q-100 0 -100 -140q0 -141 100 -141q74 0 94 84l199 -31q-24 -94 -103 -153.5t-198 -59.5q-150 0 -231.5 81.5t-81.5 217.5q0 135 85.5 218t223.5 83z" />
    <glyph glyph-name="d.numerator" horiz-adv-x="720" 
d="M657 1360v-776h-217v57q-50 -72 -157 -72q-104 0 -173 81t-69 220q0 138 70.5 218.5t175.5 80.5q108 0 153 -71v262h217zM350 731q44 0 70 40t26 99q0 58 -26 98t-70 40q-43 0 -64.5 -41t-21.5 -99q0 -57 21.5 -97t64.5 -40z" />
    <glyph glyph-name="e.numerator" horiz-adv-x="684" 
d="M346 569q-150 0 -233.5 84t-83.5 221q0 133 88.5 214t228.5 81q157 0 239 -95t68 -257h-407q10 -88 104 -88q68 0 94 62l201 -31q-12 -36 -33 -67t-55.5 -60.5t-88.5 -46.5t-122 -17zM346 1026q-88 0 -98 -82h192q-3 43 -29.5 62.5t-64.5 19.5z" />
    <glyph glyph-name="f.numerator" horiz-adv-x="438" 
d="M88 1157v21q0 112 44.5 147t170.5 35h117v-158h-74q-24 0 -32.5 -7t-8.5 -30v-8h115v-149h-117v-424h-215v424h-72v149h72z" />
    <glyph glyph-name="g.numerator" horiz-adv-x="708" 
d="M428 596v68q-45 -70 -156 -70q-107 0 -175 75.5t-68 213.5q0 137 69.5 211.5t177.5 74.5q107 0 152 -71v59h217v-565q0 -120 -82 -176q-80 -54 -219 -54q-140 0 -209.5 48.5t-83.5 144.5l203 10q11 -59 88 -59q37 0 61 18q25 25 25 72zM338 754q45 0 71.5 35t26.5 94
q0 56 -26.5 90.5t-71.5 34.5q-43 0 -64.5 -35.5t-21.5 -91.5q0 -55 21.5 -91t64.5 -36z" />
    <glyph glyph-name="h.numerator" horiz-adv-x="706" 
d="M281 1360v-268q54 77 180 77q100 0 147 -53q45 -51 45 -186v-346h-215v305q0 62 -16 84q-17 22 -55 22q-86 0 -86 -116v-295h-218v776h218z" />
    <glyph glyph-name="i.numerator" horiz-adv-x="344" 
d="M63 1157h218v-573h-218v573zM63 1360h218v-166h-218v166z" />
    <glyph glyph-name="j.numerator" horiz-adv-x="344" 
d="M63 580v577h218v-579q0 -118 -46.5 -157.5t-171.5 -39.5h-79v158h36q23 0 33 8.5t10 32.5zM63 1360h218v-166h-218v166z" />
    <glyph glyph-name="k.numerator" horiz-adv-x="718" 
d="M63 1360h218v-377l159 174h267l-211 -217l217 -356h-246l-123 202l-63 -65v-137h-218v776z" />
    <glyph glyph-name="l.numerator" horiz-adv-x="344" 
d="M281 1360v-776h-218v776h218z" />
    <glyph glyph-name="m.numerator" horiz-adv-x="1060" 
d="M63 584v573h218v-65q52 77 174 77q65 0 104 -23.5t59 -74.5q66 98 201 98q100 0 144 -53q47 -53 47 -184v-348h-217v301q0 69 -21 92q-12 18 -45 18q-41 0 -61.5 -27t-20.5 -89v-295h-217v301q0 69 -18 92q-15 18 -48 18q-41 0 -61 -26.5t-20 -89.5v-295h-218z" />
    <glyph glyph-name="n.numerator" horiz-adv-x="706" 
d="M281 1157v-65q54 77 180 77q100 0 147 -53q45 -51 45 -186v-346h-215v305q0 62 -16 84q-17 22 -55 22q-86 0 -86 -116v-295h-218v573h218z" />
    <glyph glyph-name="o.numerator" horiz-adv-x="692" 
d="M252 868q0 -69 25.5 -103t68.5 -34t68.5 34t25.5 103q0 71 -25.5 105.5t-68.5 34.5t-68.5 -34.5t-25.5 -105.5zM29 868q0 148 89.5 224.5t227.5 76.5t227 -76.5t89 -224.5q0 -146 -89.5 -222.5t-226.5 -76.5q-138 0 -227.5 76.5t-89.5 222.5z" />
    <glyph glyph-name="p.numerator" horiz-adv-x="708" 
d="M281 641v-260h-218v776h218v-59q47 71 157 71q104 0 173 -81t69 -220q0 -138 -70.5 -218.5t-177.5 -80.5q-104 0 -151 72zM371 1008q-44 0 -70.5 -40.5t-26.5 -99.5q0 -58 26.5 -97.5t70.5 -39.5q43 0 64.5 40.5t21.5 98.5q0 57 -21.5 97.5t-64.5 40.5z" />
    <glyph glyph-name="q.numerator" horiz-adv-x="708" 
d="M428 1098v59h217v-776h-217v260q-46 -72 -156 -72q-106 0 -174.5 81t-68.5 220q0 138 70.5 218.5t176.5 80.5q107 0 152 -71zM338 731q44 0 71 40t27 99q0 58 -27 98t-71 40q-43 0 -64.5 -41t-21.5 -99q0 -57 21.5 -97t64.5 -40z" />
    <glyph glyph-name="r.numerator" horiz-adv-x="460" 
d="M449 1161v-213q-60 6 -68 6q-100 0 -100 -80v-290h-218v573h211v-80q18 43 59 63.5t93 20.5h23z" />
    <glyph glyph-name="s.numerator" horiz-adv-x="624" 
d="M584 1108l-78 -152q-87 54 -195 54q-53 0 -53 -21t45 -28l76 -15q106 -19 161.5 -57.5t55.5 -116.5q0 -98 -82.5 -150.5t-204.5 -52.5q-181 0 -295 84l88 152q83 -76 207 -76q76 0 76 29q0 12 -14 17.5t-54 12.5l-61 13q-100 19 -154.5 62t-54.5 122q0 87 79.5 135.5
t199.5 48.5q162 0 258 -61z" />
    <glyph glyph-name="t.numerator" horiz-adv-x="462" 
d="M98 1157v172h217v-172h115v-149h-115v-226q0 -24 10 -32.5t33 -8.5h72v-157h-115q-67 0 -103 5t-65 23t-39 53t-10 95v248h-94v149h94z" />
    <glyph glyph-name="u.numerator" horiz-adv-x="702" 
d="M422 584v67q-51 -82 -166 -82q-105 0 -154 58q-43 52 -43 186v344h215v-307q0 -60 17 -84q20 -23 53 -23q78 0 78 119v295h217v-573h-217z" />
    </font>
</defs>
</svg>
