<?xml version="1.0" standalone="no"?>
<!DOCTYPE svg PUBLIC "-//W3C//DTD SVG 1.1//EN" "http://www.w3.org/Graphics/SVG/1.1/DTD/svg11.dtd" >
<svg xmlns="http://www.w3.org/2000/svg" xmlns:xlink="http://www.w3.org/1999/xlink" version="1.1">
<metadata>
Created by FontForge 20170731 at Wed Feb  2 03:49:21 2022
 By Aleksey,,,
Copyright (c) 2011 by Ian Party, distributed by B&#38;P Foundry Srl, Switzerland, d/b/a b+p swiss typefaces: http://www.swisstypefaces.com. All rights reserved.
</metadata>
<defs>
<font id="SuisseBPIntl-UltraLight" horiz-adv-x="366" >
  <font-face 
    font-family="Suisse BP Int'l UltraLight"
    font-weight="100"
    font-stretch="normal"
    units-per-em="2048"
    panose-1="0 0 0 0 0 0 0 0 0 0"
    ascent="1536"
    descent="-512"
    x-height="1004"
    cap-height="1360"
    bbox="-430 -457 2359 1911"
    underline-thickness="102"
    underline-position="-307"
    unicode-range="U+0020-FB06"
  />
<missing-glyph horiz-adv-x="450" 
 />
    <glyph glyph-name="f_f" unicode="ff" horiz-adv-x="1036" 
d="M219 1004v137q0 127 42 173t171 46h47v-35h-20q-47 0 -77.5 -3t-54.5 -12t-36.5 -21.5t-20.5 -36.5t-10 -51t-2 -71v-126h221v-35h-221v-969h-39v969h-153v35h153zM737 1004v137q0 127 42 173t171 46h47v-35h-20q-47 0 -77.5 -3t-54.5 -12t-36.5 -21.5t-20.5 -36.5
t-10 -51t-2 -71v-126h221v-35h-221v-969h-39v969h-153v35h153z" />
    <glyph glyph-name="fi" unicode="fi" horiz-adv-x="884" 
d="M219 1004v137q0 127 42 173t171 46h47v-35h-20q-47 0 -77.5 -3t-54.5 -12t-36.5 -21.5t-20.5 -36.5t-10 -51t-2 -71v-126h221v-35h-221v-969h-39v969h-153v35h153zM682 1004h39v-1004h-39v1004zM682 1360h39v-176h-39v176z" />
    <glyph glyph-name="fl" unicode="fl" horiz-adv-x="884" 
d="M219 1004v137q0 127 42 173t171 46h47v-35h-20q-47 0 -77.5 -3t-54.5 -12t-36.5 -21.5t-20.5 -36.5t-10 -51t-2 -71v-126h221v-35h-221v-969h-39v969h-153v35h153zM721 1360v-1360h-39v1360h39z" />
    <glyph glyph-name="f_f_i" unicode="ffi" horiz-adv-x="1402" 
d="M219 1004v137q0 127 42 173t171 46h47v-35h-20q-47 0 -77.5 -3t-54.5 -12t-36.5 -21.5t-20.5 -36.5t-10 -51t-2 -71v-126h221v-35h-221v-969h-39v969h-153v35h153zM737 1004v137q0 127 42 173t171 46h47v-35h-20q-47 0 -77.5 -3t-54.5 -12t-36.5 -21.5t-20.5 -36.5
t-10 -51t-2 -71v-126h221v-35h-221v-969h-39v969h-153v35h153zM1200 1004h39v-1004h-39v1004zM1200 1360h39v-176h-39v176z" />
    <glyph glyph-name="f_f_l" unicode="ffl" horiz-adv-x="1402" 
d="M219 1004v137q0 127 42 173t171 46h47v-35h-20q-47 0 -77.5 -3t-54.5 -12t-36.5 -21.5t-20.5 -36.5t-10 -51t-2 -71v-126h221v-35h-221v-969h-39v969h-153v35h153zM737 1004v137q0 127 42 173t171 46h47v-35h-20q-47 0 -77.5 -3t-54.5 -12t-36.5 -21.5t-20.5 -36.5
t-10 -51t-2 -71v-126h221v-35h-221v-969h-39v969h-153v35h153zM1239 1360v-1360h-39v1360h39z" />
    <glyph glyph-name="s_t" unicode="st" horiz-adv-x="1513" 
d="M840 748l-41 -7q-53 242 -346 242q-74 0 -144 -21t-122 -70t-52 -116q0 -90 58.5 -139t173.5 -72l155 -30q62 -13 109 -27t92.5 -36.5t74.5 -50.5t46.5 -69t17.5 -92q0 -92 -52.5 -157.5t-137.5 -96.5t-193 -31q-181 0 -284 85.5t-132 234.5l41 6q60 -289 379 -289
q87 0 160.5 24t124.5 80.5t51 137.5q0 55 -21 96.5t-63.5 69t-93 45t-121.5 31.5l-155 30q-135 27 -204 87t-69 161q0 112 109 179t252 67q160 0 260.5 -69t126.5 -203zM1182 1004v272h39v-272h221v-35h-221v-717q0 -40 0.5 -61.5t3 -48t7 -38.5t14 -27.5t22 -21t32 -11.5
t44 -7.5t59.5 -1.5h39v-35h-53q-129 0 -168 42t-39 179v748h-187v35h187z" />
    <glyph glyph-name="f_b" unicode="fb" horiz-adv-x="1646" 
d="M219 1004v137q0 127 42 173t171 46h47v-35h-20q-47 0 -77.5 -3t-54.5 -12t-36.5 -21.5t-20.5 -36.5t-10 -51t-2 -71v-126h221v-35h-221v-969h-39v969h-153v35h153zM682 1360v-1360h39v252q49 -125 145.5 -201t247.5 -76q188 0 309 141t121 380q0 243 -118.5 383.5
t-307.5 140.5q-140 0 -246 -77.5t-151 -209.5v627h-39zM1116 983q167 0 276 -129.5t109 -357.5q0 -225 -111 -354.5t-276 -129.5q-76 0 -144.5 27.5t-126.5 83t-92 152t-34 221.5q0 101 23 184t61.5 138t90.5 93t108 55t116 17z" />
    <glyph glyph-name="f_h" unicode="fh" horiz-adv-x="1585" 
d="M219 1004v137q0 127 42 173t171 46h47v-35h-20q-47 0 -77.5 -3t-54.5 -12t-36.5 -21.5t-20.5 -36.5t-10 -51t-2 -71v-126h221v-35h-221v-969h-39v969h-153v35h153zM721 1360v-641q15 55 42.5 104.5t71.5 96t112.5 73.5t152.5 27q151 0 237 -74q105 -91 105 -319v-627h-39
v610q0 223 -94 308q-74 65 -213 65q-180 0 -277.5 -138.5t-97.5 -361.5v-483h-39v1360h39z" />
    <glyph glyph-name="f_k" unicode="fk" horiz-adv-x="1419" 
d="M219 1004v137q0 127 42 173t171 46h47v-35h-20q-47 0 -77.5 -3t-54.5 -12t-36.5 -21.5t-20.5 -36.5t-10 -51t-2 -71v-126h221v-35h-221v-969h-39v969h-153v35h153zM721 1360h-39v-1360h39v365l209 219l442 -584h47l-463 610l375 394h-47l-563 -590v946z" />
    <glyph glyph-name="f_j" unicode="fj" horiz-adv-x="884" 
d="M219 1004v137q0 127 42 173t171 46h47v-35h-20q-47 0 -77.5 -3t-54.5 -12t-36.5 -21.5t-20.5 -36.5t-10 -51t-2 -71v-126h221v-35h-221v-969h-39v969h-153v35h153zM682 -125v1129h39v-1139q0 -127 -42 -173t-171 -46h-27v35h11q65 0 101 7.5t57 31t26.5 57.5t5.5 98z
M682 1360h39v-176h-39v176z" />
    <glyph glyph-name="f_t" unicode="ft" horiz-adv-x="1087" 
d="M219 1004v137q0 127 42 173t171 46h47v-35h-20q-47 0 -77.5 -3t-54.5 -12t-36.5 -21.5t-20.5 -36.5t-10 -51t-2 -71v-126h221v-35h-221v-969h-39v969h-153v35h153zM756 1004v272h39v-272h221v-35h-221v-717q0 -40 0.5 -61.5t3 -48t7 -38.5t14 -27.5t22 -21t32 -11.5
t44 -7.5t59.5 -1.5h39v-35h-53q-129 0 -168 42t-39 179v748h-187v35h187z" />
    <glyph glyph-name="f_f_j" unicode="ffj" horiz-adv-x="1402" 
d="M219 1004v137q0 127 42 173t171 46h47v-35h-20q-47 0 -77.5 -3t-54.5 -12t-36.5 -21.5t-20.5 -36.5t-10 -51t-2 -71v-126h221v-35h-221v-969h-39v969h-153v35h153zM737 1004v137q0 127 42 173t171 46h47v-35h-20q-47 0 -77.5 -3t-54.5 -12t-36.5 -21.5t-20.5 -36.5
t-10 -51t-2 -71v-126h221v-35h-221v-969h-39v969h-153v35h153zM1200 -125v1129h39v-1139q0 -127 -42 -173t-171 -46h-27v35h11q65 0 101 7.5t57 31t26.5 57.5t5.5 98zM1200 1360h39v-176h-39v176z" />
    <glyph glyph-name="f_f_k" unicode="ffk" horiz-adv-x="1937" 
d="M219 1004v137q0 127 42 173t171 46h47v-35h-20q-47 0 -77.5 -3t-54.5 -12t-36.5 -21.5t-20.5 -36.5t-10 -51t-2 -71v-126h221v-35h-221v-969h-39v969h-153v35h153zM737 1004v137q0 127 42 173t171 46h47v-35h-20q-47 0 -77.5 -3t-54.5 -12t-36.5 -21.5t-20.5 -36.5
t-10 -51t-2 -71v-126h221v-35h-221v-969h-39v969h-153v35h153zM1239 1360h-39v-1360h39v365l209 219l442 -584h47l-462 610l374 394h-47l-563 -590v946z" />
    <glyph glyph-name="f_f_t" unicode="fft" horiz-adv-x="1605" 
d="M219 1004v137q0 127 42 173t171 46h47v-35h-20q-47 0 -77.5 -3t-54.5 -12t-36.5 -21.5t-20.5 -36.5t-10 -51t-2 -71v-126h221v-35h-221v-969h-39v969h-153v35h153zM737 1004v137q0 127 42 173t171 46h47v-35h-20q-47 0 -77.5 -3t-54.5 -12t-36.5 -21.5t-20.5 -36.5
t-10 -51t-2 -71v-126h221v-35h-221v-969h-39v969h-153v35h153zM1274 1004v272h39v-272h221v-35h-221v-717q0 -40 0.5 -61.5t3 -48t7 -38.5t14 -27.5t22 -21t32 -11.5t44 -7.5t59.5 -1.5h39v-35h-53q-129 0 -168 42t-39 179v748h-187v35h187z" />
    <glyph glyph-name="f_f_b" unicode="ffb" horiz-adv-x="2164" 
d="M219 1004v137q0 127 42 173t171 46h47v-35h-20q-47 0 -77.5 -3t-54.5 -12t-36.5 -21.5t-20.5 -36.5t-10 -51t-2 -71v-126h221v-35h-221v-969h-39v969h-153v35h153zM737 1004v137q0 127 42 173t171 46h47v-35h-20q-47 0 -77.5 -3t-54.5 -12t-36.5 -21.5t-20.5 -36.5
t-10 -51t-2 -71v-126h221v-35h-221v-969h-39v969h-153v35h153zM1200 1360v-1360h39v252q49 -125 145.5 -201t247.5 -76q188 0 309 141t121 380q0 243 -118.5 383.5t-307.5 140.5q-140 0 -246 -77.5t-151 -209.5v627h-39zM1634 983q167 0 276 -129.5t109 -357.5
q0 -225 -111 -354.5t-276 -129.5q-76 0 -144.5 27.5t-126.5 83t-92 152t-34 221.5q0 101 23 184t61.5 138t90.5 93t108 55t116 17z" />
    <glyph glyph-name="f_f_h" unicode="ffh" horiz-adv-x="2103" 
d="M219 1004v137q0 127 42 173t171 46h47v-35h-20q-47 0 -77.5 -3t-54.5 -12t-36.5 -21.5t-20.5 -36.5t-10 -51t-2 -71v-126h221v-35h-221v-969h-39v969h-153v35h153zM737 1004v137q0 127 42 173t171 46h47v-35h-20q-47 0 -77.5 -3t-54.5 -12t-36.5 -21.5t-20.5 -36.5
t-10 -51t-2 -71v-126h221v-35h-221v-969h-39v969h-153v35h153zM1239 1360v-641q15 55 42.5 104.5t71.5 96t112.5 73.5t152.5 27q151 0 237 -74q105 -91 105 -319v-627h-39v610q0 223 -94 308q-74 65 -213 65q-180 0 -277.5 -138.5t-97.5 -361.5v-483h-39v1360h39z" />
    <glyph glyph-name="s_p" unicode="sp" horiz-adv-x="2072" 
d="M840 748l-41 -7q-53 242 -346 242q-74 0 -144 -21t-122 -70t-52 -116q0 -90 58.5 -139t173.5 -72l155 -30q62 -13 109 -27t92.5 -36.5t74.5 -50.5t46.5 -69t17.5 -92q0 -92 -52.5 -157.5t-137.5 -96.5t-193 -31q-181 0 -284 85.5t-132 234.5l41 6q60 -289 379 -289
q87 0 160.5 24t124.5 80.5t51 137.5q0 55 -21 96.5t-63.5 69t-93 45t-121.5 31.5l-155 30q-135 27 -204 87t-69 161q0 112 109 179t252 67q160 0 260.5 -69t126.5 -203zM1147 -354v602q110 -273 393 -273q188 0 309 141t121 380q0 243 -118.5 383.5t-307.5 140.5
q-140 0 -245.5 -76t-151.5 -207v267h-39v-1358h39zM1542 983q167 0 276 -129.5t109 -357.5q0 -225 -111 -354.5t-276 -129.5q-76 0 -145 27.5t-127 83t-92.5 152t-34.5 221.5t35 222t93.5 153t128 84t144.5 28z" />
    <glyph glyph-name="c_t" unicode="ct" horiz-adv-x="1619" 
d="M557 1020q164 0 277 -89.5t143 -238.5l-41 -6q-28 138 -130.5 217.5t-248.5 79.5q-193 0 -302.5 -133.5t-109.5 -351.5q0 -121 32.5 -216t89.5 -153t129.5 -87.5t156.5 -29.5q150 0 254 79t131 218l41 -6q-31 -152 -145 -240t-283 -88q-212 0 -330.5 144t-118.5 377
q0 236 121.5 380t333.5 144zM1288 1004v272h39v-272h221v-35h-221v-717q0 -40 0.5 -61.5t3 -48t7 -38.5t14 -27.5t22 -21t32 -11.5t44 -7.5t59.5 -1.5h39v-35h-53q-129 0 -168 42t-39 179v748h-186v35h186z" />
    <glyph glyph-name="t_t" unicode="tt" horiz-adv-x="1138" 
d="M238 1004v272h38v-272h222v-35h-222v-717q0 -32 0.5 -50t1.5 -41t3.5 -35.5t7.5 -27.5t11.5 -22t17 -16t23.5 -12.5t31 -7t38.5 -4.5t48.5 -1h39v-35h-54q-128 0 -167 42t-39 179v748h-187v35h187zM807 1004v272h39v-272h221v-35h-221v-717q0 -40 0.5 -61.5t3 -48
t7 -38.5t14 -27.5t22 -21t32 -11.5t44 -7.5t59.5 -1.5h39v-35h-53q-129 0 -168 42t-39 179v748h-186v35h186z" />
    <glyph glyph-name="t_f" unicode="tf" horiz-adv-x="1087" 
d="M238 1004v272h38v-272h222v-35h-222v-717q0 -32 0.5 -50t1.5 -41t3.5 -35.5t7.5 -27.5t11.5 -22t17 -16t23.5 -12.5t31 -7t38.5 -4.5t48.5 -1h39v-35h-54q-128 0 -167 42t-39 179v748h-187v35h187zM788 1004v137q0 127 42 173t171 46h48v-35h-21q-47 0 -77.5 -3
t-54.5 -12t-36.5 -21.5t-20.5 -36.5t-10 -51t-2 -71v-126h222v-35h-222v-969h-39v969h-153v35h153z" />
    <glyph glyph-name=".notdef" horiz-adv-x="450" 
 />
    <glyph glyph-name=".null" horiz-adv-x="0" 
 />
    <glyph glyph-name="nonmarkingreturn" horiz-adv-x="682" 
 />
    <glyph glyph-name="space" unicode=" " horiz-adv-x="430" 
 />
    <glyph glyph-name="exclam" unicode="!" horiz-adv-x="368" 
d="M199 338h-29l-6 657v365h41v-365zM205 0h-39v178h39v-178z" />
    <glyph glyph-name="quotedbl" unicode="&#x22;" horiz-adv-x="538" 
d="M102 1360h45l-10 -457h-24zM391 1360h45l-10 -457h-25z" />
    <glyph glyph-name="numbersign" unicode="#" horiz-adv-x="1210" 
d="M76 963h311l57 397h37l-55 -397h432l57 397h37l-55 -397h313l-6 -37h-313l-64 -463h312l-6 -37h-310l-59 -426h-39l59 426h-432l-59 -426h-39l59 426h-313l4 37h313l66 463h-313zM420 926l-64 -463h432l66 463h-434z" />
    <glyph glyph-name="dollar" unicode="$" horiz-adv-x="1187" 
d="M567 1573h39v-189q92 -4 169.5 -30.5t139.5 -76t99.5 -129t44.5 -181.5l-41 -4q-5 81 -31 146t-66 107.5t-93 71.5t-107.5 42t-114.5 16v-619l56 -12q50 -12 87 -22t84.5 -27.5t81 -36t69 -47t57 -61.5t35.5 -78t14 -97q0 -93 -40 -165t-109 -115.5t-153.5 -66
t-181.5 -24.5v-170h-39v170q-94 3 -175.5 30t-149 77.5t-109 134t-47.5 191.5l41 4q4 -88 32.5 -157.5t71.5 -113t101 -73t115.5 -42t119.5 -14.5v684l-96 23q-71 17 -129 42.5t-109 65.5t-79.5 100.5t-28.5 135.5q0 82 38 145t102.5 100t140.5 55.5t161 20.5v189zM655 676
l-49 10v-674q58 1 115.5 10.5t117.5 34t105 60.5t74 94.5t29 132.5q0 75 -28.5 131t-85.5 94t-121.5 62t-156.5 45zM168 1069q0 -128 82 -202.5t237 -110.5l80 -19v611q-80 -2 -149.5 -19t-126.5 -49.5t-90 -86.5t-33 -124z" />
    <glyph glyph-name="percent" unicode="%" horiz-adv-x="1474" 
d="M340 569q-151 0 -227 107.5t-76 294.5t76 295t227 108t227 -108t76 -295t-76 -294.5t-227 -107.5zM340 604q122 0 191 93.5t69 273.5t-69.5 274t-190.5 94t-190.5 -94t-69.5 -274t69 -273.5t191 -93.5zM238 0h47l952 1360h-47zM1135 -14q-151 0 -227.5 107.5t-76.5 293.5
q0 187 76.5 295.5t227.5 108.5q150 0 226.5 -108.5t76.5 -295.5q0 -186 -76 -293.5t-227 -107.5zM1135 20q122 0 191 93.5t69 273.5q0 181 -69.5 275t-190.5 94t-191 -94.5t-70 -274.5t69.5 -273.5t191.5 -93.5z" />
    <glyph glyph-name="ampersand" unicode="&#x26;" horiz-adv-x="1337" 
d="M516 -25q-190 0 -311 111t-121 287q0 310 414 424q-93 95 -142 172t-49 161q0 119 89 186.5t233 67.5q143 0 231 -67t88 -191q0 -68 -28 -123.5t-81 -97t-118.5 -71.5t-151.5 -54l473 -477q116 174 152 399h41q-42 -251 -164 -428l275 -274h-52l-243 244
q-203 -269 -535 -269zM520 12q310 0 502 260l-477 478l-21 18q-397 -102 -397 -393q0 -162 111 -262.5t282 -100.5zM350 1130q0 -80 52.5 -156.5t140.5 -164.5q176 48 269 122t93 195q0 103 -75.5 162.5t-200.5 59.5q-122 0 -200.5 -56t-78.5 -162z" />
    <glyph glyph-name="quotesingle" unicode="'" horiz-adv-x="249" 
d="M102 1360h45l-10 -457h-24z" />
    <glyph glyph-name="parenleft" unicode="(" horiz-adv-x="346" 
d="M82 504q0 244 64.5 469.5t160.5 386.5h39q-223 -393 -223 -856q0 -465 223 -858h-39q-96 161 -160.5 387.5t-64.5 470.5z" />
    <glyph glyph-name="parenright" unicode=")" horiz-adv-x="346" 
d="M264 504q0 -244 -64.5 -470.5t-160.5 -387.5h-39q223 393 223 858q0 463 -223 856h39q96 -161 160.5 -386.5t64.5 -469.5z" />
    <glyph glyph-name="asterisk" unicode="*" horiz-adv-x="655" 
d="M346 1360v-254l258 84l10 -35l-256 -84l158 -215l-31 -22l-157 215l-156 -218l-31 21l156 215l-256 90l10 37l258 -90v256h37z" />
    <glyph glyph-name="plus" unicode="+" horiz-adv-x="1103" 
d="M571 0h-39v496h-491v36h491v480h39v-480h492v-36h-492v-496z" />
    <glyph glyph-name="comma" unicode="," 
d="M164 178h39v-180q0 -49 -0.5 -72.5t-5 -60t-13.5 -55.5t-26 -38.5t-43 -29.5v41q23 13 34.5 47.5t13 67t1.5 100.5v180z" />
    <glyph glyph-name="hyphen" unicode="-" horiz-adv-x="819" 
d="M676 496h-533v36h533v-36z" />
    <glyph glyph-name="period" unicode="." 
d="M203 0h-39v178h39v-178z" />
    <glyph glyph-name="slash" unicode="/" horiz-adv-x="593" 
d="M41 0h-41l553 1360h41z" />
    <glyph glyph-name="zero" unicode="0" horiz-adv-x="1269" 
d="M635 -25q-108 0 -195.5 34t-150 96t-105 150t-62.5 194.5t-20 230.5q0 156 32.5 283.5t96.5 222t167 146.5t237 52t236.5 -52t166.5 -146.5t96.5 -222t32.5 -283.5t-32.5 -283.5t-96.5 -222.5t-166.5 -147t-236.5 -52zM635 12q227 0 358 172t131 496t-131 496t-358 172
q-228 0 -359 -172t-131 -496t131 -496t359 -172z" />
    <glyph glyph-name="one" unicode="1" horiz-adv-x="563" 
d="M379 0h-39v1257q-33 -65 -124.5 -115t-190.5 -61l-5 35q66 5 134 34.5t123 85.5t67 124h35v-1360z" />
    <glyph glyph-name="two" unicode="2" horiz-adv-x="1081" 
d="M551 1384q185 0 296 -95t111 -269q0 -78 -25 -155t-78 -156t-121 -155t-168 -163.5t-204.5 -169.5t-244.5 -184h893v-37h-953v37q181 133 309 235.5t237.5 205.5t174.5 190.5t101 176t36 175.5q0 160 -103.5 244t-260.5 84q-63 0 -118.5 -12t-109 -41t-92.5 -74.5
t-65 -116.5t-31 -162h-41q12 222 135.5 332t321.5 110z" />
    <glyph glyph-name="three" unicode="3" horiz-adv-x="1069" 
d="M518 12q184 0 305 92.5t121 249.5q0 334 -446 334h-27v37h18q214 0 320 88t106 236q0 136 -110 217.5t-270 81.5q-177 0 -291 -88.5t-144 -243.5l-41 4q35 173 159.5 268.5t316.5 95.5q114 0 208.5 -37.5t154.5 -114.5t60 -181q0 -79 -27.5 -142.5t-74.5 -103.5t-101 -64
t-114 -32q156 -13 251 -102t95 -249q0 -120 -64.5 -208.5t-169.5 -131.5t-235 -43q-200 0 -325.5 100t-159.5 277l41 6q35 -174 149 -260t295 -86z" />
    <glyph glyph-name="four" unicode="4" horiz-adv-x="1136" 
d="M797 1305l-740 -875h740v875zM1126 430v-35h-290v-395h-39v395h-787v35l787 930h39v-930h290z" />
    <glyph glyph-name="five" unicode="5" horiz-adv-x="1128" 
d="M565 12q188 0 313.5 114t125.5 306q0 190 -116 312t-310 122q-141 0 -247.5 -59t-162.5 -166l-31 6l103 713h749v-37h-719l-88 -602q58 78 157.5 130t244.5 52q204 0 333.5 -129.5t129.5 -341.5q0 -140 -65.5 -245.5t-174 -158.5t-242.5 -53q-196 0 -322 98.5t-161 278.5
l41 6q34 -173 149 -259.5t293 -86.5z" />
    <glyph glyph-name="six" unicode="6" horiz-adv-x="1134" 
d="M145 461q0 -110 36.5 -197.5t98 -141.5t138 -82t160.5 -28q189 0 310.5 118t121.5 300q0 199 -118 318.5t-312 119.5q-103 0 -187.5 -36t-137.5 -94.5t-81.5 -130t-28.5 -146.5zM594 1348q-83 0 -153.5 -26t-131.5 -86t-103 -151t-64.5 -228t-18.5 -310q34 161 153 259.5
t310 98.5q209 0 338 -129t129 -344q0 -196 -130.5 -326.5t-344.5 -130.5q-63 0 -119 12t-114 38.5t-104 75.5t-82.5 116.5t-56.5 168t-20 224.5q0 382 137.5 578t380.5 196q175 0 280 -81t136 -211l-43 -5q-32 129 -131.5 195t-247.5 66z" />
    <glyph glyph-name="seven" unicode="7" horiz-adv-x="946" 
d="M10 1323v37h936v-37q-632 -490 -678 -1323h-49q23 300 110.5 547.5t225.5 433.5t336 342h-881z" />
    <glyph glyph-name="eight" unicode="8" horiz-adv-x="1150" 
d="M575 1384q205 0 327 -92.5t122 -242.5q0 -112 -79.5 -202t-211.5 -116q47 -10 90 -25.5t89.5 -44.5t80 -67.5t55 -97t21.5 -129.5q0 -183 -138 -287.5t-356 -104.5t-355.5 104.5t-137.5 287.5q0 71 21.5 129.5t55 97t80 67.5t89.5 44.5t90 25.5q-132 26 -211.5 116
t-79.5 202q0 151 121.5 243t326.5 92zM575 715q-206 0 -328 -91t-122 -257q0 -167 122.5 -261t327.5 -94t328 94t123 261q0 166 -122.5 257t-328.5 91zM981 1049q0 137 -110.5 218t-295.5 81t-295 -80.5t-110 -218.5q0 -57 23.5 -109t70.5 -97t127.5 -71.5t183.5 -26.5
t183.5 26.5t127.5 71.5t71 97t24 109z" />
    <glyph glyph-name="nine" unicode="9" horiz-adv-x="1124" 
d="M979 899q0 110 -36.5 197.5t-98 141.5t-137.5 82t-160 28q-189 0 -310.5 -118t-121.5 -300q0 -199 118 -318.5t312 -119.5q103 0 187.5 36t137 94.5t81 130t28.5 146.5zM530 12q83 0 153.5 26t131.5 86t103 151t64.5 228t18.5 310q-34 -161 -152.5 -259.5t-309.5 -98.5
q-209 0 -338 129t-129 344q0 196 130.5 326t344.5 130q76 0 142.5 -16t133 -60t113.5 -113t76.5 -183t29.5 -262q0 -171 -29.5 -309t-90 -244t-161.5 -164t-237 -58q-175 0 -278.5 80.5t-136.5 212.5l43 4q32 -129 130.5 -194.5t247.5 -65.5z" />
    <glyph glyph-name="colon" unicode=":" 
d="M164 0v178h39v-178h-39zM164 825v179h39v-179h-39z" />
    <glyph glyph-name="semicolon" unicode=";" 
d="M164 825v179h39v-179h-39zM164 178h39v-180q0 -49 -0.5 -72.5t-5 -60t-13.5 -55.5t-26 -38.5t-43 -29.5v41q23 13 34.5 47.5t13 67t1.5 100.5v180z" />
    <glyph glyph-name="less" unicode="&#x3c;" horiz-adv-x="1064" 
d="M41 532l963 469v-43l-916 -444l916 -444v-43l-963 469v36z" />
    <glyph glyph-name="equal" unicode="=" horiz-adv-x="1013" 
d="M952 727h-891v37h891v-37zM952 274h-891v37h891v-37z" />
    <glyph glyph-name="greater" unicode="&#x3e;" horiz-adv-x="1064" 
d="M1024 532v-36l-963 -469v43l916 444l-916 444v43z" />
    <glyph glyph-name="question" unicode="?" horiz-adv-x="899" 
d="M477 1384q111 0 200.5 -34t145.5 -106.5t56 -172.5q0 -37 -8 -71t-18.5 -60t-33.5 -55t-38.5 -46t-49 -44.5t-50 -39.5t-54.5 -40q-40 -29 -59.5 -44t-50 -41.5t-45.5 -48.5t-32 -52.5t-23.5 -65.5t-6.5 -76v-49h-39v49q0 64 15 114.5t48.5 94t71.5 76t100 76.5
q48 35 69.5 51t59.5 50.5t55 62t31.5 68.5t14.5 87q0 131 -101 206t-258 75q-63 0 -118.5 -11t-109 -39.5t-92.5 -73t-65 -115t-31 -161.5h-41q13 223 135.5 329.5t321.5 106.5zM371 0v178h39v-178h-39z" />
    <glyph glyph-name="at" unicode="@" horiz-adv-x="1615" 
d="M1245 317q-70 0 -118 37.5t-66.5 93t-13.5 119.5q-43 -104 -131.5 -169.5t-202.5 -65.5t-184 77.5t-70 225.5q0 188 116 321.5t287 133.5q57 0 102 -20.5t72 -54t41.5 -73t16.5 -82.5l28 191h39l-76 -457q-17 -101 29.5 -169.5t132.5 -68.5q110 0 183 113t73 309
q0 140 -48.5 250t-135 179t-201.5 105t-252 36q-156 0 -290 -54.5t-225.5 -147.5t-143 -219.5t-51.5 -267.5q0 -186 79 -332.5t227 -230.5t341 -84q206 0 393 70l12 -35q-199 -72 -405 -72q-207 0 -365 89t-241.5 244.5t-83.5 353.5q0 203 95 368t267.5 259.5t390.5 94.5
q313 0 496.5 -161t183.5 -443q0 -215 -88 -339t-213 -124zM860 1053q-151 0 -254.5 -122t-103.5 -294q0 -134 61 -201t160 -67q72 0 137 36t110 95t71 135.5t26 155.5q0 128 -53.5 195t-153.5 67z" />
    <glyph glyph-name="A" unicode="A" horiz-adv-x="1114" 
d="M0 0l541 1360h32l541 -1360h-43l-158 397h-712l-158 -397h-43zM557 1298l-342 -864h684z" />
    <glyph glyph-name="B" unicode="B" horiz-adv-x="1212" 
d="M164 0v1360h452q102 0 179 -16t139 -52.5t94.5 -103.5t32.5 -162q0 -121 -60.5 -204t-187.5 -113q307 -37 307 -336q0 -193 -119.5 -283t-328.5 -90h-508zM203 688v-651h459q415 0 415 334q0 169 -103 243t-325 74h-446zM203 1323v-600h444q178 0 274.5 71t96.5 232
q0 86 -29 145.5t-86 92t-127.5 46t-165.5 13.5h-407z" />
    <glyph glyph-name="C" unicode="C" horiz-adv-x="1335" 
d="M1239 410l41 -7q-29 -137 -112 -235t-202.5 -145.5t-265.5 -47.5q-193 0 -334.5 93t-212.5 251.5t-71 360.5q0 150 41 278.5t118 223t195.5 148.5t265.5 54q219 0 374.5 -112t197.5 -316l-41 -6q-43 195 -185.5 296.5t-347.5 101.5q-263 0 -419 -183t-156 -485t157 -485
t416 -183q209 0 353.5 102t187.5 296z" />
    <glyph glyph-name="D" unicode="D" horiz-adv-x="1286" 
d="M1161 680q0 117 -24 212.5t-64.5 161.5t-100.5 115.5t-124 78t-144 46t-151 23.5t-154 6h-196v-1286h196q83 0 154 6t151 23.5t144 46t124 78t100.5 115.5t64.5 161.5t24 212.5zM164 1360h248q115 0 212.5 -13.5t189 -43.5t161 -82.5t122 -126t80 -178.5t27.5 -236
t-27.5 -236t-80 -178.5t-122 -126t-161 -82.5t-189 -43.5t-212.5 -13.5h-248v1360z" />
    <glyph glyph-name="E" unicode="E" horiz-adv-x="1079" 
d="M164 0v1360h848v-37h-809v-598h762v-37h-762v-651h809v-37h-848z" />
    <glyph glyph-name="F" unicode="F" horiz-adv-x="991" 
d="M164 0v1360h827v-37h-788v-598h741v-37h-741v-688h-39z" />
    <glyph glyph-name="G" unicode="G" horiz-adv-x="1409" 
d="M702 1384q219 0 372 -111.5t192 -316.5l-41 -6q-39 193 -179.5 295.5t-345.5 102.5q-263 0 -419 -183t-156 -485q0 -303 154 -485.5t413 -182.5q82 0 157.5 17.5t145.5 57t120.5 97.5t81 146.5t30.5 197.5v70h-404v39h443v-637h-39v313q-45 -147 -181.5 -242.5
t-353.5 -95.5q-145 0 -261.5 53.5t-192 148.5t-116 223.5t-40.5 279.5q0 150 41 278.5t118 223t195.5 148.5t265.5 54z" />
    <glyph glyph-name="H" unicode="H" horiz-adv-x="1316" 
d="M1114 1360h39v-1360h-39v688h-911v-688h-39v1360h39v-635h911v635z" />
    <glyph glyph-name="I" unicode="I" 
d="M203 1360v-1360h-39v1360h39z" />
    <glyph glyph-name="J" unicode="J" horiz-adv-x="423" 
d="M20 0v35h9q66 0 102.5 7t57.5 31.5t26.5 58t5.5 97.5v1131h39v-1141q0 -127 -42 -173t-171 -46h-27z" />
    <glyph glyph-name="K" unicode="K" horiz-adv-x="1105" 
d="M203 1360v-795l823 795h49l-588 -569l629 -791h-51l-606 762l-256 -250v-512h-39v1360h39z" />
    <glyph glyph-name="L" unicode="L" horiz-adv-x="991" 
d="M203 1360v-1323h788v-37h-827v1360h39z" />
    <glyph glyph-name="M" unicode="M" horiz-adv-x="1617" 
d="M825 0h-32l-590 1323v-1323h-39v1360h65l580 -1309l580 1309h65v-1360h-39v1323z" />
    <glyph glyph-name="N" unicode="N" horiz-adv-x="1357" 
d="M1194 0h-39l-952 1294v-1294h-39v1360h39l952 -1294v1294h39v-1360z" />
    <glyph glyph-name="O" unicode="O" horiz-adv-x="1417" 
d="M1292 680q0 158 -44.5 286t-123 211t-184.5 127t-231 44t-231.5 -44t-185 -127t-123 -211t-44.5 -286t44.5 -286t123 -211t185 -127t231.5 -44t231 44t184.5 127t123 211t44.5 286zM1335 680q0 -316 -169 -510.5t-457 -194.5t-457.5 194.5t-169.5 510.5t169.5 510
t457.5 194t457 -194t169 -510z" />
    <glyph glyph-name="P" unicode="P" horiz-adv-x="1075" 
d="M164 1360h364q103 0 183 -10.5t150 -36.5t116 -68.5t72 -109.5t26 -156t-26 -156t-72 -109.5t-116 -68.5t-150 -36.5t-183 -10.5h-325v-598h-39v1360zM528 1323h-325v-688h325q92 0 162.5 8t137.5 30t109.5 59.5t68.5 100t26 146.5t-26 146.5t-68.5 100t-109.5 59.5
t-137.5 30t-162.5 8z" />
    <glyph glyph-name="Q" unicode="Q" horiz-adv-x="1437" 
d="M1335 680q0 -171 -52.5 -311t-149.5 -234l178 -176l-29 -27l-178 179q-161 -136 -395 -136q-288 0 -457.5 194.5t-169.5 510.5t169.5 510t457.5 194t457 -194t169 -510zM1292 680q0 158 -44.5 286t-123 211t-184.5 127t-231 44t-231.5 -44t-185 -127t-123 -211
t-44.5 -286t44.5 -286t123 -211t185 -127t231.5 -44q216 0 368 125l-159 162l28 27l160 -162q186 183 186 516z" />
    <glyph glyph-name="R" unicode="R" horiz-adv-x="1165" 
d="M1051 0l-334 647q-71 -8 -170 -8h-344v-639h-39v1360h385q99 0 173 -8.5t143 -31.5t113.5 -62.5t70.5 -104.5t26 -154q0 -159 -82.5 -240t-236.5 -106l340 -653h-45zM528 1323h-325v-647h325q67 0 118 2.5t106 11t94.5 22.5t76.5 38.5t59.5 58t36 81.5t13.5 109
t-13.5 109t-36 81.5t-59.5 58t-76.5 39t-94.5 23t-106 11t-118 2.5z" />
    <glyph glyph-name="S" unicode="S" horiz-adv-x="1206" 
d="M123 1067q0 83 40 146.5t107.5 99.5t146 53.5t165.5 17.5q201 0 337 -94t175 -276l-41 -6q-26 115 -94 192.5t-163 112.5t-214 35q-81 0 -153.5 -15.5t-132.5 -47.5t-95 -86.5t-35 -125.5q0 -236 332 -313l174 -41q50 -12 87.5 -22.5t87 -28t85 -36.5t73 -48t60.5 -62
t38 -78.5t15 -97.5q0 -94 -43 -167t-116.5 -116.5t-162.5 -65.5t-188 -22q-100 0 -185 23.5t-157 73t-122 134t-72 197.5l41 5q22 -107 69 -185t113.5 -123.5t143 -66.5t167.5 -21q59 0 118.5 9t124 32.5t113.5 59.5t81 95.5t32 135.5q0 60 -22 109.5t-57 83.5t-90 62
t-111 46t-129 35l-185 43q-56 13 -105 31t-96.5 47.5t-81.5 66t-54.5 87.5t-20.5 112z" />
    <glyph glyph-name="T" unicode="T" horiz-adv-x="1030" 
d="M496 0v1323h-496v37h1030v-37h-495v-1323h-39z" />
    <glyph glyph-name="U" unicode="U" horiz-adv-x="1335" 
d="M143 1360h39v-803q0 -278 113.5 -411.5t372.5 -133.5q258 0 371.5 133.5t113.5 411.5v803h39v-801q0 -301 -125 -442.5t-399 -141.5t-399.5 141.5t-125.5 442.5v801z" />
    <glyph glyph-name="V" unicode="V" horiz-adv-x="1124" 
d="M10 1360h43l514 -1299l514 1299h43l-540 -1360h-33z" />
    <glyph glyph-name="W" unicode="W" horiz-adv-x="1693" 
d="M868 1360l392 -1290l391 1290h43l-418 -1360h-33l-397 1300l-395 -1300h-33l-418 1360h43l391 -1290l391 1290h43z" />
    <glyph glyph-name="X" unicode="X" horiz-adv-x="1159" 
d="M0 0l555 707l-512 653h49l488 -623l489 623h47l-512 -653l555 -707h-49l-530 676l-533 -676h-47z" />
    <glyph glyph-name="Y" unicode="Y" horiz-adv-x="989" 
d="M-20 1360h45l469 -809l471 809h45l-496 -854v-506h-39v506z" />
    <glyph glyph-name="Z" unicode="Z" horiz-adv-x="1159" 
d="M1075 1360v-37l-956 -1286h985v-37h-1032v37l956 1286h-881v37h928z" />
    <glyph glyph-name="bracketleft" unicode="[" horiz-adv-x="393" 
d="M164 1360h229v-37h-190v-1640h190v-37h-229v1714z" />
    <glyph glyph-name="backslash" unicode="\" horiz-adv-x="593" 
d="M41 1360l553 -1360h-41l-553 1360h41z" />
    <glyph glyph-name="bracketright" unicode="]" horiz-adv-x="393" 
d="M0 1360h229v-1714h-229v37h190v1640h-190v37z" />
    <glyph glyph-name="asciicircum" unicode="^" horiz-adv-x="778" 
d="M410 1360l409 -737h-41l-389 696l-389 -696h-41l410 737h41z" />
    <glyph glyph-name="underscore" unicode="_" horiz-adv-x="763" 
d="M743 -37h-723v37h723v-37z" />
    <glyph glyph-name="grave" unicode="`" horiz-adv-x="378" 
d="M289 1118l-248 242h53l244 -242h-49z" />
    <glyph glyph-name="a" unicode="a" horiz-adv-x="1032" 
d="M172 719l-41 2q15 135 120.5 217t272.5 82q175 0 266 -76.5t91 -259.5q0 -223 -2 -313q-3 -180 10 -371h-39l-8 242q-41 -123 -149 -195t-251 -72q-161 0 -255.5 86t-94.5 226q0 116 90 184q58 43 151.5 66.5t254.5 42.5l254 26v76q0 75 -18 130t-46.5 87.5t-72.5 51.5
t-87.5 25.5t-99.5 6.5q-158 0 -245.5 -76t-100.5 -188zM844 442v127l-277 -28q-228 -24 -330 -82t-102 -174q0 -121 83 -197t226 -76q57 0 111.5 13.5t107.5 45.5t92.5 80t64 123t24.5 168z" />
    <glyph glyph-name="b" unicode="b" horiz-adv-x="1128" 
d="M164 0v1360h39v-627q45 132 151 209.5t246 77.5q189 0 307.5 -140.5t118.5 -383.5q0 -239 -121 -380t-309 -141q-151 0 -247.5 76t-145.5 201v-252h-39zM598 983q-60 0 -116 -17t-108 -55t-90.5 -93t-61.5 -138t-23 -184q0 -125 34 -221.5t92 -152t126.5 -83t144.5 -27.5
q165 0 276 129.5t111 354.5q0 228 -109 357.5t-276 129.5z" />
    <glyph glyph-name="c" unicode="c" horiz-adv-x="1050" 
d="M557 1020q164 0 277 -89.5t143 -238.5l-41 -6q-28 138 -130.5 217.5t-248.5 79.5q-193 0 -302.5 -133.5t-109.5 -351.5q0 -121 32.5 -216t89.5 -153t129.5 -87.5t156.5 -29.5q150 0 254 79t131 218l41 -6q-31 -152 -145 -240t-283 -88q-212 0 -330.5 144t-118.5 377
q0 236 121.5 380t333.5 144z" />
    <glyph glyph-name="d" unicode="d" horiz-adv-x="1128" 
d="M965 1360v-1360h-39v262q-45 -132 -148.5 -209.5t-242.5 -77.5q-189 0 -311 141.5t-122 383.5q0 238 124.5 379t312.5 141q279 0 387 -277v617h39zM535 12q75 0 143.5 28t126 84.5t91.5 153.5t34 222t-33 221t-89.5 151.5t-124.5 83t-144 27.5q-166 0 -280 -129.5
t-114 -353.5q0 -227 111 -357.5t279 -130.5z" />
    <glyph glyph-name="e" unicode="e" horiz-adv-x="1120" 
d="M565 -25q-214 0 -338.5 146t-124.5 379q0 234 126.5 377t340.5 143q208 0 329.5 -138.5t121.5 -367.5h-875v-12q0 -121 34.5 -216.5t93.5 -154t133.5 -89t158.5 -30.5q156 0 258.5 73t134.5 216l41 -6q-31 -149 -146.5 -234.5t-287.5 -85.5zM567 983
q-183 0 -295.5 -118.5t-126.5 -315.5h832q-2 185 -113.5 309.5t-296.5 124.5z" />
    <glyph glyph-name="f" unicode="f" horiz-adv-x="518" 
d="M219 1004v137q0 127 42 173t171 46h47v-35h-20q-47 0 -77.5 -3t-54.5 -12t-36.5 -21.5t-20.5 -36.5t-10 -51t-2 -71v-126h221v-35h-221v-969h-39v969h-153v35h153z" />
    <glyph glyph-name="g" unicode="g" horiz-adv-x="1128" 
d="M926 -31v310q-46 -130 -151 -206.5t-245 -76.5q-190 0 -309 136.5t-119 377.5q0 238 122 374t311 136q280 0 391 -272v256h39v-1037q0 -180 -125 -264q-110 -72 -291 -72q-167 0 -273.5 81.5t-121.5 215.5l41 4q13 -111 101.5 -187.5t246.5 -76.5q162 0 256 53
q127 74 127 248zM530 33q60 0 116 16t108.5 52.5t91.5 90t62.5 135.5t23.5 183q0 125 -34.5 219.5t-93 148t-127 79.5t-145.5 26q-166 0 -276.5 -124.5t-110.5 -348.5q0 -227 108.5 -352t276.5 -125z" />
    <glyph glyph-name="h" unicode="h" horiz-adv-x="1067" 
d="M203 1360v-641q15 55 42.5 104.5t71.5 96t112.5 73.5t152.5 27q151 0 237 -74q105 -91 105 -319v-627h-39v610q0 223 -94 308q-74 65 -213 65q-180 0 -277.5 -138.5t-97.5 -361.5v-483h-39v1360h39z" />
    <glyph glyph-name="i" unicode="i" 
d="M164 1004h39v-1004h-39v1004zM164 1360h39v-176h-39v176z" />
    <glyph glyph-name="j" unicode="j" 
d="M164 -125v1129h39v-1139q0 -127 -42 -173t-171 -46h-27v35h10q65 0 101 7.5t57 31t27 57.5t6 98zM164 1360h39v-176h-39v176z" />
    <glyph glyph-name="k" unicode="k" horiz-adv-x="901" 
d="M164 1360h39v-946l563 590h47l-375 -394l463 -610h-47l-442 584l-209 -219v-365h-39v1360z" />
    <glyph glyph-name="l" unicode="l" 
d="M203 1360v-1360h-39v1360h39z" />
    <glyph glyph-name="m" unicode="m" horiz-adv-x="1705" 
d="M164 0v1004h39v-283q12 45 29 83.5t47 79.5t68 70t95 47.5t125 18.5q286 0 312 -301q12 45 29.5 85t48 81t69.5 69.5t96 47t125 18.5q159 0 240 -96q76 -90 76 -291v-633h-39v625q0 192 -70 274q-70 84 -217 84q-115 0 -196 -66t-119.5 -176.5t-38.5 -255.5v-485h-39v614
q0 214 -82 299q-67 70 -205 70q-171 0 -262.5 -138t-91.5 -362v-483h-39z" />
    <glyph glyph-name="n" unicode="n" horiz-adv-x="1067" 
d="M203 1004v-285q15 55 42.5 104.5t71.5 96t112.5 73.5t152.5 27q151 0 237 -74q105 -91 105 -319v-627h-39v610q0 223 -94 308q-74 65 -213 65q-180 0 -277.5 -138.5t-97.5 -361.5v-483h-39v1004h39z" />
    <glyph glyph-name="o" unicode="o" horiz-adv-x="1114" 
d="M145 498q0 -230 116.5 -358t295.5 -128t295.5 128t116.5 358t-116.5 357.5t-295.5 127.5t-295.5 -127.5t-116.5 -357.5zM102 498q0 125 36 225.5t98 164.5t144 98t177 34t177 -34t144 -98t98 -164.5t36 -225.5t-36 -225.5t-98 -165t-144 -98.5t-177 -34t-177 34
t-144 98.5t-98 165t-36 225.5z" />
    <glyph glyph-name="p" unicode="p" horiz-adv-x="1128" 
d="M203 248v-602h-39v1358h39v-267q46 131 151.5 207t245.5 76q189 0 307.5 -140.5t118.5 -383.5q0 -239 -121 -380t-309 -141q-283 0 -393 273zM598 983q-75 0 -144.5 -28t-128 -84t-93.5 -153t-35 -222t34.5 -221.5t92.5 -152t127 -83t145 -27.5q165 0 276 129.5
t111 354.5q0 228 -109 357.5t-276 129.5z" />
    <glyph glyph-name="q" unicode="q" horiz-adv-x="1128" 
d="M926 748v256h39v-1358h-39v612q-45 -130 -151.5 -206.5t-246.5 -76.5q-188 0 -307 141t-119 384q0 239 121 379.5t309 140.5q151 0 248.5 -74.5t145.5 -197.5zM530 12q60 0 116 17t108.5 55t91.5 93.5t62.5 138.5t23.5 184t-23 183.5t-61.5 137.5t-90.5 92t-108.5 53.5
t-116.5 16.5q-165 0 -276 -129t-111 -354q0 -228 109 -358t276 -130z" />
    <glyph glyph-name="r" unicode="r" horiz-adv-x="573" 
d="M543 1010v-41h-4q-91 0 -158 -37t-105 -104t-55.5 -150t-17.5 -186v-492h-39v1004h35v-287q31 130 113.5 211.5t224.5 81.5h6z" />
    <glyph glyph-name="s" unicode="s" horiz-adv-x="950" 
d="M840 748l-41 -7q-53 242 -346 242q-74 0 -144 -21t-122 -70t-52 -116q0 -90 58.5 -139t173.5 -72l155 -30q62 -13 109 -27t92.5 -36.5t74.5 -50.5t46.5 -69t17.5 -92q0 -92 -52.5 -157.5t-137.5 -96.5t-193 -31q-181 0 -284 85.5t-132 234.5l41 6q60 -289 379 -289
q87 0 160.5 24t124.5 80.5t51 137.5q0 55 -21 96.5t-63.5 69t-93 45t-121.5 31.5l-155 30q-135 27 -204 87t-69 161q0 112 109 179t252 67q160 0 260.5 -69t126.5 -203z" />
    <glyph glyph-name="t" unicode="t" horiz-adv-x="569" 
d="M238 1004v272h38v-272h222v-35h-222v-717q0 -32 0.5 -50t1.5 -41t3.5 -35.5t7.5 -27.5t11.5 -22t17 -16t23.5 -12.5t31 -7t38.5 -4.5t48.5 -1h39v-35h-54q-128 0 -167 42t-39 179v748h-187v35h187z" />
    <glyph glyph-name="u" unicode="u" horiz-adv-x="1036" 
d="M834 0v274q-15 -56 -41 -104.5t-69 -94.5t-111 -73t-154 -27q-167 0 -254 103q-72 86 -72 280v646h39v-629q0 -187 64 -269q70 -94 233 -94q119 0 203 65t123 169.5t39 236.5v521h38v-1004h-38z" />
    <glyph glyph-name="v" unicode="v" horiz-adv-x="868" 
d="M45 1004l389 -957l389 957h45l-413 -1004h-41l-414 1004h45z" />
    <glyph glyph-name="w" unicode="w" horiz-adv-x="1363" 
d="M352 53l307 951h46l307 -951l307 951h45l-332 -1004h-41l-309 948l-309 -948h-41l-332 1004h45z" />
    <glyph glyph-name="x" unicode="x" horiz-adv-x="884" 
d="M850 1004l-385 -488l409 -516h-49l-385 485l-383 -485h-47l408 516l-385 488h49l360 -457l361 457h47z" />
    <glyph glyph-name="y" unicode="y" horiz-adv-x="868" 
d="M143 -354h-49v35h53q86 0 129.5 41t98.5 178l41 102l-416 1002h45l391 -953l387 953h45l-454 -1104q-22 -54 -35.5 -83.5t-32.5 -63.5t-36 -50t-42 -31.5t-55 -20.5t-70 -5z" />
    <glyph glyph-name="z" unicode="z" horiz-adv-x="882" 
d="M61 0v33l699 934h-656v37h707v-33l-698 -934h708v-37h-760z" />
    <glyph glyph-name="braceleft" unicode="{" horiz-adv-x="405" 
d="M379 -354q-129 0 -171 46t-42 173v377q0 50 -5 88t-17.5 74t-38.5 57t-64 24v37q38 3 64 24t38.5 57.5t17.5 74.5t5 88v375q0 127 42 173t171 46h27v-35h-17q-43 0 -71.5 -3t-50 -12.5t-33 -22t-18.5 -37t-9 -51t-2 -69.5v-364q0 -126 -26.5 -182t-84.5 -78v-4
q58 -22 84.5 -78t26.5 -182v-367q0 -65 5 -98t25 -57.5t55 -31.5t99 -7h17v-35h-27z" />
    <glyph glyph-name="bar" unicode="|" 
d="M164 1360h39v-1530h-39v1530z" />
    <glyph glyph-name="braceright" unicode="}" horiz-adv-x="405" 
d="M0 -354v35h16q64 0 99 7t55.5 31.5t25.5 58t5 97.5v367q0 86 13 139.5t36 80t61 40.5v4q-38 14 -61 40.5t-36 80t-13 139.5v364q0 52 -3.5 81.5t-13.5 54.5t-31.5 36.5t-53.5 17t-83 5.5h-16v35h27q129 0 171 -46t42 -173v-375q0 -50 5 -88t17.5 -74.5t38.5 -57.5t64 -24
v-37q-38 -3 -64 -24t-38.5 -57t-17.5 -74t-5 -88v-377q0 -127 -42 -173t-171 -46h-27z" />
    <glyph glyph-name="asciitilde" unicode="~" horiz-adv-x="980" 
d="M721 467q73 0 120 37t60 112h39q-17 -93 -74 -139.5t-145 -46.5q-54 0 -117.5 23.5t-112.5 51.5t-113.5 51.5t-119.5 23.5q-149 0 -178 -150h-39q17 92 73.5 139t143.5 47q58 0 124 -23.5t115.5 -51t111.5 -51t112 -23.5z" />
    <glyph glyph-name="exclamdown" unicode="&#xa1;" horiz-adv-x="368" 
d="M205 10v-364h-41v364l6 658h29zM164 1006h39v-179h-39v179z" />
    <glyph glyph-name="cent" unicode="&#xa2;" horiz-adv-x="1071" 
d="M977 692l-41 -6q-27 135 -127.5 214.5t-241.5 82.5v-971q143 3 243.5 82t127.5 215l41 -6q-31 -149 -140 -236.5t-272 -91.5v-143h-39v143q-201 9 -313.5 152t-112.5 369q0 228 113 370t313 152v151h39v-149q160 -3 270 -92.5t140 -235.5zM145 498q0 -230 108 -354
t275 -132v971q-181 -10 -282 -142.5t-101 -342.5z" />
    <glyph glyph-name="sterling" unicode="&#xa3;" horiz-adv-x="1140" 
d="M610 1348q-67 0 -132 -14t-127 -44t-100 -87.5t-38 -135.5q0 -26 3.5 -51t13 -52t16.5 -46t24 -49.5t25 -44t29.5 -48t27.5 -45.5h449v-37h-428q73 -132 73 -237q0 -125 -68.5 -239t-164.5 -169l2 -2q98 33 191 33q76 0 212.5 -34t235.5 -34q95 0 188 35l13 -37
q-90 -35 -211 -35q-76 0 -222 33t-221 33q-140 0 -290 -59l-15 28q52 29 99.5 66t97.5 92t80 129t30 156q0 106 -75 241h-219v37h196q-2 4 -26.5 43t-29 48t-23 42.5t-24 50t-16 45.5t-13.5 54t-3 51q0 83 39 146.5t104 100t140.5 54.5t156.5 18q207 0 331.5 -106
t137.5 -330h-41q-5 91 -31 161.5t-66 115t-95 72.5t-112.5 39.5t-123.5 11.5z" />
    <glyph glyph-name="currency" unicode="&#xa4;" horiz-adv-x="1144" 
d="M117 659q0 171 112 299l-127 129l29 29l125 -127q131 125 311 125q186 0 318 -129l129 131l28 -29l-131 -133q111 -127 111 -295t-113 -297l133 -133l-28 -28l-133 133q-131 -125 -314 -125q-180 0 -307 121l-129 -129l-29 28l129 131q-114 127 -114 299zM160 659
q0 -168 117 -288.5t292 -120.5q174 0 292 121t118 288q0 170 -118.5 294t-293.5 124q-115 0 -209 -58t-146 -153.5t-52 -206.5z" />
    <glyph glyph-name="yen" unicode="&#xa5;" horiz-adv-x="1030" 
d="M899 193h-364v-193h-39v193h-365v36h365v191h-365v37h365v49l-496 854h45l469 -809l471 809h45l-495 -854v-49h364v-37h-364v-191h364v-36z" />
    <glyph glyph-name="brokenbar" unicode="&#xa6;" 
d="M164 1360h39v-582h-39v582zM164 412h39v-582h-39v582z" />
    <glyph glyph-name="section" unicode="&#xa7;" horiz-adv-x="991" 
d="M492 -338q133 0 216 61t83 177q0 82 -54 147.5t-209 145.5l-223 114q-69 36 -118.5 70t-88.5 75t-58.5 89.5t-19.5 105.5q0 54 23 102t62 84.5t81.5 63t92.5 47.5q-66 46 -99 98t-33 119q0 106 98 164.5t234 58.5q325 0 377 -278h-41q-29 132 -115 187t-221 55
q-130 0 -209.5 -50.5t-79.5 -136.5q0 -70 48 -125t161 -114l295 -154q134 -70 205.5 -147.5t71.5 -184.5q0 -60 -23 -110.5t-65 -87t-84.5 -61.5t-96.5 -48q132 -101 132 -229q0 -129 -95.5 -202t-246.5 -73q-319 0 -373 279h41q29 -132 113.5 -187t218.5 -55zM379 887
q-59 31 -66 35q-250 -104 -250 -271q0 -71 32 -125.5t85.5 -94.5t149.5 -91l215 -113q80 -42 125 -73q258 102 258 278q0 97 -62 166t-202 141z" />
    <glyph glyph-name="dieresis" unicode="&#xa8;" horiz-adv-x="565" 
d="M41 1151v176h39v-176h-39zM485 1327h39v-176h-39v176z" />
    <glyph glyph-name="copyright" unicode="&#xa9;" horiz-adv-x="1560" 
d="M82 676q0 154 55 287t149 225t222 144t272 52q193 0 352 -88.5t253 -251.5t94 -368q0 -204 -94 -365.5t-253 -248.5t-352 -87q-144 0 -272 51.5t-222 142t-149 222.5t-55 285zM123 676q0 -144 50.5 -268t138 -211t209 -136t259.5 -49q185 0 335 83.5t236.5 236
t86.5 344.5q0 195 -86.5 349t-236.5 238.5t-335 84.5q-138 0 -259.5 -49.5t-209 -137t-138 -213.5t-50.5 -272zM774 352q105 0 177.5 53.5t101.5 143.5l39 -10q-29 -92 -112.5 -158t-205.5 -66q-145 0 -240.5 104.5t-95.5 278.5q0 172 96 273.5t240 101.5q121 0 201.5 -65
t109.5 -158l-38 -10q-29 90 -98.5 143t-174.5 53q-123 0 -209 -88.5t-86 -249.5t86 -253.5t209 -92.5z" />
    <glyph glyph-name="ordfeminine" unicode="&#xaa;" horiz-adv-x="612" 
d="M123 1210l-41 2q8 78 68.5 125t156.5 47q103 0 155 -43.5t52 -148.5q0 -137 -2 -186q0 -101 6 -203h-39l-4 121q-24 -63 -79.5 -99.5t-135.5 -36.5q-93 0 -146 50t-53 129q0 68 54 112q62 43 227 60l133 14v39q0 92 -46 125t-126 33q-84 0 -128.5 -39.5t-51.5 -100.5z
M477 1059v59l-145 -16q-123 -14 -176.5 -44t-53.5 -93t44 -102.5t118 -39.5q87 0 150 58t63 178z" />
    <glyph glyph-name="guillemotleft" unicode="&#xab;" horiz-adv-x="743" 
d="M299 96l-299 424l297 426h43l-297 -424l297 -426h-41zM621 96l-299 424l296 426h44l-297 -424l297 -426h-41z" />
    <glyph glyph-name="logicalnot" unicode="&#xac;" horiz-adv-x="1175" 
d="M993 766h-952v37h991v-600h-39v563z" />
    <glyph glyph-name="registered" unicode="&#xae;" horiz-adv-x="1560" 
d="M780 1384q193 0 352 -88.5t253 -251.5t94 -368q0 -204 -94 -365.5t-253 -248.5t-352 -87q-144 0 -272 51.5t-222 142t-149 222.5t-55 285q0 154 55 287t149 225t222 144t272 52zM780 1348q-138 0 -259.5 -49.5t-209 -137t-138 -213.5t-50.5 -272q0 -144 50.5 -268
t138 -211t209 -136t259.5 -49q185 0 335 83.5t236.5 236t86.5 344.5q0 195 -86.5 349t-236.5 238.5t-335 84.5zM1042 322l-163 344q-20 -4 -70 -4h-242v-340h-39v745h273q44 0 82 -5t76 -19t65 -36t44 -58t17 -83q0 -73 -42.5 -122.5t-122.5 -69.5l165 -352h-43zM1044 864
q0 166 -247 166h-230v-332h242q235 0 235 166z" />
    <glyph glyph-name="macron" unicode="&#xaf;" horiz-adv-x="555" 
d="M514 1212h-473v37h473v-37z" />
    <glyph glyph-name="degree" unicode="&#xb0;" horiz-adv-x="598" 
d="M41 1122q0 111 73 186.5t185 75.5t185 -75.5t73 -186.5t-73 -186.5t-185 -75.5t-185 75.5t-73 186.5zM84 1122q0 -100 60 -162.5t155 -62.5t155 62.5t60 162.5t-60 163t-155 63t-155 -63t-60 -163z" />
    <glyph glyph-name="plusminus" unicode="&#xb1;" horiz-adv-x="1144" 
d="M553 590v422h39v-422h491v-37h-491v-430h-39v430h-492v37h492zM1083 0h-1022v37h1022v-37z" />
    <glyph glyph-name="two.superior" unicode="&#xb2;" horiz-adv-x="638" 
d="M326 1624q106 0 169.5 -54.5t63.5 -152.5q0 -63 -29 -126t-91 -131t-140.5 -135t-196.5 -155h486v-36h-543v38q125 93 206.5 161t145 136t92.5 127.5t29 118.5q0 84 -55 129t-137 45q-43 0 -80 -11t-68.5 -35t-50.5 -68t-21 -105h-40q6 125 76 189.5t184 64.5z" />
    <glyph glyph-name="three.superior" unicode="&#xb3;" horiz-adv-x="659" 
d="M326 854q100 0 164.5 49.5t64.5 136.5q0 183 -250 183h-10v34h8q116 0 175 45.5t59 124.5q0 72 -57.5 117t-145.5 45q-90 0 -151.5 -47t-76.5 -133l-40 4q19 99 88.5 155t181.5 56q104 0 173 -52t69 -140q0 -78 -45.5 -127.5t-116.5 -63.5q81 -11 130.5 -61t49.5 -138
q0 -106 -77.5 -164.5t-192.5 -58.5t-187 59t-90 160l41 4q20 -94 82 -141t154 -47z" />
    <glyph glyph-name="acute" unicode="&#xb4;" horiz-adv-x="378" 
d="M338 1360l-248 -242h-49l244 242h53z" />
    <glyph glyph-name="mu" unicode="&#xb5;" horiz-adv-x="1069" 
d="M154 -354q10 110 10 274v1084h39v-527q0 -132 35 -235t111.5 -166.5t185.5 -63.5t185 63.5t111 166t35 235.5v527h39v-1004h-39v258q-11 -42 -27 -79t-44 -76t-62.5 -66t-85.5 -44.5t-112 -17.5t-112 17.5t-86 44.5t-62.5 66t-44 76t-27.5 79v-321q0 -177 -13 -291h-36z
" />
    <glyph glyph-name="mu" unicode="&#x3bc;" horiz-adv-x="1069" 
d="M154 -354q10 110 10 274v1084h39v-527q0 -132 35 -235t111.5 -166.5t185.5 -63.5t185 63.5t111 166t35 235.5v527h39v-1004h-39v258q-11 -42 -27 -79t-44 -76t-62.5 -66t-85.5 -44.5t-112 -17.5t-112 17.5t-86 44.5t-62.5 66t-44 76t-27.5 79v-321q0 -177 -13 -291h-36z
" />
    <glyph glyph-name="paragraph" unicode="&#xb6;" horiz-adv-x="874" 
d="M0 1026q0 150 109.5 242t273.5 92h328v-1530h-39v1493h-266v-1493h-39v862q-153 0 -260 92.5t-107 241.5z" />
    <glyph glyph-name="periodcentered" unicode="&#xb7;" horiz-adv-x="243" 
d="M82 471v80h80v-80h-80z" />
    <glyph glyph-name="cedilla" unicode="&#xb8;" horiz-adv-x="378" 
d="M41 -336l10 37q64 -27 117 -27t91 24.5t38 74.5q0 43 -32 65.5t-77 22.5q-46 0 -86 -21l-16 25l82 135h39l-68 -113q28 7 58 7q64 0 102.5 -32t38.5 -87q0 -70 -50.5 -103.5t-123.5 -33.5q-66 0 -123 26z" />
    <glyph glyph-name="one.superior" unicode="&#xb9;" horiz-adv-x="362" 
d="M250 834h-39v688q-32 -31 -84.5 -47.5t-95.5 -16.5v29q85 8 130.5 36.5t59.5 92.5h29v-782z" />
    <glyph glyph-name="ordmasculine" unicode="&#xba;" horiz-adv-x="667" 
d="M115 1087q0 -126 61 -195t156 -69q96 0 157.5 69t61.5 195t-61.5 194.5t-157.5 68.5q-95 0 -156 -68.5t-61 -194.5zM72 1087q0 142 74.5 219.5t185.5 77.5q112 0 186 -77t74 -220q0 -144 -74 -221.5t-186 -77.5q-111 0 -185.5 77.5t-74.5 221.5z" />
    <glyph glyph-name="guillemotright" unicode="&#xbb;" horiz-adv-x="743" 
d="M743 520l-299 -424h-41l297 426l-297 424h43zM422 520l-299 -424h-41l297 426l-297 424h43z" />
    <glyph glyph-name="onequarter" unicode="&#xbc;" horiz-adv-x="1474" 
d="M344 584h-39v688q-32 -31 -84.5 -47.5t-95.5 -16.5v29q85 8 130.5 36.5t59.5 92.5h29v-782zM180 0h-47l952 1360h48zM1149 721l-391 -465h391v465zM1348 256v-37h-160v-219h-39v219h-438v35l438 522h39v-520h160z" />
    <glyph glyph-name="onehalf" unicode="&#xbd;" horiz-adv-x="1474" 
d="M369 584h-39v688q-32 -31 -84.5 -47.5t-95.5 -16.5v29q85 8 130.5 36.5t59.5 92.5h29v-782zM205 0h-47l952 1360h47zM1063 791q106 0 169.5 -54.5t63.5 -152.5q0 -84 -56 -172t-149 -172.5t-251 -202.5h485v-37h-543v39q125 93 206.5 161t145 136t92.5 127.5t29 118.5
q0 84 -55 129t-137 45q-92 0 -153.5 -51t-65.5 -168h-41q6 125 76 189.5t184 64.5z" />
    <glyph glyph-name="threequarters" unicode="&#xbe;" horiz-adv-x="1474" 
d="M319 604q100 0 165 50t65 137q0 182 -250 182h-10v35h8q116 0 174.5 45.5t58.5 124.5q0 72 -57 116.5t-145 44.5q-90 0 -151.5 -47t-76.5 -133l-41 4q19 99 89 155t182 56q104 0 172.5 -52t68.5 -140q0 -78 -45.5 -127.5t-115.5 -63.5q81 -11 130.5 -60.5t49.5 -137.5
q0 -106 -78 -165t-193 -59t-186.5 59t-89.5 160l41 5q20 -94 81.5 -141.5t153.5 -47.5zM215 0h47l952 1360h-47zM840 256l391 465v-465h-391zM1430 219v37h-160v520h-39l-438 -522v-35h438v-219h39v219h160z" />
    <glyph glyph-name="questiondown" unicode="&#xbf;" horiz-adv-x="899" 
d="M422 -381q-112 0 -201 33.5t-145 105.5t-56 174q0 51 15.5 97t35 77t60 69t65 57t76.5 57q40 29 59 43.5t50 41.5t46 48.5t32 52t23.5 65.5t6.5 76v50h39v-50q0 -64 -15 -114.5t-49 -93.5t-71 -75.5t-100 -76.5q-48 -35 -69.5 -51t-59.5 -50.5t-55 -62t-31.5 -68.5
t-14.5 -87q0 -131 101 -206t258 -75q63 0 118.5 11t109 39.5t92.5 72.5t65 114.5t31 161.5l41 -4q-13 -219 -136 -325.5t-321 -106.5zM528 1004v-179h-39v179h39z" />
    <glyph glyph-name="Agrave" unicode="&#xc0;" horiz-adv-x="1114" 
d="M0 0l541 1360h32l541 -1360h-43l-158 397h-712l-158 -397h-43zM557 1298l-342 -864h684zM655 1430l-262 215h56l256 -215h-50z" />
    <glyph glyph-name="Aacute" unicode="&#xc1;" horiz-adv-x="1114" 
d="M0 0l541 1360h32l541 -1360h-43l-158 397h-712l-158 -397h-43zM557 1298l-342 -864h684zM717 1645l-262 -215h-49l256 215h55z" />
    <glyph glyph-name="Acircumflex" unicode="&#xc2;" horiz-adv-x="1114" 
d="M0 0l541 1360h32l541 -1360h-43l-158 397h-712l-158 -397h-43zM557 1298l-342 -864h684zM578 1645l270 -215h-49l-242 182l-242 -182h-49l271 215h41z" />
    <glyph glyph-name="Atilde" unicode="&#xc3;" horiz-adv-x="1114" 
d="M0 0l541 1360h32l541 -1360h-43l-158 397h-712l-158 -397h-43zM557 1298l-342 -864h684zM709 1491q94 0 116 131h37q-12 -82 -51 -125t-102 -43q-39 0 -81 20.5t-73 45t-72.5 45t-79.5 20.5q-92 0 -114 -131h-37q12 80 51 124t100 44q43 0 87 -20.5t75.5 -45t70.5 -45
t73 -20.5z" />
    <glyph glyph-name="Adieresis" unicode="&#xc4;" horiz-adv-x="1114" 
d="M0 0l541 1360h32l541 -1360h-43l-158 397h-712l-158 -397h-43zM557 1298l-342 -864h684zM315 1626h39v-176h-39v176zM760 1626h39v-176h-39v176z" />
    <glyph glyph-name="Aring" unicode="&#xc5;" horiz-adv-x="1114" 
d="M0 0l541 1360h32l541 -1360h-43l-158 397h-712l-158 -397h-43zM557 1298l-342 -864h684zM557 1733q67 0 113.5 -43.5t46.5 -108.5t-46.5 -108t-113.5 -43t-113.5 43t-46.5 108t46.5 108.5t113.5 43.5zM557 1700q-50 0 -85.5 -32t-35.5 -87t35.5 -87t85.5 -32t85.5 32
t35.5 87t-35.5 87t-85.5 32z" />
    <glyph glyph-name="AE" unicode="&#xc6;" horiz-adv-x="1763" 
d="M848 1360h848v-37h-809v-598h762v-37h-762v-651h809v-37h-848v397h-557l-248 -397h-43zM848 1286l-533 -852h533v852z" />
    <glyph glyph-name="Ccedilla" unicode="&#xc7;" horiz-adv-x="1335" 
d="M592 -135l67 112q-271 15 -424 209.5t-153 493.5q0 150 41 278.5t118 223t195.5 148.5t265.5 54q219 0 374.5 -112t197.5 -316l-41 -6q-43 195 -185.5 296.5t-347.5 101.5q-263 0 -419 -183t-156 -485t157 -485t416 -183q209 0 353.5 102t187.5 296l41 -7
q-29 -137 -112 -235t-202.5 -145.5t-265.5 -47.5h-2l-53 -88q28 7 57 7q64 0 103 -32t39 -87q0 -70 -50.5 -103.5t-123.5 -33.5q-66 0 -123 26l10 37q64 -27 117 -27t91 24.5t38 74.5q0 43 -32 65.5t-77 22.5q-46 0 -86 -21z" />
    <glyph glyph-name="Egrave" unicode="&#xc8;" horiz-adv-x="1079" 
d="M164 0v1360h848v-37h-809v-598h762v-37h-762v-651h809v-37h-848zM647 1430l-262 215h55l256 -215h-49z" />
    <glyph glyph-name="Eacute" unicode="&#xc9;" horiz-adv-x="1079" 
d="M164 0v1360h848v-37h-809v-598h762v-37h-762v-651h809v-37h-848zM795 1645l-263 -215h-49l256 215h56z" />
    <glyph glyph-name="Ecircumflex" unicode="&#xca;" horiz-adv-x="1079" 
d="M164 0v1360h848v-37h-809v-598h762v-37h-762v-651h809v-37h-848zM612 1645l271 -215h-49l-242 182l-242 -182h-49l270 215h41z" />
    <glyph glyph-name="Edieresis" unicode="&#xcb;" horiz-adv-x="1079" 
d="M164 0v1360h848v-37h-809v-598h762v-37h-762v-651h809v-37h-848zM348 1626h39v-176h-39v176zM793 1626h38v-176h-38v176z" />
    <glyph glyph-name="Igrave" unicode="&#xcc;" 
d="M203 1360v-1360h-39v1360h39zM160 1430l-262 215h55l256 -215h-49z" />
    <glyph glyph-name="Iacute" unicode="&#xcd;" 
d="M203 1360v-1360h-39v1360h39zM469 1645l-262 -215h-49l256 215h55z" />
    <glyph glyph-name="Icircumflex" unicode="&#xce;" 
d="M205 1645l209 -215h-49l-181 182l-180 -182h-49l209 215h41zM203 1360v-1360h-39v1360h39z" />
    <glyph glyph-name="Idieresis" unicode="&#xcf;" 
d="M4 1626h39v-176h-39v176zM326 1626h39v-176h-39v176zM203 1360v-1360h-39v1360h39z" />
    <glyph glyph-name="Eth" unicode="&#xd0;" horiz-adv-x="1306" 
d="M184 1360h248q139 0 252.5 -19t216.5 -66.5t172.5 -123.5t110.5 -195.5t41 -275.5t-41 -275.5t-110.5 -195.5t-172.5 -123.5t-216.5 -66.5t-252.5 -19h-248v688h-184v37h184v635zM543 688h-320v-651h197q83 0 154 6t151 23.5t144 46t124 78t100.5 115.5t64.5 161.5
t24 212.5t-24 212.5t-64.5 161.5t-100.5 115.5t-124 78t-144 46t-151 23.5t-154 6h-197v-598h320v-37z" />
    <glyph glyph-name="Ntilde" unicode="&#xd1;" horiz-adv-x="1357" 
d="M1194 0h-39l-952 1294v-1294h-39v1360h39l952 -1294v1294h39v-1360zM844 1485q95 0 117 131h36q-12 -82 -51 -125t-102 -43q-39 0 -81 20.5t-72.5 45t-72 45t-79.5 20.5q-93 0 -115 -131h-37q12 80 51.5 124t100.5 44q43 0 87 -20.5t75 -45t70 -45t73 -20.5z" />
    <glyph glyph-name="Ograve" unicode="&#xd2;" horiz-adv-x="1417" 
d="M1292 680q0 158 -44.5 286t-123 211t-184.5 127t-231 44t-231.5 -44t-185 -127t-123 -211t-44.5 -286t44.5 -286t123 -211t185 -127t231.5 -44t231 44t184.5 127t123 211t44.5 286zM1335 680q0 -316 -169 -510.5t-457 -194.5t-457.5 194.5t-169.5 510.5t169.5 510
t457.5 194t457 -194t169 -510zM795 1430l-263 215h56l256 -215h-49z" />
    <glyph glyph-name="Oacute" unicode="&#xd3;" horiz-adv-x="1417" 
d="M1292 680q0 158 -44.5 286t-123 211t-184.5 127t-231 44t-231.5 -44t-185 -127t-123 -211t-44.5 -286t44.5 -286t123 -211t185 -127t231.5 -44t231 44t184.5 127t123 211t44.5 286zM1335 680q0 -316 -169 -510.5t-457 -194.5t-457.5 194.5t-169.5 510.5t169.5 510
t457.5 194t457 -194t169 -510zM946 1645l-262 -215h-49l256 215h55z" />
    <glyph glyph-name="Ocircumflex" unicode="&#xd4;" horiz-adv-x="1417" 
d="M1292 680q0 158 -44.5 286t-123 211t-184.5 127t-231 44t-231.5 -44t-185 -127t-123 -211t-44.5 -286t44.5 -286t123 -211t185 -127t231.5 -44t231 44t184.5 127t123 211t44.5 286zM1335 680q0 -316 -169 -510.5t-457 -194.5t-457.5 194.5t-169.5 510.5t169.5 510
t457.5 194t457 -194t169 -510zM725 1645l270 -215h-49l-241 182l-242 -182h-49l270 215h41z" />
    <glyph glyph-name="Otilde" unicode="&#xd5;" horiz-adv-x="1417" 
d="M1292 680q0 158 -44.5 286t-123 211t-184.5 127t-231 44t-231.5 -44t-185 -127t-123 -211t-44.5 -286t44.5 -286t123 -211t185 -127t231.5 -44t231 44t184.5 127t123 211t44.5 286zM1335 680q0 -316 -169 -510.5t-457 -194.5t-457.5 194.5t-169.5 510.5t169.5 510
t457.5 194t457 -194t169 -510zM854 1491q95 0 117 131h37q-12 -82 -51.5 -125t-102.5 -43q-39 0 -81 20.5t-72.5 45t-72 45t-79.5 20.5q-93 0 -115 -131h-37q12 80 51.5 124t100.5 44q43 0 87 -20.5t75 -45t70 -45t73 -20.5z" />
    <glyph glyph-name="Odieresis" unicode="&#xd6;" horiz-adv-x="1417" 
d="M1292 680q0 158 -44.5 286t-123 211t-184.5 127t-231 44t-231.5 -44t-185 -127t-123 -211t-44.5 -286t44.5 -286t123 -211t185 -127t231.5 -44t231 44t184.5 127t123 211t44.5 286zM1335 680q0 -316 -169 -510.5t-457 -194.5t-457.5 194.5t-169.5 510.5t169.5 510
t457.5 194t457 -194t169 -510zM467 1626h39v-176h-39v176zM911 1626h39v-176h-39v176z" />
    <glyph glyph-name="multiply" unicode="&#xd7;" horiz-adv-x="948" 
d="M907 109l-28 -29l-406 403l-403 -403l-29 29l403 403l-403 406l29 28l403 -405l406 405l28 -28l-405 -406z" />
    <glyph glyph-name="Oslash" unicode="&#xd8;" horiz-adv-x="1417" 
d="M1300 1360l-139 -166q174 -192 174 -514q0 -316 -169 -510.5t-457 -194.5q-267 0 -435 168l-141 -168l-29 25l146 172q-168 190 -168 508q0 316 169.5 510t457.5 194q259 0 426 -161l137 161zM1292 680q0 302 -157 483l-834 -989q156 -162 408 -162q125 0 231 44
t184.5 127t123 211t44.5 286zM125 680q0 -295 151 -477l832 989q-156 156 -399 156q-125 0 -231.5 -44t-185 -127t-123 -211t-44.5 -286z" />
    <glyph glyph-name="Ugrave" unicode="&#xd9;" horiz-adv-x="1335" 
d="M143 1360h39v-803q0 -278 113.5 -411.5t372.5 -133.5q258 0 371.5 133.5t113.5 411.5v803h39v-801q0 -301 -125 -442.5t-399 -141.5t-399.5 141.5t-125.5 442.5v801zM729 1430l-262 215h55l256 -215h-49z" />
    <glyph glyph-name="Uacute" unicode="&#xda;" horiz-adv-x="1335" 
d="M143 1360h39v-803q0 -278 113.5 -411.5t372.5 -133.5q258 0 371.5 133.5t113.5 411.5v803h39v-801q0 -301 -125 -442.5t-399 -141.5t-399.5 141.5t-125.5 442.5v801zM864 1645l-262 -215h-49l256 215h55z" />
    <glyph glyph-name="Ucircumflex" unicode="&#xdb;" horiz-adv-x="1335" 
d="M143 1360h39v-803q0 -278 113.5 -411.5t372.5 -133.5q258 0 371.5 133.5t113.5 411.5v803h39v-801q0 -301 -125 -442.5t-399 -141.5t-399.5 141.5t-125.5 442.5v801zM686 1645l270 -215h-49l-241 182l-242 -182h-49l270 215h41z" />
    <glyph glyph-name="Udieresis" unicode="&#xdc;" horiz-adv-x="1335" 
d="M143 1360h39v-803q0 -278 113.5 -411.5t372.5 -133.5q258 0 371.5 133.5t113.5 411.5v803h39v-801q0 -301 -125 -442.5t-399 -141.5t-399.5 141.5t-125.5 442.5v801zM430 1626h39v-176h-39v176zM874 1626h39v-176h-39v176z" />
    <glyph glyph-name="Yacute" unicode="&#xdd;" horiz-adv-x="989" 
d="M-20 1360h45l469 -809l471 809h45l-496 -854v-506h-39v506zM666 1645l-263 -215h-49l256 215h56z" />
    <glyph glyph-name="Thorn" unicode="&#xde;" horiz-adv-x="1075" 
d="M203 1069h325q103 0 183 -10.5t150 -36.5t116 -68.5t72 -109.5t26 -156t-26 -156t-72 -109.5t-116 -68.5t-150 -36.5t-183 -10.5h-325v-307h-39v1360h39v-291zM528 1032h-325v-688h325q92 0 162.5 8t137.5 30t109.5 59.5t68.5 100t26 146.5t-26 146.5t-68.5 100
t-109.5 59.5t-137.5 30t-162.5 8z" />
    <glyph glyph-name="germandbls" unicode="&#xdf;" horiz-adv-x="1208" 
d="M203 0h-39v944q0 229 110 336q110 104 328 104q177 0 286 -85t109 -230q0 -123 -66.5 -202.5t-178.5 -106.5q60 -6 119 -30t113.5 -68t88 -117.5t33.5 -165.5q0 -89 -27.5 -159t-74 -115.5t-111.5 -75t-134.5 -42t-148.5 -12.5q-84 0 -184 17l8 43q87 -19 182 -19
q71 0 134 11t121.5 37.5t100 66.5t66.5 102.5t25 141.5q0 90 -35.5 161t-95 114.5t-133 66t-154.5 22.5h-4v37h4q139 0 224 81.5t85 211.5q0 126 -97 202.5t-255 76.5q-201 0 -299 -95q-100 -97 -100 -325v-928z" />
    <glyph glyph-name="agrave" unicode="&#xe0;" horiz-adv-x="1032" 
d="M131 721l41 -2q13 112 100.5 188t245.5 76q56 0 99.5 -6.5t87.5 -25.5t72.5 -51.5t46.5 -87.5t18 -130v-76l-254 -26q-161 -19 -254.5 -42.5t-151.5 -66.5q-90 -68 -90 -184q0 -140 94.5 -226t255.5 -86q143 0 251 72t149 195l8 -242h39q-13 191 -10 371q2 90 2 313
q0 183 -91 259.5t-266 76.5q-167 0 -272.5 -82t-120.5 -217zM844 442q0 -93 -24.5 -168t-64 -123t-92.5 -80t-107.5 -45.5t-111.5 -13.5q-143 0 -226 76t-83 197q0 116 102 174t330 82l277 28v-127zM559 1118l-248 242h54l243 -242h-49z" />
    <glyph glyph-name="aacute" unicode="&#xe1;" horiz-adv-x="1032" 
d="M131 721l41 -2q13 112 100.5 188t245.5 76q56 0 99.5 -6.5t87.5 -25.5t72.5 -51.5t46.5 -87.5t18 -130v-76l-254 -26q-161 -19 -254.5 -42.5t-151.5 -66.5q-90 -68 -90 -184q0 -140 94.5 -226t255.5 -86q143 0 251 72t149 195l8 -242h39q-13 191 -10 371q2 90 2 313
q0 183 -91 259.5t-266 76.5q-167 0 -272.5 -82t-120.5 -217zM844 442q0 -93 -24.5 -168t-64 -123t-92.5 -80t-107.5 -45.5t-111.5 -13.5q-143 0 -226 76t-83 197q0 116 102 174t330 82l277 28v-127zM762 1360l-248 -242h-49l244 242h53z" />
    <glyph glyph-name="acircumflex" unicode="&#xe2;" horiz-adv-x="1032" 
d="M131 721l41 -2q13 112 100.5 188t245.5 76q56 0 99.5 -6.5t87.5 -25.5t72.5 -51.5t46.5 -87.5t18 -130v-76l-254 -26q-161 -19 -254.5 -42.5t-151.5 -66.5q-90 -68 -90 -184q0 -140 94.5 -226t255.5 -86q143 0 251 72t149 195l8 -242h39q-13 191 -10 371q2 90 2 313
q0 183 -91 259.5t-266 76.5q-167 0 -272.5 -82t-120.5 -217zM844 442q0 -93 -24.5 -168t-64 -123t-92.5 -80t-107.5 -45.5t-111.5 -13.5q-143 0 -226 76t-83 197q0 116 102 174t330 82l277 28v-127zM545 1360l270 -242h-49l-242 209l-241 -209h-50l271 242h41z" />
    <glyph glyph-name="atilde" unicode="&#xe3;" horiz-adv-x="1032" 
d="M131 721l41 -2q13 112 100.5 188t245.5 76q56 0 99.5 -6.5t87.5 -25.5t72.5 -51.5t46.5 -87.5t18 -130v-76l-254 -26q-161 -19 -254.5 -42.5t-151.5 -66.5q-90 -68 -90 -184q0 -140 94.5 -226t255.5 -86q143 0 251 72t149 195l8 -242h39q-13 191 -10 371q2 90 2 313
q0 183 -91 259.5t-266 76.5q-167 0 -272.5 -82t-120.5 -217zM844 442q0 -93 -24.5 -168t-64 -123t-92.5 -80t-107.5 -45.5t-111.5 -13.5q-143 0 -226 76t-83 197q0 116 102 174t330 82l277 28v-127zM657 1190q95 0 117 131h37q-12 -82 -51.5 -125t-102.5 -43q-39 0 -81 20.5
t-72.5 45t-72 45t-79.5 20.5q-92 0 -114 -131h-37q12 80 51 124t100 44q43 0 87 -20.5t75 -45t70 -45t73 -20.5z" />
    <glyph glyph-name="adieresis" unicode="&#xe4;" horiz-adv-x="1032" 
d="M131 721l41 -2q13 112 100.5 188t245.5 76q56 0 99.5 -6.5t87.5 -25.5t72.5 -51.5t46.5 -87.5t18 -130v-76l-254 -26q-161 -19 -254.5 -42.5t-151.5 -66.5q-90 -68 -90 -184q0 -140 94.5 -226t255.5 -86q143 0 251 72t149 195l8 -242h39q-13 191 -10 371q2 90 2 313
q0 183 -91 259.5t-266 76.5q-167 0 -272.5 -82t-120.5 -217zM844 442q0 -93 -24.5 -168t-64 -123t-92.5 -80t-107.5 -45.5t-111.5 -13.5q-143 0 -226 76t-83 197q0 116 102 174t330 82l277 28v-127zM270 1151v176h39v-176h-39zM715 1327h39v-176h-39v176z" />
    <glyph glyph-name="aring" unicode="&#xe5;" horiz-adv-x="1032" 
d="M131 721l41 -2q13 112 100.5 188t245.5 76q56 0 99.5 -6.5t87.5 -25.5t72.5 -51.5t46.5 -87.5t18 -130v-76l-254 -26q-161 -19 -254.5 -42.5t-151.5 -66.5q-90 -68 -90 -184q0 -140 94.5 -226t255.5 -86q143 0 251 72t149 195l8 -242h39q-13 191 -10 371q2 90 2 313
q0 183 -91 259.5t-266 76.5q-167 0 -272.5 -82t-120.5 -217zM844 442q0 -93 -24.5 -168t-64 -123t-92.5 -80t-107.5 -45.5t-111.5 -13.5q-143 0 -226 76t-83 197q0 116 102 174t330 82l277 28v-127zM524 1384q67 0 113.5 -43t46.5 -108t-46.5 -108.5t-113.5 -43.5t-113 43.5
t-46 108.5t46 108t113 43zM524 1352q-50 0 -85.5 -32t-35.5 -87t35.5 -87t85.5 -32t85.5 32t35.5 87t-35.5 87t-85.5 32z" />
    <glyph glyph-name="ae" unicode="&#xe6;" horiz-adv-x="1853" 
d="M172 719l-41 4q15 134 120.5 215.5t272.5 81.5q165 0 255 -68t100 -229q51 139 161 218t265 79q207 0 327.5 -138.5t120.5 -367.5h-872q-1 -125 33 -223.5t93.5 -158t134 -90t158.5 -30.5q156 0 259 73t135 216l41 -10q-34 -148 -149 -232t-286 -84q-165 0 -277.5 90
t-154.5 244q-21 -89 -65.5 -156t-103.5 -104.5t-123.5 -55.5t-133.5 -18q-161 0 -255.5 86t-94.5 226q0 113 92 182q59 44 153 68.5t251 42.5l254 26v76q0 75 -18 130t-46.5 87.5t-72.5 51.5t-87.5 25.5t-99.5 6.5q-158 0 -245.5 -76t-100.5 -188zM444 12q57 0 111.5 13.5
t107.5 45.5t92.5 80t64 123t24.5 168v127l-277 -28q-228 -24 -330 -82t-102 -174q0 -121 83 -197t226 -76zM881 549h829q-2 185 -112 309.5t-295 124.5q-184 0 -297 -119t-125 -315z" />
    <glyph glyph-name="ccedilla" unicode="&#xe7;" horiz-adv-x="1050" 
d="M397 -336l11 37q64 -27 116 -27q53 0 91 24.5t38 74.5q0 43 -31.5 65.5t-76.5 22.5q-46 0 -86 -21l-17 25l68 112q-193 15 -300.5 156.5t-107.5 362.5q0 236 121.5 380t333.5 144q164 0 277 -89.5t143 -238.5l-41 -6q-28 138 -130.5 217.5t-248.5 79.5
q-193 0 -302.5 -133.5t-109.5 -351.5q0 -121 32.5 -216t89.5 -153t129.5 -87.5t156.5 -29.5q150 0 254 79t131 218l41 -6q-31 -152 -145 -240t-283 -88h-2l-53 -88q28 7 57 7q64 0 102.5 -32t38.5 -87q0 -70 -50.5 -103.5t-123.5 -33.5q-66 0 -123 26z" />
    <glyph glyph-name="egrave" unicode="&#xe8;" horiz-adv-x="1120" 
d="M575 -25q-214 0 -338 146t-124 379q0 234 126.5 377t340.5 143q208 0 329 -138.5t121 -367.5h-874v-12q0 -121 34.5 -216.5t93.5 -154t133 -89t158 -30.5q156 0 259 73t135 216l41 -6q-31 -149 -147 -234.5t-288 -85.5zM578 983q-183 0 -295.5 -118.5t-126.5 -315.5h831
q-2 185 -113 309.5t-296 124.5zM588 1118l-248 242h53l244 -242h-49z" />
    <glyph glyph-name="eacute" unicode="&#xe9;" horiz-adv-x="1120" 
d="M575 -25q-214 0 -338 146t-124 379q0 234 126.5 377t340.5 143q208 0 329 -138.5t121 -367.5h-874v-12q0 -121 34.5 -216.5t93.5 -154t133 -89t158 -30.5q156 0 259 73t135 216l41 -6q-31 -149 -147 -234.5t-288 -85.5zM578 983q-183 0 -295.5 -118.5t-126.5 -315.5h831
q-2 185 -113 309.5t-296 124.5zM815 1360l-248 -242h-49l244 242h53z" />
    <glyph glyph-name="ecircumflex" unicode="&#xea;" horiz-adv-x="1120" 
d="M575 -25q-214 0 -338 146t-124 379q0 234 126.5 377t340.5 143q208 0 329 -138.5t121 -367.5h-874v-12q0 -121 34.5 -216.5t93.5 -154t133 -89t158 -30.5q156 0 259 73t135 216l41 -6q-31 -149 -147 -234.5t-288 -85.5zM578 983q-183 0 -295.5 -118.5t-126.5 -315.5h831
q-2 185 -113 309.5t-296 124.5zM588 1360l270 -242h-49l-242 209l-241 -209h-50l271 242h41z" />
    <glyph glyph-name="edieresis" unicode="&#xeb;" horiz-adv-x="1120" 
d="M575 -25q-214 0 -338 146t-124 379q0 234 126.5 377t340.5 143q208 0 329 -138.5t121 -367.5h-874v-12q0 -121 34.5 -216.5t93.5 -154t133 -89t158 -30.5q156 0 259 73t135 216l41 -6q-31 -149 -147 -234.5t-288 -85.5zM578 983q-183 0 -295.5 -118.5t-126.5 -315.5h831
q-2 185 -113 309.5t-296 124.5zM319 1151v176h39v-176h-39zM764 1327h39v-176h-39v176z" />
    <glyph glyph-name="igrave" unicode="&#xec;" 
d="M164 1004h39v-1004h-39v1004zM162 1118l-248 242h53l244 -242h-49z" />
    <glyph glyph-name="iacute" unicode="&#xed;" 
d="M164 1004h39v-1004h-39v1004zM451 1360l-248 -242h-49l243 242h54z" />
    <glyph glyph-name="icircumflex" unicode="&#xee;" 
d="M205 1360l209 -262h-49l-181 229l-180 -229h-49l209 262h41zM164 1004h39v-1004h-39v1004z" />
    <glyph glyph-name="idieresis" unicode="&#xef;" 
d="M4 1157v176h39v-176h-39zM326 1157v176h39v-176h-39zM164 1004h39v-1004h-39v1004z" />
    <glyph glyph-name="eth" unicode="&#xf0;" horiz-adv-x="1054" 
d="M604 1270l187 114l47 -14l-201 -123q177 -128 256.5 -301.5t79.5 -413.5q0 -139 -34 -247t-94 -175t-138.5 -101t-171.5 -34q-189 0 -311 141.5t-122 383.5q0 238 125 379t314 141q76 0 140 -21.5t107.5 -58.5t72.5 -77.5t48 -86.5h2q-54 272 -309 449l-194 -119l-46 12
l207 129q-87 57 -196 105l20 32q133 -61 211 -114zM535 12q75 0 143.5 28t126 84.5t91.5 153.5t34 222t-33 221t-89.5 151.5t-124.5 83t-144 27.5q-166 0 -280 -129.5t-114 -353.5q0 -227 111 -357.5t279 -130.5z" />
    <glyph glyph-name="ntilde" unicode="&#xf1;" horiz-adv-x="1067" 
d="M203 1004v-285q15 55 42.5 104.5t71.5 96t112.5 73.5t152.5 27q151 0 237 -74q105 -91 105 -319v-627h-39v610q0 223 -94 308q-74 65 -213 65q-180 0 -277.5 -138.5t-97.5 -361.5v-483h-39v1004h39zM698 1190q95 0 117 131h37q-12 -82 -51.5 -125t-102.5 -43
q-39 0 -81 20.5t-72.5 45t-72 45t-79.5 20.5q-92 0 -114 -131h-37q12 80 51 124t100 44q43 0 87 -20.5t75 -45t70 -45t73 -20.5z" />
    <glyph glyph-name="ograve" unicode="&#xf2;" horiz-adv-x="1114" 
d="M145 498q0 -230 116.5 -358t295.5 -128t295.5 128t116.5 358t-116.5 357.5t-295.5 127.5t-295.5 -127.5t-116.5 -357.5zM102 498q0 125 36 225.5t98 164.5t144 98t177 34t177 -34t144 -98t98 -164.5t36 -225.5t-36 -225.5t-98 -165t-144 -98.5t-177 -34t-177 34
t-144 98.5t-98 165t-36 225.5zM549 1118l-248 242h53l244 -242h-49z" />
    <glyph glyph-name="oacute" unicode="&#xf3;" horiz-adv-x="1114" 
d="M145 498q0 -230 116.5 -358t295.5 -128t295.5 128t116.5 358t-116.5 357.5t-295.5 127.5t-295.5 -127.5t-116.5 -357.5zM102 498q0 125 36 225.5t98 164.5t144 98t177 34t177 -34t144 -98t98 -164.5t36 -225.5t-36 -225.5t-98 -165t-144 -98.5t-177 -34t-177 34
t-144 98.5t-98 165t-36 225.5zM807 1360l-248 -242h-49l244 242h53z" />
    <glyph glyph-name="ocircumflex" unicode="&#xf4;" horiz-adv-x="1114" 
d="M145 498q0 -230 116.5 -358t295.5 -128t295.5 128t116.5 358t-116.5 357.5t-295.5 127.5t-295.5 -127.5t-116.5 -357.5zM102 498q0 125 36 225.5t98 164.5t144 98t177 34t177 -34t144 -98t98 -164.5t36 -225.5t-36 -225.5t-98 -165t-144 -98.5t-177 -34t-177 34
t-144 98.5t-98 165t-36 225.5zM580 1360l270 -242h-49l-242 209l-242 -209h-49l271 242h41z" />
    <glyph glyph-name="otilde" unicode="&#xf5;" horiz-adv-x="1114" 
d="M145 498q0 -230 116.5 -358t295.5 -128t295.5 128t116.5 358t-116.5 357.5t-295.5 127.5t-295.5 -127.5t-116.5 -357.5zM102 498q0 125 36 225.5t98 164.5t144 98t177 34t177 -34t144 -98t98 -164.5t36 -225.5t-36 -225.5t-98 -165t-144 -98.5t-177 -34t-177 34
t-144 98.5t-98 165t-36 225.5zM713 1190q94 0 116 131h37q-12 -82 -51 -125t-102 -43q-39 0 -81 20.5t-72.5 45t-72 45t-79.5 20.5q-93 0 -115 -131h-37q12 80 51.5 124t100.5 44q43 0 87 -20.5t75 -45t70 -45t73 -20.5z" />
    <glyph glyph-name="odieresis" unicode="&#xf6;" horiz-adv-x="1114" 
d="M145 498q0 -230 116.5 -358t295.5 -128t295.5 128t116.5 358t-116.5 357.5t-295.5 127.5t-295.5 -127.5t-116.5 -357.5zM102 498q0 125 36 225.5t98 164.5t144 98t177 34t177 -34t144 -98t98 -164.5t36 -225.5t-36 -225.5t-98 -165t-144 -98.5t-177 -34t-177 34
t-144 98.5t-98 165t-36 225.5zM315 1151v176h39v-176h-39zM760 1327h39v-176h-39v176z" />
    <glyph glyph-name="divide" unicode="&#xf7;" horiz-adv-x="1103" 
d="M532 102v179h39v-179h-39zM532 723v178h39v-178h-39zM41 496h1022v36h-1022v-36z" />
    <glyph glyph-name="oslash" unicode="&#xf8;" horiz-adv-x="1114" 
d="M102 498q0 125 36 225.5t98 164.5t144 98t177 34q174 0 297 -111l88 111l31 -21l-92 -116q131 -141 131 -385q0 -125 -36 -225.5t-98 -165t-144 -98.5t-177 -34q-182 0 -301 113l-88 -113l-29 23l92 117q-129 142 -129 383zM969 498q0 220 -113 352l-575 -731
q110 -107 276 -107q179 0 295.5 128t116.5 358zM145 498q0 -223 111 -353l573 732q-109 106 -272 106q-179 0 -295.5 -127.5t-116.5 -357.5z" />
    <glyph glyph-name="ugrave" unicode="&#xf9;" horiz-adv-x="1036" 
d="M834 0v274q-15 -56 -41 -104.5t-69 -94.5t-111 -73t-154 -27q-167 0 -254 103q-72 86 -72 280v646h39v-629q0 -187 64 -269q70 -94 233 -94q119 0 203 65t123 169.5t39 236.5v521h38v-1004h-38zM553 1118l-248 242h53l244 -242h-49z" />
    <glyph glyph-name="uacute" unicode="&#xfa;" horiz-adv-x="1036" 
d="M834 0v274q-15 -56 -41 -104.5t-69 -94.5t-111 -73t-154 -27q-167 0 -254 103q-72 86 -72 280v646h39v-629q0 -187 64 -269q70 -94 233 -94q119 0 203 65t123 169.5t39 236.5v521h38v-1004h-38zM756 1360l-248 -242h-49l243 242h54z" />
    <glyph glyph-name="ucircumflex" unicode="&#xfb;" horiz-adv-x="1036" 
d="M834 0v274q-15 -56 -41 -104.5t-69 -94.5t-111 -73t-154 -27q-167 0 -254 103q-72 86 -72 280v646h39v-629q0 -187 64 -269q70 -94 233 -94q119 0 203 65t123 169.5t39 236.5v521h38v-1004h-38zM522 1360l271 -242h-50l-241 209l-242 -209h-49l270 242h41z" />
    <glyph glyph-name="udieresis" unicode="&#xfc;" horiz-adv-x="1036" 
d="M834 0v274q-15 -56 -41 -104.5t-69 -94.5t-111 -73t-154 -27q-167 0 -254 103q-72 86 -72 280v646h39v-629q0 -187 64 -269q70 -94 233 -94q119 0 203 65t123 169.5t39 236.5v521h38v-1004h-38zM256 1151v176h39v-176h-39zM700 1327h39v-176h-39v176z" />
    <glyph glyph-name="yacute" unicode="&#xfd;" horiz-adv-x="868" 
d="M94 -354h49q40 0 70 5t55 20.5t42 31.5t36 50t32.5 63.5t35.5 83.5l454 1104h-45l-387 -953l-391 953h-45l416 -1002l-41 -102q-55 -137 -98.5 -178t-129.5 -41h-53v-35zM641 1360l-248 -242h-49l244 242h53z" />
    <glyph glyph-name="thorn" unicode="&#xfe;" horiz-adv-x="1128" 
d="M164 -354v1714h39v-623q46 131 151.5 207t245.5 76q189 0 307.5 -140.5t118.5 -383.5q0 -239 -121 -380t-309 -141q-283 0 -393 273v-602h-39zM598 983q-75 0 -144.5 -28t-128 -84t-93.5 -153t-35 -222t34.5 -221.5t92.5 -152t127 -83t145 -27.5q165 0 276 129.5
t111 354.5q0 228 -109 357.5t-276 129.5z" />
    <glyph glyph-name="ydieresis" unicode="&#xff;" horiz-adv-x="868" 
d="M94 -354h49q40 0 70 5t55 20.5t42 31.5t36 50t32.5 63.5t35.5 83.5l454 1104h-45l-387 -953l-391 953h-45l416 -1002l-41 -102q-55 -137 -98.5 -178t-129.5 -41h-53v-35zM190 1151v176h39v-176h-39zM635 1327h39v-176h-39v176z" />
    <glyph glyph-name="Amacron" unicode="&#x100;" horiz-adv-x="1114" 
d="M0 0l541 1360h32l541 -1360h-43l-158 397h-712l-158 -397h-43zM557 1298l-342 -864h684zM795 1522h-473v37h473v-37z" />
    <glyph glyph-name="amacron" unicode="&#x101;" horiz-adv-x="1032" 
d="M131 721l41 -2q13 112 100.5 188t245.5 76q56 0 99.5 -6.5t87.5 -25.5t72.5 -51.5t46.5 -87.5t18 -130v-76l-254 -26q-161 -19 -254.5 -42.5t-151.5 -66.5q-90 -68 -90 -184q0 -140 94.5 -226t255.5 -86q143 0 251 72t149 195l8 -242h39q-13 191 -10 371q2 90 2 313
q0 183 -91 259.5t-266 76.5q-167 0 -272.5 -82t-120.5 -217zM844 442q0 -93 -24.5 -168t-64 -123t-92.5 -80t-107.5 -45.5t-111.5 -13.5q-143 0 -226 76t-83 197q0 116 102 174t330 82l277 28v-127zM760 1212h-473v37h473v-37z" />
    <glyph glyph-name="Abreve" unicode="&#x102;" horiz-adv-x="1114" 
d="M0 0l541 1360h32l541 -1360h-43l-158 397h-712l-158 -397h-43zM557 1298l-342 -864h684zM774 1645h35q-7 -104 -76 -164t-176 -60t-176 60t-76 164h35q13 -99 72.5 -143t144.5 -44t144.5 44t72.5 143z" />
    <glyph glyph-name="abreve" unicode="&#x103;" horiz-adv-x="1032" 
d="M131 721l41 -2q13 112 100.5 188t245.5 76q56 0 99.5 -6.5t87.5 -25.5t72.5 -51.5t46.5 -87.5t18 -130v-76l-254 -26q-161 -19 -254.5 -42.5t-151.5 -66.5q-90 -68 -90 -184q0 -140 94.5 -226t255.5 -86q143 0 251 72t149 195l8 -242h39q-13 191 -10 371q2 90 2 313
q0 183 -91 259.5t-266 76.5q-167 0 -272.5 -82t-120.5 -217zM844 442q0 -93 -24.5 -168t-64 -123t-92.5 -80t-107.5 -45.5t-111.5 -13.5q-143 0 -226 76t-83 197q0 116 102 174t330 82l277 28v-127zM745 1360q-8 -122 -73.5 -187t-186.5 -65t-186.5 65t-73.5 187h35
q13 -117 68.5 -166t156.5 -49t157 49t69 166h34z" />
    <glyph glyph-name="Aogonek" unicode="&#x104;" horiz-adv-x="1114" 
d="M0 0l541 1360h32l541 -1360q-43 -23 -67 -37.5t-55 -37t-45.5 -45.5t-14.5 -48q0 -40 30 -60t82 -20q26 0 68 10v-38q-38 -9 -72 -9q-61 0 -106 28t-45 89q0 50 55.5 99t124.5 73l-156 393h-712l-158 -397h-43zM557 1298l-342 -864h684z" />
    <glyph glyph-name="aogonek" unicode="&#x105;" horiz-adv-x="1032" 
d="M844 442v127l-277 -28q-228 -24 -330 -82t-102 -174q0 -121 83 -197t226 -76q57 0 111.5 13.5t107.5 45.5t92.5 80t64 123t24.5 168zM889 0q-42 -21 -68.5 -37t-55.5 -37.5t-43.5 -45t-14.5 -48.5q0 -40 30 -60t82 -20q26 0 68 10v-38q-37 -9 -72 -9q-61 0 -106 28
t-45 89q0 103 186 184l-8 226q-41 -123 -149 -195t-251 -72q-161 0 -255.5 86t-94.5 226q0 116 90 184q58 43 151.5 66.5t254.5 42.5l254 26v76q0 75 -18 130t-46.5 87.5t-72.5 51.5t-87.5 25.5t-99.5 6.5q-158 0 -245.5 -76t-100.5 -188l-41 2q15 135 120.5 217t272.5 82
q175 0 266 -76.5t91 -259.5q0 -223 -2 -313q-3 -180 10 -371z" />
    <glyph glyph-name="Cacute" unicode="&#x106;" horiz-adv-x="1335" 
d="M1239 410l41 -7q-29 -137 -112 -235t-202.5 -145.5t-265.5 -47.5q-193 0 -334.5 93t-212.5 251.5t-71 360.5q0 150 41 278.5t118 223t195.5 148.5t265.5 54q219 0 374.5 -112t197.5 -316l-41 -6q-43 195 -185.5 296.5t-347.5 101.5q-263 0 -419 -183t-156 -485t157 -485
t416 -183q209 0 353.5 102t187.5 296zM911 1645l-262 -215h-49l256 215h55z" />
    <glyph glyph-name="cacute" unicode="&#x107;" horiz-adv-x="1050" 
d="M557 1020q164 0 277 -89.5t143 -238.5l-41 -6q-28 138 -130.5 217.5t-248.5 79.5q-193 0 -302.5 -133.5t-109.5 -351.5q0 -121 32.5 -216t89.5 -153t129.5 -87.5t156.5 -29.5q150 0 254 79t131 218l41 -6q-31 -152 -145 -240t-283 -88q-212 0 -330.5 144t-118.5 377
q0 236 121.5 380t333.5 144zM801 1360l-248 -242h-49l244 242h53z" />
    <glyph glyph-name="Ccircumflex" unicode="&#x108;" horiz-adv-x="1335" 
d="M1239 410l41 -7q-29 -137 -112 -235t-202.5 -145.5t-265.5 -47.5q-193 0 -334.5 93t-212.5 251.5t-71 360.5q0 150 41 278.5t118 223t195.5 148.5t265.5 54q219 0 374.5 -112t197.5 -316l-41 -6q-43 195 -185.5 296.5t-347.5 101.5q-263 0 -419 -183t-156 -485t157 -485
t416 -183q209 0 353.5 102t187.5 296zM709 1645l270 -215h-49l-242 182l-242 -182h-49l271 215h41z" />
    <glyph glyph-name="ccircumflex" unicode="&#x109;" horiz-adv-x="1050" 
d="M557 1020q164 0 277 -89.5t143 -238.5l-41 -6q-28 138 -130.5 217.5t-248.5 79.5q-193 0 -302.5 -133.5t-109.5 -351.5q0 -121 32.5 -216t89.5 -153t129.5 -87.5t156.5 -29.5q150 0 254 79t131 218l41 -6q-31 -152 -145 -240t-283 -88q-212 0 -330.5 144t-118.5 377
q0 236 121.5 380t333.5 144zM569 1360l271 -242h-49l-242 209l-242 -209h-49l270 242h41z" />
    <glyph glyph-name="Cdotaccent" unicode="&#x10a;" horiz-adv-x="1335" 
d="M1239 410l41 -7q-29 -137 -112 -235t-202.5 -145.5t-265.5 -47.5q-193 0 -334.5 93t-212.5 251.5t-71 360.5q0 150 41 278.5t118 223t195.5 148.5t265.5 54q219 0 374.5 -112t197.5 -316l-41 -6q-43 195 -185.5 296.5t-347.5 101.5q-263 0 -419 -183t-156 -485t157 -485
t416 -183q209 0 353.5 102t187.5 296zM678 1626h39v-176h-39v176z" />
    <glyph glyph-name="cdotaccent" unicode="&#x10b;" horiz-adv-x="1050" 
d="M557 1020q164 0 277 -89.5t143 -238.5l-41 -6q-28 138 -130.5 217.5t-248.5 79.5q-193 0 -302.5 -133.5t-109.5 -351.5q0 -121 32.5 -216t89.5 -153t129.5 -87.5t156.5 -29.5q150 0 254 79t131 218l41 -6q-31 -152 -145 -240t-283 -88q-212 0 -330.5 144t-118.5 377
q0 236 121.5 380t333.5 144zM532 1327h39v-176h-39v176z" />
    <glyph glyph-name="Ccaron" unicode="&#x10c;" horiz-adv-x="1335" 
d="M1239 410l41 -7q-29 -137 -112 -235t-202.5 -145.5t-265.5 -47.5q-193 0 -334.5 93t-212.5 251.5t-71 360.5q0 150 41 278.5t118 223t195.5 148.5t265.5 54q219 0 374.5 -112t197.5 -316l-41 -6q-43 195 -185.5 296.5t-347.5 101.5q-263 0 -419 -183t-156 -485t157 -485
t416 -183q209 0 353.5 102t187.5 296zM670 1430l-271 215h50l241 -183l242 183h49l-270 -215h-41z" />
    <glyph glyph-name="ccaron" unicode="&#x10d;" horiz-adv-x="1050" 
d="M557 1020q164 0 277 -89.5t143 -238.5l-41 -6q-28 138 -130.5 217.5t-248.5 79.5q-193 0 -302.5 -133.5t-109.5 -351.5q0 -121 32.5 -216t89.5 -153t129.5 -87.5t156.5 -29.5q150 0 254 79t131 218l41 -6q-31 -152 -145 -240t-283 -88q-212 0 -330.5 144t-118.5 377
q0 236 121.5 380t333.5 144zM551 1118l-270 242h49l241 -209l242 209h49l-270 -242h-41z" />
    <glyph glyph-name="Dcaron" unicode="&#x10e;" horiz-adv-x="1286" 
d="M1161 680q0 117 -24 212.5t-64.5 161.5t-100.5 115.5t-124 78t-144 46t-151 23.5t-154 6h-196v-1286h196q83 0 154 6t151 23.5t144 46t124 78t100.5 115.5t64.5 161.5t24 212.5zM164 1360h248q115 0 212.5 -13.5t189 -43.5t161 -82.5t122 -126t80 -178.5t27.5 -236
t-27.5 -236t-80 -178.5t-122 -126t-161 -82.5t-189 -43.5t-212.5 -13.5h-248v1360zM512 1430l-270 215h49l241 -183l242 183h49l-270 -215h-41z" />
    <glyph glyph-name="dcaron" unicode="&#x10f;" horiz-adv-x="1126" 
d="M1161 1360l-61 -324h-33l55 324h39zM965 0v1360h-39v-617q-108 277 -387 277q-188 0 -312.5 -141t-124.5 -379q0 -242 122 -383.5t311 -141.5q139 0 242.5 77.5t148.5 209.5v-262h39zM535 12q-168 0 -279 130.5t-111 357.5q0 224 114 353.5t280 129.5q76 0 144 -27.5
t124.5 -83t89.5 -151.5t33 -221t-34 -222t-91.5 -153.5t-126 -84.5t-143.5 -28z" />
    <glyph glyph-name="Dcroat" unicode="&#x110;" horiz-adv-x="1306" 
d="M0 725h184v635h248q139 0 252.5 -19t216.5 -66.5t172.5 -123.5t110.5 -195.5t41 -275.5t-41 -275.5t-110.5 -195.5t-172.5 -123.5t-216.5 -66.5t-252.5 -19h-248v688h-184v37zM1182 680q0 117 -24 212.5t-64.5 161.5t-100.5 115.5t-124 78t-144 46t-151 23.5t-154 6h-197
v-598h320v-37h-320v-651h197q83 0 154 6t151 23.5t144 46t124 78t100.5 115.5t64.5 161.5t24 212.5z" />
    <glyph glyph-name="dcroat" unicode="&#x111;" horiz-adv-x="1126" 
d="M965 1141v-1141h-39v262q-45 -132 -148.5 -209.5t-242.5 -77.5q-189 0 -311 141.5t-122 383.5q0 238 124.5 379t312.5 141q279 0 387 -277v398h-359v37h359v182h39v-182h161v-37h-161zM535 12q75 0 143.5 28t126 84.5t91.5 153.5t34 222t-33 221t-89.5 151.5t-124.5 83
t-144 27.5q-166 0 -280 -129.5t-114 -353.5q0 -227 111 -357.5t279 -130.5z" />
    <glyph glyph-name="Emacron" unicode="&#x112;" horiz-adv-x="1079" 
d="M164 0v1360h848v-37h-809v-598h762v-37h-762v-651h809v-37h-848zM823 1522h-473v37h473v-37z" />
    <glyph glyph-name="emacron" unicode="&#x113;" horiz-adv-x="1120" 
d="M575 -25q-214 0 -338 146t-124 379q0 234 126.5 377t340.5 143q208 0 329 -138.5t121 -367.5h-874v-12q0 -121 34.5 -216.5t93.5 -154t133 -89t158 -30.5q156 0 259 73t135 216l41 -6q-31 -149 -147 -234.5t-288 -85.5zM578 983q-183 0 -295.5 -118.5t-126.5 -315.5h831
q-2 185 -113 309.5t-296 124.5zM807 1212h-473v37h473v-37z" />
    <glyph glyph-name="Ebreve" unicode="&#x114;" horiz-adv-x="1079" 
d="M164 0v1360h848v-37h-809v-598h762v-37h-762v-651h809v-37h-848zM805 1645h35q-7 -104 -76 -164t-176 -60t-176 60t-76 164h35q13 -99 72.5 -143t144.5 -44t144.5 44t72.5 143z" />
    <glyph glyph-name="ebreve" unicode="&#x115;" horiz-adv-x="1120" 
d="M575 -25q-214 0 -338 146t-124 379q0 234 126.5 377t340.5 143q208 0 329 -138.5t121 -367.5h-874v-12q0 -121 34.5 -216.5t93.5 -154t133 -89t158 -30.5q156 0 259 73t135 216l41 -6q-31 -149 -147 -234.5t-288 -85.5zM578 983q-183 0 -295.5 -118.5t-126.5 -315.5h831
q-2 185 -113 309.5t-296 124.5zM825 1360q-8 -122 -73.5 -187t-186.5 -65t-186.5 65t-73.5 187h35q13 -117 68.5 -166t156.5 -49t157 49t69 166h34z" />
    <glyph glyph-name="Edotaccent" unicode="&#x116;" horiz-adv-x="1079" 
d="M164 0v1360h848v-37h-809v-598h762v-37h-762v-651h809v-37h-848zM557 1626h39v-176h-39v176z" />
    <glyph glyph-name="edotaccent" unicode="&#x117;" horiz-adv-x="1120" 
d="M575 -25q-214 0 -338 146t-124 379q0 234 126.5 377t340.5 143q208 0 329 -138.5t121 -367.5h-874v-12q0 -121 34.5 -216.5t93.5 -154t133 -89t158 -30.5q156 0 259 73t135 216l41 -6q-31 -149 -147 -234.5t-288 -85.5zM578 983q-183 0 -295.5 -118.5t-126.5 -315.5h831
q-2 185 -113 309.5t-296 124.5zM537 1327h38v-176h-38v176z" />
    <glyph glyph-name="Eogonek" unicode="&#x118;" horiz-adv-x="1079" 
d="M164 0v1360h848v-37h-809v-598h762v-37h-762v-651h809v-37q-44 -24 -67.5 -37.5t-55 -36.5t-46 -46t-14.5 -48q0 -40 30.5 -60t82.5 -20q26 0 68 10v-38q-38 -9 -72 -9q-61 0 -106.5 28.5t-45.5 88.5q0 49 51.5 95.5t118.5 72.5h-792z" />
    <glyph glyph-name="eogonek" unicode="&#x119;" horiz-adv-x="1120" 
d="M565 -25q-214 0 -338.5 146t-124.5 379q0 234 126.5 377t340.5 143q208 0 329.5 -138.5t121.5 -367.5h-875v-12q0 -121 34.5 -216.5t93.5 -154t133.5 -89t158.5 -30.5q156 0 258.5 73t134.5 216l41 -6q-23 -110 -93 -186.5t-179 -110.5q-59 -17 -120.5 -68.5t-61.5 -99.5
q0 -40 30 -60t82 -20q26 0 68 10v-39q-33 -8 -72 -8q-61 0 -106 28t-45 89q0 40 36 80t91 70q-58 -5 -64 -5zM567 983q-183 0 -295.5 -118.5t-126.5 -315.5h832q-2 185 -113.5 309.5t-296.5 124.5z" />
    <glyph glyph-name="Ecaron" unicode="&#x11a;" horiz-adv-x="1079" 
d="M164 0v1360h848v-37h-809v-598h762v-37h-762v-651h809v-37h-848zM559 1430l-270 215h49l242 -183l241 183h49l-270 -215h-41z" />
    <glyph glyph-name="ecaron" unicode="&#x11b;" horiz-adv-x="1120" 
d="M575 -25q-214 0 -338 146t-124 379q0 234 126.5 377t340.5 143q208 0 329 -138.5t121 -367.5h-874v-12q0 -121 34.5 -216.5t93.5 -154t133 -89t158 -30.5q156 0 259 73t135 216l41 -6q-31 -149 -147 -234.5t-288 -85.5zM578 983q-183 0 -295.5 -118.5t-126.5 -315.5h831
q-2 185 -113 309.5t-296 124.5zM551 1118l-270 242h49l241 -209l242 209h49l-270 -242h-41z" />
    <glyph glyph-name="Gcircumflex" unicode="&#x11c;" horiz-adv-x="1409" 
d="M702 1384q219 0 372 -111.5t192 -316.5l-41 -6q-39 193 -179.5 295.5t-345.5 102.5q-263 0 -419 -183t-156 -485q0 -303 154 -485.5t413 -182.5q82 0 157.5 17.5t145.5 57t120.5 97.5t81 146.5t30.5 197.5v70h-404v39h443v-637h-39v313q-45 -147 -181.5 -242.5
t-353.5 -95.5q-145 0 -261.5 53.5t-192 148.5t-116 223.5t-40.5 279.5q0 150 41 278.5t118 223t195.5 148.5t265.5 54zM713 1645l270 -215h-49l-242 182l-241 -182h-50l271 215h41z" />
    <glyph glyph-name="gcircumflex" unicode="&#x11d;" horiz-adv-x="1128" 
d="M926 279v-310q0 -174 -127 -248q-94 -53 -256 -53q-158 0 -246.5 76.5t-101.5 187.5l-41 -4q15 -134 121.5 -215.5t273.5 -81.5q181 0 291 72q125 84 125 264v1037h-39v-256q-111 272 -391 272q-189 0 -311 -136t-122 -374q0 -241 119 -377.5t309 -136.5q140 0 245 76.5
t151 206.5zM530 33q-168 0 -276.5 125t-108.5 352q0 224 110.5 348.5t276.5 124.5q77 0 145.5 -26t127 -79.5t93 -148t34.5 -219.5q0 -101 -23.5 -183t-62.5 -135.5t-91.5 -90t-108.5 -52.5t-116 -16zM586 1360l270 -242h-49l-242 209l-241 -209h-50l271 242h41z" />
    <glyph glyph-name="Gbreve" unicode="&#x11e;" horiz-adv-x="1409" 
d="M702 1384q219 0 372 -111.5t192 -316.5l-41 -6q-39 193 -179.5 295.5t-345.5 102.5q-263 0 -419 -183t-156 -485q0 -303 154 -485.5t413 -182.5q82 0 157.5 17.5t145.5 57t120.5 97.5t81 146.5t30.5 197.5v70h-404v39h443v-637h-39v313q-45 -147 -181.5 -242.5
t-353.5 -95.5q-145 0 -261.5 53.5t-192 148.5t-116 223.5t-40.5 279.5q0 150 41 278.5t118 223t195.5 148.5t265.5 54zM915 1645h35q-7 -104 -76 -164t-176 -60t-176 60t-76 164h35q13 -99 72.5 -143t144.5 -44t144.5 44t72.5 143z" />
    <glyph glyph-name="gbreve" unicode="&#x11f;" horiz-adv-x="1128" 
d="M926 279v-310q0 -174 -127 -248q-94 -53 -256 -53q-158 0 -246.5 76.5t-101.5 187.5l-41 -4q15 -134 121.5 -215.5t273.5 -81.5q181 0 291 72q125 84 125 264v1037h-39v-256q-111 272 -391 272q-189 0 -311 -136t-122 -374q0 -241 119 -377.5t309 -136.5q140 0 245 76.5
t151 206.5zM530 33q-168 0 -276.5 125t-108.5 352q0 224 110.5 348.5t276.5 124.5q77 0 145.5 -26t127 -79.5t93 -148t34.5 -219.5q0 -101 -23.5 -183t-62.5 -135.5t-91.5 -90t-108.5 -52.5t-116 -16zM809 1360q-8 -122 -73.5 -187t-186.5 -65t-186.5 65t-73.5 187h35
q13 -117 68.5 -166t156.5 -49t156.5 49t68.5 166h35z" />
    <glyph glyph-name="Gdotaccent" unicode="&#x120;" horiz-adv-x="1409" 
d="M702 1384q219 0 372 -111.5t192 -316.5l-41 -6q-39 193 -179.5 295.5t-345.5 102.5q-263 0 -419 -183t-156 -485q0 -303 154 -485.5t413 -182.5q82 0 157.5 17.5t145.5 57t120.5 97.5t81 146.5t30.5 197.5v70h-404v39h443v-637h-39v313q-45 -147 -181.5 -242.5
t-353.5 -95.5q-145 0 -261.5 53.5t-192 148.5t-116 223.5t-40.5 279.5q0 150 41 278.5t118 223t195.5 148.5t265.5 54zM676 1626h39v-176h-39v176z" />
    <glyph glyph-name="gdotaccent" unicode="&#x121;" horiz-adv-x="1128" 
d="M926 279v-310q0 -174 -127 -248q-94 -53 -256 -53q-158 0 -246.5 76.5t-101.5 187.5l-41 -4q15 -134 121.5 -215.5t273.5 -81.5q181 0 291 72q125 84 125 264v1037h-39v-256q-111 272 -391 272q-189 0 -311 -136t-122 -374q0 -241 119 -377.5t309 -136.5q140 0 245 76.5
t151 206.5zM530 33q-168 0 -276.5 125t-108.5 352q0 224 110.5 348.5t276.5 124.5q77 0 145.5 -26t127 -79.5t93 -148t34.5 -219.5q0 -101 -23.5 -183t-62.5 -135.5t-91.5 -90t-108.5 -52.5t-116 -16zM524 1327h39v-176h-39v176z" />
    <glyph glyph-name="Gcommaaccent" unicode="&#x122;" horiz-adv-x="1409" 
d="M702 1384q219 0 372 -111.5t192 -316.5l-41 -6q-39 193 -179.5 295.5t-345.5 102.5q-263 0 -419 -183t-156 -485q0 -303 154 -485.5t413 -182.5q82 0 157.5 17.5t145.5 57t120.5 97.5t81 146.5t30.5 197.5v70h-404v39h443v-637h-39v313q-45 -147 -181.5 -242.5
t-353.5 -95.5q-145 0 -261.5 53.5t-192 148.5t-116 223.5t-40.5 279.5q0 150 41 278.5t118 223t195.5 148.5t265.5 54zM696 -88h39v-98q0 -48 -0.5 -70.5t-5 -55t-13.5 -49.5t-26 -34t-43 -27v41q33 18 41 59t8 136v98z" />
    <glyph glyph-name="gcommaaccent" unicode="&#x123;" horiz-adv-x="1128" 
d="M561 1098h-39v119q0 48 0.5 70.5t5 55t13.5 49t26 33.5t43 27v-41q-12 -7 -20.5 -16t-14 -23.5t-8.5 -27t-4.5 -37t-1.5 -40.5v-50v-119zM926 279v-310q0 -174 -127 -248q-94 -53 -256 -53q-158 0 -246.5 76.5t-101.5 187.5l-41 -4q15 -134 121.5 -215.5t273.5 -81.5
q181 0 291 72q125 84 125 264v1037h-39v-256q-111 272 -391 272q-189 0 -311 -136t-122 -374q0 -241 119 -377.5t309 -136.5q140 0 245 76.5t151 206.5zM530 33q-168 0 -276.5 125t-108.5 352q0 224 110.5 348.5t276.5 124.5q77 0 145.5 -26t127 -79.5t93 -148t34.5 -219.5
q0 -101 -23.5 -183t-62.5 -135.5t-91.5 -90t-108.5 -52.5t-116 -16z" />
    <glyph glyph-name="Hcircumflex" unicode="&#x124;" horiz-adv-x="1316" 
d="M1114 1360h39v-1360h-39v688h-911v-688h-39v1360h39v-635h911v635zM672 1645l270 -215h-49l-242 182l-241 -182h-50l271 215h41z" />
    <glyph glyph-name="hcircumflex" unicode="&#x125;" horiz-adv-x="1067" 
d="M600 1360l270 -262h-49l-241 229l-242 -229h-49l270 262h41zM203 1360v-641q15 55 42.5 104.5t71.5 96t112.5 73.5t152.5 27q151 0 237 -74q105 -91 105 -319v-627h-39v610q0 223 -94 308q-74 65 -213 65q-180 0 -277.5 -138.5t-97.5 -361.5v-483h-39v1360h39z" />
    <glyph glyph-name="Hbar" unicode="&#x126;" horiz-adv-x="1316" 
d="M1114 1360h39v-1360h-39v688h-911v-688h-39v1360h39v-307h911v307zM203 725h911v291h-911v-291z" />
    <glyph glyph-name="hbar" unicode="&#x127;" horiz-adv-x="1067" 
d="M203 1360v-182h356v-37h-356v-422q15 55 42.5 104.5t71.5 96t112.5 73.5t152.5 27q151 0 237 -74q105 -91 105 -319v-627h-39v610q0 223 -94 308q-74 65 -213 65q-180 0 -277.5 -138.5t-97.5 -361.5v-483h-39v1141h-164v37h164v182h39z" />
    <glyph glyph-name="Itilde" unicode="&#x128;" 
d="M287 1487q32 0 48.5 32.5t24.5 102.5h33q-9 -97 -35 -138t-71 -36q-33 3 -65 26.5t-53 48.5t-45.5 44t-45.5 16q-33 -6 -48.5 -37t-23.5 -98h-33q9 95 34.5 134.5t70.5 39.5q25 0 49.5 -14t44 -34t38 -39.5t38.5 -33.5t39 -14zM203 1360v-1360h-39v1360h39z" />
    <glyph glyph-name="itilde" unicode="&#x129;" 
d="M299 1182q66 0 82 139h35q-6 -85 -37.5 -130.5t-79.5 -45.5q-26 0 -51.5 14.5t-46.5 35t-41.5 40.5t-45 34.5t-48.5 14.5q-35 0 -53.5 -34.5t-26.5 -104.5h-35q6 83 37 129.5t78 46.5q28 0 55.5 -14.5t49 -35t42 -40.5t43 -34.5t43.5 -14.5zM164 1004h39v-1004h-39v1004z
" />
    <glyph glyph-name="Imacron" unicode="&#x12a;" 
d="M367 1522h-367v37h367v-37zM203 1360v-1360h-39v1360h39z" />
    <glyph glyph-name="imacron" unicode="&#x12b;" 
d="M358 1212h-350v37h350v-37zM164 1004h39v-1004h-39v1004z" />
    <glyph glyph-name="Ibreve" unicode="&#x12c;" 
d="M182 1421q-174 0 -190 224h35q13 -101 51.5 -144t103.5 -43t104 43t52 144h35q-16 -224 -191 -224zM203 1360v-1360h-39v1360h39z" />
    <glyph glyph-name="ibreve" unicode="&#x12d;" 
d="M184 1096q-91 0 -143 64t-55 200h34q8 -127 51.5 -177t112.5 -50t112.5 50t51.5 177h35q-3 -135 -55.5 -199.5t-143.5 -64.5zM164 1004h39v-1004h-39v1004z" />
    <glyph glyph-name="Iogonek" unicode="&#x12e;" 
d="M164 16v1344h39v-1360q-106 -56 -138 -85q-45 -40 -45 -83q0 -40 30.5 -60t82.5 -20q26 0 68 10v-38q-37 -9 -72 -9q-61 0 -106.5 28.5t-45.5 88.5q0 96 187 184z" />
    <glyph glyph-name="iogonek" unicode="&#x12f;" 
d="M203 1004v-1004q-106 -56 -138 -85q-45 -40 -45 -83q0 -40 30.5 -60t82.5 -20q26 0 68 10v-38q-37 -9 -72 -9q-61 0 -106.5 28.5t-45.5 88.5q0 96 187 184v988h39zM164 1360h39v-176h-39v176z" />
    <glyph glyph-name="Idotaccent" unicode="&#x130;" 
d="M164 1626h39v-176h-39v176zM203 1360v-1360h-39v1360h39z" />
    <glyph glyph-name="dotlessi" unicode="&#x131;" 
d="M164 1004h39v-1004h-39v1004z" />
    <glyph glyph-name="IJ" unicode="&#x132;" horiz-adv-x="790" 
d="M203 1360v-1360h-39v1360h39zM387 0v35h8q66 0 103 7.5t58 31.5t26.5 57.5t5.5 97.5v1131h39v-1141q0 -127 -42 -173t-171 -46h-27z" />
    <glyph glyph-name="ij" unicode="&#x133;" horiz-adv-x="733" 
d="M164 1004h39v-1004h-39v1004zM164 1360h39v-176h-39v176zM530 -125v1129h39v-1139q0 -127 -42 -173t-171 -46h-26v35h10q65 0 101 7.5t57 31t26.5 57.5t5.5 98zM530 1360h39v-176h-39v176z" />
    <glyph glyph-name="Jcircumflex" unicode="&#x134;" horiz-adv-x="423" 
d="M266 1645l209 -215h-49l-180 182l-180 -182h-50l209 215h41zM20 0v35h9q66 0 102.5 7t57.5 31.5t26.5 58t5.5 97.5v1131h39v-1141q0 -127 -42 -173t-171 -46h-27z" />
    <glyph glyph-name="jcircumflex" unicode="&#x135;" 
d="M164 -125v1129h39v-1139q0 -127 -42 -173t-171 -46h-27v35h14q65 0 100.5 7t55.5 31.5t25.5 58t5.5 97.5zM205 1360l209 -262h-49l-181 229l-180 -229h-49l209 262h41z" />
    <glyph glyph-name="Kcommaaccent" unicode="&#x136;" horiz-adv-x="1105" 
d="M203 1360v-795l823 795h49l-588 -569l629 -791h-51l-606 762l-256 -250v-512h-39v1360h39zM545 -88h39v-98q0 -48 -0.5 -70.5t-5 -55t-13.5 -49.5t-26 -34t-43 -27v41q33 18 41 59t8 136v98z" />
    <glyph glyph-name="kcommaaccent" unicode="&#x137;" horiz-adv-x="901" 
d="M164 1360h39v-946l563 590h47l-375 -394l463 -610h-47l-442 584l-209 -219v-365h-39v1360zM457 -88h39v-98q0 -48 -0.5 -70.5t-5 -55t-13.5 -49.5t-26 -34t-43 -27v41q33 18 41 59t8 136v98z" />
    <glyph glyph-name="kgreenlandic" unicode="&#x138;" horiz-adv-x="860" 
d="M164 1004h39v-568l522 568h47l-373 -404l461 -600h-47l-438 571l-172 -186v-385h-39v1004z" />
    <glyph glyph-name="Lacute" unicode="&#x139;" horiz-adv-x="991" 
d="M203 1360v-1323h788v-37h-827v1360h39zM475 1645l-262 -215h-49l256 215h55z" />
    <glyph glyph-name="lacute" unicode="&#x13a;" 
d="M203 1360v-1360h-39v1360h39zM471 1645l-262 -215h-49l256 215h55z" />
    <glyph glyph-name="Lcommaaccent" unicode="&#x13b;" horiz-adv-x="991" 
d="M203 1360v-1323h788v-37h-827v1360h39zM543 -88h39v-98q0 -48 -0.5 -70.5t-5 -55t-13.5 -49.5t-26 -34t-43 -27v41q33 18 41 59t8 136v98z" />
    <glyph glyph-name="lcommaaccent" unicode="&#x13c;" 
d="M203 1360v-1360h-39v1360h39zM164 -88h39v-98q0 -48 -0.5 -70.5t-5 -55t-13.5 -49.5t-26 -34t-43 -27v41q33 18 41 59t8 136v98z" />
    <glyph glyph-name="Lcaron" unicode="&#x13d;" horiz-adv-x="991" 
d="M522 1360l-61 -324h-33l55 324h39zM203 1360v-1323h788v-37h-827v1360h39z" />
    <glyph glyph-name="lcaron" unicode="&#x13e;" horiz-adv-x="364" 
d="M399 1360l-61 -324h-33l55 324h39zM203 1360v-1360h-39v1360h39z" />
    <glyph glyph-name="Ldot" unicode="&#x13f;" horiz-adv-x="991" 
d="M164 1626h39v-176h-39v176zM203 1360v-1323h788v-37h-827v1360h39z" />
    <glyph glyph-name="ldot" unicode="&#x140;" 
d="M164 1450v176h39v-176h-39zM203 1360v-1360h-39v1360h39z" />
    <glyph glyph-name="Lslash" unicode="&#x141;" horiz-adv-x="991" 
d="M0 449v40l164 113v758h39v-731l514 352v-41l-514 -352v-551h788v-37h-827v561z" />
    <glyph glyph-name="lslash" unicode="&#x142;" 
d="M0 578v40l164 125v617h39v-588l164 127v-41l-164 -127v-731h-39v702z" />
    <glyph glyph-name="Nacute" unicode="&#x143;" horiz-adv-x="1357" 
d="M1194 0h-39l-952 1294v-1294h-39v1360h39l952 -1294v1294h39v-1360zM891 1645l-262 -215h-49l256 215h55z" />
    <glyph glyph-name="nacute" unicode="&#x144;" horiz-adv-x="1067" 
d="M203 1004v-285q15 55 42.5 104.5t71.5 96t112.5 73.5t152.5 27q151 0 237 -74q105 -91 105 -319v-627h-39v610q0 223 -94 308q-74 65 -213 65q-180 0 -277.5 -138.5t-97.5 -361.5v-483h-39v1004h39zM760 1360l-248 -242h-49l244 242h53z" />
    <glyph glyph-name="Ncommaaccent" unicode="&#x145;" horiz-adv-x="1357" 
d="M1194 0h-39l-952 1294v-1294h-39v1360h39l952 -1294v1294h39v-1360zM686 -88h39v-98q0 -48 -0.5 -70.5t-5 -55t-13.5 -49.5t-26 -34t-43 -27v41q33 18 41 59t8 136v98z" />
    <glyph glyph-name="ncommaaccent" unicode="&#x146;" horiz-adv-x="1067" 
d="M203 1004v-285q15 55 42.5 104.5t71.5 96t112.5 73.5t152.5 27q151 0 237 -74q105 -91 105 -319v-627h-39v610q0 223 -94 308q-74 65 -213 65q-180 0 -277.5 -138.5t-97.5 -361.5v-483h-39v1004h39zM535 -88h38v-98q0 -48 -0.5 -70.5t-5 -55t-13.5 -49.5t-26 -34t-43 -27
v41q34 19 42 60t8 135v98z" />
    <glyph glyph-name="Ncaron" unicode="&#x147;" horiz-adv-x="1357" 
d="M1194 0h-39l-952 1294v-1294h-39v1360h39l952 -1294v1294h39v-1360zM682 1430l-270 215h49l241 -183l242 183h49l-270 -215h-41z" />
    <glyph glyph-name="ncaron" unicode="&#x148;" horiz-adv-x="1067" 
d="M203 1004v-285q15 55 42.5 104.5t71.5 96t112.5 73.5t152.5 27q151 0 237 -74q105 -91 105 -319v-627h-39v610q0 223 -94 308q-74 65 -213 65q-180 0 -277.5 -138.5t-97.5 -361.5v-483h-39v1004h39zM535 1118l-271 242h49l242 -209l242 209h49l-271 -242h-40z" />
    <glyph glyph-name="napostrophe" unicode="&#x149;" horiz-adv-x="1067" 
d="M203 1004v-285q15 55 42.5 104.5t71.5 96t112.5 73.5t152.5 27q151 0 237 -74q105 -91 105 -319v-627h-39v610q0 223 -94 308q-74 65 -213 65q-180 0 -277.5 -138.5t-97.5 -361.5v-483h-39v1004h39zM164 1425h39v-98q0 -48 -0.5 -70.5t-5 -55t-13.5 -49t-26 -33.5
t-43 -27v41q12 7 20.5 16t14 23.5t8.5 27t4.5 37t1.5 40.5v50v98z" />
    <glyph glyph-name="Eng" unicode="&#x14a;" horiz-adv-x="1357" 
d="M1155 0l-952 1294v-1294h-39v1360h39l952 -1294v1294h39v-1495q0 -127 -42 -173t-171 -46h-27v35h9q54 0 86.5 5.5t55 16.5t32.5 35.5t14 54.5t4 82v125z" />
    <glyph glyph-name="eng" unicode="&#x14b;" horiz-adv-x="1067" 
d="M885 -125v750q0 190 -76.5 274t-230.5 84q-180 0 -277.5 -138.5t-97.5 -361.5v-483h-39v1004h39v-285q12 44 31 83.5t51 80.5t73 70.5t100.5 48t129.5 18.5q169 0 252.5 -95.5t83.5 -273.5v-786q0 -127 -42 -173t-171 -46h-27v35h8q67 0 104 7t57.5 31.5t26 57.5t5.5 98z
" />
    <glyph glyph-name="Omacron" unicode="&#x14c;" horiz-adv-x="1417" 
d="M1292 680q0 158 -44.5 286t-123 211t-184.5 127t-231 44t-231.5 -44t-185 -127t-123 -211t-44.5 -286t44.5 -286t123 -211t185 -127t231.5 -44t231 44t184.5 127t123 211t44.5 286zM1335 680q0 -316 -169 -510.5t-457 -194.5t-457.5 194.5t-169.5 510.5t169.5 510
t457.5 194t457 -194t169 -510zM942 1522h-473v37h473v-37z" />
    <glyph glyph-name="omacron" unicode="&#x14d;" horiz-adv-x="1114" 
d="M145 498q0 -230 116.5 -358t295.5 -128t295.5 128t116.5 358t-116.5 357.5t-295.5 127.5t-295.5 -127.5t-116.5 -357.5zM102 498q0 125 36 225.5t98 164.5t144 98t177 34t177 -34t144 -98t98 -164.5t36 -225.5t-36 -225.5t-98 -165t-144 -98.5t-177 -34t-177 34
t-144 98.5t-98 165t-36 225.5zM793 1212h-474v37h474v-37z" />
    <glyph glyph-name="Obreve" unicode="&#x14e;" horiz-adv-x="1417" 
d="M1292 680q0 158 -44.5 286t-123 211t-184.5 127t-231 44t-231.5 -44t-185 -127t-123 -211t-44.5 -286t44.5 -286t123 -211t185 -127t231.5 -44t231 44t184.5 127t123 211t44.5 286zM1335 680q0 -316 -169 -510.5t-457 -194.5t-457.5 194.5t-169.5 510.5t169.5 510
t457.5 194t457 -194t169 -510zM934 1645h35q-7 -104 -76 -164t-176 -60t-176 60t-76 164h35q13 -99 72.5 -143t144.5 -44t144.5 44t72.5 143z" />
    <glyph glyph-name="obreve" unicode="&#x14f;" horiz-adv-x="1114" 
d="M145 498q0 -230 116.5 -358t295.5 -128t295.5 128t116.5 358t-116.5 357.5t-295.5 127.5t-295.5 -127.5t-116.5 -357.5zM102 498q0 125 36 225.5t98 164.5t144 98t177 34t177 -34t144 -98t98 -164.5t36 -225.5t-36 -225.5t-98 -165t-144 -98.5t-177 -34t-177 34
t-144 98.5t-98 165t-36 225.5zM819 1360q-8 -122 -73.5 -187t-186.5 -65t-186.5 65t-73.5 187h35q13 -117 68.5 -166t156.5 -49t156.5 49t68.5 166h35z" />
    <glyph glyph-name="Ohungarumlaut" unicode="&#x150;" horiz-adv-x="1417" 
d="M1292 680q0 158 -44.5 286t-123 211t-184.5 127t-231 44t-231.5 -44t-185 -127t-123 -211t-44.5 -286t44.5 -286t123 -211t185 -127t231.5 -44t231 44t184.5 127t123 211t44.5 286zM1335 680q0 -316 -169 -510.5t-457 -194.5t-457.5 194.5t-169.5 510.5t169.5 510
t457.5 194t457 -194t169 -510zM778 1645l-262 -215h-49l256 215h55zM1126 1645l-262 -215h-49l256 215h55z" />
    <glyph glyph-name="ohungarumlaut" unicode="&#x151;" horiz-adv-x="1114" 
d="M145 498q0 -230 116.5 -358t295.5 -128t295.5 128t116.5 358t-116.5 357.5t-295.5 127.5t-295.5 -127.5t-116.5 -357.5zM102 498q0 125 36 225.5t98 164.5t144 98t177 34t177 -34t144 -98t98 -164.5t36 -225.5t-36 -225.5t-98 -165t-144 -98.5t-177 -34t-177 34
t-144 98.5t-98 165t-36 225.5zM651 1360l-248 -242h-49l244 242h53zM975 1360l-248 -242h-49l244 242h53z" />
    <glyph glyph-name="OE" unicode="&#x152;" horiz-adv-x="2201" 
d="M709 1384q218 0 367 -115.5t210 -318.5v410h848v-37h-809v-598h762v-37h-762v-651h809v-37h-848v410q-61 -204 -210 -319.5t-367 -115.5q-288 0 -457.5 194.5t-169.5 510.5t169.5 510t457.5 194zM1292 680q0 158 -44.5 286t-123 211t-184.5 127t-231 44t-231.5 -44
t-185 -127t-123 -211t-44.5 -286t44.5 -286t123 -211t185 -127t231.5 -44t231 44t184.5 127t123 211t44.5 286z" />
    <glyph glyph-name="oe" unicode="&#x153;" horiz-adv-x="1984" 
d="M102 498q0 132 35.5 233.5t98.5 163.5t144 93.5t177 31.5q79 0 148 -21.5t126.5 -64t99 -111.5t60.5 -159q39 165 156 260.5t289 95.5q207 0 327.5 -138.5t120.5 -367.5h-874q-1 -125 33.5 -223.5t94.5 -158t135 -90t159 -30.5q156 0 258.5 73t134.5 216l41 -10
q-34 -148 -148.5 -232t-285.5 -84q-173 0 -287.5 96.5t-153.5 260.5q-26 -120 -90.5 -201.5t-151 -118.5t-192.5 -37q-96 0 -177 31.5t-144 93.5t-98.5 164t-35.5 234zM145 498q0 -123 32 -218t88.5 -152.5t130 -86.5t161.5 -29t161.5 29t131 86.5t89.5 152.5t32 218
q0 241 -115.5 363t-298.5 122q-88 0 -161.5 -29t-130 -86.5t-88.5 -152t-32 -217.5zM1434 983q-184 0 -297 -119t-127 -315h831q-2 185 -112 309.5t-295 124.5z" />
    <glyph glyph-name="Racute" unicode="&#x154;" horiz-adv-x="1165" 
d="M1051 0l-334 647q-71 -8 -170 -8h-344v-639h-39v1360h385q99 0 173 -8.5t143 -31.5t113.5 -62.5t70.5 -104.5t26 -154q0 -159 -82.5 -240t-236.5 -106l340 -653h-45zM528 1323h-325v-647h325q67 0 118 2.5t106 11t94.5 22.5t76.5 38.5t59.5 58t36 81.5t13.5 109
t-13.5 109t-36 81.5t-59.5 58t-76.5 39t-94.5 23t-106 11t-118 2.5zM729 1645l-262 -215h-49l256 215h55z" />
    <glyph glyph-name="racute" unicode="&#x155;" horiz-adv-x="552" 
d="M545 1010v-41h-4q-91 0 -158 -37t-105 -104t-55.5 -150t-17.5 -186v-492h-39v1004h35v-287q31 130 113.5 211.5t224.5 81.5h6zM504 1360l-248 -242h-49l244 242h53z" />
    <glyph glyph-name="Rcommaaccent" unicode="&#x156;" horiz-adv-x="1165" 
d="M1051 0l-334 647q-71 -8 -170 -8h-344v-639h-39v1360h385q99 0 173 -8.5t143 -31.5t113.5 -62.5t70.5 -104.5t26 -154q0 -159 -82.5 -240t-236.5 -106l340 -653h-45zM528 1323h-325v-647h325q67 0 118 2.5t106 11t94.5 22.5t76.5 38.5t59.5 58t36 81.5t13.5 109
t-13.5 109t-36 81.5t-59.5 58t-76.5 39t-94.5 23t-106 11t-118 2.5zM580 -88h38v-98q0 -48 -0.5 -70.5t-5 -55t-13.5 -49.5t-26 -34t-43 -27v41q34 19 42 60t8 135v98z" />
    <glyph glyph-name="rcommaaccent" unicode="&#x157;" horiz-adv-x="552" 
d="M543 1010v-41h-4q-91 0 -158 -37t-105 -104t-55.5 -150t-17.5 -186v-492h-39v1004h35v-287q31 130 113.5 211.5t224.5 81.5h6zM164 -88h39v-98q0 -48 -0.5 -70.5t-5 -55t-13.5 -49.5t-26 -34t-43 -27v41q33 18 41 59t8 136v98z" />
    <glyph glyph-name="Rcaron" unicode="&#x158;" horiz-adv-x="1165" 
d="M1051 0l-334 647q-71 -8 -170 -8h-344v-639h-39v1360h385q99 0 173 -8.5t143 -31.5t113.5 -62.5t70.5 -104.5t26 -154q0 -159 -82.5 -240t-236.5 -106l340 -653h-45zM528 1323h-325v-647h325q67 0 118 2.5t106 11t94.5 22.5t76.5 38.5t59.5 58t36 81.5t13.5 109
t-13.5 109t-36 81.5t-59.5 58t-76.5 39t-94.5 23t-106 11t-118 2.5zM516 1430l-270 215h49l242 -183l241 183h49l-270 -215h-41z" />
    <glyph glyph-name="rcaron" unicode="&#x159;" horiz-adv-x="552" 
d="M543 1010v-41h-4q-91 0 -158 -37t-105 -104t-55.5 -150t-17.5 -186v-492h-39v1004h35v-287q31 130 113.5 211.5t224.5 81.5h6zM309 1118l-270 242h49l242 -209l241 209h50l-271 -242h-41z" />
    <glyph glyph-name="Sacute" unicode="&#x15a;" horiz-adv-x="1206" 
d="M123 1067q0 83 40 146.5t107.5 99.5t146 53.5t165.5 17.5q201 0 337 -94t175 -276l-41 -6q-26 115 -94 192.5t-163 112.5t-214 35q-81 0 -153.5 -15.5t-132.5 -47.5t-95 -86.5t-35 -125.5q0 -236 332 -313l174 -41q50 -12 87.5 -22.5t87 -28t85 -36.5t73 -48t60.5 -62
t38 -78.5t15 -97.5q0 -94 -43 -167t-116.5 -116.5t-162.5 -65.5t-188 -22q-100 0 -185 23.5t-157 73t-122 134t-72 197.5l41 5q22 -107 69 -185t113.5 -123.5t143 -66.5t167.5 -21q59 0 118.5 9t124 32.5t113.5 59.5t81 95.5t32 135.5q0 60 -22 109.5t-57 83.5t-90 62
t-111 46t-129 35l-185 43q-56 13 -105 31t-96.5 47.5t-81.5 66t-54.5 87.5t-20.5 112zM854 1645l-262 -215h-49l256 215h55z" />
    <glyph glyph-name="sacute" unicode="&#x15b;" horiz-adv-x="950" 
d="M840 748l-41 -7q-53 242 -346 242q-74 0 -144 -21t-122 -70t-52 -116q0 -90 58.5 -139t173.5 -72l155 -30q62 -13 109 -27t92.5 -36.5t74.5 -50.5t46.5 -69t17.5 -92q0 -92 -52.5 -157.5t-137.5 -96.5t-193 -31q-181 0 -284 85.5t-132 234.5l41 6q60 -289 379 -289
q87 0 160.5 24t124.5 80.5t51 137.5q0 55 -21 96.5t-63.5 69t-93 45t-121.5 31.5l-155 30q-135 27 -204 87t-69 161q0 112 109 179t252 67q160 0 260.5 -69t126.5 -203zM641 1360l-248 -242h-49l244 242h53z" />
    <glyph glyph-name="Scircumflex" unicode="&#x15c;" horiz-adv-x="1206" 
d="M123 1067q0 83 40 146.5t107.5 99.5t146 53.5t165.5 17.5q201 0 337 -94t175 -276l-41 -6q-26 115 -94 192.5t-163 112.5t-214 35q-81 0 -153.5 -15.5t-132.5 -47.5t-95 -86.5t-35 -125.5q0 -236 332 -313l174 -41q50 -12 87.5 -22.5t87 -28t85 -36.5t73 -48t60.5 -62
t38 -78.5t15 -97.5q0 -94 -43 -167t-116.5 -116.5t-162.5 -65.5t-188 -22q-100 0 -185 23.5t-157 73t-122 134t-72 197.5l41 5q22 -107 69 -185t113.5 -123.5t143 -66.5t167.5 -21q59 0 118.5 9t124 32.5t113.5 59.5t81 95.5t32 135.5q0 60 -22 109.5t-57 83.5t-90 62
t-111 46t-129 35l-185 43q-56 13 -105 31t-96.5 47.5t-81.5 66t-54.5 87.5t-20.5 112zM608 1645l271 -215h-50l-241 182l-242 -182h-49l270 215h41z" />
    <glyph glyph-name="scircumflex" unicode="&#x15d;" horiz-adv-x="950" 
d="M840 748l-41 -7q-53 242 -346 242q-74 0 -144 -21t-122 -70t-52 -116q0 -90 58.5 -139t173.5 -72l155 -30q62 -13 109 -27t92.5 -36.5t74.5 -50.5t46.5 -69t17.5 -92q0 -92 -52.5 -157.5t-137.5 -96.5t-193 -31q-181 0 -284 85.5t-132 234.5l41 6q60 -289 379 -289
q87 0 160.5 24t124.5 80.5t51 137.5q0 55 -21 96.5t-63.5 69t-93 45t-121.5 31.5l-155 30q-135 27 -204 87t-69 161q0 112 109 179t252 67q160 0 260.5 -69t126.5 -203zM489 1360l271 -242h-49l-242 209l-242 -209h-49l271 242h40z" />
    <glyph glyph-name="Scedilla" unicode="&#x15e;" horiz-adv-x="1206" 
d="M498 -135l67 112q-93 5 -171 31t-144 75.5t-112 130.5t-66 189l41 5q22 -107 69 -185t113.5 -123.5t143 -66.5t167.5 -21q59 0 118.5 9t124 32.5t113.5 59.5t81 95.5t32 135.5q0 60 -22 109.5t-57 83.5t-90 62t-111 46t-129 35l-185 43q-56 13 -105 31t-96.5 47.5
t-81.5 66t-54.5 87.5t-20.5 112q0 83 40 146.5t107.5 99.5t146 53.5t165.5 17.5q201 0 337 -94t175 -276l-41 -6q-26 115 -94 192.5t-163 112.5t-214 35q-81 0 -153.5 -15.5t-132.5 -47.5t-95 -86.5t-35 -125.5q0 -236 332 -313l174 -41q50 -12 87.5 -22.5t87 -28t85 -36.5
t73 -48t60.5 -62t38 -78.5t15 -97.5q0 -94 -43 -167t-116.5 -116.5t-162.5 -65.5t-188 -22h-4l-53 -88q28 7 57 7q64 0 103 -32t39 -87q0 -70 -51 -103.5t-124 -33.5q-65 0 -122 26l10 37q64 -27 117 -27t91 24.5t38 74.5q0 43 -32 65.5t-77 22.5q-46 0 -86 -21z" />
    <glyph glyph-name="scedilla" unicode="&#x15f;" horiz-adv-x="950" 
d="M303 -336l10 37q64 -27 117 -27t91 24.5t38 74.5q0 43 -31.5 65.5t-76.5 22.5q-46 0 -86 -21l-17 25l68 115q-152 14 -239.5 97t-113.5 218l41 6q60 -289 379 -289q87 0 160.5 24t124.5 80.5t51 137.5q0 55 -21 96.5t-63.5 69t-93 45t-121.5 31.5l-155 30
q-135 27 -204 87t-69 161q0 112 109 179t252 67q160 0 260.5 -69t126.5 -203l-41 -7q-53 242 -346 242q-74 0 -144 -21t-122 -70t-52 -116q0 -90 58.5 -139t173.5 -72l155 -30q62 -13 109 -27t92.5 -36.5t74.5 -50.5t46.5 -69t17.5 -92q0 -92 -52.5 -157.5t-137.5 -96.5
t-193 -31h-24l-54 -88q28 7 58 7q64 0 102.5 -32t38.5 -87q0 -70 -50.5 -103.5t-123.5 -33.5q-66 0 -123 26z" />
    <glyph glyph-name="Scaron" unicode="&#x160;" horiz-adv-x="1206" 
d="M123 1067q0 83 40 146.5t107.5 99.5t146 53.5t165.5 17.5q201 0 337 -94t175 -276l-41 -6q-26 115 -94 192.5t-163 112.5t-214 35q-81 0 -153.5 -15.5t-132.5 -47.5t-95 -86.5t-35 -125.5q0 -236 332 -313l174 -41q50 -12 87.5 -22.5t87 -28t85 -36.5t73 -48t60.5 -62
t38 -78.5t15 -97.5q0 -94 -43 -167t-116.5 -116.5t-162.5 -65.5t-188 -22q-100 0 -185 23.5t-157 73t-122 134t-72 197.5l41 5q22 -107 69 -185t113.5 -123.5t143 -66.5t167.5 -21q59 0 118.5 9t124 32.5t113.5 59.5t81 95.5t32 135.5q0 60 -22 109.5t-57 83.5t-90 62
t-111 46t-129 35l-185 43q-56 13 -105 31t-96.5 47.5t-81.5 66t-54.5 87.5t-20.5 112zM573 1430l-270 215h49l242 -183l242 183h49l-271 -215h-41z" />
    <glyph glyph-name="scaron" unicode="&#x161;" horiz-adv-x="950" 
d="M840 748l-41 -7q-53 242 -346 242q-74 0 -144 -21t-122 -70t-52 -116q0 -90 58.5 -139t173.5 -72l155 -30q62 -13 109 -27t92.5 -36.5t74.5 -50.5t46.5 -69t17.5 -92q0 -92 -52.5 -157.5t-137.5 -96.5t-193 -31q-181 0 -284 85.5t-132 234.5l41 6q60 -289 379 -289
q87 0 160.5 24t124.5 80.5t51 137.5q0 55 -21 96.5t-63.5 69t-93 45t-121.5 31.5l-155 30q-135 27 -204 87t-69 161q0 112 109 179t252 67q160 0 260.5 -69t126.5 -203zM446 1118l-270 242h49l242 -209l242 209h49l-271 -242h-41z" />
    <glyph glyph-name="Tcommaaccent" unicode="&#x162;" horiz-adv-x="1030" 
d="M369 -336l10 37q64 -27 117 -27t91 24.5t38 74.5q0 43 -32 65.5t-77 22.5q-46 0 -86 -21l-16 25l82 135v1323h-496v37h1030v-37h-495v-1323l-68 -113q28 7 57 7q64 0 103 -32t39 -87q0 -70 -50.5 -103.5t-123.5 -33.5q-66 0 -123 26z" />
    <glyph glyph-name="tcommaaccent" unicode="&#x163;" horiz-adv-x="569" 
d="M217 -342l10 37q64 -27 117 -27t91 24.5t38 74.5q0 43 -31.5 65.5t-76.5 22.5q-46 0 -86 -21l-17 25l88 147q-67 12 -89.5 58t-22.5 157v748h-187v35h187v272h38v-272h222v-35h-222v-717q0 -32 0.5 -50t1.5 -41t3.5 -35.5t7.5 -27.5t11.5 -22t17 -16t23.5 -12.5t31 -7
t38.5 -4.5t48.5 -1h39v-35h-54q-41 0 -57 2l-72 -121q24 6 58 6q64 0 102.5 -31.5t38.5 -86.5q0 -70 -51 -104t-123 -34q-64 0 -123 27z" />
    <glyph glyph-name="Tcaron" unicode="&#x164;" horiz-adv-x="1030" 
d="M496 0v1323h-496v37h1030v-37h-495v-1323h-39zM496 1430l-271 215h49l242 -183l242 183h49l-270 -215h-41z" />
    <glyph glyph-name="tcaron" unicode="&#x165;" horiz-adv-x="602" 
d="M623 1360l-62 -324h-33l56 324h39zM238 1004v272h38v-272h222v-35h-222v-717q0 -32 0.5 -50t1.5 -41t3.5 -35.5t7.5 -27.5t11.5 -22t17 -16t23.5 -12.5t31 -7t38.5 -4.5t48.5 -1h39v-35h-54q-128 0 -167 42t-39 179v748h-187v35h187z" />
    <glyph glyph-name="Tbar" unicode="&#x166;" horiz-adv-x="1030" 
d="M496 0v688h-349v37h349v598h-496v37h1030v-37h-495v-598h348v-37h-348v-688h-39z" />
    <glyph glyph-name="tbar" unicode="&#x167;" horiz-adv-x="569" 
d="M238 1004v272h38v-272h222v-35h-222v-252h222v-35h-222v-430q0 -32 0.5 -50t1.5 -41t3.5 -35.5t7.5 -27.5t11.5 -22t17 -16t23.5 -12.5t31 -7t38.5 -4.5t48.5 -1h39v-35h-54q-128 0 -167 42t-39 179v461h-187v35h187v252h-187v35h187z" />
    <glyph glyph-name="Utilde" unicode="&#x168;" horiz-adv-x="1335" 
d="M143 1360h39v-803q0 -278 113.5 -411.5t372.5 -133.5q258 0 371.5 133.5t113.5 411.5v803h39v-801q0 -301 -125 -442.5t-399 -141.5t-399.5 141.5t-125.5 442.5v801zM815 1491q95 0 117 131h37q-12 -82 -51.5 -125t-102.5 -43q-39 0 -81 20.5t-72.5 45t-72 45t-79.5 20.5
q-93 0 -115 -131h-37q12 80 51.5 124t100.5 44q43 0 87 -20.5t75 -45t70 -45t73 -20.5z" />
    <glyph glyph-name="utilde" unicode="&#x169;" horiz-adv-x="1036" 
d="M834 0v274q-15 -56 -41 -104.5t-69 -94.5t-111 -73t-154 -27q-167 0 -254 103q-72 86 -72 280v646h39v-629q0 -187 64 -269q70 -94 233 -94q119 0 203 65t123 169.5t39 236.5v521h38v-1004h-38zM655 1190q95 0 117 131h37q-12 -82 -51.5 -125t-102.5 -43q-39 0 -81 20.5
t-72.5 45t-72 45t-79.5 20.5q-92 0 -114 -131h-37q12 80 51 124t100 44q43 0 87 -20.5t75 -45t70 -45t73 -20.5z" />
    <glyph glyph-name="Umacron" unicode="&#x16a;" horiz-adv-x="1335" 
d="M143 1360h39v-803q0 -278 113.5 -411.5t372.5 -133.5q258 0 371.5 133.5t113.5 411.5v803h39v-801q0 -301 -125 -442.5t-399 -141.5t-399.5 141.5t-125.5 442.5v801zM903 1522h-473v37h473v-37z" />
    <glyph glyph-name="umacron" unicode="&#x16b;" horiz-adv-x="1036" 
d="M834 0v274q-15 -56 -41 -104.5t-69 -94.5t-111 -73t-154 -27q-167 0 -254 103q-72 86 -72 280v646h39v-629q0 -187 64 -269q70 -94 233 -94q119 0 203 65t123 169.5t39 236.5v521h38v-1004h-38zM729 1212h-473v37h473v-37z" />
    <glyph glyph-name="Ubreve" unicode="&#x16c;" horiz-adv-x="1335" 
d="M143 1360h39v-803q0 -278 113.5 -411.5t372.5 -133.5q258 0 371.5 133.5t113.5 411.5v803h39v-801q0 -301 -125 -442.5t-399 -141.5t-399.5 141.5t-125.5 442.5v801zM881 1645h34q-7 -105 -75.5 -164.5t-175.5 -59.5t-176 60t-76 164h34q13 -99 73 -143t145 -44t144.5 44
t72.5 143z" />
    <glyph glyph-name="ubreve" unicode="&#x16d;" horiz-adv-x="1036" 
d="M834 0v274q-15 -56 -41 -104.5t-69 -94.5t-111 -73t-154 -27q-167 0 -254 103q-72 86 -72 280v646h39v-629q0 -187 64 -269q70 -94 233 -94q119 0 203 65t123 169.5t39 236.5v521h38v-1004h-38zM762 1360q-8 -122 -73.5 -187t-186.5 -65t-186.5 65t-73.5 187h34
q13 -117 69 -166t157 -49t156.5 49t68.5 166h35z" />
    <glyph glyph-name="Uring" unicode="&#x16e;" horiz-adv-x="1335" 
d="M143 1360h39v-803q0 -278 113.5 -411.5t372.5 -133.5q258 0 371.5 133.5t113.5 411.5v803h39v-801q0 -301 -125 -442.5t-399 -141.5t-399.5 141.5t-125.5 442.5v801zM662 1733q67 0 113 -43.5t46 -108.5t-46 -108t-113 -43t-113.5 43t-46.5 108t46.5 108.5t113.5 43.5z
M662 1700q-50 0 -85.5 -32t-35.5 -87t35.5 -87t85.5 -32t85 32t35 87t-35 87t-85 32z" />
    <glyph glyph-name="uring" unicode="&#x16f;" horiz-adv-x="1036" 
d="M834 0v274q-15 -56 -41 -104.5t-69 -94.5t-111 -73t-154 -27q-167 0 -254 103q-72 86 -72 280v646h39v-629q0 -187 64 -269q70 -94 233 -94q119 0 203 65t123 169.5t39 236.5v521h38v-1004h-38zM506 1384q67 0 113.5 -43t46.5 -108t-46.5 -108.5t-113.5 -43.5
t-113.5 43.5t-46.5 108.5t46.5 108t113.5 43zM506 1352q-50 0 -85.5 -32t-35.5 -87t35.5 -87t85.5 -32t85.5 32t35.5 87t-35.5 87t-85.5 32z" />
    <glyph glyph-name="Uhungarumlaut" unicode="&#x170;" horiz-adv-x="1335" 
d="M143 1360h39v-803q0 -278 113.5 -411.5t372.5 -133.5q258 0 371.5 133.5t113.5 411.5v803h39v-801q0 -301 -125 -442.5t-399 -141.5t-399.5 141.5t-125.5 442.5v801zM686 1645l-262 -215h-49l256 215h55zM1034 1645l-262 -215h-49l256 215h55z" />
    <glyph glyph-name="uhungarumlaut" unicode="&#x171;" horiz-adv-x="1036" 
d="M834 0v274q-15 -56 -41 -104.5t-69 -94.5t-111 -73t-154 -27q-167 0 -254 103q-72 86 -72 280v646h39v-629q0 -187 64 -269q70 -94 233 -94q119 0 203 65t123 169.5t39 236.5v521h38v-1004h-38zM578 1360l-248 -242h-49l243 242h54zM901 1360l-248 -242h-49l244 242h53z
" />
    <glyph glyph-name="Uogonek" unicode="&#x172;" horiz-adv-x="1335" 
d="M143 1360h39v-803q0 -278 113.5 -411.5t372.5 -133.5q258 0 371.5 133.5t113.5 411.5v803h39v-801q0 -295 -120.5 -436.5t-381.5 -147.5q-64 -36 -99.5 -70t-35.5 -73q0 -40 30.5 -60t82.5 -20q25 0 67 10v-38q-38 -9 -71 -9q-61 0 -106.5 28.5t-45.5 88.5q0 38 34 76
t85 67q-254 9 -371 150.5t-117 433.5v801z" />
    <glyph glyph-name="uogonek" unicode="&#x173;" horiz-adv-x="1036" 
d="M872 1004v-1004q-105 -56 -138 -86q-44 -39 -44 -82q0 -40 30.5 -60t82.5 -20q25 0 67 10v-38q-38 -9 -71 -9q-61 0 -106.5 28.5t-45.5 88.5q0 96 187 184v258q-15 -56 -41 -104.5t-69 -94.5t-111 -73t-154 -27q-167 0 -254 103q-72 86 -72 280v646h39v-629
q0 -187 64 -269q70 -94 233 -94q119 0 203 65t123 169.5t39 236.5v521h38z" />
    <glyph glyph-name="Wcircumflex" unicode="&#x174;" horiz-adv-x="1693" 
d="M868 1360l392 -1290l391 1290h43l-418 -1360h-33l-397 1300l-395 -1300h-33l-418 1360h43l391 -1290l391 1290h43zM866 1645l271 -215h-50l-241 182l-242 -182h-49l270 215h41z" />
    <glyph glyph-name="wcircumflex" unicode="&#x175;" horiz-adv-x="1363" 
d="M659 1004l-307 -951l-307 951h-45l332 -1004h41l309 948l309 -948h41l332 1004h-45l-307 -951l-307 951h-46zM702 1360l271 -242h-49l-242 209l-242 -209h-49l271 242h40z" />
    <glyph glyph-name="Ycircumflex" unicode="&#x176;" horiz-adv-x="989" 
d="M-20 1360h45l469 -809l471 809h45l-496 -854v-506h-39v506zM514 1645l270 -215h-49l-241 182l-242 -182h-49l270 215h41z" />
    <glyph glyph-name="ycircumflex" unicode="&#x177;" horiz-adv-x="868" 
d="M94 -354h49q40 0 70 5t55 20.5t42 31.5t36 50t32.5 63.5t35.5 83.5l454 1104h-45l-387 -953l-391 953h-45l416 -1002l-41 -102q-55 -137 -98.5 -178t-129.5 -41h-53v-35zM453 1360l270 -242h-49l-242 209l-242 -209h-49l271 242h41z" />
    <glyph glyph-name="Ydieresis" unicode="&#x178;" horiz-adv-x="989" 
d="M-20 1360h45l469 -809l471 809h45l-496 -854v-506h-39v506zM256 1626h39v-176h-39v176zM700 1626h39v-176h-39v176z" />
    <glyph glyph-name="Zacute" unicode="&#x179;" horiz-adv-x="1159" 
d="M1075 1360v-37l-956 -1286h985v-37h-1032v37l956 1286h-881v37h928zM825 1645l-262 -215h-49l256 215h55z" />
    <glyph glyph-name="zacute" unicode="&#x17a;" horiz-adv-x="882" 
d="M61 33v-33h760v37h-708l698 934v33h-707v-37h656zM713 1360l-248 -242h-49l243 242h54z" />
    <glyph glyph-name="Zdotaccent" unicode="&#x17b;" horiz-adv-x="1159" 
d="M1075 1360v-37l-956 -1286h985v-37h-1032v37l956 1286h-881v37h928zM586 1626h39v-176h-39v176z" />
    <glyph glyph-name="zdotaccent" unicode="&#x17c;" horiz-adv-x="882" 
d="M61 33v-33h760v37h-708l698 934v33h-707v-37h656zM420 1327h39v-176h-39v176z" />
    <glyph glyph-name="Zcaron" unicode="&#x17d;" horiz-adv-x="1159" 
d="M1075 1360v-37l-956 -1286h985v-37h-1032v37l956 1286h-881v37h928zM604 1430l-270 215h49l242 -183l241 183h49l-270 -215h-41z" />
    <glyph glyph-name="zcaron" unicode="&#x17e;" horiz-adv-x="882" 
d="M61 33v-33h760v37h-708l698 934v33h-707v-37h656zM455 1118l-271 242h49l242 -209l242 209h49l-270 -242h-41z" />
    <glyph glyph-name="uni0186" unicode="&#x186;" horiz-adv-x="1341" 
d="M111 963l-41 8q46 196 201.5 304.5t373.5 108.5q195 0 336 -93.5t210 -251t69 -359.5q0 -120 -26 -227t-78.5 -194.5t-126 -151t-173 -98t-215.5 -34.5q-223 0 -380 108.5t-200 307.5l43 6q46 -188 189 -286.5t350 -98.5q260 0 417 183t157 485q0 303 -154 485.5
t-416 182.5q-204 0 -347.5 -100t-188.5 -285z" />
    <glyph glyph-name="uni018F" unicode="&#x18f;" horiz-adv-x="1382" 
d="M1300 680q0 -202 -71 -360.5t-212.5 -251.5t-334.5 -93q-283 0 -449 187.5t-172 496.5h1196q3 318 -151 503.5t-418 185.5q-204 0 -347.5 -100t-188.5 -285l-41 8q46 196 201.5 304.5t373.5 108.5q147 0 264.5 -53.5t193.5 -149t116 -223t40 -278.5zM684 12
q247 0 401.5 166t169.5 445h-1149q15 -289 174 -450t404 -161z" />
    <glyph glyph-name="uni0190" unicode="&#x190;" horiz-adv-x="1011" 
d="M950 37v-37h-391q-102 0 -183.5 20.5t-143.5 64t-96 116.5t-34 172q0 154 89.5 237t230.5 99q-132 27 -196 110t-64 205q0 77 23 135.5t62.5 96t97.5 61.5t123 33.5t144 9.5h297v-37h-297q-71 0 -128.5 -8t-110.5 -28.5t-89 -53t-57.5 -85.5t-21.5 -122q0 -303 383 -303
h286v-35h-288q-223 0 -332 -77.5t-109 -239.5q0 -88 31.5 -153.5t90 -104.5t134.5 -57.5t172 -18.5h377z" />
    <glyph glyph-name="uni019D" unicode="&#x19d;" horiz-adv-x="1357" 
d="M-37 -354v35h10q65 0 101 7.5t57 31t27 57.5t6 98v1485h39l952 -1294v1294h39v-1360h-39l-952 1294v-1429q0 -127 -42 -173t-171 -46h-27z" />
    <glyph glyph-name="uni019F" unicode="&#x19f;" horiz-adv-x="1417" 
d="M1335 680q0 -316 -169 -510.5t-457 -194.5t-457.5 194.5t-169.5 510.5t169.5 510t457.5 194t457 -194t169 -510zM709 12q124 0 229 43t183 124t123.5 205.5t47.5 279.5h-1167q2 -155 47.5 -279.5t124 -205.5t183.5 -124t229 -43zM709 1348q-254 0 -416 -171.5
t-168 -476.5h1167q-6 305 -168.5 476.5t-414.5 171.5z" />
    <glyph glyph-name="Ohorn" unicode="&#x1a0;" horiz-adv-x="1417" 
d="M1335 680q0 -316 -169 -510.5t-457 -194.5t-457.5 194.5t-169.5 510.5t169.5 510t457.5 194q184 0 338 -90q70 -41 122 -41q42 0 66.5 23.5t24.5 62.5q0 49 -31 109l37 20q37 -63 37 -133q0 -67 -45 -96.5t-113 -26.5q92 -95 141 -231.5t49 -300.5zM1292 680
q0 158 -44.5 286t-123 211t-184.5 127t-231 44t-231.5 -44t-185 -127t-123 -211t-44.5 -286t44.5 -286t123 -211t185 -127t231.5 -44t231 44t184.5 127t123 211t44.5 286z" />
    <glyph glyph-name="ohorn" unicode="&#x1a1;" horiz-adv-x="1114" 
d="M102 498q0 125 36 225.5t98 164.5t144 98t177 34q122 0 240 -66q43 -24 96 -24q42 0 66 23.5t24 62.5q0 48 -31 108l37 21q37 -63 37 -133q0 -65 -42 -95t-107 -30q135 -141 135 -389q0 -125 -36 -225.5t-98 -165t-144 -98.5t-177 -34t-177 34t-144 98.5t-98 165
t-36 225.5zM145 498q0 -230 116.5 -358t295.5 -128t295.5 128t116.5 358t-116.5 357.5t-295.5 127.5t-295.5 -127.5t-116.5 -357.5z" />
    <glyph glyph-name="Uhorn" unicode="&#x1af;" horiz-adv-x="1335" 
d="M143 1360h39v-803q0 -278 113.5 -411.5t372.5 -133.5q258 0 371.5 133.5t113.5 411.5v803h39q117 3 117 82q0 46 -31 102l37 19q35 -56 35 -121q0 -121 -158 -121v-762q0 -301 -125 -442.5t-399 -141.5t-399.5 141.5t-125.5 442.5v801z" />
    <glyph glyph-name="uhorn" unicode="&#x1b0;" horiz-adv-x="1036" 
d="M991 1085q0 49 -30 103l36 18q35 -56 35 -121q0 -120 -160 -120v-965h-38v274q-15 -56 -41 -104.5t-69 -94.5t-111 -73t-154 -27q-167 0 -254 103q-72 86 -72 280v646h39v-629q0 -187 64 -269q70 -94 233 -94q119 0 203 65t123 169.5t39 236.5v521h38q119 0 119 81z" />
    <glyph glyph-name="uni01C4" unicode="&#x1c4;" horiz-adv-x="2400" 
d="M1161 680q0 117 -24 212.5t-64.5 161.5t-100.5 115.5t-124 78t-144 46t-151 23.5t-154 6h-196v-1286h196q83 0 154 6t151 23.5t144 46t124 78t100.5 115.5t64.5 161.5t24 212.5zM164 1360h248q115 0 212.5 -13.5t189 -43.5t161 -82.5t122 -126t80 -178.5t27.5 -236
t-27.5 -236t-80 -178.5t-122 -126t-161 -82.5t-189 -43.5t-212.5 -13.5h-248v1360zM2331 1360v-37l-957 -1286h985v-37h-1032v37l957 1286h-881v37h928zM1866 1430l-271 215h50l241 -183l242 183h49l-270 -215h-41z" />
    <glyph glyph-name="uni01C5" unicode="&#x1c5;" horiz-adv-x="2127" 
d="M1161 680q0 117 -24 212.5t-64.5 161.5t-100.5 115.5t-124 78t-144 46t-151 23.5t-154 6h-196v-1286h196q83 0 154 6t151 23.5t144 46t124 78t100.5 115.5t64.5 161.5t24 212.5zM164 1360h248q115 0 212.5 -13.5t189 -43.5t161 -82.5t122 -126t80 -178.5t27.5 -236
t-27.5 -236t-80 -178.5t-122 -126t-161 -82.5t-189 -43.5t-212.5 -13.5h-248v1360zM1327 33v-33h760v37h-709l699 934v33h-707v-37h655zM1710 1118l-270 242h49l242 -209l241 209h49l-270 -242h-41z" />
    <glyph glyph-name="uni01C6" unicode="&#x1c6;" horiz-adv-x="1970" 
d="M965 1360v-1360h-39v262q-45 -132 -148.5 -209.5t-242.5 -77.5q-189 0 -311 141.5t-122 383.5q0 238 124.5 379t312.5 141q279 0 387 -277v617h39zM535 12q75 0 143.5 28t126 84.5t91.5 153.5t34 222t-33 221t-89.5 151.5t-124.5 83t-144 27.5q-166 0 -280 -129.5
t-114 -353.5q0 -227 111 -357.5t279 -130.5zM1169 0v33l699 934h-656v37h707v-33l-698 -934h708v-37h-760zM1548 1118l-270 242h49l242 -209l241 209h50l-271 -242h-41z" />
    <glyph glyph-name="uni01C7" unicode="&#x1c7;" horiz-adv-x="1415" 
d="M203 1360v-1323h788v-37h-827v1360h39zM1012 0v35h8q66 0 102.5 7t57.5 31.5t26.5 58t5.5 97.5v1131h39v-1141q0 -127 -42 -173t-171 -46h-26z" />
    <glyph glyph-name="uni01C8" unicode="&#x1c8;" horiz-adv-x="1357" 
d="M203 1360v-1323h788v-37h-827v1360h39zM1155 -125v1129h39v-1139q0 -127 -42 -173t-171 -46h-27v35h11q65 0 101 7.5t57 31t26.5 57.5t5.5 98zM1155 1360h39v-176h-39v176z" />
    <glyph glyph-name="uni01C9" unicode="&#x1c9;" horiz-adv-x="733" 
d="M203 1360v-1360h-39v1360h39zM530 -125v1129h39v-1139q0 -127 -42 -173t-171 -46h-26v35h10q65 0 101 7.5t57 31t26.5 57.5t5.5 98zM530 1360h39v-176h-39v176z" />
    <glyph glyph-name="uni01CA" unicode="&#x1ca;" horiz-adv-x="1781" 
d="M1194 0h-39l-952 1294v-1294h-39v1360h39l952 -1294v1294h39v-1360zM1378 0v35h8q66 0 103 7.5t58 31.5t26.5 57.5t5.5 97.5v1131h39v-1141q0 -127 -42 -173t-171 -46h-27z" />
    <glyph glyph-name="uni01CB" unicode="&#x1cb;" horiz-adv-x="1724" 
d="M1194 0h-39l-952 1294v-1294h-39v1360h39l952 -1294v1294h39v-1360zM1522 -125v1129h39v-1139q0 -127 -42 -173t-171 -46h-27v35h10q65 0 101 7.5t57 31t27 57.5t6 98zM1522 1360h39v-176h-39v176z" />
    <glyph glyph-name="uni01CC" unicode="&#x1cc;" horiz-adv-x="1433" 
d="M203 1004v-285q15 55 42.5 104.5t71.5 96t112.5 73.5t152.5 27q151 0 237 -74q105 -91 105 -319v-627h-39v610q0 223 -94 308q-74 65 -213 65q-180 0 -277.5 -138.5t-97.5 -361.5v-483h-39v1004h39zM1231 -125v1129h39v-1139q0 -127 -42 -173t-171 -46h-27v35h10
q65 0 101 7.5t57 31t27 57.5t6 98zM1231 1360h39v-176h-39v176z" />
    <glyph glyph-name="uni01F1" unicode="&#x1f1;" horiz-adv-x="2400" 
d="M1161 680q0 117 -24 212.5t-64.5 161.5t-100.5 115.5t-124 78t-144 46t-151 23.5t-154 6h-196v-1286h196q83 0 154 6t151 23.5t144 46t124 78t100.5 115.5t64.5 161.5t24 212.5zM164 1360h248q115 0 212.5 -13.5t189 -43.5t161 -82.5t122 -126t80 -178.5t27.5 -236
t-27.5 -236t-80 -178.5t-122 -126t-161 -82.5t-189 -43.5t-212.5 -13.5h-248v1360zM2331 1360v-37l-957 -1286h985v-37h-1032v37l957 1286h-881v37h928z" />
    <glyph glyph-name="uni01F2" unicode="&#x1f2;" horiz-adv-x="2127" 
d="M1161 680q0 117 -24 212.5t-64.5 161.5t-100.5 115.5t-124 78t-144 46t-151 23.5t-154 6h-196v-1286h196q83 0 154 6t151 23.5t144 46t124 78t100.5 115.5t64.5 161.5t24 212.5zM164 1360h248q115 0 212.5 -13.5t189 -43.5t161 -82.5t122 -126t80 -178.5t27.5 -236
t-27.5 -236t-80 -178.5t-122 -126t-161 -82.5t-189 -43.5t-212.5 -13.5h-248v1360zM1327 33v-33h760v37h-709l699 934v33h-707v-37h655z" />
    <glyph glyph-name="uni01F3" unicode="&#x1f3;" horiz-adv-x="1970" 
d="M965 1360v-1360h-39v262q-45 -132 -148.5 -209.5t-242.5 -77.5q-189 0 -311 141.5t-122 383.5q0 238 124.5 379t312.5 141q279 0 387 -277v617h39zM535 12q75 0 143.5 28t126 84.5t91.5 153.5t34 222t-33 221t-89.5 151.5t-124.5 83t-144 27.5q-166 0 -280 -129.5
t-114 -353.5q0 -227 111 -357.5t279 -130.5zM1169 0v33l699 934h-656v37h707v-33l-698 -934h708v-37h-760z" />
    <glyph glyph-name="Aringacute" unicode="&#x1fa;" horiz-adv-x="1114" 
d="M762 1911l-217 -178h12q67 0 113.5 -43.5t46.5 -108.5t-46.5 -108t-113.5 -43t-113.5 43t-46.5 108q0 71 54 115l256 215h55zM557 1700q-50 0 -85.5 -32t-35.5 -87t35.5 -87t85.5 -32t85.5 32t35.5 87t-35.5 87t-85.5 32zM0 0l541 1360h32l541 -1360h-43l-158 397h-712
l-158 -397h-43zM557 1298l-342 -864h684z" />
    <glyph glyph-name="aringacute" unicode="&#x1fb;" horiz-adv-x="1032" 
d="M668 1581l-201 -203q15 6 37 6q67 0 113.5 -43t46.5 -108t-46.5 -108.5t-113.5 -43.5q-68 0 -114 43t-46 109q0 74 84 158l186 190h54zM504 1352q-50 0 -85.5 -31.5t-35.5 -87.5q0 -55 35.5 -87t85.5 -32t85.5 32t35.5 87t-35.5 87t-85.5 32zM131 721l41 -2
q13 112 100.5 188t245.5 76q56 0 99.5 -6.5t87.5 -25.5t72.5 -51.5t46.5 -87.5t18 -130v-76l-254 -26q-161 -19 -254.5 -42.5t-151.5 -66.5q-90 -68 -90 -184q0 -140 94.5 -226t255.5 -86q143 0 251 72t149 195l8 -242h39q-13 191 -10 371q2 90 2 313q0 183 -91 259.5
t-266 76.5q-167 0 -272.5 -82t-120.5 -217zM844 442q0 -93 -24.5 -168t-64 -123t-92.5 -80t-107.5 -45.5t-111.5 -13.5q-143 0 -226 76t-83 197q0 116 102 174t330 82l277 28v-127z" />
    <glyph glyph-name="AEacute" unicode="&#x1fc;" horiz-adv-x="1763" 
d="M848 1360h848v-37h-809v-598h762v-37h-762v-651h809v-37h-848v397h-557l-248 -397h-43zM848 1286l-533 -852h533v852zM1497 1645l-262 -215h-49l256 215h55z" />
    <glyph glyph-name="aeacute" unicode="&#x1fd;" horiz-adv-x="1853" 
d="M131 723l41 -4q13 112 100.5 188t245.5 76q56 0 99.5 -6.5t87.5 -25.5t72.5 -51.5t46.5 -87.5t18 -130v-76l-254 -26q-157 -18 -251 -42.5t-153 -68.5q-92 -69 -92 -182q0 -140 94.5 -226t255.5 -86q69 0 133.5 18t123.5 55.5t103.5 104.5t65.5 156q42 -154 154.5 -244
t277.5 -90q171 0 286 84t149 232l-41 10q-32 -143 -135 -216t-259 -73q-84 0 -158.5 30.5t-134 90t-93.5 158t-33 223.5h872q0 229 -120.5 367.5t-327.5 138.5q-155 0 -265 -79t-161 -218q-10 161 -100 229t-255 68q-167 0 -272.5 -81.5t-120.5 -215.5zM444 12
q-143 0 -226 76t-83 197q0 116 102 174t330 82l277 28v-127q0 -93 -24.5 -168t-64 -123t-92.5 -80t-107.5 -45.5t-111.5 -13.5zM1710 549h-829q12 196 125 315t297 119q185 0 295 -124.5t112 -309.5zM1143 1360l-248 -242h-49l244 242h53z" />
    <glyph glyph-name="Oslashacute" unicode="&#x1fe;" horiz-adv-x="1417" 
d="M1335 680q0 -316 -169 -510.5t-457 -194.5q-267 0 -435 168l-141 -168l-29 25l146 172q-168 190 -168 508q0 316 169.5 510t457.5 194q259 0 426 -161l137 161l28 -24l-139 -166q174 -192 174 -514zM1292 680q0 302 -157 483l-834 -989q156 -162 408 -162q125 0 231 44
t184.5 127t123 211t44.5 286zM125 680q0 -295 151 -477l832 989q-156 156 -399 156q-125 0 -231.5 -44t-185 -127t-123 -211t-44.5 -286zM975 1645l-262 -215h-49l256 215h55z" />
    <glyph glyph-name="oslashacute" unicode="&#x1ff;" horiz-adv-x="1114" 
d="M102 498q0 125 36 225.5t98 164.5t144 98t177 34q174 0 297 -111l88 111l31 -21l-92 -116q131 -141 131 -385q0 -125 -36 -225.5t-98 -165t-144 -98.5t-177 -34q-182 0 -301 113l-88 -113l-29 23l92 117q-129 142 -129 383zM969 498q0 220 -113 352l-575 -731
q110 -107 276 -107q179 0 295.5 128t116.5 358zM145 498q0 -223 111 -353l573 732q-109 106 -272 106q-179 0 -295.5 -127.5t-116.5 -357.5zM788 1360l-247 -242h-49l243 242h53z" />
    <glyph glyph-name="Scommaaccent" unicode="&#x218;" horiz-adv-x="1206" 
d="M123 1067q0 83 40 146.5t107.5 99.5t146 53.5t165.5 17.5q201 0 337 -94t175 -276l-41 -6q-26 115 -94 192.5t-163 112.5t-214 35q-81 0 -153.5 -15.5t-132.5 -47.5t-95 -86.5t-35 -125.5q0 -236 332 -313l174 -41q50 -12 87.5 -22.5t87 -28t85 -36.5t73 -48t60.5 -62
t38 -78.5t15 -97.5q0 -94 -43 -167t-116.5 -116.5t-162.5 -65.5t-188 -22q-100 0 -185 23.5t-157 73t-122 134t-72 197.5l41 5q22 -107 69 -185t113.5 -123.5t143 -66.5t167.5 -21q59 0 118.5 9t124 32.5t113.5 59.5t81 95.5t32 135.5q0 60 -22 109.5t-57 83.5t-90 62
t-111 46t-129 35l-185 43q-56 13 -105 31t-96.5 47.5t-81.5 66t-54.5 87.5t-20.5 112zM600 -88h39v-98q0 -48 -0.5 -70.5t-5 -55t-13.5 -49.5t-26 -34t-43 -27v41q33 18 41 59t8 136v98z" />
    <glyph glyph-name="scommaaccent" unicode="&#x219;" horiz-adv-x="950" 
d="M840 748l-41 -7q-53 242 -346 242q-74 0 -144 -21t-122 -70t-52 -116q0 -90 58.5 -139t173.5 -72l155 -30q62 -13 109 -27t92.5 -36.5t74.5 -50.5t46.5 -69t17.5 -92q0 -92 -52.5 -157.5t-137.5 -96.5t-193 -31q-181 0 -284 85.5t-132 234.5l41 6q60 -289 379 -289
q87 0 160.5 24t124.5 80.5t51 137.5q0 55 -21 96.5t-63.5 69t-93 45t-121.5 31.5l-155 30q-135 27 -204 87t-69 161q0 112 109 179t252 67q160 0 260.5 -69t126.5 -203zM453 -88h39v-98q0 -112 -14.5 -162t-74.5 -74v41q34 19 42 60t8 135v98z" />
    <glyph glyph-name="uni021A" unicode="&#x21a;" horiz-adv-x="1030" 
d="M496 0v1323h-496v37h1030v-37h-495v-1323h-39zM496 -88h39v-98q0 -112 -14.5 -162t-74.5 -74v41q34 19 42 60t8 135v98z" />
    <glyph glyph-name="uni021B" unicode="&#x21b;" horiz-adv-x="569" 
d="M238 1004v272h38v-272h222v-35h-222v-717q0 -32 0.5 -50t1.5 -41t3.5 -35.5t7.5 -27.5t11.5 -22t17 -16t23.5 -12.5t31 -7t38.5 -4.5t48.5 -1h39v-35h-54q-128 0 -167 42t-39 179v748h-187v35h187zM266 -88h39v-98q0 -48 -0.5 -70.5t-5 -55t-13.5 -49.5t-26 -34t-43 -27
v41q33 18 41 59t8 136v98z" />
    <glyph glyph-name="uni021C" unicode="&#x21c;" horiz-adv-x="1040" 
d="M0 -377v39q120 7 227 21.5t217 41t198 68.5t158 98t108 135t38 175q0 80 -23 147.5t-70 122.5t-127 86t-185 31q-56 0 -156 -17q-1 7 -4 18.5t-4 18.5q101 24 176 48.5t145.5 59.5t115 76.5t71 98.5t26.5 127q0 147 -112 238.5t-297 91.5q-175 0 -302.5 -79.5
t-181.5 -221.5l-38 12q57 151 196 238t326 87q202 0 327 -99t125 -267q0 -275 -381 -393q197 -9 306.5 -121.5t109.5 -302.5q0 -89 -30 -164.5t-81.5 -132t-126.5 -102t-159.5 -76t-185.5 -52.5t-199 -33.5t-207 -17.5z" />
    <glyph glyph-name="uni021D" unicode="&#x21d;" horiz-adv-x="933" 
d="M39 745l-39 13q46 123 163.5 192.5t276.5 69.5q170 0 276.5 -79t106.5 -212q0 -57 -22.5 -105t-53.5 -79t-78.5 -57.5t-83 -40t-81.5 -27.5q165 -6 256.5 -95t91.5 -241q0 -411 -834 -459v37q100 5 189.5 17t181.5 32.5t165.5 53.5t132 76.5t90.5 105.5t32 137
q0 73 -25.5 132.5t-81.5 104.5t-145 58t-217 -6l-6 37q106 23 181 48.5t138 62.5t95 89t32 119q0 114 -93.5 184t-246.5 70q-147 0 -253.5 -62.5t-147.5 -175.5z" />
    <glyph glyph-name="uni0226" unicode="&#x226;" horiz-adv-x="1114" 
d="M0 0l541 1360h32l541 -1360h-43l-158 397h-712l-158 -397h-43zM557 1298l-342 -864h684zM539 1626h39v-176h-39v176z" />
    <glyph glyph-name="uni0227" unicode="&#x227;" horiz-adv-x="1032" 
d="M131 721l41 -2q13 112 100.5 188t245.5 76q56 0 99.5 -6.5t87.5 -25.5t72.5 -51.5t46.5 -87.5t18 -130v-76l-254 -26q-161 -19 -254.5 -42.5t-151.5 -66.5q-90 -68 -90 -184q0 -140 94.5 -226t255.5 -86q143 0 251 72t149 195l8 -242h39q-13 191 -10 371q2 90 2 313
q0 183 -91 259.5t-266 76.5q-167 0 -272.5 -82t-120.5 -217zM844 442q0 -93 -24.5 -168t-64 -123t-92.5 -80t-107.5 -45.5t-111.5 -13.5q-143 0 -226 76t-83 197q0 116 102 174t330 82l277 28v-127zM496 1327h39v-176h-39v176z" />
    <glyph glyph-name="uni0232" unicode="&#x232;" horiz-adv-x="989" 
d="M-20 1360h45l469 -809l471 809h45l-496 -854v-506h-39v506zM733 1522h-473v37h473v-37z" />
    <glyph glyph-name="uni0233" unicode="&#x233;" horiz-adv-x="868" 
d="M94 -354h49q40 0 70 5t55 20.5t42 31.5t36 50t32.5 63.5t35.5 83.5l454 1104h-45l-387 -953l-391 953h-45l416 -1002l-41 -102q-55 -137 -98.5 -178t-129.5 -41h-53v-35zM670 1212h-473v37h473v-37z" />
    <glyph glyph-name="dotlessj" unicode="&#x237;" 
d="M164 -125v1129h39v-1139q0 -127 -42 -173t-171 -46h-27v35h10q66 0 102.5 7t57 31.5t26 57.5t5.5 98z" />
    <glyph glyph-name="uni0254" unicode="&#x254;" horiz-adv-x="1071" 
d="M516 -25q-164 0 -271.5 83t-142.5 218l41 11q30 -125 128 -200t243 -75q84 0 157 30t130.5 89t91 154.5t33.5 216.5q0 218 -107 349.5t-297 131.5q-143 0 -244 -74.5t-131 -197.5l-41 10q35 132 145 215.5t271 83.5q209 0 328 -142.5t119 -377.5q0 -233 -120.5 -379
t-332.5 -146z" />
    <glyph glyph-name="uni0259" unicode="&#x259;" horiz-adv-x="1120" 
d="M561 1020q142 0 246.5 -68t157.5 -186t53 -270q0 -234 -127 -377.5t-340 -143.5q-207 0 -328 138.5t-121 367.5h873v13q0 121 -33.5 216.5t-91.5 154t-131.5 88.5t-157.5 30q-157 0 -262.5 -73t-136.5 -216l-41 11q34 148 151 231.5t289 83.5zM553 12q182 0 294 118
t126 316h-828q2 -185 112.5 -309.5t295.5 -124.5z" />
    <glyph glyph-name="uni025B" unicode="&#x25b;" horiz-adv-x="905" 
d="M827 37v-37h-383q-161 0 -253.5 67.5t-92.5 211.5q0 104 55.5 165.5t147.5 81.5q-82 25 -122 85t-40 143q0 71 25.5 121t73 77.5t105 39.5t132.5 12h322v-37h-324q-63 0 -112.5 -9.5t-91.5 -32.5t-64.5 -66t-22.5 -105q0 -213 275 -213h315v-37h-315q-316 0 -316 -228
q0 -123 84.5 -181t229.5 -58h372z" />
    <glyph glyph-name="uni0272" unicode="&#x272;" horiz-adv-x="1067" 
d="M164 -125v1129h39v-285q12 44 31 83.5t51 80.5t73 70.5t100.5 48t129.5 18.5q169 0 252.5 -95.5t83.5 -273.5v-651h-39v625q0 190 -76.5 274t-230.5 84q-180 0 -277.5 -138.5t-97.5 -361.5v-618q0 -127 -42 -173t-171 -46h-27v35h8q67 0 104 7t57.5 31.5t26 57.5t5.5 98z
" />
    <glyph glyph-name="uni0275" unicode="&#x275;" horiz-adv-x="1114" 
d="M102 498q0 125 36 225.5t98 164.5t144 98t177 34t177 -34t144 -98t98 -164.5t36 -225.5t-36 -225.5t-98 -165t-144 -98.5t-177 -34t-177 34t-144 98.5t-98 165t-36 225.5zM557 12q177 0 293 125t119 350h-824q3 -225 119 -350t293 -125zM557 983q-174 0 -289.5 -121
t-122.5 -338h824q-7 217 -122.5 338t-289.5 121z" />
    <glyph glyph-name="circumflex" unicode="&#x2c6;" horiz-adv-x="663" 
d="M352 1360l271 -242h-50l-241 209l-242 -209h-49l270 242h41z" />
    <glyph glyph-name="caron" unicode="&#x2c7;" horiz-adv-x="663" 
d="M311 1118l-270 242h49l242 -209l241 209h50l-271 -242h-41z" />
    <glyph glyph-name="breve" unicode="&#x2d8;" horiz-adv-x="602" 
d="M561 1360q-8 -122 -73.5 -187t-186.5 -65t-186.5 65t-73.5 187h35q13 -117 68.5 -166t156.5 -49t156.5 49t68.5 166h35z" />
    <glyph glyph-name="dotaccent" unicode="&#x2d9;" horiz-adv-x="120" 
d="M41 1327h39v-176h-39v176z" />
    <glyph glyph-name="ring" unicode="&#x2da;" horiz-adv-x="401" 
d="M201 1384q67 0 113 -43t46 -108t-46 -108.5t-113 -43.5t-113.5 43.5t-46.5 108.5t46.5 108t113.5 43zM201 1352q-50 0 -85.5 -32t-35.5 -87t35.5 -87t85.5 -32t85.5 32t35.5 87t-35.5 87t-85.5 32z" />
    <glyph glyph-name="ogonek" unicode="&#x2db;" horiz-adv-x="307" 
d="M227 6l39 -6q-43 -23 -67 -37.5t-55 -37t-45.5 -45.5t-14.5 -48q0 -40 30.5 -60t82.5 -20q25 0 67 10v-38q-37 -9 -71 -9q-61 0 -106.5 28.5t-45.5 88.5q0 51 58 100t128 74z" />
    <glyph glyph-name="tilde" unicode="&#x2dc;" horiz-adv-x="692" 
d="M498 1190q94 0 116 131h37q-12 -82 -51 -125t-102 -43q-39 0 -81 20.5t-72.5 45t-72 45t-79.5 20.5q-93 0 -115 -131h-37q12 80 51.5 124t100.5 44q43 0 87 -20.5t75 -45t70 -45t73 -20.5z" />
    <glyph glyph-name="hungarumlaut" unicode="&#x2dd;" horiz-adv-x="702" 
d="M338 1360l-248 -242h-49l244 242h53zM662 1360l-248 -242h-49l243 242h54z" />
    <glyph glyph-name="uni032C" unicode="&#x32c;" horiz-adv-x="663" 
d="M311 -262l-270 262h49l242 -229l241 229h50l-271 -262h-41z" />
    <glyph glyph-name="pi" unicode="&#x3c0;" horiz-adv-x="1163" 
d="M233 0h-38v967h-154v37h1081v-37h-157v-740q0 -50 1 -77.5t6.5 -52t12.5 -34.5t24 -17.5t36 -9t53 -1.5h24v-35h-30q-55 0 -82.5 5t-49 25.5t-28 59t-6.5 107.5v770h-693v-967z" />
    <glyph glyph-name="Wgrave" unicode="&#x1e80;" horiz-adv-x="1693" 
d="M868 1360l392 -1290l391 1290h43l-418 -1360h-33l-397 1300l-395 -1300h-33l-418 1360h43l391 -1290l391 1290h43zM909 1430l-262 215h55l256 -215h-49z" />
    <glyph glyph-name="wgrave" unicode="&#x1e81;" horiz-adv-x="1363" 
d="M659 1004l-307 -951l-307 951h-45l332 -1004h41l309 948l309 -948h41l332 1004h-45l-307 -951l-307 951h-46zM657 1118l-247 242h53l244 -242h-50z" />
    <glyph glyph-name="Wacute" unicode="&#x1e82;" horiz-adv-x="1693" 
d="M868 1360l392 -1290l391 1290h43l-418 -1360h-33l-397 1300l-395 -1300h-33l-418 1360h43l391 -1290l391 1290h43zM1071 1645l-262 -215h-49l256 215h55z" />
    <glyph glyph-name="wacute" unicode="&#x1e83;" horiz-adv-x="1363" 
d="M659 1004l-307 -951l-307 951h-45l332 -1004h41l309 948l309 -948h41l332 1004h-45l-307 -951l-307 951h-46zM958 1360l-247 -242h-49l243 242h53z" />
    <glyph glyph-name="Wdieresis" unicode="&#x1e84;" horiz-adv-x="1693" 
d="M868 1360l392 -1290l391 1290h43l-418 -1360h-33l-397 1300l-395 -1300h-33l-418 1360h43l391 -1290l391 1290h43zM604 1626h39v-176h-39v176zM1049 1626h38v-176h-38v176z" />
    <glyph glyph-name="wdieresis" unicode="&#x1e85;" horiz-adv-x="1363" 
d="M659 1004l-307 -951l-307 951h-45l332 -1004h41l309 948l309 -948h41l332 1004h-45l-307 -951l-307 951h-46zM440 1151v176h39v-176h-39zM885 1327h39v-176h-39v176z" />
    <glyph glyph-name="uni1EA0" unicode="&#x1ea0;" horiz-adv-x="1114" 
d="M0 0l541 1360h32l541 -1360h-43l-158 397h-712l-158 -397h-43zM557 1298l-342 -864h684zM539 -94h39v-176h-39v176z" />
    <glyph glyph-name="uni1EA1" unicode="&#x1ea1;" horiz-adv-x="1032" 
d="M172 719l-41 2q15 135 120.5 217t272.5 82q175 0 266 -76.5t91 -259.5q0 -223 -2 -313q-3 -180 10 -371h-39l-8 242q-41 -123 -149 -195t-251 -72q-161 0 -255.5 86t-94.5 226q0 116 90 184q58 43 151.5 66.5t254.5 42.5l254 26v76q0 75 -18 130t-46.5 87.5t-72.5 51.5
t-87.5 25.5t-99.5 6.5q-158 0 -245.5 -76t-100.5 -188zM844 442v127l-277 -28q-228 -24 -330 -82t-102 -174q0 -121 83 -197t226 -76q57 0 111.5 13.5t107.5 45.5t92.5 80t64 123t24.5 168zM502 -94h39v-176h-39v176z" />
    <glyph glyph-name="uni1EB8" unicode="&#x1eb8;" horiz-adv-x="1073" 
d="M164 0v1360h848v-37h-809v-598h762v-37h-762v-651h809v-37h-848zM559 -94h39v-176h-39v176z" />
    <glyph glyph-name="uni1EB9" unicode="&#x1eb9;" horiz-adv-x="1120" 
d="M575 -25q-214 0 -338 146t-124 379q0 234 126.5 377t340.5 143q208 0 329 -138.5t121 -367.5h-874v-12q0 -121 34.5 -216.5t93.5 -154t133 -89t158 -30.5q156 0 259 73t135 216l41 -6q-31 -149 -147 -234.5t-288 -85.5zM578 983q-183 0 -295.5 -118.5t-126.5 -315.5h831
q-2 185 -113 309.5t-296 124.5zM541 -94h39v-176h-39v176z" />
    <glyph glyph-name="uni1ECA" unicode="&#x1eca;" 
d="M203 1360v-1360h-39v1360h39zM164 -94h39v-176h-39v176z" />
    <glyph glyph-name="uni1ECB" unicode="&#x1ecb;" 
d="M164 1004h39v-1004h-39v1004zM164 1360h39v-176h-39v176zM164 -94h39v-176h-39v176z" />
    <glyph glyph-name="uni1ECC" unicode="&#x1ecc;" horiz-adv-x="1417" 
d="M1292 680q0 158 -44.5 286t-123 211t-184.5 127t-231 44t-231.5 -44t-185 -127t-123 -211t-44.5 -286t44.5 -286t123 -211t185 -127t231.5 -44t231 44t184.5 127t123 211t44.5 286zM1335 680q0 -316 -169 -510.5t-457 -194.5t-457.5 194.5t-169.5 510.5t169.5 510
t457.5 194t457 -194t169 -510zM696 -94h39v-176h-39v176z" />
    <glyph glyph-name="uni1ECD" unicode="&#x1ecd;" horiz-adv-x="1114" 
d="M145 498q0 -230 116.5 -358t295.5 -128t295.5 128t116.5 358t-116.5 357.5t-295.5 127.5t-295.5 -127.5t-116.5 -357.5zM102 498q0 125 36 225.5t98 164.5t144 98t177 34t177 -34t144 -98t98 -164.5t36 -225.5t-36 -225.5t-98 -165t-144 -98.5t-177 -34t-177 34
t-144 98.5t-98 165t-36 225.5zM539 -94h39v-176h-39v176z" />
    <glyph glyph-name="uni1EE4" unicode="&#x1ee4;" horiz-adv-x="1335" 
d="M143 1360h39v-803q0 -278 113.5 -411.5t372.5 -133.5q258 0 371.5 133.5t113.5 411.5v803h39v-801q0 -301 -125 -442.5t-399 -141.5t-399.5 141.5t-125.5 442.5v801zM647 -94h39v-176h-39v176z" />
    <glyph glyph-name="uni1EE5" unicode="&#x1ee5;" horiz-adv-x="1036" 
d="M834 0v274q-15 -56 -41 -104.5t-69 -94.5t-111 -73t-154 -27q-167 0 -254 103q-72 86 -72 280v646h39v-629q0 -187 64 -269q70 -94 233 -94q119 0 203 65t123 169.5t39 236.5v521h38v-1004h-38zM473 -94h39v-176h-39v176z" />
    <glyph glyph-name="Ygrave" unicode="&#x1ef2;" horiz-adv-x="989" 
d="M-20 1360h45l469 -809l471 809h45l-496 -854v-506h-39v506zM565 1430l-262 215h55l256 -215h-49z" />
    <glyph glyph-name="ygrave" unicode="&#x1ef3;" horiz-adv-x="868" 
d="M94 -354h49q40 0 70 5t55 20.5t42 31.5t36 50t32.5 63.5t35.5 83.5l454 1104h-45l-387 -953l-391 953h-45l416 -1002l-41 -102q-55 -137 -98.5 -178t-129.5 -41h-53v-35zM477 1118l-248 242h54l243 -242h-49z" />
    <glyph glyph-name="endash" unicode="&#x2013;" horiz-adv-x="1009" 
d="M907 496h-805v36h805v-36z" />
    <glyph glyph-name="emdash" unicode="&#x2014;" horiz-adv-x="1458" 
d="M1356 496h-1254v36h1254v-36z" />
    <glyph glyph-name="quoteleft" unicode="&#x2018;" 
d="M203 924h-39v180q0 49 0.5 72.5t5 60t13.5 55.5t26 38.5t43 29.5v-41q-23 -13 -34.5 -47.5t-13 -67t-1.5 -100.5v-180z" />
    <glyph glyph-name="quoteright" unicode="&#x2019;" 
d="M164 1360h39v-180q0 -49 -0.5 -72.5t-5 -60t-13.5 -55.5t-26 -38.5t-43 -29.5v41q23 13 34.5 47.5t13 67t1.5 100.5v180z" />
    <glyph glyph-name="quotesinglbase" unicode="&#x201a;" 
d="M164 178h39v-180q0 -49 -0.5 -72.5t-5 -60t-13.5 -55.5t-26 -38.5t-43 -29.5v41q23 13 34.5 47.5t13 67t1.5 100.5v180z" />
    <glyph glyph-name="quotedblleft" unicode="&#x201c;" horiz-adv-x="589" 
d="M426 924h-39v180q0 49 0.5 72.5t5 60t13.5 55.5t26 38.5t43 29.5v-41q-23 -13 -34.5 -47.5t-13 -67t-1.5 -100.5v-180zM203 924h-39v180q0 49 0.5 72.5t5 60t13.5 55.5t26 38.5t43 29.5v-41q-23 -13 -34.5 -47.5t-13 -67t-1.5 -100.5v-180z" />
    <glyph glyph-name="quotedblright" unicode="&#x201d;" horiz-adv-x="589" 
d="M164 1360h39v-180q0 -49 -0.5 -72.5t-5 -60t-13.5 -55.5t-26 -38.5t-43 -29.5v41q23 13 34.5 47.5t13 67t1.5 100.5v180zM387 1360h39v-180q0 -49 -0.5 -72.5t-5 -60t-13.5 -55.5t-26 -38.5t-43 -29.5v41q23 13 34.5 47.5t13 67t1.5 100.5v180z" />
    <glyph glyph-name="quotedblbase" unicode="&#x201e;" horiz-adv-x="620" 
d="M164 178h39v-180q0 -49 -0.5 -72.5t-5 -60t-13.5 -55.5t-26 -38.5t-43 -29.5v41q23 13 34.5 47.5t13 67t1.5 100.5v180zM418 178h39v-180q0 -49 -0.5 -72.5t-5 -60t-13.5 -55.5t-26 -38.5t-43 -29.5v41q23 13 34.5 47.5t13 67t1.5 100.5v180z" />
    <glyph glyph-name="dagger" unicode="&#x2020;" horiz-adv-x="980" 
d="M510 0h-39v844h-430v37h430v479h39v-479h430v-37h-430v-844z" />
    <glyph glyph-name="daggerdbl" unicode="&#x2021;" horiz-adv-x="978" 
d="M510 469h430v-37h-430v-432h-39v432h-430v37h430v442h-430v37h430v412h39v-412h430v-37h-430v-442z" />
    <glyph glyph-name="bullet" unicode="&#x2022;" horiz-adv-x="849" 
d="M82 530q0 139 99 238.5t237 99.5q148 0 249 -98.5t101 -239.5q0 -148 -100.5 -248t-249.5 -100q-139 0 -237.5 100.5t-98.5 247.5z" />
    <glyph glyph-name="ellipsis" unicode="&#x2026;" horiz-adv-x="1267" 
d="M164 0v178h39v-178h-39zM614 0v178h39v-178h-39zM1065 0v178h39v-178h-39z" />
    <glyph glyph-name="perthousand" unicode="&#x2030;" horiz-adv-x="2191" 
d="M340 569q-151 0 -227 107.5t-76 294.5t76 295t227 108t227 -108t76 -295t-76 -294.5t-227 -107.5zM340 604q122 0 191 93.5t69 273.5t-69.5 274t-190.5 94t-190.5 -94t-69.5 -274t69 -273.5t191 -93.5zM238 0h47l952 1360h-47zM1135 -14q-151 0 -227.5 107.5t-76.5 293.5
q0 187 76.5 295.5t227.5 108.5q150 0 226.5 -108.5t76.5 -295.5q0 -186 -76 -293.5t-227 -107.5zM1135 20q122 0 191 93.5t69 273.5q0 181 -69.5 275t-190.5 94t-191 -94.5t-70 -274.5t69.5 -273.5t191.5 -93.5zM1851 -14q-151 0 -227 107.5t-76 293.5q0 187 76.5 295.5
t226.5 108.5t226.5 -108.5t76.5 -295.5q0 -186 -76 -293.5t-227 -107.5zM1851 20q122 0 191 93.5t69 273.5q0 181 -69.5 275t-190.5 94t-190.5 -94t-69.5 -275q0 -180 69 -273.5t191 -93.5z" />
    <glyph glyph-name="guilsinglleft" unicode="&#x2039;" horiz-adv-x="421" 
d="M299 96l-299 424l297 426h43l-297 -424l297 -426h-41z" />
    <glyph glyph-name="guilsinglright" unicode="&#x203a;" horiz-adv-x="421" 
d="M422 520l-299 -424h-41l297 426l-297 424h43z" />
    <glyph glyph-name="fraction" unicode="&#x2044;" horiz-adv-x="139" 
d="M-383 0h-47l952 1360h47z" />
    <glyph glyph-name="zero.superior" unicode="&#x2070;" horiz-adv-x="774" 
d="M393 819q-151 0 -227 107.5t-76 294.5t76 295t227 108t227 -108t76 -295t-76 -294.5t-227 -107.5zM393 854q122 0 191 93.5t69 273.5t-69.5 274t-190.5 94t-190.5 -94t-69.5 -274t69 -273.5t191 -93.5z" />
    <glyph glyph-name="four.superior" unicode="&#x2074;" horiz-adv-x="684" 
d="M461 1554l-391 -464h391v464zM659 1090v-37h-159v-219h-39v219h-438v34l438 523h39v-520h159z" />
    <glyph glyph-name="five.superior" unicode="&#x2075;" horiz-adv-x="673" 
d="M338 854q100 0 165.5 61.5t65.5 167.5t-63.5 169t-163.5 63q-74 0 -131 -32t-84 -87l-35 6l55 408h433l-2 -37h-398l-45 -316q30 40 86 66.5t129 26.5q115 0 188.5 -72.5t73.5 -194.5q0 -123 -78.5 -193.5t-195.5 -70.5q-113 0 -185.5 59t-89.5 160l41 4
q20 -94 81.5 -141t152.5 -47z" />
    <glyph glyph-name="six.superior" unicode="&#x2076;" horiz-adv-x="684" 
d="M117 1090q0 -109 66.5 -172.5t162.5 -63.5q100 0 164.5 63.5t64.5 161.5q0 107 -62 171.5t-165 64.5q-106 0 -168.5 -66t-62.5 -159zM356 1589q-116 0 -185.5 -101.5t-66.5 -313.5q23 79 87.5 127.5t160.5 48.5q118 0 191 -74t73 -195q0 -112 -74 -187t-196 -75
q-127 0 -203.5 87.5t-76.5 279.5q0 210 75 324t221 114q100 0 160 -48.5t76 -125.5l-41 -4q-15 70 -68 106.5t-133 36.5z" />
    <glyph glyph-name="seven.superior" unicode="&#x2077;" horiz-adv-x="587" 
d="M31 1573v37h532v-37q-353 -270 -375 -739h-45q19 253 113 432t256 307h-481z" />
    <glyph glyph-name="eight.superior" unicode="&#x2078;" horiz-adv-x="688" 
d="M344 1624q116 0 185 -53t69 -139q0 -65 -40 -115.5t-107 -67.5q174 -48 174 -205q0 -105 -79 -165t-202 -60q-125 0 -203 60t-78 165q0 158 173 205q-67 17 -107.5 67.5t-40.5 115.5q0 86 69.5 139t186.5 53zM344 1233q-110 0 -175 -49.5t-65 -139.5q0 -88 65 -139
t175 -51q108 0 173 51t65 139q0 89 -64.5 139t-173.5 50zM557 1427q0 75 -58 118.5t-155 43.5q-99 0 -157 -43.5t-58 -118.5q0 -69 56 -116t159 -47q102 0 157.5 47t55.5 116z" />
    <glyph glyph-name="nine.superior" unicode="&#x2079;" horiz-adv-x="679" 
d="M559 1352q0 111 -65.5 174t-161.5 63q-101 0 -165.5 -63.5t-64.5 -161.5q0 -107 62.5 -171.5t165.5 -64.5q106 0 167.5 65.5t61.5 158.5zM319 854q118 0 187.5 101.5t66.5 312.5q-23 -78 -87 -126t-160 -48q-119 0 -192 73.5t-73 194.5q0 112 74.5 187t196.5 75
q127 0 203.5 -87.5t76.5 -279.5q0 -97 -16.5 -174.5t-51 -137.5t-93.5 -93t-138 -33q-99 0 -157.5 48t-77.5 126l43 4q15 -70 67 -106.5t131 -36.5z" />
    <glyph glyph-name="plus.superior" unicode="&#x207a;" horiz-adv-x="677" 
d="M358 834h-39v276h-274v37h274v264h39v-264h273v-37h-273v-276z" />
    <glyph glyph-name="minus.superior" unicode="&#x207b;" horiz-adv-x="372" 
d="M336 1108h-301v41h301v-41z" />
    <glyph glyph-name="equal.superior" unicode="&#x207c;" horiz-adv-x="600" 
d="M553 1235h-508v37h508v-37zM553 989h-508v37h508v-37z" />
    <glyph glyph-name="parenleft.superior" unicode="&#x207d;" horiz-adv-x="260" 
d="M70 1120q0 140 38.5 269t92.5 221h35q-127 -227 -127 -490q0 -262 127 -489h-35q-54 92 -92.5 220.5t-38.5 268.5z" />
    <glyph glyph-name="parenright.superior" unicode="&#x207e;" horiz-adv-x="260" 
d="M188 1120q0 -140 -38.5 -268.5t-92.5 -220.5h-34q127 227 127 489q0 263 -127 490h34q54 -92 92.5 -221t38.5 -269z" />
    <glyph glyph-name="n.superior" unicode="&#x207f;" horiz-adv-x="651" 
d="M150 1407v-139q22 62 72 104.5t134 42.5q96 0 142 -49q55 -52 55 -176v-356h-39v344q0 114 -47 161q-38 41 -117 41q-93 0 -146.5 -71.5t-53.5 -184.5v-290h-39v573h39z" />
    <glyph glyph-name="zero.inferior" unicode="&#x2080;" horiz-adv-x="774" 
d="M393 -260q-151 0 -227 107.5t-76 293.5q0 187 76.5 295.5t226.5 108.5t226.5 -108.5t76.5 -295.5q0 -186 -76 -293.5t-227 -107.5zM393 -225q122 0 191 93t69 273q0 181 -69.5 275t-190.5 94t-190.5 -94t-69.5 -275q0 -180 69 -273t191 -93z" />
    <glyph glyph-name="one.inferior" unicode="&#x2081;" horiz-adv-x="362" 
d="M250 -246h-39v688q-32 -31 -84.5 -47t-95.5 -16v29q85 8 130.5 36.5t59.5 92.5h29v-783z" />
    <glyph glyph-name="two.inferior" unicode="&#x2082;" horiz-adv-x="638" 
d="M326 545q106 0 169.5 -54.5t63.5 -152.5q0 -63 -29 -126t-91 -131t-140.5 -135t-196.5 -155h486v-37h-543v39q125 93 206.5 161t145 136t92.5 127.5t29 118.5q0 84 -55 129t-137 45q-43 0 -80 -11t-68.5 -35t-50.5 -68t-21 -105h-40q6 125 76 189.5t184 64.5z" />
    <glyph glyph-name="three.inferior" unicode="&#x2083;" horiz-adv-x="659" 
d="M326 -225q100 0 164.5 49.5t64.5 136.5q0 182 -250 182h-10v35h8q116 0 175 45.5t59 124.5q0 72 -57.5 117t-145.5 45q-90 0 -151.5 -47t-76.5 -133l-40 4q19 99 88.5 155t181.5 56q104 0 173 -52.5t69 -140.5q0 -78 -45.5 -127t-116.5 -63q81 -11 130.5 -61t49.5 -138
q0 -106 -77.5 -164.5t-192.5 -58.5t-187 59t-90 160l41 4q20 -94 82 -141t154 -47z" />
    <glyph glyph-name="four.inferior" unicode="&#x2084;" horiz-adv-x="684" 
d="M461 475l-391 -465h391v465zM659 10v-37h-159v-219h-39v219h-438v35l438 522h39v-520h159z" />
    <glyph glyph-name="five.inferior" unicode="&#x2085;" horiz-adv-x="673" 
d="M338 -225q100 0 165.5 61.5t65.5 167.5t-63.5 169t-163.5 63q-74 0 -131 -32t-84 -87l-35 6l55 407h433l-2 -36h-398l-45 -316q30 40 86 66t129 26q115 0 188.5 -72t73.5 -194q0 -123 -78.5 -193.5t-195.5 -70.5q-113 0 -185.5 59t-89.5 160l41 4q20 -94 81.5 -141
t152.5 -47z" />
    <glyph glyph-name="six.inferior" unicode="&#x2086;" horiz-adv-x="684" 
d="M117 10q0 -109 66.5 -172t162.5 -63q100 0 164.5 63.5t64.5 161.5q0 107 -62 171.5t-165 64.5q-106 0 -168.5 -66.5t-62.5 -159.5zM356 510q-116 0 -185.5 -102t-66.5 -314q23 79 87.5 127.5t160.5 48.5q118 0 191 -73.5t73 -194.5q0 -112 -74 -187t-196 -75
q-127 0 -203.5 87t-76.5 279q0 210 75 324.5t221 114.5q100 0 160 -48.5t76 -125.5l-41 -4q-15 70 -68 106.5t-133 36.5z" />
    <glyph glyph-name="seven.inferior" unicode="&#x2087;" horiz-adv-x="587" 
d="M31 494v36h532v-36q-353 -270 -375 -740h-45q19 254 113 433t256 307h-481z" />
    <glyph glyph-name="eight.inferior" unicode="&#x2088;" horiz-adv-x="688" 
d="M344 545q116 0 185 -53.5t69 -139.5q0 -65 -40 -115t-107 -67q174 -48 174 -205q0 -105 -79 -165t-202 -60q-125 0 -203 60t-78 165q0 158 173 205q-67 17 -107.5 67t-40.5 115q0 86 69.5 139.5t186.5 53.5zM344 154q-110 0 -175 -49.5t-65 -139.5q0 -88 65 -139t175 -51
q108 0 173 51t65 139q0 89 -64.5 139t-173.5 50zM557 348q0 75 -58 118.5t-155 43.5q-99 0 -157 -43.5t-58 -118.5q0 -69 56 -116.5t159 -47.5q102 0 157.5 47.5t55.5 116.5z" />
    <glyph glyph-name="nine.inferior" unicode="&#x2089;" horiz-adv-x="679" 
d="M559 272q0 111 -65.5 174.5t-161.5 63.5q-101 0 -165.5 -63.5t-64.5 -161.5q0 -107 62.5 -171.5t165.5 -64.5q106 0 167.5 65t61.5 158zM319 -225q118 0 187.5 101t66.5 312q-23 -78 -87 -126t-160 -48q-119 0 -192 74t-73 195q0 112 74.5 187t196.5 75
q127 0 203.5 -87.5t76.5 -279.5q0 -97 -16.5 -174.5t-51 -137.5t-93.5 -93t-138 -33q-99 0 -157.5 48t-77.5 126l43 4q15 -70 67 -106.5t131 -36.5z" />
    <glyph glyph-name="parenleft.inferior" unicode="&#x208d;" horiz-adv-x="260" 
d="M70 43q0 140 38.5 268.5t92.5 220.5h35q-127 -227 -127 -489t127 -489h-35q-54 92 -92.5 220.5t-38.5 268.5z" />
    <glyph glyph-name="parenright.inferior" unicode="&#x208e;" horiz-adv-x="260" 
d="M188 43q0 -140 -38.5 -268.5t-92.5 -220.5h-34q127 227 127 489t-127 489h34q54 -92 92.5 -220.5t38.5 -268.5z" />
    <glyph glyph-name="Euro" unicode="&#x20ac;" horiz-adv-x="1437" 
d="M645 518h-354q34 -243 166 -374.5t344 -131.5q197 0 324 100.5t167 282.5h43q-41 -200 -181 -310t-353 -110q-239 0 -379.5 143.5t-173.5 399.5h-258l35 37h219q-6 58 -6 125q0 80 8 143h-256l35 37h225q36 246 177 385t378 139q209 0 348.5 -110.5t179.5 -308.5h-43
q-40 180 -166.5 281.5t-318.5 101.5q-211 0 -343 -127t-169 -361h631l-35 -37h-600q-8 -60 -8 -143q0 -66 6 -125h393z" />
    <glyph glyph-name="afii61289" unicode="&#x2113;" horiz-adv-x="618" 
d="M190 215v315l-147 -110l-23 33l170 129v454q0 176 44 262t143 86q89 0 136.5 -77t47.5 -205q0 -92 -24 -170t-73 -144t-102 -117t-133 -112v-350q0 -101 26.5 -149t102.5 -48q90 0 166 76l27 -29q-84 -84 -193 -84q-43 0 -74 13.5t-49 34t-28.5 53.5t-13.5 65t-3 74z
M229 1034v-422l25 19q132 101 198 212.5t66 258.5q0 111 -37.5 178.5t-109.5 67.5q-142 0 -142 -314z" />
    <glyph glyph-name="afii61352" unicode="&#x2116;" horiz-adv-x="1898" 
d="M1194 0h-39l-952 1294v-1294h-39v1360h39l952 -1294v1294h39v-1360zM1817 1059q0 -154 -76 -240t-193 -86t-192.5 86t-75.5 240t75.5 239.5t192.5 85.5t193 -85.5t76 -239.5zM1774 1059q0 136 -64 212.5t-162 76.5t-161.5 -76.5t-63.5 -212.5t63.5 -212.5t161.5 -76.5
t162 76.5t64 212.5zM1290 631h516v37h-516v-37z" />
    <glyph glyph-name="trademark" unicode="&#x2122;" horiz-adv-x="1542" 
d="M287 616v707h-267v37h572v-37h-266v-707h-39zM1090 616h-41l-332 707v-707h-39v744h63l328 -701l328 701h63v-744h-39v707z" />
    <glyph glyph-name="Omega" unicode="&#x2126;" horiz-adv-x="1437" 
d="M719 1384q124 0 238 -40t203 -113t142.5 -185t53.5 -245q0 -107 -35.5 -201t-95.5 -162t-135 -115.5t-158 -70.5v-215h352v-37h-391v281q185 45 302.5 186t117.5 334q0 164 -83 290.5t-217 191.5t-294 65t-294 -65t-217 -191.5t-83 -290.5q0 -193 117.5 -334t302.5 -186
v-281h-391v37h352v215q-83 23 -158 70.5t-135 115.5t-95.5 162t-35.5 201q0 133 53.5 245t142.5 185t203 113t238 40z" />
    <glyph glyph-name="estimated" unicode="&#x212e;" horiz-adv-x="1103" 
d="M973 281h51q-49 -137 -165 -221.5t-294 -84.5q-124 0 -222.5 41t-161.5 113t-96.5 167t-33.5 206q0 231 138 374.5t366 143.5q116 0 210.5 -40.5t156 -110.5t94.5 -162.5t35 -198.5h-781v-391q45 -46 130.5 -75.5t179.5 -29.5q136 0 242 71.5t151 197.5zM270 885v-340
h559v338q-44 44 -116 72t-160 28t-163 -25.5t-120 -72.5z" />
    <glyph glyph-name="onethird" unicode="&#x2153;" horiz-adv-x="1474" 
d="M367 584h-39v688q-32 -31 -85 -47.5t-96 -16.5v29q86 8 131.5 36.5t59.5 92.5h29v-782zM203 0h-47l952 1360h47zM1055 20q100 0 164.5 50t64.5 137q0 182 -250 182h-10v35h8q116 0 175 45.5t59 124.5q0 72 -57.5 117t-145.5 45q-90 0 -151 -47.5t-76 -133.5l-41 5
q19 99 88.5 155t181.5 56q104 0 173 -52.5t69 -140.5q0 -78 -45.5 -127t-116.5 -63q81 -11 130.5 -61t49.5 -138q0 -106 -77.5 -164.5t-192.5 -58.5t-187 59t-90 160l41 4q20 -94 82 -141.5t154 -47.5z" />
    <glyph glyph-name="twothirds" unicode="&#x2154;" horiz-adv-x="1474" 
d="M348 1374q106 0 170 -54.5t64 -152.5q0 -63 -29 -125.5t-91.5 -131t-140.5 -134.5t-196 -155h461v-37h-518v39q252 187 362.5 307.5t110.5 234.5q0 83 -55.5 128.5t-137.5 45.5q-92 0 -153.5 -51t-65.5 -168h-41q6 125 76 189.5t184 64.5zM238 0h47l952 1360h-47z
M1137 20q100 0 164.5 50t64.5 137q0 182 -250 182h-10v35h8q116 0 175 45.5t59 124.5q0 72 -57.5 117t-145.5 45q-90 0 -151 -47.5t-76 -133.5l-41 5q19 99 88.5 155t181.5 56q104 0 173 -52.5t69 -140.5q0 -78 -45.5 -127t-116.5 -63q81 -11 130.5 -61t49.5 -138
q0 -106 -77.5 -164.5t-192.5 -58.5t-187 59t-90 160l41 4q20 -94 82 -141.5t154 -47.5z" />
    <glyph glyph-name="uni2155" unicode="&#x2155;" horiz-adv-x="1474" 
d="M367 584h-39v688q-32 -31 -85 -47.5t-96 -16.5v29q86 8 131.5 36.5t59.5 92.5h29v-782zM203 0h-47l952 1360h47zM1053 20q100 0 165.5 62t65.5 168t-63.5 168.5t-163.5 62.5q-74 0 -131 -32t-84 -87l-35 7l55 407h432l-2 -37h-397l-45 -315q30 40 86 66t129 26
q115 0 188.5 -72t73.5 -194q0 -123 -78.5 -193.5t-195.5 -70.5q-113 0 -185.5 59t-89.5 160l41 4q20 -94 81.5 -141.5t152.5 -47.5z" />
    <glyph glyph-name="uni2156" unicode="&#x2156;" horiz-adv-x="1474" 
d="M346 1374q106 0 170 -54.5t64 -152.5q0 -63 -29 -125.5t-91.5 -131t-140.5 -134.5t-196 -155h461v-37h-518v39q252 187 362.5 307.5t110.5 234.5q0 83 -55.5 128.5t-137.5 45.5q-92 0 -153.5 -51t-65.5 -168h-41q6 125 76 189.5t184 64.5zM236 0h47l952 1360h-47z
M1133 20q100 0 165.5 62t65.5 168t-63.5 168.5t-163.5 62.5q-74 0 -131 -32t-84 -87l-35 7l55 407h432l-2 -37h-397l-45 -315q30 40 86 66t129 26q115 0 188.5 -72t73.5 -194q0 -123 -78.5 -193.5t-195.5 -70.5q-113 0 -185.5 59t-89.5 160l41 4q20 -94 81.5 -141.5
t152.5 -47.5z" />
    <glyph glyph-name="uni2157" unicode="&#x2157;" horiz-adv-x="1474" 
d="M342 604q100 0 164.5 50t64.5 137q0 182 -249 182h-11v35h8q117 0 175.5 45.5t58.5 124.5q0 72 -57.5 116.5t-145.5 44.5q-90 0 -151 -47t-76 -133l-41 4q19 99 88.5 155t181.5 56q104 0 173 -52t69 -140q0 -78 -45.5 -127.5t-116.5 -63.5q81 -11 130.5 -60.5
t49.5 -137.5q0 -106 -77.5 -165t-192.5 -59t-186.5 59t-89.5 160l40 5q20 -94 82 -141.5t154 -47.5zM238 0h47l952 1360h-47zM1135 20q100 0 165.5 62t65.5 168t-63.5 168.5t-163.5 62.5q-74 0 -131 -32t-84 -87l-35 7l55 407h432l-2 -37h-397l-45 -315q30 40 86 66t129 26
q115 0 188.5 -72t73.5 -194q0 -123 -78.5 -193.5t-195.5 -70.5q-113 0 -185.5 59t-89.5 160l41 4q20 -94 81.5 -141.5t152.5 -47.5z" />
    <glyph glyph-name="uni2158" unicode="&#x2158;" horiz-adv-x="1474" 
d="M481 1305l-391 -465h391v465zM680 840v-37h-160v-219h-39v219h-438v35l438 522h39v-520h160zM307 0h-47l952 1360h48zM1157 20q100 0 166 62t66 168q0 105 -64 168t-164 63q-74 0 -131 -32t-84 -87l-35 7l56 407h432l-2 -37h-398l-45 -315q30 40 86 66t129 26
q115 0 189 -72t74 -194q0 -123 -79 -193.5t-196 -70.5q-112 0 -184 59t-90 160l41 4q20 -94 81 -141.5t152 -47.5z" />
    <glyph glyph-name="uni2159" unicode="&#x2159;" horiz-adv-x="1474" 
d="M367 584h-39v688q-32 -31 -85 -47.5t-96 -16.5v29q86 8 131.5 36.5t59.5 92.5h29v-782zM203 0h-47l952 1360h47zM827 256q0 -109 67 -172.5t163 -63.5q100 0 164.5 64t64.5 162q0 107 -62 171t-165 64q-106 0 -169 -66.5t-63 -158.5zM1067 756q-116 0 -185.5 -102
t-66.5 -314q23 79 87.5 127.5t160.5 48.5q118 0 191 -73.5t73 -194.5q0 -112 -74 -187t-196 -75q-128 0 -204.5 87t-76.5 279q0 210 75.5 324.5t221.5 114.5q100 0 160 -49t76 -126l-41 -4q-15 70 -68 107t-133 37z" />
    <glyph glyph-name="uni215A" unicode="&#x215a;" horiz-adv-x="1474" 
d="M340 604q100 0 165.5 62t65.5 168t-63.5 168.5t-163.5 62.5q-74 0 -131 -32t-84 -87l-35 6l56 408h432l-2 -37h-398l-45 -315q30 40 86 66t129 26q115 0 188.5 -72t73.5 -194q0 -123 -78.5 -194t-195.5 -71q-112 0 -184 59t-90 160l40 5q20 -94 81.5 -141.5t152.5 -47.5z
M238 0h47l952 1360h-47zM909 256q0 -109 67 -172.5t163 -63.5q100 0 164.5 64t64.5 162q0 107 -62 171t-165 64q-106 0 -169 -66.5t-63 -158.5zM1149 756q-116 0 -185.5 -102t-66.5 -314q23 79 87.5 127.5t160.5 48.5q118 0 191 -73.5t73 -194.5q0 -112 -74 -187t-196 -75
q-128 0 -204.5 87t-76.5 279q0 210 75.5 324.5t221.5 114.5q100 0 160 -49t76 -126l-41 -4q-15 70 -68 107t-133 37z" />
    <glyph glyph-name="oneeighth" unicode="&#x215b;" horiz-adv-x="1474" 
d="M362 584h-38v688q-32 -31 -85 -47.5t-96 -16.5v29q86 8 131.5 36.5t59.5 92.5h28v-782zM199 0h-47l952 1360h47zM1049 791q116 0 185 -53.5t69 -139.5q0 -65 -40.5 -115t-107.5 -67q174 -48 174 -205q0 -105 -78.5 -165t-201.5 -60q-125 0 -203 60t-78 165q0 158 172 205
q-67 17 -107 67t-40 115q0 86 69.5 139.5t186.5 53.5zM1049 399q-110 0 -175 -49.5t-65 -138.5t65 -140t175 -51q108 0 172.5 51t64.5 140t-64 138.5t-173 49.5zM1262 594q0 75 -58 118.5t-155 43.5q-99 0 -157 -43.5t-58 -118.5q0 -69 56 -116.5t159 -47.5
q102 0 157.5 47.5t55.5 116.5z" />
    <glyph glyph-name="threeeighths" unicode="&#x215c;" horiz-adv-x="1474" 
d="M338 604q100 0 164.5 50t64.5 137q0 182 -250 182h-10v35h8q117 0 175.5 45.5t58.5 124.5q0 72 -57.5 116.5t-145.5 44.5q-90 0 -151 -47t-76 -133l-41 4q19 99 88.5 155t181.5 56q104 0 173 -52t69 -140q0 -78 -45.5 -127.5t-116.5 -63.5q81 -11 130.5 -60.5
t49.5 -137.5q0 -106 -77.5 -165t-192.5 -59t-187 59t-90 160l41 5q20 -94 82 -141.5t154 -47.5zM233 0h48l952 1360h-47zM1130 791q-117 0 -186.5 -53.5t-69.5 -139.5q0 -65 40.5 -115t107.5 -67q-172 -47 -172 -205q0 -105 78 -165t202 -60q123 0 202 60t79 165
q0 157 -174 205q67 17 107 67t40 115q0 86 -69 139.5t-185 53.5zM1130 399q109 0 173.5 -49.5t64.5 -138.5q0 -88 -65 -139.5t-173 -51.5q-109 0 -174 51t-65 140q0 90 64.5 139t174.5 49zM1343 594q0 -69 -55.5 -116.5t-157.5 -47.5q-103 0 -159 47.5t-56 116.5
q0 75 58 118.5t157 43.5q97 0 155 -43.5t58 -118.5z" />
    <glyph glyph-name="fiveeighths" unicode="&#x215d;" horiz-adv-x="1474" 
d="M336 604q100 0 165.5 62t65.5 168t-63.5 168.5t-163.5 62.5q-74 0 -131 -32t-84 -87l-35 6l55 408h433l-3 -37h-397l-45 -315q30 40 86 66t129 26q115 0 188.5 -72t73.5 -194q0 -123 -78.5 -194t-195.5 -71q-113 0 -185.5 59t-89.5 160l41 5q20 -94 81.5 -141.5
t152.5 -47.5zM233 0h48l952 1360h-47zM1130 791q-117 0 -186.5 -53.5t-69.5 -139.5q0 -65 40.5 -115t107.5 -67q-172 -47 -172 -205q0 -105 78 -165t202 -60q123 0 202 60t79 165q0 157 -174 205q67 17 107 67t40 115q0 86 -69 139.5t-185 53.5zM1130 399q109 0 173.5 -49.5
t64.5 -138.5q0 -88 -65 -139.5t-173 -51.5q-109 0 -174 51t-65 140q0 90 64.5 139t174.5 49zM1343 594q0 -69 -55.5 -116.5t-157.5 -47.5q-103 0 -159 47.5t-56 116.5q0 75 58 118.5t157 43.5q97 0 155 -43.5t58 -118.5z" />
    <glyph glyph-name="seveneighths" unicode="&#x215e;" horiz-adv-x="1474" 
d="M66 1323v37h532v-37q-353 -270 -375 -739h-45q19 253 113 432t256 307h-481zM229 0h47l953 1360h-47zM1126 791q-117 0 -186.5 -53.5t-69.5 -139.5q0 -65 40.5 -115t107.5 -67q-172 -47 -172 -205q0 -105 78 -165t202 -60q123 0 202 60t79 165q0 157 -174 205
q67 17 107 67t40 115q0 86 -69 139.5t-185 53.5zM1126 399q109 0 173.5 -49.5t64.5 -138.5q0 -88 -65 -139.5t-173 -51.5q-109 0 -174 51t-65 140q0 90 64.5 139t174.5 49zM1339 594q0 -69 -55.5 -116.5t-157.5 -47.5q-103 0 -159 47.5t-56 116.5q0 75 58 118.5t157 43.5
q97 0 155 -43.5t58 -118.5z" />
    <glyph glyph-name="uni215F" unicode="&#x215f;" horiz-adv-x="1474" 
d="M453 584h-39v688q-32 -31 -85 -47.5t-96 -16.5v29q86 8 131.5 36.5t59.5 92.5h29v-782zM289 0h-47l952 1360h47z" />
    <glyph glyph-name="uni2190" unicode="&#x2190;" horiz-adv-x="1574" 
d="M41 512l565 565l27 -26l-527 -519h1428v-36h-1432l531 -519l-27 -28z" />
    <glyph glyph-name="uni2191" unicode="&#x2191;" horiz-adv-x="1214" 
d="M606 1399l568 -565q-13 -13 -31 -25l-518 526v-1335h-39v1333l-516 -524q-9 9 -29 25z" />
    <glyph glyph-name="uni2192" unicode="&#x2192;" horiz-adv-x="1574" 
d="M969 1077l565 -565l-565 -563l-27 28l531 519h-1432v36h1427l-526 519q4 5 16 15z" />
    <glyph glyph-name="uni2193" unicode="&#x2193;" horiz-adv-x="1214" 
d="M1174 535l-568 -568l-565 568q4 4 29 24l518 -528v1329h37v-1329l520 528q4 -4 29 -24z" />
    <glyph glyph-name="uni2196" unicode="&#x2196;" horiz-adv-x="1273" 
d="M164 1071h799v-37h-732l1002 -1001l-27 -29l-1003 1002v-734h-39v799z" />
    <glyph glyph-name="uni2197" unicode="&#x2197;" horiz-adv-x="1273" 
d="M311 1071h799v-799h-41v732l-1001 -1000l-27 29l1001 1001h-731v37z" />
    <glyph glyph-name="uni2198" unicode="&#x2198;" horiz-adv-x="1273" 
d="M1110 799v-799h-799v39h729l-999 1001l27 27l1001 -997v729h41z" />
    <glyph glyph-name="uni2199" unicode="&#x2199;" horiz-adv-x="1273" 
d="M164 0v799h39v-729l1003 997l27 -27l-1002 -1001h732v-39h-799z" />
    <glyph glyph-name="uni219E" unicode="&#x219e;" horiz-adv-x="1574" 
d="M41 512l565 565l27 -26l-527 -519h422l545 545l27 -26l-527 -519h961v-36h-965l531 -519l-27 -28l-549 547h-422l531 -519l-27 -28z" />
    <glyph glyph-name="uni219F" unicode="&#x219f;" horiz-adv-x="1210" 
d="M604 1393l565 -566l-28 -24l-516 524v-414l544 -544l-28 -27l-516 526v-868h-37v872l-520 -530l-27 27l547 549v413l-520 -528l-27 24z" />
    <glyph glyph-name="uni21A0" unicode="&#x21a0;" horiz-adv-x="1574" 
d="M969 1077l565 -565l-565 -563l-27 28l531 519h-424l-549 -547l-25 28l531 519h-965v36h960l-526 519q3 4 25 26l544 -545h424l-526 519q4 5 16 15z" />
    <glyph glyph-name="uni21A1" unicode="&#x21a1;" horiz-adv-x="1210" 
d="M1169 532l-565 -565l-563 565l27 25l520 -528v413l-547 549l27 27l520 -531v873h37v-868l516 526l28 -27l-544 -545v-413l516 524z" />
    <glyph glyph-name="uni21A2" unicode="&#x21a2;" horiz-adv-x="1902" 
d="M41 512l565 565l25 -26l-525 -519h1182l549 545l25 -26l-539 -539l539 -535l-25 -28l-553 547h-1182l529 -519l-25 -28z" />
    <glyph glyph-name="uni21A3" unicode="&#x21a3;" horiz-adv-x="1902" 
d="M1298 1077l564 -565l-564 -563l-24 28l526 519h-1182l-550 -547l-27 28l539 535l-539 539l27 26l546 -545h1182l-522 519q6 8 24 26z" />
    <glyph glyph-name="uni21A4" unicode="&#x21a4;" horiz-adv-x="1697" 
d="M1534 1004v-1004h-37v496h-1395l531 -519l-27 -28l-565 563l565 565l27 -26l-527 -519h1391v472h37z" />
    <glyph glyph-name="uni21A5" unicode="&#x21a5;" horiz-adv-x="1210" 
d="M1094 0h-1004v37h498v1290l-520 -530l-27 26l563 566l565 -566l-28 -26l-516 526v-1286h469v-37z" />
    <glyph glyph-name="uni21A6" unicode="&#x21a6;" horiz-adv-x="1697" 
d="M164 0v1004h37v-472h1390l-526 519l27 26l565 -565l-565 -563l-27 28l530 519h-1394v-496h-37z" />
    <glyph glyph-name="uni21A7" unicode="&#x21a7;" horiz-adv-x="1210" 
d="M90 1360h1004v-37h-469v-1286l516 526l28 -26l-565 -566l-563 566l27 26l520 -530v1290h-498v37z" />
    <glyph glyph-name="partialdiff" unicode="&#x2202;" horiz-adv-x="1054" 
d="M930 500q0 125 -33 221t-89.5 151.5t-124.5 83t-144 27.5q-166 0 -280 -129.5t-114 -353.5q0 -227 111 -357.5t279 -130.5q75 0 143.5 28t126 84.5t91.5 153.5t34 222zM535 -25q-189 0 -311 141.5t-122 383.5q0 238 125 379t314 141q76 0 140 -21.5t107.5 -58.5
t72.5 -77.5t48 -86.5h2q-44 231 -202.5 380t-376.5 187v41q137 -28 245 -86t181.5 -136.5t122.5 -179.5t70.5 -212t21.5 -238q0 -139 -34 -247t-94 -175t-138.5 -101t-171.5 -34z" />
    <glyph glyph-name="Delta" unicode="&#x2206;" horiz-adv-x="1257" 
d="M0 0l629 1343l628 -1343h-1257zM1200 37l-571 1220l-570 -1220h1141z" />
    <glyph glyph-name="product" unicode="&#x220f;" horiz-adv-x="1298" 
d="M203 -354h-39v1714h971v-1714h-39v1681h-893v-1681z" />
    <glyph glyph-name="summation" unicode="&#x2211;" horiz-adv-x="1081" 
d="M41 -317l614 821l-614 819v37h999v-37h-956l616 -819l-616 -821h956v-37h-999v37z" />
    <glyph glyph-name="minus" unicode="&#x2212;" horiz-adv-x="1103" 
d="M1063 496h-1022v36h1022v-36z" />
    <glyph glyph-name="radical" unicode="&#x221a;" horiz-adv-x="919" 
d="M0 385l176 78l363 -762l342 1659h39l-357 -1714h-37l-370 772l-142 -64z" />
    <glyph glyph-name="infinity" unicode="&#x221e;" horiz-adv-x="1519" 
d="M1165 760q138 0 226 -83t88 -204q0 -120 -87.5 -203.5t-220.5 -83.5q-112 0 -212.5 63.5t-202.5 192.5q-112 -140 -205.5 -198t-206.5 -58q-130 0 -216.5 83.5t-86.5 203.5q0 121 86.5 204t224.5 83q105 0 199 -57.5t205 -198.5q103 131 202 193.5t207 62.5zM1159 723
q-96 0 -186.5 -61t-192.5 -189q102 -129 194.5 -189.5t196.5 -60.5q114 0 189.5 70.5t75.5 179.5q0 110 -77.5 180t-199.5 70zM342 223q110 0 198.5 58t192.5 192q-104 131 -193 190.5t-184 59.5q-119 0 -195.5 -70t-76.5 -180q0 -109 74.5 -179.5t183.5 -70.5z" />
    <glyph glyph-name="integral" unicode="&#x222b;" horiz-adv-x="268" 
d="M115 274v746q0 49 0.5 74t3 68.5t7.5 67t15.5 54t25.5 46t38 27t53 11.5q41 0 58.5 -19t17.5 -44q0 -50 -43 -50q-17 0 -27 11t-10 30q0 18 10 43q-26 0 -45 -9t-31 -30t-19.5 -44.5t-11 -62.5t-4.5 -71.5t-1 -83.5q0 -60 1 -158.5t1 -150.5v-745q0 -48 -0.5 -74
t-3 -68.5t-8 -67t-16 -55t-25.5 -46t-38 -27t-53 -11.5q-41 0 -58.5 19.5t-17.5 44.5q0 21 12 35t34 14q34 0 34 -41q0 -18 -10 -43q31 -1 52.5 14.5t33 39t18 66.5t8 81.5t1.5 99.5q0 60 -1 158.5t-1 150.5z" />
    <glyph glyph-name="approxequal" unicode="&#x2248;" horiz-adv-x="980" 
d="M721 672q73 0 120 37t60 112h39q-17 -93 -74 -139.5t-145 -46.5q-54 0 -117.5 23.5t-112.5 51t-113.5 51t-119.5 23.5q-149 0 -178 -149h-39q17 92 73.5 139t143.5 47q58 0 124 -23.5t115.5 -51t111.5 -51t112 -23.5zM721 283q73 0 120 37t60 112h39q-17 -93 -74 -139.5
t-145 -46.5q-54 0 -117.5 23.5t-112.5 51t-113.5 51t-119.5 23.5q-149 0 -178 -149h-39q17 92 73.5 139t143.5 47q58 0 124 -23.5t115.5 -51t111.5 -51t112 -23.5z" />
    <glyph glyph-name="notequal" unicode="&#x2260;" horiz-adv-x="1013" 
d="M342 274h-281v37h304l260 416h-564v37h586l156 248l31 -19l-144 -229h262v-37h-284l-256 -416h540v-37h-563l-176 -284l-33 22z" />
    <glyph glyph-name="lessequal" unicode="&#x2264;" horiz-adv-x="1144" 
d="M109 555l974 -405v-41l-1022 428v36l1022 428v-40zM61 0v37h1022v-37h-1022z" />
    <glyph glyph-name="greaterequal" unicode="&#x2265;" horiz-adv-x="1144" 
d="M1036 555l-975 406v40l1022 -428v-36l-1022 -428v41zM1083 0h-1022v37h1022v-37z" />
    <glyph glyph-name="uni25A0" unicode="&#x25a0;" horiz-adv-x="1331" 
d="M164 0v1004h1003v-1004h-1003z" />
    <glyph glyph-name="uni25A1" unicode="&#x25a1;" horiz-adv-x="1331" 
d="M164 0v1004h1003v-1004h-1003zM203 969v-932h925v932h-925z" />
    <glyph glyph-name="lozenge" unicode="&#x25ca;" horiz-adv-x="929" 
d="M485 1370l-411 -698l411 -701l414 701zM31 672l454 772l455 -772l-455 -772z" />
    <glyph glyph-name="uni25CB" unicode="&#x25cb;" horiz-adv-x="1253" 
d="M102 498q0 106 41.5 203t111.5 167t167.5 111t204.5 41t203.5 -41t167 -111t112 -167t41.5 -203q0 -142 -70 -262.5t-191 -190.5t-263 -70q-143 0 -264 70t-191 190.5t-70 262.5zM627 12q130 0 240.5 63.5t176.5 175.5t66 247t-66 247.5t-176.5 176t-240.5 63.5
q-131 0 -242.5 -63.5t-177.5 -176t-66 -247.5q0 -201 143.5 -343.5t342.5 -142.5z" />
    <glyph glyph-name="uni25CF" unicode="&#x25cf;" horiz-adv-x="1249" 
d="M102 498q0 142 70 262.5t190.5 190t262.5 69.5q106 0 203 -41t167 -111t111 -167t41 -203q0 -142 -69.5 -262.5t-190 -190.5t-262.5 -70t-262.5 70t-190.5 190.5t-70 262.5z" />
    <glyph glyph-name="onesuperior" horiz-adv-x="362" 
d="M250 834h-39v688q-32 -31 -84.5 -47.5t-95.5 -16.5v29q85 8 130.5 36.5t59.5 92.5h29v-782z" />
    <glyph glyph-name="threesuperior" horiz-adv-x="659" 
d="M326 854q100 0 164.5 49.5t64.5 136.5q0 183 -250 183h-10v34h8q116 0 175 45.5t59 124.5q0 72 -57.5 117t-145.5 45q-90 0 -151.5 -47t-76.5 -133l-40 4q19 99 88.5 155t181.5 56q104 0 173 -52t69 -140q0 -78 -45.5 -127.5t-116.5 -63.5q81 -11 130.5 -61t49.5 -138
q0 -106 -77.5 -164.5t-192.5 -58.5t-187 59t-90 160l41 4q20 -94 82 -141t154 -47z" />
    <glyph glyph-name="twosuperior" horiz-adv-x="638" 
d="M326 1624q106 0 169.5 -54.5t63.5 -152.5q0 -63 -29 -126t-91 -131t-140.5 -135t-196.5 -155h486v-36h-543v38q125 93 206.5 161t145 136t92.5 127.5t29 118.5q0 84 -55 129t-137 45q-43 0 -80 -11t-68.5 -35t-50.5 -68t-21 -105h-40q6 125 76 189.5t184 64.5z" />
    <glyph glyph-name="commaaccent" horiz-adv-x="169" 
d="M90 -88h39v-98q0 -48 -0.5 -70.5t-5 -55t-13.5 -49.5t-26 -34t-43 -27v41q33 18 41 59t8 136v98z" />
    <glyph glyph-name="a.alt" horiz-adv-x="1128" 
d="M965 1004v-1004h-39v262q-45 -132 -148.5 -209.5t-242.5 -77.5q-189 0 -311 141.5t-122 383.5q0 238 124.5 379t312.5 141q279 0 387 -277v261h39zM535 12q75 0 143.5 28t126 84.5t91.5 153.5t34 222t-33 221t-89.5 151.5t-124.5 83t-144 27.5q-166 0 -280 -129.5
t-114 -353.5q0 -227 111 -357.5t279 -130.5z" />
    <glyph glyph-name="aacute.alt" horiz-adv-x="1128" 
d="M965 0v1004h-39v-261q-108 277 -387 277q-188 0 -312.5 -141t-124.5 -379q0 -242 122 -383.5t311 -141.5q139 0 242.5 77.5t148.5 209.5v-262h39zM535 12q-168 0 -279 130.5t-111 357.5q0 224 114 353.5t280 129.5q76 0 144 -27.5t124.5 -83t89.5 -151.5t33 -221
t-34 -222t-91.5 -153.5t-126 -84.5t-143.5 -28zM793 1360l-248 -242h-49l243 242h54z" />
    <glyph glyph-name="abreve.alt" horiz-adv-x="1128" 
d="M965 0v1004h-39v-261q-108 277 -387 277q-188 0 -312.5 -141t-124.5 -379q0 -242 122 -383.5t311 -141.5q139 0 242.5 77.5t148.5 209.5v-262h39zM535 12q-168 0 -279 130.5t-111 357.5q0 224 114 353.5t280 129.5q76 0 144 -27.5t124.5 -83t89.5 -151.5t33 -221
t-34 -222t-91.5 -153.5t-126 -84.5t-143.5 -28zM834 1360q-8 -122 -74 -187t-187 -65t-186.5 65t-73.5 187h35q13 -117 68.5 -166t156.5 -49t157 49t69 166h35z" />
    <glyph glyph-name="acircumflex.alt" horiz-adv-x="1128" 
d="M965 0v1004h-39v-261q-108 277 -387 277q-188 0 -312.5 -141t-124.5 -379q0 -242 122 -383.5t311 -141.5q139 0 242.5 77.5t148.5 209.5v-262h39zM535 12q-168 0 -279 130.5t-111 357.5q0 224 114 353.5t280 129.5q76 0 144 -27.5t124.5 -83t89.5 -151.5t33 -221
t-34 -222t-91.5 -153.5t-126 -84.5t-143.5 -28zM584 1360l270 -242h-49l-242 209l-241 -209h-50l271 242h41z" />
    <glyph glyph-name="adieresis.alt" horiz-adv-x="1128" 
d="M965 0v1004h-39v-261q-108 277 -387 277q-188 0 -312.5 -141t-124.5 -379q0 -242 122 -383.5t311 -141.5q139 0 242.5 77.5t148.5 209.5v-262h39zM535 12q-168 0 -279 130.5t-111 357.5q0 224 114 353.5t280 129.5q76 0 144 -27.5t124.5 -83t89.5 -151.5t33 -221
t-34 -222t-91.5 -153.5t-126 -84.5t-143.5 -28zM334 1151v176h39v-176h-39zM778 1327h39v-176h-39v176z" />
    <glyph glyph-name="ae.alt" horiz-adv-x="1939" 
d="M1384 -25q-157 0 -264.5 81t-154.5 223v-279h-39v262q-45 -132 -148.5 -209.5t-242.5 -77.5q-189 0 -311 141.5t-122 383.5q0 238 124.5 379t312.5 141q279 0 387 -277v261h39v-287q47 142 157 222.5t267 80.5q208 0 329 -138.5t121 -367.5h-874v-37q3 -115 38.5 -205.5
t94 -146.5t131.5 -84.5t155 -28.5q156 0 259 73t135 216l41 -6q-31 -149 -147 -234.5t-288 -85.5zM535 12q75 0 143.5 28t126 84.5t91.5 153.5t34 222t-33 221t-89.5 151.5t-124.5 83t-144 27.5q-166 0 -280 -129.5t-114 -353.5q0 -227 111 -357.5t279 -130.5zM1386 983
q-183 0 -295 -118.5t-126 -315.5h831q-2 185 -113.5 309.5t-296.5 124.5z" />
    <glyph glyph-name="aeacute.alt" horiz-adv-x="1939" 
d="M1384 -25q172 0 288 85.5t147 234.5l-41 6q-32 -143 -135 -216t-259 -73q-82 0 -155 28.5t-131.5 84.5t-94 146.5t-38.5 205.5v37h874q0 229 -121 367.5t-329 138.5q-157 0 -267 -80.5t-157 -222.5v287h-39v-261q-108 277 -387 277q-188 0 -312.5 -141t-124.5 -379
q0 -242 122 -383.5t311 -141.5q139 0 242.5 77.5t148.5 209.5v-262h39v279q47 -142 154.5 -223t264.5 -81zM535 12q-168 0 -279 130.5t-111 357.5q0 224 114 353.5t280 129.5q76 0 144 -27.5t124.5 -83t89.5 -151.5t33 -221t-34 -222t-91.5 -153.5t-126 -84.5t-143.5 -28z
M1386 983q185 0 296.5 -124.5t113.5 -309.5h-831q14 197 126 315.5t295 118.5zM1178 1360l-248 -242h-49l243 242h54z" />
    <glyph glyph-name="agrave.alt" horiz-adv-x="1128" 
d="M965 0v1004h-39v-261q-108 277 -387 277q-188 0 -312.5 -141t-124.5 -379q0 -242 122 -383.5t311 -141.5q139 0 242.5 77.5t148.5 209.5v-262h39zM535 12q-168 0 -279 130.5t-111 357.5q0 224 114 353.5t280 129.5q76 0 144 -27.5t124.5 -83t89.5 -151.5t33 -221
t-34 -222t-91.5 -153.5t-126 -84.5t-143.5 -28zM616 1118l-247 242h53l244 -242h-50z" />
    <glyph glyph-name="amacron.alt" horiz-adv-x="1128" 
d="M965 0v1004h-39v-261q-108 277 -387 277q-188 0 -312.5 -141t-124.5 -379q0 -242 122 -383.5t311 -141.5q139 0 242.5 77.5t148.5 209.5v-262h39zM535 12q-168 0 -279 130.5t-111 357.5q0 224 114 353.5t280 129.5q76 0 144 -27.5t124.5 -83t89.5 -151.5t33 -221
t-34 -222t-91.5 -153.5t-126 -84.5t-143.5 -28zM807 1212h-473v37h473v-37z" />
    <glyph glyph-name="aogonek.alt" horiz-adv-x="1128" 
d="M535 12q75 0 143.5 28t126 84.5t91.5 153.5t34 222t-33 221t-89.5 151.5t-124.5 83t-144 27.5q-166 0 -280 -129.5t-114 -353.5q0 -227 111 -357.5t279 -130.5zM965 1004v-1004q-44 -24 -67.5 -37.5t-55 -36.5t-46 -46t-14.5 -48q0 -40 30.5 -60t82.5 -20q26 0 68 10v-38
q-37 -9 -72 -9q-61 0 -106.5 28.5t-45.5 88.5q0 92 187 184v246q-45 -132 -148.5 -209.5t-242.5 -77.5q-189 0 -311 141.5t-122 383.5q0 238 124.5 379t312.5 141q279 0 387 -277v261h39z" />
    <glyph glyph-name="aring.alt" horiz-adv-x="1128" 
d="M965 0v1004h-39v-261q-108 277 -387 277q-188 0 -312.5 -141t-124.5 -379q0 -242 122 -383.5t311 -141.5q139 0 242.5 77.5t148.5 209.5v-262h39zM535 12q-168 0 -279 130.5t-111 357.5q0 224 114 353.5t280 129.5q76 0 144 -27.5t124.5 -83t89.5 -151.5t33 -221
t-34 -222t-91.5 -153.5t-126 -84.5t-143.5 -28zM559 1384q67 0 113.5 -43t46.5 -108t-46.5 -108.5t-113.5 -43.5t-113.5 43.5t-46.5 108.5t46.5 108t113.5 43zM559 1352q-50 0 -85.5 -32t-35.5 -87t35.5 -87t85.5 -32t85.5 32t35.5 87t-35.5 87t-85.5 32z" />
    <glyph glyph-name="aringacute.alt" horiz-adv-x="1128" 
d="M709 1581l-201 -203q15 6 37 6q67 0 113.5 -43t46.5 -108t-46.5 -108.5t-113.5 -43.5q-68 0 -114 43t-46 109q0 74 84 158l186 190h54zM545 1352q-50 0 -85.5 -31.5t-35.5 -87.5q0 -55 35.5 -87t85.5 -32t85.5 32t35.5 87t-35.5 87t-85.5 32zM965 0v1004h-39v-261
q-108 277 -387 277q-188 0 -312.5 -141t-124.5 -379q0 -242 122 -383.5t311 -141.5q139 0 242.5 77.5t148.5 209.5v-262h39zM535 12q-168 0 -279 130.5t-111 357.5q0 224 114 353.5t280 129.5q76 0 144 -27.5t124.5 -83t89.5 -151.5t33 -221t-34 -222t-91.5 -153.5
t-126 -84.5t-143.5 -28z" />
    <glyph glyph-name="atilde.alt" horiz-adv-x="1128" 
d="M965 0v1004h-39v-261q-108 277 -387 277q-188 0 -312.5 -141t-124.5 -379q0 -242 122 -383.5t311 -141.5q139 0 242.5 77.5t148.5 209.5v-262h39zM535 12q-168 0 -279 130.5t-111 357.5q0 224 114 353.5t280 129.5q76 0 144 -27.5t124.5 -83t89.5 -151.5t33 -221
t-34 -222t-91.5 -153.5t-126 -84.5t-143.5 -28zM709 1190q94 0 116 131h37q-12 -82 -51 -125t-102 -43q-39 0 -81 20.5t-73 45t-72.5 45t-79.5 20.5q-92 0 -114 -131h-37q12 80 51 124t100 44q43 0 87 -20.5t75.5 -45t70.5 -45t73 -20.5z" />
    <glyph glyph-name="uni0227.alt" horiz-adv-x="1128" 
d="M965 0v1004h-39v-261q-108 277 -387 277q-188 0 -312.5 -141t-124.5 -379q0 -242 122 -383.5t311 -141.5q139 0 242.5 77.5t148.5 209.5v-262h39zM535 12q-168 0 -279 130.5t-111 357.5q0 224 114 353.5t280 129.5q76 0 144 -27.5t124.5 -83t89.5 -151.5t33 -221
t-34 -222t-91.5 -153.5t-126 -84.5t-143.5 -28zM549 1327h39v-176h-39v176z" />
    <glyph glyph-name="uni1EA1.alt" horiz-adv-x="1128" 
d="M965 1004v-1004h-39v262q-45 -132 -148.5 -209.5t-242.5 -77.5q-189 0 -311 141.5t-122 383.5q0 238 124.5 379t312.5 141q279 0 387 -277v261h39zM535 12q75 0 143.5 28t126 84.5t91.5 153.5t34 222t-33 221t-89.5 151.5t-124.5 83t-144 27.5q-166 0 -280 -129.5
t-114 -353.5q0 -227 111 -357.5t279 -130.5zM518 -94h39v-176h-39v176z" />
    <glyph glyph-name="l.alt" horiz-adv-x="395" 
d="M164 221v1139h39v-1108q0 -40 0.5 -61.5t3 -48t7 -38.5t14 -27.5t22 -21t32 -11.5t44 -7.5t59.5 -1.5h10v-35h-24q-129 0 -168 42t-39 179z" />
    <glyph glyph-name="lacute.alt" horiz-adv-x="395" 
d="M164 221v1139h39v-1108q0 -40 0.5 -61.5t3 -48t7 -38.5t14 -27.5t22 -21t32 -11.5t44 -7.5t59.5 -1.5h10v-35h-24q-129 0 -168 42t-39 179zM469 1645l-262 -215h-49l256 215h55z" />
    <glyph glyph-name="lcaron.alt" horiz-adv-x="399" 
d="M399 1360l-61 -324h-33l55 324h39zM164 221v1139h39v-1108q0 -40 0.5 -61.5t3 -48t7 -38.5t14 -27.5t22 -21t32 -11.5t44 -7.5t59.5 -1.5h10v-35h-24q-129 0 -168 42t-39 179z" />
    <glyph glyph-name="lcommaaccent.alt" horiz-adv-x="395" 
d="M164 221v1139h39v-1108q0 -40 0.5 -61.5t3 -48t7 -38.5t14 -27.5t22 -21t32 -11.5t44 -7.5t59.5 -1.5h10v-35h-24q-129 0 -168 42t-39 179zM164 -88h39v-98q0 -48 -0.5 -70.5t-5 -55t-13.5 -49.5t-26 -34t-43 -27v41q33 18 41 59t8 136v98z" />
    <glyph glyph-name="ldot.alt" horiz-adv-x="395" 
d="M164 1450v176h39v-176h-39zM164 221v1139h39v-1108q0 -40 0.5 -61.5t3 -48t7 -38.5t14 -27.5t22 -21t32 -11.5t44 -7.5t59.5 -1.5h10v-35h-24q-129 0 -168 42t-39 179z" />
    <glyph glyph-name="lslash.alt" horiz-adv-x="415" 
d="M0 575v41l164 125v619h39v-588l164 127v-41l-164 -127v-479q0 -40 0.5 -61.5t3 -48t7 -38.5t14 -27.5t22 -21t32 -11.5t44 -7.5t59.5 -1.5h10v-35h-24q-129 0 -168 42t-39 179v479z" />
    <glyph glyph-name="zero.plf" horiz-adv-x="1269" 
d="M635 -25q-108 0 -195.5 34t-150 96t-105 150t-62.5 194.5t-20 230.5q0 156 32.5 283.5t96.5 222t167 146.5t237 52t236.5 -52t166.5 -146.5t96.5 -222t32.5 -283.5t-32.5 -283.5t-96.5 -222.5t-166.5 -147t-236.5 -52zM635 12q227 0 358 172t131 496t-131 496t-358 172
q-228 0 -359 -172t-131 -496t131 -496t359 -172z" />
    <glyph glyph-name="zeroslashed.plf" horiz-adv-x="1269" 
d="M635 -25q-108 0 -195.5 34t-150 96t-105 150t-62.5 194.5t-20 230.5q0 156 32.5 283.5t96.5 222t167 146.5t237 52t236.5 -52t166.5 -146.5t96.5 -222t32.5 -283.5t-32.5 -283.5t-96.5 -222.5t-166.5 -147t-236.5 -52zM635 12q227 0 358 172t131 496q0 76 -10 154
l-958 -326q33 -243 158.5 -369.5t320.5 -126.5zM145 680q0 -59 7 -131l958 328q-38 230 -162 350.5t-313 120.5q-228 0 -359 -172t-131 -496z" />
    <glyph glyph-name="one.plf" horiz-adv-x="563" 
d="M379 0h-39v1257q-33 -65 -124.5 -115t-190.5 -61l-5 35q66 5 134 34.5t123 85.5t67 124h35v-1360z" />
    <glyph glyph-name="two.plf" horiz-adv-x="1034" 
d="M535 1384q185 0 296 -95t111 -269q0 -93 -39 -187.5t-105.5 -183.5t-177 -193t-231 -199.5t-289.5 -219.5h893v-37h-952v37q181 133 309 235.5t237.5 205.5t174.5 190.5t101 176t36 175.5q0 160 -103.5 244t-260.5 84q-63 0 -118.5 -12t-109 -41t-92.5 -74.5t-65 -116.5
t-31 -162h-41q12 222 135.5 332t321.5 110z" />
    <glyph glyph-name="three.plf" horiz-adv-x="1095" 
d="M545 12q184 0 305 92.5t121 249.5q0 118 -57.5 194t-154.5 108t-235 32h-26v37h18q214 0 320 88t106 236q0 136 -110.5 217.5t-270.5 81.5q-177 0 -290.5 -88.5t-143.5 -243.5l-41 4q35 173 159 268.5t316 95.5q114 0 209 -37.5t155 -114.5t60 -181q0 -79 -27.5 -142.5
t-74.5 -103.5t-101 -64t-114 -32q156 -13 251 -102t95 -249q0 -120 -64.5 -208.5t-169.5 -131.5t-235 -43q-200 0 -326 100t-160 277l41 6q35 -174 149.5 -260t295.5 -86z" />
    <glyph glyph-name="four.plf" horiz-adv-x="1116" 
d="M786 1305l-739 -875h739v875zM1116 430v-35h-291v-395h-39v395h-786v35l786 930h39v-930h291z" />
    <glyph glyph-name="five.plf" horiz-adv-x="1128" 
d="M565 12q188 0 313.5 114t125.5 306q0 190 -116 312t-310 122q-141 0 -247.5 -59t-162.5 -166l-31 6l103 713h749v-37h-719l-88 -602q58 78 157.5 130t244.5 52q204 0 333.5 -129.5t129.5 -341.5q0 -140 -65.5 -245.5t-174 -158.5t-242.5 -53q-196 0 -322 98.5t-161 278.5
l41 6q34 -173 149 -259.5t293 -86.5z" />
    <glyph glyph-name="six.plf" horiz-adv-x="1134" 
d="M145 461q0 -110 36.5 -197.5t98 -141.5t138 -82t160.5 -28q189 0 310.5 118t121.5 300q0 199 -118 318.5t-312 119.5q-103 0 -187.5 -36t-137.5 -94.5t-81.5 -130t-28.5 -146.5zM594 1348q-83 0 -153.5 -26t-131.5 -86t-103 -151t-64.5 -228t-18.5 -310q34 161 153 259.5
t310 98.5q209 0 338 -129t129 -344q0 -196 -130.5 -326.5t-344.5 -130.5q-63 0 -119 12t-114 38.5t-104 75.5t-82.5 116.5t-56.5 168t-20 224.5q0 382 137.5 578t380.5 196q175 0 280 -81t136 -211l-43 -5q-32 129 -131.5 195t-247.5 66z" />
    <glyph glyph-name="seven.plf" horiz-adv-x="956" 
d="M20 1323v37h936v-37q-631 -489 -677 -1323h-50q23 300 110.5 547.5t225.5 433.5t336 342h-881z" />
    <glyph glyph-name="eight.plf" horiz-adv-x="1150" 
d="M575 1384q205 0 327 -92.5t122 -242.5q0 -112 -79.5 -202t-211.5 -116q47 -10 90 -25.5t89.5 -44.5t80 -67.5t55 -97t21.5 -129.5q0 -183 -138 -287.5t-356 -104.5t-355.5 104.5t-137.5 287.5q0 71 21.5 129.5t55 97t80 67.5t89.5 44.5t90 25.5q-132 26 -211.5 116
t-79.5 202q0 151 121.5 243t326.5 92zM575 715q-206 0 -328 -91t-122 -257q0 -167 122.5 -261t327.5 -94t328 94t123 261q0 166 -122.5 257t-328.5 91zM981 1049q0 137 -110.5 218t-295.5 81t-295 -80.5t-110 -218.5q0 -57 23.5 -109t70.5 -97t127.5 -71.5t183.5 -26.5
t183.5 26.5t127.5 71.5t71 97t24 109z" />
    <glyph glyph-name="nine.plf" horiz-adv-x="1134" 
d="M989 899q0 110 -36.5 197.5t-98 141.5t-137.5 82t-160 28q-189 0 -310.5 -118t-121.5 -300q0 -199 118 -318.5t312 -119.5q103 0 187.5 36t137 94.5t81 130t28.5 146.5zM541 12q83 0 153.5 26t131.5 86t103 151t64.5 228t18.5 310q-34 -161 -153 -259.5t-310 -98.5
q-209 0 -338 129t-129 344q0 196 130.5 326t344.5 130q76 0 142.5 -16t133.5 -60t114 -113t76.5 -183t29.5 -262q0 -171 -29.5 -309t-90 -244t-161.5 -164t-237 -58q-175 0 -279 80.5t-137 212.5l43 4q32 -129 131 -194.5t248 -65.5z" />
    <glyph glyph-name="zero.pof" horiz-adv-x="1167" 
d="M584 -23q-126 0 -223 47.5t-157.5 134t-91 203t-30.5 259.5t30.5 259t91 202.5t157.5 134t223 47.5q167 0 281.5 -83.5t167 -225.5t52.5 -334q0 -143 -30.5 -259.5t-90.5 -203t-157 -134t-223 -47.5zM584 14q214 0 336 156t122 451q0 294 -122.5 450t-335.5 156
q-214 0 -336.5 -156t-122.5 -450q0 -295 122.5 -451t336.5 -156z" />
    <glyph glyph-name="zeroslashed.pof" horiz-adv-x="1167" 
d="M584 -23q-126 0 -223 47.5t-157.5 134t-91 203t-30.5 259.5t30.5 259t91 202.5t157.5 134t223 47.5q167 0 281.5 -83.5t167 -225.5t52.5 -334q0 -143 -30.5 -259.5t-90.5 -203t-157 -134t-223 -47.5zM584 14q214 0 336 156t122 451q0 61 -6 120l-901 -274
q30 -221 147.5 -337t301.5 -116zM125 621q0 -43 4 -113l901 274q-32 217 -148.5 331t-297.5 114q-214 0 -336.5 -156t-122.5 -450z" />
    <glyph glyph-name="one.pof" horiz-adv-x="503" 
d="M340 0h-39v1149q-30 -57 -117.5 -101t-179.5 -53l-4 35q64 4 128 30t115.5 76t63.5 113h33v-1249z" />
    <glyph glyph-name="two.pof" horiz-adv-x="999" 
d="M506 1264q175 0 280 -87.5t105 -246.5q0 -84 -36.5 -170t-99 -166.5t-166 -175t-217 -181.5t-272.5 -200h838v-37h-897v37q215 153 354.5 265t247.5 223t156.5 209t48.5 196t-48.5 166.5t-124 99.5t-169.5 31q-59 0 -111 -10.5t-102 -37.5t-87 -68t-61 -105.5t-28 -147.5
h-41q7 137 65.5 230t150.5 134.5t214 41.5z" />
    <glyph glyph-name="three.pof" horiz-adv-x="1003" 
d="M487 14q173 0 287.5 84t114.5 226q0 303 -422 303h-25v37h19q201 0 300 78.5t99 213.5q0 122 -103 196.5t-253 74.5q-165 0 -272.5 -80.5t-135.5 -220.5l-41 4q34 158 150.5 246t298.5 88q107 0 197 -35t146 -106t56 -165q0 -71 -26 -128.5t-69.5 -94t-94.5 -58.5
t-107 -30q146 -13 236 -93.5t90 -225.5q0 -110 -61.5 -191t-161 -120.5t-222.5 -39.5q-188 0 -306.5 92t-149.5 253l41 6q33 -157 140 -235.5t275 -78.5z" />
    <glyph glyph-name="four.pof" horiz-adv-x="1073" 
d="M750 1184l-693 -789h693v789zM1063 395v-37h-272v-358h-41v358h-740v35l742 848h39v-846h272z" />
    <glyph glyph-name="five.pof" horiz-adv-x="1042" 
d="M516 14q177 0 294.5 103.5t117.5 277.5q0 172 -109 281.5t-291 109.5q-132 0 -232 -53t-153 -149l-30 6l96 651h709l-3 -39h-675l-82 -543q53 71 147 117.5t230 46.5q192 0 314 -117.5t122 -310.5q0 -192 -130 -305t-325 -113q-184 0 -303.5 91t-151.5 254l41 6
q33 -156 141 -235t273 -79z" />
    <glyph glyph-name="six.pof" horiz-adv-x="1058" 
d="M145 420q0 -99 34 -178t91.5 -127.5t129.5 -74.5t151 -26q176 0 289.5 107t113.5 272q0 180 -109.5 287.5t-291.5 107.5q-78 0 -145 -21t-114.5 -57t-81.5 -83.5t-50.5 -100t-16.5 -106.5zM565 1227q-78 0 -144 -23.5t-123 -78t-96.5 -136.5t-60.5 -205t-18 -278
q32 143 144 231t290 88q198 0 319 -117.5t121 -312.5q0 -179 -122.5 -298.5t-323.5 -119.5q-72 0 -135.5 15.5t-126.5 56.5t-107.5 104.5t-72 167t-27.5 236.5q0 346 130 526.5t359 180.5q165 0 264.5 -75.5t129.5 -195.5l-43 -4q-30 117 -124 177.5t-233 60.5z" />
    <glyph glyph-name="seven.pof" horiz-adv-x="862" 
d="M0 1202v39h883v-39q-594 -441 -637 -1202h-49q33 407 191.5 699t438.5 503h-827z" />
    <glyph glyph-name="eight.pof" horiz-adv-x="1095" 
d="M549 1264q193 0 307.5 -85.5t114.5 -222.5q0 -103 -74.5 -184t-198.5 -104q45 -10 86 -24.5t84 -42t74.5 -62.5t51.5 -88t20 -117q0 -166 -130 -261.5t-335 -95.5q-206 0 -336.5 95.5t-130.5 261.5q0 64 20 117t51.5 88t75 62.5t83.5 42t85 24.5q-123 23 -197.5 104.5
t-74.5 183.5q0 137 115 222.5t309 85.5zM549 649q-195 0 -309.5 -82t-114.5 -233q0 -150 115.5 -235t308.5 -85q192 0 307 85t115 235q0 151 -114.5 233t-307.5 82zM928 954q0 125 -103 199t-276 74q-174 0 -277.5 -73.5t-103.5 -199.5q0 -111 97 -191.5t284 -80.5
q96 0 171 23.5t119 63t66.5 86.5t22.5 99z" />
    <glyph glyph-name="nine.pof" horiz-adv-x="1054" 
d="M911 821q0 99 -34 178t-91 127.5t-129 74.5t-151 26q-177 0 -291.5 -107.5t-114.5 -271.5q0 -181 111 -288t293 -107q96 0 175 32.5t128.5 85t76.5 117.5t27 133zM489 14q78 0 144.5 23.5t124 78t97 136.5t60.5 205t17 278q-32 -144 -143.5 -231.5t-290.5 -87.5
q-197 0 -319 117.5t-122 312.5q0 179 124 298.5t325 119.5q72 0 135.5 -15.5t126 -56.5t106.5 -104.5t71.5 -167.5t27.5 -238q0 -155 -28 -281t-85.5 -222t-153 -149t-223.5 -53q-164 0 -262 74t-129 195l43 4q29 -117 122 -176.5t232 -59.5z" />
    <glyph glyph-name="zero.tlf" horiz-adv-x="1290" 
d="M645 -25q-134 0 -236.5 52t-166.5 147t-96.5 222.5t-32.5 283.5t32.5 283.5t96.5 222t166.5 146.5t236.5 52t237 -52t167 -146.5t96.5 -222t32.5 -283.5q0 -124 -20 -230.5t-62.5 -194.5t-105 -150t-150 -96t-195.5 -34zM645 12q228 0 359 172t131 496t-131 496t-359 172
q-227 0 -358 -172t-131 -496t131 -496t358 -172z" />
    <glyph glyph-name="zeroslashed.tlf" horiz-adv-x="1290" 
d="M645 -25q-134 0 -236.5 52t-166.5 147t-96.5 222.5t-32.5 283.5t32.5 283.5t96.5 222t166.5 146.5t236.5 52t237 -52t167 -146.5t96.5 -222t32.5 -283.5q0 -124 -20 -230.5t-62.5 -194.5t-105 -150t-150 -96t-195.5 -34zM645 12q228 0 359 172t131 496q0 68 -11 154
l-958 -326q33 -243 158.5 -369.5t320.5 -126.5zM156 680q0 -70 6 -131l958 328q-38 230 -162 350.5t-313 120.5q-227 0 -358 -172t-131 -496z" />
    <glyph glyph-name="one.tlf" horiz-adv-x="1290" 
d="M684 37h389v-37h-856v37h428v1231q-37 -64 -158 -115.5t-239 -60.5l-4 34q78 5 163.5 34t157.5 85.5t84 124.5h35v-1333z" />
    <glyph glyph-name="two.tlf" horiz-adv-x="1290" 
d="M662 1384q185 0 296 -95t111 -269q0 -93 -39 -187.5t-105.5 -183.5t-177 -193t-231 -199.5t-289.5 -219.5h893v-37h-952v37q181 133 309 235.5t237.5 205.5t174.5 190.5t101 176t36 175.5q0 160 -103.5 244t-260.5 84q-63 0 -118.5 -12t-109 -41t-92.5 -74.5t-65 -116.5
t-31 -162h-41q12 222 135.5 332t321.5 110z" />
    <glyph glyph-name="three.tlf" horiz-adv-x="1290" 
d="M653 12q184 0 305 92.5t121 249.5q0 334 -446 334h-27v37h19q214 0 320 88t106 236q0 136 -110.5 217.5t-270.5 81.5q-177 0 -290.5 -88.5t-143.5 -243.5l-41 4q35 173 159 268.5t316 95.5q114 0 209 -37.5t155 -114.5t60 -181q0 -79 -28 -142.5t-74.5 -103.5t-101 -64
t-114.5 -32q156 -13 251 -102t95 -249q0 -120 -64.5 -208.5t-169.5 -131.5t-235 -43q-200 0 -325.5 100t-159.5 277l41 6q35 -174 149 -260t295 -86z" />
    <glyph glyph-name="four.tlf" horiz-adv-x="1290" 
d="M872 1305l-739 -875h739v875zM1202 430v-35h-291v-395h-39v395h-786v35l786 930h39v-930h291z" />
    <glyph glyph-name="five.tlf" horiz-adv-x="1290" 
d="M645 12q188 0 313 114t125 306q0 190 -116 312t-310 122q-141 0 -247 -59t-162 -166l-31 6l102 713h750v-37h-719l-88 -602q58 78 157.5 130t244.5 52q204 0 333 -129.5t129 -341.5q0 -210 -137.5 -333.5t-343.5 -123.5q-196 0 -322 98.5t-161 278.5l41 6
q34 -173 149 -259.5t293 -86.5z" />
    <glyph glyph-name="six.tlf" horiz-adv-x="1290" 
d="M223 461q0 -110 36.5 -197.5t98 -141.5t137.5 -82t160 -28q189 0 310.5 118t121.5 300q0 199 -118 318.5t-312 119.5q-103 0 -187.5 -36t-137 -94.5t-81 -130t-28.5 -146.5zM672 1348q-83 0 -153.5 -26t-131.5 -86t-103 -151t-64.5 -228t-18.5 -310q34 161 153 259.5
t310 98.5q209 0 337.5 -129t128.5 -344q0 -196 -130.5 -326.5t-344.5 -130.5q-53 0 -102 8t-99.5 28.5t-92.5 52t-80 81.5t-64.5 115t-41.5 154t-15 196q0 382 137.5 578t380.5 196q175 0 280 -81t136 -211l-43 -5q-32 129 -131.5 195t-247.5 66z" />
    <glyph glyph-name="seven.tlf" horiz-adv-x="1290" 
d="M176 1323v37h936v-37q-632 -490 -678 -1323h-49q23 300 110.5 547.5t225.5 433.5t336 342h-881z" />
    <glyph glyph-name="eight.tlf" horiz-adv-x="1290" 
d="M645 1384q205 0 327 -92.5t122 -242.5q0 -112 -79.5 -202t-211.5 -116q47 -10 90 -25.5t89.5 -44.5t80 -67.5t55 -97t21.5 -129.5q0 -183 -138 -287.5t-356 -104.5t-355.5 104.5t-137.5 287.5q0 71 21.5 129.5t55 97t79.5 67.5t89 44.5t90 25.5q-132 26 -211 116t-79 202
q0 151 121.5 243t326.5 92zM645 715q-206 0 -328 -91t-122 -257q0 -167 122.5 -261t327.5 -94t328 94t123 261q0 166 -122.5 257t-328.5 91zM1051 1049q0 137 -110.5 218t-295.5 81t-295 -80.5t-110 -218.5q0 -57 23.5 -109t70.5 -97t127.5 -71.5t183.5 -26.5t183.5 26.5
t127.5 71.5t71 97t24 109z" />
    <glyph glyph-name="nine.tlf" horiz-adv-x="1290" 
d="M1067 899q0 110 -36.5 197.5t-98 141.5t-137.5 82t-160 28q-189 0 -310.5 -118t-121.5 -300q0 -199 118 -318.5t312 -119.5q103 0 187.5 36t137 94.5t81 130t28.5 146.5zM618 12q83 0 153.5 26t131.5 86t103.5 151t65 228t18.5 310q-34 -161 -153 -259.5t-310 -98.5
q-209 0 -338 129t-129 344q0 196 130.5 326t344.5 130q76 0 142.5 -16t133 -60t113.5 -113t76.5 -183t29.5 -262q0 -171 -29.5 -309t-90 -244t-161.5 -164t-237 -58q-175 0 -278.5 80.5t-136.5 212.5l43 4q32 -129 130.5 -194.5t247.5 -65.5z" />
    <glyph glyph-name="zeroslashed.superior" horiz-adv-x="774" 
d="M393 819q-151 0 -227 107.5t-76 294.5t76 295t227 108t227 -108t76 -295t-76 -294.5t-227 -107.5zM393 854q122 0 191 93.5t69 273.5q0 25 -4 65l-510 -162q17 -134 83.5 -202t170.5 -68zM133 1221q0 -42 2 -60l510 164q-18 130 -84 197t-168 67q-121 0 -190.5 -94
t-69.5 -274z" />
    <glyph glyph-name="zeroslashed.inferior" horiz-adv-x="774" 
d="M393 -260q-151 0 -227 107.5t-76 293.5q0 187 76.5 295.5t226.5 108.5t226.5 -108.5t76.5 -295.5q0 -186 -76 -293.5t-227 -107.5zM393 -225q122 0 191 93t69 273q0 26 -4 66l-510 -162q17 -132 84 -201t170 -69zM133 141q0 -41 2 -59l510 164q-18 130 -84 197t-168 67
q-121 0 -190.5 -94t-69.5 -275z" />
    <glyph glyph-name="zero.denominator" horiz-adv-x="774" 
d="M393 -14q-151 0 -227 107.5t-76 293.5q0 187 76.5 295.5t226.5 108.5t226.5 -108.5t76.5 -295.5q0 -186 -76 -293.5t-227 -107.5zM393 20q122 0 191 93.5t69 273.5q0 181 -69.5 275t-190.5 94t-190.5 -94t-69.5 -275q0 -180 69 -273.5t191 -93.5z" />
    <glyph glyph-name="zeroslashed.denominator" horiz-adv-x="774" 
d="M393 -14q-151 0 -227 107.5t-76 293.5q0 187 76.5 295.5t226.5 108.5t226.5 -108.5t76.5 -295.5q0 -186 -76 -293.5t-227 -107.5zM393 20q122 0 191 93.5t69 273.5q0 26 -4 66l-510 -162q17 -134 83.5 -202.5t170.5 -68.5zM133 387q0 -41 2 -59l510 164q-18 130 -84 197
t-168 67q-121 0 -190.5 -94t-69.5 -275z" />
    <glyph glyph-name="one.denominator" horiz-adv-x="362" 
d="M250 0h-39v688q-32 -31 -84.5 -47t-95.5 -16v28q85 8 130.5 36.5t59.5 92.5h29v-782z" />
    <glyph glyph-name="two.denominator" horiz-adv-x="638" 
d="M326 791q106 0 169.5 -54.5t63.5 -152.5q0 -63 -29 -126t-91 -131t-140.5 -135t-196.5 -155h486v-37h-543v39q125 93 206.5 161t145 136t92.5 127.5t29 118.5q0 84 -55 129t-137 45q-43 0 -80 -11t-68.5 -35t-50.5 -68t-21 -105h-40q6 125 76 189.5t184 64.5z" />
    <glyph glyph-name="three.denominator" horiz-adv-x="659" 
d="M326 20q100 0 164.5 50t64.5 137q0 182 -250 182h-10v35h8q116 0 175 45.5t59 124.5q0 72 -57.5 117t-145.5 45q-90 0 -151.5 -47.5t-76.5 -133.5l-40 5q19 99 88.5 155t181.5 56q104 0 173 -52.5t69 -140.5q0 -78 -45.5 -127t-116.5 -63q81 -11 130.5 -61t49.5 -138
q0 -106 -77.5 -164.5t-192.5 -58.5t-187 59t-90 160l41 4q20 -94 82 -141.5t154 -47.5z" />
    <glyph glyph-name="four.denominator" horiz-adv-x="684" 
d="M461 721l-391 -465h391v465zM659 256v-37h-159v-219h-39v219h-438v35l438 522h39v-520h159z" />
    <glyph glyph-name="five.denominator" horiz-adv-x="673" 
d="M338 20q100 0 165.5 62t65.5 168t-63.5 168.5t-163.5 62.5q-74 0 -131 -32t-84 -87l-35 7l55 407h433l-2 -37h-398l-45 -315q30 40 86 66t129 26q115 0 188.5 -72t73.5 -194q0 -123 -78.5 -193.5t-195.5 -70.5q-113 0 -185.5 59t-89.5 160l41 4q20 -94 81.5 -141.5
t152.5 -47.5z" />
    <glyph glyph-name="six.denominator" horiz-adv-x="684" 
d="M117 256q0 -109 66.5 -172.5t162.5 -63.5q100 0 164.5 64t64.5 162q0 107 -62 171t-165 64q-106 0 -168.5 -66t-62.5 -159zM356 756q-116 0 -185.5 -102t-66.5 -314q23 79 87.5 127.5t160.5 48.5q118 0 191 -73.5t73 -194.5q0 -112 -74 -187t-196 -75q-127 0 -203.5 87
t-76.5 279q0 210 75 324.5t221 114.5q100 0 160 -49t76 -126l-41 -4q-15 70 -68 107t-133 37z" />
    <glyph glyph-name="seven.denominator" horiz-adv-x="587" 
d="M31 739v37h532v-37q-353 -270 -375 -739h-45q19 253 113 432t256 307h-481z" />
    <glyph glyph-name="eight.denominator" horiz-adv-x="688" 
d="M344 791q116 0 185 -53.5t69 -139.5q0 -65 -40 -115t-107 -67q174 -48 174 -205q0 -105 -79 -165t-202 -60q-125 0 -203 60t-78 165q0 158 173 205q-67 17 -107.5 67t-40.5 115q0 86 69.5 139.5t186.5 53.5zM344 399q-110 0 -175 -49.5t-65 -138.5t65 -140t175 -51
q108 0 173 51.5t65 139.5q0 89 -64.5 138.5t-173.5 49.5zM557 594q0 75 -58 118.5t-155 43.5q-99 0 -157 -43.5t-58 -118.5q0 -69 56 -116.5t159 -47.5q102 0 157.5 47.5t55.5 116.5z" />
    <glyph glyph-name="nine.denominator" horiz-adv-x="679" 
d="M559 518q0 111 -65.5 174.5t-161.5 63.5q-101 0 -165.5 -63.5t-64.5 -162.5q0 -107 62.5 -171t165.5 -64q106 0 167.5 65t61.5 158zM319 20q118 0 187.5 101.5t66.5 312.5q-23 -78 -87 -126t-160 -48q-119 0 -192 73.5t-73 194.5q0 112 74.5 187.5t196.5 75.5
q127 0 203.5 -87.5t76.5 -279.5q0 -97 -16.5 -174.5t-51 -137.5t-93.5 -93t-138 -33q-99 0 -157.5 48t-77.5 126l43 4q15 -70 67.5 -107t130.5 -37z" />
    <glyph glyph-name="zero.numerator" horiz-adv-x="774" 
d="M393 569q-151 0 -227 107.5t-76 294.5t76 295t227 108t227 -108t76 -295t-76 -294.5t-227 -107.5zM393 604q122 0 191 93.5t69 273.5t-69.5 274t-190.5 94t-190.5 -94t-69.5 -274t69 -273.5t191 -93.5z" />
    <glyph glyph-name="zeroslashed.numerator" horiz-adv-x="774" 
d="M393 569q-151 0 -227 107.5t-76 294.5t76 295t227 108t227 -108t76 -295t-76 -294.5t-227 -107.5zM393 604q122 0 191 93.5t69 273.5q0 25 -4 65l-510 -162q17 -134 83.5 -202t170.5 -68zM133 971q0 -42 2 -60l510 164q-18 130 -84 197t-168 67q-121 0 -190.5 -94
t-69.5 -274z" />
    <glyph glyph-name="one.numerator" horiz-adv-x="362" 
d="M250 584h-39v688q-32 -31 -84.5 -47.5t-95.5 -16.5v29q85 8 130.5 36.5t59.5 92.5h29v-782z" />
    <glyph glyph-name="two.numerator" horiz-adv-x="638" 
d="M326 1374q106 0 169.5 -54.5t63.5 -152.5q0 -63 -29 -125.5t-91.5 -131t-140.5 -134.5t-196 -155h486v-37h-543v39q252 187 362.5 307.5t110.5 234.5q0 84 -55 129t-137 45q-43 0 -80 -11t-68.5 -35t-50.5 -68t-21 -105h-40q6 125 76 189.5t184 64.5z" />
    <glyph glyph-name="three.numerator" horiz-adv-x="659" 
d="M326 604q100 0 164.5 50t64.5 137q0 182 -250 182h-10v35h8q116 0 175 45.5t59 124.5q0 72 -57.5 116.5t-145.5 44.5q-90 0 -151.5 -47t-76.5 -133l-40 4q19 99 88.5 155t181.5 56q104 0 173 -52t69 -140q0 -78 -45.5 -127.5t-116.5 -63.5q81 -11 130.5 -60.5
t49.5 -137.5q0 -106 -77.5 -165t-192.5 -59t-187 59t-90 160l41 5q20 -94 82 -141.5t154 -47.5z" />
    <glyph glyph-name="four.numerator" horiz-adv-x="684" 
d="M461 1305l-391 -465h391v465zM659 840v-37h-159v-219h-39v219h-438v35l438 522h39v-520h159z" />
    <glyph glyph-name="five.numerator" horiz-adv-x="673" 
d="M338 604q100 0 165.5 62t65.5 168t-63.5 168.5t-163.5 62.5q-74 0 -131 -32t-84 -87l-35 6l55 408h433l-2 -37h-398l-45 -315q30 40 86 66t129 26q115 0 188.5 -72t73.5 -194q0 -123 -78.5 -194t-195.5 -71q-113 0 -185.5 59t-89.5 160l41 5q20 -94 81.5 -141.5
t152.5 -47.5z" />
    <glyph glyph-name="six.numerator" horiz-adv-x="684" 
d="M117 840q0 -109 66.5 -172.5t162.5 -63.5q100 0 164.5 63.5t64.5 161.5q0 107 -62 171.5t-165 64.5q-106 0 -168.5 -66t-62.5 -159zM356 1339q-116 0 -185.5 -101.5t-66.5 -313.5q23 79 87.5 127.5t160.5 48.5q118 0 191 -74t73 -195q0 -112 -74 -187t-196 -75
q-127 0 -203.5 87.5t-76.5 279.5q0 210 75 324t221 114q100 0 160 -48.5t76 -125.5l-41 -4q-15 70 -68 106.5t-133 36.5z" />
    <glyph glyph-name="seven.numerator" horiz-adv-x="587" 
d="M31 1323v37h532v-37q-353 -270 -375 -739h-45q19 253 113 432t256 307h-481z" />
    <glyph glyph-name="eight.numerator" horiz-adv-x="688" 
d="M344 1374q116 0 185 -53t69 -139q0 -65 -40 -115.5t-107 -67.5q174 -48 174 -204q0 -105 -79 -165.5t-202 -60.5q-124 0 -202.5 60.5t-78.5 165.5q0 157 173 204q-67 17 -107.5 67.5t-40.5 115.5q0 86 69.5 139t186.5 53zM344 983q-110 0 -175 -49.5t-65 -138.5t65 -140
t175 -51q108 0 173 51.5t65 139.5q0 89 -64.5 138.5t-173.5 49.5zM557 1178q0 75 -58 118t-155 43q-99 0 -157 -43t-58 -118q0 -69 56 -116.5t159 -47.5q102 0 157.5 47.5t55.5 116.5z" />
    <glyph glyph-name="nine.numerator" horiz-adv-x="679" 
d="M559 1102q0 111 -65.5 174t-161.5 63q-101 0 -165.5 -63.5t-64.5 -161.5q0 -107 62.5 -171t165.5 -64q106 0 167.5 65t61.5 158zM319 604q118 0 187.5 101.5t66.5 312.5q-23 -78 -87 -126t-160 -48q-119 0 -192 73.5t-73 194.5q0 112 74.5 187t196.5 75q127 0 203.5 -87
t76.5 -279q0 -131 -28.5 -226t-97 -154t-173.5 -59q-99 0 -157.5 48t-77.5 126l43 5q15 -70 67.5 -107t130.5 -37z" />
    <glyph glyph-name="a.superior" horiz-adv-x="612" 
d="M123 1241l-41 2q8 78 68.5 125t156.5 47q103 0 155 -43.5t52 -148.5q0 -138 -2 -187q0 -100 6 -202h-39l-4 120q-24 -63 -79.5 -99t-135.5 -36q-93 0 -146 49.5t-53 128.5q0 69 54 113q61 42 227 59l133 15v39q0 92 -46 124.5t-126 32.5q-84 0 -128.5 -39t-51.5 -100z
M477 1090v59l-145 -16q-122 -14 -176 -44.5t-54 -93.5q0 -62 44 -101.5t118 -39.5q87 0 150 58t63 178z" />
    <glyph glyph-name="b.superior" horiz-adv-x="677" 
d="M111 834v776h39v-336q28 66 85 103.5t130 37.5q105 0 172 -80.5t67 -218.5q0 -136 -69.5 -216.5t-176.5 -80.5q-75 0 -127.5 37t-80.5 100v-122h-39zM358 1380q-86 0 -149.5 -67t-63.5 -197t63 -196t150 -66q89 0 147 70.5t58 191.5q0 123 -57.5 193.5t-147.5 70.5z" />
    <glyph glyph-name="c.superior" horiz-adv-x="636" 
d="M334 1415q93 0 157.5 -52t79.5 -132l-41 -6q-15 74 -68.5 114.5t-129.5 40.5q-99 0 -158 -71t-59 -191q0 -128 61.5 -195t153.5 -67q81 0 134.5 41.5t67.5 112.5l41 -4q-17 -86 -82 -136.5t-161 -50.5q-122 0 -190 82t-68 215q0 134 70 216.5t192 82.5z" />
    <glyph glyph-name="d.superior" horiz-adv-x="679" 
d="M567 1610v-776h-39v129q-28 -68 -84 -106t-129 -38q-106 0 -174.5 80.5t-68.5 218.5q0 136 70 216.5t177 80.5q149 0 209 -137v332h39zM319 854q86 0 148.5 67t62.5 197t-61 196t-147 66q-90 0 -148.5 -70t-58.5 -192q0 -123 57 -193.5t147 -70.5z" />
    <glyph glyph-name="e.superior" horiz-adv-x="667" 
d="M338 819q-124 0 -195 83t-71 216q0 135 74 216t194 81t189.5 -82t66.5 -215h-481q-3 -126 61.5 -194t163.5 -68q80 0 134 39t73 113l41 -7q-19 -85 -86 -133.5t-164 -48.5zM338 1380q-95 0 -155 -61.5t-68 -165.5h440q-2 95 -60.5 161t-156.5 66z" />
    <glyph glyph-name="f.superior" horiz-adv-x="337" 
d="M135 1407v76q0 73 25.5 100t101.5 27h33v-35h-19q-68 0 -85 -17.5t-17 -82.5v-68h121v-35h-121v-538h-39v538h-84v35h84z" />
    <glyph glyph-name="g.superior" horiz-adv-x="677" 
d="M526 825v152q-30 -67 -85 -104t-128 -37q-106 0 -173.5 77.5t-67.5 212.5q0 133 70 211t177 78q145 0 207 -135v127h39v-580q0 -110 -71 -159q-62 -45 -166 -45q-94 0 -155 46.5t-69 123.5l39 2q8 -59 54.5 -98.5t130.5 -39.5q82 0 135 31q63 43 63 137zM317 870
q85 0 149 65t64 191q0 127 -62.5 190.5t-148.5 63.5q-89 0 -146.5 -67.5t-57.5 -186.5q0 -120 56.5 -188t145.5 -68z" />
    <glyph glyph-name="h.superior" horiz-adv-x="651" 
d="M150 1610v-342q22 62 72 104.5t134 42.5q96 0 142 -49q55 -52 55 -176v-356h-39v344q0 114 -47 161q-38 41 -117 41q-93 0 -146.5 -71.5t-53.5 -184.5v-290h-39v776h39z" />
    <glyph glyph-name="i.superior" horiz-adv-x="264" 
d="M111 1407h39v-573h-39v573zM111 1610h39v-103h-39v103z" />
    <glyph glyph-name="j.superior" horiz-adv-x="264" 
d="M111 770v637h39v-641q0 -78 -23.5 -106.5t-97.5 -28.5h-23v37h8q63 0 80 19t17 83zM111 1610h39v-103h-39v103z" />
    <glyph glyph-name="k.superior" horiz-adv-x="557" 
d="M111 1610h39v-520l296 317h48l-215 -229l253 -344h-45l-235 315l-102 -109v-206h-39v776z" />
    <glyph glyph-name="l.superior" horiz-adv-x="264" 
d="M150 1610v-776h-39v776h39z" />
    <glyph glyph-name="m.superior" horiz-adv-x="1007" 
d="M111 834v573h39v-139q52 147 198 147q154 0 174 -153q53 153 205 153q91 0 137 -55q43 -51 43 -166v-360h-39v350q0 108 -39 153q-35 43 -114 43q-86 0 -136.5 -71t-50.5 -185v-290h-39v346q0 116 -40 159q-35 41 -113 41q-86 0 -136 -70.5t-50 -185.5v-290h-39z" />
    <glyph glyph-name="o.superior" horiz-adv-x="667" 
d="M115 1118q0 -126 61 -195t156 -69q96 0 157.5 69t61.5 195t-61.5 194t-157.5 68q-95 0 -156 -68t-61 -194zM72 1118q0 142 74.5 219.5t185.5 77.5q112 0 186 -77t74 -220q0 -144 -74 -221.5t-186 -77.5q-111 0 -185.5 77.5t-74.5 221.5z" />
    <glyph glyph-name="p.superior" horiz-adv-x="679" 
d="M150 954v-323h-39v776h39v-133q28 67 84.5 104t130.5 37q105 0 173 -80.5t68 -218.5q0 -136 -69.5 -216.5t-176.5 -80.5q-148 0 -210 135zM358 1380q-85 0 -149 -67.5t-64 -196.5q0 -130 63 -196t150 -66q89 0 147 70.5t58 191.5q0 123 -57 193.5t-148 70.5z" />
    <glyph glyph-name="q.superior" horiz-adv-x="677" 
d="M528 1280v127h39v-776h-39v330q-28 -66 -85 -104t-130 -38q-107 0 -174 80.5t-67 218.5q0 136 69 216.5t176 80.5q77 0 130.5 -36t80.5 -99zM317 854q86 0 150.5 67t64.5 197t-63 196t-150 66q-89 0 -146.5 -70t-57.5 -192q0 -123 56 -193.5t146 -70.5z" />
    <glyph glyph-name="r.superior" horiz-adv-x="364" 
d="M338 1409v-41h-12q-176 0 -176 -250v-284h-39v573h36v-141q18 65 64.5 105t116.5 40q6 0 10 -2z" />
    <glyph glyph-name="s.superior" horiz-adv-x="595" 
d="M516 1260l-39 -7q-32 127 -182 127q-62 0 -114 -27.5t-52 -80.5q0 -89 121 -111l86 -18q92 -18 143 -52t51 -104q0 -81 -62.5 -124.5t-158.5 -43.5q-99 0 -159.5 48.5t-75.5 133.5l41 7q29 -154 196 -154q71 0 124.5 32t53.5 95q0 56 -39.5 83t-117.5 42l-90 18
q-154 29 -154 146q0 65 61.5 105t149.5 40q90 0 146.5 -41t70.5 -114z" />
    <glyph glyph-name="t.superior" horiz-adv-x="356" 
d="M137 1407v149h39v-149h121v-35h-121v-391q0 -75 14 -94t80 -19h27v-34h-39q-75 0 -98 24.5t-23 106.5v407h-102v35h102z" />
    <glyph glyph-name="u.superior" horiz-adv-x="632" 
d="M481 834v133q-53 -148 -202 -148q-95 0 -144 55q-43 51 -43 168v365h39v-354q0 -106 35 -150q38 -49 121 -49q90 0 142 70t52 176v307h39v-573h-39z" />
    <glyph glyph-name="v.superior" horiz-adv-x="544" 
d="M66 1407l206 -522l205 522h43l-229 -573h-39l-229 573h43z" />
    <glyph glyph-name="w.superior" horiz-adv-x="817" 
d="M223 891l164 516h41l166 -516l156 516h43l-181 -573h-39l-165 518l-166 -518h-37l-182 573h43z" />
    <glyph glyph-name="x.superior" horiz-adv-x="546" 
d="M506 1407l-211 -277l227 -296h-47l-205 266l-200 -266h-45l223 294l-211 279h47l188 -248l189 248h45z" />
    <glyph glyph-name="y.superior" horiz-adv-x="544" 
d="M106 631h-30v35h33q47 0 71 21.5t53 92.5l21 54l-231 573h43l208 -520l203 520h43l-252 -631q-34 -87 -63.5 -116t-98.5 -29z" />
    <glyph glyph-name="z.superior" horiz-adv-x="538" 
d="M49 834v32l383 506h-358v35h407v-35l-383 -504h387v-34h-436z" />
    <glyph glyph-name="a.inferior" horiz-adv-x="612" 
d="M123 162l-41 2q8 78 68.5 125t156.5 47q103 0 155 -44t52 -149q0 -137 -2 -186q0 -101 6 -203h-39l-4 121q-24 -63 -79.5 -99t-135.5 -36q-93 0 -146 49.5t-53 128.5q0 69 54 113q61 42 227 59l133 14v39q0 92 -46 125t-126 33q-84 0 -128.5 -39t-51.5 -100zM477 10v60
l-145 -17q-123 -14 -176.5 -44t-53.5 -93q0 -62 44 -101.5t118 -39.5q88 0 150.5 57.5t62.5 177.5z" />
    <glyph glyph-name="b.inferior" horiz-adv-x="677" 
d="M111 -246v776h39v-335q28 66 85 103.5t130 37.5q105 0 172 -80.5t67 -218.5q0 -136 -69.5 -216.5t-176.5 -80.5q-75 0 -127.5 37t-80.5 100v-123h-39zM358 301q-86 0 -149.5 -67t-63.5 -197t63 -196t150 -66q89 0 147 70.5t58 191.5q0 123 -57.5 193.5t-147.5 70.5z" />
    <glyph glyph-name="c.inferior" horiz-adv-x="636" 
d="M334 336q93 0 157.5 -52t79.5 -132l-41 -7q-15 74 -68.5 115t-129.5 41q-99 0 -158 -71t-59 -191q0 -128 61.5 -195t153.5 -67q81 0 134.5 41t67.5 112l41 -4q-17 -85 -82 -135.5t-161 -50.5q-122 0 -190 82t-68 215q0 134 70 216.5t192 82.5z" />
    <glyph glyph-name="d.inferior" horiz-adv-x="679" 
d="M567 530v-776h-39v129q-28 -68 -84 -105.5t-129 -37.5q-106 0 -174.5 80.5t-68.5 218.5q0 136 70 216.5t177 80.5q149 0 209 -137v331h39zM319 -225q86 0 148.5 67t62.5 197t-61 196t-147 66q-90 0 -148.5 -70t-58.5 -192q0 -123 57 -193.5t147 -70.5z" />
    <glyph glyph-name="e.inferior" horiz-adv-x="667" 
d="M338 -260q-124 0 -195 83t-71 216q0 135 74 216t194 81t189.5 -82t66.5 -215h-481q-3 -125 61.5 -193.5t163.5 -68.5q81 0 134.5 38.5t72.5 112.5l41 -6q-19 -85 -86 -133.5t-164 -48.5zM338 301q-95 0 -155 -61.5t-68 -165.5h440q-2 95 -60.5 161t-156.5 66z" />
    <glyph glyph-name="f.inferior" horiz-adv-x="337" 
d="M135 328v75q0 73 25.5 100t101.5 27h33v-34h-19q-68 0 -85 -17.5t-17 -83.5v-67h121v-35h-121v-539h-39v539h-84v35h84z" />
    <glyph glyph-name="g.inferior" horiz-adv-x="677" 
d="M526 -254v152q-30 -67 -85 -104.5t-128 -37.5q-106 0 -173.5 78t-67.5 213q0 133 70 211t177 78q145 0 207 -135v127h39v-580q0 -111 -71 -160q-62 -45 -166 -45q-94 0 -155 46.5t-69 123.5l39 2q8 -59 54.5 -98t130.5 -39q82 0 135 31q63 43 63 137zM317 -209
q85 0 149 65t64 191q0 127 -62.5 190.5t-148.5 63.5q-89 0 -146.5 -67.5t-57.5 -186.5q0 -120 56.5 -188t145.5 -68z" />
    <glyph glyph-name="h.inferior" horiz-adv-x="651" 
d="M150 530v-342q22 63 72 105.5t134 42.5q96 0 142 -49q55 -52 55 -176v-357h-39v344q0 115 -47 162q-38 41 -117 41q-93 0 -146.5 -71.5t-53.5 -184.5v-291h-39v776h39z" />
    <glyph glyph-name="i.inferior" horiz-adv-x="264" 
d="M111 328h39v-574h-39v574zM111 530h39v-102h-39v102z" />
    <glyph glyph-name="j.inferior" horiz-adv-x="264" 
d="M111 -309v637h39v-641q0 -78 -23.5 -107t-97.5 -29h-23v37h8q63 0 80 19t17 84zM111 530h39v-102h-39v102z" />
    <glyph glyph-name="k.inferior" horiz-adv-x="557" 
d="M111 530h39v-520l296 318h48l-215 -230l253 -344h-45l-235 316l-102 -109v-207h-39v776z" />
    <glyph glyph-name="l.inferior" horiz-adv-x="264" 
d="M150 530v-776h-39v776h39z" />
    <glyph glyph-name="m.inferior" horiz-adv-x="1007" 
d="M111 -246v574h39v-140q53 148 198 148q154 0 174 -154q53 154 205 154q91 0 137 -55q43 -51 43 -166v-361h-39v350q0 109 -39 154q-35 43 -114 43q-86 0 -136.5 -71t-50.5 -185v-291h-39v346q0 117 -40 160q-35 41 -113 41q-86 0 -136 -70.5t-50 -185.5v-291h-39z" />
    <glyph glyph-name="n.inferior" horiz-adv-x="651" 
d="M150 328v-140q22 63 72 105.5t134 42.5q96 0 142 -49q55 -52 55 -176v-357h-39v344q0 115 -47 162q-38 41 -117 41q-93 0 -146.5 -71.5t-53.5 -184.5v-291h-39v574h39z" />
    <glyph glyph-name="o.inferior" horiz-adv-x="667" 
d="M115 39q0 -126 61 -195t156 -69q96 0 157.5 69t61.5 195t-61.5 194t-157.5 68q-95 0 -156 -68t-61 -194zM72 39q0 142 74.5 219.5t185.5 77.5q112 0 186 -77t74 -220q0 -144 -74 -221.5t-186 -77.5q-111 0 -185.5 77.5t-74.5 221.5z" />
    <glyph glyph-name="p.inferior" horiz-adv-x="679" 
d="M150 -125v-324h-39v777h39v-133q28 67 84.5 104t130.5 37q105 0 173 -80.5t68 -218.5q0 -136 -69.5 -216.5t-176.5 -80.5q-148 0 -210 135zM358 301q-85 0 -149 -67.5t-64 -196.5q0 -130 63 -196t150 -66q89 0 147 70.5t58 191.5q0 123 -57 193.5t-148 70.5z" />
    <glyph glyph-name="q.inferior" horiz-adv-x="677" 
d="M528 201v127h39v-777h-39v330q-28 -66 -85 -103.5t-130 -37.5q-107 0 -174 80.5t-67 218.5q0 136 69 216.5t176 80.5q77 0 130.5 -36t80.5 -99zM317 -225q86 0 150.5 67t64.5 197t-63 196t-150 66q-89 0 -146.5 -70t-57.5 -192q0 -123 56 -193.5t146 -70.5z" />
    <glyph glyph-name="r.inferior" horiz-adv-x="364" 
d="M338 330v-41h-12q-176 0 -176 -250v-285h-39v574h36v-142q18 65 64.5 105.5t116.5 40.5q6 0 10 -2z" />
    <glyph glyph-name="s.inferior" horiz-adv-x="595" 
d="M516 180l-39 -6q-32 127 -182 127q-62 0 -114 -27.5t-52 -80.5q0 -89 121 -111l86 -19q92 -18 143 -51.5t51 -103.5q0 -81 -62.5 -124.5t-158.5 -43.5q-99 0 -159.5 48.5t-75.5 133.5l41 6q29 -153 196 -153q71 0 124.5 32t53.5 95q0 56 -39.5 83t-117.5 42l-90 18
q-154 29 -154 145q0 65 61.5 105.5t149.5 40.5q90 0 146.5 -41.5t70.5 -114.5z" />
    <glyph glyph-name="t.inferior" horiz-adv-x="356" 
d="M137 328v149h39v-149h121v-35h-121v-391q0 -75 14 -94t80 -19h27v-35h-39q-75 0 -98 24.5t-23 106.5v408h-102v35h102z" />
    <glyph glyph-name="u.inferior" horiz-adv-x="632" 
d="M481 -246v133q-53 -147 -202 -147q-95 0 -144 55q-43 51 -43 168v365h39v-355q0 -105 35 -149q38 -49 121 -49q90 0 142 69.5t52 175.5v308h39v-574h-39z" />
    <glyph glyph-name="v.inferior" horiz-adv-x="544" 
d="M66 328l206 -523l205 523h43l-229 -574h-39l-229 574h43z" />
    <glyph glyph-name="w.inferior" horiz-adv-x="817" 
d="M223 -188l164 516h41l166 -516l156 516h43l-181 -574h-39l-165 518l-166 -518h-37l-182 574h43z" />
    <glyph glyph-name="x.inferior" horiz-adv-x="546" 
d="M506 328l-211 -277l227 -297h-47l-205 266l-200 -266h-45l223 295l-211 279h47l188 -248l189 248h45z" />
    <glyph glyph-name="y.inferior" horiz-adv-x="544" 
d="M106 -449h-30v35h33q47 0 71 22t53 93l21 53l-231 574h43l208 -521l203 521h43l-252 -631q-35 -88 -64.5 -117t-97.5 -29z" />
    </font>
</defs>
</svg>
